G04 EAGLE Gerber RS-274X export*
G75*
%MOMM*%
%FSLAX34Y34*%
%LPD*%
%INBottom Copper*%
%IPPOS*%
%AMOC8*
5,1,8,0,0,1.08239X$1,22.5*%
G01*
%ADD10C,1.158000*%
%ADD11C,1.879600*%
%ADD12R,2.368000X2.403600*%
%ADD13R,1.000000X1.400000*%
%ADD14R,1.117600X0.355600*%
%ADD15R,0.540000X0.600000*%
%ADD16C,0.158750*%
%ADD17C,0.127000*%
%ADD18R,2.286000X0.609600*%
%ADD19C,0.270000*%
%ADD20R,0.560000X0.350000*%
%ADD21R,0.200000X1.600000*%
%ADD22R,1.270000X2.540000*%
%ADD23C,0.706400*%
%ADD24C,0.200000*%
%ADD25C,0.304800*%
%ADD26C,0.609600*%
%ADD27C,0.406400*%
%ADD28C,0.254000*%

G36*
X19686Y1363D02*
X19686Y1363D01*
X19782Y1379D01*
X19812Y1382D01*
X21858Y1382D01*
X21879Y1385D01*
X21926Y1385D01*
X22805Y1465D01*
X22813Y1462D01*
X22864Y1432D01*
X22927Y1419D01*
X22987Y1396D01*
X23081Y1387D01*
X23103Y1382D01*
X23114Y1384D01*
X23134Y1382D01*
X228797Y1382D01*
X228875Y1394D01*
X228953Y1398D01*
X228994Y1414D01*
X229038Y1421D01*
X229061Y1434D01*
X230043Y1383D01*
X230056Y1384D01*
X230081Y1382D01*
X230260Y1382D01*
X230271Y1384D01*
X230292Y1382D01*
X233406Y1517D01*
X233439Y1524D01*
X233472Y1523D01*
X233616Y1556D01*
X235352Y2148D01*
X237551Y2897D01*
X239673Y3620D01*
X239734Y3652D01*
X239798Y3676D01*
X239867Y3724D01*
X239888Y3735D01*
X239898Y3745D01*
X239919Y3760D01*
X244778Y7925D01*
X244823Y7978D01*
X244874Y8023D01*
X244920Y8094D01*
X244935Y8112D01*
X244940Y8125D01*
X244955Y8147D01*
X247921Y13818D01*
X247931Y13849D01*
X247949Y13877D01*
X247992Y14019D01*
X248604Y17090D01*
X248604Y17091D01*
X248618Y17237D01*
X248618Y96926D01*
X248606Y96998D01*
X248604Y97071D01*
X248587Y97118D01*
X248579Y97166D01*
X248544Y97231D01*
X248518Y97300D01*
X248487Y97338D01*
X248464Y97381D01*
X248410Y97432D01*
X248363Y97489D01*
X248321Y97515D01*
X248286Y97548D01*
X248219Y97579D01*
X248156Y97618D01*
X248108Y97629D01*
X248063Y97649D01*
X247990Y97656D01*
X247919Y97673D01*
X247870Y97668D01*
X247820Y97673D01*
X247749Y97657D01*
X247676Y97649D01*
X247631Y97629D01*
X247583Y97618D01*
X247520Y97579D01*
X247453Y97549D01*
X247397Y97502D01*
X247375Y97489D01*
X247365Y97476D01*
X247339Y97455D01*
X246778Y96894D01*
X245257Y95789D01*
X243583Y94936D01*
X241796Y94355D01*
X240499Y94150D01*
X240499Y105250D01*
X240495Y105274D01*
X240498Y105298D01*
X240475Y105394D01*
X240459Y105491D01*
X240448Y105512D01*
X240442Y105536D01*
X240391Y105619D01*
X240344Y105706D01*
X240327Y105723D01*
X240314Y105743D01*
X240238Y105806D01*
X240166Y105873D01*
X240144Y105883D01*
X240125Y105898D01*
X240034Y105933D01*
X239944Y105973D01*
X239920Y105976D01*
X239897Y105985D01*
X239750Y105999D01*
X238999Y105999D01*
X238999Y106750D01*
X238995Y106774D01*
X238998Y106798D01*
X238975Y106894D01*
X238959Y106991D01*
X238948Y107012D01*
X238942Y107036D01*
X238891Y107120D01*
X238844Y107206D01*
X238827Y107223D01*
X238814Y107243D01*
X238738Y107306D01*
X238666Y107373D01*
X238644Y107383D01*
X238625Y107398D01*
X238533Y107433D01*
X238444Y107474D01*
X238420Y107476D01*
X238397Y107485D01*
X238250Y107499D01*
X227150Y107499D01*
X227355Y108796D01*
X227936Y110583D01*
X228789Y112257D01*
X229894Y113777D01*
X231223Y115106D01*
X232104Y115747D01*
X232111Y115754D01*
X232119Y115758D01*
X232196Y115840D01*
X232275Y115920D01*
X232280Y115929D01*
X232286Y115936D01*
X232333Y116038D01*
X232382Y116140D01*
X232383Y116150D01*
X232387Y116159D01*
X232398Y116271D01*
X232412Y116382D01*
X232410Y116392D01*
X232411Y116401D01*
X232386Y116511D01*
X232363Y116621D01*
X232358Y116630D01*
X232356Y116639D01*
X232297Y116735D01*
X232240Y116832D01*
X232232Y116838D01*
X232227Y116846D01*
X232140Y116918D01*
X232055Y116991D01*
X232046Y116995D01*
X232039Y117001D01*
X231934Y117041D01*
X231829Y117084D01*
X231820Y117084D01*
X231810Y117088D01*
X231663Y117102D01*
X207029Y117102D01*
X207000Y117126D01*
X206976Y117135D01*
X206956Y117150D01*
X206862Y117178D01*
X206771Y117212D01*
X206738Y117216D01*
X206722Y117221D01*
X206697Y117220D01*
X206624Y117227D01*
X182537Y117227D01*
X182441Y117211D01*
X182344Y117202D01*
X182321Y117191D01*
X182296Y117187D01*
X182210Y117141D01*
X182121Y117101D01*
X182096Y117080D01*
X182081Y117072D01*
X182064Y117054D01*
X182007Y117008D01*
X165538Y100539D01*
X165481Y100459D01*
X165419Y100384D01*
X165411Y100361D01*
X165396Y100340D01*
X165368Y100247D01*
X165333Y100156D01*
X165330Y100123D01*
X165325Y100107D01*
X165326Y100082D01*
X165319Y100009D01*
X165319Y86784D01*
X165335Y86687D01*
X165344Y86590D01*
X165354Y86568D01*
X165358Y86543D01*
X165384Y86495D01*
X165386Y86487D01*
X165403Y86460D01*
X165404Y86457D01*
X165445Y86368D01*
X165466Y86342D01*
X165473Y86328D01*
X165492Y86311D01*
X165507Y86291D01*
X165515Y86280D01*
X165522Y86274D01*
X165538Y86254D01*
X165803Y85989D01*
X165803Y82011D01*
X162989Y79197D01*
X159011Y79197D01*
X156197Y82011D01*
X156197Y85989D01*
X156462Y86254D01*
X156507Y86317D01*
X156544Y86357D01*
X156552Y86374D01*
X156581Y86408D01*
X156589Y86432D01*
X156604Y86452D01*
X156632Y86546D01*
X156643Y86575D01*
X156645Y86579D01*
X156645Y86580D01*
X156667Y86637D01*
X156670Y86670D01*
X156675Y86686D01*
X156674Y86711D01*
X156681Y86784D01*
X156681Y103897D01*
X178649Y125864D01*
X205824Y125864D01*
X205848Y125868D01*
X205872Y125866D01*
X205968Y125888D01*
X206065Y125904D01*
X206086Y125916D01*
X206110Y125921D01*
X206193Y125973D01*
X206280Y126019D01*
X206297Y126037D01*
X206317Y126050D01*
X206380Y126126D01*
X206447Y126197D01*
X206457Y126219D01*
X206472Y126238D01*
X206507Y126330D01*
X206547Y126419D01*
X206550Y126444D01*
X206559Y126467D01*
X206573Y126614D01*
X206573Y156385D01*
X207903Y157715D01*
X221496Y157715D01*
X223046Y156165D01*
X228353Y150858D01*
X228433Y150801D01*
X228508Y150739D01*
X228531Y150730D01*
X228552Y150716D01*
X228645Y150688D01*
X228737Y150653D01*
X228761Y150652D01*
X228785Y150645D01*
X228883Y150648D01*
X228981Y150645D01*
X229004Y150652D01*
X229029Y150653D01*
X229121Y150687D01*
X229214Y150716D01*
X229234Y150730D01*
X229257Y150739D01*
X229333Y150801D01*
X229412Y150858D01*
X229427Y150878D01*
X229446Y150893D01*
X229498Y150976D01*
X229555Y151056D01*
X229562Y151080D01*
X229575Y151101D01*
X229597Y151196D01*
X229626Y151289D01*
X229625Y151314D01*
X229631Y151338D01*
X229621Y151435D01*
X229618Y151533D01*
X229609Y151565D01*
X229607Y151581D01*
X229597Y151604D01*
X229575Y151675D01*
X228331Y154678D01*
X228331Y158922D01*
X229955Y162843D01*
X232957Y165845D01*
X236878Y167469D01*
X241122Y167469D01*
X245043Y165845D01*
X247339Y163549D01*
X247399Y163506D01*
X247453Y163456D01*
X247497Y163435D01*
X247538Y163406D01*
X247608Y163385D01*
X247675Y163355D01*
X247724Y163350D01*
X247771Y163336D01*
X247844Y163338D01*
X247918Y163331D01*
X247966Y163342D01*
X248015Y163344D01*
X248084Y163369D01*
X248155Y163386D01*
X248197Y163412D01*
X248243Y163429D01*
X248300Y163476D01*
X248363Y163515D01*
X248394Y163553D01*
X248432Y163584D01*
X248471Y163646D01*
X248518Y163703D01*
X248535Y163749D01*
X248561Y163791D01*
X248578Y163863D01*
X248604Y163931D01*
X248611Y164005D01*
X248617Y164029D01*
X248615Y164045D01*
X248618Y164078D01*
X248618Y174922D01*
X248606Y174994D01*
X248604Y175067D01*
X248587Y175114D01*
X248579Y175162D01*
X248544Y175227D01*
X248518Y175296D01*
X248487Y175334D01*
X248464Y175378D01*
X248410Y175428D01*
X248363Y175485D01*
X248321Y175511D01*
X248286Y175544D01*
X248219Y175575D01*
X248156Y175614D01*
X248108Y175625D01*
X248063Y175645D01*
X247990Y175652D01*
X247919Y175669D01*
X247870Y175664D01*
X247820Y175669D01*
X247749Y175653D01*
X247676Y175645D01*
X247631Y175625D01*
X247583Y175614D01*
X247520Y175575D01*
X247453Y175545D01*
X247397Y175499D01*
X247375Y175485D01*
X247365Y175472D01*
X247339Y175451D01*
X245043Y173155D01*
X241122Y171531D01*
X236878Y171531D01*
X232957Y173155D01*
X229955Y176157D01*
X228331Y180078D01*
X228331Y184322D01*
X229955Y188243D01*
X232957Y191245D01*
X236878Y192869D01*
X241122Y192869D01*
X245043Y191245D01*
X247339Y188949D01*
X247399Y188906D01*
X247453Y188856D01*
X247497Y188835D01*
X247538Y188806D01*
X247608Y188785D01*
X247675Y188755D01*
X247724Y188750D01*
X247771Y188736D01*
X247844Y188738D01*
X247918Y188731D01*
X247966Y188742D01*
X248015Y188744D01*
X248084Y188769D01*
X248155Y188786D01*
X248197Y188812D01*
X248243Y188829D01*
X248300Y188876D01*
X248363Y188915D01*
X248394Y188953D01*
X248432Y188984D01*
X248471Y189046D01*
X248518Y189103D01*
X248535Y189149D01*
X248561Y189191D01*
X248578Y189263D01*
X248604Y189331D01*
X248611Y189405D01*
X248617Y189429D01*
X248615Y189445D01*
X248618Y189478D01*
X248618Y200322D01*
X248606Y200394D01*
X248604Y200467D01*
X248587Y200514D01*
X248579Y200562D01*
X248544Y200627D01*
X248518Y200696D01*
X248487Y200734D01*
X248464Y200778D01*
X248410Y200828D01*
X248363Y200885D01*
X248321Y200911D01*
X248286Y200944D01*
X248219Y200975D01*
X248156Y201014D01*
X248108Y201025D01*
X248063Y201045D01*
X247990Y201052D01*
X247919Y201069D01*
X247870Y201064D01*
X247820Y201069D01*
X247749Y201053D01*
X247676Y201045D01*
X247631Y201025D01*
X247583Y201014D01*
X247520Y200975D01*
X247453Y200945D01*
X247397Y200899D01*
X247375Y200885D01*
X247365Y200872D01*
X247339Y200851D01*
X245043Y198555D01*
X241122Y196931D01*
X236878Y196931D01*
X232957Y198555D01*
X229955Y201557D01*
X228331Y205478D01*
X228331Y209722D01*
X229955Y213643D01*
X232957Y216645D01*
X236878Y218269D01*
X241122Y218269D01*
X245043Y216645D01*
X247339Y214349D01*
X247399Y214306D01*
X247453Y214256D01*
X247497Y214235D01*
X247538Y214206D01*
X247608Y214185D01*
X247675Y214155D01*
X247724Y214150D01*
X247771Y214136D01*
X247844Y214138D01*
X247918Y214131D01*
X247966Y214142D01*
X248015Y214144D01*
X248084Y214169D01*
X248155Y214186D01*
X248197Y214212D01*
X248243Y214229D01*
X248300Y214276D01*
X248363Y214315D01*
X248394Y214353D01*
X248432Y214384D01*
X248471Y214446D01*
X248518Y214503D01*
X248535Y214549D01*
X248561Y214591D01*
X248578Y214663D01*
X248589Y214694D01*
X248593Y214701D01*
X248593Y214703D01*
X248604Y214731D01*
X248611Y214805D01*
X248617Y214829D01*
X248615Y214845D01*
X248618Y214878D01*
X248618Y225722D01*
X248606Y225794D01*
X248604Y225867D01*
X248587Y225914D01*
X248579Y225962D01*
X248544Y226027D01*
X248518Y226096D01*
X248487Y226134D01*
X248464Y226178D01*
X248410Y226228D01*
X248363Y226285D01*
X248321Y226311D01*
X248286Y226344D01*
X248219Y226375D01*
X248156Y226414D01*
X248108Y226425D01*
X248063Y226445D01*
X247990Y226452D01*
X247919Y226469D01*
X247870Y226464D01*
X247820Y226469D01*
X247749Y226453D01*
X247676Y226445D01*
X247631Y226425D01*
X247583Y226414D01*
X247520Y226375D01*
X247453Y226345D01*
X247397Y226299D01*
X247375Y226285D01*
X247365Y226272D01*
X247339Y226251D01*
X245043Y223955D01*
X241122Y222331D01*
X236878Y222331D01*
X232957Y223955D01*
X229955Y226957D01*
X228331Y230878D01*
X228331Y235122D01*
X229955Y239043D01*
X232957Y242045D01*
X236878Y243669D01*
X241122Y243669D01*
X245043Y242045D01*
X247339Y239749D01*
X247399Y239706D01*
X247453Y239656D01*
X247497Y239635D01*
X247538Y239606D01*
X247608Y239585D01*
X247675Y239555D01*
X247724Y239550D01*
X247771Y239536D01*
X247844Y239538D01*
X247918Y239531D01*
X247966Y239542D01*
X248015Y239544D01*
X248084Y239569D01*
X248155Y239586D01*
X248197Y239612D01*
X248243Y239629D01*
X248300Y239676D01*
X248363Y239715D01*
X248394Y239753D01*
X248432Y239784D01*
X248471Y239846D01*
X248518Y239903D01*
X248535Y239949D01*
X248561Y239991D01*
X248578Y240063D01*
X248604Y240131D01*
X248611Y240205D01*
X248617Y240229D01*
X248615Y240245D01*
X248618Y240278D01*
X248618Y251122D01*
X248606Y251194D01*
X248604Y251267D01*
X248587Y251314D01*
X248579Y251362D01*
X248544Y251427D01*
X248518Y251496D01*
X248487Y251534D01*
X248464Y251578D01*
X248410Y251628D01*
X248363Y251685D01*
X248321Y251711D01*
X248286Y251744D01*
X248219Y251775D01*
X248156Y251814D01*
X248108Y251825D01*
X248063Y251845D01*
X247990Y251852D01*
X247919Y251869D01*
X247870Y251864D01*
X247820Y251869D01*
X247749Y251853D01*
X247676Y251845D01*
X247631Y251825D01*
X247583Y251814D01*
X247520Y251775D01*
X247453Y251745D01*
X247397Y251699D01*
X247375Y251685D01*
X247365Y251672D01*
X247339Y251651D01*
X245043Y249355D01*
X241122Y247731D01*
X236878Y247731D01*
X232957Y249355D01*
X229955Y252357D01*
X228331Y256278D01*
X228331Y260522D01*
X229955Y264443D01*
X232957Y267445D01*
X236878Y269069D01*
X241122Y269069D01*
X245043Y267445D01*
X247339Y265149D01*
X247399Y265106D01*
X247453Y265056D01*
X247497Y265035D01*
X247538Y265006D01*
X247608Y264985D01*
X247675Y264955D01*
X247724Y264950D01*
X247771Y264936D01*
X247844Y264938D01*
X247918Y264931D01*
X247966Y264942D01*
X248015Y264944D01*
X248084Y264969D01*
X248155Y264986D01*
X248197Y265012D01*
X248243Y265029D01*
X248300Y265076D01*
X248363Y265115D01*
X248394Y265153D01*
X248432Y265184D01*
X248471Y265246D01*
X248518Y265303D01*
X248535Y265349D01*
X248561Y265391D01*
X248578Y265463D01*
X248604Y265531D01*
X248611Y265605D01*
X248617Y265629D01*
X248615Y265645D01*
X248618Y265678D01*
X248618Y276522D01*
X248606Y276594D01*
X248604Y276667D01*
X248587Y276714D01*
X248579Y276762D01*
X248544Y276827D01*
X248518Y276896D01*
X248487Y276934D01*
X248464Y276978D01*
X248410Y277028D01*
X248363Y277085D01*
X248321Y277111D01*
X248286Y277144D01*
X248219Y277175D01*
X248156Y277214D01*
X248108Y277225D01*
X248063Y277245D01*
X247990Y277252D01*
X247919Y277269D01*
X247870Y277264D01*
X247820Y277269D01*
X247749Y277253D01*
X247676Y277245D01*
X247631Y277225D01*
X247583Y277214D01*
X247520Y277175D01*
X247453Y277145D01*
X247397Y277099D01*
X247375Y277085D01*
X247365Y277072D01*
X247339Y277051D01*
X245043Y274755D01*
X241122Y273131D01*
X236878Y273131D01*
X232957Y274755D01*
X229955Y277757D01*
X228331Y281678D01*
X228331Y285922D01*
X229955Y289843D01*
X232957Y292845D01*
X236878Y294469D01*
X241122Y294469D01*
X245043Y292845D01*
X247339Y290549D01*
X247399Y290506D01*
X247453Y290456D01*
X247497Y290435D01*
X247538Y290406D01*
X247608Y290385D01*
X247675Y290355D01*
X247724Y290350D01*
X247771Y290336D01*
X247844Y290338D01*
X247918Y290331D01*
X247966Y290342D01*
X248015Y290344D01*
X248084Y290369D01*
X248155Y290386D01*
X248197Y290412D01*
X248243Y290429D01*
X248300Y290476D01*
X248363Y290515D01*
X248394Y290553D01*
X248432Y290584D01*
X248471Y290646D01*
X248518Y290703D01*
X248535Y290749D01*
X248561Y290791D01*
X248578Y290863D01*
X248604Y290931D01*
X248611Y291005D01*
X248617Y291029D01*
X248615Y291045D01*
X248618Y291078D01*
X248618Y301922D01*
X248606Y301994D01*
X248604Y302067D01*
X248587Y302114D01*
X248579Y302162D01*
X248544Y302227D01*
X248518Y302296D01*
X248487Y302334D01*
X248464Y302378D01*
X248410Y302428D01*
X248363Y302485D01*
X248321Y302511D01*
X248286Y302544D01*
X248219Y302575D01*
X248156Y302614D01*
X248108Y302625D01*
X248063Y302645D01*
X247990Y302652D01*
X247919Y302669D01*
X247870Y302664D01*
X247820Y302669D01*
X247749Y302653D01*
X247676Y302645D01*
X247631Y302625D01*
X247583Y302614D01*
X247520Y302575D01*
X247453Y302545D01*
X247397Y302499D01*
X247375Y302485D01*
X247365Y302472D01*
X247339Y302451D01*
X245043Y300155D01*
X241122Y298531D01*
X236878Y298531D01*
X232957Y300155D01*
X229955Y303157D01*
X228331Y307078D01*
X228331Y311322D01*
X229955Y315243D01*
X232957Y318245D01*
X236878Y319869D01*
X241122Y319869D01*
X245043Y318245D01*
X247339Y315949D01*
X247399Y315906D01*
X247453Y315856D01*
X247497Y315835D01*
X247538Y315806D01*
X247608Y315785D01*
X247675Y315755D01*
X247724Y315750D01*
X247771Y315736D01*
X247844Y315738D01*
X247918Y315731D01*
X247966Y315742D01*
X248015Y315744D01*
X248084Y315769D01*
X248155Y315786D01*
X248197Y315812D01*
X248243Y315829D01*
X248300Y315876D01*
X248363Y315915D01*
X248394Y315953D01*
X248432Y315984D01*
X248471Y316046D01*
X248518Y316103D01*
X248535Y316149D01*
X248561Y316191D01*
X248578Y316263D01*
X248604Y316331D01*
X248611Y316405D01*
X248617Y316429D01*
X248615Y316445D01*
X248618Y316478D01*
X248618Y327322D01*
X248606Y327394D01*
X248604Y327467D01*
X248587Y327514D01*
X248579Y327562D01*
X248544Y327627D01*
X248518Y327696D01*
X248487Y327734D01*
X248464Y327778D01*
X248410Y327828D01*
X248363Y327885D01*
X248321Y327911D01*
X248286Y327944D01*
X248219Y327975D01*
X248156Y328014D01*
X248108Y328025D01*
X248063Y328045D01*
X247990Y328052D01*
X247919Y328069D01*
X247870Y328064D01*
X247820Y328069D01*
X247749Y328053D01*
X247676Y328045D01*
X247631Y328025D01*
X247583Y328014D01*
X247520Y327975D01*
X247453Y327945D01*
X247397Y327899D01*
X247375Y327885D01*
X247365Y327872D01*
X247339Y327851D01*
X245043Y325555D01*
X241122Y323931D01*
X236878Y323931D01*
X232957Y325555D01*
X229955Y328557D01*
X228331Y332478D01*
X228331Y336722D01*
X229955Y340643D01*
X232957Y343645D01*
X236878Y345269D01*
X241122Y345269D01*
X245043Y343645D01*
X247339Y341349D01*
X247399Y341306D01*
X247453Y341256D01*
X247497Y341235D01*
X247538Y341206D01*
X247608Y341185D01*
X247675Y341155D01*
X247724Y341150D01*
X247771Y341136D01*
X247844Y341138D01*
X247918Y341131D01*
X247966Y341142D01*
X248015Y341144D01*
X248084Y341169D01*
X248155Y341186D01*
X248197Y341212D01*
X248243Y341229D01*
X248300Y341276D01*
X248363Y341315D01*
X248394Y341353D01*
X248432Y341384D01*
X248471Y341446D01*
X248518Y341503D01*
X248535Y341549D01*
X248561Y341591D01*
X248578Y341663D01*
X248604Y341731D01*
X248611Y341804D01*
X248617Y341829D01*
X248615Y341845D01*
X248618Y341878D01*
X248618Y352722D01*
X248606Y352794D01*
X248604Y352867D01*
X248587Y352914D01*
X248579Y352962D01*
X248544Y353027D01*
X248518Y353096D01*
X248487Y353134D01*
X248464Y353178D01*
X248410Y353228D01*
X248363Y353285D01*
X248321Y353311D01*
X248286Y353344D01*
X248219Y353375D01*
X248156Y353414D01*
X248108Y353425D01*
X248063Y353445D01*
X247990Y353452D01*
X247919Y353469D01*
X247870Y353464D01*
X247820Y353469D01*
X247749Y353453D01*
X247676Y353445D01*
X247631Y353425D01*
X247583Y353414D01*
X247520Y353375D01*
X247453Y353345D01*
X247397Y353299D01*
X247375Y353285D01*
X247365Y353272D01*
X247339Y353251D01*
X245043Y350955D01*
X241122Y349331D01*
X236878Y349331D01*
X232957Y350955D01*
X229955Y353957D01*
X228331Y357878D01*
X228331Y362122D01*
X229955Y366043D01*
X232957Y369045D01*
X236878Y370669D01*
X241122Y370669D01*
X245043Y369045D01*
X247339Y366749D01*
X247399Y366706D01*
X247453Y366656D01*
X247497Y366635D01*
X247538Y366606D01*
X247608Y366585D01*
X247675Y366555D01*
X247724Y366550D01*
X247771Y366536D01*
X247844Y366538D01*
X247918Y366531D01*
X247966Y366542D01*
X248015Y366544D01*
X248084Y366569D01*
X248155Y366586D01*
X248197Y366612D01*
X248243Y366629D01*
X248300Y366676D01*
X248363Y366715D01*
X248394Y366753D01*
X248432Y366784D01*
X248471Y366846D01*
X248518Y366903D01*
X248535Y366949D01*
X248561Y366991D01*
X248578Y367063D01*
X248604Y367131D01*
X248611Y367205D01*
X248617Y367229D01*
X248615Y367245D01*
X248618Y367278D01*
X248618Y378122D01*
X248606Y378194D01*
X248604Y378267D01*
X248587Y378314D01*
X248579Y378362D01*
X248544Y378427D01*
X248518Y378496D01*
X248487Y378534D01*
X248464Y378578D01*
X248410Y378628D01*
X248363Y378685D01*
X248321Y378711D01*
X248286Y378744D01*
X248219Y378775D01*
X248156Y378814D01*
X248108Y378825D01*
X248063Y378845D01*
X247990Y378852D01*
X247919Y378869D01*
X247870Y378864D01*
X247820Y378869D01*
X247749Y378853D01*
X247676Y378845D01*
X247631Y378825D01*
X247583Y378814D01*
X247520Y378775D01*
X247453Y378745D01*
X247397Y378699D01*
X247375Y378685D01*
X247365Y378672D01*
X247339Y378651D01*
X245043Y376355D01*
X241122Y374731D01*
X236878Y374731D01*
X232957Y376355D01*
X229955Y379357D01*
X228331Y383278D01*
X228331Y387522D01*
X229955Y391443D01*
X232957Y394445D01*
X236878Y396069D01*
X241122Y396069D01*
X245043Y394445D01*
X247339Y392149D01*
X247399Y392106D01*
X247453Y392056D01*
X247497Y392035D01*
X247538Y392006D01*
X247608Y391985D01*
X247675Y391955D01*
X247724Y391950D01*
X247771Y391936D01*
X247844Y391938D01*
X247918Y391931D01*
X247966Y391942D01*
X248015Y391944D01*
X248084Y391969D01*
X248155Y391986D01*
X248197Y392012D01*
X248243Y392029D01*
X248300Y392076D01*
X248363Y392115D01*
X248394Y392153D01*
X248432Y392184D01*
X248471Y392246D01*
X248518Y392303D01*
X248535Y392349D01*
X248561Y392391D01*
X248578Y392463D01*
X248604Y392531D01*
X248611Y392605D01*
X248617Y392629D01*
X248615Y392645D01*
X248618Y392678D01*
X248618Y403522D01*
X248606Y403594D01*
X248604Y403667D01*
X248587Y403714D01*
X248579Y403762D01*
X248544Y403827D01*
X248518Y403896D01*
X248487Y403934D01*
X248464Y403978D01*
X248410Y404028D01*
X248363Y404085D01*
X248321Y404111D01*
X248286Y404144D01*
X248219Y404175D01*
X248156Y404214D01*
X248108Y404225D01*
X248063Y404245D01*
X247990Y404252D01*
X247919Y404269D01*
X247870Y404264D01*
X247820Y404269D01*
X247749Y404253D01*
X247676Y404245D01*
X247631Y404225D01*
X247583Y404214D01*
X247520Y404175D01*
X247453Y404145D01*
X247397Y404099D01*
X247375Y404085D01*
X247365Y404072D01*
X247339Y404051D01*
X245043Y401755D01*
X241122Y400131D01*
X236878Y400131D01*
X232957Y401755D01*
X229955Y404757D01*
X228331Y408678D01*
X228331Y412922D01*
X229955Y416843D01*
X232957Y419845D01*
X236878Y421469D01*
X241122Y421469D01*
X245043Y419845D01*
X247339Y417549D01*
X247399Y417506D01*
X247453Y417456D01*
X247497Y417435D01*
X247538Y417406D01*
X247608Y417385D01*
X247675Y417355D01*
X247724Y417350D01*
X247771Y417336D01*
X247844Y417338D01*
X247918Y417331D01*
X247966Y417342D01*
X248015Y417344D01*
X248084Y417369D01*
X248155Y417386D01*
X248197Y417412D01*
X248243Y417429D01*
X248300Y417476D01*
X248363Y417515D01*
X248394Y417553D01*
X248432Y417584D01*
X248471Y417646D01*
X248518Y417703D01*
X248535Y417749D01*
X248561Y417791D01*
X248578Y417863D01*
X248604Y417931D01*
X248611Y418005D01*
X248617Y418029D01*
X248615Y418045D01*
X248618Y418078D01*
X248618Y428922D01*
X248606Y428994D01*
X248604Y429067D01*
X248587Y429114D01*
X248579Y429162D01*
X248544Y429227D01*
X248518Y429296D01*
X248487Y429334D01*
X248464Y429378D01*
X248410Y429428D01*
X248363Y429485D01*
X248321Y429511D01*
X248286Y429544D01*
X248219Y429575D01*
X248156Y429614D01*
X248108Y429625D01*
X248063Y429645D01*
X247990Y429652D01*
X247919Y429669D01*
X247870Y429664D01*
X247820Y429669D01*
X247749Y429653D01*
X247676Y429645D01*
X247631Y429625D01*
X247583Y429614D01*
X247520Y429575D01*
X247453Y429545D01*
X247397Y429499D01*
X247375Y429485D01*
X247365Y429472D01*
X247339Y429451D01*
X245043Y427155D01*
X241122Y425531D01*
X236878Y425531D01*
X232957Y427155D01*
X229955Y430157D01*
X228331Y434078D01*
X228331Y438322D01*
X229955Y442243D01*
X232957Y445245D01*
X236878Y446869D01*
X241122Y446869D01*
X245043Y445245D01*
X247339Y442949D01*
X247399Y442906D01*
X247453Y442856D01*
X247497Y442835D01*
X247538Y442806D01*
X247608Y442785D01*
X247675Y442755D01*
X247724Y442750D01*
X247771Y442736D01*
X247844Y442738D01*
X247918Y442731D01*
X247966Y442742D01*
X248015Y442744D01*
X248084Y442769D01*
X248155Y442786D01*
X248197Y442812D01*
X248243Y442829D01*
X248300Y442876D01*
X248363Y442915D01*
X248394Y442953D01*
X248432Y442984D01*
X248471Y443046D01*
X248518Y443103D01*
X248535Y443149D01*
X248561Y443191D01*
X248578Y443263D01*
X248604Y443331D01*
X248611Y443405D01*
X248617Y443429D01*
X248615Y443445D01*
X248618Y443478D01*
X248618Y454322D01*
X248606Y454394D01*
X248604Y454467D01*
X248587Y454514D01*
X248579Y454562D01*
X248544Y454627D01*
X248518Y454696D01*
X248487Y454734D01*
X248464Y454778D01*
X248410Y454828D01*
X248363Y454885D01*
X248321Y454911D01*
X248286Y454944D01*
X248219Y454975D01*
X248156Y455014D01*
X248108Y455025D01*
X248063Y455045D01*
X247990Y455052D01*
X247919Y455069D01*
X247870Y455064D01*
X247820Y455069D01*
X247749Y455053D01*
X247676Y455045D01*
X247631Y455025D01*
X247583Y455014D01*
X247520Y454975D01*
X247453Y454945D01*
X247397Y454899D01*
X247375Y454885D01*
X247365Y454872D01*
X247339Y454851D01*
X245043Y452555D01*
X241122Y450931D01*
X236878Y450931D01*
X232957Y452555D01*
X229955Y455557D01*
X228331Y459478D01*
X228331Y463722D01*
X229955Y467643D01*
X232957Y470645D01*
X236878Y472269D01*
X241122Y472269D01*
X245043Y470645D01*
X247339Y468349D01*
X247399Y468306D01*
X247453Y468256D01*
X247481Y468243D01*
X247481Y468242D01*
X247485Y468241D01*
X247497Y468235D01*
X247538Y468206D01*
X247608Y468185D01*
X247675Y468155D01*
X247724Y468150D01*
X247771Y468136D01*
X247844Y468138D01*
X247918Y468131D01*
X247966Y468142D01*
X248015Y468144D01*
X248084Y468169D01*
X248155Y468186D01*
X248197Y468212D01*
X248243Y468229D01*
X248300Y468276D01*
X248363Y468315D01*
X248394Y468353D01*
X248432Y468384D01*
X248471Y468446D01*
X248518Y468503D01*
X248535Y468549D01*
X248561Y468591D01*
X248578Y468663D01*
X248580Y468668D01*
X248593Y468696D01*
X248593Y468704D01*
X248604Y468731D01*
X248611Y468805D01*
X248617Y468829D01*
X248615Y468845D01*
X248618Y468878D01*
X248618Y479722D01*
X248606Y479794D01*
X248604Y479867D01*
X248587Y479914D01*
X248579Y479962D01*
X248544Y480027D01*
X248518Y480096D01*
X248487Y480134D01*
X248464Y480178D01*
X248410Y480228D01*
X248363Y480285D01*
X248321Y480311D01*
X248286Y480344D01*
X248219Y480375D01*
X248156Y480414D01*
X248108Y480425D01*
X248063Y480445D01*
X247990Y480452D01*
X247919Y480469D01*
X247870Y480464D01*
X247820Y480469D01*
X247749Y480453D01*
X247676Y480445D01*
X247631Y480425D01*
X247583Y480414D01*
X247520Y480375D01*
X247453Y480345D01*
X247397Y480299D01*
X247375Y480285D01*
X247365Y480272D01*
X247339Y480251D01*
X245043Y477955D01*
X241122Y476331D01*
X236878Y476331D01*
X232957Y477955D01*
X229955Y480957D01*
X228331Y484878D01*
X228331Y489122D01*
X229955Y493043D01*
X232957Y496045D01*
X236878Y497669D01*
X241122Y497669D01*
X245043Y496045D01*
X247339Y493749D01*
X247399Y493706D01*
X247453Y493656D01*
X247497Y493635D01*
X247538Y493606D01*
X247608Y493585D01*
X247675Y493555D01*
X247724Y493550D01*
X247771Y493536D01*
X247844Y493538D01*
X247918Y493531D01*
X247966Y493542D01*
X248015Y493544D01*
X248084Y493569D01*
X248155Y493586D01*
X248197Y493612D01*
X248243Y493629D01*
X248300Y493676D01*
X248363Y493715D01*
X248394Y493753D01*
X248432Y493784D01*
X248471Y493846D01*
X248518Y493903D01*
X248535Y493949D01*
X248561Y493991D01*
X248578Y494063D01*
X248604Y494131D01*
X248611Y494205D01*
X248617Y494229D01*
X248615Y494245D01*
X248618Y494278D01*
X248618Y512000D01*
X248614Y512024D01*
X248617Y512049D01*
X248595Y512144D01*
X248579Y512241D01*
X248567Y512262D01*
X248561Y512286D01*
X248510Y512370D01*
X248464Y512456D01*
X248446Y512473D01*
X248433Y512494D01*
X248357Y512556D01*
X248286Y512623D01*
X248263Y512633D01*
X248244Y512649D01*
X248153Y512683D01*
X248063Y512724D01*
X248039Y512726D01*
X248016Y512735D01*
X247869Y512749D01*
X215131Y512749D01*
X215107Y512745D01*
X215082Y512748D01*
X214987Y512726D01*
X214890Y512710D01*
X214869Y512698D01*
X214845Y512692D01*
X214761Y512641D01*
X214675Y512595D01*
X214658Y512577D01*
X214637Y512564D01*
X214575Y512488D01*
X214508Y512417D01*
X214498Y512394D01*
X214482Y512375D01*
X214448Y512284D01*
X214407Y512194D01*
X214405Y512170D01*
X214396Y512147D01*
X214382Y512000D01*
X214382Y511013D01*
X212987Y509618D01*
X36013Y509618D01*
X34618Y511013D01*
X34618Y512000D01*
X34614Y512024D01*
X34617Y512049D01*
X34595Y512144D01*
X34579Y512241D01*
X34567Y512262D01*
X34561Y512286D01*
X34510Y512370D01*
X34464Y512456D01*
X34446Y512473D01*
X34433Y512494D01*
X34357Y512556D01*
X34286Y512623D01*
X34263Y512633D01*
X34244Y512649D01*
X34153Y512683D01*
X34063Y512724D01*
X34039Y512726D01*
X34016Y512735D01*
X33869Y512749D01*
X1131Y512749D01*
X1107Y512745D01*
X1082Y512748D01*
X987Y512725D01*
X890Y512710D01*
X869Y512698D01*
X845Y512692D01*
X761Y512641D01*
X675Y512595D01*
X658Y512577D01*
X637Y512564D01*
X575Y512488D01*
X508Y512416D01*
X498Y512394D01*
X482Y512375D01*
X448Y512284D01*
X407Y512194D01*
X405Y512170D01*
X396Y512147D01*
X382Y512000D01*
X382Y494278D01*
X394Y494206D01*
X396Y494133D01*
X413Y494086D01*
X421Y494038D01*
X456Y493973D01*
X482Y493904D01*
X513Y493866D01*
X536Y493822D01*
X590Y493772D01*
X637Y493715D01*
X679Y493689D01*
X714Y493656D01*
X781Y493625D01*
X844Y493586D01*
X892Y493575D01*
X937Y493555D01*
X1010Y493548D01*
X1081Y493531D01*
X1130Y493536D01*
X1180Y493531D01*
X1251Y493547D01*
X1324Y493555D01*
X1369Y493575D01*
X1417Y493586D01*
X1480Y493625D01*
X1547Y493655D01*
X1603Y493701D01*
X1625Y493715D01*
X1635Y493728D01*
X1661Y493749D01*
X3957Y496045D01*
X7878Y497669D01*
X12122Y497669D01*
X16043Y496045D01*
X19045Y493043D01*
X20669Y489122D01*
X20669Y484878D01*
X19045Y480957D01*
X16043Y477955D01*
X12122Y476331D01*
X7878Y476331D01*
X3957Y477955D01*
X1661Y480251D01*
X1601Y480294D01*
X1547Y480344D01*
X1503Y480365D01*
X1462Y480394D01*
X1392Y480415D01*
X1325Y480445D01*
X1276Y480450D01*
X1229Y480464D01*
X1156Y480462D01*
X1082Y480469D01*
X1034Y480458D01*
X985Y480456D01*
X916Y480431D01*
X845Y480414D01*
X803Y480388D01*
X757Y480371D01*
X700Y480324D01*
X637Y480285D01*
X606Y480247D01*
X568Y480216D01*
X529Y480154D01*
X482Y480097D01*
X465Y480051D01*
X439Y480009D01*
X422Y479937D01*
X396Y479869D01*
X389Y479795D01*
X383Y479771D01*
X385Y479755D01*
X382Y479722D01*
X382Y468878D01*
X385Y468859D01*
X383Y468842D01*
X394Y468796D01*
X396Y468733D01*
X413Y468686D01*
X421Y468638D01*
X438Y468607D01*
X439Y468605D01*
X443Y468597D01*
X456Y468573D01*
X482Y468504D01*
X513Y468466D01*
X536Y468422D01*
X590Y468372D01*
X637Y468315D01*
X679Y468289D01*
X714Y468256D01*
X781Y468225D01*
X844Y468186D01*
X892Y468175D01*
X937Y468155D01*
X1010Y468148D01*
X1081Y468131D01*
X1130Y468136D01*
X1180Y468131D01*
X1251Y468147D01*
X1324Y468155D01*
X1369Y468175D01*
X1417Y468186D01*
X1480Y468225D01*
X1547Y468255D01*
X1592Y468292D01*
X1599Y468296D01*
X1606Y468303D01*
X1625Y468315D01*
X1635Y468328D01*
X1661Y468349D01*
X3957Y470645D01*
X7878Y472269D01*
X12122Y472269D01*
X16043Y470645D01*
X19045Y467643D01*
X20669Y463722D01*
X20669Y459478D01*
X19045Y455557D01*
X16043Y452555D01*
X12122Y450931D01*
X7878Y450931D01*
X3957Y452555D01*
X1661Y454851D01*
X1601Y454894D01*
X1547Y454944D01*
X1503Y454965D01*
X1462Y454994D01*
X1392Y455015D01*
X1325Y455045D01*
X1276Y455050D01*
X1229Y455064D01*
X1156Y455062D01*
X1082Y455069D01*
X1034Y455058D01*
X985Y455056D01*
X916Y455031D01*
X845Y455014D01*
X803Y454988D01*
X757Y454971D01*
X700Y454924D01*
X637Y454885D01*
X606Y454847D01*
X568Y454816D01*
X529Y454754D01*
X482Y454697D01*
X465Y454651D01*
X439Y454609D01*
X422Y454537D01*
X396Y454469D01*
X389Y454395D01*
X383Y454371D01*
X385Y454355D01*
X382Y454322D01*
X382Y443478D01*
X394Y443406D01*
X396Y443333D01*
X413Y443286D01*
X421Y443238D01*
X456Y443173D01*
X482Y443104D01*
X513Y443066D01*
X536Y443022D01*
X590Y442972D01*
X637Y442915D01*
X679Y442889D01*
X714Y442856D01*
X781Y442825D01*
X844Y442786D01*
X892Y442775D01*
X937Y442755D01*
X1010Y442748D01*
X1081Y442731D01*
X1130Y442736D01*
X1180Y442731D01*
X1251Y442747D01*
X1324Y442755D01*
X1369Y442775D01*
X1417Y442786D01*
X1480Y442825D01*
X1547Y442855D01*
X1603Y442901D01*
X1625Y442915D01*
X1635Y442928D01*
X1661Y442949D01*
X3957Y445245D01*
X7878Y446869D01*
X12122Y446869D01*
X16043Y445245D01*
X19045Y442243D01*
X20669Y438322D01*
X20669Y434078D01*
X19045Y430157D01*
X16043Y427155D01*
X12122Y425531D01*
X7878Y425531D01*
X3957Y427155D01*
X1661Y429451D01*
X1601Y429494D01*
X1547Y429544D01*
X1503Y429565D01*
X1462Y429594D01*
X1392Y429615D01*
X1325Y429645D01*
X1276Y429650D01*
X1229Y429664D01*
X1156Y429662D01*
X1082Y429669D01*
X1034Y429658D01*
X985Y429656D01*
X916Y429631D01*
X845Y429614D01*
X803Y429588D01*
X757Y429571D01*
X700Y429524D01*
X637Y429485D01*
X606Y429447D01*
X568Y429416D01*
X529Y429354D01*
X482Y429297D01*
X465Y429251D01*
X439Y429209D01*
X422Y429137D01*
X396Y429069D01*
X389Y428995D01*
X383Y428971D01*
X385Y428955D01*
X382Y428922D01*
X382Y418078D01*
X394Y418006D01*
X396Y417933D01*
X413Y417886D01*
X421Y417838D01*
X456Y417773D01*
X482Y417704D01*
X513Y417666D01*
X536Y417622D01*
X590Y417572D01*
X637Y417515D01*
X679Y417489D01*
X714Y417456D01*
X781Y417425D01*
X844Y417386D01*
X892Y417375D01*
X937Y417355D01*
X1010Y417348D01*
X1081Y417331D01*
X1130Y417336D01*
X1180Y417331D01*
X1251Y417347D01*
X1324Y417355D01*
X1369Y417375D01*
X1417Y417386D01*
X1480Y417425D01*
X1547Y417455D01*
X1603Y417501D01*
X1625Y417515D01*
X1635Y417528D01*
X1661Y417549D01*
X3957Y419845D01*
X7878Y421469D01*
X12122Y421469D01*
X16043Y419845D01*
X19045Y416843D01*
X20669Y412922D01*
X20669Y408678D01*
X19045Y404757D01*
X16043Y401755D01*
X12122Y400131D01*
X7878Y400131D01*
X3957Y401755D01*
X1661Y404051D01*
X1601Y404094D01*
X1547Y404144D01*
X1503Y404165D01*
X1462Y404194D01*
X1392Y404215D01*
X1325Y404245D01*
X1276Y404250D01*
X1229Y404264D01*
X1156Y404262D01*
X1082Y404269D01*
X1034Y404258D01*
X985Y404256D01*
X916Y404231D01*
X845Y404214D01*
X803Y404188D01*
X757Y404171D01*
X700Y404124D01*
X637Y404085D01*
X606Y404047D01*
X568Y404016D01*
X529Y403954D01*
X482Y403897D01*
X465Y403851D01*
X439Y403809D01*
X422Y403737D01*
X396Y403669D01*
X389Y403595D01*
X383Y403571D01*
X385Y403555D01*
X382Y403522D01*
X382Y392678D01*
X394Y392606D01*
X396Y392533D01*
X413Y392486D01*
X421Y392438D01*
X456Y392373D01*
X482Y392304D01*
X513Y392266D01*
X536Y392222D01*
X590Y392172D01*
X637Y392115D01*
X679Y392089D01*
X714Y392056D01*
X781Y392025D01*
X844Y391986D01*
X892Y391975D01*
X937Y391955D01*
X1010Y391948D01*
X1081Y391931D01*
X1130Y391936D01*
X1180Y391931D01*
X1251Y391947D01*
X1324Y391955D01*
X1369Y391975D01*
X1417Y391986D01*
X1480Y392025D01*
X1547Y392055D01*
X1603Y392101D01*
X1625Y392115D01*
X1635Y392128D01*
X1661Y392149D01*
X3957Y394445D01*
X7878Y396069D01*
X12122Y396069D01*
X16043Y394445D01*
X19045Y391443D01*
X20669Y387522D01*
X20669Y383278D01*
X19045Y379357D01*
X16043Y376355D01*
X12122Y374731D01*
X7878Y374731D01*
X3957Y376355D01*
X1661Y378651D01*
X1601Y378694D01*
X1547Y378744D01*
X1503Y378765D01*
X1462Y378794D01*
X1392Y378815D01*
X1325Y378845D01*
X1276Y378850D01*
X1229Y378864D01*
X1156Y378862D01*
X1082Y378869D01*
X1034Y378858D01*
X985Y378856D01*
X916Y378831D01*
X845Y378814D01*
X803Y378788D01*
X757Y378771D01*
X700Y378724D01*
X637Y378685D01*
X606Y378647D01*
X568Y378616D01*
X529Y378554D01*
X482Y378497D01*
X465Y378451D01*
X439Y378409D01*
X422Y378337D01*
X396Y378269D01*
X389Y378195D01*
X383Y378171D01*
X385Y378155D01*
X382Y378122D01*
X382Y367278D01*
X394Y367206D01*
X396Y367133D01*
X413Y367086D01*
X421Y367038D01*
X456Y366973D01*
X482Y366904D01*
X513Y366866D01*
X536Y366822D01*
X590Y366772D01*
X637Y366715D01*
X679Y366689D01*
X714Y366656D01*
X781Y366625D01*
X844Y366586D01*
X892Y366575D01*
X937Y366555D01*
X1010Y366548D01*
X1081Y366531D01*
X1130Y366536D01*
X1180Y366531D01*
X1251Y366547D01*
X1324Y366555D01*
X1369Y366575D01*
X1417Y366586D01*
X1480Y366625D01*
X1547Y366655D01*
X1603Y366701D01*
X1625Y366715D01*
X1635Y366728D01*
X1661Y366749D01*
X3957Y369045D01*
X7878Y370669D01*
X12122Y370669D01*
X16043Y369045D01*
X19045Y366043D01*
X20669Y362122D01*
X20669Y357878D01*
X19045Y353957D01*
X16043Y350955D01*
X12122Y349331D01*
X7878Y349331D01*
X3957Y350955D01*
X1661Y353251D01*
X1601Y353294D01*
X1547Y353344D01*
X1503Y353365D01*
X1462Y353394D01*
X1392Y353415D01*
X1325Y353445D01*
X1276Y353450D01*
X1229Y353464D01*
X1156Y353462D01*
X1082Y353469D01*
X1034Y353458D01*
X985Y353456D01*
X916Y353431D01*
X845Y353414D01*
X803Y353388D01*
X757Y353371D01*
X700Y353324D01*
X637Y353285D01*
X606Y353247D01*
X568Y353216D01*
X529Y353154D01*
X482Y353097D01*
X465Y353051D01*
X439Y353009D01*
X422Y352937D01*
X396Y352869D01*
X389Y352795D01*
X383Y352771D01*
X385Y352755D01*
X382Y352722D01*
X382Y341878D01*
X394Y341806D01*
X396Y341733D01*
X413Y341686D01*
X421Y341638D01*
X456Y341573D01*
X482Y341504D01*
X513Y341466D01*
X536Y341422D01*
X590Y341372D01*
X637Y341315D01*
X679Y341289D01*
X714Y341256D01*
X781Y341225D01*
X844Y341186D01*
X892Y341175D01*
X937Y341155D01*
X1010Y341148D01*
X1081Y341131D01*
X1130Y341136D01*
X1180Y341131D01*
X1251Y341147D01*
X1324Y341155D01*
X1369Y341175D01*
X1417Y341186D01*
X1480Y341225D01*
X1547Y341255D01*
X1603Y341301D01*
X1625Y341315D01*
X1635Y341328D01*
X1661Y341349D01*
X3957Y343645D01*
X7878Y345269D01*
X12122Y345269D01*
X16043Y343645D01*
X19045Y340643D01*
X20669Y336722D01*
X20669Y332478D01*
X19045Y328557D01*
X16043Y325555D01*
X12122Y323931D01*
X7878Y323931D01*
X3957Y325555D01*
X1661Y327851D01*
X1601Y327894D01*
X1547Y327944D01*
X1503Y327965D01*
X1462Y327994D01*
X1392Y328015D01*
X1325Y328045D01*
X1276Y328050D01*
X1229Y328064D01*
X1156Y328062D01*
X1082Y328069D01*
X1034Y328058D01*
X985Y328056D01*
X916Y328031D01*
X845Y328014D01*
X803Y327988D01*
X757Y327971D01*
X700Y327924D01*
X637Y327885D01*
X606Y327847D01*
X568Y327816D01*
X529Y327754D01*
X482Y327697D01*
X465Y327651D01*
X439Y327609D01*
X422Y327537D01*
X396Y327469D01*
X389Y327395D01*
X383Y327371D01*
X385Y327355D01*
X382Y327322D01*
X382Y316478D01*
X394Y316406D01*
X396Y316333D01*
X413Y316286D01*
X421Y316238D01*
X456Y316173D01*
X482Y316104D01*
X513Y316066D01*
X536Y316022D01*
X590Y315972D01*
X637Y315915D01*
X679Y315889D01*
X714Y315856D01*
X781Y315825D01*
X844Y315786D01*
X892Y315775D01*
X937Y315755D01*
X1010Y315748D01*
X1081Y315731D01*
X1130Y315736D01*
X1180Y315731D01*
X1251Y315747D01*
X1324Y315755D01*
X1369Y315775D01*
X1417Y315786D01*
X1480Y315825D01*
X1547Y315855D01*
X1603Y315901D01*
X1625Y315915D01*
X1635Y315928D01*
X1661Y315949D01*
X3957Y318245D01*
X7878Y319869D01*
X12122Y319869D01*
X16043Y318245D01*
X19045Y315243D01*
X20669Y311322D01*
X20669Y307078D01*
X19045Y303157D01*
X16043Y300155D01*
X12122Y298531D01*
X7878Y298531D01*
X3957Y300155D01*
X1661Y302451D01*
X1601Y302494D01*
X1547Y302544D01*
X1503Y302565D01*
X1462Y302594D01*
X1392Y302615D01*
X1325Y302645D01*
X1276Y302650D01*
X1229Y302664D01*
X1156Y302662D01*
X1082Y302669D01*
X1034Y302658D01*
X985Y302656D01*
X916Y302631D01*
X845Y302614D01*
X803Y302588D01*
X757Y302571D01*
X700Y302524D01*
X637Y302485D01*
X606Y302447D01*
X568Y302416D01*
X529Y302354D01*
X482Y302297D01*
X465Y302251D01*
X439Y302209D01*
X422Y302137D01*
X396Y302069D01*
X389Y301995D01*
X383Y301971D01*
X385Y301955D01*
X382Y301922D01*
X382Y291078D01*
X394Y291006D01*
X396Y290933D01*
X413Y290886D01*
X421Y290838D01*
X456Y290773D01*
X482Y290704D01*
X513Y290666D01*
X536Y290622D01*
X590Y290572D01*
X637Y290515D01*
X679Y290489D01*
X714Y290456D01*
X781Y290425D01*
X844Y290386D01*
X892Y290375D01*
X937Y290355D01*
X1010Y290348D01*
X1081Y290331D01*
X1130Y290336D01*
X1180Y290331D01*
X1251Y290347D01*
X1324Y290355D01*
X1369Y290375D01*
X1417Y290386D01*
X1480Y290425D01*
X1547Y290455D01*
X1603Y290501D01*
X1625Y290515D01*
X1635Y290528D01*
X1661Y290549D01*
X3957Y292845D01*
X7878Y294469D01*
X12122Y294469D01*
X16043Y292845D01*
X19045Y289843D01*
X20669Y285922D01*
X20669Y281678D01*
X19045Y277757D01*
X16043Y274755D01*
X12122Y273131D01*
X7878Y273131D01*
X3957Y274755D01*
X1661Y277051D01*
X1601Y277094D01*
X1547Y277144D01*
X1503Y277165D01*
X1462Y277194D01*
X1392Y277215D01*
X1325Y277245D01*
X1276Y277250D01*
X1229Y277264D01*
X1156Y277262D01*
X1082Y277269D01*
X1034Y277258D01*
X985Y277256D01*
X916Y277231D01*
X845Y277214D01*
X803Y277188D01*
X757Y277171D01*
X700Y277124D01*
X637Y277085D01*
X606Y277047D01*
X568Y277016D01*
X529Y276954D01*
X482Y276897D01*
X465Y276851D01*
X439Y276809D01*
X422Y276737D01*
X396Y276669D01*
X389Y276595D01*
X383Y276571D01*
X385Y276555D01*
X382Y276522D01*
X382Y267474D01*
X394Y267402D01*
X396Y267329D01*
X413Y267282D01*
X421Y267234D01*
X456Y267169D01*
X482Y267100D01*
X513Y267062D01*
X536Y267019D01*
X590Y266968D01*
X637Y266911D01*
X679Y266885D01*
X714Y266852D01*
X781Y266821D01*
X844Y266782D01*
X892Y266771D01*
X937Y266751D01*
X1010Y266744D01*
X1081Y266727D01*
X1130Y266732D01*
X1180Y266727D01*
X1251Y266743D01*
X1324Y266751D01*
X1369Y266771D01*
X1417Y266782D01*
X1480Y266821D01*
X1547Y266851D01*
X1603Y266898D01*
X1625Y266911D01*
X1635Y266924D01*
X1661Y266945D01*
X2222Y267506D01*
X3743Y268611D01*
X5417Y269464D01*
X7204Y270045D01*
X8501Y270250D01*
X8501Y259150D01*
X8505Y259126D01*
X8502Y259102D01*
X8525Y259006D01*
X8540Y258909D01*
X8552Y258888D01*
X8558Y258864D01*
X8609Y258781D01*
X8655Y258694D01*
X8673Y258677D01*
X8686Y258657D01*
X8762Y258594D01*
X8834Y258527D01*
X8856Y258517D01*
X8875Y258502D01*
X8966Y258467D01*
X9056Y258427D01*
X9080Y258424D01*
X9103Y258415D01*
X9250Y258401D01*
X10001Y258401D01*
X10001Y258399D01*
X9250Y258399D01*
X9226Y258395D01*
X9201Y258398D01*
X9106Y258375D01*
X9009Y258359D01*
X8988Y258348D01*
X8964Y258342D01*
X8880Y258291D01*
X8794Y258244D01*
X8777Y258227D01*
X8756Y258214D01*
X8694Y258138D01*
X8627Y258066D01*
X8617Y258044D01*
X8602Y258025D01*
X8567Y257933D01*
X8526Y257844D01*
X8524Y257820D01*
X8515Y257797D01*
X8501Y257650D01*
X8501Y246550D01*
X7204Y246755D01*
X5417Y247336D01*
X3743Y248189D01*
X2222Y249294D01*
X1661Y249855D01*
X1601Y249898D01*
X1547Y249948D01*
X1503Y249969D01*
X1462Y249997D01*
X1392Y250019D01*
X1325Y250049D01*
X1276Y250054D01*
X1229Y250068D01*
X1156Y250066D01*
X1082Y250073D01*
X1034Y250062D01*
X985Y250060D01*
X916Y250035D01*
X845Y250018D01*
X803Y249992D01*
X757Y249975D01*
X700Y249928D01*
X637Y249889D01*
X606Y249851D01*
X568Y249820D01*
X529Y249758D01*
X482Y249701D01*
X465Y249655D01*
X439Y249613D01*
X422Y249541D01*
X396Y249472D01*
X389Y249399D01*
X383Y249375D01*
X385Y249359D01*
X382Y249326D01*
X382Y240278D01*
X394Y240206D01*
X396Y240133D01*
X413Y240086D01*
X421Y240038D01*
X456Y239973D01*
X482Y239904D01*
X513Y239866D01*
X536Y239822D01*
X590Y239772D01*
X637Y239715D01*
X679Y239689D01*
X714Y239656D01*
X781Y239625D01*
X844Y239586D01*
X892Y239575D01*
X937Y239555D01*
X1010Y239548D01*
X1081Y239531D01*
X1130Y239536D01*
X1180Y239531D01*
X1251Y239547D01*
X1324Y239555D01*
X1369Y239575D01*
X1417Y239586D01*
X1480Y239625D01*
X1547Y239655D01*
X1603Y239701D01*
X1625Y239715D01*
X1635Y239728D01*
X1661Y239749D01*
X3957Y242045D01*
X7878Y243669D01*
X12122Y243669D01*
X16043Y242045D01*
X19044Y239043D01*
X19121Y238859D01*
X19147Y238817D01*
X19164Y238771D01*
X19211Y238714D01*
X19250Y238652D01*
X19288Y238621D01*
X19319Y238583D01*
X19381Y238544D01*
X19438Y238497D01*
X19484Y238480D01*
X19526Y238454D01*
X19598Y238437D01*
X19667Y238411D01*
X19716Y238409D01*
X19763Y238398D01*
X19837Y238405D01*
X19910Y238403D01*
X19958Y238417D01*
X20006Y238422D01*
X20073Y238452D01*
X20144Y238473D01*
X20184Y238502D01*
X20229Y238522D01*
X20342Y238615D01*
X20343Y238616D01*
X22972Y241245D01*
X24522Y242795D01*
X93273Y242795D01*
X93369Y242811D01*
X93466Y242820D01*
X93489Y242830D01*
X93514Y242834D01*
X93600Y242880D01*
X93689Y242921D01*
X93714Y242942D01*
X93729Y242949D01*
X93746Y242968D01*
X93803Y243014D01*
X97978Y247189D01*
X98035Y247269D01*
X98097Y247344D01*
X98105Y247367D01*
X98120Y247387D01*
X98148Y247481D01*
X98183Y247572D01*
X98186Y247605D01*
X98191Y247621D01*
X98190Y247646D01*
X98197Y247719D01*
X98197Y250989D01*
X101011Y253803D01*
X104989Y253803D01*
X106450Y252342D01*
X106510Y252299D01*
X106564Y252249D01*
X106608Y252228D01*
X106649Y252200D01*
X106719Y252178D01*
X106786Y252148D01*
X106835Y252143D01*
X106882Y252129D01*
X106955Y252131D01*
X107029Y252124D01*
X107077Y252135D01*
X107126Y252137D01*
X107195Y252163D01*
X107266Y252179D01*
X107308Y252205D01*
X107354Y252223D01*
X107411Y252269D01*
X107474Y252308D01*
X107505Y252346D01*
X107543Y252377D01*
X107582Y252440D01*
X107629Y252496D01*
X107646Y252542D01*
X107672Y252584D01*
X107689Y252656D01*
X107715Y252725D01*
X107722Y252798D01*
X107728Y252822D01*
X107726Y252839D01*
X107729Y252872D01*
X107729Y254749D01*
X107713Y254845D01*
X107704Y254942D01*
X107694Y254965D01*
X107690Y254990D01*
X107644Y255076D01*
X107603Y255165D01*
X107582Y255190D01*
X107575Y255205D01*
X107556Y255222D01*
X107510Y255279D01*
X102279Y260510D01*
X102199Y260567D01*
X102124Y260629D01*
X102101Y260637D01*
X102081Y260652D01*
X101987Y260680D01*
X101896Y260715D01*
X101863Y260718D01*
X101847Y260723D01*
X101822Y260722D01*
X101749Y260729D01*
X60059Y260729D01*
X52729Y268059D01*
X52729Y354168D01*
X52713Y354265D01*
X52704Y354362D01*
X52694Y354384D01*
X52690Y354409D01*
X52644Y354495D01*
X52603Y354584D01*
X52582Y354610D01*
X52575Y354624D01*
X52556Y354641D01*
X52510Y354698D01*
X50197Y357011D01*
X50197Y360989D01*
X53011Y363803D01*
X53742Y363803D01*
X53814Y363815D01*
X53888Y363817D01*
X53934Y363834D01*
X53982Y363842D01*
X54047Y363877D01*
X54116Y363903D01*
X54154Y363934D01*
X54198Y363957D01*
X54248Y364011D01*
X54305Y364058D01*
X54331Y364100D01*
X54364Y364135D01*
X54395Y364202D01*
X54434Y364265D01*
X54445Y364313D01*
X54465Y364358D01*
X54473Y364431D01*
X54489Y364502D01*
X54484Y364551D01*
X54489Y364601D01*
X54473Y364672D01*
X54466Y364745D01*
X54445Y364790D01*
X54434Y364838D01*
X54395Y364901D01*
X54365Y364968D01*
X54319Y365024D01*
X54305Y365046D01*
X54292Y365056D01*
X54271Y365082D01*
X53729Y365624D01*
X53729Y370168D01*
X53713Y370265D01*
X53704Y370362D01*
X53694Y370384D01*
X53690Y370409D01*
X53644Y370495D01*
X53603Y370584D01*
X53582Y370610D01*
X53575Y370624D01*
X53556Y370641D01*
X53510Y370698D01*
X51197Y373011D01*
X51197Y376989D01*
X54011Y379803D01*
X57989Y379803D01*
X60803Y376989D01*
X60803Y373011D01*
X58490Y370698D01*
X58433Y370619D01*
X58371Y370544D01*
X58363Y370520D01*
X58348Y370500D01*
X58320Y370406D01*
X58285Y370315D01*
X58282Y370282D01*
X58277Y370266D01*
X58278Y370241D01*
X58271Y370168D01*
X58271Y367815D01*
X58287Y367719D01*
X58296Y367622D01*
X58306Y367599D01*
X58310Y367575D01*
X58356Y367489D01*
X58397Y367400D01*
X58418Y367374D01*
X58425Y367359D01*
X58444Y367342D01*
X58490Y367286D01*
X63327Y362449D01*
X63327Y355551D01*
X61982Y354206D01*
X61925Y354127D01*
X61863Y354052D01*
X61855Y354028D01*
X61840Y354008D01*
X61812Y353915D01*
X61777Y353823D01*
X61774Y353790D01*
X61769Y353774D01*
X61770Y353750D01*
X61763Y353676D01*
X61763Y270743D01*
X61779Y270646D01*
X61788Y270550D01*
X61798Y270527D01*
X61802Y270502D01*
X61848Y270416D01*
X61888Y270327D01*
X61909Y270302D01*
X61917Y270287D01*
X61935Y270270D01*
X61982Y270213D01*
X63181Y269014D01*
X63260Y268957D01*
X63335Y268895D01*
X63359Y268887D01*
X63379Y268872D01*
X63473Y268844D01*
X63564Y268809D01*
X63597Y268806D01*
X63613Y268801D01*
X63638Y268802D01*
X63711Y268795D01*
X105400Y268795D01*
X115795Y258400D01*
X115795Y209994D01*
X101920Y196119D01*
X91724Y196119D01*
X91628Y196103D01*
X91531Y196093D01*
X91508Y196083D01*
X91483Y196079D01*
X91397Y196033D01*
X91309Y195993D01*
X91283Y195972D01*
X91268Y195964D01*
X91251Y195946D01*
X91194Y195899D01*
X86114Y190819D01*
X86057Y190740D01*
X85995Y190665D01*
X85987Y190641D01*
X85972Y190621D01*
X85944Y190527D01*
X85909Y190436D01*
X85906Y190403D01*
X85901Y190387D01*
X85902Y190362D01*
X85895Y190289D01*
X85895Y149527D01*
X85911Y149431D01*
X85920Y149334D01*
X85930Y149311D01*
X85934Y149286D01*
X85980Y149200D01*
X86021Y149111D01*
X86042Y149086D01*
X86049Y149071D01*
X86068Y149054D01*
X86114Y148997D01*
X88321Y146790D01*
X88400Y146733D01*
X88476Y146671D01*
X88499Y146663D01*
X88519Y146648D01*
X88613Y146620D01*
X88704Y146585D01*
X88737Y146582D01*
X88753Y146577D01*
X88778Y146578D01*
X88851Y146571D01*
X100268Y146571D01*
X100365Y146587D01*
X100462Y146596D01*
X100484Y146606D01*
X100509Y146610D01*
X100595Y146656D01*
X100684Y146697D01*
X100710Y146718D01*
X100724Y146725D01*
X100741Y146744D01*
X100798Y146790D01*
X103111Y149103D01*
X107089Y149103D01*
X107926Y148266D01*
X107986Y148223D01*
X108040Y148173D01*
X108084Y148152D01*
X108125Y148124D01*
X108195Y148102D01*
X108262Y148072D01*
X108311Y148067D01*
X108358Y148053D01*
X108431Y148055D01*
X108505Y148048D01*
X108553Y148059D01*
X108602Y148061D01*
X108671Y148087D01*
X108742Y148103D01*
X108784Y148129D01*
X108830Y148147D01*
X108887Y148193D01*
X108950Y148232D01*
X108981Y148270D01*
X109019Y148301D01*
X109058Y148364D01*
X109105Y148420D01*
X109122Y148466D01*
X109148Y148508D01*
X109165Y148580D01*
X109191Y148649D01*
X109198Y148722D01*
X109204Y148746D01*
X109202Y148763D01*
X109205Y148796D01*
X109205Y155532D01*
X109189Y155628D01*
X109180Y155725D01*
X109170Y155748D01*
X109166Y155773D01*
X109120Y155859D01*
X109079Y155948D01*
X109058Y155973D01*
X109051Y155988D01*
X109032Y156005D01*
X108986Y156062D01*
X99649Y165398D01*
X99649Y190179D01*
X109888Y200418D01*
X116543Y200418D01*
X116567Y200422D01*
X116592Y200419D01*
X116684Y200441D01*
X116737Y200446D01*
X116750Y200452D01*
X116784Y200457D01*
X116806Y200469D01*
X116830Y200475D01*
X116908Y200523D01*
X116959Y200546D01*
X116975Y200559D01*
X116999Y200572D01*
X117016Y200590D01*
X117037Y200603D01*
X117054Y200625D01*
X117073Y200640D01*
X118502Y202069D01*
X124975Y202069D01*
X126184Y200859D01*
X126184Y200278D01*
X126188Y200254D01*
X126186Y200229D01*
X126208Y200134D01*
X126224Y200037D01*
X126235Y200016D01*
X126241Y199992D01*
X126293Y199908D01*
X126339Y199822D01*
X126357Y199805D01*
X126370Y199784D01*
X126445Y199722D01*
X126517Y199655D01*
X126539Y199645D01*
X126558Y199630D01*
X126650Y199595D01*
X126739Y199554D01*
X126763Y199552D01*
X126786Y199543D01*
X126933Y199529D01*
X129243Y199529D01*
X129267Y199533D01*
X129292Y199530D01*
X129387Y199553D01*
X129484Y199568D01*
X129506Y199580D01*
X129530Y199586D01*
X129613Y199637D01*
X129699Y199683D01*
X129716Y199701D01*
X129737Y199714D01*
X129799Y199790D01*
X129866Y199862D01*
X129876Y199884D01*
X129892Y199903D01*
X129926Y199994D01*
X129967Y200084D01*
X129969Y200108D01*
X129978Y200131D01*
X129993Y200278D01*
X129993Y200859D01*
X130916Y201783D01*
X130973Y201862D01*
X131035Y201938D01*
X131044Y201961D01*
X131058Y201981D01*
X131087Y202075D01*
X131121Y202166D01*
X131124Y202199D01*
X131129Y202215D01*
X131128Y202240D01*
X131136Y202313D01*
X131136Y223363D01*
X133290Y225517D01*
X133290Y225518D01*
X136772Y229000D01*
X138926Y231154D01*
X149245Y231154D01*
X149318Y231166D01*
X149391Y231168D01*
X149437Y231186D01*
X149486Y231194D01*
X149551Y231228D01*
X149620Y231254D01*
X149658Y231285D01*
X149701Y231309D01*
X149751Y231362D01*
X149808Y231409D01*
X149834Y231451D01*
X149868Y231487D01*
X149898Y231554D01*
X149937Y231616D01*
X149948Y231664D01*
X149969Y231709D01*
X149976Y231782D01*
X149993Y231854D01*
X149988Y231903D01*
X149993Y231952D01*
X149976Y232023D01*
X149969Y232097D01*
X149949Y232141D01*
X149938Y232189D01*
X149899Y232252D01*
X149868Y232319D01*
X149822Y232376D01*
X149809Y232397D01*
X149796Y232407D01*
X149775Y232433D01*
X149698Y232510D01*
X149619Y232567D01*
X149544Y232629D01*
X149520Y232637D01*
X149500Y232652D01*
X149406Y232680D01*
X149315Y232715D01*
X149282Y232718D01*
X149266Y232723D01*
X149241Y232722D01*
X149168Y232729D01*
X144059Y232729D01*
X138082Y238707D01*
X138022Y238750D01*
X137968Y238800D01*
X137924Y238820D01*
X137883Y238849D01*
X137813Y238870D01*
X137746Y238901D01*
X137697Y238906D01*
X137650Y238920D01*
X137577Y238918D01*
X137503Y238925D01*
X137455Y238914D01*
X137406Y238912D01*
X137337Y238886D01*
X137266Y238870D01*
X137224Y238844D01*
X137178Y238826D01*
X137121Y238780D01*
X137058Y238741D01*
X137027Y238703D01*
X136989Y238672D01*
X136950Y238609D01*
X136903Y238552D01*
X136886Y238506D01*
X136860Y238464D01*
X136843Y238393D01*
X136817Y238324D01*
X136810Y238251D01*
X136804Y238227D01*
X136806Y238210D01*
X136803Y238177D01*
X136803Y234011D01*
X133989Y231197D01*
X130011Y231197D01*
X127197Y234011D01*
X127197Y237989D01*
X129510Y240302D01*
X129567Y240381D01*
X129629Y240456D01*
X129637Y240480D01*
X129652Y240500D01*
X129680Y240594D01*
X129715Y240685D01*
X129718Y240718D01*
X129723Y240734D01*
X129722Y240759D01*
X129729Y240832D01*
X129729Y317941D01*
X136978Y325189D01*
X137035Y325269D01*
X137097Y325344D01*
X137105Y325367D01*
X137120Y325387D01*
X137148Y325481D01*
X137183Y325572D01*
X137186Y325605D01*
X137191Y325621D01*
X137190Y325646D01*
X137197Y325719D01*
X137197Y328989D01*
X140011Y331803D01*
X143989Y331803D01*
X146803Y328989D01*
X146803Y325011D01*
X145342Y323550D01*
X145299Y323490D01*
X145249Y323436D01*
X145228Y323392D01*
X145200Y323351D01*
X145178Y323281D01*
X145148Y323214D01*
X145143Y323165D01*
X145129Y323118D01*
X145131Y323045D01*
X145124Y322971D01*
X145135Y322923D01*
X145137Y322874D01*
X145163Y322805D01*
X145179Y322734D01*
X145205Y322692D01*
X145223Y322646D01*
X145269Y322589D01*
X145308Y322526D01*
X145346Y322495D01*
X145377Y322457D01*
X145440Y322418D01*
X145496Y322371D01*
X145542Y322354D01*
X145584Y322328D01*
X145656Y322311D01*
X145725Y322285D01*
X145798Y322278D01*
X145822Y322272D01*
X145839Y322274D01*
X145872Y322271D01*
X147749Y322271D01*
X147845Y322287D01*
X147942Y322296D01*
X147965Y322306D01*
X147990Y322310D01*
X148076Y322356D01*
X148165Y322397D01*
X148190Y322418D01*
X148205Y322425D01*
X148222Y322444D01*
X148279Y322490D01*
X149510Y323721D01*
X149567Y323801D01*
X149629Y323876D01*
X149637Y323899D01*
X149652Y323919D01*
X149680Y324013D01*
X149715Y324104D01*
X149718Y324137D01*
X149723Y324153D01*
X149722Y324178D01*
X149729Y324251D01*
X149729Y347941D01*
X149978Y348189D01*
X150035Y348269D01*
X150097Y348344D01*
X150105Y348367D01*
X150120Y348387D01*
X150148Y348481D01*
X150183Y348572D01*
X150186Y348605D01*
X150191Y348621D01*
X150190Y348646D01*
X150197Y348719D01*
X150197Y351989D01*
X153011Y354803D01*
X156989Y354803D01*
X158918Y352874D01*
X158978Y352831D01*
X159032Y352781D01*
X159076Y352760D01*
X159117Y352732D01*
X159187Y352710D01*
X159254Y352680D01*
X159303Y352675D01*
X159350Y352661D01*
X159423Y352663D01*
X159497Y352656D01*
X159545Y352667D01*
X159594Y352669D01*
X159663Y352695D01*
X159734Y352711D01*
X159776Y352737D01*
X159822Y352755D01*
X159879Y352801D01*
X159942Y352840D01*
X159973Y352878D01*
X160011Y352909D01*
X160050Y352972D01*
X160097Y353028D01*
X160114Y353074D01*
X160140Y353116D01*
X160157Y353188D01*
X160183Y353257D01*
X160190Y353330D01*
X160196Y353354D01*
X160194Y353371D01*
X160197Y353404D01*
X160197Y375822D01*
X160181Y375918D01*
X160172Y376015D01*
X160162Y376038D01*
X160158Y376062D01*
X160112Y376148D01*
X160071Y376237D01*
X160050Y376263D01*
X160043Y376278D01*
X160024Y376295D01*
X159978Y376351D01*
X151099Y385230D01*
X151099Y391092D01*
X151095Y391116D01*
X151098Y391141D01*
X151076Y391236D01*
X151060Y391333D01*
X151048Y391354D01*
X151042Y391378D01*
X150991Y391462D01*
X150945Y391548D01*
X150927Y391565D01*
X150914Y391586D01*
X150838Y391648D01*
X150767Y391715D01*
X150744Y391725D01*
X150725Y391741D01*
X150634Y391775D01*
X150544Y391816D01*
X150520Y391818D01*
X150497Y391827D01*
X150350Y391841D01*
X142036Y391841D01*
X141291Y392586D01*
X141291Y417674D01*
X142036Y418419D01*
X150561Y418419D01*
X150634Y418431D01*
X150707Y418433D01*
X150753Y418450D01*
X150802Y418458D01*
X150867Y418493D01*
X150935Y418519D01*
X150974Y418550D01*
X151017Y418573D01*
X151067Y418627D01*
X151124Y418674D01*
X151150Y418716D01*
X151184Y418751D01*
X151214Y418818D01*
X151253Y418881D01*
X151264Y418929D01*
X151285Y418974D01*
X151292Y419047D01*
X151309Y419118D01*
X151304Y419167D01*
X151309Y419217D01*
X151292Y419288D01*
X151285Y419361D01*
X151265Y419406D01*
X151254Y419454D01*
X151215Y419517D01*
X151185Y419584D01*
X151138Y419640D01*
X151125Y419662D01*
X151112Y419672D01*
X151091Y419698D01*
X148279Y422510D01*
X148200Y422567D01*
X148124Y422629D01*
X148101Y422637D01*
X148081Y422652D01*
X147987Y422680D01*
X147896Y422715D01*
X147863Y422718D01*
X147847Y422723D01*
X147822Y422722D01*
X147749Y422729D01*
X123059Y422729D01*
X114729Y431059D01*
X114729Y446703D01*
X114717Y446776D01*
X114715Y446849D01*
X114698Y446895D01*
X114690Y446944D01*
X114655Y447009D01*
X114629Y447078D01*
X114598Y447116D01*
X114575Y447159D01*
X114521Y447210D01*
X114474Y447266D01*
X114432Y447292D01*
X114397Y447326D01*
X114330Y447357D01*
X114267Y447395D01*
X114219Y447407D01*
X114174Y447427D01*
X114101Y447434D01*
X114030Y447451D01*
X113981Y447446D01*
X113931Y447451D01*
X113860Y447434D01*
X113787Y447427D01*
X113742Y447407D01*
X113694Y447396D01*
X113631Y447357D01*
X113564Y447327D01*
X113508Y447280D01*
X113486Y447267D01*
X113476Y447254D01*
X113450Y447233D01*
X112896Y446679D01*
X112590Y446679D01*
X112566Y446675D01*
X112541Y446678D01*
X112446Y446656D01*
X112349Y446640D01*
X112328Y446628D01*
X112304Y446622D01*
X112220Y446571D01*
X112134Y446525D01*
X112117Y446507D01*
X112096Y446494D01*
X112034Y446418D01*
X111967Y446347D01*
X111957Y446324D01*
X111941Y446305D01*
X111907Y446214D01*
X111866Y446124D01*
X111864Y446100D01*
X111855Y446077D01*
X111841Y445930D01*
X111841Y441629D01*
X106091Y435879D01*
X101588Y435879D01*
X101564Y435875D01*
X101539Y435878D01*
X101444Y435856D01*
X101347Y435840D01*
X101326Y435828D01*
X101302Y435822D01*
X101218Y435771D01*
X101132Y435725D01*
X101115Y435707D01*
X101094Y435694D01*
X101032Y435618D01*
X100965Y435547D01*
X100955Y435524D01*
X100939Y435505D01*
X100905Y435414D01*
X100864Y435324D01*
X100862Y435300D01*
X100853Y435277D01*
X100839Y435130D01*
X100839Y434576D01*
X100094Y433831D01*
X78353Y433831D01*
X78257Y433815D01*
X78160Y433806D01*
X78137Y433796D01*
X78112Y433792D01*
X78026Y433746D01*
X77937Y433705D01*
X77912Y433684D01*
X77897Y433677D01*
X77880Y433658D01*
X77823Y433612D01*
X77022Y432811D01*
X76965Y432731D01*
X76903Y432656D01*
X76895Y432633D01*
X76880Y432613D01*
X76852Y432519D01*
X76817Y432428D01*
X76814Y432395D01*
X76809Y432379D01*
X76810Y432354D01*
X76803Y432281D01*
X76803Y429011D01*
X73989Y426197D01*
X70011Y426197D01*
X67550Y428658D01*
X67490Y428701D01*
X67436Y428751D01*
X67392Y428772D01*
X67351Y428800D01*
X67281Y428822D01*
X67214Y428852D01*
X67165Y428857D01*
X67118Y428871D01*
X67045Y428869D01*
X66971Y428876D01*
X66923Y428865D01*
X66874Y428863D01*
X66805Y428837D01*
X66734Y428821D01*
X66692Y428795D01*
X66646Y428777D01*
X66589Y428731D01*
X66526Y428692D01*
X66495Y428654D01*
X66457Y428623D01*
X66418Y428560D01*
X66371Y428504D01*
X66354Y428458D01*
X66328Y428416D01*
X66311Y428344D01*
X66285Y428275D01*
X66278Y428202D01*
X66272Y428178D01*
X66274Y428161D01*
X66271Y428128D01*
X66271Y409059D01*
X57941Y400729D01*
X55832Y400729D01*
X55735Y400713D01*
X55638Y400704D01*
X55616Y400694D01*
X55591Y400690D01*
X55505Y400644D01*
X55416Y400603D01*
X55390Y400582D01*
X55376Y400575D01*
X55359Y400556D01*
X55357Y400555D01*
X55355Y400554D01*
X55353Y400552D01*
X55302Y400510D01*
X52989Y398197D01*
X49011Y398197D01*
X46197Y401011D01*
X46197Y404989D01*
X49011Y407803D01*
X52989Y407803D01*
X55261Y405531D01*
X55281Y405517D01*
X55296Y405498D01*
X55379Y405447D01*
X55459Y405389D01*
X55482Y405382D01*
X55503Y405369D01*
X55599Y405347D01*
X55692Y405318D01*
X55717Y405319D01*
X55741Y405314D01*
X55838Y405323D01*
X55936Y405326D01*
X55959Y405335D01*
X55984Y405337D01*
X56073Y405378D01*
X56165Y405412D01*
X56184Y405428D01*
X56206Y405438D01*
X56320Y405531D01*
X61510Y410721D01*
X61567Y410801D01*
X61629Y410876D01*
X61637Y410899D01*
X61652Y410919D01*
X61680Y411013D01*
X61715Y411104D01*
X61718Y411137D01*
X61723Y411153D01*
X61722Y411178D01*
X61729Y411251D01*
X61729Y443941D01*
X71059Y453271D01*
X74688Y453271D01*
X74712Y453275D01*
X74737Y453272D01*
X74832Y453294D01*
X74929Y453310D01*
X74950Y453322D01*
X74974Y453328D01*
X75058Y453379D01*
X75144Y453425D01*
X75161Y453443D01*
X75182Y453456D01*
X75244Y453532D01*
X75311Y453603D01*
X75321Y453626D01*
X75337Y453645D01*
X75371Y453736D01*
X75412Y453826D01*
X75414Y453850D01*
X75423Y453873D01*
X75437Y454020D01*
X75437Y454424D01*
X76182Y455169D01*
X97647Y455169D01*
X97743Y455185D01*
X97840Y455194D01*
X97863Y455204D01*
X97888Y455208D01*
X97974Y455255D01*
X98063Y455295D01*
X98088Y455316D01*
X98103Y455323D01*
X98120Y455342D01*
X98177Y455388D01*
X99259Y456470D01*
X99273Y456490D01*
X99292Y456506D01*
X99344Y456589D01*
X99401Y456669D01*
X99408Y456692D01*
X99421Y456713D01*
X99443Y456808D01*
X99472Y456902D01*
X99471Y456926D01*
X99477Y456950D01*
X99467Y457048D01*
X99464Y457146D01*
X99455Y457169D01*
X99453Y457193D01*
X99413Y457282D01*
X99378Y457374D01*
X99363Y457393D01*
X99353Y457416D01*
X99259Y457530D01*
X97777Y459012D01*
X97698Y459069D01*
X97622Y459131D01*
X97599Y459139D01*
X97579Y459154D01*
X97485Y459182D01*
X97394Y459217D01*
X97361Y459220D01*
X97345Y459225D01*
X97320Y459224D01*
X97247Y459231D01*
X76182Y459231D01*
X75437Y459976D01*
X75437Y460530D01*
X75433Y460554D01*
X75436Y460579D01*
X75414Y460674D01*
X75398Y460771D01*
X75386Y460792D01*
X75380Y460816D01*
X75329Y460900D01*
X75283Y460986D01*
X75265Y461003D01*
X75252Y461024D01*
X75176Y461086D01*
X75105Y461153D01*
X75082Y461163D01*
X75063Y461179D01*
X74972Y461213D01*
X74882Y461254D01*
X74858Y461256D01*
X74835Y461265D01*
X74688Y461279D01*
X70509Y461279D01*
X65729Y466059D01*
X65729Y486941D01*
X71549Y492761D01*
X82910Y492761D01*
X82934Y492765D01*
X82959Y492762D01*
X83054Y492784D01*
X83151Y492800D01*
X83172Y492812D01*
X83196Y492818D01*
X83280Y492869D01*
X83366Y492915D01*
X83383Y492933D01*
X83404Y492946D01*
X83466Y493022D01*
X83533Y493093D01*
X83543Y493116D01*
X83559Y493135D01*
X83593Y493226D01*
X83634Y493316D01*
X83636Y493340D01*
X83645Y493363D01*
X83659Y493510D01*
X83659Y494016D01*
X84404Y494761D01*
X90856Y494761D01*
X91420Y494197D01*
X91440Y494183D01*
X91456Y494164D01*
X91539Y494112D01*
X91619Y494055D01*
X91642Y494048D01*
X91663Y494035D01*
X91758Y494012D01*
X91852Y493984D01*
X91877Y493985D01*
X91900Y493979D01*
X91998Y493989D01*
X92096Y493992D01*
X92119Y494000D01*
X92143Y494003D01*
X92233Y494043D01*
X92324Y494078D01*
X92343Y494093D01*
X92366Y494103D01*
X92480Y494197D01*
X93044Y494761D01*
X99496Y494761D01*
X100241Y494016D01*
X100241Y493510D01*
X100245Y493486D01*
X100242Y493461D01*
X100264Y493366D01*
X100280Y493269D01*
X100292Y493248D01*
X100298Y493224D01*
X100349Y493140D01*
X100395Y493054D01*
X100413Y493037D01*
X100426Y493016D01*
X100502Y492954D01*
X100573Y492887D01*
X100596Y492877D01*
X100615Y492861D01*
X100706Y492827D01*
X100796Y492786D01*
X100820Y492784D01*
X100843Y492775D01*
X100990Y492761D01*
X102970Y492761D01*
X102994Y492765D01*
X103019Y492762D01*
X103114Y492784D01*
X103211Y492800D01*
X103232Y492812D01*
X103256Y492818D01*
X103340Y492869D01*
X103426Y492915D01*
X103443Y492933D01*
X103464Y492946D01*
X103526Y493022D01*
X103593Y493093D01*
X103603Y493116D01*
X103619Y493135D01*
X103653Y493226D01*
X103694Y493316D01*
X103696Y493340D01*
X103705Y493363D01*
X103719Y493510D01*
X103719Y494016D01*
X104464Y494761D01*
X104670Y494761D01*
X104694Y494765D01*
X104719Y494762D01*
X104814Y494784D01*
X104911Y494800D01*
X104932Y494812D01*
X104956Y494818D01*
X105040Y494869D01*
X105126Y494915D01*
X105143Y494933D01*
X105164Y494946D01*
X105226Y495022D01*
X105293Y495093D01*
X105303Y495116D01*
X105319Y495135D01*
X105353Y495226D01*
X105394Y495316D01*
X105396Y495340D01*
X105405Y495363D01*
X105419Y495510D01*
X105419Y497631D01*
X109059Y501271D01*
X144941Y501271D01*
X148651Y497561D01*
X148651Y495510D01*
X148655Y495486D01*
X148652Y495461D01*
X148674Y495366D01*
X148690Y495269D01*
X148702Y495248D01*
X148708Y495224D01*
X148759Y495140D01*
X148805Y495054D01*
X148823Y495037D01*
X148836Y495016D01*
X148912Y494954D01*
X148983Y494887D01*
X149006Y494877D01*
X149025Y494861D01*
X149116Y494827D01*
X149206Y494786D01*
X149230Y494784D01*
X149253Y494775D01*
X149400Y494761D01*
X149606Y494761D01*
X150170Y494197D01*
X150190Y494183D01*
X150206Y494164D01*
X150289Y494112D01*
X150369Y494055D01*
X150392Y494048D01*
X150413Y494035D01*
X150508Y494012D01*
X150602Y493984D01*
X150626Y493985D01*
X150650Y493979D01*
X150748Y493989D01*
X150846Y493992D01*
X150869Y494000D01*
X150893Y494003D01*
X150983Y494043D01*
X151074Y494078D01*
X151093Y494093D01*
X151116Y494103D01*
X151230Y494197D01*
X151794Y494761D01*
X158246Y494761D01*
X158991Y494016D01*
X158991Y486964D01*
X158192Y486165D01*
X158135Y486086D01*
X158073Y486011D01*
X158065Y485987D01*
X158050Y485967D01*
X158022Y485873D01*
X157987Y485782D01*
X157984Y485749D01*
X157979Y485733D01*
X157980Y485708D01*
X157973Y485635D01*
X157973Y481318D01*
X157977Y481294D01*
X157974Y481269D01*
X157996Y481174D01*
X158012Y481077D01*
X158024Y481056D01*
X158030Y481032D01*
X158081Y480948D01*
X158127Y480862D01*
X158145Y480845D01*
X158158Y480824D01*
X158234Y480762D01*
X158305Y480695D01*
X158328Y480685D01*
X158347Y480669D01*
X158438Y480635D01*
X158528Y480594D01*
X158552Y480592D01*
X158575Y480583D01*
X158722Y480569D01*
X167658Y480569D01*
X168403Y479824D01*
X168403Y479270D01*
X168407Y479246D01*
X168404Y479221D01*
X168426Y479126D01*
X168442Y479029D01*
X168454Y479008D01*
X168460Y478984D01*
X168511Y478900D01*
X168557Y478814D01*
X168575Y478797D01*
X168588Y478776D01*
X168664Y478714D01*
X168735Y478647D01*
X168758Y478637D01*
X168777Y478621D01*
X168868Y478587D01*
X168958Y478546D01*
X168982Y478544D01*
X169005Y478535D01*
X169152Y478521D01*
X176691Y478521D01*
X184271Y470941D01*
X184271Y392059D01*
X170546Y378335D01*
X170489Y378255D01*
X170427Y378180D01*
X170419Y378157D01*
X170404Y378137D01*
X170376Y378043D01*
X170341Y377952D01*
X170338Y377919D01*
X170333Y377903D01*
X170334Y377878D01*
X170327Y377805D01*
X170327Y343928D01*
X170339Y343855D01*
X170341Y343782D01*
X170358Y343736D01*
X170366Y343687D01*
X170401Y343622D01*
X170427Y343553D01*
X170458Y343515D01*
X170481Y343472D01*
X170535Y343421D01*
X170582Y343365D01*
X170624Y343339D01*
X170659Y343305D01*
X170726Y343274D01*
X170789Y343236D01*
X170837Y343224D01*
X170882Y343204D01*
X170955Y343197D01*
X171026Y343180D01*
X171075Y343185D01*
X171125Y343180D01*
X171196Y343197D01*
X171269Y343204D01*
X171314Y343224D01*
X171362Y343235D01*
X171425Y343274D01*
X171492Y343304D01*
X171548Y343351D01*
X171570Y343364D01*
X171580Y343377D01*
X171606Y343398D01*
X173011Y344803D01*
X176989Y344803D01*
X179803Y341989D01*
X179803Y338011D01*
X178046Y336254D01*
X177989Y336175D01*
X177927Y336100D01*
X177919Y336076D01*
X177904Y336056D01*
X177876Y335962D01*
X177841Y335871D01*
X177838Y335838D01*
X177833Y335822D01*
X177834Y335797D01*
X177827Y335724D01*
X177827Y253695D01*
X177843Y253599D01*
X177852Y253502D01*
X177862Y253479D01*
X177866Y253454D01*
X177912Y253368D01*
X177953Y253279D01*
X177974Y253254D01*
X177981Y253239D01*
X178000Y253222D01*
X178046Y253165D01*
X190189Y241022D01*
X190269Y240965D01*
X190344Y240903D01*
X190367Y240895D01*
X190387Y240880D01*
X190481Y240852D01*
X190572Y240817D01*
X190605Y240814D01*
X190621Y240809D01*
X190646Y240810D01*
X190719Y240803D01*
X193989Y240803D01*
X196803Y237989D01*
X196803Y234011D01*
X193989Y231197D01*
X190011Y231197D01*
X187197Y234011D01*
X187197Y237281D01*
X187181Y237377D01*
X187172Y237474D01*
X187162Y237497D01*
X187158Y237522D01*
X187112Y237608D01*
X187071Y237697D01*
X187050Y237722D01*
X187043Y237737D01*
X187024Y237754D01*
X186978Y237811D01*
X175582Y249207D01*
X175522Y249250D01*
X175468Y249300D01*
X175424Y249320D01*
X175383Y249349D01*
X175313Y249370D01*
X175246Y249401D01*
X175197Y249406D01*
X175150Y249420D01*
X175077Y249418D01*
X175003Y249425D01*
X174955Y249414D01*
X174906Y249412D01*
X174837Y249386D01*
X174766Y249370D01*
X174724Y249344D01*
X174678Y249326D01*
X174621Y249280D01*
X174558Y249241D01*
X174527Y249203D01*
X174489Y249172D01*
X174450Y249109D01*
X174403Y249052D01*
X174386Y249006D01*
X174360Y248964D01*
X174343Y248893D01*
X174317Y248824D01*
X174310Y248751D01*
X174304Y248727D01*
X174306Y248710D01*
X174303Y248677D01*
X174303Y231923D01*
X166929Y224549D01*
X141972Y224549D01*
X141876Y224533D01*
X141779Y224523D01*
X141756Y224513D01*
X141732Y224509D01*
X141646Y224463D01*
X141557Y224423D01*
X141531Y224402D01*
X141517Y224394D01*
X141500Y224376D01*
X141443Y224329D01*
X137960Y220847D01*
X137904Y220767D01*
X137842Y220692D01*
X137833Y220669D01*
X137818Y220649D01*
X137790Y220555D01*
X137756Y220464D01*
X137752Y220431D01*
X137747Y220415D01*
X137748Y220390D01*
X137741Y220317D01*
X137741Y202313D01*
X137757Y202216D01*
X137766Y202120D01*
X137777Y202097D01*
X137781Y202072D01*
X137827Y201986D01*
X137867Y201897D01*
X137888Y201872D01*
X137896Y201857D01*
X137914Y201840D01*
X137960Y201783D01*
X138884Y200859D01*
X138884Y194387D01*
X137960Y193463D01*
X137904Y193384D01*
X137842Y193309D01*
X137833Y193285D01*
X137818Y193265D01*
X137790Y193171D01*
X137756Y193080D01*
X137752Y193047D01*
X137747Y193031D01*
X137748Y193006D01*
X137741Y192933D01*
X137741Y187660D01*
X137745Y187636D01*
X137743Y187611D01*
X137765Y187516D01*
X137781Y187419D01*
X137792Y187398D01*
X137798Y187374D01*
X137850Y187290D01*
X137896Y187204D01*
X137914Y187187D01*
X137927Y187166D01*
X138002Y187104D01*
X138074Y187037D01*
X138096Y187027D01*
X138115Y187011D01*
X138207Y186977D01*
X138296Y186936D01*
X138320Y186934D01*
X138343Y186925D01*
X138490Y186911D01*
X139486Y186911D01*
X140231Y186166D01*
X140231Y175891D01*
X140247Y175795D01*
X140256Y175698D01*
X140266Y175675D01*
X140270Y175650D01*
X140316Y175564D01*
X140357Y175475D01*
X140378Y175450D01*
X140385Y175435D01*
X140404Y175418D01*
X140450Y175361D01*
X147712Y168099D01*
X147712Y149830D01*
X147728Y149733D01*
X147737Y149637D01*
X147748Y149614D01*
X147752Y149589D01*
X147798Y149503D01*
X147838Y149414D01*
X147859Y149389D01*
X147867Y149374D01*
X147885Y149357D01*
X147931Y149300D01*
X154277Y142954D01*
X154356Y142898D01*
X154432Y142836D01*
X154455Y142827D01*
X154475Y142812D01*
X154569Y142784D01*
X154660Y142750D01*
X154693Y142746D01*
X154709Y142741D01*
X154734Y142742D01*
X154807Y142735D01*
X166805Y142735D01*
X167550Y141991D01*
X167550Y137382D01*
X167082Y136914D01*
X167067Y136894D01*
X167049Y136879D01*
X166997Y136795D01*
X166940Y136716D01*
X166932Y136692D01*
X166920Y136672D01*
X166897Y136576D01*
X166869Y136482D01*
X166869Y136458D01*
X166864Y136434D01*
X166873Y136336D01*
X166877Y136238D01*
X166885Y136215D01*
X166888Y136191D01*
X166928Y136102D01*
X166962Y136010D01*
X166978Y135991D01*
X166988Y135969D01*
X167082Y135854D01*
X167550Y135387D01*
X167550Y130778D01*
X167082Y130310D01*
X167067Y130290D01*
X167049Y130275D01*
X166997Y130191D01*
X166940Y130112D01*
X166932Y130088D01*
X166920Y130068D01*
X166897Y129972D01*
X166869Y129878D01*
X166869Y129854D01*
X166864Y129830D01*
X166873Y129732D01*
X166877Y129634D01*
X166885Y129611D01*
X166888Y129587D01*
X166928Y129498D01*
X166962Y129406D01*
X166978Y129387D01*
X166988Y129365D01*
X167082Y129250D01*
X167550Y128783D01*
X167550Y124174D01*
X166805Y123430D01*
X154577Y123430D01*
X153832Y124174D01*
X153832Y128783D01*
X154300Y129250D01*
X154315Y129271D01*
X154334Y129287D01*
X154385Y129369D01*
X154442Y129449D01*
X154449Y129473D01*
X154463Y129494D01*
X154485Y129589D01*
X154513Y129682D01*
X154512Y129707D01*
X154518Y129732D01*
X154508Y129829D01*
X154505Y129926D01*
X154496Y129950D01*
X154494Y129974D01*
X154455Y130061D01*
X154451Y130079D01*
X154444Y130090D01*
X154419Y130155D01*
X154403Y130174D01*
X154393Y130197D01*
X154328Y130276D01*
X154322Y130286D01*
X154315Y130291D01*
X154299Y130311D01*
X154287Y130323D01*
X154273Y130333D01*
X154265Y130343D01*
X154218Y130372D01*
X154208Y130379D01*
X154133Y130441D01*
X154110Y130450D01*
X154089Y130465D01*
X153996Y130493D01*
X153905Y130527D01*
X153871Y130530D01*
X153855Y130535D01*
X153830Y130534D01*
X153758Y130542D01*
X148320Y130542D01*
X148223Y130526D01*
X148126Y130516D01*
X148104Y130506D01*
X148079Y130502D01*
X147993Y130456D01*
X147938Y130431D01*
X147933Y130429D01*
X147932Y130428D01*
X147904Y130416D01*
X147878Y130395D01*
X147864Y130387D01*
X147847Y130369D01*
X147790Y130322D01*
X147778Y130310D01*
X147763Y130290D01*
X147744Y130275D01*
X147717Y130230D01*
X147697Y130209D01*
X147682Y130177D01*
X147636Y130112D01*
X147628Y130088D01*
X147616Y130067D01*
X147597Y129990D01*
X147596Y129987D01*
X147595Y129982D01*
X147593Y129972D01*
X147565Y129878D01*
X147565Y129854D01*
X147560Y129830D01*
X147569Y129732D01*
X147573Y129634D01*
X147581Y129611D01*
X147584Y129587D01*
X147624Y129498D01*
X147658Y129406D01*
X147674Y129387D01*
X147684Y129365D01*
X147778Y129250D01*
X148246Y128783D01*
X148246Y124174D01*
X147501Y123430D01*
X144931Y123430D01*
X144907Y123426D01*
X144882Y123428D01*
X144787Y123406D01*
X144690Y123390D01*
X144668Y123378D01*
X144645Y123373D01*
X144561Y123321D01*
X144475Y123275D01*
X144458Y123257D01*
X144437Y123244D01*
X144375Y123168D01*
X144308Y123097D01*
X144298Y123074D01*
X144282Y123056D01*
X144248Y122964D01*
X144207Y122875D01*
X144205Y122850D01*
X144196Y122827D01*
X144182Y122680D01*
X144182Y120229D01*
X140158Y116205D01*
X102842Y116205D01*
X91860Y127188D01*
X91780Y127245D01*
X91705Y127307D01*
X91682Y127315D01*
X91661Y127330D01*
X91568Y127358D01*
X91477Y127393D01*
X91444Y127396D01*
X91428Y127401D01*
X91403Y127400D01*
X91330Y127407D01*
X89738Y127407D01*
X89642Y127391D01*
X89545Y127382D01*
X89522Y127372D01*
X89497Y127368D01*
X89411Y127322D01*
X89323Y127282D01*
X89297Y127261D01*
X89282Y127253D01*
X89265Y127234D01*
X89208Y127188D01*
X87921Y125900D01*
X87864Y125821D01*
X87802Y125746D01*
X87793Y125722D01*
X87778Y125702D01*
X87750Y125609D01*
X87716Y125517D01*
X87712Y125484D01*
X87708Y125468D01*
X87708Y125444D01*
X87701Y125370D01*
X87701Y110821D01*
X87717Y110724D01*
X87726Y110627D01*
X87737Y110605D01*
X87741Y110580D01*
X87787Y110494D01*
X87827Y110405D01*
X87848Y110379D01*
X87856Y110365D01*
X87874Y110348D01*
X87921Y110291D01*
X97721Y100490D01*
X97801Y100433D01*
X97876Y100371D01*
X97899Y100363D01*
X97919Y100348D01*
X98013Y100320D01*
X98104Y100285D01*
X98137Y100282D01*
X98153Y100277D01*
X98178Y100278D01*
X98251Y100271D01*
X114934Y100271D01*
X122635Y92570D01*
X122635Y87552D01*
X122639Y87528D01*
X122636Y87503D01*
X122658Y87408D01*
X122674Y87311D01*
X122686Y87290D01*
X122692Y87266D01*
X122743Y87182D01*
X122789Y87096D01*
X122807Y87079D01*
X122820Y87058D01*
X122896Y86996D01*
X122967Y86929D01*
X122990Y86919D01*
X123009Y86903D01*
X123100Y86869D01*
X123190Y86828D01*
X123214Y86826D01*
X123237Y86817D01*
X123384Y86803D01*
X124989Y86803D01*
X127803Y83989D01*
X127803Y80011D01*
X124989Y77197D01*
X122133Y77197D01*
X122060Y77185D01*
X121987Y77183D01*
X121941Y77166D01*
X121892Y77158D01*
X121827Y77123D01*
X121759Y77097D01*
X121720Y77066D01*
X121677Y77043D01*
X121627Y76989D01*
X121570Y76942D01*
X121544Y76900D01*
X121510Y76865D01*
X121480Y76798D01*
X121441Y76735D01*
X121430Y76687D01*
X121409Y76642D01*
X121402Y76569D01*
X121385Y76498D01*
X121390Y76449D01*
X121385Y76399D01*
X121402Y76328D01*
X121409Y76255D01*
X121429Y76210D01*
X121440Y76162D01*
X121479Y76099D01*
X121509Y76032D01*
X121556Y75976D01*
X121569Y75954D01*
X121582Y75944D01*
X121603Y75918D01*
X122031Y75490D01*
X122110Y75433D01*
X122186Y75371D01*
X122209Y75363D01*
X122229Y75348D01*
X122323Y75320D01*
X122414Y75285D01*
X122447Y75282D01*
X122463Y75277D01*
X122488Y75278D01*
X122561Y75271D01*
X143168Y75271D01*
X143265Y75287D01*
X143362Y75296D01*
X143384Y75306D01*
X143409Y75310D01*
X143495Y75356D01*
X143584Y75397D01*
X143610Y75418D01*
X143624Y75425D01*
X143641Y75444D01*
X143698Y75490D01*
X146011Y77803D01*
X149989Y77803D01*
X152803Y74989D01*
X152803Y71011D01*
X149989Y68197D01*
X146011Y68197D01*
X143698Y70510D01*
X143619Y70567D01*
X143544Y70629D01*
X143520Y70637D01*
X143500Y70652D01*
X143406Y70680D01*
X143315Y70715D01*
X143282Y70718D01*
X143266Y70723D01*
X143241Y70722D01*
X143168Y70729D01*
X120369Y70729D01*
X116905Y74194D01*
X116845Y74236D01*
X116792Y74287D01*
X116747Y74307D01*
X116707Y74336D01*
X116637Y74357D01*
X116570Y74387D01*
X116520Y74392D01*
X116473Y74407D01*
X116400Y74404D01*
X116327Y74411D01*
X116279Y74400D01*
X116229Y74399D01*
X116161Y74373D01*
X116089Y74356D01*
X116047Y74330D01*
X116001Y74313D01*
X115944Y74266D01*
X115882Y74228D01*
X115850Y74189D01*
X115812Y74158D01*
X115773Y74096D01*
X115727Y74039D01*
X115709Y73993D01*
X115683Y73951D01*
X115667Y73879D01*
X115641Y73811D01*
X115633Y73738D01*
X115628Y73713D01*
X115629Y73697D01*
X115626Y73664D01*
X115626Y70076D01*
X115110Y70076D01*
X115086Y70072D01*
X115062Y70074D01*
X114966Y70052D01*
X114870Y70036D01*
X114848Y70025D01*
X114824Y70019D01*
X114741Y69967D01*
X114654Y69921D01*
X114638Y69903D01*
X114617Y69890D01*
X114555Y69815D01*
X114488Y69743D01*
X114478Y69721D01*
X114462Y69702D01*
X114427Y69610D01*
X114387Y69521D01*
X114384Y69497D01*
X114376Y69474D01*
X114361Y69327D01*
X114361Y67827D01*
X114365Y67803D01*
X114363Y67778D01*
X114385Y67683D01*
X114401Y67586D01*
X114412Y67564D01*
X114418Y67541D01*
X114470Y67457D01*
X114516Y67371D01*
X114534Y67354D01*
X114547Y67333D01*
X114622Y67271D01*
X114694Y67204D01*
X114716Y67194D01*
X114735Y67178D01*
X114827Y67144D01*
X114916Y67103D01*
X114941Y67101D01*
X114963Y67092D01*
X115110Y67078D01*
X115626Y67078D01*
X115626Y61966D01*
X115306Y60357D01*
X114678Y58841D01*
X114596Y58718D01*
X114096Y57969D01*
X114095Y57969D01*
X113766Y57476D01*
X112606Y56316D01*
X111241Y55404D01*
X109725Y54776D01*
X108795Y54591D01*
X108795Y55046D01*
X108791Y55071D01*
X108793Y55095D01*
X108771Y55190D01*
X108755Y55287D01*
X108743Y55309D01*
X108738Y55333D01*
X108686Y55416D01*
X108640Y55502D01*
X108622Y55519D01*
X108609Y55540D01*
X108533Y55602D01*
X108462Y55669D01*
X108439Y55679D01*
X108421Y55695D01*
X108329Y55730D01*
X108240Y55770D01*
X108215Y55772D01*
X108192Y55781D01*
X108045Y55796D01*
X106545Y55796D01*
X106521Y55792D01*
X106497Y55794D01*
X106401Y55772D01*
X106305Y55756D01*
X106283Y55744D01*
X106259Y55739D01*
X106176Y55687D01*
X106089Y55641D01*
X106073Y55623D01*
X106052Y55610D01*
X105990Y55534D01*
X105923Y55463D01*
X105912Y55441D01*
X105897Y55422D01*
X105862Y55330D01*
X105822Y55241D01*
X105819Y55216D01*
X105811Y55193D01*
X105796Y55046D01*
X105796Y54591D01*
X104865Y54776D01*
X103349Y55404D01*
X101985Y56316D01*
X100824Y57476D01*
X99913Y58841D01*
X99285Y60357D01*
X99274Y60413D01*
X99265Y60436D01*
X99262Y60461D01*
X99222Y60549D01*
X99188Y60641D01*
X99172Y60660D01*
X99162Y60683D01*
X99095Y60755D01*
X99033Y60830D01*
X99012Y60843D01*
X98995Y60861D01*
X98909Y60907D01*
X98826Y60959D01*
X98802Y60965D01*
X98780Y60976D01*
X98684Y60992D01*
X98588Y61015D01*
X98564Y61012D01*
X98539Y61016D01*
X98443Y61000D01*
X98345Y60991D01*
X98323Y60981D01*
X98298Y60977D01*
X98212Y60930D01*
X98123Y60890D01*
X98105Y60873D01*
X98083Y60862D01*
X98016Y60790D01*
X97945Y60724D01*
X97933Y60702D01*
X97916Y60684D01*
X97846Y60554D01*
X97682Y60157D01*
X96135Y58610D01*
X94113Y57772D01*
X91925Y57772D01*
X89903Y58610D01*
X88356Y60157D01*
X87518Y62179D01*
X87518Y64367D01*
X88356Y66389D01*
X89903Y67936D01*
X91925Y68774D01*
X94113Y68774D01*
X96135Y67936D01*
X97686Y66386D01*
X97745Y66343D01*
X97799Y66293D01*
X97844Y66272D01*
X97884Y66244D01*
X97954Y66222D01*
X98021Y66192D01*
X98070Y66187D01*
X98117Y66173D01*
X98191Y66175D01*
X98264Y66168D01*
X98312Y66179D01*
X98361Y66181D01*
X98430Y66206D01*
X98502Y66223D01*
X98543Y66249D01*
X98590Y66267D01*
X98646Y66313D01*
X98709Y66352D01*
X98740Y66390D01*
X98778Y66421D01*
X98817Y66484D01*
X98864Y66540D01*
X98881Y66586D01*
X98907Y66628D01*
X98924Y66700D01*
X98950Y66769D01*
X98957Y66842D01*
X98963Y66866D01*
X98961Y66883D01*
X98965Y66916D01*
X98965Y67078D01*
X99490Y67078D01*
X99515Y67081D01*
X99539Y67079D01*
X99635Y67101D01*
X99731Y67117D01*
X99753Y67129D01*
X99777Y67134D01*
X99860Y67186D01*
X99946Y67232D01*
X99963Y67250D01*
X99984Y67263D01*
X100046Y67339D01*
X100113Y67410D01*
X100123Y67433D01*
X100139Y67452D01*
X100174Y67543D01*
X100214Y67632D01*
X100217Y67657D01*
X100225Y67680D01*
X100240Y67827D01*
X100240Y69327D01*
X100236Y69351D01*
X100238Y69375D01*
X100216Y69471D01*
X100200Y69567D01*
X100188Y69589D01*
X100183Y69613D01*
X100131Y69696D01*
X100085Y69783D01*
X100067Y69799D01*
X100054Y69820D01*
X99978Y69883D01*
X99907Y69950D01*
X99885Y69960D01*
X99866Y69975D01*
X99774Y70010D01*
X99685Y70050D01*
X99660Y70053D01*
X99637Y70061D01*
X99490Y70076D01*
X98965Y70076D01*
X98965Y75187D01*
X99285Y76797D01*
X99913Y78313D01*
X100281Y78864D01*
X100782Y79613D01*
X100782Y79614D01*
X100824Y79677D01*
X101985Y80838D01*
X103349Y81749D01*
X104512Y82231D01*
X104554Y82257D01*
X104600Y82274D01*
X104657Y82321D01*
X104719Y82360D01*
X104750Y82398D01*
X104788Y82429D01*
X104827Y82491D01*
X104874Y82548D01*
X104891Y82594D01*
X104917Y82636D01*
X104934Y82708D01*
X104960Y82777D01*
X104962Y82826D01*
X104973Y82874D01*
X104966Y82947D01*
X104968Y83021D01*
X104954Y83068D01*
X104949Y83116D01*
X104919Y83184D01*
X104897Y83254D01*
X104869Y83294D01*
X104849Y83339D01*
X104756Y83452D01*
X104755Y83453D01*
X103698Y84510D01*
X103619Y84567D01*
X103544Y84629D01*
X103520Y84637D01*
X103500Y84652D01*
X103406Y84680D01*
X103315Y84715D01*
X103282Y84718D01*
X103266Y84723D01*
X103241Y84722D01*
X103168Y84729D01*
X90251Y84729D01*
X90155Y84713D01*
X90058Y84704D01*
X90035Y84694D01*
X90010Y84690D01*
X89924Y84644D01*
X89835Y84603D01*
X89810Y84582D01*
X89795Y84575D01*
X89778Y84556D01*
X89721Y84510D01*
X84490Y79279D01*
X84433Y79199D01*
X84371Y79124D01*
X84363Y79101D01*
X84348Y79081D01*
X84320Y78987D01*
X84285Y78896D01*
X84282Y78863D01*
X84277Y78847D01*
X84278Y78822D01*
X84271Y78749D01*
X84271Y58059D01*
X83022Y56811D01*
X82965Y56731D01*
X82903Y56656D01*
X82895Y56633D01*
X82880Y56613D01*
X82852Y56519D01*
X82817Y56428D01*
X82814Y56395D01*
X82809Y56379D01*
X82810Y56354D01*
X82803Y56281D01*
X82803Y53011D01*
X79989Y50197D01*
X76011Y50197D01*
X73197Y53011D01*
X73197Y56989D01*
X74126Y57918D01*
X74169Y57978D01*
X74219Y58032D01*
X74240Y58076D01*
X74268Y58117D01*
X74290Y58187D01*
X74320Y58254D01*
X74325Y58303D01*
X74339Y58350D01*
X74337Y58423D01*
X74344Y58497D01*
X74333Y58545D01*
X74331Y58594D01*
X74305Y58663D01*
X74289Y58734D01*
X74263Y58776D01*
X74245Y58822D01*
X74199Y58879D01*
X74160Y58942D01*
X74122Y58973D01*
X74091Y59011D01*
X74028Y59050D01*
X73972Y59097D01*
X73926Y59114D01*
X73884Y59140D01*
X73812Y59157D01*
X73743Y59183D01*
X73670Y59190D01*
X73646Y59196D01*
X73629Y59194D01*
X73596Y59197D01*
X73011Y59197D01*
X70698Y61510D01*
X70619Y61567D01*
X70544Y61629D01*
X70520Y61637D01*
X70500Y61652D01*
X70406Y61680D01*
X70315Y61715D01*
X70282Y61718D01*
X70266Y61723D01*
X70241Y61722D01*
X70168Y61729D01*
X65832Y61729D01*
X65735Y61713D01*
X65638Y61704D01*
X65616Y61694D01*
X65591Y61690D01*
X65505Y61644D01*
X65416Y61603D01*
X65390Y61582D01*
X65376Y61575D01*
X65359Y61556D01*
X65302Y61510D01*
X63989Y60197D01*
X60011Y60197D01*
X57197Y63011D01*
X57197Y66989D01*
X60011Y69803D01*
X63989Y69803D01*
X66806Y66986D01*
X66804Y66971D01*
X66826Y66876D01*
X66842Y66779D01*
X66854Y66758D01*
X66860Y66734D01*
X66911Y66650D01*
X66957Y66564D01*
X66975Y66547D01*
X66988Y66526D01*
X67064Y66464D01*
X67135Y66397D01*
X67158Y66387D01*
X67177Y66371D01*
X67268Y66337D01*
X67358Y66296D01*
X67382Y66294D01*
X67405Y66285D01*
X67552Y66271D01*
X70168Y66271D01*
X70265Y66287D01*
X70362Y66296D01*
X70384Y66306D01*
X70409Y66310D01*
X70495Y66356D01*
X70584Y66397D01*
X70610Y66418D01*
X70624Y66425D01*
X70641Y66444D01*
X70698Y66490D01*
X73011Y68803D01*
X76989Y68803D01*
X78450Y67342D01*
X78510Y67299D01*
X78564Y67249D01*
X78608Y67228D01*
X78649Y67200D01*
X78719Y67178D01*
X78786Y67148D01*
X78835Y67143D01*
X78882Y67129D01*
X78955Y67131D01*
X79029Y67124D01*
X79077Y67135D01*
X79126Y67137D01*
X79195Y67163D01*
X79266Y67179D01*
X79308Y67205D01*
X79354Y67223D01*
X79411Y67269D01*
X79474Y67308D01*
X79505Y67346D01*
X79543Y67377D01*
X79582Y67440D01*
X79629Y67496D01*
X79646Y67542D01*
X79672Y67584D01*
X79689Y67656D01*
X79715Y67725D01*
X79722Y67798D01*
X79728Y67822D01*
X79726Y67839D01*
X79729Y67872D01*
X79729Y80941D01*
X86807Y88018D01*
X86850Y88078D01*
X86900Y88132D01*
X86920Y88176D01*
X86949Y88217D01*
X86970Y88287D01*
X87001Y88354D01*
X87006Y88403D01*
X87020Y88450D01*
X87018Y88523D01*
X87025Y88597D01*
X87014Y88645D01*
X87012Y88694D01*
X86986Y88763D01*
X86970Y88834D01*
X86944Y88876D01*
X86926Y88922D01*
X86880Y88979D01*
X86841Y89042D01*
X86803Y89073D01*
X86772Y89111D01*
X86709Y89150D01*
X86652Y89197D01*
X86606Y89214D01*
X86564Y89240D01*
X86493Y89257D01*
X86424Y89283D01*
X86351Y89290D01*
X86327Y89296D01*
X86314Y89294D01*
X83998Y91610D01*
X83919Y91667D01*
X83844Y91729D01*
X83820Y91737D01*
X83800Y91752D01*
X83706Y91780D01*
X83615Y91815D01*
X83582Y91818D01*
X83566Y91823D01*
X83541Y91822D01*
X83468Y91829D01*
X80959Y91829D01*
X73729Y99059D01*
X73729Y110185D01*
X73713Y110281D01*
X73704Y110378D01*
X73694Y110401D01*
X73690Y110425D01*
X73644Y110511D01*
X73603Y110600D01*
X73582Y110626D01*
X73575Y110641D01*
X73556Y110658D01*
X73510Y110714D01*
X56149Y128075D01*
X56149Y146781D01*
X56133Y146877D01*
X56124Y146974D01*
X56114Y146997D01*
X56110Y147022D01*
X56064Y147108D01*
X56023Y147196D01*
X56002Y147222D01*
X55995Y147237D01*
X55976Y147254D01*
X55930Y147311D01*
X53046Y150194D01*
X53026Y150209D01*
X53011Y150228D01*
X52928Y150279D01*
X52848Y150337D01*
X52824Y150344D01*
X52803Y150357D01*
X52708Y150379D01*
X52614Y150407D01*
X52590Y150407D01*
X52566Y150412D01*
X52468Y150403D01*
X52370Y150400D01*
X52347Y150391D01*
X52323Y150389D01*
X52234Y150348D01*
X52142Y150314D01*
X52123Y150298D01*
X52101Y150288D01*
X51986Y150194D01*
X49989Y148197D01*
X46011Y148197D01*
X43197Y151011D01*
X43197Y154989D01*
X46011Y157803D01*
X49989Y157803D01*
X52302Y155490D01*
X52381Y155433D01*
X52456Y155371D01*
X52480Y155363D01*
X52500Y155348D01*
X52594Y155320D01*
X52685Y155285D01*
X52718Y155282D01*
X52734Y155277D01*
X52759Y155278D01*
X52832Y155271D01*
X54392Y155271D01*
X59141Y150522D01*
X60691Y148972D01*
X60691Y130266D01*
X60707Y130170D01*
X60716Y130073D01*
X60726Y130050D01*
X60730Y130026D01*
X60776Y129940D01*
X60817Y129851D01*
X60838Y129825D01*
X60845Y129810D01*
X60864Y129793D01*
X60910Y129737D01*
X78271Y112376D01*
X78271Y101251D01*
X78287Y101155D01*
X78296Y101058D01*
X78306Y101035D01*
X78310Y101010D01*
X78356Y100924D01*
X78397Y100835D01*
X78418Y100810D01*
X78425Y100795D01*
X78444Y100778D01*
X78490Y100721D01*
X82621Y96590D01*
X82701Y96533D01*
X82776Y96471D01*
X82799Y96463D01*
X82819Y96448D01*
X82913Y96420D01*
X83004Y96385D01*
X83037Y96382D01*
X83053Y96377D01*
X83078Y96378D01*
X83151Y96371D01*
X83468Y96371D01*
X83565Y96387D01*
X83662Y96396D01*
X83684Y96406D01*
X83709Y96410D01*
X83795Y96456D01*
X83884Y96497D01*
X83910Y96518D01*
X83924Y96525D01*
X83941Y96544D01*
X83998Y96590D01*
X86311Y98903D01*
X90289Y98903D01*
X92602Y96590D01*
X92681Y96533D01*
X92756Y96471D01*
X92780Y96463D01*
X92800Y96448D01*
X92894Y96420D01*
X92985Y96385D01*
X93018Y96382D01*
X93034Y96377D01*
X93059Y96378D01*
X93132Y96371D01*
X93609Y96371D01*
X93682Y96383D01*
X93755Y96385D01*
X93801Y96402D01*
X93850Y96410D01*
X93915Y96445D01*
X93983Y96471D01*
X94022Y96502D01*
X94065Y96525D01*
X94115Y96579D01*
X94172Y96626D01*
X94198Y96667D01*
X94232Y96703D01*
X94262Y96770D01*
X94301Y96833D01*
X94312Y96881D01*
X94333Y96926D01*
X94340Y96999D01*
X94357Y97070D01*
X94352Y97119D01*
X94357Y97169D01*
X94340Y97240D01*
X94333Y97313D01*
X94313Y97358D01*
X94302Y97406D01*
X94263Y97469D01*
X94233Y97536D01*
X94186Y97592D01*
X94173Y97614D01*
X94160Y97624D01*
X94139Y97650D01*
X84709Y107079D01*
X83160Y108629D01*
X83160Y125370D01*
X83144Y125467D01*
X83134Y125564D01*
X83124Y125586D01*
X83120Y125611D01*
X83074Y125697D01*
X83034Y125786D01*
X83013Y125812D01*
X83005Y125826D01*
X82987Y125843D01*
X82940Y125900D01*
X80628Y128213D01*
X80628Y132191D01*
X83441Y135005D01*
X87420Y135005D01*
X89208Y133216D01*
X89288Y133159D01*
X89363Y133098D01*
X89386Y133089D01*
X89407Y133074D01*
X89500Y133046D01*
X89591Y133011D01*
X89624Y133008D01*
X89640Y133003D01*
X89665Y133004D01*
X89738Y132997D01*
X93956Y132997D01*
X104938Y122014D01*
X105018Y121957D01*
X105093Y121895D01*
X105116Y121887D01*
X105137Y121872D01*
X105230Y121844D01*
X105321Y121809D01*
X105354Y121806D01*
X105370Y121801D01*
X105395Y121802D01*
X105468Y121795D01*
X108456Y121795D01*
X108480Y121799D01*
X108505Y121796D01*
X108600Y121818D01*
X108697Y121834D01*
X108718Y121846D01*
X108742Y121852D01*
X108826Y121903D01*
X108912Y121949D01*
X108929Y121967D01*
X108950Y121980D01*
X109012Y122056D01*
X109079Y122127D01*
X109089Y122150D01*
X109105Y122169D01*
X109139Y122260D01*
X109180Y122350D01*
X109182Y122374D01*
X109191Y122397D01*
X109205Y122544D01*
X109205Y130704D01*
X109193Y130777D01*
X109191Y130850D01*
X109174Y130896D01*
X109166Y130945D01*
X109131Y131010D01*
X109105Y131079D01*
X109074Y131117D01*
X109051Y131160D01*
X108997Y131211D01*
X108950Y131267D01*
X108908Y131293D01*
X108873Y131327D01*
X108806Y131358D01*
X108743Y131396D01*
X108695Y131408D01*
X108650Y131428D01*
X108577Y131435D01*
X108506Y131452D01*
X108457Y131447D01*
X108407Y131452D01*
X108336Y131435D01*
X108263Y131428D01*
X108218Y131408D01*
X108170Y131397D01*
X108107Y131358D01*
X108040Y131328D01*
X107984Y131281D01*
X107962Y131268D01*
X107952Y131255D01*
X107926Y131234D01*
X107389Y130697D01*
X103411Y130697D01*
X100597Y133511D01*
X100597Y136717D01*
X100581Y136813D01*
X100572Y136910D01*
X100562Y136933D01*
X100558Y136957D01*
X100512Y137043D01*
X100471Y137132D01*
X100450Y137158D01*
X100443Y137173D01*
X100424Y137190D01*
X100378Y137246D01*
X99538Y138086D01*
X99459Y138143D01*
X99384Y138205D01*
X99360Y138213D01*
X99340Y138228D01*
X99247Y138256D01*
X99156Y138291D01*
X99123Y138294D01*
X99107Y138299D01*
X99082Y138298D01*
X99009Y138305D01*
X85400Y138305D01*
X77629Y146076D01*
X77629Y194141D01*
X79179Y195690D01*
X86306Y202817D01*
X87855Y204366D01*
X98010Y204366D01*
X98107Y204382D01*
X98204Y204392D01*
X98226Y204402D01*
X98251Y204406D01*
X98337Y204452D01*
X98426Y204492D01*
X98452Y204513D01*
X98466Y204521D01*
X98483Y204539D01*
X98540Y204586D01*
X102973Y209019D01*
X103016Y209078D01*
X103066Y209132D01*
X103086Y209177D01*
X103115Y209217D01*
X103136Y209287D01*
X103167Y209354D01*
X103172Y209403D01*
X103186Y209450D01*
X103184Y209524D01*
X103191Y209597D01*
X103180Y209645D01*
X103178Y209694D01*
X103152Y209763D01*
X103136Y209835D01*
X103110Y209876D01*
X103092Y209923D01*
X103046Y209979D01*
X103007Y210042D01*
X102969Y210073D01*
X102937Y210111D01*
X102875Y210150D01*
X102818Y210197D01*
X102772Y210214D01*
X102730Y210240D01*
X102659Y210257D01*
X102590Y210283D01*
X102517Y210290D01*
X102493Y210296D01*
X102476Y210294D01*
X102443Y210298D01*
X101193Y210298D01*
X98880Y212610D01*
X98801Y212667D01*
X98726Y212729D01*
X98702Y212738D01*
X98682Y212752D01*
X98589Y212781D01*
X98498Y212815D01*
X98465Y212818D01*
X98449Y212823D01*
X98430Y212823D01*
X92729Y218523D01*
X92729Y225749D01*
X92713Y225845D01*
X92704Y225942D01*
X92694Y225965D01*
X92690Y225990D01*
X92644Y226076D01*
X92603Y226165D01*
X92582Y226190D01*
X92575Y226205D01*
X92556Y226222D01*
X92510Y226279D01*
X91327Y227462D01*
X91248Y227519D01*
X91172Y227581D01*
X91149Y227589D01*
X91129Y227604D01*
X91035Y227632D01*
X90944Y227667D01*
X90911Y227670D01*
X90895Y227675D01*
X90870Y227674D01*
X90797Y227681D01*
X33173Y227681D01*
X33077Y227665D01*
X32980Y227656D01*
X32957Y227646D01*
X32932Y227642D01*
X32846Y227596D01*
X32757Y227555D01*
X32732Y227534D01*
X32717Y227527D01*
X32700Y227508D01*
X32643Y227462D01*
X31460Y226279D01*
X31403Y226199D01*
X31341Y226124D01*
X31333Y226101D01*
X31318Y226081D01*
X31290Y225987D01*
X31255Y225896D01*
X31252Y225863D01*
X31247Y225847D01*
X31248Y225822D01*
X31241Y225749D01*
X31241Y216290D01*
X31245Y216266D01*
X31242Y216241D01*
X31264Y216146D01*
X31280Y216049D01*
X31292Y216028D01*
X31298Y216004D01*
X31349Y215920D01*
X31395Y215834D01*
X31413Y215817D01*
X31426Y215796D01*
X31502Y215734D01*
X31573Y215667D01*
X31596Y215657D01*
X31615Y215641D01*
X31706Y215607D01*
X31796Y215566D01*
X31820Y215564D01*
X31843Y215555D01*
X31990Y215541D01*
X64438Y215541D01*
X64535Y215557D01*
X64632Y215566D01*
X64654Y215576D01*
X64679Y215580D01*
X64765Y215626D01*
X64854Y215667D01*
X64880Y215688D01*
X64894Y215695D01*
X64911Y215714D01*
X64968Y215760D01*
X67011Y217803D01*
X70989Y217803D01*
X73803Y214989D01*
X73803Y211011D01*
X70989Y208197D01*
X67011Y208197D01*
X64968Y210240D01*
X64889Y210297D01*
X64814Y210359D01*
X64790Y210367D01*
X64770Y210382D01*
X64676Y210410D01*
X64585Y210445D01*
X64552Y210448D01*
X64536Y210453D01*
X64511Y210452D01*
X64438Y210459D01*
X34303Y210459D01*
X34206Y210443D01*
X34110Y210434D01*
X34087Y210424D01*
X34062Y210420D01*
X33976Y210374D01*
X33887Y210333D01*
X33862Y210312D01*
X33847Y210305D01*
X33830Y210286D01*
X33773Y210240D01*
X32000Y208467D01*
X31943Y208388D01*
X31881Y208312D01*
X31873Y208289D01*
X31858Y208269D01*
X31830Y208175D01*
X31795Y208084D01*
X31792Y208051D01*
X31787Y208035D01*
X31788Y208010D01*
X31781Y207937D01*
X31781Y178162D01*
X24952Y171333D01*
X24895Y171254D01*
X24833Y171179D01*
X24825Y171155D01*
X24810Y171135D01*
X24782Y171041D01*
X24747Y170950D01*
X24744Y170917D01*
X24739Y170901D01*
X24740Y170876D01*
X24733Y170803D01*
X24733Y150697D01*
X15731Y141695D01*
X15702Y141655D01*
X15666Y141622D01*
X15631Y141557D01*
X15588Y141497D01*
X15574Y141450D01*
X15551Y141407D01*
X15539Y141334D01*
X15518Y141264D01*
X15519Y141215D01*
X15511Y141166D01*
X15523Y141093D01*
X15526Y141020D01*
X15543Y140974D01*
X15551Y140925D01*
X15585Y140860D01*
X15611Y140791D01*
X15643Y140753D01*
X15666Y140710D01*
X15719Y140660D01*
X15766Y140603D01*
X15808Y140577D01*
X15843Y140543D01*
X15972Y140474D01*
X15973Y140474D01*
X15974Y140473D01*
X16043Y140445D01*
X19045Y137443D01*
X20669Y133522D01*
X20669Y129278D01*
X19045Y125357D01*
X16043Y122355D01*
X12122Y120731D01*
X7878Y120731D01*
X3957Y122355D01*
X1661Y124651D01*
X1601Y124694D01*
X1547Y124744D01*
X1503Y124765D01*
X1462Y124794D01*
X1392Y124815D01*
X1325Y124845D01*
X1276Y124850D01*
X1229Y124864D01*
X1156Y124862D01*
X1082Y124869D01*
X1034Y124858D01*
X985Y124856D01*
X916Y124831D01*
X845Y124814D01*
X803Y124788D01*
X757Y124771D01*
X700Y124724D01*
X637Y124685D01*
X606Y124647D01*
X568Y124616D01*
X529Y124554D01*
X482Y124497D01*
X465Y124451D01*
X439Y124409D01*
X422Y124337D01*
X396Y124269D01*
X389Y124195D01*
X383Y124171D01*
X385Y124155D01*
X382Y124122D01*
X382Y113278D01*
X394Y113206D01*
X396Y113133D01*
X413Y113086D01*
X421Y113038D01*
X456Y112973D01*
X482Y112904D01*
X513Y112866D01*
X536Y112822D01*
X590Y112772D01*
X637Y112715D01*
X679Y112689D01*
X714Y112656D01*
X781Y112625D01*
X844Y112586D01*
X892Y112575D01*
X937Y112555D01*
X1010Y112548D01*
X1081Y112531D01*
X1130Y112536D01*
X1180Y112531D01*
X1251Y112547D01*
X1324Y112555D01*
X1369Y112575D01*
X1417Y112586D01*
X1480Y112625D01*
X1547Y112655D01*
X1603Y112701D01*
X1625Y112715D01*
X1635Y112728D01*
X1661Y112749D01*
X3957Y115045D01*
X7878Y116669D01*
X12122Y116669D01*
X16043Y115045D01*
X19045Y112043D01*
X20669Y108122D01*
X20669Y103878D01*
X19045Y99957D01*
X16043Y96955D01*
X12122Y95331D01*
X7878Y95331D01*
X3957Y96955D01*
X1661Y99251D01*
X1601Y99294D01*
X1547Y99344D01*
X1503Y99365D01*
X1462Y99394D01*
X1392Y99415D01*
X1325Y99445D01*
X1276Y99450D01*
X1229Y99464D01*
X1156Y99462D01*
X1082Y99469D01*
X1034Y99458D01*
X985Y99456D01*
X916Y99431D01*
X845Y99414D01*
X803Y99388D01*
X757Y99371D01*
X700Y99324D01*
X637Y99285D01*
X606Y99247D01*
X568Y99216D01*
X529Y99154D01*
X482Y99097D01*
X465Y99051D01*
X439Y99009D01*
X422Y98937D01*
X396Y98869D01*
X389Y98795D01*
X383Y98771D01*
X385Y98755D01*
X382Y98722D01*
X382Y24134D01*
X392Y24071D01*
X393Y24007D01*
X412Y23951D01*
X421Y23893D01*
X452Y23836D01*
X464Y23800D01*
X385Y22926D01*
X386Y22904D01*
X382Y22858D01*
X382Y21839D01*
X381Y21836D01*
X377Y21802D01*
X372Y21786D01*
X373Y21761D01*
X366Y21689D01*
X359Y19401D01*
X363Y19377D01*
X360Y19352D01*
X384Y19206D01*
X2082Y12818D01*
X2105Y12766D01*
X2119Y12710D01*
X2175Y12611D01*
X2182Y12596D01*
X2186Y12591D01*
X2192Y12581D01*
X5979Y7164D01*
X6020Y7123D01*
X6052Y7076D01*
X6138Y7002D01*
X6150Y6990D01*
X6156Y6987D01*
X6164Y6979D01*
X11581Y3192D01*
X11633Y3167D01*
X11680Y3134D01*
X11786Y3094D01*
X11801Y3086D01*
X11808Y3086D01*
X11818Y3082D01*
X18206Y1384D01*
X18231Y1381D01*
X18254Y1373D01*
X18401Y1359D01*
X19686Y1363D01*
G37*
G36*
X165778Y380263D02*
X165778Y380263D01*
X165876Y380266D01*
X165899Y380274D01*
X165923Y380277D01*
X166012Y380317D01*
X166104Y380352D01*
X166123Y380367D01*
X166145Y380377D01*
X166260Y380471D01*
X167335Y381546D01*
X179510Y393721D01*
X179567Y393801D01*
X179629Y393876D01*
X179637Y393899D01*
X179652Y393919D01*
X179680Y394013D01*
X179715Y394104D01*
X179718Y394137D01*
X179723Y394153D01*
X179722Y394178D01*
X179729Y394251D01*
X179729Y461128D01*
X179717Y461201D01*
X179715Y461274D01*
X179698Y461320D01*
X179690Y461369D01*
X179655Y461434D01*
X179629Y461503D01*
X179598Y461541D01*
X179575Y461584D01*
X179521Y461635D01*
X179474Y461691D01*
X179432Y461717D01*
X179397Y461751D01*
X179330Y461782D01*
X179267Y461820D01*
X179219Y461832D01*
X179174Y461852D01*
X179101Y461859D01*
X179030Y461876D01*
X178981Y461871D01*
X178931Y461876D01*
X178860Y461859D01*
X178787Y461852D01*
X178742Y461832D01*
X178694Y461821D01*
X178631Y461782D01*
X178564Y461752D01*
X178508Y461705D01*
X178486Y461692D01*
X178476Y461679D01*
X178450Y461658D01*
X175989Y459197D01*
X172011Y459197D01*
X169698Y461510D01*
X169619Y461567D01*
X169544Y461629D01*
X169520Y461637D01*
X169500Y461652D01*
X169406Y461680D01*
X169355Y461700D01*
X169346Y461704D01*
X169344Y461704D01*
X169315Y461715D01*
X169282Y461718D01*
X169266Y461723D01*
X169241Y461722D01*
X169168Y461729D01*
X169152Y461729D01*
X169128Y461725D01*
X169103Y461728D01*
X169053Y461716D01*
X169022Y461715D01*
X168989Y461702D01*
X168911Y461690D01*
X168890Y461678D01*
X168866Y461672D01*
X168799Y461631D01*
X168794Y461629D01*
X168788Y461624D01*
X168782Y461621D01*
X168696Y461575D01*
X168679Y461557D01*
X168658Y461544D01*
X168596Y461468D01*
X168529Y461397D01*
X168519Y461374D01*
X168503Y461355D01*
X168469Y461264D01*
X168428Y461174D01*
X168426Y461150D01*
X168417Y461127D01*
X168403Y460980D01*
X168403Y459976D01*
X167658Y459231D01*
X146753Y459231D01*
X146657Y459215D01*
X146560Y459206D01*
X146537Y459196D01*
X146512Y459192D01*
X146426Y459146D01*
X146337Y459105D01*
X146312Y459084D01*
X146297Y459077D01*
X146280Y459058D01*
X146223Y459012D01*
X144741Y457530D01*
X144727Y457510D01*
X144708Y457494D01*
X144656Y457411D01*
X144599Y457331D01*
X144592Y457308D01*
X144579Y457287D01*
X144557Y457192D01*
X144528Y457098D01*
X144529Y457073D01*
X144523Y457050D01*
X144533Y456952D01*
X144536Y456854D01*
X144545Y456831D01*
X144547Y456807D01*
X144587Y456718D01*
X144622Y456626D01*
X144637Y456607D01*
X144647Y456584D01*
X144741Y456470D01*
X145823Y455388D01*
X145903Y455331D01*
X145978Y455269D01*
X146001Y455261D01*
X146021Y455246D01*
X146115Y455218D01*
X146206Y455183D01*
X146239Y455180D01*
X146255Y455175D01*
X146280Y455176D01*
X146353Y455169D01*
X167658Y455169D01*
X168403Y454424D01*
X168403Y447276D01*
X167658Y446531D01*
X143746Y446531D01*
X143001Y447276D01*
X143001Y451477D01*
X142985Y451573D01*
X142976Y451670D01*
X142966Y451693D01*
X142962Y451718D01*
X142916Y451804D01*
X142875Y451893D01*
X142854Y451918D01*
X142847Y451933D01*
X142828Y451950D01*
X142782Y452007D01*
X142579Y452210D01*
X142499Y452267D01*
X142424Y452329D01*
X142401Y452337D01*
X142381Y452352D01*
X142287Y452380D01*
X142196Y452415D01*
X142163Y452418D01*
X142147Y452423D01*
X142122Y452422D01*
X142049Y452429D01*
X140360Y452429D01*
X140336Y452425D01*
X140311Y452428D01*
X140216Y452406D01*
X140119Y452390D01*
X140098Y452378D01*
X140074Y452372D01*
X139990Y452321D01*
X139904Y452275D01*
X139887Y452257D01*
X139866Y452244D01*
X139804Y452168D01*
X139737Y452097D01*
X139727Y452074D01*
X139711Y452055D01*
X139677Y451964D01*
X139636Y451874D01*
X139634Y451850D01*
X139625Y451827D01*
X139611Y451680D01*
X139611Y450574D01*
X134395Y450574D01*
X134371Y450570D01*
X134347Y450573D01*
X134291Y450560D01*
X134145Y450574D01*
X128929Y450574D01*
X128929Y451784D01*
X129044Y452213D01*
X129044Y452214D01*
X129052Y452287D01*
X129068Y452359D01*
X129064Y452408D01*
X129068Y452457D01*
X129052Y452529D01*
X129045Y452602D01*
X129024Y452647D01*
X129013Y452695D01*
X128974Y452757D01*
X128944Y452824D01*
X128897Y452881D01*
X128884Y452902D01*
X128871Y452913D01*
X128851Y452938D01*
X127810Y453979D01*
X126740Y455049D01*
X126680Y455092D01*
X126626Y455142D01*
X126582Y455162D01*
X126541Y455191D01*
X126471Y455212D01*
X126404Y455243D01*
X126355Y455248D01*
X126308Y455262D01*
X126235Y455260D01*
X126161Y455267D01*
X126113Y455256D01*
X126064Y455254D01*
X125995Y455228D01*
X125924Y455212D01*
X125882Y455186D01*
X125836Y455168D01*
X125779Y455122D01*
X125716Y455083D01*
X125685Y455045D01*
X125647Y455014D01*
X125608Y454951D01*
X125561Y454894D01*
X125544Y454848D01*
X125518Y454806D01*
X125501Y454735D01*
X125475Y454666D01*
X125468Y454593D01*
X125462Y454569D01*
X125464Y454552D01*
X125461Y454519D01*
X125461Y448866D01*
X125288Y448219D01*
X124953Y447640D01*
X124480Y447167D01*
X123901Y446832D01*
X123254Y446659D01*
X122669Y446659D01*
X122669Y457200D01*
X122669Y467741D01*
X123254Y467741D01*
X123786Y467598D01*
X123902Y467587D01*
X124029Y467574D01*
X124132Y467598D01*
X124266Y467630D01*
X124267Y467630D01*
X124374Y467697D01*
X124474Y467758D01*
X124542Y467841D01*
X124629Y467947D01*
X124658Y468025D01*
X124715Y468175D01*
X124715Y468176D01*
X124729Y468322D01*
X124729Y469749D01*
X124713Y469845D01*
X124704Y469942D01*
X124694Y469965D01*
X124690Y469990D01*
X124644Y470076D01*
X124603Y470165D01*
X124582Y470190D01*
X124575Y470205D01*
X124556Y470222D01*
X124510Y470279D01*
X114059Y480729D01*
X114059Y485470D01*
X114055Y485494D01*
X114058Y485519D01*
X114036Y485614D01*
X114020Y485711D01*
X114008Y485732D01*
X114002Y485756D01*
X113951Y485840D01*
X113905Y485926D01*
X113887Y485943D01*
X113874Y485964D01*
X113798Y486026D01*
X113727Y486093D01*
X113704Y486103D01*
X113685Y486119D01*
X113594Y486153D01*
X113504Y486194D01*
X113480Y486196D01*
X113457Y486205D01*
X113310Y486219D01*
X113104Y486219D01*
X112540Y486783D01*
X112520Y486797D01*
X112504Y486816D01*
X112421Y486868D01*
X112341Y486925D01*
X112318Y486932D01*
X112297Y486945D01*
X112202Y486968D01*
X112108Y486996D01*
X112084Y486995D01*
X112060Y487001D01*
X111962Y486991D01*
X111864Y486988D01*
X111841Y486980D01*
X111817Y486977D01*
X111727Y486937D01*
X111636Y486902D01*
X111617Y486887D01*
X111594Y486877D01*
X111480Y486783D01*
X110916Y486219D01*
X110710Y486219D01*
X110686Y486215D01*
X110661Y486218D01*
X110566Y486196D01*
X110469Y486180D01*
X110448Y486168D01*
X110424Y486162D01*
X110340Y486111D01*
X110254Y486065D01*
X110237Y486047D01*
X110216Y486034D01*
X110154Y485958D01*
X110087Y485887D01*
X110077Y485864D01*
X110061Y485845D01*
X110027Y485754D01*
X109986Y485664D01*
X109984Y485640D01*
X109975Y485617D01*
X109961Y485470D01*
X109961Y477251D01*
X109977Y477155D01*
X109986Y477058D01*
X109996Y477035D01*
X110000Y477010D01*
X110046Y476924D01*
X110087Y476835D01*
X110108Y476810D01*
X110115Y476795D01*
X110134Y476778D01*
X110180Y476721D01*
X111841Y475061D01*
X111841Y468470D01*
X111845Y468446D01*
X111842Y468421D01*
X111864Y468326D01*
X111880Y468229D01*
X111892Y468208D01*
X111898Y468184D01*
X111949Y468100D01*
X111995Y468014D01*
X112013Y467997D01*
X112026Y467976D01*
X112102Y467914D01*
X112173Y467847D01*
X112196Y467837D01*
X112215Y467821D01*
X112306Y467787D01*
X112396Y467746D01*
X112420Y467744D01*
X112443Y467735D01*
X112590Y467721D01*
X112896Y467721D01*
X113427Y467190D01*
X113506Y467133D01*
X113581Y467071D01*
X113605Y467063D01*
X113625Y467048D01*
X113719Y467020D01*
X113810Y466985D01*
X113843Y466982D01*
X113859Y466977D01*
X113884Y466978D01*
X113957Y466971D01*
X116241Y466971D01*
X117313Y465898D01*
X117393Y465841D01*
X117468Y465779D01*
X117491Y465770D01*
X117512Y465756D01*
X117605Y465728D01*
X117696Y465693D01*
X117721Y465692D01*
X117745Y465685D01*
X117843Y465688D01*
X117940Y465685D01*
X117964Y465692D01*
X117989Y465693D01*
X118080Y465727D01*
X118174Y465756D01*
X118194Y465770D01*
X118217Y465779D01*
X118293Y465841D01*
X118372Y465898D01*
X118387Y465918D01*
X118406Y465934D01*
X118458Y466016D01*
X118515Y466096D01*
X118526Y466127D01*
X118535Y466141D01*
X118539Y466157D01*
X118887Y466760D01*
X119360Y467233D01*
X119939Y467568D01*
X120586Y467741D01*
X121171Y467741D01*
X121171Y457200D01*
X121171Y446659D01*
X120586Y446659D01*
X120214Y446759D01*
X120095Y446771D01*
X119971Y446783D01*
X119857Y446756D01*
X119734Y446728D01*
X119734Y446727D01*
X119733Y446727D01*
X119622Y446658D01*
X119526Y446599D01*
X119447Y446502D01*
X119371Y446410D01*
X119321Y446276D01*
X119285Y446182D01*
X119285Y446181D01*
X119271Y446035D01*
X119271Y433251D01*
X119287Y433155D01*
X119296Y433058D01*
X119306Y433035D01*
X119310Y433010D01*
X119356Y432924D01*
X119397Y432835D01*
X119418Y432810D01*
X119425Y432795D01*
X119444Y432778D01*
X119490Y432721D01*
X124721Y427490D01*
X124801Y427433D01*
X124876Y427371D01*
X124899Y427363D01*
X124919Y427348D01*
X125013Y427320D01*
X125104Y427285D01*
X125137Y427282D01*
X125153Y427277D01*
X125178Y427278D01*
X125251Y427271D01*
X149941Y427271D01*
X156673Y420539D01*
X156673Y419168D01*
X156677Y419144D01*
X156674Y419119D01*
X156697Y419024D01*
X156712Y418927D01*
X156724Y418906D01*
X156730Y418882D01*
X156781Y418798D01*
X156827Y418712D01*
X156845Y418695D01*
X156858Y418674D01*
X156934Y418612D01*
X157005Y418545D01*
X157028Y418535D01*
X157047Y418519D01*
X157138Y418485D01*
X157228Y418444D01*
X157252Y418442D01*
X157275Y418433D01*
X157422Y418419D01*
X166768Y418419D01*
X167513Y417674D01*
X167513Y392586D01*
X166768Y391841D01*
X158454Y391841D01*
X158430Y391837D01*
X158405Y391840D01*
X158310Y391818D01*
X158213Y391802D01*
X158192Y391790D01*
X158168Y391784D01*
X158084Y391733D01*
X157998Y391687D01*
X157981Y391669D01*
X157960Y391656D01*
X157898Y391580D01*
X157831Y391509D01*
X157821Y391486D01*
X157805Y391467D01*
X157771Y391376D01*
X157730Y391286D01*
X157728Y391262D01*
X157719Y391239D01*
X157705Y391092D01*
X157705Y388276D01*
X157721Y388180D01*
X157730Y388083D01*
X157740Y388060D01*
X157744Y388036D01*
X157790Y387950D01*
X157831Y387861D01*
X157852Y387835D01*
X157859Y387820D01*
X157878Y387803D01*
X157924Y387747D01*
X165200Y380471D01*
X165220Y380456D01*
X165235Y380438D01*
X165318Y380386D01*
X165398Y380329D01*
X165422Y380322D01*
X165443Y380309D01*
X165538Y380286D01*
X165632Y380258D01*
X165656Y380259D01*
X165680Y380253D01*
X165778Y380263D01*
G37*
G36*
X163979Y231170D02*
X163979Y231170D01*
X164075Y231179D01*
X164098Y231190D01*
X164123Y231194D01*
X164209Y231240D01*
X164298Y231280D01*
X164323Y231301D01*
X164338Y231309D01*
X164355Y231327D01*
X164412Y231373D01*
X167478Y234439D01*
X167535Y234519D01*
X167597Y234594D01*
X167605Y234617D01*
X167620Y234638D01*
X167648Y234731D01*
X167683Y234822D01*
X167686Y234855D01*
X167691Y234871D01*
X167690Y234896D01*
X167697Y234969D01*
X167697Y295322D01*
X167681Y295418D01*
X167672Y295515D01*
X167662Y295538D01*
X167658Y295562D01*
X167612Y295649D01*
X167571Y295737D01*
X167550Y295763D01*
X167543Y295778D01*
X167524Y295795D01*
X167478Y295851D01*
X162851Y300478D01*
X162772Y300535D01*
X162697Y300597D01*
X162673Y300605D01*
X162653Y300620D01*
X162560Y300648D01*
X162469Y300683D01*
X162436Y300686D01*
X162420Y300691D01*
X162395Y300690D01*
X162322Y300697D01*
X159800Y300697D01*
X159703Y300681D01*
X159606Y300672D01*
X159584Y300662D01*
X159559Y300658D01*
X159473Y300612D01*
X159384Y300571D01*
X159358Y300550D01*
X159344Y300543D01*
X159327Y300524D01*
X159270Y300478D01*
X157989Y299197D01*
X154011Y299197D01*
X151197Y302011D01*
X151197Y305989D01*
X153478Y308270D01*
X153535Y308349D01*
X153597Y308424D01*
X153605Y308448D01*
X153620Y308468D01*
X153648Y308562D01*
X153683Y308653D01*
X153686Y308686D01*
X153691Y308702D01*
X153690Y308727D01*
X153697Y308800D01*
X153697Y319677D01*
X153685Y319750D01*
X153683Y319823D01*
X153666Y319869D01*
X153658Y319918D01*
X153623Y319983D01*
X153597Y320051D01*
X153566Y320090D01*
X153543Y320133D01*
X153489Y320183D01*
X153442Y320240D01*
X153400Y320266D01*
X153365Y320300D01*
X153298Y320330D01*
X153235Y320369D01*
X153187Y320380D01*
X153142Y320401D01*
X153069Y320408D01*
X152998Y320425D01*
X152949Y320420D01*
X152899Y320425D01*
X152828Y320408D01*
X152755Y320401D01*
X152710Y320381D01*
X152662Y320370D01*
X152599Y320331D01*
X152532Y320301D01*
X152476Y320254D01*
X152454Y320241D01*
X152444Y320228D01*
X152418Y320207D01*
X149941Y317729D01*
X142251Y317729D01*
X142155Y317713D01*
X142058Y317704D01*
X142035Y317694D01*
X142010Y317690D01*
X141924Y317644D01*
X141835Y317603D01*
X141810Y317582D01*
X141795Y317575D01*
X141778Y317556D01*
X141721Y317510D01*
X138014Y313803D01*
X137957Y313723D01*
X137895Y313648D01*
X137887Y313625D01*
X137872Y313605D01*
X137844Y313511D01*
X137809Y313420D01*
X137806Y313387D01*
X137801Y313371D01*
X137802Y313346D01*
X137795Y313273D01*
X137795Y245727D01*
X137811Y245631D01*
X137820Y245534D01*
X137830Y245511D01*
X137834Y245486D01*
X137880Y245400D01*
X137921Y245311D01*
X137942Y245286D01*
X137949Y245271D01*
X137968Y245254D01*
X138014Y245197D01*
X145721Y237490D01*
X145801Y237433D01*
X145876Y237371D01*
X145899Y237363D01*
X145919Y237348D01*
X146013Y237320D01*
X146104Y237285D01*
X146137Y237282D01*
X146153Y237277D01*
X146178Y237278D01*
X146251Y237271D01*
X149168Y237271D01*
X149265Y237287D01*
X149362Y237296D01*
X149384Y237306D01*
X149409Y237310D01*
X149495Y237356D01*
X149584Y237397D01*
X149610Y237418D01*
X149624Y237425D01*
X149641Y237444D01*
X149698Y237490D01*
X152011Y239803D01*
X155989Y239803D01*
X158803Y236989D01*
X158803Y233011D01*
X158225Y232433D01*
X158182Y232373D01*
X158132Y232320D01*
X158112Y232275D01*
X158083Y232235D01*
X158062Y232164D01*
X158031Y232098D01*
X158026Y232048D01*
X158012Y232001D01*
X158014Y231928D01*
X158007Y231855D01*
X158018Y231807D01*
X158020Y231757D01*
X158046Y231689D01*
X158062Y231617D01*
X158089Y231575D01*
X158106Y231529D01*
X158152Y231472D01*
X158191Y231410D01*
X158229Y231378D01*
X158261Y231340D01*
X158323Y231301D01*
X158380Y231255D01*
X158426Y231237D01*
X158468Y231211D01*
X158539Y231194D01*
X158608Y231169D01*
X158681Y231161D01*
X158705Y231156D01*
X158722Y231157D01*
X158755Y231154D01*
X163882Y231154D01*
X163979Y231170D01*
G37*
G36*
X238966Y118385D02*
X238966Y118385D01*
X239062Y118390D01*
X239105Y118405D01*
X239150Y118411D01*
X239237Y118451D01*
X239328Y118482D01*
X239363Y118508D01*
X239407Y118528D01*
X239504Y118611D01*
X239577Y118664D01*
X242707Y121794D01*
X242764Y121870D01*
X242829Y121942D01*
X242849Y121983D01*
X242876Y122019D01*
X242910Y122109D01*
X242952Y122195D01*
X242958Y122238D01*
X242975Y122283D01*
X242985Y122411D01*
X242999Y122500D01*
X242999Y134000D01*
X242986Y134095D01*
X242981Y134191D01*
X242966Y134234D01*
X242959Y134279D01*
X242920Y134367D01*
X242888Y134458D01*
X242863Y134492D01*
X242843Y134536D01*
X242760Y134634D01*
X242707Y134707D01*
X221254Y156159D01*
X221177Y156217D01*
X221106Y156281D01*
X221065Y156301D01*
X221028Y156328D01*
X220938Y156362D01*
X220852Y156404D01*
X220810Y156411D01*
X220765Y156428D01*
X220637Y156438D01*
X220547Y156452D01*
X208000Y156452D01*
X207936Y156443D01*
X207872Y156444D01*
X207797Y156423D01*
X207721Y156412D01*
X207662Y156386D01*
X207600Y156368D01*
X207534Y156328D01*
X207464Y156296D01*
X207415Y156254D01*
X207360Y156220D01*
X207308Y156163D01*
X207250Y156112D01*
X207214Y156059D01*
X207171Y156011D01*
X207138Y155941D01*
X207095Y155876D01*
X207076Y155815D01*
X207048Y155757D01*
X207037Y155688D01*
X207013Y155607D01*
X207012Y155522D01*
X207001Y155453D01*
X207001Y119371D01*
X207010Y119307D01*
X207009Y119243D01*
X207030Y119168D01*
X207041Y119092D01*
X207067Y119033D01*
X207084Y118971D01*
X207125Y118905D01*
X207157Y118835D01*
X207199Y118786D01*
X207232Y118731D01*
X207290Y118679D01*
X207340Y118620D01*
X207394Y118585D01*
X207442Y118542D01*
X207511Y118508D01*
X207576Y118466D01*
X207638Y118447D01*
X207695Y118419D01*
X207765Y118408D01*
X207846Y118383D01*
X207931Y118382D01*
X208000Y118371D01*
X238871Y118371D01*
X238966Y118385D01*
G37*
%LPC*%
G36*
X163059Y34729D02*
X163059Y34729D01*
X161510Y36279D01*
X157320Y40469D01*
X157300Y40483D01*
X157285Y40502D01*
X157202Y40554D01*
X157122Y40611D01*
X157098Y40618D01*
X157078Y40631D01*
X156982Y40653D01*
X156888Y40682D01*
X156864Y40681D01*
X156840Y40686D01*
X156743Y40677D01*
X156644Y40674D01*
X156622Y40665D01*
X156597Y40663D01*
X156508Y40622D01*
X156416Y40588D01*
X156397Y40572D01*
X156375Y40562D01*
X156261Y40469D01*
X153989Y38197D01*
X150011Y38197D01*
X147197Y41011D01*
X147197Y44989D01*
X150011Y47803D01*
X153989Y47803D01*
X156302Y45490D01*
X156381Y45433D01*
X156456Y45371D01*
X156480Y45363D01*
X156500Y45348D01*
X156594Y45320D01*
X156685Y45285D01*
X156718Y45282D01*
X156734Y45277D01*
X156759Y45278D01*
X156832Y45271D01*
X158941Y45271D01*
X164721Y39490D01*
X164801Y39433D01*
X164876Y39371D01*
X164899Y39363D01*
X164919Y39348D01*
X165013Y39320D01*
X165104Y39285D01*
X165137Y39282D01*
X165153Y39277D01*
X165178Y39278D01*
X165251Y39271D01*
X219749Y39271D01*
X219845Y39287D01*
X219942Y39296D01*
X219965Y39306D01*
X219990Y39310D01*
X220076Y39356D01*
X220165Y39397D01*
X220190Y39418D01*
X220205Y39425D01*
X220222Y39444D01*
X220279Y39490D01*
X223510Y42721D01*
X223567Y42801D01*
X223629Y42876D01*
X223637Y42899D01*
X223652Y42919D01*
X223680Y43013D01*
X223715Y43104D01*
X223718Y43137D01*
X223723Y43153D01*
X223722Y43178D01*
X223729Y43251D01*
X223729Y79168D01*
X223713Y79265D01*
X223704Y79362D01*
X223694Y79384D01*
X223690Y79409D01*
X223644Y79495D01*
X223603Y79584D01*
X223582Y79610D01*
X223575Y79624D01*
X223556Y79641D01*
X223510Y79698D01*
X221197Y82011D01*
X221197Y85989D01*
X224011Y88803D01*
X227989Y88803D01*
X230803Y85989D01*
X230803Y82011D01*
X228490Y79698D01*
X228433Y79619D01*
X228371Y79544D01*
X228363Y79520D01*
X228348Y79500D01*
X228320Y79406D01*
X228285Y79315D01*
X228282Y79282D01*
X228277Y79266D01*
X228278Y79241D01*
X228271Y79168D01*
X228271Y41059D01*
X221941Y34729D01*
X163059Y34729D01*
G37*
%LPD*%
%LPC*%
G36*
X49011Y424197D02*
X49011Y424197D01*
X46698Y426510D01*
X46619Y426567D01*
X46544Y426629D01*
X46520Y426637D01*
X46500Y426652D01*
X46406Y426680D01*
X46315Y426715D01*
X46282Y426718D01*
X46266Y426723D01*
X46241Y426722D01*
X46168Y426729D01*
X32059Y426729D01*
X23729Y435059D01*
X23729Y492941D01*
X26978Y496189D01*
X27035Y496269D01*
X27097Y496344D01*
X27105Y496367D01*
X27120Y496387D01*
X27148Y496481D01*
X27183Y496572D01*
X27186Y496605D01*
X27191Y496621D01*
X27190Y496646D01*
X27197Y496719D01*
X27197Y499989D01*
X30011Y502803D01*
X33989Y502803D01*
X36803Y499989D01*
X36803Y496011D01*
X33989Y493197D01*
X30719Y493197D01*
X30623Y493181D01*
X30526Y493172D01*
X30503Y493162D01*
X30478Y493158D01*
X30392Y493112D01*
X30303Y493071D01*
X30278Y493050D01*
X30263Y493043D01*
X30246Y493024D01*
X30189Y492978D01*
X28490Y491279D01*
X28433Y491199D01*
X28371Y491124D01*
X28363Y491101D01*
X28348Y491081D01*
X28320Y490987D01*
X28285Y490896D01*
X28282Y490863D01*
X28277Y490847D01*
X28278Y490822D01*
X28271Y490749D01*
X28271Y437251D01*
X28287Y437155D01*
X28296Y437058D01*
X28306Y437035D01*
X28310Y437010D01*
X28356Y436924D01*
X28397Y436835D01*
X28418Y436810D01*
X28425Y436795D01*
X28444Y436778D01*
X28490Y436721D01*
X33721Y431490D01*
X33801Y431433D01*
X33876Y431371D01*
X33899Y431363D01*
X33919Y431348D01*
X34013Y431320D01*
X34104Y431285D01*
X34137Y431282D01*
X34153Y431277D01*
X34178Y431278D01*
X34251Y431271D01*
X46168Y431271D01*
X46265Y431287D01*
X46362Y431296D01*
X46384Y431306D01*
X46409Y431310D01*
X46495Y431356D01*
X46584Y431397D01*
X46610Y431418D01*
X46624Y431425D01*
X46641Y431444D01*
X46698Y431490D01*
X49011Y433803D01*
X52989Y433803D01*
X55803Y430989D01*
X55803Y427011D01*
X52989Y424197D01*
X49011Y424197D01*
G37*
%LPD*%
%LPC*%
G36*
X22465Y54990D02*
X22465Y54990D01*
X22461Y55015D01*
X22463Y55039D01*
X22441Y55135D01*
X22425Y55231D01*
X22413Y55253D01*
X22408Y55277D01*
X22356Y55360D01*
X22310Y55446D01*
X22292Y55463D01*
X22279Y55484D01*
X22203Y55546D01*
X22132Y55613D01*
X22110Y55623D01*
X22091Y55639D01*
X21999Y55674D01*
X21910Y55714D01*
X21885Y55717D01*
X21862Y55725D01*
X21715Y55740D01*
X20216Y55740D01*
X20191Y55736D01*
X20167Y55738D01*
X20072Y55716D01*
X19975Y55700D01*
X19953Y55688D01*
X19929Y55683D01*
X19846Y55631D01*
X19760Y55585D01*
X19743Y55567D01*
X19722Y55554D01*
X19660Y55478D01*
X19593Y55407D01*
X19583Y55385D01*
X19567Y55366D01*
X19532Y55274D01*
X19492Y55185D01*
X19490Y55160D01*
X19481Y55137D01*
X19466Y54990D01*
X19466Y54693D01*
X18536Y54878D01*
X17019Y55506D01*
X15655Y56418D01*
X14495Y57579D01*
X13583Y58943D01*
X12955Y60459D01*
X12635Y62068D01*
X12635Y67180D01*
X13178Y67180D01*
X13202Y67184D01*
X13227Y67181D01*
X13322Y67204D01*
X13419Y67219D01*
X13441Y67231D01*
X13465Y67237D01*
X13548Y67288D01*
X13634Y67334D01*
X13651Y67352D01*
X13672Y67365D01*
X13734Y67441D01*
X13801Y67513D01*
X13811Y67535D01*
X13827Y67554D01*
X13861Y67645D01*
X13902Y67735D01*
X13904Y67759D01*
X13913Y67782D01*
X13928Y67929D01*
X13928Y69429D01*
X13924Y69453D01*
X13926Y69477D01*
X13904Y69573D01*
X13888Y69670D01*
X13876Y69691D01*
X13871Y69715D01*
X13819Y69799D01*
X13773Y69885D01*
X13755Y69902D01*
X13742Y69922D01*
X13666Y69985D01*
X13595Y70052D01*
X13572Y70062D01*
X13554Y70077D01*
X13462Y70112D01*
X13373Y70153D01*
X13348Y70155D01*
X13325Y70164D01*
X13178Y70178D01*
X12635Y70178D01*
X12635Y75290D01*
X12955Y76899D01*
X13583Y78415D01*
X13883Y78864D01*
X14384Y79613D01*
X14384Y79614D01*
X14495Y79779D01*
X15655Y80940D01*
X17019Y81852D01*
X18536Y82480D01*
X19466Y82665D01*
X19466Y82190D01*
X19470Y82166D01*
X19468Y82142D01*
X19490Y82046D01*
X19506Y81950D01*
X19518Y81928D01*
X19523Y81904D01*
X19575Y81821D01*
X19621Y81734D01*
X19639Y81718D01*
X19652Y81697D01*
X19728Y81635D01*
X19799Y81568D01*
X19821Y81558D01*
X19840Y81542D01*
X19932Y81507D01*
X20021Y81467D01*
X20046Y81464D01*
X20069Y81456D01*
X20216Y81441D01*
X21715Y81441D01*
X21740Y81445D01*
X21764Y81443D01*
X21860Y81465D01*
X21956Y81481D01*
X21978Y81492D01*
X22002Y81498D01*
X22085Y81550D01*
X22171Y81596D01*
X22188Y81614D01*
X22209Y81627D01*
X22271Y81702D01*
X22338Y81774D01*
X22348Y81796D01*
X22364Y81815D01*
X22399Y81907D01*
X22439Y81996D01*
X22442Y82021D01*
X22450Y82043D01*
X22465Y82190D01*
X22465Y82665D01*
X23396Y82480D01*
X24912Y81852D01*
X26276Y80940D01*
X27437Y79779D01*
X28348Y78415D01*
X28976Y76899D01*
X29296Y75290D01*
X29296Y70178D01*
X28798Y70178D01*
X28774Y70174D01*
X28750Y70177D01*
X28654Y70154D01*
X28558Y70138D01*
X28536Y70127D01*
X28512Y70121D01*
X28429Y70070D01*
X28342Y70023D01*
X28326Y70006D01*
X28305Y69993D01*
X28242Y69917D01*
X28175Y69845D01*
X28165Y69823D01*
X28150Y69804D01*
X28115Y69713D01*
X28075Y69623D01*
X28072Y69599D01*
X28064Y69576D01*
X28049Y69429D01*
X28049Y67929D01*
X28053Y67905D01*
X28051Y67880D01*
X28073Y67785D01*
X28089Y67688D01*
X28100Y67667D01*
X28106Y67643D01*
X28158Y67559D01*
X28204Y67473D01*
X28222Y67456D01*
X28235Y67435D01*
X28310Y67373D01*
X28382Y67306D01*
X28404Y67296D01*
X28423Y67281D01*
X28515Y67246D01*
X28604Y67205D01*
X28628Y67203D01*
X28651Y67194D01*
X28798Y67180D01*
X29296Y67180D01*
X29296Y66938D01*
X29308Y66866D01*
X29311Y66793D01*
X29328Y66746D01*
X29336Y66698D01*
X29371Y66633D01*
X29396Y66564D01*
X29428Y66526D01*
X29451Y66482D01*
X29505Y66432D01*
X29551Y66375D01*
X29593Y66349D01*
X29629Y66316D01*
X29696Y66285D01*
X29758Y66246D01*
X29806Y66235D01*
X29851Y66215D01*
X29924Y66208D01*
X29996Y66191D01*
X30045Y66196D01*
X30094Y66191D01*
X30166Y66207D01*
X30239Y66215D01*
X30284Y66235D01*
X30332Y66246D01*
X30394Y66285D01*
X30461Y66315D01*
X30518Y66362D01*
X30539Y66375D01*
X30550Y66388D01*
X30575Y66409D01*
X32103Y67936D01*
X34125Y68774D01*
X36313Y68774D01*
X38335Y67936D01*
X39882Y66389D01*
X40720Y64367D01*
X40720Y62179D01*
X39882Y60157D01*
X38335Y58610D01*
X36313Y57772D01*
X34125Y57772D01*
X32103Y58610D01*
X30556Y60157D01*
X30393Y60549D01*
X30380Y60570D01*
X30373Y60594D01*
X30316Y60674D01*
X30264Y60757D01*
X30245Y60772D01*
X30231Y60793D01*
X30152Y60849D01*
X30076Y60912D01*
X30053Y60920D01*
X30033Y60935D01*
X29939Y60963D01*
X29847Y60998D01*
X29823Y60998D01*
X29799Y61006D01*
X29701Y61002D01*
X29604Y61006D01*
X29580Y60999D01*
X29555Y60998D01*
X29464Y60963D01*
X29370Y60935D01*
X29350Y60921D01*
X29327Y60912D01*
X29251Y60850D01*
X29172Y60793D01*
X29157Y60773D01*
X29138Y60757D01*
X29086Y60674D01*
X29075Y60658D01*
X29074Y60657D01*
X29073Y60656D01*
X29029Y60595D01*
X29022Y60571D01*
X29009Y60550D01*
X28996Y60506D01*
X28348Y58943D01*
X28198Y58718D01*
X27698Y57969D01*
X27697Y57969D01*
X27437Y57579D01*
X26276Y56418D01*
X24912Y55506D01*
X23396Y54878D01*
X22465Y54693D01*
X22465Y54990D01*
G37*
%LPD*%
%LPC*%
G36*
X177644Y67400D02*
X177644Y67400D01*
X176900Y68145D01*
X176900Y94597D01*
X177644Y95342D01*
X191397Y95342D01*
X192141Y94597D01*
X192141Y68145D01*
X191397Y67400D01*
X177644Y67400D01*
G37*
%LPD*%
G36*
X130140Y467126D02*
X130140Y467126D01*
X130213Y467133D01*
X130258Y467153D01*
X130306Y467164D01*
X130369Y467203D01*
X130436Y467233D01*
X130492Y467280D01*
X130514Y467293D01*
X130524Y467306D01*
X130550Y467327D01*
X130944Y467721D01*
X131250Y467721D01*
X131274Y467725D01*
X131299Y467722D01*
X131394Y467744D01*
X131491Y467760D01*
X131512Y467772D01*
X131536Y467778D01*
X131620Y467829D01*
X131706Y467875D01*
X131723Y467893D01*
X131744Y467906D01*
X131806Y467982D01*
X131873Y468053D01*
X131883Y468076D01*
X131899Y468095D01*
X131933Y468186D01*
X131974Y468276D01*
X131976Y468300D01*
X131985Y468323D01*
X131999Y468470D01*
X131999Y473211D01*
X137309Y478521D01*
X142252Y478521D01*
X142276Y478525D01*
X142301Y478522D01*
X142396Y478544D01*
X142493Y478560D01*
X142514Y478572D01*
X142538Y478578D01*
X142622Y478629D01*
X142708Y478675D01*
X142725Y478693D01*
X142746Y478706D01*
X142808Y478782D01*
X142875Y478853D01*
X142885Y478876D01*
X142901Y478895D01*
X142935Y478986D01*
X142976Y479076D01*
X142978Y479100D01*
X142987Y479123D01*
X143001Y479270D01*
X143001Y479824D01*
X143746Y480569D01*
X152682Y480569D01*
X152706Y480573D01*
X152731Y480570D01*
X152826Y480592D01*
X152923Y480608D01*
X152944Y480620D01*
X152968Y480626D01*
X153052Y480677D01*
X153138Y480723D01*
X153155Y480741D01*
X153176Y480754D01*
X153238Y480830D01*
X153305Y480901D01*
X153315Y480924D01*
X153331Y480943D01*
X153365Y481034D01*
X153406Y481124D01*
X153408Y481148D01*
X153417Y481171D01*
X153431Y481318D01*
X153431Y485470D01*
X153427Y485494D01*
X153430Y485519D01*
X153408Y485614D01*
X153392Y485711D01*
X153380Y485732D01*
X153374Y485756D01*
X153323Y485840D01*
X153277Y485926D01*
X153259Y485943D01*
X153246Y485964D01*
X153170Y486026D01*
X153099Y486093D01*
X153076Y486103D01*
X153057Y486119D01*
X152966Y486153D01*
X152876Y486194D01*
X152852Y486196D01*
X152829Y486205D01*
X152682Y486219D01*
X151794Y486219D01*
X151230Y486783D01*
X151210Y486797D01*
X151194Y486816D01*
X151111Y486868D01*
X151031Y486925D01*
X151008Y486932D01*
X150987Y486945D01*
X150892Y486968D01*
X150798Y486996D01*
X150773Y486995D01*
X150750Y487001D01*
X150652Y486991D01*
X150554Y486988D01*
X150531Y486980D01*
X150507Y486977D01*
X150417Y486937D01*
X150326Y486902D01*
X150307Y486887D01*
X150284Y486877D01*
X150170Y486783D01*
X149606Y486219D01*
X143154Y486219D01*
X142409Y486964D01*
X142409Y494016D01*
X143154Y494761D01*
X143219Y494761D01*
X143292Y494773D01*
X143365Y494775D01*
X143411Y494792D01*
X143460Y494800D01*
X143525Y494835D01*
X143593Y494861D01*
X143632Y494892D01*
X143675Y494915D01*
X143725Y494969D01*
X143782Y495016D01*
X143808Y495058D01*
X143842Y495093D01*
X143872Y495160D01*
X143911Y495223D01*
X143922Y495271D01*
X143943Y495316D01*
X143950Y495389D01*
X143967Y495460D01*
X143962Y495509D01*
X143967Y495559D01*
X143950Y495630D01*
X143943Y495703D01*
X143923Y495748D01*
X143912Y495796D01*
X143873Y495859D01*
X143843Y495926D01*
X143796Y495982D01*
X143783Y496004D01*
X143770Y496014D01*
X143749Y496040D01*
X143279Y496510D01*
X143200Y496567D01*
X143124Y496629D01*
X143101Y496637D01*
X143081Y496652D01*
X142987Y496680D01*
X142896Y496715D01*
X142863Y496718D01*
X142847Y496723D01*
X142822Y496722D01*
X142749Y496729D01*
X139399Y496729D01*
X139350Y496721D01*
X139301Y496723D01*
X139231Y496702D01*
X139158Y496690D01*
X139115Y496666D01*
X139068Y496652D01*
X139008Y496609D01*
X138943Y496575D01*
X138909Y496539D01*
X138869Y496510D01*
X138826Y496450D01*
X138776Y496397D01*
X138756Y496352D01*
X138727Y496312D01*
X138706Y496241D01*
X138675Y496174D01*
X138670Y496125D01*
X138656Y496078D01*
X138658Y496005D01*
X138651Y495931D01*
X138662Y495884D01*
X138664Y495834D01*
X138690Y495766D01*
X138706Y495694D01*
X138732Y495652D01*
X138750Y495606D01*
X138796Y495549D01*
X138835Y495486D01*
X138873Y495455D01*
X138904Y495417D01*
X139023Y495332D01*
X139024Y495332D01*
X139024Y495331D01*
X139159Y495253D01*
X139883Y494529D01*
X140396Y493642D01*
X140661Y492652D01*
X140661Y491839D01*
X136020Y491839D01*
X135996Y491835D01*
X135972Y491838D01*
X135876Y491816D01*
X135779Y491800D01*
X135758Y491788D01*
X135734Y491782D01*
X135651Y491731D01*
X135564Y491685D01*
X135548Y491667D01*
X135527Y491654D01*
X135464Y491578D01*
X135397Y491507D01*
X135387Y491484D01*
X135372Y491465D01*
X135337Y491374D01*
X135297Y491284D01*
X135294Y491260D01*
X135286Y491237D01*
X135271Y491090D01*
X135271Y490639D01*
X134820Y490639D01*
X134796Y490635D01*
X134771Y490637D01*
X134676Y490615D01*
X134579Y490599D01*
X134558Y490588D01*
X134534Y490582D01*
X134450Y490530D01*
X134364Y490484D01*
X134347Y490466D01*
X134326Y490454D01*
X134264Y490378D01*
X134197Y490306D01*
X134187Y490284D01*
X134171Y490265D01*
X134137Y490173D01*
X134096Y490084D01*
X134094Y490060D01*
X134085Y490037D01*
X134071Y489890D01*
X134071Y484949D01*
X133558Y484949D01*
X132568Y485214D01*
X131681Y485727D01*
X130957Y486451D01*
X130892Y486562D01*
X130839Y486627D01*
X130738Y486751D01*
X130641Y486811D01*
X130531Y486880D01*
X130395Y486912D01*
X130293Y486935D01*
X130138Y486920D01*
X130050Y486912D01*
X129917Y486851D01*
X129828Y486811D01*
X129827Y486811D01*
X129714Y486717D01*
X129216Y486219D01*
X124344Y486219D01*
X122809Y487754D01*
X122809Y493226D01*
X124290Y494706D01*
X124347Y494785D01*
X124409Y494861D01*
X124417Y494884D01*
X124432Y494904D01*
X124460Y494998D01*
X124495Y495089D01*
X124498Y495122D01*
X124503Y495138D01*
X124502Y495163D01*
X124509Y495236D01*
X124509Y495980D01*
X124505Y496004D01*
X124508Y496029D01*
X124486Y496124D01*
X124470Y496221D01*
X124458Y496242D01*
X124452Y496266D01*
X124401Y496350D01*
X124355Y496436D01*
X124337Y496453D01*
X124324Y496474D01*
X124248Y496536D01*
X124177Y496603D01*
X124154Y496613D01*
X124135Y496629D01*
X124044Y496663D01*
X123954Y496704D01*
X123930Y496706D01*
X123907Y496715D01*
X123760Y496729D01*
X111251Y496729D01*
X111155Y496713D01*
X111058Y496704D01*
X111035Y496694D01*
X111010Y496690D01*
X110924Y496643D01*
X110835Y496603D01*
X110810Y496582D01*
X110795Y496575D01*
X110778Y496556D01*
X110721Y496510D01*
X110251Y496040D01*
X110208Y495980D01*
X110158Y495926D01*
X110138Y495882D01*
X110109Y495841D01*
X110088Y495771D01*
X110057Y495704D01*
X110052Y495655D01*
X110038Y495608D01*
X110040Y495535D01*
X110033Y495461D01*
X110044Y495413D01*
X110046Y495364D01*
X110072Y495295D01*
X110088Y495224D01*
X110114Y495182D01*
X110132Y495136D01*
X110178Y495079D01*
X110217Y495016D01*
X110255Y494985D01*
X110286Y494947D01*
X110349Y494908D01*
X110406Y494861D01*
X110452Y494844D01*
X110494Y494818D01*
X110565Y494801D01*
X110634Y494775D01*
X110707Y494768D01*
X110731Y494762D01*
X110748Y494764D01*
X110781Y494761D01*
X110916Y494761D01*
X111480Y494197D01*
X111500Y494183D01*
X111516Y494164D01*
X111599Y494112D01*
X111679Y494055D01*
X111702Y494048D01*
X111723Y494035D01*
X111818Y494012D01*
X111912Y493984D01*
X111937Y493985D01*
X111960Y493979D01*
X112058Y493989D01*
X112156Y493992D01*
X112179Y494000D01*
X112203Y494003D01*
X112293Y494043D01*
X112384Y494078D01*
X112403Y494093D01*
X112426Y494103D01*
X112540Y494197D01*
X113104Y494761D01*
X119556Y494761D01*
X120301Y494016D01*
X120301Y486964D01*
X119556Y486219D01*
X119350Y486219D01*
X119326Y486215D01*
X119301Y486218D01*
X119206Y486196D01*
X119109Y486180D01*
X119088Y486168D01*
X119064Y486162D01*
X118980Y486111D01*
X118894Y486065D01*
X118877Y486047D01*
X118856Y486034D01*
X118794Y485958D01*
X118727Y485887D01*
X118717Y485864D01*
X118701Y485845D01*
X118667Y485754D01*
X118626Y485664D01*
X118624Y485640D01*
X118615Y485617D01*
X118601Y485470D01*
X118601Y482921D01*
X118617Y482825D01*
X118626Y482728D01*
X118636Y482705D01*
X118640Y482680D01*
X118686Y482594D01*
X118727Y482505D01*
X118748Y482480D01*
X118755Y482465D01*
X118774Y482448D01*
X118820Y482391D01*
X129271Y471941D01*
X129271Y467857D01*
X129283Y467784D01*
X129285Y467711D01*
X129302Y467665D01*
X129310Y467616D01*
X129345Y467551D01*
X129371Y467482D01*
X129402Y467444D01*
X129425Y467401D01*
X129479Y467350D01*
X129526Y467294D01*
X129568Y467268D01*
X129603Y467234D01*
X129670Y467203D01*
X129733Y467165D01*
X129781Y467153D01*
X129826Y467133D01*
X129899Y467126D01*
X129970Y467109D01*
X130019Y467114D01*
X130069Y467109D01*
X130140Y467126D01*
G37*
G36*
X119494Y126855D02*
X119494Y126855D01*
X119519Y126853D01*
X119614Y126875D01*
X119711Y126891D01*
X119732Y126902D01*
X119756Y126908D01*
X119840Y126960D01*
X119926Y127006D01*
X119943Y127024D01*
X119964Y127036D01*
X120026Y127112D01*
X120093Y127184D01*
X120103Y127206D01*
X120119Y127225D01*
X120153Y127317D01*
X120194Y127406D01*
X120196Y127430D01*
X120205Y127453D01*
X120219Y127600D01*
X120219Y137962D01*
X120215Y137986D01*
X120218Y138010D01*
X120196Y138106D01*
X120180Y138202D01*
X120168Y138224D01*
X120162Y138248D01*
X120111Y138331D01*
X120065Y138418D01*
X120047Y138434D01*
X120034Y138455D01*
X119958Y138517D01*
X119912Y138560D01*
X119926Y138567D01*
X119943Y138585D01*
X119964Y138598D01*
X120026Y138674D01*
X120093Y138746D01*
X120103Y138768D01*
X120119Y138787D01*
X120153Y138878D01*
X120194Y138968D01*
X120196Y138992D01*
X120205Y139015D01*
X120219Y139162D01*
X120219Y144103D01*
X121904Y144103D01*
X122551Y143929D01*
X123130Y143595D01*
X123673Y143052D01*
X123675Y143051D01*
X123676Y143049D01*
X123754Y142994D01*
X123827Y142933D01*
X123851Y142924D01*
X123871Y142910D01*
X123873Y142909D01*
X123875Y142908D01*
X123967Y142881D01*
X124056Y142847D01*
X124089Y142844D01*
X124105Y142839D01*
X124106Y142839D01*
X124109Y142838D01*
X124134Y142839D01*
X124203Y142833D01*
X130736Y142833D01*
X131649Y141920D01*
X131669Y141906D01*
X131684Y141887D01*
X131768Y141835D01*
X131847Y141778D01*
X131871Y141771D01*
X131892Y141758D01*
X131987Y141735D01*
X132081Y141707D01*
X132105Y141708D01*
X132129Y141702D01*
X132227Y141712D01*
X132325Y141715D01*
X132348Y141723D01*
X132372Y141726D01*
X132461Y141766D01*
X132553Y141801D01*
X132572Y141816D01*
X132594Y141826D01*
X132709Y141920D01*
X133059Y142271D01*
X134498Y142271D01*
X134594Y142287D01*
X134691Y142296D01*
X134714Y142306D01*
X134739Y142310D01*
X134825Y142356D01*
X134913Y142397D01*
X134939Y142418D01*
X134954Y142425D01*
X134971Y142444D01*
X135028Y142490D01*
X135273Y142735D01*
X138367Y142735D01*
X138391Y142739D01*
X138415Y142737D01*
X138511Y142759D01*
X138608Y142775D01*
X138629Y142786D01*
X138653Y142792D01*
X138736Y142844D01*
X138823Y142890D01*
X138840Y142908D01*
X138860Y142921D01*
X138923Y142996D01*
X138990Y143068D01*
X139000Y143090D01*
X139015Y143109D01*
X139050Y143201D01*
X139090Y143290D01*
X139093Y143314D01*
X139102Y143337D01*
X139116Y143484D01*
X139116Y161508D01*
X139100Y161605D01*
X139091Y161702D01*
X139080Y161724D01*
X139076Y161749D01*
X139030Y161835D01*
X138990Y161924D01*
X138969Y161950D01*
X138961Y161964D01*
X138943Y161981D01*
X138897Y162038D01*
X135737Y165198D01*
X135657Y165255D01*
X135582Y165317D01*
X135559Y165326D01*
X135538Y165340D01*
X135445Y165369D01*
X135354Y165403D01*
X135321Y165407D01*
X135305Y165411D01*
X135280Y165411D01*
X135207Y165418D01*
X131288Y165418D01*
X131216Y165406D01*
X131142Y165403D01*
X131096Y165386D01*
X131047Y165378D01*
X130983Y165343D01*
X130914Y165318D01*
X130876Y165286D01*
X130832Y165263D01*
X130782Y165210D01*
X130725Y165163D01*
X130699Y165121D01*
X130665Y165085D01*
X130635Y165018D01*
X130596Y164956D01*
X130585Y164908D01*
X130564Y164863D01*
X130557Y164790D01*
X130541Y164718D01*
X130545Y164669D01*
X130540Y164620D01*
X130557Y164548D01*
X130564Y164475D01*
X130585Y164430D01*
X130596Y164382D01*
X130634Y164320D01*
X130665Y164253D01*
X130711Y164196D01*
X130724Y164175D01*
X130731Y164170D01*
X130731Y149114D01*
X129986Y148369D01*
X118934Y148369D01*
X118189Y149114D01*
X118189Y153096D01*
X118185Y153120D01*
X118188Y153145D01*
X118166Y153240D01*
X118150Y153337D01*
X118138Y153358D01*
X118132Y153382D01*
X118081Y153466D01*
X118035Y153552D01*
X118017Y153569D01*
X118004Y153590D01*
X117928Y153652D01*
X117857Y153719D01*
X117834Y153729D01*
X117815Y153745D01*
X117724Y153779D01*
X117634Y153820D01*
X117610Y153822D01*
X117587Y153831D01*
X117440Y153845D01*
X115544Y153845D01*
X115520Y153841D01*
X115495Y153844D01*
X115400Y153822D01*
X115303Y153806D01*
X115282Y153794D01*
X115258Y153788D01*
X115174Y153737D01*
X115088Y153691D01*
X115071Y153673D01*
X115050Y153660D01*
X114988Y153584D01*
X114921Y153513D01*
X114911Y153490D01*
X114895Y153471D01*
X114861Y153380D01*
X114820Y153290D01*
X114818Y153266D01*
X114809Y153243D01*
X114795Y153096D01*
X114795Y144800D01*
X114820Y144645D01*
X114834Y144560D01*
X114834Y144559D01*
X114906Y144426D01*
X114949Y144344D01*
X115047Y144253D01*
X115127Y144177D01*
X115266Y144115D01*
X115349Y144077D01*
X115350Y144077D01*
X115350Y144076D01*
X115507Y144061D01*
X115592Y144052D01*
X115593Y144052D01*
X115593Y144053D01*
X115738Y144076D01*
X115836Y144103D01*
X117521Y144103D01*
X117521Y139162D01*
X117525Y139138D01*
X117522Y139113D01*
X117544Y139018D01*
X117560Y138921D01*
X117572Y138900D01*
X117578Y138876D01*
X117629Y138792D01*
X117675Y138706D01*
X117693Y138689D01*
X117706Y138668D01*
X117782Y138606D01*
X117828Y138563D01*
X117814Y138556D01*
X117797Y138538D01*
X117776Y138525D01*
X117714Y138450D01*
X117647Y138378D01*
X117637Y138356D01*
X117621Y138337D01*
X117587Y138245D01*
X117546Y138156D01*
X117544Y138131D01*
X117535Y138109D01*
X117521Y137962D01*
X117521Y127600D01*
X117525Y127576D01*
X117522Y127552D01*
X117544Y127456D01*
X117560Y127359D01*
X117572Y127338D01*
X117578Y127314D01*
X117629Y127231D01*
X117675Y127144D01*
X117693Y127128D01*
X117706Y127107D01*
X117782Y127044D01*
X117853Y126977D01*
X117876Y126967D01*
X117895Y126952D01*
X117986Y126917D01*
X118076Y126877D01*
X118100Y126874D01*
X118123Y126866D01*
X118270Y126851D01*
X119470Y126851D01*
X119494Y126855D01*
G37*
%LPC*%
G36*
X93477Y406629D02*
X93477Y406629D01*
X93477Y419689D01*
X104152Y419689D01*
X104799Y419516D01*
X105378Y419181D01*
X105851Y418708D01*
X106186Y418129D01*
X106359Y417482D01*
X106359Y406629D01*
X93477Y406629D01*
G37*
%LPD*%
%LPC*%
G36*
X77597Y406629D02*
X77597Y406629D01*
X77597Y417482D01*
X77668Y417747D01*
X77668Y417748D01*
X77770Y418129D01*
X78105Y418708D01*
X78578Y419181D01*
X79157Y419516D01*
X79804Y419689D01*
X90479Y419689D01*
X90479Y406629D01*
X77597Y406629D01*
G37*
%LPD*%
%LPC*%
G36*
X93477Y390571D02*
X93477Y390571D01*
X93477Y403631D01*
X106359Y403631D01*
X106359Y392778D01*
X106186Y392131D01*
X105851Y391552D01*
X105378Y391079D01*
X104799Y390744D01*
X104152Y390571D01*
X93477Y390571D01*
G37*
%LPD*%
%LPC*%
G36*
X79804Y390571D02*
X79804Y390571D01*
X79157Y390744D01*
X78578Y391079D01*
X78105Y391552D01*
X77770Y392131D01*
X77597Y392778D01*
X77597Y403631D01*
X90479Y403631D01*
X90479Y390571D01*
X79804Y390571D01*
G37*
%LPD*%
%LPC*%
G36*
X205690Y82870D02*
X205690Y82870D01*
X205690Y96612D01*
X210875Y96612D01*
X211521Y96439D01*
X212100Y96104D01*
X212574Y95631D01*
X212908Y95052D01*
X213081Y94406D01*
X213081Y82870D01*
X205690Y82870D01*
G37*
%LPD*%
%LPC*%
G36*
X205690Y66130D02*
X205690Y66130D01*
X205690Y79872D01*
X213081Y79872D01*
X213081Y68337D01*
X213054Y68236D01*
X212908Y67690D01*
X212574Y67111D01*
X212100Y66638D01*
X211521Y66304D01*
X210875Y66130D01*
X205690Y66130D01*
G37*
%LPD*%
%LPC*%
G36*
X195300Y82870D02*
X195300Y82870D01*
X195300Y94406D01*
X195473Y95052D01*
X195807Y95631D01*
X196280Y96104D01*
X196860Y96439D01*
X197506Y96612D01*
X202691Y96612D01*
X202691Y82870D01*
X195300Y82870D01*
G37*
%LPD*%
%LPC*%
G36*
X197506Y66130D02*
X197506Y66130D01*
X196860Y66304D01*
X196280Y66638D01*
X195807Y67111D01*
X195473Y67690D01*
X195300Y68337D01*
X195300Y79872D01*
X202691Y79872D01*
X202691Y66130D01*
X197506Y66130D01*
G37*
%LPD*%
%LPC*%
G36*
X11499Y259899D02*
X11499Y259899D01*
X11499Y270250D01*
X12796Y270045D01*
X14583Y269464D01*
X16257Y268611D01*
X17777Y267506D01*
X19106Y266177D01*
X20211Y264657D01*
X21064Y262983D01*
X21645Y261196D01*
X21850Y259899D01*
X11499Y259899D01*
G37*
%LPD*%
%LPC*%
G36*
X11499Y256901D02*
X11499Y256901D01*
X21850Y256901D01*
X21645Y255604D01*
X21064Y253817D01*
X20211Y252143D01*
X19106Y250623D01*
X17777Y249294D01*
X16257Y248189D01*
X14583Y247336D01*
X12796Y246755D01*
X11499Y246550D01*
X11499Y256901D01*
G37*
%LPD*%
%LPC*%
G36*
X236204Y94355D02*
X236204Y94355D01*
X234417Y94936D01*
X232743Y95789D01*
X231223Y96894D01*
X229894Y98223D01*
X228789Y99743D01*
X227936Y101417D01*
X227355Y103204D01*
X227150Y104501D01*
X237501Y104501D01*
X237501Y94150D01*
X236204Y94355D01*
G37*
%LPD*%
%LPC*%
G36*
X22418Y28272D02*
X22418Y28272D01*
X22418Y40759D01*
X23349Y40574D01*
X24865Y39946D01*
X26229Y39034D01*
X27390Y37874D01*
X28302Y36509D01*
X28930Y34993D01*
X29250Y33384D01*
X29250Y28272D01*
X22418Y28272D01*
G37*
%LPD*%
%LPC*%
G36*
X108818Y28272D02*
X108818Y28272D01*
X108818Y40759D01*
X109749Y40574D01*
X111265Y39946D01*
X112629Y39034D01*
X113790Y37874D01*
X114702Y36509D01*
X115330Y34993D01*
X115650Y33384D01*
X115650Y28272D01*
X108818Y28272D01*
G37*
%LPD*%
%LPC*%
G36*
X108818Y25274D02*
X108818Y25274D01*
X115650Y25274D01*
X115650Y20163D01*
X115330Y18553D01*
X114702Y17037D01*
X114517Y16760D01*
X114016Y16011D01*
X113790Y15673D01*
X112629Y14512D01*
X111265Y13601D01*
X109749Y12973D01*
X108818Y12787D01*
X108818Y25274D01*
G37*
%LPD*%
%LPC*%
G36*
X22418Y25274D02*
X22418Y25274D01*
X29250Y25274D01*
X29250Y20163D01*
X28930Y18553D01*
X28302Y17037D01*
X28117Y16760D01*
X27616Y16011D01*
X27390Y15673D01*
X26229Y14512D01*
X24865Y13601D01*
X23349Y12973D01*
X22418Y12787D01*
X22418Y25274D01*
G37*
%LPD*%
%LPC*%
G36*
X12588Y28272D02*
X12588Y28272D01*
X12588Y33384D01*
X12908Y34993D01*
X13536Y36509D01*
X13802Y36906D01*
X14302Y37655D01*
X14302Y37656D01*
X14448Y37874D01*
X15609Y39034D01*
X16973Y39946D01*
X18489Y40574D01*
X19420Y40759D01*
X19420Y28272D01*
X12588Y28272D01*
G37*
%LPD*%
%LPC*%
G36*
X98988Y28272D02*
X98988Y28272D01*
X98988Y33384D01*
X99308Y34993D01*
X99936Y36509D01*
X100202Y36906D01*
X100702Y37655D01*
X100702Y37656D01*
X100848Y37874D01*
X102009Y39034D01*
X103373Y39946D01*
X104889Y40574D01*
X105820Y40759D01*
X105820Y28272D01*
X98988Y28272D01*
G37*
%LPD*%
%LPC*%
G36*
X18489Y12973D02*
X18489Y12973D01*
X16973Y13601D01*
X15609Y14512D01*
X14448Y15673D01*
X13536Y17037D01*
X12908Y18553D01*
X12588Y20163D01*
X12588Y25274D01*
X19420Y25274D01*
X19420Y12787D01*
X18489Y12973D01*
G37*
%LPD*%
%LPC*%
G36*
X104889Y12973D02*
X104889Y12973D01*
X103373Y13601D01*
X102009Y14512D01*
X100848Y15673D01*
X99936Y17037D01*
X99308Y18553D01*
X98988Y20163D01*
X98988Y25274D01*
X105820Y25274D01*
X105820Y12787D01*
X104889Y12973D01*
G37*
%LPD*%
%LPC*%
G36*
X157201Y439649D02*
X157201Y439649D01*
X157201Y443739D01*
X167466Y443739D01*
X168113Y443566D01*
X168692Y443231D01*
X169165Y442758D01*
X169500Y442179D01*
X169673Y441532D01*
X169673Y439649D01*
X157201Y439649D01*
G37*
%LPD*%
%LPC*%
G36*
X141731Y439649D02*
X141731Y439649D01*
X141731Y441532D01*
X141904Y442179D01*
X142239Y442758D01*
X142712Y443231D01*
X143291Y443566D01*
X143938Y443739D01*
X154203Y443739D01*
X154203Y439649D01*
X141731Y439649D01*
G37*
%LPD*%
%LPC*%
G36*
X143938Y432561D02*
X143938Y432561D01*
X143291Y432734D01*
X142712Y433069D01*
X142239Y433542D01*
X141904Y434121D01*
X141731Y434768D01*
X141731Y436651D01*
X154203Y436651D01*
X154203Y432561D01*
X143938Y432561D01*
G37*
%LPD*%
%LPC*%
G36*
X157201Y432561D02*
X157201Y432561D01*
X157201Y436651D01*
X169673Y436651D01*
X169673Y434768D01*
X169633Y434620D01*
X169633Y434619D01*
X169500Y434121D01*
X169165Y433542D01*
X168692Y433069D01*
X168113Y432734D01*
X167466Y432561D01*
X157201Y432561D01*
G37*
%LPD*%
%LPC*%
G36*
X135144Y445409D02*
X135144Y445409D01*
X135144Y448826D01*
X139611Y448826D01*
X139611Y447616D01*
X139438Y446969D01*
X139103Y446390D01*
X138630Y445917D01*
X138051Y445582D01*
X137404Y445409D01*
X135144Y445409D01*
G37*
%LPD*%
%LPC*%
G36*
X131136Y445409D02*
X131136Y445409D01*
X130489Y445582D01*
X129910Y445917D01*
X129437Y446390D01*
X129102Y446969D01*
X128929Y447616D01*
X128929Y448826D01*
X133396Y448826D01*
X133396Y445409D01*
X131136Y445409D01*
G37*
%LPD*%
%LPC*%
G36*
X136769Y484949D02*
X136769Y484949D01*
X136769Y489141D01*
X140661Y489141D01*
X140661Y488328D01*
X140396Y487338D01*
X139883Y486451D01*
X139159Y485727D01*
X138272Y485214D01*
X137282Y484949D01*
X136769Y484949D01*
G37*
%LPD*%
%LPC*%
G36*
X107318Y26772D02*
X107318Y26772D01*
X107318Y26774D01*
X107320Y26774D01*
X107320Y26772D01*
X107318Y26772D01*
G37*
%LPD*%
%LPC*%
G36*
X20918Y26772D02*
X20918Y26772D01*
X20918Y26774D01*
X20920Y26774D01*
X20920Y26772D01*
X20918Y26772D01*
G37*
%LPD*%
%LPC*%
G36*
X155701Y438149D02*
X155701Y438149D01*
X155701Y438151D01*
X155703Y438151D01*
X155703Y438149D01*
X155701Y438149D01*
G37*
%LPD*%
%LPC*%
G36*
X91977Y405129D02*
X91977Y405129D01*
X91977Y405131D01*
X91979Y405131D01*
X91979Y405129D01*
X91977Y405129D01*
G37*
%LPD*%
%LPC*%
G36*
X204190Y81370D02*
X204190Y81370D01*
X204190Y81372D01*
X204191Y81372D01*
X204191Y81370D01*
X204190Y81370D01*
G37*
%LPD*%
D10*
X20919Y20983D02*
X20919Y32563D01*
X107319Y32563D02*
X107319Y20983D01*
X20966Y62889D02*
X20966Y74469D01*
X107295Y74367D02*
X107295Y62787D01*
X20988Y62800D02*
X20988Y74380D01*
X107300Y74436D02*
X107300Y62856D01*
D11*
X10000Y106000D03*
X10000Y131400D03*
X10000Y156800D03*
X10000Y182200D03*
X10000Y207600D03*
X10000Y233000D03*
X10000Y258400D03*
X10000Y283800D03*
X10000Y309200D03*
X10000Y334600D03*
X10000Y360000D03*
X10000Y385400D03*
X10000Y410800D03*
X10000Y436200D03*
X10000Y461600D03*
X10000Y487000D03*
X239000Y106000D03*
X239000Y131400D03*
X239000Y156800D03*
X239000Y182200D03*
X239000Y207600D03*
X239000Y233000D03*
X239000Y258400D03*
X239000Y283800D03*
X239000Y309200D03*
X239000Y334600D03*
X239000Y360000D03*
X239000Y385400D03*
X239000Y410800D03*
X239000Y436200D03*
X239000Y461600D03*
X239000Y487000D03*
D12*
X154402Y405130D03*
X91978Y405130D03*
D13*
X124460Y156640D03*
X133960Y178640D03*
X114960Y178640D03*
D14*
X160691Y139686D03*
X160691Y133082D03*
X160691Y126478D03*
X141387Y126478D03*
X141387Y133082D03*
X141387Y139686D03*
D15*
X118870Y138562D03*
X127510Y138562D03*
X118870Y127000D03*
X127510Y127000D03*
D16*
X124119Y195242D02*
X119357Y195242D01*
X119357Y200004D01*
X124119Y200004D01*
X124119Y195242D01*
X124119Y196751D02*
X119357Y196751D01*
X119357Y198260D02*
X124119Y198260D01*
X124119Y199769D02*
X119357Y199769D01*
X132057Y195242D02*
X136819Y195242D01*
X132057Y195242D02*
X132057Y200004D01*
X136819Y200004D01*
X136819Y195242D01*
X136819Y196751D02*
X132057Y196751D01*
X132057Y198260D02*
X136819Y198260D01*
X136819Y199769D02*
X132057Y199769D01*
D17*
X134438Y197623D02*
X121738Y197623D01*
D18*
X155702Y476250D03*
X88138Y476250D03*
X155702Y463550D03*
X155702Y450850D03*
X88138Y463550D03*
X88138Y450850D03*
X155702Y438150D03*
X88138Y438150D03*
D15*
X146380Y490490D03*
X155020Y490490D03*
D19*
X136770Y492140D02*
X134070Y492140D01*
X136770Y492140D02*
X136770Y488840D01*
X134070Y488840D01*
X134070Y492140D01*
X134070Y491405D02*
X136770Y491405D01*
X128130Y492140D02*
X125430Y492140D01*
X128130Y492140D02*
X128130Y488840D01*
X125430Y488840D01*
X125430Y492140D01*
X125430Y491405D02*
X128130Y491405D01*
D15*
X96270Y490490D03*
X87630Y490490D03*
X116330Y490490D03*
X107690Y490490D03*
D20*
X134270Y464700D03*
X134270Y459700D03*
X134270Y454700D03*
X134270Y449700D03*
X109570Y449700D03*
X109570Y454700D03*
X109570Y459700D03*
X109570Y464700D03*
D21*
X121920Y457200D03*
D22*
X204190Y81371D03*
X184521Y81371D03*
D23*
X50000Y55000D03*
X43000Y188000D03*
X60000Y202000D03*
X35000Y115000D03*
X144000Y298000D03*
X182000Y236000D03*
X62000Y506000D03*
X77000Y506000D03*
X93000Y506000D03*
X109000Y506000D03*
X126000Y506000D03*
X145000Y506000D03*
X163000Y506000D03*
X183000Y506000D03*
X184000Y319000D03*
X184000Y301000D03*
X43000Y27000D03*
X85000Y27000D03*
X5000Y51000D03*
X5000Y36000D03*
X5000Y21000D03*
X243000Y85000D03*
X243000Y54000D03*
X243000Y38000D03*
X243000Y22730D03*
X243000Y71000D03*
X44000Y506000D03*
X181000Y133000D03*
X50000Y263000D03*
X13000Y9000D03*
X27000Y6000D03*
X40000Y6000D03*
X54000Y6000D03*
X68000Y6000D03*
X82000Y6000D03*
X98000Y6000D03*
X114000Y6000D03*
X174000Y6000D03*
X192000Y6000D03*
X210000Y6000D03*
X208000Y301000D03*
X207000Y506000D03*
X5000Y65000D03*
X223000Y111000D03*
X117800Y299400D03*
X36700Y286700D03*
X209550Y199390D03*
X196600Y156100D03*
X222600Y167700D03*
X172000Y164800D03*
X154900Y154300D03*
X146100Y97300D03*
X70300Y94300D03*
X66000Y187100D03*
X72800Y143500D03*
X5000Y78970D03*
X156772Y191496D03*
X135000Y147000D03*
X93800Y172500D03*
X204441Y81447D03*
X204388Y90236D03*
X204366Y72814D03*
X134294Y438505D03*
X135327Y482244D03*
X159965Y19664D03*
X228479Y18860D03*
X104000Y371000D03*
X142000Y371000D03*
X173000Y429000D03*
X104000Y339000D03*
X142000Y339000D03*
X124000Y371000D03*
X124000Y339000D03*
X194000Y423000D03*
X194000Y449000D03*
X194000Y475000D03*
X132000Y236000D03*
X142000Y327000D03*
D24*
X132000Y317000D01*
X132000Y236000D01*
D23*
X154000Y235000D03*
D24*
X145000Y235000D01*
X135524Y244476D01*
X141000Y320000D02*
X149000Y320000D01*
X152000Y323000D01*
X135524Y314524D02*
X135524Y244476D01*
X135524Y314524D02*
X141000Y320000D01*
D23*
X155000Y350000D03*
D24*
X152000Y347000D01*
X152000Y323000D01*
D23*
X161000Y84000D03*
X217100Y145000D03*
X217400Y137500D03*
X217600Y129600D03*
X224500Y145100D03*
X224600Y137200D03*
X224700Y129500D03*
D25*
X224600Y137200D02*
X224600Y145000D01*
X224500Y145100D01*
X224600Y145000D02*
X217100Y145000D01*
X224600Y145000D02*
X224900Y144700D01*
X217400Y144700D02*
X217100Y145000D01*
X217400Y144700D02*
X217400Y137500D01*
X217600Y137200D02*
X224600Y137200D01*
X217600Y137300D02*
X217400Y137500D01*
X217600Y137300D02*
X217600Y137200D01*
X217600Y129600D01*
X217700Y129500D02*
X224700Y129500D01*
X217700Y129500D02*
X217600Y129600D01*
X224600Y129600D02*
X224600Y137200D01*
X224600Y129600D02*
X224700Y129500D01*
X216300Y129300D02*
X216300Y145800D01*
X216300Y129300D02*
X216400Y129200D01*
X224200Y129200D01*
X224200Y144800D02*
X224500Y145100D01*
X223800Y145800D01*
X216300Y145800D01*
D24*
X208844Y155444D02*
X208844Y121546D01*
X208000Y119373D02*
X238835Y119373D01*
X242000Y122538D01*
X242000Y134000D01*
X220556Y155444D01*
X208844Y155444D01*
D26*
X208844Y121546D02*
X180438Y121546D01*
X161000Y102108D02*
X161000Y84000D01*
X161000Y102108D02*
X180438Y121546D01*
D23*
X184273Y81817D03*
X184256Y90330D03*
X184407Y72949D03*
D24*
X184521Y73063D02*
X184521Y81371D01*
X184521Y73063D02*
X184407Y72949D01*
X184521Y81371D02*
X184521Y81569D01*
X184273Y81817D01*
D23*
X62000Y65000D03*
X75000Y64000D03*
D24*
X63000Y64000D01*
X62000Y65000D01*
D23*
X51000Y429000D03*
D24*
X33000Y429000D01*
X26000Y436000D01*
X26000Y492000D01*
X32000Y498000D01*
D23*
X32000Y498000D03*
D24*
X134270Y459700D02*
X143700Y459700D01*
X147550Y463550D02*
X155702Y463550D01*
X147550Y463550D02*
X143700Y459700D01*
D23*
X174000Y464000D03*
D24*
X156152Y464000D02*
X155702Y463550D01*
X156152Y464000D02*
X174000Y464000D01*
X105150Y438150D02*
X88138Y438150D01*
X109570Y442570D02*
X109570Y449700D01*
X109570Y442570D02*
X105150Y438150D01*
X88138Y438150D02*
X79150Y438150D01*
X72000Y431000D01*
D23*
X72000Y431000D03*
D24*
X100700Y454700D02*
X109570Y454700D01*
X96850Y450850D02*
X88138Y450850D01*
X96850Y450850D02*
X100700Y454700D01*
D23*
X51000Y403000D03*
D24*
X57000Y403000D01*
X64000Y443000D02*
X72000Y451000D01*
X87988Y451000D01*
X88138Y450850D01*
X64000Y410000D02*
X57000Y403000D01*
X64000Y410000D02*
X64000Y443000D01*
X90473Y198390D02*
X83624Y191540D01*
X113524Y210934D02*
X113524Y257460D01*
X62460Y266524D02*
X59492Y269492D01*
X61056Y356492D02*
X61056Y361509D01*
X56000Y366565D02*
X56000Y375000D01*
X56000Y366565D02*
X61056Y361509D01*
X59492Y354927D02*
X59492Y269492D01*
X59492Y354927D02*
X61056Y356492D01*
X90473Y198390D02*
X100979Y198390D01*
X113524Y210934D01*
X113524Y257460D02*
X104460Y266524D01*
X62460Y266524D01*
D23*
X56000Y375000D03*
D24*
X83624Y191540D02*
X83624Y148276D01*
X87600Y144300D01*
D23*
X105100Y144300D03*
D24*
X87600Y144300D01*
D23*
X192000Y236000D03*
X175000Y340000D03*
D24*
X175556Y252444D02*
X192000Y236000D01*
X175556Y339444D02*
X175000Y340000D01*
X175556Y339444D02*
X175556Y252444D01*
D23*
X103000Y249000D03*
D24*
X13000Y236000D02*
X10000Y233000D01*
X13000Y236000D02*
X20938Y236000D01*
X94524Y240524D02*
X103000Y249000D01*
X25462Y240524D02*
X20938Y236000D01*
X25462Y240524D02*
X94524Y240524D01*
D23*
X103000Y237000D03*
D24*
X21922Y219522D02*
X10000Y207600D01*
X21922Y219522D02*
X21922Y232000D01*
X26922Y237000D01*
X103000Y237000D01*
D23*
X103000Y224000D03*
D24*
X21922Y194122D02*
X10000Y182200D01*
X25446Y218062D02*
X25446Y229922D01*
X29000Y233476D01*
X95000Y233476D01*
X103000Y225476D01*
X103000Y224000D01*
X25446Y218062D02*
X21922Y214538D01*
X21922Y194122D01*
D23*
X103182Y215100D03*
D24*
X10000Y165340D02*
X10000Y156800D01*
X10000Y165340D02*
X25446Y180786D01*
X25446Y213079D01*
X28970Y216603D01*
X28970Y227000D01*
X31922Y229952D01*
X92048Y229952D02*
X95000Y227000D01*
X95000Y219463D01*
X99363Y215100D01*
X103182Y215100D01*
X92048Y229952D02*
X31922Y229952D01*
X134270Y464700D02*
X134270Y472270D01*
X138250Y476250D02*
X155702Y476250D01*
X138250Y476250D02*
X134270Y472270D01*
X182000Y470000D02*
X182000Y393000D01*
X168056Y379056D01*
X168056Y340613D02*
X161556Y334113D01*
X168056Y340613D02*
X168056Y379056D01*
D23*
X165000Y313000D03*
D24*
X161556Y316444D01*
X161556Y334113D01*
X155702Y489808D02*
X155020Y490490D01*
X155702Y489808D02*
X155702Y476250D01*
X175750Y476250D01*
X182000Y470000D01*
X88796Y202096D02*
X79900Y193200D01*
X88796Y202096D02*
X99261Y202096D01*
X110000Y212834D01*
X103000Y263000D02*
X61000Y263000D01*
X55000Y269000D01*
X55000Y359000D01*
X110000Y256000D02*
X110000Y212834D01*
X110000Y256000D02*
X103000Y263000D01*
D23*
X55000Y359000D03*
D24*
X79900Y147016D02*
X86340Y140576D01*
X79900Y147016D02*
X79900Y193200D01*
D23*
X105400Y135500D03*
D24*
X102592Y138244D02*
X100260Y140576D01*
X102592Y138244D02*
X102656Y138244D01*
X105400Y135500D01*
X100260Y140576D02*
X86340Y140576D01*
D23*
X48000Y153000D03*
X88300Y94100D03*
X148000Y73000D03*
D24*
X53452Y153000D02*
X48000Y153000D01*
X53452Y153000D02*
X58420Y148032D01*
X81900Y94100D02*
X88300Y94100D01*
X76000Y100000D02*
X76000Y111436D01*
X58420Y129016D02*
X58420Y148032D01*
X76000Y100000D02*
X81900Y94100D01*
X76000Y111436D02*
X58420Y129016D01*
X121310Y73000D02*
X148000Y73000D01*
X121310Y73000D02*
X116840Y77470D01*
X116840Y90170D01*
X112910Y94100D01*
X88300Y94100D01*
D23*
X69000Y213000D03*
D27*
X164000Y304000D02*
X171000Y297000D01*
X164000Y304000D02*
X156000Y304000D01*
D23*
X156000Y304000D03*
D28*
X69000Y213000D02*
X32940Y213000D01*
X29240Y209300D01*
X29240Y179214D01*
X22192Y172166D02*
X22192Y151750D01*
X10000Y139558D02*
X10000Y131400D01*
X10000Y139558D02*
X22192Y151750D01*
X22192Y172166D02*
X29240Y179214D01*
X133960Y178640D02*
X135320Y180000D01*
D27*
X140294Y227851D02*
X165561Y227851D01*
X171000Y233291D01*
X171000Y297000D01*
D24*
X160691Y139686D02*
X154334Y139686D01*
X145441Y148579D01*
X145441Y167159D02*
X133960Y178640D01*
X145441Y167159D02*
X145441Y148579D01*
D27*
X135320Y180000D02*
X134438Y180882D01*
X134438Y197623D01*
X134438Y221995D01*
X140294Y227851D01*
X156000Y304000D02*
X157000Y305000D01*
X157000Y336000D01*
X154402Y386598D02*
X154402Y405130D01*
X163500Y377500D02*
X163500Y342500D01*
X163500Y377500D02*
X154402Y386598D01*
X163500Y342500D02*
X157000Y336000D01*
D24*
X109570Y464700D02*
X109000Y465270D01*
X109570Y464700D02*
X115300Y464700D01*
X117000Y463000D01*
X117000Y432000D01*
X124000Y425000D01*
X154402Y419598D02*
X154402Y405130D01*
X149000Y425000D02*
X124000Y425000D01*
X149000Y425000D02*
X154402Y419598D01*
X107690Y490490D02*
X96270Y490490D01*
X107690Y490490D02*
X107690Y496690D01*
X110000Y499000D01*
X127000Y499000D01*
X144000Y499000D01*
X146380Y496620D02*
X146380Y490490D01*
X146380Y496620D02*
X144000Y499000D01*
X126780Y498780D02*
X126780Y490490D01*
X126780Y498780D02*
X127000Y499000D01*
X110000Y465130D02*
X109570Y464700D01*
X88388Y476000D02*
X88138Y476250D01*
X107538Y476000D02*
X107690Y476000D01*
X107538Y476000D02*
X88388Y476000D01*
X109570Y474120D02*
X109570Y464700D01*
X109570Y474120D02*
X107690Y476000D01*
X107690Y476152D02*
X107690Y490490D01*
X107690Y476152D02*
X107538Y476000D01*
D23*
X78000Y55000D03*
D24*
X82000Y59000D01*
X82000Y80000D01*
X89000Y87000D01*
X108000Y87000D01*
D23*
X108000Y87000D03*
X152000Y43000D03*
X226000Y84000D03*
D24*
X158000Y43000D02*
X152000Y43000D01*
X158000Y43000D02*
X164000Y37000D01*
X221000Y37000D01*
X226000Y42000D01*
X226000Y84000D01*
D23*
X85430Y130202D03*
D25*
X92798Y130202D01*
X104000Y119000D01*
X112000Y119000D01*
X124460Y156640D02*
X124100Y157000D01*
X141387Y126478D02*
X141387Y121387D01*
X139000Y119000D02*
X112000Y119000D01*
X139000Y119000D02*
X141387Y121387D01*
X112000Y157000D02*
X102444Y166556D01*
X102444Y189021D01*
X112000Y157000D02*
X112000Y119000D01*
X102444Y189021D02*
X111046Y197623D01*
X121738Y197623D01*
X124460Y156640D02*
X112360Y156640D01*
X112000Y157000D01*
D23*
X123000Y82000D03*
D24*
X120364Y84636D01*
X120364Y91630D01*
X113994Y98000D01*
X97000Y98000D01*
X85430Y109570D01*
X85430Y130202D01*
X134082Y133082D02*
X141387Y133082D01*
X134082Y133082D02*
X133000Y132000D01*
X133000Y128000D01*
X132000Y127000D01*
X127510Y127000D01*
D28*
X141387Y133082D02*
X160691Y133082D01*
D24*
X160691Y126478D01*
X127948Y139000D02*
X127510Y138562D01*
X127948Y139000D02*
X133000Y139000D01*
X134000Y140000D01*
X141073Y140000D01*
X141387Y139686D01*
X141387Y162759D01*
X124336Y167689D02*
X114960Y177065D01*
X114960Y178640D01*
X136458Y167689D02*
X141387Y162759D01*
X136458Y167689D02*
X124336Y167689D01*
X109570Y459700D02*
X109270Y460000D01*
X100000Y460000D02*
X96000Y464000D01*
X88588Y464000D01*
X88138Y463550D01*
X100000Y460000D02*
X109270Y460000D01*
X88138Y463550D02*
X71450Y463550D01*
X68000Y467000D01*
X68000Y486000D01*
X72490Y490490D02*
X87630Y490490D01*
X72490Y490490D02*
X68000Y486000D01*
X134270Y454700D02*
X143300Y454700D01*
X147150Y450850D02*
X155702Y450850D01*
X147150Y450850D02*
X143300Y454700D01*
X116330Y481670D02*
X116330Y490490D01*
X127000Y471000D02*
X127000Y458000D01*
X130300Y454700D01*
X134270Y454700D01*
X127000Y471000D02*
X116330Y481670D01*
M02*
