G04 EAGLE Gerber RS-274X export*
G75*
%MOMM*%
%FSLAX34Y34*%
%LPD*%
%IN*%
%IPPOS*%
%AMOC8*
5,1,8,0,0,1.08239X$1,22.5*%
G01*
%ADD10C,0.254000*%


D10*
X-2000Y23000D02*
X-2091Y21075D01*
X-2013Y19149D01*
X-1768Y17238D01*
X-1357Y15355D01*
X-784Y13515D01*
X-53Y11732D01*
X831Y10020D01*
X1861Y8391D01*
X3029Y6858D01*
X4327Y5433D01*
X5743Y4126D01*
X7268Y2947D01*
X8890Y1906D01*
X10596Y1011D01*
X12374Y267D01*
X14210Y-318D01*
X16090Y-742D01*
X18000Y-1000D01*
X19925Y-1091D01*
X21851Y-1013D01*
X22000Y-1000D01*
X230000Y-1000D01*
X231750Y-1015D01*
X233495Y-876D01*
X235221Y-587D01*
X236915Y-148D01*
X238565Y437D01*
X240157Y1164D01*
X241680Y2026D01*
X243122Y3018D01*
X244472Y4132D01*
X245720Y5359D01*
X246856Y6691D01*
X247872Y8116D01*
X248759Y9625D01*
X249512Y11205D01*
X250124Y12844D01*
X250591Y14531D01*
X250909Y16252D01*
X251000Y17000D01*
X251000Y547000D01*
X251129Y548967D01*
X251086Y550938D01*
X250871Y552897D01*
X250486Y554830D01*
X249935Y556722D01*
X249220Y558559D01*
X248348Y560327D01*
X247325Y562012D01*
X246160Y563602D01*
X244860Y565084D01*
X243436Y566447D01*
X241899Y567680D01*
X240260Y568775D01*
X238532Y569723D01*
X236728Y570517D01*
X234861Y571150D01*
X232946Y571619D01*
X230998Y571918D01*
X229031Y572047D01*
X227061Y572004D01*
X227000Y572000D01*
X212000Y572000D01*
X212000Y512000D01*
X37000Y512000D01*
X37000Y572000D01*
X22000Y572000D01*
X20030Y572049D01*
X18062Y571927D01*
X16113Y571633D01*
X14197Y571170D01*
X12329Y570543D01*
X10522Y569755D01*
X8791Y568812D01*
X7148Y567722D01*
X5607Y566493D01*
X4179Y565135D01*
X2875Y563657D01*
X1704Y562071D01*
X676Y560389D01*
X-201Y558624D01*
X-921Y556789D01*
X-1479Y554899D01*
X-1869Y552967D01*
X-2000Y552000D01*
X-2000Y23000D01*
X104069Y23773D02*
X104081Y23490D01*
X104118Y23209D01*
X104180Y22932D01*
X104265Y22662D01*
X104374Y22400D01*
X104504Y22148D01*
X104657Y21909D01*
X104829Y21684D01*
X105021Y21475D01*
X105230Y21284D01*
X105455Y21111D01*
X105694Y20959D01*
X105946Y20828D01*
X106207Y20719D01*
X106478Y20634D01*
X106755Y20573D01*
X107036Y20536D01*
X107319Y20523D01*
X107602Y20536D01*
X107883Y20573D01*
X108160Y20634D01*
X108431Y20719D01*
X108693Y20828D01*
X108944Y20959D01*
X109183Y21111D01*
X109408Y21284D01*
X109617Y21475D01*
X109809Y21684D01*
X109981Y21909D01*
X110134Y22148D01*
X110265Y22400D01*
X110373Y22662D01*
X110458Y22932D01*
X110520Y23209D01*
X110557Y23490D01*
X110569Y23773D01*
X110569Y29773D01*
X110557Y30056D01*
X110520Y30338D01*
X110458Y30614D01*
X110373Y30885D01*
X110265Y31147D01*
X110134Y31398D01*
X109981Y31637D01*
X109809Y31862D01*
X109617Y32071D01*
X109408Y32263D01*
X109183Y32435D01*
X108944Y32588D01*
X108693Y32719D01*
X108431Y32827D01*
X108160Y32912D01*
X107883Y32974D01*
X107602Y33011D01*
X107319Y33023D01*
X107036Y33011D01*
X106755Y32974D01*
X106478Y32912D01*
X106207Y32827D01*
X105946Y32719D01*
X105694Y32588D01*
X105455Y32435D01*
X105230Y32263D01*
X105021Y32071D01*
X104829Y31862D01*
X104657Y31637D01*
X104504Y31398D01*
X104374Y31147D01*
X104265Y30885D01*
X104180Y30614D01*
X104118Y30338D01*
X104081Y30056D01*
X104069Y29773D01*
X104069Y23773D01*
X17669Y23773D02*
X17681Y23490D01*
X17718Y23209D01*
X17780Y22932D01*
X17865Y22662D01*
X17974Y22400D01*
X18104Y22148D01*
X18257Y21909D01*
X18429Y21684D01*
X18621Y21475D01*
X18830Y21284D01*
X19055Y21111D01*
X19294Y20959D01*
X19546Y20828D01*
X19807Y20719D01*
X20078Y20634D01*
X20355Y20573D01*
X20636Y20536D01*
X20919Y20523D01*
X21202Y20536D01*
X21483Y20573D01*
X21760Y20634D01*
X22031Y20719D01*
X22293Y20828D01*
X22544Y20959D01*
X22783Y21111D01*
X23008Y21284D01*
X23217Y21475D01*
X23409Y21684D01*
X23581Y21909D01*
X23734Y22148D01*
X23865Y22400D01*
X23973Y22662D01*
X24058Y22932D01*
X24120Y23209D01*
X24157Y23490D01*
X24169Y23773D01*
X24169Y29773D01*
X24157Y30056D01*
X24120Y30338D01*
X24058Y30614D01*
X23973Y30885D01*
X23865Y31147D01*
X23734Y31398D01*
X23581Y31637D01*
X23409Y31862D01*
X23217Y32071D01*
X23008Y32263D01*
X22783Y32435D01*
X22544Y32588D01*
X22293Y32719D01*
X22031Y32827D01*
X21760Y32912D01*
X21483Y32974D01*
X21202Y33011D01*
X20919Y33023D01*
X20636Y33011D01*
X20355Y32974D01*
X20078Y32912D01*
X19807Y32827D01*
X19546Y32719D01*
X19294Y32588D01*
X19055Y32435D01*
X18830Y32263D01*
X18621Y32071D01*
X18429Y31862D01*
X18257Y31637D01*
X18104Y31398D01*
X17974Y31147D01*
X17865Y30885D01*
X17780Y30614D01*
X17718Y30338D01*
X17681Y30056D01*
X17669Y29773D01*
X17669Y23773D01*
X104055Y63134D02*
X104067Y62851D01*
X104104Y62570D01*
X104165Y62293D01*
X104251Y62022D01*
X104359Y61761D01*
X104490Y61509D01*
X104642Y61270D01*
X104815Y61045D01*
X105007Y60836D01*
X105216Y60644D01*
X105441Y60472D01*
X105680Y60319D01*
X105931Y60189D01*
X106193Y60080D01*
X106463Y59995D01*
X106740Y59933D01*
X107021Y59896D01*
X107305Y59884D01*
X107588Y59896D01*
X107869Y59933D01*
X108146Y59995D01*
X108416Y60080D01*
X108678Y60189D01*
X108930Y60319D01*
X109169Y60472D01*
X109394Y60644D01*
X109603Y60836D01*
X109794Y61045D01*
X109967Y61270D01*
X110119Y61509D01*
X110250Y61761D01*
X110359Y62022D01*
X110444Y62293D01*
X110505Y62570D01*
X110542Y62851D01*
X110555Y63134D01*
X110555Y74134D01*
X110542Y74417D01*
X110505Y74698D01*
X110444Y74975D01*
X110359Y75246D01*
X110250Y75508D01*
X110119Y75759D01*
X109967Y75998D01*
X109794Y76223D01*
X109603Y76432D01*
X109394Y76624D01*
X109169Y76796D01*
X108930Y76949D01*
X108678Y77080D01*
X108416Y77188D01*
X108146Y77273D01*
X107869Y77335D01*
X107588Y77372D01*
X107305Y77384D01*
X107021Y77372D01*
X106740Y77335D01*
X106463Y77273D01*
X106193Y77188D01*
X105931Y77080D01*
X105680Y76949D01*
X105441Y76796D01*
X105216Y76624D01*
X105007Y76432D01*
X104815Y76223D01*
X104642Y75998D01*
X104490Y75759D01*
X104359Y75508D01*
X104251Y75246D01*
X104165Y74975D01*
X104104Y74698D01*
X104067Y74417D01*
X104055Y74134D01*
X104055Y63134D01*
X17691Y63128D02*
X17704Y62844D01*
X17741Y62563D01*
X17802Y62286D01*
X17887Y62016D01*
X17996Y61754D01*
X18127Y61503D01*
X18279Y61263D01*
X18452Y61038D01*
X18643Y60829D01*
X18852Y60638D01*
X19077Y60465D01*
X19316Y60313D01*
X19568Y60182D01*
X19830Y60074D01*
X20100Y59988D01*
X20377Y59927D01*
X20658Y59890D01*
X20941Y59878D01*
X21225Y59890D01*
X21506Y59927D01*
X21783Y59988D01*
X22053Y60074D01*
X22315Y60182D01*
X22566Y60313D01*
X22806Y60465D01*
X23031Y60638D01*
X23240Y60829D01*
X23431Y61038D01*
X23604Y61263D01*
X23756Y61503D01*
X23887Y61754D01*
X23995Y62016D01*
X24081Y62286D01*
X24142Y62563D01*
X24179Y62844D01*
X24191Y63128D01*
X24191Y74128D01*
X24179Y74411D01*
X24142Y74692D01*
X24081Y74969D01*
X23995Y75239D01*
X23887Y75501D01*
X23756Y75753D01*
X23604Y75992D01*
X23431Y76217D01*
X23240Y76426D01*
X23031Y76617D01*
X22806Y76790D01*
X22566Y76942D01*
X22315Y77073D01*
X22053Y77182D01*
X21783Y77267D01*
X21506Y77328D01*
X21225Y77365D01*
X20941Y77378D01*
X20658Y77365D01*
X20377Y77328D01*
X20100Y77267D01*
X19830Y77182D01*
X19568Y77073D01*
X19316Y76942D01*
X19077Y76790D01*
X18852Y76617D01*
X18643Y76426D01*
X18452Y76217D01*
X18279Y75992D01*
X18127Y75753D01*
X17996Y75501D01*
X17887Y75239D01*
X17802Y74969D01*
X17741Y74692D01*
X17704Y74411D01*
X17691Y74128D01*
X17691Y63128D01*
X32071Y551017D02*
X32005Y550090D01*
X31873Y549171D01*
X31676Y548264D01*
X31414Y547373D01*
X31090Y546503D01*
X30704Y545658D01*
X30259Y544843D01*
X29757Y544062D01*
X29200Y543319D01*
X28592Y542617D01*
X27936Y541960D01*
X27234Y541352D01*
X26490Y540796D01*
X25709Y540294D01*
X24894Y539849D01*
X24050Y539463D01*
X23179Y539138D01*
X22288Y538877D01*
X21381Y538679D01*
X20462Y538547D01*
X19536Y538481D01*
X18607Y538481D01*
X17681Y538547D01*
X16762Y538679D01*
X15854Y538877D01*
X14963Y539138D01*
X14093Y539463D01*
X13249Y539849D01*
X12434Y540294D01*
X11653Y540796D01*
X10909Y541352D01*
X10207Y541960D01*
X9551Y542617D01*
X8943Y543319D01*
X8386Y544062D01*
X7884Y544843D01*
X7439Y545658D01*
X7053Y546503D01*
X6729Y547373D01*
X6467Y548264D01*
X6270Y549171D01*
X6138Y550090D01*
X6071Y551017D01*
X6071Y551945D01*
X6138Y552871D01*
X6270Y553791D01*
X6467Y554698D01*
X6729Y555589D01*
X7053Y556459D01*
X7439Y557304D01*
X7884Y558119D01*
X8386Y558900D01*
X8943Y559643D01*
X9551Y560345D01*
X10207Y561002D01*
X10909Y561610D01*
X11653Y562166D01*
X12434Y562668D01*
X13249Y563113D01*
X14093Y563499D01*
X14963Y563823D01*
X15854Y564085D01*
X16762Y564282D01*
X17681Y564415D01*
X18607Y564481D01*
X19536Y564481D01*
X20462Y564415D01*
X21381Y564282D01*
X22288Y564085D01*
X23179Y563823D01*
X24050Y563499D01*
X24894Y563113D01*
X25709Y562668D01*
X26490Y562166D01*
X27234Y561610D01*
X27936Y561002D01*
X28592Y560345D01*
X29200Y559643D01*
X29757Y558900D01*
X30259Y558119D01*
X30704Y557304D01*
X31090Y556459D01*
X31414Y555589D01*
X31676Y554698D01*
X31873Y553791D01*
X32005Y552871D01*
X32071Y551945D01*
X32071Y551017D01*
X244071Y551017D02*
X244005Y550090D01*
X243873Y549171D01*
X243676Y548264D01*
X243414Y547373D01*
X243090Y546503D01*
X242704Y545658D01*
X242259Y544843D01*
X241757Y544062D01*
X241200Y543319D01*
X240592Y542617D01*
X239936Y541960D01*
X239234Y541352D01*
X238490Y540796D01*
X237709Y540294D01*
X236894Y539849D01*
X236050Y539463D01*
X235179Y539138D01*
X234288Y538877D01*
X233381Y538679D01*
X232462Y538547D01*
X231536Y538481D01*
X230607Y538481D01*
X229681Y538547D01*
X228762Y538679D01*
X227854Y538877D01*
X226963Y539138D01*
X226093Y539463D01*
X225249Y539849D01*
X224434Y540294D01*
X223653Y540796D01*
X222909Y541352D01*
X222207Y541960D01*
X221551Y542617D01*
X220943Y543319D01*
X220386Y544062D01*
X219884Y544843D01*
X219439Y545658D01*
X219053Y546503D01*
X218729Y547373D01*
X218467Y548264D01*
X218270Y549171D01*
X218138Y550090D01*
X218071Y551017D01*
X218071Y551945D01*
X218138Y552871D01*
X218270Y553791D01*
X218467Y554698D01*
X218729Y555589D01*
X219053Y556459D01*
X219439Y557304D01*
X219884Y558119D01*
X220386Y558900D01*
X220943Y559643D01*
X221551Y560345D01*
X222207Y561002D01*
X222909Y561610D01*
X223653Y562166D01*
X224434Y562668D01*
X225249Y563113D01*
X226093Y563499D01*
X226963Y563823D01*
X227854Y564085D01*
X228762Y564282D01*
X229681Y564415D01*
X230607Y564481D01*
X231536Y564481D01*
X232462Y564415D01*
X233381Y564282D01*
X234288Y564085D01*
X235179Y563823D01*
X236050Y563499D01*
X236894Y563113D01*
X237709Y562668D01*
X238490Y562166D01*
X239234Y561610D01*
X239936Y561002D01*
X240592Y560345D01*
X241200Y559643D01*
X241757Y558900D01*
X242259Y558119D01*
X242704Y557304D01*
X243090Y556459D01*
X243414Y555589D01*
X243676Y554698D01*
X243873Y553791D01*
X244005Y552871D01*
X244071Y551945D01*
X244071Y551017D01*
X38719Y63044D02*
X38659Y62589D01*
X38540Y62146D01*
X38365Y61722D01*
X38135Y61325D01*
X37856Y60961D01*
X37532Y60636D01*
X37168Y60357D01*
X36770Y60127D01*
X36346Y59952D01*
X35903Y59833D01*
X35448Y59773D01*
X34990Y59773D01*
X34535Y59833D01*
X34092Y59952D01*
X33668Y60127D01*
X33270Y60357D01*
X32906Y60636D01*
X32582Y60961D01*
X32303Y61325D01*
X32073Y61722D01*
X31898Y62146D01*
X31779Y62589D01*
X31719Y63044D01*
X31719Y63503D01*
X31779Y63957D01*
X31898Y64401D01*
X32073Y64825D01*
X32303Y65222D01*
X32582Y65586D01*
X32906Y65910D01*
X33270Y66190D01*
X33668Y66419D01*
X34092Y66595D01*
X34535Y66713D01*
X34990Y66773D01*
X35448Y66773D01*
X35903Y66713D01*
X36346Y66595D01*
X36770Y66419D01*
X37168Y66190D01*
X37532Y65910D01*
X37856Y65586D01*
X38135Y65222D01*
X38365Y64825D01*
X38540Y64401D01*
X38659Y63957D01*
X38719Y63503D01*
X38719Y63044D01*
X96519Y63044D02*
X96459Y62589D01*
X96340Y62146D01*
X96165Y61722D01*
X95935Y61325D01*
X95656Y60961D01*
X95332Y60636D01*
X94968Y60357D01*
X94570Y60127D01*
X94146Y59952D01*
X93703Y59833D01*
X93248Y59773D01*
X92790Y59773D01*
X92335Y59833D01*
X91892Y59952D01*
X91468Y60127D01*
X91070Y60357D01*
X90706Y60636D01*
X90382Y60961D01*
X90103Y61325D01*
X89873Y61722D01*
X89698Y62146D01*
X89579Y62589D01*
X89519Y63044D01*
X89519Y63503D01*
X89579Y63957D01*
X89698Y64401D01*
X89873Y64825D01*
X90103Y65222D01*
X90382Y65586D01*
X90706Y65910D01*
X91070Y66190D01*
X91468Y66419D01*
X91892Y66595D01*
X92335Y66713D01*
X92790Y66773D01*
X93248Y66773D01*
X93703Y66713D01*
X94146Y66595D01*
X94570Y66419D01*
X94968Y66190D01*
X95332Y65910D01*
X95656Y65586D01*
X95935Y65222D01*
X96165Y64825D01*
X96340Y64401D01*
X96459Y63957D01*
X96519Y63503D01*
X96519Y63044D01*
M02*
