G04 EAGLE Gerber RS-274X export*
G75*
%MOMM*%
%FSLAX34Y34*%
%LPD*%
%INSolderpaste Top*%
%IPPOS*%
%AMOC8*
5,1,8,0,0,1.08239X$1,22.5*%
G01*
%ADD10R,0.550000X1.200000*%
%ADD11R,1.000000X0.900000*%
%ADD12C,0.300000*%
%ADD13R,0.540000X0.600000*%
%ADD14R,1.000000X1.100000*%
%ADD15R,0.600000X0.540000*%
%ADD16R,0.600000X1.450000*%
%ADD17R,0.300000X1.450000*%
%ADD18C,0.200000*%
%ADD19R,1.422400X0.711200*%
%ADD20R,0.711200X1.422400*%
%ADD21C,0.247500*%
%ADD22C,0.147500*%
%ADD23R,0.800000X1.000000*%
%ADD24R,1.000000X1.400000*%
%ADD25R,1.200000X0.550000*%
%ADD26R,1.270000X0.508000*%
%ADD27R,1.117600X0.482600*%
%ADD28R,0.250000X0.875000*%
%ADD29R,1.000000X4.600000*%
%ADD30R,1.600000X3.400000*%


D10*
X162500Y175999D03*
X172000Y175999D03*
X181500Y175999D03*
X181500Y202001D03*
X162500Y202001D03*
D11*
X192000Y256500D03*
X208000Y256500D03*
X208000Y215500D03*
X192000Y215500D03*
X154000Y256500D03*
X170000Y256500D03*
X170000Y215500D03*
X154000Y215500D03*
D12*
X14730Y510500D02*
X14730Y517500D01*
X14730Y510500D02*
X7730Y510500D01*
X7730Y517500D01*
X14730Y517500D01*
X14730Y513350D02*
X7730Y513350D01*
X7730Y516200D02*
X14730Y516200D01*
X32270Y517500D02*
X32270Y510500D01*
X25270Y510500D01*
X25270Y517500D01*
X32270Y517500D01*
X32270Y513350D02*
X25270Y513350D01*
X25270Y516200D02*
X32270Y516200D01*
X236270Y517500D02*
X236270Y510500D01*
X236270Y517500D02*
X243270Y517500D01*
X243270Y510500D01*
X236270Y510500D01*
X236270Y513350D02*
X243270Y513350D01*
X243270Y516200D02*
X236270Y516200D01*
X218730Y517500D02*
X218730Y510500D01*
X218730Y517500D02*
X225730Y517500D01*
X225730Y510500D01*
X218730Y510500D01*
X218730Y513350D02*
X225730Y513350D01*
X225730Y516200D02*
X218730Y516200D01*
D13*
X227680Y502000D03*
X236320Y502000D03*
X21320Y502000D03*
X12680Y502000D03*
D14*
X195500Y185500D03*
X195500Y202500D03*
X146500Y202500D03*
X146500Y185500D03*
D11*
X132000Y216500D03*
X116000Y216500D03*
X116000Y257500D03*
X132000Y257500D03*
D15*
X211200Y177820D03*
X211200Y169180D03*
D16*
X31619Y77723D03*
X39619Y77723D03*
D17*
X61619Y77723D03*
X56619Y77723D03*
X51619Y77723D03*
X46619Y77723D03*
X66619Y77723D03*
X71619Y77723D03*
X76619Y77723D03*
X81619Y77723D03*
D16*
X88619Y77723D03*
X96619Y77723D03*
D15*
X47000Y105320D03*
X47000Y96680D03*
D18*
X43650Y173500D02*
X34750Y173500D01*
X34750Y175500D01*
X43650Y175500D01*
X43650Y173500D01*
X43650Y175400D02*
X34750Y175400D01*
X34750Y167000D02*
X43650Y167000D01*
X34750Y167000D02*
X34750Y169000D01*
X43650Y169000D01*
X43650Y167000D01*
X43650Y168900D02*
X34750Y168900D01*
X34750Y160500D02*
X43650Y160500D01*
X34750Y160500D02*
X34750Y162500D01*
X43650Y162500D01*
X43650Y160500D01*
X43650Y162400D02*
X34750Y162400D01*
X53150Y162500D02*
X62050Y162500D01*
X62050Y160500D01*
X53150Y160500D01*
X53150Y162500D01*
X53150Y162400D02*
X62050Y162400D01*
X62050Y169000D02*
X53150Y169000D01*
X62050Y169000D02*
X62050Y167000D01*
X53150Y167000D01*
X53150Y169000D01*
X53150Y168900D02*
X62050Y168900D01*
X62050Y175500D02*
X53150Y175500D01*
X62050Y175500D02*
X62050Y173500D01*
X53150Y173500D01*
X53150Y175500D01*
X53150Y175400D02*
X62050Y175400D01*
D12*
X121500Y36730D02*
X128500Y36730D01*
X128500Y29730D01*
X121500Y29730D01*
X121500Y36730D01*
X121500Y32580D02*
X128500Y32580D01*
X128500Y35430D02*
X121500Y35430D01*
X121500Y54270D02*
X128500Y54270D01*
X128500Y47270D01*
X121500Y47270D01*
X121500Y54270D01*
X121500Y50120D02*
X128500Y50120D01*
X128500Y52970D02*
X121500Y52970D01*
D15*
X123000Y73320D03*
X123000Y64680D03*
D19*
X210588Y314473D03*
X210588Y327173D03*
X210588Y339873D03*
X210588Y352573D03*
X210588Y365273D03*
X210588Y377973D03*
X210588Y390673D03*
X210588Y403373D03*
X210588Y416073D03*
X210588Y428773D03*
X210588Y441473D03*
X210588Y454173D03*
X37911Y314602D03*
X37911Y327302D03*
X37911Y340002D03*
X37911Y352702D03*
X37911Y365402D03*
X37911Y378102D03*
X37911Y390802D03*
X37911Y403502D03*
X37911Y416202D03*
X37911Y428902D03*
X37911Y441602D03*
X37911Y454302D03*
D20*
X168907Y285780D03*
X156207Y285780D03*
X143507Y285780D03*
X130807Y285780D03*
X118107Y285780D03*
X105407Y285780D03*
X92707Y285780D03*
X80007Y285780D03*
X67307Y285780D03*
X181381Y285763D03*
D21*
X42413Y138887D02*
X32487Y138887D01*
X32487Y146313D01*
X42413Y146313D01*
X42413Y138887D01*
X42413Y141238D02*
X32487Y141238D01*
X32487Y143589D02*
X42413Y143589D01*
X42413Y145940D02*
X32487Y145940D01*
D22*
X31987Y123187D02*
X42913Y123187D01*
X31987Y123187D02*
X31987Y127613D01*
X42913Y127613D01*
X42913Y123187D01*
X42913Y124588D02*
X31987Y124588D01*
X31987Y125989D02*
X42913Y125989D01*
X42913Y127390D02*
X31987Y127390D01*
X53087Y123187D02*
X64013Y123187D01*
X53087Y123187D02*
X53087Y127613D01*
X64013Y127613D01*
X64013Y123187D01*
X64013Y124588D02*
X53087Y124588D01*
X53087Y125989D02*
X64013Y125989D01*
X64013Y127390D02*
X53087Y127390D01*
X53087Y142387D02*
X64013Y142387D01*
X53087Y142387D02*
X53087Y146813D01*
X64013Y146813D01*
X64013Y142387D01*
X64013Y143788D02*
X53087Y143788D01*
X53087Y145189D02*
X64013Y145189D01*
X64013Y146590D02*
X53087Y146590D01*
D23*
X150000Y164500D03*
X150000Y141500D03*
D24*
X160000Y101000D03*
X150500Y123000D03*
X169500Y123000D03*
D15*
X127700Y105320D03*
X127700Y96680D03*
D25*
X211001Y102500D03*
X211001Y112000D03*
X211001Y121500D03*
X184999Y121500D03*
X184999Y102500D03*
D13*
X193680Y133000D03*
X202320Y133000D03*
D15*
X139000Y64680D03*
X139000Y73320D03*
D12*
X135500Y36730D02*
X142500Y36730D01*
X142500Y29730D01*
X135500Y29730D01*
X135500Y36730D01*
X135500Y32580D02*
X142500Y32580D01*
X142500Y35430D02*
X135500Y35430D01*
X135500Y54270D02*
X142500Y54270D01*
X142500Y47270D01*
X135500Y47270D01*
X135500Y54270D01*
X135500Y50120D02*
X142500Y50120D01*
X142500Y52970D02*
X135500Y52970D01*
D26*
X91130Y224000D03*
X91130Y211300D03*
X91130Y198600D03*
X91130Y236700D03*
X91130Y249400D03*
X42870Y249400D03*
X42870Y236700D03*
X42870Y224000D03*
X42870Y211300D03*
X42870Y198600D03*
D27*
X183662Y163500D03*
X183662Y144500D03*
X207538Y154000D03*
D15*
X34900Y105420D03*
X34900Y96780D03*
X172500Y153220D03*
X172500Y144580D03*
D28*
X103500Y162025D03*
X98500Y162025D03*
X93500Y162025D03*
X88500Y162025D03*
X83500Y162025D03*
X83500Y116775D03*
X88500Y116775D03*
X93500Y116775D03*
X98500Y116775D03*
X103500Y116775D03*
D29*
X204310Y71290D03*
X184310Y71290D03*
D30*
X228310Y19290D03*
X160310Y19290D03*
M02*
