G04 EAGLE Gerber RS-274X export*
G75*
%MOMM*%
%FSLAX34Y34*%
%LPD*%
%INSoldermask Bottom*%
%IPPOS*%
%AMOC8*
5,1,8,0,0,1.08239X$1,22.5*%
G01*
%ADD10C,2.701600*%
%ADD11C,1.259600*%
%ADD12C,0.801600*%
%ADD13C,1.981200*%
%ADD14R,2.469600X2.505200*%
%ADD15R,1.101600X1.501600*%
%ADD16R,1.219200X0.457200*%
%ADD17R,0.641600X0.701600*%
%ADD18C,0.257809*%
%ADD19R,2.387600X0.711200*%
%ADD20C,0.372125*%
%ADD21R,0.661600X0.451600*%
%ADD22R,0.301600X1.701600*%
%ADD23R,1.371600X2.641600*%

G36*
X133233Y194460D02*
X133233Y194460D01*
X133299Y194462D01*
X133343Y194480D01*
X133389Y194488D01*
X133446Y194522D01*
X133507Y194547D01*
X133542Y194579D01*
X133582Y194603D01*
X133624Y194654D01*
X133672Y194698D01*
X133694Y194740D01*
X133724Y194777D01*
X133745Y194839D01*
X133775Y194898D01*
X133783Y194952D01*
X133796Y194989D01*
X133794Y195029D01*
X133803Y195083D01*
X133803Y200163D01*
X133791Y200228D01*
X133789Y200294D01*
X133771Y200337D01*
X133763Y200384D01*
X133729Y200441D01*
X133705Y200502D01*
X133673Y200536D01*
X133649Y200577D01*
X133598Y200619D01*
X133553Y200667D01*
X133511Y200689D01*
X133475Y200718D01*
X133412Y200740D01*
X133354Y200770D01*
X133299Y200778D01*
X133262Y200790D01*
X133223Y200789D01*
X133168Y200797D01*
X123008Y200797D01*
X122943Y200786D01*
X122878Y200784D01*
X122834Y200766D01*
X122787Y200758D01*
X122731Y200724D01*
X122670Y200699D01*
X122635Y200668D01*
X122594Y200644D01*
X122553Y200592D01*
X122504Y200548D01*
X122483Y200506D01*
X122453Y200469D01*
X122432Y200407D01*
X122402Y200348D01*
X122394Y200294D01*
X122381Y200257D01*
X122381Y200251D01*
X122382Y200216D01*
X122374Y200163D01*
X122374Y195083D01*
X122386Y195018D01*
X122388Y194953D01*
X122405Y194909D01*
X122414Y194862D01*
X122447Y194805D01*
X122472Y194745D01*
X122504Y194710D01*
X122528Y194669D01*
X122579Y194628D01*
X122623Y194579D01*
X122665Y194557D01*
X122702Y194528D01*
X122764Y194507D01*
X122823Y194476D01*
X122877Y194468D01*
X122915Y194456D01*
X122954Y194457D01*
X123008Y194449D01*
X133168Y194449D01*
X133233Y194460D01*
G37*
D10*
X19071Y551481D03*
X231071Y551481D03*
D11*
X20919Y32563D02*
X20919Y20983D01*
X107319Y20983D02*
X107319Y32563D01*
D12*
X35219Y63273D03*
X93019Y63273D03*
D11*
X20966Y62889D02*
X20966Y74469D01*
X107295Y74367D02*
X107295Y62787D01*
X20988Y62800D02*
X20988Y74380D01*
X107300Y74436D02*
X107300Y62856D01*
D13*
X10000Y106000D03*
X10000Y131400D03*
X10000Y156800D03*
X10000Y182200D03*
X10000Y207600D03*
X10000Y233000D03*
X10000Y258400D03*
X10000Y283800D03*
X10000Y309200D03*
X10000Y334600D03*
X10000Y360000D03*
X10000Y385400D03*
X10000Y410800D03*
X10000Y436200D03*
X10000Y461600D03*
X10000Y487000D03*
X239000Y106000D03*
X239000Y131400D03*
X239000Y156800D03*
X239000Y182200D03*
X239000Y207600D03*
X239000Y233000D03*
X239000Y258400D03*
X239000Y283800D03*
X239000Y309200D03*
X239000Y334600D03*
X239000Y360000D03*
X239000Y385400D03*
X239000Y410800D03*
X239000Y436200D03*
X239000Y461600D03*
X239000Y487000D03*
D14*
X154402Y405130D03*
X91978Y405130D03*
D15*
X124460Y156640D03*
X133960Y178640D03*
X114960Y178640D03*
D16*
X160691Y139686D03*
X160691Y133082D03*
X160691Y126478D03*
X141387Y126478D03*
X141387Y133082D03*
X141387Y139686D03*
D17*
X118870Y138562D03*
X127510Y138562D03*
X118870Y127000D03*
X127510Y127000D03*
D18*
X124132Y195229D02*
X119344Y195229D01*
X119344Y200017D01*
X124132Y200017D01*
X124132Y195229D01*
X124132Y197678D02*
X119344Y197678D01*
X132044Y195229D02*
X136832Y195229D01*
X132044Y195229D02*
X132044Y200017D01*
X136832Y200017D01*
X136832Y195229D01*
X136832Y197678D02*
X132044Y197678D01*
D19*
X155702Y476250D03*
X88138Y476250D03*
X155702Y463550D03*
X155702Y450850D03*
X88138Y463550D03*
X88138Y450850D03*
X155702Y438150D03*
X88138Y438150D03*
D17*
X146380Y490490D03*
X155020Y490490D03*
D20*
X136768Y492138D02*
X134072Y492138D01*
X136768Y492138D02*
X136768Y488842D01*
X134072Y488842D01*
X134072Y492138D01*
X128128Y492138D02*
X125432Y492138D01*
X128128Y492138D02*
X128128Y488842D01*
X125432Y488842D01*
X125432Y492138D01*
D17*
X96270Y490490D03*
X87630Y490490D03*
X116330Y490490D03*
X107690Y490490D03*
D21*
X134270Y464700D03*
X134270Y459700D03*
X134270Y454700D03*
X134270Y449700D03*
X109570Y449700D03*
X109570Y454700D03*
X109570Y459700D03*
X109570Y464700D03*
D22*
X121920Y457200D03*
D23*
X204190Y81371D03*
X184521Y81371D03*
M02*
