M48
;GenerationSoftware,Autodesk,EAGLE,9.6.2*%
;CreationDate,2022-01-31T19:39:26Z*%
FMAT,2
ICI,OFF
METRIC,TZ,000.000
T4C0.300
T3C0.650
T2C0.700
T1C1.016
%
G90
M71
T1
X23900Y48700
X1000Y36000
X23900Y33460
X23900Y36000
X23900Y38540
X23900Y41080
X23900Y43620
X23900Y46160
X1000Y10600
X1000Y13140
X1000Y15680
X1000Y18220
X1000Y20760
X1000Y23300
X1000Y25840
X1000Y28380
X1000Y30920
X1000Y33460
X1000Y38540
X1000Y41080
X1000Y43620
X1000Y46160
X1000Y48700
X23900Y10600
X23900Y13140
X23900Y15680
X23900Y18220
X23900Y20760
X23900Y23300
X23900Y25840
X23900Y28380
X23900Y30920
T2
X3510Y6350
X9290Y6350
T3
X2080Y6880
X10720Y6880
X2080Y2700
X10720Y2700
T4
X20193Y7239
X22291Y11141
X22291Y10379
X11532Y22976
X6706Y23484
X3912Y50535
X6198Y50535
X8611Y50535
X11024Y50535
X13564Y50535
X16358Y50535
X19279Y50535
X483Y50408
X3531Y27040
X4420Y26278
X2896Y49011
X7468Y49265
X10008Y49265
X12548Y49265
X15088Y49265
X17628Y49265
X6198Y47995
X8738Y47995
X11278Y47995
X13818Y47995
X16358Y47995
X19279Y47995
X7468Y46725
X10008Y46725
X12548Y46725
X15088Y46725
X18009Y46725
X20549Y46725
X7468Y41645
X10008Y41645
X12548Y41645
X15088Y41645
X17628Y41645
X8738Y39105
X11278Y39105
X13818Y39105
X16358Y39105
X18898Y39105
X7468Y36565
X10008Y36565
X12548Y36565
X15088Y36565
X17628Y36565
X5400Y600
X11278Y34025
X13818Y34025
X17628Y34025
X5182Y46725
X6325Y39105
X21565Y47995
X5182Y49265
X17628Y29453
X6706Y20182
X20803Y23738
X16100Y8400
X22250Y12160
X21710Y14500
X21740Y13750
X21760Y12960
X22450Y14510
X22460Y13720
X22470Y12950
X18220Y9020
X18220Y8131
X18220Y7242
X6200Y6500
X7500Y6400
X7000Y12600
X3114Y16800
X5588Y32385
X5588Y31115
X10287Y22352
X4800Y15300
X12400Y11900
X9800Y9600
X14800Y7300
X17100Y20200
X9100Y17300
X5588Y29845
X7800Y5500
X10800Y8700
X15200Y4300
X22600Y8400
X8382Y28067
X13208Y23749
X3810Y49403
X6700Y11000
X5588Y43815
X19558Y33655
X10414Y20066
X15367Y23622
X13200Y17700
X5000Y5500
X15800Y3000
X15800Y700
X22600Y3000
X22600Y700
X3500Y11500
X4300Y2700
X8500Y2700
X500Y5100
X500Y3600
X500Y2100
X24300Y5400
X24300Y3800
X24300Y2400
X24300Y7100
X8738Y34025
X18100Y13300
X1300Y900
X2700Y600
X4000Y600
X6800Y600
X8200Y600
X9800Y600
X11400Y600
X17400Y600
X19200Y600
X21000Y600
X24000Y1000
X4800Y13500
X500Y6500
X20955Y19939
X19660Y15610
X17200Y16480
X15490Y15430
X20193Y9017
X20193Y8128
X22352Y52705
M30