M48
;GenerationSoftware,Autodesk,EAGLE,9.6.2*%
;CreationDate,2022-08-19T06:01:24Z*%
FMAT,2
ICI,OFF
METRIC,TZ,000.000
T4C0.300
T3C0.650
T2C0.700
T1C1.016
%
G90
M71
T1
X23900Y48700
X1000Y38540
X23900Y33460
X23900Y36000
X23900Y38540
X23900Y41080
X23900Y43620
X23900Y46160
X1000Y10600
X1000Y13140
X1000Y15680
X1000Y18220
X1000Y20760
X1000Y23300
X1000Y25840
X1000Y28380
X1000Y30920
X1000Y33460
X1000Y36000
X1000Y41080
X1000Y43620
X1000Y46160
X1000Y48700
X23900Y10600
X23900Y13140
X23900Y15680
X23900Y18220
X23900Y20760
X23900Y23300
X23900Y25840
X23900Y28380
X23900Y30920
T2
X3510Y6350
X9290Y6350
T3
X2080Y6880
X10720Y6880
X2080Y2700
X10720Y2700
T4
X3912Y50535
X6198Y50535
X8611Y50535
X11024Y50535
X13564Y50535
X16358Y50535
X19279Y50535
X3531Y27040
X4420Y26278
X2388Y49519
X7468Y49265
X10008Y49265
X12548Y49265
X15088Y49265
X17628Y49265
X5182Y49265
X9326Y18004
X10215Y21687
X6405Y23973
X11532Y32374
X9754Y28056
X12167Y18023
X10643Y18023
X19406Y17261
X18136Y23611
X7341Y11673
X15977Y5704
X16866Y29580
X17374Y27802
X12548Y28310
X15977Y13451
X7214Y37327
X11405Y39105
X18009Y35422
X11786Y41899
X7849Y45709
X6452Y47106
X12167Y46090
X17501Y45455
X19660Y47233
X18009Y40756
X8992Y25897
X20803Y24246
X22200Y21960
X16100Y8400
X8200Y600
X21710Y14500
X21740Y13750
X21760Y12960
X22450Y14510
X22460Y13720
X22470Y12950
X18220Y9020
X18220Y8131
X18220Y7242
X6200Y6500
X7500Y6400
X7000Y12600
X5177Y15473
X5588Y32385
X5588Y31115
X6350Y22352
X4927Y13395
X9800Y9600
X12573Y11938
X5588Y29845
X7800Y5500
X10800Y8700
X15200Y4300
X22600Y8400
X9652Y26670
X13208Y23749
X7049Y14708
X8636Y29083
X6990Y13727
X8636Y27432
X5842Y38735
X10922Y40640
X17526Y43180
X22352Y50546
X5588Y43815
X19177Y36195
X19304Y33655
X8382Y19050
X19177Y23622
X13970Y27940
X17145Y20320
X15800Y3000
X9906Y29464
X11557Y33782
X15800Y700
X22600Y3000
X22600Y700
X3500Y11500
X4300Y2700
X8500Y2700
X500Y5100
X500Y3600
X500Y2100
X24300Y5400
X24300Y3800
X24300Y2400
X24300Y7100
X18100Y13300
X1300Y900
X2700Y600
X4000Y600
X22250Y12160
X5400Y600
X6800Y600
X9800Y600
X11400Y600
X17400Y600
X19200Y600
X21000Y600
X24000Y1000
X500Y6500
X20955Y19939
X19660Y15610
X17200Y16480
X15490Y15430
X20193Y9017
X20193Y8128
X20193Y7239
X22291Y11141
X22291Y10379
X11532Y22976
X12192Y10922
M30