M48
;GenerationSoftware,Autodesk,EAGLE,9.6.2*%
;CreationDate,2022-09-12T07:24:56Z*%
FMAT,2
ICI,OFF
METRIC,TZ,000.000
T5C0.300
T4C0.650
T3C0.700
T2C1.016
T1C2.600
%
G90
M71
T1
X23107Y55148
X1907Y55148
T2
X23900Y48700
X23900Y30920
X1000Y38540
X1000Y36000
X23900Y33460
X23900Y38540
X23900Y41080
X23900Y43620
X23900Y46160
X1000Y10600
X1000Y13140
X1000Y15680
X1000Y18220
X1000Y20760
X1000Y23300
X1000Y25840
X1000Y28380
X1000Y30920
X1000Y33460
X23900Y36000
X1000Y41080
X1000Y43620
X1000Y46160
X1000Y48700
X23900Y10600
X23900Y13140
X23900Y15680
X23900Y18220
X23900Y20760
X23900Y23300
X23900Y25840
X23900Y28380
T3
X3522Y6327
X9302Y6327
T4
X10732Y2677
X2097Y6868
X10730Y6858
X2099Y6859
X10730Y6865
X2092Y2677
T5
X500Y6500
X22300Y11100
X11780Y29940
X3670Y28670
X20955Y19939
X19660Y15610
X22260Y16770
X17200Y16480
X15490Y15430
X14610Y9730
X7030Y9430
X6600Y18710
X7280Y14350
X500Y7897
X15677Y19150
X13500Y14700
X9380Y17250
X20444Y8145
X20439Y9024
X20437Y7281
X13429Y43851
X13533Y48224
X15997Y1966
X22848Y1886
X10400Y37100
X14200Y37100
X17300Y42900
X10400Y33900
X14200Y33900
X12400Y37100
X12400Y33900
X19400Y42300
X19400Y44900
X19400Y47500
X13200Y23600
X14200Y32700
X15400Y23500
X15500Y35000
X500Y2100
X21710Y14500
X21740Y13750
X21760Y12960
X22450Y14510
X22460Y13720
X22470Y12950
X18427Y8182
X18426Y9033
X18441Y7295
X6200Y6500
X7500Y6400
X5100Y42900
X3200Y49800
X17400Y46400
X7200Y43100
X5100Y40300
X5600Y37500
X10510Y14430
X19200Y23600
X17500Y34000
X10300Y24900
X10300Y23700
X10300Y22400
X10318Y21510
X16500Y31300
X5500Y35900
X10540Y13550
X4800Y15300
X8830Y9410
X14800Y7300
X6900Y21300
X15600Y30400
X7800Y5500
X10800Y8700
X15200Y4300
X22600Y8400
X8543Y13020
X12300Y8200
X5000Y5500
X4300Y18800
X6000Y20200
X3500Y11500
X14400Y29800
X18200Y23600
X6200Y50600
X7700Y50600
X9300Y50600
X10900Y50600
X12600Y50600
X14500Y50600
X16300Y50600
X18300Y50600
X18400Y31900
X18400Y30100
X4300Y2700
X8500Y2700
X500Y5100
X500Y3600
X24300Y8500
X16100Y8400
X24300Y5400
X24300Y3800
X24300Y2273
X24300Y7100
X4400Y50600
X18100Y13300
X5000Y26300
X1300Y900
X2700Y600
X4000Y600
X5400Y600
X6800Y600
X8200Y600
X9800Y600
X11400Y600
X17400Y600
X19200Y600
X21000Y600
X20800Y30100
X20700Y50600
M30