G04 EAGLE Gerber RS-274X export*
G75*
%MOMM*%
%FSLAX34Y34*%
%LPD*%
%INBottom Copper*%
%IPPOS*%
%AMOC8*
5,1,8,0,0,1.08239X$1,22.5*%
G01*
%ADD10C,1.158000*%
%ADD11C,1.879600*%
%ADD12R,1.270000X2.540000*%
%ADD13R,2.286000X0.609600*%
%ADD14R,0.540000X0.600000*%
%ADD15C,0.270000*%
%ADD16R,2.368000X2.403600*%
%ADD17R,1.000000X1.400000*%
%ADD18R,1.117600X0.355600*%
%ADD19R,0.600000X0.540000*%
%ADD20C,0.158750*%
%ADD21C,0.127000*%
%ADD22C,0.706400*%
%ADD23C,0.304800*%
%ADD24C,0.200000*%
%ADD25C,0.812800*%
%ADD26C,0.254000*%
%ADD27C,0.406400*%
%ADD28C,0.508000*%

G36*
X126372Y49801D02*
X126372Y49801D01*
X126469Y49810D01*
X126492Y49820D01*
X126517Y49824D01*
X126603Y49870D01*
X126692Y49911D01*
X126717Y49932D01*
X126732Y49939D01*
X126749Y49958D01*
X126806Y50004D01*
X143020Y66218D01*
X143077Y66298D01*
X143139Y66373D01*
X143147Y66396D01*
X143162Y66417D01*
X143190Y66510D01*
X143225Y66601D01*
X143228Y66634D01*
X143233Y66650D01*
X143232Y66675D01*
X143239Y66748D01*
X143239Y135018D01*
X155796Y147575D01*
X197396Y147575D01*
X197492Y147591D01*
X197589Y147600D01*
X197612Y147610D01*
X197637Y147614D01*
X197723Y147660D01*
X197812Y147701D01*
X197837Y147722D01*
X197852Y147729D01*
X197869Y147748D01*
X197926Y147794D01*
X205266Y155134D01*
X205323Y155214D01*
X205385Y155289D01*
X205393Y155312D01*
X205408Y155333D01*
X205436Y155426D01*
X205471Y155517D01*
X205474Y155550D01*
X205479Y155566D01*
X205478Y155591D01*
X205485Y155664D01*
X205485Y175674D01*
X216076Y186265D01*
X228360Y186265D01*
X228491Y186286D01*
X228601Y186304D01*
X228709Y186362D01*
X228816Y186419D01*
X228895Y186503D01*
X228983Y186597D01*
X228983Y186598D01*
X229053Y186727D01*
X229740Y188387D01*
X232813Y191460D01*
X236827Y193123D01*
X241173Y193123D01*
X245187Y191460D01*
X247339Y189308D01*
X247399Y189265D01*
X247453Y189215D01*
X247497Y189194D01*
X247538Y189166D01*
X247608Y189144D01*
X247675Y189114D01*
X247724Y189109D01*
X247771Y189095D01*
X247844Y189097D01*
X247918Y189090D01*
X247966Y189101D01*
X248015Y189103D01*
X248084Y189129D01*
X248155Y189145D01*
X248197Y189171D01*
X248243Y189189D01*
X248300Y189235D01*
X248363Y189274D01*
X248394Y189312D01*
X248432Y189343D01*
X248471Y189406D01*
X248518Y189462D01*
X248535Y189508D01*
X248561Y189550D01*
X248578Y189622D01*
X248604Y189691D01*
X248611Y189764D01*
X248617Y189788D01*
X248615Y189805D01*
X248618Y189838D01*
X248618Y199962D01*
X248606Y200035D01*
X248604Y200108D01*
X248587Y200154D01*
X248579Y200203D01*
X248544Y200268D01*
X248518Y200337D01*
X248487Y200375D01*
X248464Y200418D01*
X248410Y200469D01*
X248363Y200525D01*
X248321Y200551D01*
X248286Y200585D01*
X248219Y200616D01*
X248156Y200654D01*
X248108Y200666D01*
X248063Y200686D01*
X247990Y200693D01*
X247919Y200710D01*
X247870Y200705D01*
X247820Y200710D01*
X247749Y200693D01*
X247676Y200686D01*
X247631Y200666D01*
X247583Y200655D01*
X247520Y200616D01*
X247453Y200586D01*
X247397Y200539D01*
X247375Y200526D01*
X247365Y200513D01*
X247339Y200492D01*
X245187Y198340D01*
X241173Y196677D01*
X236827Y196677D01*
X232813Y198340D01*
X229740Y201413D01*
X228077Y205427D01*
X228077Y209773D01*
X229740Y213787D01*
X232813Y216860D01*
X236827Y218523D01*
X241173Y218523D01*
X245187Y216860D01*
X247339Y214708D01*
X247399Y214665D01*
X247453Y214615D01*
X247497Y214594D01*
X247538Y214566D01*
X247608Y214544D01*
X247675Y214514D01*
X247724Y214509D01*
X247771Y214495D01*
X247844Y214497D01*
X247918Y214490D01*
X247966Y214501D01*
X248015Y214503D01*
X248084Y214529D01*
X248155Y214545D01*
X248197Y214571D01*
X248243Y214589D01*
X248300Y214635D01*
X248363Y214674D01*
X248394Y214712D01*
X248432Y214743D01*
X248471Y214806D01*
X248518Y214862D01*
X248535Y214908D01*
X248561Y214950D01*
X248578Y215022D01*
X248604Y215091D01*
X248611Y215164D01*
X248617Y215188D01*
X248615Y215205D01*
X248618Y215238D01*
X248618Y225362D01*
X248606Y225435D01*
X248604Y225508D01*
X248587Y225554D01*
X248579Y225603D01*
X248544Y225668D01*
X248518Y225737D01*
X248487Y225775D01*
X248464Y225818D01*
X248410Y225869D01*
X248363Y225925D01*
X248321Y225951D01*
X248286Y225985D01*
X248219Y226016D01*
X248156Y226054D01*
X248108Y226066D01*
X248063Y226086D01*
X247990Y226093D01*
X247919Y226110D01*
X247870Y226105D01*
X247820Y226110D01*
X247749Y226093D01*
X247676Y226086D01*
X247631Y226066D01*
X247583Y226055D01*
X247520Y226016D01*
X247453Y225986D01*
X247397Y225939D01*
X247375Y225926D01*
X247365Y225913D01*
X247339Y225892D01*
X245187Y223740D01*
X241173Y222077D01*
X236827Y222077D01*
X232813Y223740D01*
X229740Y226813D01*
X228415Y230013D01*
X228376Y230075D01*
X228286Y230220D01*
X228194Y230295D01*
X228098Y230375D01*
X228097Y230375D01*
X227965Y230425D01*
X227869Y230461D01*
X227868Y230461D01*
X227722Y230475D01*
X193944Y230475D01*
X193476Y230944D01*
X193396Y231001D01*
X193321Y231063D01*
X193298Y231071D01*
X193277Y231086D01*
X193184Y231114D01*
X193093Y231149D01*
X193060Y231152D01*
X193044Y231157D01*
X193019Y231156D01*
X192946Y231163D01*
X189675Y231163D01*
X186713Y234125D01*
X186713Y238315D01*
X189675Y241277D01*
X193865Y241277D01*
X196827Y238315D01*
X196827Y236274D01*
X196831Y236250D01*
X196828Y236225D01*
X196851Y236130D01*
X196866Y236033D01*
X196878Y236012D01*
X196884Y235988D01*
X196935Y235904D01*
X196981Y235818D01*
X196999Y235801D01*
X197012Y235780D01*
X197088Y235718D01*
X197159Y235651D01*
X197182Y235641D01*
X197201Y235625D01*
X197292Y235591D01*
X197382Y235550D01*
X197406Y235548D01*
X197429Y235539D01*
X197576Y235525D01*
X227722Y235525D01*
X227853Y235546D01*
X227963Y235564D01*
X228071Y235622D01*
X228178Y235679D01*
X228251Y235757D01*
X228345Y235857D01*
X228346Y235858D01*
X228415Y235987D01*
X229740Y239187D01*
X232813Y242260D01*
X236827Y243923D01*
X241173Y243923D01*
X245187Y242260D01*
X247339Y240108D01*
X247399Y240065D01*
X247453Y240015D01*
X247497Y239994D01*
X247538Y239966D01*
X247608Y239944D01*
X247675Y239914D01*
X247724Y239909D01*
X247771Y239895D01*
X247844Y239897D01*
X247918Y239890D01*
X247966Y239901D01*
X248015Y239903D01*
X248084Y239929D01*
X248155Y239945D01*
X248197Y239971D01*
X248243Y239989D01*
X248300Y240035D01*
X248363Y240074D01*
X248394Y240112D01*
X248432Y240143D01*
X248471Y240206D01*
X248518Y240262D01*
X248535Y240308D01*
X248561Y240350D01*
X248578Y240422D01*
X248604Y240491D01*
X248611Y240564D01*
X248617Y240588D01*
X248615Y240605D01*
X248618Y240638D01*
X248618Y250762D01*
X248606Y250835D01*
X248604Y250908D01*
X248587Y250954D01*
X248579Y251003D01*
X248544Y251068D01*
X248518Y251137D01*
X248487Y251175D01*
X248464Y251218D01*
X248410Y251269D01*
X248363Y251325D01*
X248321Y251351D01*
X248286Y251385D01*
X248219Y251416D01*
X248156Y251454D01*
X248108Y251466D01*
X248063Y251486D01*
X247990Y251493D01*
X247919Y251510D01*
X247870Y251505D01*
X247820Y251510D01*
X247749Y251493D01*
X247676Y251486D01*
X247631Y251466D01*
X247583Y251455D01*
X247520Y251416D01*
X247453Y251386D01*
X247397Y251339D01*
X247375Y251326D01*
X247365Y251313D01*
X247339Y251292D01*
X245187Y249140D01*
X241173Y247477D01*
X236827Y247477D01*
X232813Y249140D01*
X229740Y252213D01*
X228077Y256227D01*
X228077Y260573D01*
X229740Y264587D01*
X232813Y267660D01*
X233118Y267786D01*
X233159Y267812D01*
X233205Y267829D01*
X233263Y267876D01*
X233325Y267915D01*
X233356Y267953D01*
X233394Y267984D01*
X233433Y268047D01*
X233480Y268104D01*
X233497Y268150D01*
X233523Y268191D01*
X233540Y268263D01*
X233566Y268332D01*
X233568Y268381D01*
X233579Y268429D01*
X233572Y268502D01*
X233574Y268576D01*
X233560Y268623D01*
X233555Y268672D01*
X233525Y268739D01*
X233503Y268809D01*
X233475Y268849D01*
X233455Y268894D01*
X233362Y269007D01*
X233361Y269008D01*
X226252Y276118D01*
X224553Y277816D01*
X224553Y328844D01*
X224537Y328940D01*
X224528Y329037D01*
X224518Y329060D01*
X224514Y329085D01*
X224468Y329171D01*
X224427Y329259D01*
X224406Y329285D01*
X224399Y329300D01*
X224380Y329317D01*
X224334Y329374D01*
X219902Y333806D01*
X219822Y333863D01*
X219747Y333925D01*
X219724Y333933D01*
X219703Y333948D01*
X219610Y333976D01*
X219519Y334011D01*
X219486Y334014D01*
X219470Y334019D01*
X219445Y334018D01*
X219372Y334025D01*
X197977Y334025D01*
X197881Y334009D01*
X197784Y334000D01*
X197761Y333990D01*
X197736Y333986D01*
X197650Y333940D01*
X197561Y333899D01*
X197536Y333878D01*
X197521Y333871D01*
X197504Y333852D01*
X197447Y333806D01*
X195135Y331493D01*
X190945Y331493D01*
X187983Y334455D01*
X187983Y338645D01*
X190945Y341607D01*
X195135Y341607D01*
X197447Y339294D01*
X197527Y339237D01*
X197602Y339175D01*
X197625Y339167D01*
X197645Y339152D01*
X197739Y339124D01*
X197830Y339089D01*
X197863Y339086D01*
X197879Y339081D01*
X197904Y339082D01*
X197977Y339075D01*
X221774Y339075D01*
X226798Y334050D01*
X226858Y334007D01*
X226912Y333957D01*
X226956Y333937D01*
X226997Y333908D01*
X227067Y333887D01*
X227134Y333856D01*
X227183Y333852D01*
X227230Y333837D01*
X227303Y333840D01*
X227377Y333832D01*
X227425Y333844D01*
X227474Y333845D01*
X227543Y333871D01*
X227614Y333888D01*
X227656Y333914D01*
X227702Y333931D01*
X227759Y333978D01*
X227822Y334016D01*
X227853Y334054D01*
X227891Y334086D01*
X227930Y334148D01*
X227977Y334205D01*
X227994Y334251D01*
X228020Y334293D01*
X228037Y334364D01*
X228063Y334433D01*
X228070Y334506D01*
X228076Y334530D01*
X228074Y334547D01*
X228077Y334580D01*
X228077Y336773D01*
X229740Y340787D01*
X232813Y343860D01*
X236827Y345523D01*
X241173Y345523D01*
X245187Y343860D01*
X247339Y341708D01*
X247399Y341665D01*
X247453Y341615D01*
X247497Y341594D01*
X247538Y341566D01*
X247608Y341544D01*
X247675Y341514D01*
X247724Y341509D01*
X247771Y341495D01*
X247844Y341497D01*
X247918Y341490D01*
X247966Y341501D01*
X248015Y341503D01*
X248084Y341529D01*
X248155Y341545D01*
X248197Y341571D01*
X248243Y341589D01*
X248300Y341635D01*
X248363Y341674D01*
X248394Y341712D01*
X248432Y341743D01*
X248471Y341806D01*
X248518Y341862D01*
X248535Y341908D01*
X248561Y341950D01*
X248578Y342022D01*
X248604Y342091D01*
X248611Y342164D01*
X248617Y342188D01*
X248615Y342205D01*
X248618Y342238D01*
X248618Y352362D01*
X248606Y352435D01*
X248604Y352508D01*
X248587Y352554D01*
X248579Y352603D01*
X248544Y352668D01*
X248518Y352737D01*
X248487Y352775D01*
X248464Y352818D01*
X248410Y352869D01*
X248363Y352925D01*
X248321Y352951D01*
X248286Y352985D01*
X248219Y353016D01*
X248156Y353054D01*
X248108Y353066D01*
X248063Y353086D01*
X247990Y353093D01*
X247919Y353110D01*
X247870Y353105D01*
X247820Y353110D01*
X247749Y353093D01*
X247676Y353086D01*
X247631Y353066D01*
X247583Y353055D01*
X247520Y353016D01*
X247453Y352986D01*
X247397Y352939D01*
X247375Y352926D01*
X247365Y352913D01*
X247339Y352892D01*
X245187Y350740D01*
X241173Y349077D01*
X236827Y349077D01*
X232813Y350740D01*
X229740Y353813D01*
X228077Y357827D01*
X228077Y362173D01*
X229740Y366187D01*
X232813Y369260D01*
X236827Y370923D01*
X241173Y370923D01*
X245187Y369260D01*
X247339Y367108D01*
X247399Y367065D01*
X247453Y367015D01*
X247497Y366994D01*
X247538Y366966D01*
X247608Y366944D01*
X247675Y366914D01*
X247724Y366909D01*
X247771Y366895D01*
X247844Y366897D01*
X247918Y366890D01*
X247966Y366901D01*
X248015Y366903D01*
X248084Y366929D01*
X248155Y366945D01*
X248197Y366971D01*
X248243Y366989D01*
X248300Y367035D01*
X248363Y367074D01*
X248394Y367112D01*
X248432Y367143D01*
X248471Y367206D01*
X248518Y367262D01*
X248535Y367308D01*
X248561Y367350D01*
X248578Y367422D01*
X248604Y367491D01*
X248611Y367564D01*
X248617Y367588D01*
X248615Y367605D01*
X248618Y367638D01*
X248618Y377762D01*
X248606Y377835D01*
X248604Y377908D01*
X248587Y377954D01*
X248579Y378003D01*
X248544Y378068D01*
X248518Y378137D01*
X248487Y378175D01*
X248464Y378218D01*
X248410Y378269D01*
X248363Y378325D01*
X248321Y378351D01*
X248286Y378385D01*
X248219Y378416D01*
X248156Y378454D01*
X248108Y378466D01*
X248063Y378486D01*
X247990Y378493D01*
X247919Y378510D01*
X247870Y378505D01*
X247820Y378510D01*
X247749Y378493D01*
X247676Y378486D01*
X247631Y378466D01*
X247583Y378455D01*
X247520Y378416D01*
X247453Y378386D01*
X247397Y378339D01*
X247375Y378326D01*
X247365Y378313D01*
X247339Y378292D01*
X245187Y376140D01*
X241173Y374477D01*
X236827Y374477D01*
X232813Y376140D01*
X229740Y379213D01*
X228077Y383227D01*
X228077Y387573D01*
X229740Y391587D01*
X232813Y394660D01*
X236827Y396323D01*
X241173Y396323D01*
X245187Y394660D01*
X247339Y392508D01*
X247399Y392465D01*
X247453Y392415D01*
X247497Y392394D01*
X247538Y392366D01*
X247608Y392344D01*
X247675Y392314D01*
X247724Y392309D01*
X247771Y392295D01*
X247844Y392297D01*
X247918Y392290D01*
X247966Y392301D01*
X248015Y392303D01*
X248084Y392329D01*
X248155Y392345D01*
X248197Y392371D01*
X248243Y392389D01*
X248300Y392435D01*
X248363Y392474D01*
X248394Y392512D01*
X248432Y392543D01*
X248471Y392606D01*
X248518Y392662D01*
X248535Y392708D01*
X248561Y392750D01*
X248578Y392822D01*
X248604Y392891D01*
X248611Y392964D01*
X248617Y392988D01*
X248615Y393005D01*
X248618Y393038D01*
X248618Y403162D01*
X248606Y403235D01*
X248604Y403308D01*
X248587Y403354D01*
X248579Y403403D01*
X248544Y403468D01*
X248518Y403537D01*
X248487Y403575D01*
X248464Y403618D01*
X248410Y403669D01*
X248363Y403725D01*
X248321Y403751D01*
X248286Y403785D01*
X248219Y403816D01*
X248156Y403854D01*
X248108Y403866D01*
X248063Y403886D01*
X247990Y403893D01*
X247919Y403910D01*
X247870Y403905D01*
X247820Y403910D01*
X247749Y403893D01*
X247676Y403886D01*
X247631Y403866D01*
X247583Y403855D01*
X247520Y403816D01*
X247453Y403786D01*
X247397Y403739D01*
X247375Y403726D01*
X247365Y403713D01*
X247339Y403692D01*
X245187Y401540D01*
X241173Y399877D01*
X236827Y399877D01*
X232813Y401540D01*
X229740Y404613D01*
X228077Y408627D01*
X228077Y412973D01*
X229740Y416987D01*
X232813Y420060D01*
X236827Y421723D01*
X241173Y421723D01*
X245187Y420060D01*
X247339Y417908D01*
X247399Y417865D01*
X247453Y417815D01*
X247497Y417794D01*
X247538Y417766D01*
X247608Y417744D01*
X247675Y417714D01*
X247724Y417709D01*
X247771Y417695D01*
X247844Y417697D01*
X247918Y417690D01*
X247966Y417701D01*
X248015Y417703D01*
X248084Y417729D01*
X248155Y417745D01*
X248197Y417771D01*
X248243Y417789D01*
X248300Y417835D01*
X248363Y417874D01*
X248394Y417912D01*
X248432Y417943D01*
X248471Y418006D01*
X248518Y418062D01*
X248535Y418108D01*
X248561Y418150D01*
X248578Y418222D01*
X248604Y418291D01*
X248611Y418364D01*
X248617Y418388D01*
X248615Y418405D01*
X248618Y418438D01*
X248618Y428562D01*
X248606Y428635D01*
X248604Y428708D01*
X248587Y428754D01*
X248579Y428803D01*
X248544Y428868D01*
X248518Y428937D01*
X248487Y428975D01*
X248464Y429018D01*
X248410Y429069D01*
X248363Y429125D01*
X248321Y429151D01*
X248286Y429185D01*
X248219Y429216D01*
X248156Y429254D01*
X248108Y429266D01*
X248063Y429286D01*
X247990Y429293D01*
X247919Y429310D01*
X247870Y429305D01*
X247820Y429310D01*
X247749Y429293D01*
X247676Y429286D01*
X247631Y429266D01*
X247583Y429255D01*
X247520Y429216D01*
X247453Y429186D01*
X247397Y429139D01*
X247375Y429126D01*
X247365Y429113D01*
X247339Y429092D01*
X245187Y426940D01*
X241173Y425277D01*
X236827Y425277D01*
X232813Y426940D01*
X229740Y430013D01*
X228077Y434027D01*
X228077Y438373D01*
X229740Y442387D01*
X232813Y445460D01*
X236827Y447123D01*
X241173Y447123D01*
X245187Y445460D01*
X247339Y443308D01*
X247399Y443265D01*
X247453Y443215D01*
X247497Y443194D01*
X247538Y443166D01*
X247608Y443144D01*
X247675Y443114D01*
X247724Y443109D01*
X247771Y443095D01*
X247844Y443097D01*
X247918Y443090D01*
X247966Y443101D01*
X248015Y443103D01*
X248084Y443129D01*
X248155Y443145D01*
X248197Y443171D01*
X248243Y443189D01*
X248300Y443235D01*
X248363Y443274D01*
X248394Y443312D01*
X248432Y443343D01*
X248471Y443406D01*
X248518Y443462D01*
X248535Y443508D01*
X248561Y443550D01*
X248578Y443622D01*
X248604Y443691D01*
X248611Y443764D01*
X248617Y443788D01*
X248615Y443805D01*
X248618Y443838D01*
X248618Y453962D01*
X248606Y454035D01*
X248604Y454108D01*
X248587Y454154D01*
X248579Y454203D01*
X248544Y454268D01*
X248518Y454337D01*
X248487Y454375D01*
X248464Y454418D01*
X248410Y454469D01*
X248363Y454525D01*
X248321Y454551D01*
X248286Y454585D01*
X248219Y454616D01*
X248156Y454654D01*
X248108Y454666D01*
X248063Y454686D01*
X247990Y454693D01*
X247919Y454710D01*
X247870Y454705D01*
X247820Y454710D01*
X247749Y454693D01*
X247676Y454686D01*
X247631Y454666D01*
X247583Y454655D01*
X247520Y454616D01*
X247453Y454586D01*
X247397Y454539D01*
X247375Y454526D01*
X247365Y454513D01*
X247339Y454492D01*
X245187Y452340D01*
X241173Y450677D01*
X236827Y450677D01*
X232813Y452340D01*
X229740Y455413D01*
X228077Y459427D01*
X228077Y463773D01*
X229740Y467787D01*
X232813Y470860D01*
X236827Y472523D01*
X241173Y472523D01*
X245187Y470860D01*
X247339Y468708D01*
X247399Y468665D01*
X247453Y468615D01*
X247497Y468594D01*
X247538Y468566D01*
X247608Y468544D01*
X247675Y468514D01*
X247724Y468509D01*
X247771Y468495D01*
X247844Y468497D01*
X247918Y468490D01*
X247966Y468501D01*
X248015Y468503D01*
X248084Y468529D01*
X248155Y468545D01*
X248197Y468571D01*
X248243Y468589D01*
X248300Y468635D01*
X248363Y468674D01*
X248394Y468712D01*
X248432Y468743D01*
X248471Y468806D01*
X248518Y468862D01*
X248535Y468908D01*
X248561Y468950D01*
X248578Y469022D01*
X248604Y469091D01*
X248611Y469164D01*
X248617Y469188D01*
X248615Y469205D01*
X248618Y469238D01*
X248618Y479362D01*
X248606Y479435D01*
X248604Y479508D01*
X248587Y479554D01*
X248579Y479603D01*
X248544Y479668D01*
X248518Y479737D01*
X248487Y479775D01*
X248464Y479818D01*
X248410Y479869D01*
X248363Y479925D01*
X248321Y479951D01*
X248286Y479985D01*
X248219Y480016D01*
X248156Y480054D01*
X248108Y480066D01*
X248063Y480086D01*
X247990Y480093D01*
X247919Y480110D01*
X247870Y480105D01*
X247820Y480110D01*
X247749Y480093D01*
X247676Y480086D01*
X247631Y480066D01*
X247583Y480055D01*
X247520Y480016D01*
X247453Y479986D01*
X247397Y479939D01*
X247375Y479926D01*
X247365Y479913D01*
X247339Y479892D01*
X245187Y477740D01*
X241173Y476077D01*
X236827Y476077D01*
X232813Y477740D01*
X229740Y480813D01*
X228498Y483812D01*
X228472Y483854D01*
X228455Y483900D01*
X228408Y483957D01*
X228369Y484019D01*
X228331Y484051D01*
X228300Y484088D01*
X228237Y484127D01*
X228180Y484174D01*
X228134Y484192D01*
X228093Y484217D01*
X228021Y484234D01*
X227952Y484260D01*
X227903Y484262D01*
X227855Y484273D01*
X227782Y484266D01*
X227708Y484268D01*
X227661Y484254D01*
X227612Y484249D01*
X227545Y484219D01*
X227475Y484198D01*
X227435Y484169D01*
X227390Y484149D01*
X227277Y484056D01*
X227276Y484056D01*
X227276Y484055D01*
X220756Y477535D01*
X62316Y477535D01*
X62220Y477519D01*
X62123Y477510D01*
X62100Y477500D01*
X62075Y477496D01*
X61989Y477450D01*
X61901Y477409D01*
X61875Y477388D01*
X61860Y477381D01*
X61843Y477362D01*
X61786Y477316D01*
X58624Y474154D01*
X58567Y474074D01*
X58505Y473999D01*
X58497Y473976D01*
X58482Y473955D01*
X58454Y473862D01*
X58419Y473771D01*
X58416Y473738D01*
X58411Y473722D01*
X58412Y473697D01*
X58405Y473624D01*
X58405Y443087D01*
X58421Y442991D01*
X58430Y442894D01*
X58440Y442871D01*
X58444Y442846D01*
X58490Y442760D01*
X58531Y442671D01*
X58552Y442646D01*
X58559Y442631D01*
X58578Y442614D01*
X58624Y442557D01*
X60937Y440245D01*
X60937Y436055D01*
X57975Y433093D01*
X53785Y433093D01*
X50823Y436055D01*
X50823Y440245D01*
X53136Y442557D01*
X53193Y442637D01*
X53255Y442712D01*
X53263Y442735D01*
X53278Y442755D01*
X53306Y442849D01*
X53341Y442940D01*
X53344Y442973D01*
X53349Y442989D01*
X53348Y443014D01*
X53355Y443087D01*
X53355Y476026D01*
X58216Y480886D01*
X59914Y482585D01*
X218354Y482585D01*
X218450Y482601D01*
X218547Y482610D01*
X218570Y482620D01*
X218595Y482624D01*
X218681Y482670D01*
X218769Y482711D01*
X218795Y482732D01*
X218810Y482739D01*
X218827Y482758D01*
X218884Y482804D01*
X222046Y485966D01*
X222103Y486046D01*
X222165Y486121D01*
X222173Y486144D01*
X222188Y486165D01*
X222216Y486258D01*
X222251Y486349D01*
X222254Y486382D01*
X222259Y486398D01*
X222258Y486423D01*
X222265Y486496D01*
X222265Y499654D01*
X222261Y499678D01*
X222264Y499703D01*
X222242Y499798D01*
X222226Y499895D01*
X222214Y499916D01*
X222208Y499940D01*
X222157Y500024D01*
X222111Y500110D01*
X222093Y500127D01*
X222080Y500148D01*
X222004Y500210D01*
X221933Y500277D01*
X221910Y500287D01*
X221891Y500303D01*
X221800Y500337D01*
X221710Y500378D01*
X221686Y500380D01*
X221663Y500389D01*
X221516Y500403D01*
X221425Y500403D01*
X218463Y503365D01*
X218463Y507555D01*
X221425Y510517D01*
X225615Y510517D01*
X228577Y507555D01*
X228577Y503365D01*
X227534Y502323D01*
X227477Y502243D01*
X227415Y502168D01*
X227407Y502145D01*
X227392Y502125D01*
X227364Y502031D01*
X227329Y501940D01*
X227326Y501907D01*
X227321Y501891D01*
X227322Y501866D01*
X227315Y501793D01*
X227315Y491098D01*
X227331Y491002D01*
X227340Y490905D01*
X227350Y490882D01*
X227354Y490858D01*
X227401Y490771D01*
X227441Y490682D01*
X227458Y490664D01*
X227469Y490642D01*
X227541Y490576D01*
X227608Y490504D01*
X227629Y490493D01*
X227647Y490476D01*
X227736Y490435D01*
X227823Y490389D01*
X227847Y490385D01*
X227870Y490375D01*
X227967Y490365D01*
X228063Y490349D01*
X228088Y490353D01*
X228113Y490351D01*
X228208Y490373D01*
X228304Y490389D01*
X228326Y490400D01*
X228350Y490406D01*
X228433Y490458D01*
X228520Y490504D01*
X228536Y490522D01*
X228558Y490535D01*
X228620Y490610D01*
X228687Y490682D01*
X228702Y490710D01*
X228712Y490723D01*
X228721Y490746D01*
X228756Y490812D01*
X229740Y493187D01*
X232813Y496260D01*
X236827Y497923D01*
X241173Y497923D01*
X245187Y496260D01*
X247339Y494108D01*
X247399Y494065D01*
X247453Y494015D01*
X247497Y493994D01*
X247538Y493966D01*
X247608Y493944D01*
X247675Y493914D01*
X247724Y493909D01*
X247771Y493895D01*
X247844Y493897D01*
X247918Y493890D01*
X247966Y493901D01*
X248015Y493903D01*
X248084Y493929D01*
X248155Y493945D01*
X248197Y493971D01*
X248243Y493989D01*
X248300Y494035D01*
X248363Y494074D01*
X248394Y494112D01*
X248432Y494143D01*
X248471Y494206D01*
X248518Y494262D01*
X248535Y494308D01*
X248561Y494350D01*
X248578Y494422D01*
X248604Y494491D01*
X248611Y494564D01*
X248617Y494588D01*
X248615Y494605D01*
X248618Y494638D01*
X248618Y512000D01*
X248614Y512024D01*
X248617Y512049D01*
X248595Y512144D01*
X248579Y512241D01*
X248567Y512262D01*
X248561Y512286D01*
X248510Y512370D01*
X248464Y512456D01*
X248446Y512473D01*
X248433Y512494D01*
X248357Y512556D01*
X248286Y512623D01*
X248263Y512633D01*
X248244Y512649D01*
X248153Y512683D01*
X248063Y512724D01*
X248039Y512726D01*
X248016Y512735D01*
X247869Y512749D01*
X212321Y512749D01*
X212297Y512745D01*
X212272Y512748D01*
X212177Y512726D01*
X212080Y512710D01*
X212059Y512698D01*
X212035Y512692D01*
X211951Y512641D01*
X211865Y512595D01*
X211848Y512577D01*
X211827Y512564D01*
X211765Y512488D01*
X211698Y512417D01*
X211688Y512394D01*
X211672Y512375D01*
X211638Y512284D01*
X211597Y512194D01*
X211595Y512170D01*
X211586Y512147D01*
X211572Y512000D01*
X211572Y511013D01*
X210177Y509618D01*
X39823Y509618D01*
X38428Y511013D01*
X38428Y512000D01*
X38424Y512024D01*
X38427Y512049D01*
X38405Y512144D01*
X38389Y512241D01*
X38377Y512262D01*
X38371Y512286D01*
X38320Y512370D01*
X38274Y512456D01*
X38256Y512473D01*
X38243Y512494D01*
X38167Y512556D01*
X38096Y512623D01*
X38073Y512633D01*
X38054Y512649D01*
X37963Y512683D01*
X37873Y512724D01*
X37849Y512726D01*
X37826Y512735D01*
X37679Y512749D01*
X1131Y512749D01*
X1107Y512745D01*
X1082Y512748D01*
X987Y512725D01*
X890Y512710D01*
X869Y512698D01*
X845Y512692D01*
X761Y512641D01*
X675Y512595D01*
X658Y512577D01*
X637Y512564D01*
X575Y512488D01*
X508Y512416D01*
X498Y512394D01*
X482Y512375D01*
X448Y512284D01*
X407Y512194D01*
X405Y512170D01*
X396Y512147D01*
X382Y512000D01*
X382Y494638D01*
X394Y494565D01*
X396Y494492D01*
X413Y494446D01*
X421Y494397D01*
X456Y494332D01*
X482Y494263D01*
X513Y494225D01*
X536Y494182D01*
X590Y494131D01*
X637Y494075D01*
X679Y494049D01*
X714Y494015D01*
X781Y493984D01*
X844Y493946D01*
X892Y493934D01*
X937Y493914D01*
X1010Y493907D01*
X1081Y493890D01*
X1130Y493895D01*
X1180Y493890D01*
X1251Y493907D01*
X1324Y493914D01*
X1369Y493934D01*
X1417Y493945D01*
X1480Y493984D01*
X1547Y494014D01*
X1603Y494061D01*
X1625Y494074D01*
X1635Y494087D01*
X1661Y494108D01*
X3813Y496260D01*
X7827Y497923D01*
X12173Y497923D01*
X16187Y496260D01*
X19260Y493187D01*
X20923Y489173D01*
X20923Y484827D01*
X19260Y480813D01*
X16187Y477740D01*
X12173Y476077D01*
X7827Y476077D01*
X3813Y477740D01*
X1661Y479892D01*
X1601Y479935D01*
X1547Y479985D01*
X1503Y480006D01*
X1462Y480034D01*
X1392Y480056D01*
X1325Y480086D01*
X1276Y480091D01*
X1229Y480105D01*
X1156Y480103D01*
X1082Y480110D01*
X1034Y480099D01*
X985Y480097D01*
X916Y480071D01*
X845Y480055D01*
X803Y480029D01*
X757Y480011D01*
X700Y479965D01*
X637Y479926D01*
X606Y479888D01*
X568Y479857D01*
X529Y479794D01*
X482Y479738D01*
X465Y479692D01*
X439Y479650D01*
X422Y479578D01*
X396Y479509D01*
X389Y479436D01*
X383Y479412D01*
X385Y479395D01*
X382Y479362D01*
X382Y469238D01*
X394Y469165D01*
X396Y469092D01*
X413Y469046D01*
X421Y468997D01*
X456Y468932D01*
X482Y468863D01*
X513Y468825D01*
X536Y468782D01*
X590Y468731D01*
X637Y468675D01*
X679Y468649D01*
X714Y468615D01*
X781Y468584D01*
X844Y468546D01*
X892Y468534D01*
X937Y468514D01*
X1010Y468507D01*
X1081Y468490D01*
X1130Y468495D01*
X1180Y468490D01*
X1251Y468507D01*
X1324Y468514D01*
X1369Y468534D01*
X1417Y468545D01*
X1480Y468584D01*
X1547Y468614D01*
X1603Y468661D01*
X1625Y468674D01*
X1635Y468687D01*
X1661Y468708D01*
X3813Y470860D01*
X7827Y472523D01*
X12173Y472523D01*
X16187Y470860D01*
X19260Y467787D01*
X20923Y463773D01*
X20923Y459427D01*
X19260Y455413D01*
X16187Y452340D01*
X12173Y450677D01*
X7827Y450677D01*
X3813Y452340D01*
X1661Y454492D01*
X1601Y454535D01*
X1547Y454585D01*
X1503Y454606D01*
X1462Y454634D01*
X1392Y454656D01*
X1325Y454686D01*
X1276Y454691D01*
X1229Y454705D01*
X1156Y454703D01*
X1082Y454710D01*
X1034Y454699D01*
X985Y454697D01*
X916Y454671D01*
X845Y454655D01*
X803Y454629D01*
X757Y454611D01*
X700Y454565D01*
X637Y454526D01*
X606Y454488D01*
X568Y454457D01*
X529Y454394D01*
X482Y454338D01*
X465Y454292D01*
X439Y454250D01*
X422Y454178D01*
X396Y454109D01*
X389Y454036D01*
X383Y454012D01*
X385Y453995D01*
X382Y453962D01*
X382Y443838D01*
X394Y443765D01*
X396Y443692D01*
X413Y443646D01*
X421Y443597D01*
X456Y443532D01*
X482Y443463D01*
X513Y443425D01*
X536Y443382D01*
X590Y443331D01*
X637Y443275D01*
X679Y443249D01*
X714Y443215D01*
X781Y443184D01*
X844Y443146D01*
X892Y443134D01*
X937Y443114D01*
X1010Y443107D01*
X1081Y443090D01*
X1130Y443095D01*
X1180Y443090D01*
X1251Y443107D01*
X1324Y443114D01*
X1369Y443134D01*
X1417Y443145D01*
X1480Y443184D01*
X1547Y443214D01*
X1603Y443261D01*
X1625Y443274D01*
X1635Y443287D01*
X1661Y443308D01*
X3813Y445460D01*
X7827Y447123D01*
X12173Y447123D01*
X16187Y445460D01*
X19260Y442387D01*
X20923Y438373D01*
X20923Y434027D01*
X19260Y430013D01*
X16187Y426940D01*
X12173Y425277D01*
X7827Y425277D01*
X3813Y426940D01*
X1661Y429092D01*
X1601Y429135D01*
X1547Y429185D01*
X1503Y429206D01*
X1462Y429234D01*
X1392Y429256D01*
X1325Y429286D01*
X1276Y429291D01*
X1229Y429305D01*
X1156Y429303D01*
X1082Y429310D01*
X1034Y429299D01*
X985Y429297D01*
X916Y429271D01*
X845Y429255D01*
X803Y429229D01*
X757Y429211D01*
X700Y429165D01*
X637Y429126D01*
X606Y429088D01*
X568Y429057D01*
X529Y428994D01*
X482Y428938D01*
X465Y428892D01*
X439Y428850D01*
X422Y428778D01*
X396Y428709D01*
X389Y428636D01*
X383Y428612D01*
X385Y428595D01*
X382Y428562D01*
X382Y418438D01*
X394Y418365D01*
X396Y418292D01*
X413Y418246D01*
X421Y418197D01*
X456Y418132D01*
X482Y418063D01*
X513Y418025D01*
X536Y417982D01*
X590Y417931D01*
X637Y417875D01*
X679Y417849D01*
X714Y417815D01*
X781Y417784D01*
X844Y417746D01*
X892Y417734D01*
X937Y417714D01*
X1010Y417707D01*
X1081Y417690D01*
X1130Y417695D01*
X1180Y417690D01*
X1251Y417707D01*
X1324Y417714D01*
X1369Y417734D01*
X1417Y417745D01*
X1480Y417784D01*
X1547Y417814D01*
X1603Y417861D01*
X1625Y417874D01*
X1635Y417887D01*
X1661Y417908D01*
X3813Y420060D01*
X7827Y421723D01*
X12173Y421723D01*
X16187Y420060D01*
X19260Y416987D01*
X20923Y412973D01*
X20923Y408627D01*
X19260Y404613D01*
X16187Y401540D01*
X12173Y399877D01*
X7827Y399877D01*
X3813Y401540D01*
X1661Y403692D01*
X1601Y403735D01*
X1547Y403785D01*
X1503Y403806D01*
X1462Y403834D01*
X1392Y403856D01*
X1325Y403886D01*
X1276Y403891D01*
X1229Y403905D01*
X1156Y403903D01*
X1082Y403910D01*
X1034Y403899D01*
X985Y403897D01*
X916Y403871D01*
X845Y403855D01*
X803Y403829D01*
X757Y403811D01*
X700Y403765D01*
X637Y403726D01*
X606Y403688D01*
X568Y403657D01*
X529Y403594D01*
X482Y403538D01*
X465Y403492D01*
X439Y403450D01*
X422Y403378D01*
X396Y403309D01*
X389Y403236D01*
X383Y403212D01*
X385Y403195D01*
X382Y403162D01*
X382Y393038D01*
X394Y392965D01*
X396Y392892D01*
X413Y392846D01*
X421Y392797D01*
X456Y392732D01*
X482Y392663D01*
X513Y392625D01*
X536Y392582D01*
X590Y392531D01*
X637Y392475D01*
X679Y392449D01*
X714Y392415D01*
X781Y392384D01*
X844Y392346D01*
X892Y392334D01*
X937Y392314D01*
X1010Y392307D01*
X1081Y392290D01*
X1130Y392295D01*
X1180Y392290D01*
X1251Y392307D01*
X1324Y392314D01*
X1369Y392334D01*
X1417Y392345D01*
X1480Y392384D01*
X1547Y392414D01*
X1603Y392461D01*
X1625Y392474D01*
X1635Y392487D01*
X1661Y392508D01*
X3813Y394660D01*
X7827Y396323D01*
X12173Y396323D01*
X16187Y394660D01*
X19260Y391587D01*
X20923Y387573D01*
X20923Y383227D01*
X19260Y379213D01*
X16187Y376140D01*
X12173Y374477D01*
X7827Y374477D01*
X3813Y376140D01*
X1661Y378292D01*
X1601Y378335D01*
X1547Y378385D01*
X1503Y378406D01*
X1462Y378434D01*
X1392Y378456D01*
X1325Y378486D01*
X1276Y378491D01*
X1229Y378505D01*
X1156Y378503D01*
X1082Y378510D01*
X1034Y378499D01*
X985Y378497D01*
X916Y378471D01*
X845Y378455D01*
X803Y378429D01*
X757Y378411D01*
X700Y378365D01*
X637Y378326D01*
X606Y378288D01*
X568Y378257D01*
X529Y378194D01*
X482Y378138D01*
X465Y378092D01*
X439Y378050D01*
X422Y377978D01*
X396Y377909D01*
X389Y377836D01*
X383Y377812D01*
X385Y377795D01*
X382Y377762D01*
X382Y367638D01*
X394Y367565D01*
X396Y367492D01*
X413Y367446D01*
X421Y367397D01*
X456Y367332D01*
X482Y367263D01*
X513Y367225D01*
X536Y367182D01*
X590Y367131D01*
X637Y367075D01*
X679Y367049D01*
X714Y367015D01*
X781Y366984D01*
X844Y366946D01*
X892Y366934D01*
X937Y366914D01*
X1010Y366907D01*
X1081Y366890D01*
X1130Y366895D01*
X1180Y366890D01*
X1251Y366907D01*
X1324Y366914D01*
X1369Y366934D01*
X1417Y366945D01*
X1480Y366984D01*
X1547Y367014D01*
X1603Y367061D01*
X1625Y367074D01*
X1635Y367087D01*
X1661Y367108D01*
X3813Y369260D01*
X7827Y370923D01*
X12173Y370923D01*
X16187Y369260D01*
X19260Y366187D01*
X20923Y362173D01*
X20923Y357827D01*
X19260Y353813D01*
X16187Y350740D01*
X12173Y349077D01*
X7827Y349077D01*
X3813Y350740D01*
X1661Y352892D01*
X1601Y352935D01*
X1547Y352985D01*
X1503Y353006D01*
X1462Y353034D01*
X1392Y353056D01*
X1325Y353086D01*
X1276Y353091D01*
X1229Y353105D01*
X1156Y353103D01*
X1082Y353110D01*
X1034Y353099D01*
X985Y353097D01*
X916Y353071D01*
X845Y353055D01*
X803Y353029D01*
X757Y353011D01*
X700Y352965D01*
X637Y352926D01*
X606Y352888D01*
X568Y352857D01*
X529Y352794D01*
X482Y352738D01*
X465Y352692D01*
X439Y352650D01*
X422Y352578D01*
X396Y352509D01*
X389Y352436D01*
X383Y352412D01*
X385Y352395D01*
X382Y352362D01*
X382Y342238D01*
X384Y342225D01*
X383Y342219D01*
X389Y342196D01*
X394Y342165D01*
X396Y342092D01*
X413Y342046D01*
X421Y341997D01*
X456Y341932D01*
X482Y341863D01*
X513Y341825D01*
X536Y341782D01*
X590Y341731D01*
X637Y341675D01*
X679Y341649D01*
X714Y341615D01*
X781Y341584D01*
X844Y341546D01*
X892Y341534D01*
X937Y341514D01*
X1010Y341507D01*
X1081Y341490D01*
X1130Y341495D01*
X1180Y341490D01*
X1251Y341507D01*
X1324Y341514D01*
X1369Y341534D01*
X1417Y341545D01*
X1480Y341584D01*
X1547Y341614D01*
X1603Y341661D01*
X1625Y341674D01*
X1635Y341687D01*
X1661Y341708D01*
X3813Y343860D01*
X7827Y345523D01*
X12173Y345523D01*
X16187Y343860D01*
X19260Y340787D01*
X20923Y336773D01*
X20923Y332427D01*
X19260Y328413D01*
X16187Y325340D01*
X12173Y323677D01*
X7827Y323677D01*
X3813Y325340D01*
X1661Y327492D01*
X1601Y327535D01*
X1547Y327585D01*
X1503Y327606D01*
X1462Y327634D01*
X1392Y327656D01*
X1325Y327686D01*
X1276Y327691D01*
X1229Y327705D01*
X1156Y327703D01*
X1082Y327710D01*
X1034Y327699D01*
X985Y327697D01*
X916Y327671D01*
X845Y327655D01*
X803Y327629D01*
X757Y327611D01*
X700Y327565D01*
X637Y327526D01*
X606Y327488D01*
X568Y327457D01*
X529Y327394D01*
X482Y327338D01*
X465Y327292D01*
X439Y327250D01*
X422Y327178D01*
X396Y327109D01*
X389Y327036D01*
X383Y327012D01*
X385Y326995D01*
X382Y326962D01*
X382Y316838D01*
X394Y316765D01*
X396Y316692D01*
X413Y316646D01*
X421Y316597D01*
X456Y316532D01*
X482Y316463D01*
X513Y316425D01*
X536Y316382D01*
X590Y316331D01*
X637Y316275D01*
X679Y316249D01*
X714Y316215D01*
X781Y316184D01*
X844Y316146D01*
X892Y316134D01*
X937Y316114D01*
X1010Y316107D01*
X1081Y316090D01*
X1130Y316095D01*
X1180Y316090D01*
X1251Y316107D01*
X1324Y316114D01*
X1369Y316134D01*
X1417Y316145D01*
X1480Y316184D01*
X1547Y316214D01*
X1603Y316261D01*
X1625Y316274D01*
X1635Y316287D01*
X1661Y316308D01*
X3813Y318460D01*
X7827Y320123D01*
X12173Y320123D01*
X16187Y318460D01*
X19260Y315387D01*
X20824Y311610D01*
X20850Y311568D01*
X20868Y311522D01*
X20914Y311465D01*
X20953Y311403D01*
X20991Y311372D01*
X21022Y311334D01*
X21085Y311295D01*
X21142Y311248D01*
X21188Y311231D01*
X21229Y311205D01*
X21301Y311188D01*
X21370Y311162D01*
X21419Y311160D01*
X21467Y311149D01*
X21540Y311156D01*
X21614Y311154D01*
X21661Y311168D01*
X21710Y311173D01*
X21777Y311203D01*
X21848Y311225D01*
X21887Y311253D01*
X21932Y311273D01*
X22046Y311366D01*
X22046Y311367D01*
X28164Y317485D01*
X45634Y317485D01*
X45730Y317501D01*
X45827Y317510D01*
X45850Y317520D01*
X45875Y317524D01*
X45961Y317570D01*
X46049Y317611D01*
X46075Y317632D01*
X46090Y317639D01*
X46107Y317658D01*
X46164Y317704D01*
X50604Y322144D01*
X50661Y322224D01*
X50723Y322299D01*
X50731Y322322D01*
X50746Y322343D01*
X50774Y322436D01*
X50809Y322527D01*
X50812Y322560D01*
X50817Y322576D01*
X50816Y322601D01*
X50823Y322674D01*
X50823Y325945D01*
X53785Y328907D01*
X57975Y328907D01*
X60937Y325945D01*
X60937Y321755D01*
X57975Y318793D01*
X54704Y318793D01*
X54608Y318777D01*
X54511Y318768D01*
X54488Y318758D01*
X54463Y318754D01*
X54377Y318707D01*
X54289Y318667D01*
X54263Y318646D01*
X54248Y318639D01*
X54231Y318620D01*
X54174Y318574D01*
X53086Y317486D01*
X53044Y317426D01*
X52993Y317372D01*
X52973Y317328D01*
X52944Y317287D01*
X52923Y317217D01*
X52892Y317150D01*
X52888Y317101D01*
X52873Y317054D01*
X52876Y316981D01*
X52868Y316907D01*
X52880Y316859D01*
X52881Y316810D01*
X52907Y316741D01*
X52924Y316670D01*
X52950Y316628D01*
X52967Y316582D01*
X53014Y316525D01*
X53052Y316462D01*
X53090Y316431D01*
X53122Y316393D01*
X53184Y316354D01*
X53241Y316307D01*
X53287Y316290D01*
X53329Y316264D01*
X53400Y316247D01*
X53469Y316221D01*
X53542Y316214D01*
X53566Y316208D01*
X53583Y316210D01*
X53616Y316207D01*
X57975Y316207D01*
X60937Y313245D01*
X60937Y309055D01*
X57975Y306093D01*
X53785Y306093D01*
X51473Y308406D01*
X51393Y308463D01*
X51318Y308525D01*
X51295Y308533D01*
X51275Y308548D01*
X51181Y308576D01*
X51090Y308611D01*
X51057Y308614D01*
X51041Y308619D01*
X51016Y308618D01*
X50943Y308625D01*
X32820Y308625D01*
X32724Y308609D01*
X32627Y308600D01*
X32604Y308590D01*
X32579Y308586D01*
X32493Y308540D01*
X32405Y308499D01*
X32379Y308478D01*
X32364Y308471D01*
X32347Y308452D01*
X32290Y308406D01*
X29128Y305244D01*
X29071Y305164D01*
X29009Y305089D01*
X29001Y305066D01*
X28986Y305045D01*
X28958Y304952D01*
X28923Y304861D01*
X28920Y304828D01*
X28915Y304812D01*
X28916Y304787D01*
X28909Y304714D01*
X28909Y243354D01*
X24666Y239112D01*
X24609Y239033D01*
X24547Y238957D01*
X24539Y238934D01*
X24524Y238914D01*
X24496Y238820D01*
X24461Y238729D01*
X24458Y238696D01*
X24453Y238680D01*
X24454Y238655D01*
X24447Y238582D01*
X24447Y221596D01*
X24459Y221524D01*
X24461Y221450D01*
X24478Y221404D01*
X24486Y221355D01*
X24521Y221291D01*
X24547Y221222D01*
X24578Y221184D01*
X24601Y221140D01*
X24655Y221090D01*
X24702Y221033D01*
X24743Y221007D01*
X24779Y220973D01*
X24846Y220943D01*
X24909Y220904D01*
X24957Y220893D01*
X25002Y220872D01*
X25075Y220865D01*
X25146Y220848D01*
X25195Y220853D01*
X25245Y220848D01*
X25316Y220865D01*
X25389Y220872D01*
X25434Y220892D01*
X25482Y220904D01*
X25545Y220942D01*
X25612Y220973D01*
X25668Y221019D01*
X25690Y221032D01*
X25700Y221045D01*
X25726Y221066D01*
X29006Y224346D01*
X30704Y226045D01*
X58563Y226045D01*
X58659Y226061D01*
X58756Y226070D01*
X58779Y226080D01*
X58804Y226084D01*
X58890Y226130D01*
X58979Y226171D01*
X59004Y226192D01*
X59019Y226199D01*
X59036Y226218D01*
X59093Y226264D01*
X61405Y228577D01*
X65595Y228577D01*
X68557Y225615D01*
X68557Y221425D01*
X65595Y218463D01*
X61405Y218463D01*
X59093Y220776D01*
X59013Y220833D01*
X58938Y220895D01*
X58915Y220903D01*
X58895Y220918D01*
X58801Y220946D01*
X58710Y220981D01*
X58677Y220984D01*
X58661Y220989D01*
X58636Y220988D01*
X58563Y220995D01*
X33106Y220995D01*
X33010Y220979D01*
X32913Y220970D01*
X32890Y220960D01*
X32865Y220956D01*
X32779Y220910D01*
X32691Y220869D01*
X32665Y220848D01*
X32650Y220841D01*
X32633Y220822D01*
X32576Y220776D01*
X24666Y212866D01*
X24609Y212786D01*
X24547Y212711D01*
X24539Y212688D01*
X24524Y212667D01*
X24496Y212574D01*
X24461Y212483D01*
X24458Y212450D01*
X24453Y212434D01*
X24454Y212409D01*
X24447Y212336D01*
X24447Y193076D01*
X19760Y188389D01*
X19680Y188279D01*
X19618Y188191D01*
X19583Y188077D01*
X19547Y187958D01*
X19547Y187957D01*
X19551Y187821D01*
X19554Y187714D01*
X19555Y187714D01*
X19555Y187713D01*
X19597Y187573D01*
X20923Y184373D01*
X20923Y180027D01*
X19260Y176013D01*
X16187Y172940D01*
X12173Y171277D01*
X7827Y171277D01*
X3813Y172940D01*
X1661Y175092D01*
X1601Y175135D01*
X1547Y175185D01*
X1503Y175206D01*
X1462Y175234D01*
X1392Y175256D01*
X1325Y175286D01*
X1276Y175291D01*
X1229Y175305D01*
X1156Y175303D01*
X1082Y175310D01*
X1034Y175299D01*
X985Y175297D01*
X916Y175271D01*
X845Y175255D01*
X803Y175229D01*
X757Y175211D01*
X700Y175165D01*
X637Y175126D01*
X606Y175088D01*
X568Y175057D01*
X529Y174994D01*
X482Y174938D01*
X465Y174892D01*
X439Y174850D01*
X422Y174778D01*
X396Y174709D01*
X389Y174636D01*
X383Y174612D01*
X385Y174595D01*
X382Y174562D01*
X382Y164438D01*
X394Y164365D01*
X396Y164292D01*
X413Y164246D01*
X421Y164197D01*
X456Y164132D01*
X482Y164063D01*
X513Y164025D01*
X536Y163982D01*
X590Y163931D01*
X637Y163875D01*
X679Y163849D01*
X714Y163815D01*
X781Y163784D01*
X844Y163746D01*
X892Y163734D01*
X937Y163714D01*
X1010Y163707D01*
X1081Y163690D01*
X1130Y163695D01*
X1180Y163690D01*
X1251Y163707D01*
X1324Y163714D01*
X1369Y163734D01*
X1417Y163745D01*
X1480Y163784D01*
X1547Y163814D01*
X1603Y163861D01*
X1625Y163874D01*
X1635Y163887D01*
X1661Y163908D01*
X3813Y166060D01*
X7827Y167723D01*
X12173Y167723D01*
X16187Y166060D01*
X19260Y162987D01*
X20923Y158973D01*
X20923Y154627D01*
X19260Y150613D01*
X16187Y147540D01*
X12173Y145877D01*
X7827Y145877D01*
X3813Y147540D01*
X1661Y149692D01*
X1601Y149735D01*
X1547Y149785D01*
X1503Y149806D01*
X1462Y149834D01*
X1392Y149856D01*
X1325Y149886D01*
X1276Y149891D01*
X1229Y149905D01*
X1156Y149903D01*
X1082Y149910D01*
X1034Y149899D01*
X985Y149897D01*
X916Y149871D01*
X845Y149855D01*
X803Y149829D01*
X757Y149811D01*
X700Y149765D01*
X637Y149726D01*
X606Y149688D01*
X568Y149657D01*
X529Y149594D01*
X482Y149538D01*
X465Y149492D01*
X439Y149450D01*
X422Y149378D01*
X396Y149309D01*
X389Y149236D01*
X383Y149212D01*
X385Y149195D01*
X382Y149162D01*
X382Y139038D01*
X394Y138965D01*
X396Y138892D01*
X413Y138846D01*
X421Y138797D01*
X456Y138732D01*
X482Y138663D01*
X513Y138625D01*
X536Y138582D01*
X590Y138531D01*
X637Y138475D01*
X679Y138449D01*
X714Y138415D01*
X781Y138384D01*
X844Y138346D01*
X892Y138334D01*
X937Y138314D01*
X1010Y138307D01*
X1081Y138290D01*
X1130Y138295D01*
X1180Y138290D01*
X1251Y138307D01*
X1324Y138314D01*
X1369Y138334D01*
X1417Y138345D01*
X1480Y138384D01*
X1547Y138414D01*
X1603Y138461D01*
X1625Y138474D01*
X1635Y138487D01*
X1661Y138508D01*
X3813Y140660D01*
X7827Y142323D01*
X12173Y142323D01*
X16187Y140660D01*
X19260Y137587D01*
X19947Y135927D01*
X20002Y135839D01*
X20076Y135720D01*
X20168Y135645D01*
X20264Y135565D01*
X20265Y135565D01*
X20397Y135515D01*
X20493Y135479D01*
X20494Y135479D01*
X20640Y135465D01*
X30746Y135465D01*
X30770Y135469D01*
X30795Y135466D01*
X30890Y135488D01*
X30987Y135504D01*
X31008Y135516D01*
X31032Y135522D01*
X31116Y135573D01*
X31202Y135619D01*
X31219Y135637D01*
X31240Y135650D01*
X31302Y135726D01*
X31369Y135797D01*
X31379Y135820D01*
X31395Y135839D01*
X31429Y135930D01*
X31470Y136020D01*
X31472Y136044D01*
X31481Y136067D01*
X31495Y136214D01*
X31495Y173134D01*
X71916Y213554D01*
X71973Y213634D01*
X72035Y213709D01*
X72043Y213732D01*
X72058Y213753D01*
X72086Y213846D01*
X72121Y213937D01*
X72124Y213970D01*
X72129Y213986D01*
X72128Y214011D01*
X72135Y214084D01*
X72135Y243116D01*
X72119Y243212D01*
X72110Y243309D01*
X72100Y243332D01*
X72096Y243357D01*
X72050Y243443D01*
X72009Y243532D01*
X71988Y243557D01*
X71981Y243572D01*
X71962Y243589D01*
X71916Y243646D01*
X51815Y263746D01*
X51815Y295053D01*
X51799Y295149D01*
X51790Y295246D01*
X51780Y295269D01*
X51776Y295294D01*
X51748Y295345D01*
X51747Y295351D01*
X51734Y295371D01*
X51730Y295380D01*
X51689Y295469D01*
X51668Y295494D01*
X51661Y295509D01*
X51642Y295526D01*
X51625Y295548D01*
X51618Y295558D01*
X51612Y295564D01*
X51596Y295583D01*
X50823Y296355D01*
X50823Y300545D01*
X53785Y303507D01*
X57975Y303507D01*
X58747Y302734D01*
X58826Y302677D01*
X58902Y302615D01*
X58925Y302607D01*
X58945Y302592D01*
X59039Y302564D01*
X59130Y302529D01*
X59163Y302526D01*
X59179Y302521D01*
X59204Y302522D01*
X59277Y302515D01*
X62776Y302515D01*
X62872Y302531D01*
X62969Y302540D01*
X62992Y302550D01*
X63017Y302554D01*
X63103Y302600D01*
X63192Y302641D01*
X63217Y302662D01*
X63232Y302669D01*
X63249Y302688D01*
X63306Y302734D01*
X68106Y307534D01*
X68163Y307614D01*
X68225Y307689D01*
X68233Y307712D01*
X68248Y307733D01*
X68276Y307826D01*
X68311Y307917D01*
X68314Y307950D01*
X68319Y307966D01*
X68318Y307991D01*
X68325Y308064D01*
X68325Y350934D01*
X70926Y353534D01*
X73186Y355794D01*
X75786Y358395D01*
X121196Y358395D01*
X121292Y358411D01*
X121389Y358420D01*
X121412Y358430D01*
X121437Y358434D01*
X121523Y358480D01*
X121612Y358521D01*
X121637Y358542D01*
X121652Y358549D01*
X121669Y358568D01*
X121726Y358614D01*
X125256Y362144D01*
X125313Y362224D01*
X125375Y362299D01*
X125383Y362322D01*
X125398Y362343D01*
X125426Y362436D01*
X125461Y362527D01*
X125464Y362560D01*
X125469Y362576D01*
X125468Y362601D01*
X125475Y362674D01*
X125475Y439686D01*
X125472Y439704D01*
X125474Y439719D01*
X125473Y439723D01*
X125474Y439735D01*
X125452Y439830D01*
X125436Y439927D01*
X125424Y439948D01*
X125418Y439972D01*
X125367Y440056D01*
X125321Y440142D01*
X125303Y440159D01*
X125290Y440180D01*
X125214Y440242D01*
X125143Y440309D01*
X125120Y440319D01*
X125101Y440335D01*
X125010Y440369D01*
X124920Y440410D01*
X124896Y440412D01*
X124873Y440421D01*
X124726Y440435D01*
X102288Y440435D01*
X102192Y440419D01*
X102095Y440410D01*
X102072Y440400D01*
X102047Y440396D01*
X101961Y440350D01*
X101872Y440309D01*
X101847Y440288D01*
X101832Y440281D01*
X101818Y440266D01*
X101816Y440265D01*
X101811Y440259D01*
X101758Y440216D01*
X101470Y439927D01*
X77346Y439927D01*
X76453Y440820D01*
X76453Y448180D01*
X77346Y449073D01*
X86134Y449073D01*
X86158Y449077D01*
X86183Y449074D01*
X86278Y449096D01*
X86375Y449112D01*
X86396Y449124D01*
X86420Y449130D01*
X86504Y449181D01*
X86590Y449227D01*
X86607Y449245D01*
X86628Y449258D01*
X86690Y449334D01*
X86757Y449405D01*
X86767Y449428D01*
X86783Y449447D01*
X86817Y449538D01*
X86858Y449628D01*
X86860Y449652D01*
X86869Y449675D01*
X86883Y449822D01*
X86883Y453871D01*
X86867Y453967D01*
X86858Y454064D01*
X86848Y454087D01*
X86844Y454112D01*
X86798Y454198D01*
X86757Y454286D01*
X86736Y454312D01*
X86729Y454327D01*
X86710Y454344D01*
X86664Y454401D01*
X85435Y455629D01*
X85435Y461311D01*
X86916Y462791D01*
X86973Y462871D01*
X87035Y462946D01*
X87043Y462969D01*
X87058Y462990D01*
X87086Y463083D01*
X87121Y463174D01*
X87124Y463207D01*
X87129Y463223D01*
X87128Y463248D01*
X87135Y463321D01*
X87135Y464550D01*
X87131Y464574D01*
X87134Y464599D01*
X87112Y464694D01*
X87096Y464791D01*
X87084Y464812D01*
X87078Y464836D01*
X87027Y464920D01*
X86981Y465006D01*
X86963Y465023D01*
X86950Y465044D01*
X86874Y465106D01*
X86803Y465173D01*
X86780Y465183D01*
X86761Y465199D01*
X86670Y465233D01*
X86580Y465274D01*
X86556Y465276D01*
X86533Y465285D01*
X86386Y465299D01*
X86234Y465299D01*
X85776Y465758D01*
X85756Y465772D01*
X85740Y465791D01*
X85657Y465843D01*
X85578Y465900D01*
X85554Y465907D01*
X85533Y465920D01*
X85438Y465942D01*
X85344Y465971D01*
X85320Y465970D01*
X85296Y465976D01*
X85198Y465966D01*
X85100Y465963D01*
X85077Y465954D01*
X85053Y465952D01*
X84963Y465912D01*
X84872Y465877D01*
X84853Y465862D01*
X84830Y465852D01*
X84716Y465758D01*
X84258Y465299D01*
X77594Y465299D01*
X76701Y466193D01*
X76701Y466626D01*
X76697Y466650D01*
X76700Y466675D01*
X76678Y466770D01*
X76662Y466867D01*
X76650Y466888D01*
X76644Y466912D01*
X76593Y466996D01*
X76547Y467082D01*
X76529Y467099D01*
X76516Y467120D01*
X76440Y467182D01*
X76369Y467249D01*
X76346Y467259D01*
X76327Y467275D01*
X76236Y467309D01*
X76146Y467350D01*
X76122Y467352D01*
X76099Y467361D01*
X75952Y467375D01*
X75016Y467375D01*
X74920Y467359D01*
X74823Y467350D01*
X74800Y467340D01*
X74775Y467336D01*
X74689Y467290D01*
X74601Y467249D01*
X74575Y467228D01*
X74560Y467221D01*
X74543Y467202D01*
X74486Y467156D01*
X72594Y465264D01*
X72537Y465184D01*
X72475Y465109D01*
X72467Y465086D01*
X72452Y465065D01*
X72424Y464972D01*
X72389Y464881D01*
X72386Y464848D01*
X72381Y464832D01*
X72382Y464807D01*
X72375Y464734D01*
X72375Y436966D01*
X72391Y436870D01*
X72400Y436773D01*
X72410Y436750D01*
X72414Y436725D01*
X72460Y436639D01*
X72501Y436551D01*
X72522Y436525D01*
X72529Y436510D01*
X72548Y436493D01*
X72594Y436436D01*
X74486Y434544D01*
X74566Y434487D01*
X74641Y434425D01*
X74664Y434417D01*
X74685Y434402D01*
X74778Y434374D01*
X74869Y434339D01*
X74902Y434336D01*
X74918Y434331D01*
X74943Y434332D01*
X75016Y434325D01*
X75704Y434325D01*
X75728Y434329D01*
X75753Y434326D01*
X75848Y434348D01*
X75945Y434364D01*
X75966Y434376D01*
X75990Y434382D01*
X76074Y434433D01*
X76160Y434479D01*
X76177Y434497D01*
X76198Y434510D01*
X76260Y434586D01*
X76327Y434657D01*
X76337Y434680D01*
X76353Y434699D01*
X76387Y434790D01*
X76428Y434880D01*
X76430Y434904D01*
X76439Y434927D01*
X76453Y435074D01*
X76453Y435480D01*
X77346Y436373D01*
X101470Y436373D01*
X102363Y435480D01*
X102363Y428120D01*
X101470Y427227D01*
X77346Y427227D01*
X76453Y428120D01*
X76453Y428526D01*
X76449Y428550D01*
X76452Y428575D01*
X76430Y428670D01*
X76414Y428767D01*
X76402Y428788D01*
X76396Y428812D01*
X76345Y428896D01*
X76299Y428982D01*
X76281Y428999D01*
X76268Y429020D01*
X76192Y429082D01*
X76121Y429149D01*
X76098Y429159D01*
X76079Y429175D01*
X75988Y429209D01*
X75898Y429250D01*
X75874Y429252D01*
X75851Y429261D01*
X75704Y429275D01*
X72614Y429275D01*
X67325Y434564D01*
X67325Y467136D01*
X72614Y472425D01*
X75952Y472425D01*
X75976Y472429D01*
X76001Y472426D01*
X76096Y472448D01*
X76193Y472464D01*
X76214Y472476D01*
X76238Y472482D01*
X76322Y472533D01*
X76408Y472579D01*
X76425Y472597D01*
X76446Y472610D01*
X76508Y472686D01*
X76575Y472757D01*
X76585Y472780D01*
X76601Y472799D01*
X76635Y472890D01*
X76676Y472980D01*
X76678Y473004D01*
X76687Y473027D01*
X76701Y473174D01*
X76701Y473456D01*
X77594Y474349D01*
X84258Y474349D01*
X84716Y473890D01*
X84736Y473876D01*
X84752Y473857D01*
X84835Y473805D01*
X84915Y473748D01*
X84938Y473741D01*
X84959Y473728D01*
X85054Y473706D01*
X85148Y473677D01*
X85173Y473678D01*
X85196Y473672D01*
X85294Y473682D01*
X85392Y473685D01*
X85415Y473694D01*
X85439Y473696D01*
X85529Y473736D01*
X85620Y473771D01*
X85639Y473786D01*
X85662Y473797D01*
X85776Y473890D01*
X86234Y474349D01*
X92898Y474349D01*
X93791Y473456D01*
X93791Y466193D01*
X92895Y465297D01*
X92885Y465298D01*
X92790Y465276D01*
X92693Y465260D01*
X92672Y465248D01*
X92648Y465243D01*
X92564Y465191D01*
X92478Y465145D01*
X92461Y465127D01*
X92440Y465114D01*
X92378Y465038D01*
X92311Y464967D01*
X92301Y464944D01*
X92285Y464925D01*
X92251Y464834D01*
X92210Y464744D01*
X92208Y464720D01*
X92199Y464697D01*
X92185Y464550D01*
X92185Y463321D01*
X92201Y463225D01*
X92210Y463128D01*
X92220Y463105D01*
X92224Y463080D01*
X92270Y462994D01*
X92311Y462906D01*
X92332Y462880D01*
X92339Y462865D01*
X92358Y462848D01*
X92404Y462791D01*
X92732Y462464D01*
X92752Y462449D01*
X92767Y462430D01*
X92850Y462379D01*
X92930Y462322D01*
X92954Y462314D01*
X92974Y462301D01*
X93070Y462279D01*
X93164Y462251D01*
X93188Y462251D01*
X93212Y462246D01*
X93309Y462255D01*
X93407Y462259D01*
X93430Y462267D01*
X93455Y462270D01*
X93544Y462310D01*
X93636Y462344D01*
X93655Y462360D01*
X93677Y462370D01*
X93791Y462464D01*
X94561Y463233D01*
X95448Y463746D01*
X96438Y464011D01*
X96951Y464011D01*
X96951Y459070D01*
X96955Y459046D01*
X96952Y459022D01*
X96974Y458926D01*
X96990Y458829D01*
X97002Y458808D01*
X97008Y458784D01*
X97059Y458701D01*
X97105Y458614D01*
X97123Y458598D01*
X97136Y458577D01*
X97212Y458514D01*
X97258Y458472D01*
X97244Y458464D01*
X97227Y458446D01*
X97206Y458434D01*
X97144Y458358D01*
X97077Y458286D01*
X97067Y458264D01*
X97051Y458245D01*
X97017Y458153D01*
X96976Y458064D01*
X96974Y458040D01*
X96965Y458017D01*
X96951Y457870D01*
X96951Y452929D01*
X96438Y452929D01*
X95448Y453194D01*
X94561Y453707D01*
X93791Y454476D01*
X93771Y454491D01*
X93756Y454510D01*
X93673Y454561D01*
X93593Y454618D01*
X93570Y454626D01*
X93549Y454639D01*
X93454Y454661D01*
X93360Y454689D01*
X93335Y454689D01*
X93311Y454694D01*
X93214Y454685D01*
X93116Y454681D01*
X93093Y454673D01*
X93068Y454670D01*
X92979Y454630D01*
X92887Y454596D01*
X92868Y454580D01*
X92846Y454570D01*
X92732Y454476D01*
X92152Y453897D01*
X92095Y453818D01*
X92033Y453742D01*
X92025Y453719D01*
X92010Y453698D01*
X91982Y453605D01*
X91947Y453514D01*
X91944Y453481D01*
X91939Y453465D01*
X91940Y453440D01*
X91933Y453367D01*
X91933Y449822D01*
X91937Y449798D01*
X91934Y449773D01*
X91956Y449678D01*
X91972Y449581D01*
X91984Y449560D01*
X91990Y449536D01*
X92041Y449452D01*
X92087Y449366D01*
X92105Y449349D01*
X92118Y449328D01*
X92194Y449266D01*
X92265Y449199D01*
X92288Y449189D01*
X92307Y449173D01*
X92398Y449139D01*
X92488Y449098D01*
X92512Y449096D01*
X92535Y449087D01*
X92682Y449073D01*
X101470Y449073D01*
X101758Y448784D01*
X101837Y448727D01*
X101913Y448665D01*
X101936Y448657D01*
X101956Y448642D01*
X102050Y448614D01*
X102141Y448579D01*
X102174Y448576D01*
X102190Y448571D01*
X102215Y448572D01*
X102288Y448565D01*
X126276Y448565D01*
X126372Y448581D01*
X126469Y448590D01*
X126492Y448600D01*
X126517Y448604D01*
X126603Y448650D01*
X126692Y448691D01*
X126717Y448712D01*
X126732Y448719D01*
X126749Y448738D01*
X126806Y448784D01*
X140556Y462535D01*
X144197Y462535D01*
X144293Y462551D01*
X144390Y462560D01*
X144413Y462570D01*
X144438Y462574D01*
X144524Y462620D01*
X144613Y462661D01*
X144638Y462682D01*
X144653Y462689D01*
X144670Y462708D01*
X144727Y462754D01*
X144967Y462995D01*
X145025Y462995D01*
X145049Y462999D01*
X145073Y462996D01*
X145169Y463018D01*
X145266Y463034D01*
X145287Y463046D01*
X145311Y463052D01*
X145394Y463103D01*
X145481Y463149D01*
X145498Y463167D01*
X145518Y463180D01*
X145581Y463256D01*
X145648Y463327D01*
X145658Y463350D01*
X145673Y463369D01*
X145708Y463460D01*
X145749Y463550D01*
X145751Y463574D01*
X145760Y463597D01*
X145774Y463744D01*
X145774Y465021D01*
X145770Y465045D01*
X145773Y465070D01*
X145750Y465165D01*
X145734Y465262D01*
X145723Y465284D01*
X145717Y465307D01*
X145666Y465391D01*
X145619Y465477D01*
X145602Y465494D01*
X145589Y465515D01*
X145513Y465577D01*
X145441Y465644D01*
X145419Y465654D01*
X145400Y465670D01*
X145309Y465704D01*
X145219Y465745D01*
X145195Y465747D01*
X145172Y465756D01*
X145025Y465770D01*
X144748Y465770D01*
X143855Y466664D01*
X143855Y473927D01*
X144748Y474820D01*
X151412Y474820D01*
X151870Y474361D01*
X151890Y474347D01*
X151906Y474328D01*
X151989Y474276D01*
X152069Y474219D01*
X152092Y474212D01*
X152113Y474199D01*
X152208Y474177D01*
X152302Y474148D01*
X152327Y474149D01*
X152350Y474143D01*
X152448Y474153D01*
X152546Y474156D01*
X152569Y474165D01*
X152593Y474167D01*
X152683Y474207D01*
X152774Y474242D01*
X152793Y474258D01*
X152816Y474268D01*
X152930Y474361D01*
X153388Y474820D01*
X160052Y474820D01*
X160945Y473927D01*
X160945Y473569D01*
X160949Y473545D01*
X160946Y473521D01*
X160968Y473425D01*
X160984Y473328D01*
X160996Y473307D01*
X161002Y473283D01*
X161053Y473200D01*
X161099Y473113D01*
X161117Y473096D01*
X161130Y473076D01*
X161206Y473013D01*
X161277Y472946D01*
X161300Y472936D01*
X161319Y472921D01*
X161410Y472886D01*
X161500Y472846D01*
X161524Y472843D01*
X161547Y472834D01*
X161694Y472820D01*
X178451Y472820D01*
X185405Y465866D01*
X185405Y423134D01*
X183706Y421436D01*
X178846Y416575D01*
X170676Y416575D01*
X170652Y416571D01*
X170627Y416574D01*
X170532Y416552D01*
X170435Y416536D01*
X170414Y416524D01*
X170390Y416518D01*
X170306Y416467D01*
X170220Y416421D01*
X170203Y416403D01*
X170182Y416390D01*
X170120Y416314D01*
X170053Y416243D01*
X170043Y416220D01*
X170027Y416201D01*
X169993Y416110D01*
X169952Y416020D01*
X169950Y415996D01*
X169941Y415973D01*
X169927Y415826D01*
X169927Y415420D01*
X169034Y414527D01*
X144910Y414527D01*
X144017Y415420D01*
X144017Y422780D01*
X144910Y423673D01*
X169034Y423673D01*
X169927Y422780D01*
X169927Y422374D01*
X169931Y422350D01*
X169928Y422325D01*
X169950Y422230D01*
X169966Y422133D01*
X169978Y422112D01*
X169984Y422088D01*
X170035Y422004D01*
X170081Y421918D01*
X170099Y421901D01*
X170112Y421880D01*
X170188Y421818D01*
X170259Y421751D01*
X170282Y421741D01*
X170301Y421725D01*
X170392Y421691D01*
X170482Y421650D01*
X170506Y421648D01*
X170529Y421639D01*
X170676Y421625D01*
X176444Y421625D01*
X176540Y421641D01*
X176637Y421650D01*
X176660Y421660D01*
X176685Y421664D01*
X176771Y421710D01*
X176859Y421751D01*
X176885Y421772D01*
X176900Y421779D01*
X176917Y421798D01*
X176974Y421844D01*
X180136Y425006D01*
X180193Y425086D01*
X180255Y425161D01*
X180263Y425184D01*
X180278Y425205D01*
X180306Y425298D01*
X180341Y425389D01*
X180344Y425422D01*
X180349Y425438D01*
X180348Y425463D01*
X180355Y425536D01*
X180355Y427935D01*
X180343Y428008D01*
X180341Y428081D01*
X180324Y428127D01*
X180316Y428176D01*
X180281Y428241D01*
X180255Y428309D01*
X180224Y428348D01*
X180201Y428391D01*
X180147Y428441D01*
X180100Y428498D01*
X180058Y428524D01*
X180023Y428558D01*
X179956Y428588D01*
X179893Y428627D01*
X179845Y428638D01*
X179800Y428659D01*
X179727Y428666D01*
X179656Y428683D01*
X179607Y428678D01*
X179557Y428683D01*
X179486Y428666D01*
X179413Y428659D01*
X179368Y428639D01*
X179320Y428628D01*
X179257Y428589D01*
X179190Y428559D01*
X179134Y428512D01*
X179112Y428499D01*
X179102Y428486D01*
X179076Y428465D01*
X177355Y426743D01*
X173165Y426743D01*
X171206Y428703D01*
X171146Y428746D01*
X171092Y428796D01*
X171048Y428816D01*
X171007Y428845D01*
X170937Y428866D01*
X170870Y428897D01*
X170821Y428902D01*
X170774Y428916D01*
X170701Y428914D01*
X170627Y428921D01*
X170579Y428910D01*
X170530Y428908D01*
X170461Y428882D01*
X170390Y428866D01*
X170348Y428840D01*
X170302Y428822D01*
X170245Y428776D01*
X170182Y428737D01*
X170151Y428699D01*
X170113Y428668D01*
X170074Y428605D01*
X170027Y428548D01*
X170010Y428502D01*
X169984Y428460D01*
X169967Y428389D01*
X169941Y428320D01*
X169934Y428247D01*
X169928Y428223D01*
X169930Y428206D01*
X169927Y428173D01*
X169927Y428120D01*
X169034Y427227D01*
X144910Y427227D01*
X144017Y428120D01*
X144017Y435480D01*
X144910Y436373D01*
X169034Y436373D01*
X169927Y435480D01*
X169927Y435427D01*
X169939Y435354D01*
X169941Y435281D01*
X169958Y435235D01*
X169966Y435186D01*
X170001Y435121D01*
X170027Y435053D01*
X170058Y435014D01*
X170081Y434971D01*
X170135Y434921D01*
X170182Y434864D01*
X170224Y434838D01*
X170259Y434804D01*
X170326Y434774D01*
X170389Y434735D01*
X170437Y434724D01*
X170482Y434703D01*
X170555Y434696D01*
X170626Y434679D01*
X170675Y434684D01*
X170725Y434679D01*
X170796Y434696D01*
X170869Y434703D01*
X170914Y434723D01*
X170962Y434734D01*
X171025Y434773D01*
X171092Y434803D01*
X171148Y434850D01*
X171170Y434863D01*
X171180Y434876D01*
X171206Y434897D01*
X173165Y436857D01*
X177355Y436857D01*
X179076Y435135D01*
X179136Y435092D01*
X179190Y435042D01*
X179234Y435022D01*
X179275Y434993D01*
X179345Y434972D01*
X179412Y434941D01*
X179461Y434936D01*
X179508Y434922D01*
X179581Y434924D01*
X179655Y434917D01*
X179703Y434928D01*
X179752Y434930D01*
X179821Y434956D01*
X179892Y434972D01*
X179934Y434998D01*
X179980Y435016D01*
X180037Y435062D01*
X180100Y435101D01*
X180131Y435139D01*
X180169Y435170D01*
X180208Y435233D01*
X180255Y435290D01*
X180272Y435336D01*
X180298Y435378D01*
X180315Y435449D01*
X180341Y435518D01*
X180348Y435591D01*
X180354Y435615D01*
X180352Y435632D01*
X180355Y435665D01*
X180355Y463464D01*
X180339Y463560D01*
X180330Y463657D01*
X180320Y463680D01*
X180316Y463705D01*
X180270Y463791D01*
X180229Y463879D01*
X180208Y463905D01*
X180201Y463920D01*
X180182Y463937D01*
X180136Y463994D01*
X176579Y467551D01*
X176499Y467608D01*
X176424Y467670D01*
X176401Y467679D01*
X176380Y467693D01*
X176287Y467721D01*
X176196Y467756D01*
X176163Y467759D01*
X176147Y467764D01*
X176122Y467763D01*
X176049Y467770D01*
X161694Y467770D01*
X161670Y467766D01*
X161645Y467769D01*
X161550Y467747D01*
X161453Y467731D01*
X161432Y467719D01*
X161408Y467714D01*
X161324Y467662D01*
X161238Y467616D01*
X161221Y467598D01*
X161200Y467585D01*
X161138Y467509D01*
X161071Y467438D01*
X161061Y467415D01*
X161045Y467396D01*
X161011Y467305D01*
X160970Y467215D01*
X160968Y467191D01*
X160959Y467168D01*
X160945Y467021D01*
X160945Y466664D01*
X160052Y465770D01*
X153388Y465770D01*
X152930Y466229D01*
X152910Y466243D01*
X152894Y466262D01*
X152811Y466314D01*
X152731Y466371D01*
X152708Y466378D01*
X152687Y466391D01*
X152592Y466414D01*
X152498Y466442D01*
X152474Y466441D01*
X152450Y466447D01*
X152352Y466437D01*
X152254Y466434D01*
X152231Y466426D01*
X152207Y466423D01*
X152117Y466383D01*
X152026Y466348D01*
X152007Y466333D01*
X151984Y466323D01*
X151870Y466229D01*
X151380Y465739D01*
X151332Y465731D01*
X151310Y465719D01*
X151287Y465714D01*
X151203Y465662D01*
X151117Y465616D01*
X151100Y465598D01*
X151079Y465585D01*
X151017Y465509D01*
X150950Y465438D01*
X150940Y465415D01*
X150924Y465396D01*
X150890Y465305D01*
X150849Y465215D01*
X150847Y465191D01*
X150838Y465168D01*
X150824Y465021D01*
X150824Y463744D01*
X150828Y463720D01*
X150825Y463695D01*
X150847Y463600D01*
X150863Y463503D01*
X150875Y463482D01*
X150880Y463458D01*
X150932Y463374D01*
X150978Y463288D01*
X150996Y463271D01*
X151009Y463250D01*
X151085Y463188D01*
X151156Y463121D01*
X151179Y463111D01*
X151198Y463095D01*
X151289Y463061D01*
X151379Y463020D01*
X151403Y463018D01*
X151426Y463009D01*
X151573Y462995D01*
X151630Y462995D01*
X152089Y462536D01*
X152109Y462522D01*
X152124Y462503D01*
X152208Y462451D01*
X152287Y462394D01*
X152311Y462387D01*
X152332Y462374D01*
X152427Y462352D01*
X152521Y462323D01*
X152545Y462324D01*
X152569Y462318D01*
X152667Y462328D01*
X152765Y462331D01*
X152788Y462340D01*
X152812Y462342D01*
X152901Y462382D01*
X152993Y462417D01*
X153012Y462432D01*
X153034Y462442D01*
X153149Y462536D01*
X153607Y462995D01*
X160270Y462995D01*
X161164Y462102D01*
X161164Y454838D01*
X160270Y453945D01*
X160246Y453945D01*
X160222Y453941D01*
X160197Y453944D01*
X160102Y453922D01*
X160005Y453906D01*
X159984Y453894D01*
X159960Y453888D01*
X159876Y453837D01*
X159790Y453791D01*
X159773Y453773D01*
X159752Y453760D01*
X159690Y453684D01*
X159623Y453613D01*
X159613Y453590D01*
X159597Y453571D01*
X159563Y453480D01*
X159522Y453390D01*
X159520Y453366D01*
X159511Y453343D01*
X159497Y453196D01*
X159497Y449822D01*
X159501Y449798D01*
X159498Y449773D01*
X159520Y449678D01*
X159536Y449581D01*
X159548Y449560D01*
X159554Y449536D01*
X159605Y449452D01*
X159651Y449366D01*
X159669Y449349D01*
X159682Y449328D01*
X159758Y449266D01*
X159829Y449199D01*
X159852Y449189D01*
X159871Y449173D01*
X159962Y449139D01*
X160052Y449098D01*
X160076Y449096D01*
X160099Y449087D01*
X160246Y449073D01*
X169034Y449073D01*
X169927Y448180D01*
X169927Y440820D01*
X169034Y439927D01*
X144910Y439927D01*
X144017Y440820D01*
X144017Y441226D01*
X144013Y441250D01*
X144016Y441275D01*
X143994Y441370D01*
X143978Y441467D01*
X143966Y441488D01*
X143960Y441512D01*
X143909Y441596D01*
X143863Y441682D01*
X143845Y441699D01*
X143832Y441720D01*
X143756Y441782D01*
X143685Y441849D01*
X143662Y441859D01*
X143643Y441875D01*
X143552Y441909D01*
X143462Y441950D01*
X143438Y441952D01*
X143415Y441961D01*
X143268Y441975D01*
X139786Y441975D01*
X139690Y441959D01*
X139593Y441950D01*
X139570Y441940D01*
X139545Y441936D01*
X139459Y441890D01*
X139371Y441849D01*
X139345Y441828D01*
X139330Y441821D01*
X139313Y441802D01*
X139256Y441756D01*
X137364Y439864D01*
X137307Y439784D01*
X137245Y439709D01*
X137237Y439686D01*
X137222Y439665D01*
X137194Y439572D01*
X137159Y439481D01*
X137156Y439448D01*
X137151Y439432D01*
X137152Y439407D01*
X137145Y439334D01*
X137145Y403946D01*
X137161Y403850D01*
X137170Y403753D01*
X137180Y403730D01*
X137184Y403705D01*
X137230Y403619D01*
X137271Y403531D01*
X137292Y403505D01*
X137299Y403490D01*
X137318Y403473D01*
X137364Y403416D01*
X144336Y396444D01*
X144416Y396387D01*
X144491Y396325D01*
X144514Y396317D01*
X144535Y396302D01*
X144628Y396274D01*
X144719Y396239D01*
X144752Y396236D01*
X144768Y396231D01*
X144793Y396232D01*
X144866Y396225D01*
X185196Y396225D01*
X194295Y387126D01*
X194295Y366887D01*
X194311Y366791D01*
X194320Y366694D01*
X194330Y366671D01*
X194334Y366646D01*
X194380Y366560D01*
X194421Y366471D01*
X194442Y366446D01*
X194449Y366431D01*
X194468Y366414D01*
X194514Y366357D01*
X196827Y364045D01*
X196827Y359855D01*
X193865Y356893D01*
X189675Y356893D01*
X186713Y359855D01*
X186713Y364045D01*
X189026Y366357D01*
X189083Y366437D01*
X189145Y366512D01*
X189153Y366535D01*
X189168Y366555D01*
X189196Y366649D01*
X189231Y366740D01*
X189234Y366773D01*
X189239Y366789D01*
X189238Y366814D01*
X189245Y366887D01*
X189245Y384724D01*
X189229Y384820D01*
X189220Y384917D01*
X189210Y384940D01*
X189206Y384965D01*
X189160Y385051D01*
X189119Y385139D01*
X189098Y385165D01*
X189091Y385180D01*
X189072Y385197D01*
X189026Y385254D01*
X183324Y390956D01*
X183244Y391013D01*
X183169Y391075D01*
X183146Y391083D01*
X183125Y391098D01*
X183032Y391126D01*
X182941Y391161D01*
X182908Y391164D01*
X182892Y391169D01*
X182867Y391168D01*
X182794Y391175D01*
X142464Y391175D01*
X140766Y392874D01*
X134884Y398756D01*
X134824Y398799D01*
X134770Y398849D01*
X134726Y398869D01*
X134685Y398898D01*
X134615Y398919D01*
X134548Y398950D01*
X134499Y398954D01*
X134452Y398969D01*
X134379Y398966D01*
X134305Y398974D01*
X134257Y398962D01*
X134208Y398961D01*
X134139Y398935D01*
X134068Y398918D01*
X134026Y398892D01*
X133980Y398875D01*
X133923Y398828D01*
X133860Y398790D01*
X133829Y398752D01*
X133791Y398720D01*
X133752Y398658D01*
X133705Y398601D01*
X133688Y398555D01*
X133662Y398513D01*
X133645Y398442D01*
X133619Y398373D01*
X133612Y398300D01*
X133606Y398276D01*
X133608Y398259D01*
X133605Y398226D01*
X133605Y379464D01*
X133609Y379440D01*
X133606Y379415D01*
X133628Y379320D01*
X133644Y379223D01*
X133656Y379202D01*
X133662Y379178D01*
X133713Y379094D01*
X133759Y379008D01*
X133777Y378991D01*
X133790Y378970D01*
X133866Y378908D01*
X133937Y378841D01*
X133960Y378831D01*
X133979Y378815D01*
X134070Y378781D01*
X134160Y378740D01*
X134184Y378738D01*
X134207Y378729D01*
X134354Y378715D01*
X141558Y378715D01*
X141582Y378719D01*
X141607Y378716D01*
X141702Y378738D01*
X141799Y378754D01*
X141820Y378766D01*
X141844Y378772D01*
X141928Y378823D01*
X142014Y378869D01*
X142031Y378887D01*
X142052Y378900D01*
X142114Y378976D01*
X142181Y379047D01*
X142191Y379070D01*
X142207Y379089D01*
X142241Y379180D01*
X142282Y379270D01*
X142284Y379294D01*
X142293Y379317D01*
X142307Y379464D01*
X142307Y387300D01*
X143200Y388193D01*
X168144Y388193D01*
X169037Y387300D01*
X169037Y362000D01*
X168144Y361107D01*
X160486Y361107D01*
X160462Y361103D01*
X160437Y361106D01*
X160342Y361084D01*
X160245Y361068D01*
X160224Y361056D01*
X160200Y361050D01*
X160116Y360999D01*
X160030Y360953D01*
X160013Y360935D01*
X159992Y360922D01*
X159930Y360846D01*
X159863Y360775D01*
X159853Y360752D01*
X159837Y360733D01*
X159803Y360642D01*
X159762Y360552D01*
X159760Y360528D01*
X159751Y360505D01*
X159737Y360358D01*
X159737Y354454D01*
X157136Y351854D01*
X152909Y347627D01*
X152895Y347607D01*
X152876Y347591D01*
X152824Y347508D01*
X152767Y347428D01*
X152760Y347405D01*
X152747Y347384D01*
X152725Y347289D01*
X152696Y347195D01*
X152697Y347170D01*
X152691Y347147D01*
X152701Y347049D01*
X152704Y346951D01*
X152713Y346928D01*
X152715Y346904D01*
X152755Y346814D01*
X152790Y346723D01*
X152805Y346704D01*
X152815Y346681D01*
X152909Y346567D01*
X153185Y346292D01*
X153185Y343904D01*
X153189Y343880D01*
X153186Y343855D01*
X153208Y343760D01*
X153224Y343663D01*
X153236Y343642D01*
X153242Y343618D01*
X153293Y343534D01*
X153339Y343448D01*
X153357Y343431D01*
X153370Y343410D01*
X153446Y343348D01*
X153517Y343281D01*
X153540Y343271D01*
X153559Y343255D01*
X153650Y343221D01*
X153740Y343180D01*
X153764Y343178D01*
X153787Y343169D01*
X153934Y343155D01*
X169324Y343155D01*
X174257Y338221D01*
X174261Y338201D01*
X174270Y338104D01*
X174280Y338081D01*
X174284Y338056D01*
X174330Y337970D01*
X174371Y337881D01*
X174392Y337856D01*
X174399Y337841D01*
X174418Y337824D01*
X174464Y337767D01*
X174880Y337352D01*
X174880Y330668D01*
X174675Y330464D01*
X174618Y330384D01*
X174556Y330309D01*
X174547Y330286D01*
X174533Y330265D01*
X174504Y330172D01*
X174470Y330081D01*
X174467Y330048D01*
X174462Y330032D01*
X174463Y330007D01*
X174455Y329934D01*
X174455Y325386D01*
X174471Y325290D01*
X174481Y325193D01*
X174491Y325170D01*
X174495Y325146D01*
X174541Y325059D01*
X174581Y324971D01*
X174602Y324945D01*
X174610Y324930D01*
X174628Y324913D01*
X174675Y324856D01*
X174880Y324652D01*
X174880Y317968D01*
X173522Y316610D01*
X166838Y316610D01*
X166423Y317026D01*
X166343Y317083D01*
X166268Y317145D01*
X166245Y317153D01*
X166225Y317168D01*
X166131Y317196D01*
X166040Y317231D01*
X166007Y317234D01*
X165991Y317239D01*
X165966Y317238D01*
X165893Y317245D01*
X158204Y317245D01*
X158108Y317229D01*
X158011Y317220D01*
X157988Y317210D01*
X157963Y317206D01*
X157877Y317160D01*
X157788Y317119D01*
X157763Y317098D01*
X157748Y317091D01*
X157731Y317072D01*
X157674Y317026D01*
X153244Y312595D01*
X144434Y312595D01*
X144410Y312591D01*
X144385Y312594D01*
X144290Y312572D01*
X144193Y312556D01*
X144172Y312544D01*
X144148Y312538D01*
X144064Y312487D01*
X143978Y312441D01*
X143961Y312423D01*
X143940Y312410D01*
X143878Y312334D01*
X143811Y312263D01*
X143801Y312240D01*
X143785Y312221D01*
X143751Y312130D01*
X143710Y312040D01*
X143708Y312016D01*
X143699Y311993D01*
X143685Y311846D01*
X143685Y309028D01*
X142792Y308135D01*
X141974Y308135D01*
X141950Y308131D01*
X141925Y308134D01*
X141830Y308112D01*
X141733Y308096D01*
X141712Y308084D01*
X141688Y308078D01*
X141604Y308027D01*
X141518Y307981D01*
X141501Y307963D01*
X141480Y307950D01*
X141418Y307874D01*
X141351Y307803D01*
X141341Y307780D01*
X141325Y307761D01*
X141291Y307670D01*
X141250Y307580D01*
X141248Y307556D01*
X141239Y307533D01*
X141225Y307386D01*
X141225Y295364D01*
X141241Y295268D01*
X141250Y295171D01*
X141260Y295148D01*
X141264Y295123D01*
X141310Y295037D01*
X141351Y294948D01*
X141372Y294923D01*
X141379Y294908D01*
X141398Y294891D01*
X141444Y294834D01*
X175515Y260764D01*
X175515Y206597D01*
X175531Y206501D01*
X175540Y206404D01*
X175550Y206381D01*
X175554Y206356D01*
X175600Y206270D01*
X175641Y206181D01*
X175662Y206156D01*
X175669Y206141D01*
X175688Y206124D01*
X175734Y206067D01*
X176507Y205295D01*
X176507Y201105D01*
X173545Y198143D01*
X172452Y198143D01*
X172356Y198127D01*
X172259Y198118D01*
X172236Y198108D01*
X172211Y198104D01*
X172125Y198058D01*
X172036Y198017D01*
X172011Y197996D01*
X171996Y197989D01*
X171979Y197970D01*
X171922Y197924D01*
X171864Y197865D01*
X144234Y197865D01*
X144138Y197849D01*
X144041Y197840D01*
X144018Y197830D01*
X143993Y197826D01*
X143907Y197780D01*
X143818Y197739D01*
X143793Y197718D01*
X143778Y197711D01*
X143761Y197692D01*
X143704Y197646D01*
X138904Y192846D01*
X138847Y192766D01*
X138785Y192691D01*
X138777Y192668D01*
X138762Y192647D01*
X138734Y192554D01*
X138699Y192463D01*
X138696Y192430D01*
X138691Y192414D01*
X138692Y192389D01*
X138685Y192316D01*
X138685Y111346D01*
X132494Y105155D01*
X125317Y105155D01*
X125221Y105139D01*
X125124Y105130D01*
X125101Y105120D01*
X125076Y105116D01*
X124990Y105070D01*
X124901Y105029D01*
X124876Y105008D01*
X124861Y105001D01*
X124844Y104982D01*
X124787Y104936D01*
X124015Y104163D01*
X119825Y104163D01*
X116863Y107125D01*
X116863Y111315D01*
X119825Y114277D01*
X121873Y114277D01*
X121946Y114289D01*
X122019Y114291D01*
X122065Y114308D01*
X122114Y114316D01*
X122179Y114351D01*
X122247Y114377D01*
X122286Y114408D01*
X122329Y114431D01*
X122379Y114485D01*
X122436Y114532D01*
X122462Y114574D01*
X122496Y114609D01*
X122526Y114676D01*
X122565Y114739D01*
X122576Y114787D01*
X122597Y114832D01*
X122604Y114905D01*
X122621Y114976D01*
X122616Y115025D01*
X122621Y115075D01*
X122604Y115146D01*
X122597Y115219D01*
X122577Y115264D01*
X122566Y115312D01*
X122527Y115375D01*
X122497Y115442D01*
X122450Y115498D01*
X122437Y115520D01*
X122424Y115530D01*
X122403Y115556D01*
X120673Y117285D01*
X120673Y121475D01*
X121954Y122755D01*
X122011Y122834D01*
X122073Y122910D01*
X122081Y122933D01*
X122096Y122953D01*
X122124Y123047D01*
X122159Y123138D01*
X122162Y123171D01*
X122167Y123187D01*
X122166Y123212D01*
X122173Y123285D01*
X122173Y123946D01*
X122157Y124043D01*
X122148Y124140D01*
X122138Y124162D01*
X122134Y124187D01*
X122088Y124273D01*
X122047Y124362D01*
X122026Y124388D01*
X122019Y124402D01*
X122000Y124419D01*
X121954Y124476D01*
X119396Y127034D01*
X119317Y127091D01*
X119242Y127153D01*
X119218Y127161D01*
X119198Y127176D01*
X119105Y127204D01*
X119013Y127239D01*
X118980Y127242D01*
X118964Y127247D01*
X118939Y127246D01*
X118866Y127253D01*
X107194Y127253D01*
X107097Y127237D01*
X107000Y127228D01*
X106978Y127218D01*
X106953Y127214D01*
X106867Y127168D01*
X106778Y127127D01*
X106752Y127106D01*
X106738Y127099D01*
X106721Y127080D01*
X106719Y127079D01*
X106717Y127078D01*
X106715Y127076D01*
X106664Y127034D01*
X101776Y122146D01*
X101719Y122067D01*
X101657Y121992D01*
X101649Y121968D01*
X101634Y121948D01*
X101606Y121855D01*
X101571Y121763D01*
X101568Y121730D01*
X101563Y121714D01*
X101564Y121689D01*
X101557Y121616D01*
X101557Y99905D01*
X101573Y99809D01*
X101582Y99712D01*
X101592Y99689D01*
X101596Y99664D01*
X101642Y99578D01*
X101683Y99489D01*
X101704Y99464D01*
X101711Y99449D01*
X101730Y99432D01*
X101776Y99375D01*
X103057Y98095D01*
X103057Y93905D01*
X99955Y90804D01*
X99912Y90744D01*
X99862Y90690D01*
X99842Y90646D01*
X99813Y90605D01*
X99792Y90535D01*
X99761Y90468D01*
X99756Y90419D01*
X99742Y90372D01*
X99744Y90299D01*
X99737Y90225D01*
X99748Y90177D01*
X99750Y90128D01*
X99776Y90059D01*
X99792Y89988D01*
X99818Y89946D01*
X99836Y89900D01*
X99882Y89843D01*
X99921Y89780D01*
X99959Y89749D01*
X99990Y89711D01*
X100053Y89672D01*
X100110Y89625D01*
X100156Y89608D01*
X100198Y89582D01*
X100269Y89565D01*
X100338Y89539D01*
X100411Y89532D01*
X100435Y89526D01*
X100452Y89528D01*
X100485Y89525D01*
X103063Y89525D01*
X103159Y89541D01*
X103256Y89550D01*
X103279Y89560D01*
X103304Y89564D01*
X103390Y89610D01*
X103479Y89651D01*
X103504Y89672D01*
X103519Y89679D01*
X103536Y89698D01*
X103593Y89744D01*
X105905Y92057D01*
X110095Y92057D01*
X113057Y89095D01*
X113057Y84905D01*
X111179Y83028D01*
X111122Y82948D01*
X111060Y82873D01*
X111051Y82849D01*
X111037Y82829D01*
X111008Y82736D01*
X110974Y82644D01*
X110973Y82620D01*
X110966Y82596D01*
X110969Y82498D01*
X110966Y82401D01*
X110973Y82377D01*
X110974Y82352D01*
X111008Y82261D01*
X111036Y82167D01*
X111051Y82147D01*
X111060Y82123D01*
X111122Y82048D01*
X111178Y81969D01*
X111204Y81948D01*
X111214Y81935D01*
X111235Y81922D01*
X111292Y81875D01*
X112511Y81061D01*
X113671Y79900D01*
X114583Y78536D01*
X115211Y77020D01*
X115531Y75411D01*
X115531Y70299D01*
X107950Y70299D01*
X107926Y70295D01*
X107902Y70298D01*
X107806Y70275D01*
X107709Y70259D01*
X107688Y70248D01*
X107664Y70242D01*
X107581Y70191D01*
X107494Y70144D01*
X107477Y70127D01*
X107457Y70114D01*
X107394Y70038D01*
X107327Y69966D01*
X107317Y69944D01*
X107302Y69925D01*
X107267Y69834D01*
X107227Y69744D01*
X107224Y69720D01*
X107215Y69697D01*
X107201Y69550D01*
X107201Y68799D01*
X107199Y68799D01*
X107199Y69550D01*
X107196Y69571D01*
X107198Y69589D01*
X107197Y69592D01*
X107198Y69598D01*
X107175Y69694D01*
X107159Y69791D01*
X107148Y69812D01*
X107142Y69836D01*
X107091Y69920D01*
X107044Y70006D01*
X107027Y70023D01*
X107014Y70043D01*
X106938Y70106D01*
X106866Y70173D01*
X106844Y70183D01*
X106825Y70198D01*
X106733Y70233D01*
X106644Y70274D01*
X106620Y70276D01*
X106597Y70285D01*
X106450Y70299D01*
X98869Y70299D01*
X98869Y75411D01*
X99189Y77020D01*
X99817Y78536D01*
X100037Y78864D01*
X100537Y79613D01*
X100537Y79614D01*
X100729Y79900D01*
X101890Y81061D01*
X103254Y81973D01*
X104072Y82311D01*
X104114Y82337D01*
X104160Y82355D01*
X104217Y82401D01*
X104279Y82440D01*
X104310Y82478D01*
X104348Y82509D01*
X104387Y82572D01*
X104434Y82629D01*
X104451Y82675D01*
X104477Y82716D01*
X104494Y82788D01*
X104520Y82857D01*
X104522Y82906D01*
X104533Y82954D01*
X104526Y83027D01*
X104528Y83101D01*
X104514Y83148D01*
X104509Y83197D01*
X104479Y83264D01*
X104458Y83335D01*
X104429Y83375D01*
X104409Y83419D01*
X104316Y83533D01*
X104315Y83533D01*
X104315Y83534D01*
X103593Y84256D01*
X103513Y84313D01*
X103438Y84375D01*
X103415Y84383D01*
X103395Y84398D01*
X103301Y84426D01*
X103210Y84461D01*
X103177Y84464D01*
X103161Y84469D01*
X103136Y84468D01*
X103063Y84475D01*
X90356Y84475D01*
X90260Y84459D01*
X90163Y84450D01*
X90140Y84440D01*
X90115Y84436D01*
X90029Y84390D01*
X89941Y84349D01*
X89915Y84328D01*
X89900Y84321D01*
X89883Y84302D01*
X89826Y84256D01*
X84744Y79174D01*
X84687Y79094D01*
X84625Y79019D01*
X84617Y78996D01*
X84602Y78975D01*
X84574Y78882D01*
X84539Y78791D01*
X84536Y78758D01*
X84531Y78742D01*
X84532Y78717D01*
X84525Y78644D01*
X84525Y57954D01*
X83276Y56706D01*
X83219Y56626D01*
X83157Y56551D01*
X83149Y56528D01*
X83134Y56507D01*
X83106Y56414D01*
X83071Y56323D01*
X83068Y56290D01*
X83063Y56274D01*
X83064Y56249D01*
X83057Y56176D01*
X83057Y52905D01*
X81215Y51064D01*
X81172Y51004D01*
X81122Y50950D01*
X81102Y50906D01*
X81073Y50865D01*
X81052Y50795D01*
X81021Y50728D01*
X81016Y50679D01*
X81002Y50632D01*
X81004Y50559D01*
X80997Y50485D01*
X81008Y50437D01*
X81010Y50388D01*
X81036Y50319D01*
X81052Y50248D01*
X81078Y50206D01*
X81096Y50160D01*
X81142Y50103D01*
X81181Y50040D01*
X81219Y50009D01*
X81250Y49971D01*
X81313Y49932D01*
X81370Y49885D01*
X81416Y49868D01*
X81458Y49842D01*
X81529Y49825D01*
X81598Y49799D01*
X81671Y49792D01*
X81695Y49786D01*
X81712Y49788D01*
X81745Y49785D01*
X126276Y49785D01*
X126372Y49801D01*
G37*
G36*
X19686Y1363D02*
X19686Y1363D01*
X19782Y1379D01*
X19812Y1382D01*
X21858Y1382D01*
X21879Y1385D01*
X21926Y1385D01*
X22805Y1465D01*
X22813Y1462D01*
X22864Y1432D01*
X22927Y1419D01*
X22987Y1396D01*
X23081Y1387D01*
X23103Y1382D01*
X23114Y1384D01*
X23134Y1382D01*
X228797Y1382D01*
X228875Y1394D01*
X228953Y1398D01*
X228994Y1414D01*
X229038Y1421D01*
X229061Y1434D01*
X230043Y1383D01*
X230056Y1384D01*
X230081Y1382D01*
X230260Y1382D01*
X230271Y1384D01*
X230292Y1382D01*
X233406Y1517D01*
X233439Y1524D01*
X233472Y1523D01*
X233616Y1556D01*
X235352Y2148D01*
X237551Y2897D01*
X239673Y3620D01*
X239734Y3652D01*
X239798Y3676D01*
X239867Y3724D01*
X239888Y3735D01*
X239898Y3745D01*
X239919Y3760D01*
X244778Y7925D01*
X244823Y7978D01*
X244874Y8023D01*
X244920Y8094D01*
X244935Y8112D01*
X244940Y8125D01*
X244955Y8147D01*
X247921Y13818D01*
X247931Y13849D01*
X247949Y13877D01*
X247992Y14019D01*
X248604Y17090D01*
X248604Y17091D01*
X248618Y17237D01*
X248618Y96926D01*
X248606Y96998D01*
X248604Y97071D01*
X248587Y97118D01*
X248579Y97166D01*
X248544Y97231D01*
X248518Y97300D01*
X248487Y97338D01*
X248464Y97381D01*
X248410Y97432D01*
X248363Y97489D01*
X248321Y97515D01*
X248286Y97548D01*
X248219Y97579D01*
X248156Y97618D01*
X248108Y97629D01*
X248063Y97649D01*
X247990Y97656D01*
X247919Y97673D01*
X247870Y97668D01*
X247820Y97673D01*
X247749Y97657D01*
X247676Y97649D01*
X247631Y97629D01*
X247583Y97618D01*
X247520Y97579D01*
X247453Y97549D01*
X247397Y97502D01*
X247375Y97489D01*
X247365Y97476D01*
X247339Y97455D01*
X246778Y96894D01*
X245257Y95789D01*
X243583Y94936D01*
X241796Y94355D01*
X240499Y94150D01*
X240499Y105250D01*
X240495Y105274D01*
X240498Y105298D01*
X240475Y105394D01*
X240459Y105491D01*
X240448Y105512D01*
X240442Y105536D01*
X240391Y105619D01*
X240344Y105706D01*
X240327Y105723D01*
X240314Y105743D01*
X240238Y105806D01*
X240166Y105873D01*
X240144Y105883D01*
X240125Y105898D01*
X240034Y105933D01*
X239944Y105973D01*
X239920Y105976D01*
X239897Y105985D01*
X239750Y105999D01*
X238999Y105999D01*
X238999Y106001D01*
X239750Y106001D01*
X239774Y106005D01*
X239798Y106002D01*
X239894Y106025D01*
X239991Y106041D01*
X240012Y106052D01*
X240036Y106058D01*
X240120Y106109D01*
X240206Y106156D01*
X240223Y106173D01*
X240243Y106186D01*
X240306Y106262D01*
X240373Y106334D01*
X240383Y106356D01*
X240398Y106375D01*
X240433Y106467D01*
X240474Y106556D01*
X240476Y106580D01*
X240485Y106603D01*
X240499Y106750D01*
X240499Y117850D01*
X241796Y117645D01*
X243583Y117064D01*
X245257Y116211D01*
X246778Y115106D01*
X247339Y114545D01*
X247399Y114502D01*
X247453Y114452D01*
X247497Y114431D01*
X247538Y114403D01*
X247608Y114381D01*
X247675Y114351D01*
X247724Y114346D01*
X247771Y114332D01*
X247844Y114334D01*
X247918Y114327D01*
X247966Y114338D01*
X248015Y114340D01*
X248084Y114365D01*
X248155Y114382D01*
X248197Y114408D01*
X248243Y114425D01*
X248300Y114472D01*
X248363Y114511D01*
X248394Y114549D01*
X248432Y114580D01*
X248471Y114642D01*
X248518Y114699D01*
X248535Y114745D01*
X248561Y114787D01*
X248578Y114859D01*
X248604Y114928D01*
X248611Y115001D01*
X248617Y115025D01*
X248615Y115041D01*
X248618Y115074D01*
X248618Y123762D01*
X248606Y123835D01*
X248604Y123908D01*
X248587Y123954D01*
X248579Y124003D01*
X248544Y124068D01*
X248518Y124137D01*
X248487Y124175D01*
X248464Y124218D01*
X248410Y124269D01*
X248363Y124325D01*
X248321Y124351D01*
X248286Y124385D01*
X248219Y124416D01*
X248156Y124454D01*
X248108Y124466D01*
X248063Y124486D01*
X247990Y124493D01*
X247919Y124510D01*
X247870Y124505D01*
X247820Y124510D01*
X247749Y124493D01*
X247676Y124486D01*
X247631Y124466D01*
X247583Y124455D01*
X247520Y124416D01*
X247453Y124386D01*
X247397Y124339D01*
X247375Y124326D01*
X247365Y124313D01*
X247339Y124292D01*
X245187Y122140D01*
X241173Y120477D01*
X236827Y120477D01*
X232813Y122140D01*
X232408Y122545D01*
X232388Y122559D01*
X232373Y122578D01*
X232290Y122630D01*
X232283Y122635D01*
X232281Y122636D01*
X232280Y122637D01*
X232210Y122687D01*
X232186Y122694D01*
X232166Y122707D01*
X232070Y122729D01*
X231976Y122758D01*
X231952Y122757D01*
X231928Y122763D01*
X231830Y122753D01*
X231732Y122750D01*
X231709Y122741D01*
X231685Y122739D01*
X231596Y122699D01*
X231504Y122664D01*
X231485Y122649D01*
X231463Y122638D01*
X231348Y122545D01*
X225666Y116862D01*
X223612Y116011D01*
X173225Y116011D01*
X173129Y115995D01*
X173032Y115986D01*
X173009Y115976D01*
X172985Y115972D01*
X172898Y115926D01*
X172810Y115885D01*
X172784Y115864D01*
X172769Y115857D01*
X172754Y115840D01*
X172752Y115839D01*
X172748Y115835D01*
X172695Y115792D01*
X166808Y109905D01*
X166751Y109825D01*
X166689Y109750D01*
X166681Y109727D01*
X166666Y109706D01*
X166638Y109613D01*
X166603Y109522D01*
X166600Y109489D01*
X166595Y109473D01*
X166596Y109448D01*
X166589Y109375D01*
X166589Y82888D01*
X165738Y80834D01*
X164166Y79262D01*
X162112Y78411D01*
X159888Y78411D01*
X157834Y79262D01*
X156262Y80834D01*
X155411Y82888D01*
X155411Y113112D01*
X156262Y115166D01*
X167434Y126338D01*
X169488Y127189D01*
X210762Y127189D01*
X210786Y127193D01*
X210811Y127190D01*
X210906Y127212D01*
X211003Y127228D01*
X211024Y127240D01*
X211048Y127246D01*
X211132Y127297D01*
X211218Y127343D01*
X211235Y127361D01*
X211256Y127374D01*
X211318Y127450D01*
X211385Y127521D01*
X211395Y127544D01*
X211411Y127563D01*
X211445Y127654D01*
X211486Y127744D01*
X211488Y127768D01*
X211497Y127791D01*
X211511Y127938D01*
X211511Y146112D01*
X212362Y148166D01*
X214040Y149843D01*
X214734Y150538D01*
X216788Y151389D01*
X224912Y151389D01*
X226966Y150538D01*
X227343Y150160D01*
X227347Y150157D01*
X227350Y150154D01*
X227446Y150087D01*
X227542Y150018D01*
X227546Y150017D01*
X227550Y150014D01*
X227663Y149981D01*
X227775Y149947D01*
X227780Y149947D01*
X227785Y149946D01*
X227902Y149951D01*
X228019Y149955D01*
X228024Y149957D01*
X228029Y149957D01*
X228137Y150000D01*
X228247Y150041D01*
X228251Y150044D01*
X228256Y150046D01*
X228345Y150121D01*
X228436Y150196D01*
X228439Y150200D01*
X228442Y150203D01*
X228503Y150303D01*
X228565Y150403D01*
X228566Y150408D01*
X228569Y150412D01*
X228594Y150527D01*
X228621Y150640D01*
X228620Y150645D01*
X228621Y150650D01*
X228608Y150768D01*
X228597Y150883D01*
X228595Y150888D01*
X228594Y150893D01*
X228541Y151030D01*
X227936Y152217D01*
X227355Y154004D01*
X227150Y155301D01*
X237501Y155301D01*
X237501Y144950D01*
X236204Y145155D01*
X234417Y145736D01*
X233230Y146341D01*
X233226Y146342D01*
X233222Y146345D01*
X233110Y146379D01*
X232998Y146415D01*
X232993Y146414D01*
X232988Y146416D01*
X232871Y146412D01*
X232754Y146410D01*
X232749Y146408D01*
X232744Y146408D01*
X232635Y146367D01*
X232524Y146327D01*
X232520Y146324D01*
X232516Y146322D01*
X232425Y146247D01*
X232334Y146175D01*
X232331Y146171D01*
X232327Y146167D01*
X232265Y146067D01*
X232202Y145969D01*
X232201Y145965D01*
X232198Y145960D01*
X232172Y145847D01*
X232143Y145732D01*
X232144Y145727D01*
X232143Y145723D01*
X232154Y145606D01*
X232164Y145489D01*
X232166Y145485D01*
X232166Y145480D01*
X232215Y145373D01*
X232261Y145266D01*
X232265Y145262D01*
X232267Y145258D01*
X232360Y145143D01*
X235309Y142194D01*
X235417Y142117D01*
X235507Y142053D01*
X235507Y142052D01*
X235609Y142022D01*
X235740Y141982D01*
X235741Y141982D01*
X235741Y141981D01*
X235865Y141986D01*
X235984Y141989D01*
X235985Y141989D01*
X235986Y141990D01*
X236126Y142032D01*
X236827Y142323D01*
X241173Y142323D01*
X245187Y140660D01*
X247339Y138508D01*
X247399Y138465D01*
X247453Y138415D01*
X247497Y138394D01*
X247538Y138366D01*
X247608Y138344D01*
X247675Y138314D01*
X247724Y138309D01*
X247771Y138295D01*
X247844Y138297D01*
X247918Y138290D01*
X247966Y138301D01*
X248015Y138303D01*
X248084Y138329D01*
X248155Y138345D01*
X248197Y138371D01*
X248243Y138389D01*
X248300Y138435D01*
X248363Y138474D01*
X248394Y138512D01*
X248432Y138543D01*
X248471Y138606D01*
X248518Y138662D01*
X248535Y138708D01*
X248561Y138750D01*
X248578Y138822D01*
X248604Y138891D01*
X248611Y138964D01*
X248617Y138988D01*
X248615Y139005D01*
X248618Y139038D01*
X248618Y147726D01*
X248606Y147798D01*
X248604Y147871D01*
X248587Y147918D01*
X248579Y147966D01*
X248544Y148031D01*
X248518Y148100D01*
X248487Y148138D01*
X248464Y148181D01*
X248410Y148232D01*
X248363Y148289D01*
X248321Y148315D01*
X248286Y148348D01*
X248219Y148379D01*
X248156Y148418D01*
X248108Y148429D01*
X248063Y148449D01*
X247990Y148456D01*
X247919Y148473D01*
X247870Y148468D01*
X247820Y148473D01*
X247749Y148457D01*
X247676Y148449D01*
X247631Y148429D01*
X247583Y148418D01*
X247520Y148379D01*
X247453Y148349D01*
X247397Y148302D01*
X247375Y148289D01*
X247365Y148276D01*
X247339Y148255D01*
X246778Y147694D01*
X245257Y146589D01*
X243583Y145736D01*
X241796Y145155D01*
X240499Y144950D01*
X240499Y156050D01*
X240495Y156074D01*
X240498Y156098D01*
X240475Y156194D01*
X240459Y156291D01*
X240448Y156312D01*
X240442Y156336D01*
X240391Y156419D01*
X240344Y156506D01*
X240327Y156523D01*
X240314Y156543D01*
X240238Y156606D01*
X240166Y156673D01*
X240144Y156683D01*
X240125Y156698D01*
X240034Y156733D01*
X239944Y156773D01*
X239920Y156776D01*
X239897Y156785D01*
X239750Y156799D01*
X238999Y156799D01*
X238999Y156801D01*
X239750Y156801D01*
X239774Y156805D01*
X239798Y156802D01*
X239894Y156825D01*
X239991Y156841D01*
X240012Y156852D01*
X240036Y156858D01*
X240120Y156909D01*
X240206Y156956D01*
X240223Y156973D01*
X240243Y156986D01*
X240306Y157062D01*
X240373Y157134D01*
X240383Y157156D01*
X240398Y157175D01*
X240433Y157267D01*
X240474Y157356D01*
X240476Y157380D01*
X240485Y157403D01*
X240499Y157550D01*
X240499Y168650D01*
X241796Y168445D01*
X243583Y167864D01*
X245257Y167011D01*
X246778Y165906D01*
X247339Y165345D01*
X247399Y165302D01*
X247453Y165252D01*
X247497Y165231D01*
X247538Y165203D01*
X247608Y165181D01*
X247675Y165151D01*
X247724Y165146D01*
X247771Y165132D01*
X247844Y165134D01*
X247918Y165127D01*
X247966Y165138D01*
X248015Y165140D01*
X248084Y165165D01*
X248155Y165182D01*
X248197Y165208D01*
X248243Y165225D01*
X248300Y165272D01*
X248363Y165311D01*
X248394Y165349D01*
X248432Y165380D01*
X248471Y165442D01*
X248518Y165499D01*
X248535Y165545D01*
X248561Y165587D01*
X248578Y165659D01*
X248604Y165728D01*
X248611Y165801D01*
X248617Y165825D01*
X248615Y165841D01*
X248618Y165874D01*
X248618Y174562D01*
X248606Y174635D01*
X248604Y174708D01*
X248587Y174754D01*
X248579Y174803D01*
X248544Y174868D01*
X248518Y174937D01*
X248487Y174975D01*
X248464Y175018D01*
X248410Y175069D01*
X248363Y175125D01*
X248321Y175151D01*
X248286Y175185D01*
X248219Y175216D01*
X248156Y175254D01*
X248108Y175266D01*
X248063Y175286D01*
X247990Y175293D01*
X247919Y175310D01*
X247870Y175305D01*
X247820Y175310D01*
X247749Y175293D01*
X247676Y175286D01*
X247631Y175266D01*
X247583Y175255D01*
X247520Y175216D01*
X247453Y175186D01*
X247397Y175139D01*
X247375Y175126D01*
X247365Y175113D01*
X247339Y175092D01*
X245187Y172940D01*
X241173Y171277D01*
X236827Y171277D01*
X232813Y172940D01*
X229740Y176013D01*
X229053Y177673D01*
X228998Y177760D01*
X228924Y177880D01*
X228840Y177949D01*
X228736Y178035D01*
X228735Y178035D01*
X228603Y178085D01*
X228507Y178121D01*
X228506Y178121D01*
X228360Y178135D01*
X219754Y178135D01*
X219658Y178119D01*
X219561Y178110D01*
X219538Y178100D01*
X219513Y178096D01*
X219427Y178050D01*
X219338Y178009D01*
X219313Y177988D01*
X219298Y177981D01*
X219281Y177962D01*
X219224Y177916D01*
X213834Y172526D01*
X213777Y172446D01*
X213715Y172371D01*
X213707Y172348D01*
X213692Y172327D01*
X213664Y172234D01*
X213629Y172143D01*
X213626Y172110D01*
X213621Y172094D01*
X213622Y172069D01*
X213615Y171996D01*
X213615Y151986D01*
X201074Y139445D01*
X159474Y139445D01*
X159378Y139429D01*
X159281Y139420D01*
X159258Y139410D01*
X159233Y139406D01*
X159147Y139360D01*
X159058Y139319D01*
X159033Y139298D01*
X159018Y139291D01*
X159001Y139272D01*
X158944Y139226D01*
X151588Y131870D01*
X151531Y131790D01*
X151469Y131715D01*
X151461Y131692D01*
X151446Y131671D01*
X151418Y131578D01*
X151383Y131487D01*
X151380Y131454D01*
X151375Y131438D01*
X151376Y131413D01*
X151369Y131340D01*
X151369Y63070D01*
X148768Y60470D01*
X129954Y41655D01*
X111333Y41655D01*
X111237Y41639D01*
X111139Y41630D01*
X111117Y41620D01*
X111093Y41616D01*
X111006Y41569D01*
X110917Y41529D01*
X110899Y41512D01*
X110877Y41501D01*
X110811Y41429D01*
X110739Y41362D01*
X110727Y41341D01*
X110710Y41323D01*
X110670Y41234D01*
X110624Y41147D01*
X110620Y41123D01*
X110610Y41100D01*
X110600Y41003D01*
X110584Y40906D01*
X110588Y40882D01*
X110586Y40857D01*
X110608Y40762D01*
X110624Y40666D01*
X110635Y40644D01*
X110641Y40620D01*
X110693Y40537D01*
X110738Y40450D01*
X110756Y40434D01*
X110770Y40412D01*
X110845Y40350D01*
X110916Y40283D01*
X110945Y40268D01*
X110958Y40258D01*
X110981Y40249D01*
X111047Y40214D01*
X111146Y40173D01*
X112510Y39261D01*
X113671Y38100D01*
X114583Y36736D01*
X115211Y35220D01*
X115531Y33611D01*
X115531Y28499D01*
X107950Y28499D01*
X107926Y28495D01*
X107902Y28498D01*
X107806Y28475D01*
X107709Y28459D01*
X107688Y28448D01*
X107664Y28442D01*
X107581Y28391D01*
X107494Y28344D01*
X107477Y28327D01*
X107457Y28314D01*
X107394Y28238D01*
X107327Y28166D01*
X107317Y28144D01*
X107302Y28125D01*
X107267Y28034D01*
X107227Y27944D01*
X107224Y27920D01*
X107215Y27897D01*
X107201Y27750D01*
X107201Y26999D01*
X107199Y26999D01*
X107199Y27750D01*
X107195Y27774D01*
X107198Y27798D01*
X107175Y27894D01*
X107159Y27991D01*
X107148Y28012D01*
X107142Y28036D01*
X107091Y28120D01*
X107044Y28206D01*
X107027Y28223D01*
X107014Y28243D01*
X106938Y28306D01*
X106866Y28373D01*
X106844Y28383D01*
X106825Y28398D01*
X106733Y28433D01*
X106644Y28474D01*
X106620Y28476D01*
X106597Y28485D01*
X106450Y28499D01*
X98869Y28499D01*
X98869Y33611D01*
X99189Y35220D01*
X99817Y36736D01*
X99931Y36906D01*
X100432Y37655D01*
X100432Y37656D01*
X100729Y38100D01*
X101890Y39261D01*
X103254Y40173D01*
X103353Y40214D01*
X103436Y40265D01*
X103523Y40311D01*
X103540Y40330D01*
X103561Y40343D01*
X103623Y40418D01*
X103690Y40490D01*
X103700Y40512D01*
X103715Y40531D01*
X103750Y40623D01*
X103790Y40712D01*
X103793Y40736D01*
X103801Y40759D01*
X103805Y40857D01*
X103814Y40955D01*
X103809Y40979D01*
X103810Y41003D01*
X103781Y41097D01*
X103759Y41192D01*
X103746Y41213D01*
X103739Y41237D01*
X103682Y41316D01*
X103630Y41400D01*
X103611Y41415D01*
X103597Y41435D01*
X103518Y41492D01*
X103442Y41555D01*
X103419Y41563D01*
X103399Y41578D01*
X103305Y41606D01*
X103214Y41641D01*
X103181Y41644D01*
X103165Y41649D01*
X103141Y41648D01*
X103067Y41655D01*
X61816Y41655D01*
X45465Y58006D01*
X45465Y114846D01*
X45449Y114942D01*
X45440Y115039D01*
X45430Y115062D01*
X45426Y115087D01*
X45380Y115173D01*
X45339Y115262D01*
X45318Y115287D01*
X45311Y115302D01*
X45292Y115319D01*
X45246Y115376D01*
X33506Y127116D01*
X33426Y127173D01*
X33351Y127235D01*
X33328Y127243D01*
X33307Y127258D01*
X33214Y127286D01*
X33123Y127321D01*
X33090Y127324D01*
X33074Y127329D01*
X33049Y127328D01*
X32976Y127335D01*
X20640Y127335D01*
X20509Y127314D01*
X20399Y127296D01*
X20291Y127238D01*
X20184Y127181D01*
X20090Y127080D01*
X20017Y127003D01*
X20017Y127002D01*
X19947Y126873D01*
X19260Y125213D01*
X16187Y122140D01*
X12173Y120477D01*
X7827Y120477D01*
X3813Y122140D01*
X1661Y124292D01*
X1601Y124335D01*
X1547Y124385D01*
X1503Y124406D01*
X1462Y124434D01*
X1392Y124456D01*
X1325Y124486D01*
X1276Y124491D01*
X1229Y124505D01*
X1156Y124503D01*
X1082Y124510D01*
X1034Y124499D01*
X985Y124497D01*
X916Y124471D01*
X845Y124455D01*
X803Y124429D01*
X757Y124411D01*
X700Y124365D01*
X637Y124326D01*
X606Y124288D01*
X568Y124257D01*
X529Y124194D01*
X482Y124138D01*
X465Y124092D01*
X439Y124050D01*
X422Y123978D01*
X396Y123909D01*
X389Y123836D01*
X383Y123812D01*
X385Y123795D01*
X382Y123762D01*
X382Y113638D01*
X394Y113565D01*
X396Y113492D01*
X413Y113446D01*
X421Y113397D01*
X456Y113332D01*
X482Y113263D01*
X513Y113225D01*
X536Y113182D01*
X590Y113131D01*
X637Y113075D01*
X679Y113049D01*
X714Y113015D01*
X781Y112984D01*
X844Y112946D01*
X892Y112934D01*
X937Y112914D01*
X1010Y112907D01*
X1081Y112890D01*
X1130Y112895D01*
X1180Y112890D01*
X1251Y112907D01*
X1324Y112914D01*
X1369Y112934D01*
X1417Y112945D01*
X1480Y112984D01*
X1547Y113014D01*
X1603Y113061D01*
X1625Y113074D01*
X1635Y113087D01*
X1661Y113108D01*
X3813Y115260D01*
X7827Y116923D01*
X12173Y116923D01*
X16187Y115260D01*
X19260Y112187D01*
X20923Y108173D01*
X20923Y103827D01*
X19260Y99813D01*
X16187Y96740D01*
X12173Y95077D01*
X7827Y95077D01*
X3813Y96740D01*
X1661Y98892D01*
X1601Y98935D01*
X1547Y98985D01*
X1503Y99006D01*
X1462Y99034D01*
X1392Y99056D01*
X1325Y99086D01*
X1276Y99091D01*
X1229Y99105D01*
X1156Y99103D01*
X1082Y99110D01*
X1034Y99099D01*
X985Y99097D01*
X916Y99071D01*
X845Y99055D01*
X803Y99029D01*
X757Y99011D01*
X700Y98965D01*
X637Y98926D01*
X606Y98888D01*
X568Y98857D01*
X529Y98794D01*
X482Y98738D01*
X465Y98692D01*
X439Y98650D01*
X422Y98578D01*
X396Y98509D01*
X389Y98436D01*
X383Y98412D01*
X385Y98395D01*
X382Y98362D01*
X382Y24134D01*
X392Y24071D01*
X393Y24007D01*
X412Y23951D01*
X421Y23893D01*
X452Y23836D01*
X464Y23800D01*
X385Y22926D01*
X386Y22904D01*
X382Y22858D01*
X382Y21839D01*
X381Y21836D01*
X377Y21802D01*
X372Y21786D01*
X373Y21761D01*
X366Y21689D01*
X359Y19401D01*
X363Y19377D01*
X360Y19352D01*
X384Y19206D01*
X2082Y12818D01*
X2105Y12766D01*
X2119Y12710D01*
X2175Y12611D01*
X2182Y12596D01*
X2186Y12591D01*
X2192Y12581D01*
X5979Y7164D01*
X6020Y7123D01*
X6052Y7076D01*
X6138Y7002D01*
X6150Y6990D01*
X6156Y6987D01*
X6164Y6979D01*
X11581Y3192D01*
X11633Y3167D01*
X11680Y3134D01*
X11786Y3094D01*
X11801Y3086D01*
X11808Y3086D01*
X11818Y3082D01*
X18206Y1384D01*
X18231Y1381D01*
X18254Y1373D01*
X18401Y1359D01*
X19686Y1363D01*
G37*
G36*
X93429Y98811D02*
X93429Y98811D01*
X93526Y98820D01*
X93549Y98830D01*
X93574Y98834D01*
X93660Y98880D01*
X93749Y98921D01*
X93774Y98942D01*
X93789Y98949D01*
X93806Y98968D01*
X93863Y99014D01*
X94224Y99375D01*
X94281Y99455D01*
X94343Y99530D01*
X94351Y99553D01*
X94366Y99573D01*
X94394Y99667D01*
X94429Y99758D01*
X94432Y99791D01*
X94437Y99807D01*
X94436Y99832D01*
X94443Y99905D01*
X94443Y124873D01*
X103937Y134367D01*
X122123Y134367D01*
X126984Y129506D01*
X129276Y127214D01*
X129336Y127171D01*
X129390Y127121D01*
X129434Y127100D01*
X129475Y127072D01*
X129545Y127050D01*
X129612Y127020D01*
X129661Y127015D01*
X129708Y127001D01*
X129781Y127003D01*
X129855Y126996D01*
X129903Y127007D01*
X129952Y127009D01*
X130021Y127034D01*
X130092Y127051D01*
X130134Y127077D01*
X130180Y127094D01*
X130237Y127141D01*
X130300Y127180D01*
X130331Y127218D01*
X130369Y127249D01*
X130408Y127312D01*
X130455Y127368D01*
X130472Y127414D01*
X130498Y127456D01*
X130515Y127528D01*
X130541Y127597D01*
X130548Y127670D01*
X130554Y127694D01*
X130552Y127710D01*
X130555Y127744D01*
X130555Y195994D01*
X140556Y205995D01*
X166636Y205995D01*
X166660Y205999D01*
X166685Y205996D01*
X166780Y206018D01*
X166877Y206034D01*
X166898Y206046D01*
X166922Y206052D01*
X167006Y206103D01*
X167092Y206149D01*
X167109Y206167D01*
X167130Y206180D01*
X167192Y206256D01*
X167259Y206327D01*
X167269Y206350D01*
X167285Y206369D01*
X167319Y206460D01*
X167360Y206550D01*
X167362Y206574D01*
X167371Y206597D01*
X167385Y206744D01*
X167385Y257086D01*
X167369Y257182D01*
X167360Y257279D01*
X167350Y257302D01*
X167346Y257327D01*
X167300Y257413D01*
X167259Y257502D01*
X167238Y257527D01*
X167231Y257542D01*
X167212Y257559D01*
X167166Y257616D01*
X147314Y277468D01*
X147254Y277511D01*
X147200Y277561D01*
X147156Y277581D01*
X147115Y277610D01*
X147045Y277631D01*
X146978Y277662D01*
X146929Y277667D01*
X146882Y277681D01*
X146809Y277678D01*
X146735Y277686D01*
X146687Y277675D01*
X146638Y277673D01*
X146569Y277647D01*
X146498Y277630D01*
X146456Y277604D01*
X146410Y277587D01*
X146353Y277541D01*
X146290Y277502D01*
X146259Y277464D01*
X146221Y277432D01*
X146182Y277370D01*
X146135Y277313D01*
X146118Y277267D01*
X146092Y277225D01*
X146075Y277154D01*
X146049Y277085D01*
X146042Y277012D01*
X146036Y276988D01*
X146038Y276971D01*
X146035Y276938D01*
X146035Y214854D01*
X138206Y207025D01*
X95336Y207025D01*
X95240Y207009D01*
X95143Y207000D01*
X95120Y206990D01*
X95095Y206986D01*
X95009Y206940D01*
X94921Y206899D01*
X94895Y206878D01*
X94880Y206871D01*
X94863Y206852D01*
X94806Y206806D01*
X86564Y198564D01*
X86507Y198484D01*
X86445Y198409D01*
X86437Y198386D01*
X86422Y198365D01*
X86394Y198272D01*
X86359Y198181D01*
X86356Y198148D01*
X86351Y198132D01*
X86352Y198107D01*
X86345Y198034D01*
X86345Y195437D01*
X86361Y195341D01*
X86370Y195244D01*
X86380Y195221D01*
X86384Y195196D01*
X86430Y195110D01*
X86471Y195021D01*
X86492Y194996D01*
X86499Y194981D01*
X86518Y194964D01*
X86552Y194922D01*
X86553Y194921D01*
X86564Y194907D01*
X88877Y192595D01*
X88877Y188405D01*
X85915Y185443D01*
X81725Y185443D01*
X80988Y186181D01*
X80928Y186224D01*
X80874Y186274D01*
X80830Y186294D01*
X80789Y186323D01*
X80719Y186344D01*
X80652Y186375D01*
X80603Y186380D01*
X80556Y186394D01*
X80483Y186392D01*
X80409Y186399D01*
X80361Y186388D01*
X80312Y186386D01*
X80243Y186360D01*
X80172Y186344D01*
X80130Y186318D01*
X80084Y186300D01*
X80027Y186254D01*
X79964Y186215D01*
X79933Y186177D01*
X79895Y186146D01*
X79856Y186083D01*
X79809Y186026D01*
X79792Y185980D01*
X79766Y185938D01*
X79749Y185867D01*
X79723Y185798D01*
X79716Y185725D01*
X79710Y185701D01*
X79712Y185684D01*
X79709Y185651D01*
X79709Y141779D01*
X75175Y137245D01*
X75118Y137166D01*
X75056Y137091D01*
X75047Y137067D01*
X75032Y137047D01*
X75004Y136953D01*
X74970Y136862D01*
X74966Y136829D01*
X74962Y136813D01*
X74962Y136788D01*
X74955Y136715D01*
X74955Y135171D01*
X71998Y132213D01*
X71983Y132193D01*
X71964Y132178D01*
X71913Y132095D01*
X71855Y132015D01*
X71848Y131992D01*
X71835Y131971D01*
X71813Y131875D01*
X71785Y131781D01*
X71785Y131757D01*
X71780Y131733D01*
X71789Y131636D01*
X71792Y131538D01*
X71801Y131515D01*
X71803Y131490D01*
X71844Y131401D01*
X71878Y131309D01*
X71894Y131290D01*
X71904Y131268D01*
X71998Y131154D01*
X75057Y128095D01*
X75057Y123905D01*
X72095Y120943D01*
X67905Y120943D01*
X65593Y123256D01*
X65513Y123313D01*
X65438Y123375D01*
X65415Y123383D01*
X65395Y123398D01*
X65301Y123426D01*
X65210Y123461D01*
X65177Y123464D01*
X65161Y123469D01*
X65136Y123468D01*
X65063Y123475D01*
X61784Y123475D01*
X60954Y124305D01*
X60894Y124348D01*
X60840Y124398D01*
X60796Y124419D01*
X60755Y124448D01*
X60685Y124469D01*
X60618Y124499D01*
X60569Y124504D01*
X60522Y124518D01*
X60449Y124516D01*
X60375Y124523D01*
X60327Y124512D01*
X60278Y124511D01*
X60209Y124485D01*
X60138Y124468D01*
X60096Y124442D01*
X60050Y124425D01*
X59993Y124378D01*
X59930Y124339D01*
X59899Y124301D01*
X59861Y124270D01*
X59822Y124208D01*
X59775Y124151D01*
X59758Y124105D01*
X59732Y124063D01*
X59715Y123991D01*
X59689Y123923D01*
X59682Y123849D01*
X59676Y123825D01*
X59678Y123809D01*
X59675Y123776D01*
X59675Y105878D01*
X59691Y105782D01*
X59700Y105685D01*
X59710Y105662D01*
X59714Y105637D01*
X59760Y105551D01*
X59801Y105462D01*
X59822Y105437D01*
X59829Y105422D01*
X59848Y105405D01*
X59894Y105348D01*
X66228Y99014D01*
X66308Y98957D01*
X66383Y98895D01*
X66406Y98887D01*
X66426Y98872D01*
X66520Y98844D01*
X66611Y98809D01*
X66644Y98806D01*
X66660Y98801D01*
X66685Y98802D01*
X66758Y98795D01*
X93333Y98795D01*
X93429Y98811D01*
G37*
G36*
X92008Y211357D02*
X92008Y211357D01*
X92081Y211364D01*
X92126Y211384D01*
X92174Y211396D01*
X92237Y211434D01*
X92304Y211465D01*
X92360Y211511D01*
X92382Y211524D01*
X92392Y211537D01*
X92418Y211558D01*
X92934Y212075D01*
X135804Y212075D01*
X135900Y212091D01*
X135997Y212100D01*
X136020Y212110D01*
X136045Y212114D01*
X136131Y212160D01*
X136219Y212201D01*
X136245Y212222D01*
X136260Y212229D01*
X136277Y212248D01*
X136334Y212294D01*
X140766Y216726D01*
X140823Y216806D01*
X140885Y216881D01*
X140893Y216904D01*
X140908Y216925D01*
X140936Y217018D01*
X140971Y217109D01*
X140974Y217142D01*
X140979Y217158D01*
X140978Y217183D01*
X140985Y217256D01*
X140985Y273594D01*
X140981Y273618D01*
X140984Y273643D01*
X140962Y273738D01*
X140946Y273835D01*
X140934Y273856D01*
X140928Y273880D01*
X140877Y273964D01*
X140831Y274050D01*
X140813Y274067D01*
X140800Y274088D01*
X140724Y274150D01*
X140653Y274217D01*
X140630Y274227D01*
X140611Y274243D01*
X140520Y274277D01*
X140430Y274318D01*
X140406Y274320D01*
X140383Y274329D01*
X140236Y274343D01*
X137605Y274343D01*
X134643Y277305D01*
X134643Y281495D01*
X137605Y284457D01*
X138516Y284457D01*
X138589Y284469D01*
X138662Y284471D01*
X138708Y284488D01*
X138757Y284496D01*
X138822Y284531D01*
X138890Y284557D01*
X138929Y284588D01*
X138972Y284611D01*
X139022Y284665D01*
X139079Y284712D01*
X139105Y284753D01*
X139139Y284789D01*
X139169Y284856D01*
X139208Y284919D01*
X139219Y284967D01*
X139240Y285012D01*
X139247Y285085D01*
X139264Y285156D01*
X139259Y285205D01*
X139264Y285255D01*
X139247Y285326D01*
X139240Y285399D01*
X139220Y285444D01*
X139208Y285492D01*
X139170Y285555D01*
X139139Y285622D01*
X139093Y285678D01*
X139080Y285700D01*
X139067Y285710D01*
X139046Y285736D01*
X133095Y291686D01*
X133095Y307386D01*
X133091Y307410D01*
X133094Y307435D01*
X133072Y307530D01*
X133056Y307627D01*
X133044Y307648D01*
X133038Y307672D01*
X132987Y307756D01*
X132941Y307842D01*
X132923Y307859D01*
X132910Y307880D01*
X132834Y307942D01*
X132763Y308009D01*
X132740Y308019D01*
X132721Y308035D01*
X132630Y308069D01*
X132540Y308110D01*
X132516Y308112D01*
X132493Y308121D01*
X132346Y308135D01*
X131528Y308135D01*
X130635Y309028D01*
X130635Y313210D01*
X130631Y313234D01*
X130634Y313259D01*
X130612Y313354D01*
X130596Y313451D01*
X130584Y313472D01*
X130578Y313496D01*
X130527Y313580D01*
X130481Y313666D01*
X130463Y313683D01*
X130450Y313704D01*
X130374Y313766D01*
X130303Y313833D01*
X130280Y313843D01*
X130261Y313859D01*
X130170Y313893D01*
X130080Y313934D01*
X130056Y313936D01*
X130033Y313945D01*
X129886Y313959D01*
X114750Y313959D01*
X114654Y313943D01*
X114557Y313934D01*
X114534Y313924D01*
X114509Y313920D01*
X114423Y313874D01*
X114334Y313833D01*
X114309Y313812D01*
X114294Y313805D01*
X114277Y313786D01*
X114220Y313740D01*
X114192Y313712D01*
X114178Y313692D01*
X114159Y313676D01*
X114129Y313629D01*
X114127Y313627D01*
X114125Y313622D01*
X114107Y313593D01*
X114050Y313513D01*
X114043Y313490D01*
X114030Y313469D01*
X114008Y313374D01*
X113979Y313280D01*
X113980Y313255D01*
X113974Y313232D01*
X113984Y313134D01*
X113987Y313036D01*
X113996Y313013D01*
X113998Y312989D01*
X114038Y312900D01*
X114073Y312808D01*
X114088Y312789D01*
X114098Y312766D01*
X114192Y312652D01*
X114555Y312290D01*
X114555Y307470D01*
X114192Y307108D01*
X114178Y307088D01*
X114159Y307072D01*
X114107Y306989D01*
X114050Y306910D01*
X114043Y306886D01*
X114030Y306865D01*
X114008Y306770D01*
X113979Y306676D01*
X113980Y306652D01*
X113974Y306628D01*
X113984Y306530D01*
X113987Y306432D01*
X113996Y306409D01*
X113998Y306385D01*
X114038Y306295D01*
X114073Y306204D01*
X114088Y306185D01*
X114098Y306162D01*
X114192Y306048D01*
X114555Y305686D01*
X114555Y300866D01*
X113662Y299973D01*
X102687Y299973D01*
X102614Y299961D01*
X102541Y299959D01*
X102495Y299942D01*
X102446Y299934D01*
X102381Y299899D01*
X102313Y299873D01*
X102274Y299842D01*
X102231Y299819D01*
X102181Y299765D01*
X102124Y299718D01*
X102098Y299676D01*
X102064Y299641D01*
X102034Y299574D01*
X101995Y299511D01*
X101984Y299463D01*
X101963Y299418D01*
X101956Y299345D01*
X101939Y299274D01*
X101944Y299225D01*
X101939Y299175D01*
X101956Y299104D01*
X101963Y299031D01*
X101983Y298986D01*
X101994Y298938D01*
X102033Y298875D01*
X102063Y298808D01*
X102110Y298752D01*
X102123Y298730D01*
X102136Y298720D01*
X102157Y298694D01*
X104117Y296735D01*
X104117Y292545D01*
X101155Y289583D01*
X96965Y289583D01*
X94003Y292545D01*
X94003Y296735D01*
X96316Y299047D01*
X96362Y299112D01*
X96392Y299144D01*
X96399Y299158D01*
X96435Y299202D01*
X96443Y299225D01*
X96458Y299245D01*
X96486Y299339D01*
X96521Y299430D01*
X96524Y299463D01*
X96529Y299479D01*
X96528Y299504D01*
X96535Y299577D01*
X96535Y300342D01*
X96533Y300354D01*
X96534Y300358D01*
X96530Y300374D01*
X96523Y300415D01*
X96521Y300488D01*
X96504Y300534D01*
X96496Y300583D01*
X96461Y300648D01*
X96435Y300716D01*
X96404Y300755D01*
X96381Y300798D01*
X96327Y300848D01*
X96280Y300905D01*
X96238Y300931D01*
X96203Y300965D01*
X96136Y300995D01*
X96073Y301034D01*
X96025Y301045D01*
X95980Y301066D01*
X95907Y301073D01*
X95836Y301090D01*
X95787Y301085D01*
X95737Y301090D01*
X95666Y301073D01*
X95593Y301066D01*
X95548Y301046D01*
X95500Y301035D01*
X95437Y300996D01*
X95370Y300966D01*
X95314Y300919D01*
X95292Y300906D01*
X95282Y300893D01*
X95256Y300872D01*
X94358Y299973D01*
X81918Y299973D01*
X81884Y300008D01*
X81805Y300065D01*
X81729Y300127D01*
X81706Y300135D01*
X81686Y300150D01*
X81592Y300178D01*
X81501Y300213D01*
X81468Y300216D01*
X81452Y300221D01*
X81427Y300220D01*
X81354Y300227D01*
X75191Y300227D01*
X74273Y301145D01*
X74253Y301159D01*
X74238Y301178D01*
X74155Y301230D01*
X74075Y301287D01*
X74051Y301295D01*
X74031Y301307D01*
X73935Y301330D01*
X73841Y301358D01*
X73817Y301357D01*
X73793Y301363D01*
X73696Y301354D01*
X73598Y301350D01*
X73575Y301342D01*
X73550Y301339D01*
X73461Y301299D01*
X73369Y301265D01*
X73350Y301249D01*
X73328Y301239D01*
X73214Y301145D01*
X69054Y296986D01*
X66454Y294385D01*
X60694Y294385D01*
X60670Y294381D01*
X60645Y294384D01*
X60550Y294362D01*
X60453Y294346D01*
X60432Y294334D01*
X60408Y294328D01*
X60324Y294277D01*
X60238Y294231D01*
X60221Y294213D01*
X60200Y294200D01*
X60138Y294124D01*
X60071Y294053D01*
X60061Y294030D01*
X60045Y294011D01*
X60011Y293920D01*
X59970Y293830D01*
X59968Y293806D01*
X59959Y293783D01*
X59945Y293636D01*
X59945Y267424D01*
X59961Y267328D01*
X59970Y267231D01*
X59980Y267208D01*
X59984Y267183D01*
X60030Y267097D01*
X60071Y267008D01*
X60092Y266983D01*
X60099Y266968D01*
X60118Y266951D01*
X60164Y266894D01*
X80265Y246794D01*
X80265Y212644D01*
X80269Y212621D01*
X80266Y212599D01*
X80277Y212551D01*
X80279Y212498D01*
X80296Y212452D01*
X80304Y212403D01*
X80317Y212379D01*
X80322Y212361D01*
X80345Y212324D01*
X80365Y212270D01*
X80396Y212232D01*
X80419Y212188D01*
X80442Y212167D01*
X80450Y212154D01*
X80480Y212129D01*
X80520Y212081D01*
X80562Y212055D01*
X80597Y212021D01*
X80628Y212007D01*
X80639Y211999D01*
X80672Y211986D01*
X80727Y211952D01*
X80775Y211941D01*
X80820Y211920D01*
X80855Y211917D01*
X80867Y211913D01*
X80917Y211908D01*
X80964Y211896D01*
X80997Y211900D01*
X81014Y211898D01*
X81017Y211898D01*
X81028Y211900D01*
X81063Y211896D01*
X81134Y211913D01*
X81207Y211920D01*
X81239Y211935D01*
X81258Y211938D01*
X81271Y211945D01*
X81300Y211952D01*
X81363Y211990D01*
X81430Y212021D01*
X81460Y212046D01*
X81473Y212053D01*
X81487Y212068D01*
X81508Y212080D01*
X81518Y212093D01*
X81544Y212114D01*
X82346Y212916D01*
X82403Y212996D01*
X82465Y213071D01*
X82473Y213094D01*
X82488Y213115D01*
X82516Y213208D01*
X82551Y213299D01*
X82554Y213332D01*
X82559Y213348D01*
X82558Y213373D01*
X82565Y213446D01*
X82565Y247564D01*
X82549Y247660D01*
X82540Y247757D01*
X82530Y247780D01*
X82526Y247805D01*
X82480Y247891D01*
X82439Y247979D01*
X82418Y248005D01*
X82411Y248020D01*
X82392Y248037D01*
X82346Y248094D01*
X73675Y256764D01*
X73675Y276636D01*
X83009Y285970D01*
X83024Y285990D01*
X83043Y286005D01*
X83094Y286088D01*
X83151Y286168D01*
X83159Y286192D01*
X83172Y286212D01*
X83194Y286308D01*
X83222Y286402D01*
X83222Y286426D01*
X83227Y286450D01*
X83218Y286547D01*
X83214Y286646D01*
X83206Y286668D01*
X83203Y286693D01*
X83163Y286782D01*
X83129Y286874D01*
X83113Y286893D01*
X83103Y286915D01*
X83009Y287029D01*
X81303Y288735D01*
X81303Y292925D01*
X84265Y295887D01*
X88455Y295887D01*
X91417Y292925D01*
X91417Y288735D01*
X89104Y286423D01*
X89047Y286344D01*
X88985Y286268D01*
X88977Y286245D01*
X88962Y286225D01*
X88934Y286131D01*
X88899Y286040D01*
X88896Y286007D01*
X88891Y285991D01*
X88892Y285966D01*
X88885Y285893D01*
X88885Y284704D01*
X84836Y280656D01*
X84793Y280596D01*
X84743Y280542D01*
X84723Y280498D01*
X84694Y280457D01*
X84673Y280387D01*
X84642Y280320D01*
X84638Y280271D01*
X84623Y280224D01*
X84626Y280151D01*
X84618Y280077D01*
X84630Y280029D01*
X84631Y279980D01*
X84657Y279911D01*
X84674Y279840D01*
X84700Y279798D01*
X84717Y279752D01*
X84764Y279695D01*
X84802Y279632D01*
X84840Y279601D01*
X84872Y279563D01*
X84934Y279524D01*
X84991Y279477D01*
X85037Y279460D01*
X85079Y279434D01*
X85150Y279417D01*
X85219Y279391D01*
X85292Y279384D01*
X85316Y279378D01*
X85333Y279380D01*
X85366Y279377D01*
X88455Y279377D01*
X91417Y276415D01*
X91417Y272225D01*
X88455Y269263D01*
X85184Y269263D01*
X85088Y269247D01*
X84991Y269238D01*
X84968Y269228D01*
X84943Y269224D01*
X84857Y269178D01*
X84769Y269137D01*
X84743Y269116D01*
X84728Y269109D01*
X84711Y269090D01*
X84654Y269044D01*
X82468Y266858D01*
X82411Y266778D01*
X82349Y266703D01*
X82341Y266680D01*
X82326Y266659D01*
X82298Y266566D01*
X82263Y266475D01*
X82260Y266442D01*
X82255Y266426D01*
X82256Y266401D01*
X82249Y266328D01*
X82249Y260626D01*
X82265Y260530D01*
X82274Y260433D01*
X82284Y260410D01*
X82288Y260385D01*
X82334Y260299D01*
X82375Y260210D01*
X82396Y260185D01*
X82403Y260170D01*
X82422Y260153D01*
X82468Y260096D01*
X91139Y251426D01*
X91139Y212088D01*
X91151Y212016D01*
X91153Y211942D01*
X91170Y211896D01*
X91178Y211847D01*
X91213Y211782D01*
X91239Y211714D01*
X91270Y211676D01*
X91293Y211632D01*
X91347Y211582D01*
X91394Y211525D01*
X91436Y211499D01*
X91471Y211465D01*
X91538Y211435D01*
X91601Y211396D01*
X91649Y211385D01*
X91694Y211364D01*
X91767Y211357D01*
X91838Y211340D01*
X91887Y211345D01*
X91937Y211340D01*
X92008Y211357D01*
G37*
G36*
X100231Y312421D02*
X100231Y312421D01*
X100328Y312430D01*
X100350Y312440D01*
X100375Y312444D01*
X100461Y312490D01*
X100550Y312531D01*
X100575Y312552D01*
X100590Y312559D01*
X100607Y312578D01*
X100664Y312624D01*
X100692Y312653D01*
X100706Y312672D01*
X100725Y312688D01*
X100755Y312735D01*
X100757Y312737D01*
X100759Y312742D01*
X100777Y312771D01*
X100834Y312851D01*
X100841Y312874D01*
X100854Y312895D01*
X100876Y312990D01*
X100905Y313084D01*
X100904Y313109D01*
X100910Y313132D01*
X100900Y313230D01*
X100897Y313328D01*
X100888Y313351D01*
X100886Y313375D01*
X100846Y313465D01*
X100811Y313557D01*
X100796Y313575D01*
X100786Y313598D01*
X100692Y313712D01*
X100329Y314074D01*
X100329Y318894D01*
X101222Y319787D01*
X113662Y319787D01*
X114220Y319228D01*
X114299Y319171D01*
X114375Y319109D01*
X114398Y319101D01*
X114418Y319086D01*
X114512Y319058D01*
X114603Y319023D01*
X114636Y319020D01*
X114652Y319015D01*
X114677Y319016D01*
X114750Y319009D01*
X129886Y319009D01*
X129910Y319013D01*
X129935Y319010D01*
X130030Y319032D01*
X130127Y319048D01*
X130148Y319060D01*
X130172Y319066D01*
X130256Y319117D01*
X130342Y319163D01*
X130359Y319181D01*
X130380Y319194D01*
X130442Y319270D01*
X130509Y319341D01*
X130519Y319364D01*
X130535Y319383D01*
X130569Y319474D01*
X130610Y319564D01*
X130612Y319588D01*
X130621Y319611D01*
X130635Y319758D01*
X130635Y324292D01*
X131528Y325185D01*
X142792Y325185D01*
X143685Y324292D01*
X143685Y321474D01*
X143689Y321450D01*
X143686Y321425D01*
X143708Y321330D01*
X143724Y321233D01*
X143736Y321212D01*
X143742Y321188D01*
X143793Y321104D01*
X143839Y321018D01*
X143857Y321001D01*
X143870Y320980D01*
X143946Y320918D01*
X144017Y320851D01*
X144040Y320841D01*
X144059Y320825D01*
X144150Y320791D01*
X144240Y320750D01*
X144264Y320748D01*
X144287Y320739D01*
X144434Y320725D01*
X149566Y320725D01*
X149662Y320741D01*
X149759Y320750D01*
X149782Y320760D01*
X149807Y320764D01*
X149893Y320810D01*
X149982Y320851D01*
X150007Y320872D01*
X150022Y320879D01*
X150039Y320898D01*
X150096Y320944D01*
X154526Y325375D01*
X165270Y325375D01*
X165294Y325379D01*
X165318Y325376D01*
X165414Y325398D01*
X165510Y325414D01*
X165532Y325426D01*
X165556Y325432D01*
X165639Y325483D01*
X165726Y325529D01*
X165742Y325547D01*
X165763Y325560D01*
X165825Y325636D01*
X165892Y325707D01*
X165903Y325730D01*
X165918Y325749D01*
X165953Y325840D01*
X165993Y325930D01*
X165996Y325954D01*
X166004Y325977D01*
X166019Y326124D01*
X166019Y329819D01*
X166003Y329916D01*
X165994Y330013D01*
X165983Y330035D01*
X165979Y330060D01*
X165933Y330146D01*
X165893Y330235D01*
X165872Y330261D01*
X165864Y330275D01*
X165846Y330292D01*
X165799Y330349D01*
X165480Y330668D01*
X165480Y334276D01*
X165476Y334300D01*
X165479Y334325D01*
X165457Y334420D01*
X165441Y334517D01*
X165429Y334538D01*
X165423Y334562D01*
X165372Y334646D01*
X165326Y334732D01*
X165308Y334749D01*
X165295Y334770D01*
X165219Y334832D01*
X165148Y334899D01*
X165125Y334909D01*
X165106Y334925D01*
X165015Y334959D01*
X164925Y335000D01*
X164901Y335002D01*
X164878Y335011D01*
X164731Y335025D01*
X153934Y335025D01*
X153910Y335021D01*
X153885Y335024D01*
X153790Y335002D01*
X153693Y334986D01*
X153672Y334974D01*
X153648Y334968D01*
X153564Y334917D01*
X153478Y334871D01*
X153461Y334853D01*
X153440Y334840D01*
X153378Y334764D01*
X153311Y334693D01*
X153301Y334670D01*
X153285Y334651D01*
X153251Y334560D01*
X153210Y334470D01*
X153208Y334446D01*
X153199Y334423D01*
X153185Y334276D01*
X153185Y331028D01*
X152292Y330135D01*
X141028Y330135D01*
X140135Y331028D01*
X140135Y346292D01*
X141028Y347185D01*
X141846Y347185D01*
X141870Y347189D01*
X141895Y347186D01*
X141990Y347208D01*
X142087Y347224D01*
X142108Y347236D01*
X142132Y347242D01*
X142216Y347293D01*
X142302Y347339D01*
X142319Y347357D01*
X142340Y347370D01*
X142402Y347446D01*
X142469Y347517D01*
X142479Y347540D01*
X142495Y347559D01*
X142529Y347650D01*
X142570Y347740D01*
X142572Y347764D01*
X142581Y347787D01*
X142595Y347934D01*
X142595Y348810D01*
X151388Y357602D01*
X151445Y357682D01*
X151507Y357757D01*
X151515Y357780D01*
X151530Y357801D01*
X151558Y357894D01*
X151593Y357985D01*
X151596Y358018D01*
X151601Y358034D01*
X151600Y358059D01*
X151607Y358132D01*
X151607Y360358D01*
X151603Y360382D01*
X151606Y360407D01*
X151584Y360502D01*
X151568Y360599D01*
X151556Y360620D01*
X151550Y360644D01*
X151499Y360728D01*
X151453Y360814D01*
X151435Y360831D01*
X151422Y360852D01*
X151346Y360914D01*
X151275Y360981D01*
X151252Y360991D01*
X151233Y361007D01*
X151142Y361041D01*
X151052Y361082D01*
X151028Y361084D01*
X151005Y361093D01*
X150858Y361107D01*
X143200Y361107D01*
X142307Y362000D01*
X142307Y369836D01*
X142303Y369860D01*
X142306Y369885D01*
X142284Y369980D01*
X142268Y370077D01*
X142256Y370098D01*
X142250Y370122D01*
X142199Y370206D01*
X142153Y370292D01*
X142135Y370309D01*
X142122Y370330D01*
X142046Y370392D01*
X141975Y370459D01*
X141952Y370469D01*
X141933Y370485D01*
X141842Y370519D01*
X141752Y370560D01*
X141728Y370562D01*
X141705Y370571D01*
X141558Y370585D01*
X134354Y370585D01*
X134330Y370581D01*
X134305Y370584D01*
X134210Y370562D01*
X134113Y370546D01*
X134092Y370534D01*
X134068Y370528D01*
X133984Y370477D01*
X133898Y370431D01*
X133881Y370413D01*
X133860Y370400D01*
X133798Y370324D01*
X133731Y370253D01*
X133721Y370230D01*
X133705Y370211D01*
X133671Y370120D01*
X133630Y370030D01*
X133628Y370006D01*
X133619Y369983D01*
X133605Y369836D01*
X133605Y358996D01*
X124874Y350265D01*
X79464Y350265D01*
X79368Y350249D01*
X79271Y350240D01*
X79248Y350230D01*
X79223Y350226D01*
X79137Y350180D01*
X79048Y350139D01*
X79023Y350118D01*
X79008Y350111D01*
X78991Y350092D01*
X78934Y350046D01*
X76674Y347786D01*
X76617Y347706D01*
X76555Y347631D01*
X76547Y347608D01*
X76532Y347587D01*
X76504Y347494D01*
X76469Y347403D01*
X76466Y347370D01*
X76461Y347354D01*
X76462Y347329D01*
X76455Y347256D01*
X76455Y339644D01*
X76467Y339572D01*
X76469Y339498D01*
X76486Y339452D01*
X76494Y339403D01*
X76529Y339339D01*
X76555Y339270D01*
X76586Y339232D01*
X76609Y339188D01*
X76663Y339138D01*
X76710Y339081D01*
X76752Y339055D01*
X76787Y339021D01*
X76854Y338991D01*
X76917Y338952D01*
X76965Y338941D01*
X77010Y338920D01*
X77083Y338913D01*
X77154Y338896D01*
X77203Y338901D01*
X77253Y338896D01*
X77324Y338913D01*
X77397Y338920D01*
X77442Y338940D01*
X77490Y338952D01*
X77553Y338990D01*
X77620Y339021D01*
X77676Y339067D01*
X77698Y339080D01*
X77708Y339093D01*
X77734Y339114D01*
X79474Y340855D01*
X86166Y340855D01*
X86190Y340859D01*
X86215Y340856D01*
X86310Y340878D01*
X86407Y340894D01*
X86428Y340906D01*
X86452Y340912D01*
X86536Y340963D01*
X86622Y341009D01*
X86639Y341027D01*
X86660Y341040D01*
X86722Y341116D01*
X86789Y341187D01*
X86799Y341210D01*
X86815Y341229D01*
X86849Y341320D01*
X86890Y341410D01*
X86892Y341434D01*
X86901Y341457D01*
X86915Y341604D01*
X86915Y341662D01*
X87808Y342555D01*
X95072Y342555D01*
X95965Y341662D01*
X95965Y334769D01*
X95968Y334747D01*
X95966Y334726D01*
X95982Y334659D01*
X95990Y334576D01*
X96000Y334553D01*
X96004Y334528D01*
X96019Y334502D01*
X96022Y334489D01*
X96049Y334444D01*
X96050Y334442D01*
X96091Y334353D01*
X96112Y334328D01*
X96119Y334313D01*
X96138Y334296D01*
X96184Y334239D01*
X96473Y333950D01*
X96808Y333371D01*
X96981Y332724D01*
X96981Y331039D01*
X92040Y331039D01*
X92016Y331035D01*
X91992Y331038D01*
X91896Y331016D01*
X91799Y331000D01*
X91778Y330988D01*
X91754Y330982D01*
X91671Y330931D01*
X91584Y330885D01*
X91568Y330867D01*
X91547Y330854D01*
X91484Y330778D01*
X91442Y330732D01*
X91434Y330746D01*
X91416Y330763D01*
X91404Y330784D01*
X91328Y330846D01*
X91256Y330913D01*
X91234Y330923D01*
X91215Y330939D01*
X91123Y330973D01*
X91034Y331014D01*
X91010Y331016D01*
X90987Y331025D01*
X90840Y331039D01*
X85899Y331039D01*
X85899Y332724D01*
X85995Y333082D01*
X86072Y333371D01*
X86407Y333950D01*
X86696Y334239D01*
X86753Y334318D01*
X86763Y334331D01*
X86789Y334358D01*
X86793Y334367D01*
X86815Y334394D01*
X86823Y334417D01*
X86838Y334437D01*
X86865Y334526D01*
X86890Y334581D01*
X86891Y334597D01*
X86901Y334622D01*
X86904Y334655D01*
X86909Y334671D01*
X86908Y334696D01*
X86915Y334769D01*
X86915Y335056D01*
X86911Y335080D01*
X86914Y335105D01*
X86892Y335200D01*
X86876Y335297D01*
X86864Y335318D01*
X86858Y335342D01*
X86807Y335426D01*
X86761Y335512D01*
X86743Y335529D01*
X86730Y335550D01*
X86654Y335612D01*
X86583Y335679D01*
X86560Y335689D01*
X86541Y335705D01*
X86450Y335739D01*
X86360Y335780D01*
X86336Y335782D01*
X86313Y335791D01*
X86166Y335805D01*
X81876Y335805D01*
X81780Y335789D01*
X81683Y335780D01*
X81660Y335770D01*
X81635Y335766D01*
X81549Y335720D01*
X81461Y335679D01*
X81435Y335658D01*
X81420Y335651D01*
X81403Y335632D01*
X81346Y335586D01*
X80214Y334454D01*
X80157Y334374D01*
X80095Y334299D01*
X80087Y334276D01*
X80072Y334255D01*
X80044Y334162D01*
X80009Y334071D01*
X80006Y334038D01*
X80001Y334022D01*
X80002Y333997D01*
X79995Y333924D01*
X79995Y320126D01*
X80011Y320030D01*
X80020Y319933D01*
X80030Y319910D01*
X80034Y319885D01*
X80080Y319799D01*
X80121Y319711D01*
X80142Y319685D01*
X80149Y319670D01*
X80168Y319653D01*
X80214Y319596D01*
X80441Y319369D01*
X80461Y319355D01*
X80477Y319336D01*
X80560Y319284D01*
X80640Y319227D01*
X80663Y319220D01*
X80684Y319207D01*
X80779Y319185D01*
X80873Y319156D01*
X80898Y319157D01*
X80921Y319151D01*
X81019Y319161D01*
X81117Y319164D01*
X81140Y319173D01*
X81164Y319175D01*
X81254Y319215D01*
X81345Y319250D01*
X81364Y319265D01*
X81387Y319276D01*
X81501Y319369D01*
X81918Y319787D01*
X94358Y319787D01*
X95251Y318894D01*
X95251Y314074D01*
X94888Y313712D01*
X94874Y313692D01*
X94855Y313676D01*
X94803Y313593D01*
X94746Y313513D01*
X94739Y313490D01*
X94726Y313469D01*
X94704Y313374D01*
X94675Y313280D01*
X94676Y313255D01*
X94670Y313232D01*
X94680Y313134D01*
X94683Y313036D01*
X94692Y313013D01*
X94694Y312989D01*
X94734Y312900D01*
X94769Y312808D01*
X94784Y312789D01*
X94794Y312766D01*
X94888Y312652D01*
X94916Y312624D01*
X94995Y312567D01*
X95071Y312505D01*
X95094Y312497D01*
X95114Y312482D01*
X95208Y312454D01*
X95299Y312419D01*
X95332Y312416D01*
X95348Y312411D01*
X95373Y312412D01*
X95446Y312405D01*
X100134Y312405D01*
X100231Y312421D01*
G37*
%LPC*%
G36*
X162954Y34475D02*
X162954Y34475D01*
X161256Y36174D01*
X157320Y40109D01*
X157300Y40124D01*
X157285Y40143D01*
X157214Y40186D01*
X157175Y40219D01*
X157159Y40225D01*
X157122Y40251D01*
X157098Y40259D01*
X157078Y40272D01*
X156982Y40294D01*
X156952Y40303D01*
X156946Y40305D01*
X156944Y40305D01*
X156888Y40322D01*
X156864Y40322D01*
X156840Y40327D01*
X156743Y40318D01*
X156644Y40314D01*
X156622Y40306D01*
X156597Y40303D01*
X156548Y40281D01*
X156541Y40280D01*
X156515Y40266D01*
X156508Y40263D01*
X156416Y40229D01*
X156397Y40213D01*
X156375Y40203D01*
X156334Y40170D01*
X156325Y40165D01*
X156315Y40154D01*
X156261Y40109D01*
X154095Y37943D01*
X149905Y37943D01*
X146943Y40905D01*
X146943Y45095D01*
X149905Y48057D01*
X154095Y48057D01*
X156407Y45744D01*
X156487Y45687D01*
X156562Y45625D01*
X156585Y45617D01*
X156605Y45602D01*
X156699Y45574D01*
X156790Y45539D01*
X156823Y45536D01*
X156839Y45531D01*
X156864Y45532D01*
X156937Y45525D01*
X159046Y45525D01*
X164826Y39744D01*
X164906Y39687D01*
X164981Y39625D01*
X165004Y39617D01*
X165025Y39602D01*
X165118Y39574D01*
X165209Y39539D01*
X165242Y39536D01*
X165258Y39531D01*
X165283Y39532D01*
X165356Y39525D01*
X219644Y39525D01*
X219740Y39541D01*
X219837Y39550D01*
X219860Y39560D01*
X219885Y39564D01*
X219971Y39610D01*
X220059Y39651D01*
X220085Y39672D01*
X220100Y39679D01*
X220117Y39698D01*
X220174Y39744D01*
X223256Y42826D01*
X223307Y42897D01*
X223309Y42900D01*
X223311Y42903D01*
X223313Y42906D01*
X223375Y42981D01*
X223383Y43004D01*
X223398Y43025D01*
X223426Y43118D01*
X223461Y43209D01*
X223464Y43242D01*
X223469Y43258D01*
X223468Y43283D01*
X223475Y43356D01*
X223475Y79063D01*
X223459Y79159D01*
X223450Y79256D01*
X223440Y79279D01*
X223436Y79304D01*
X223390Y79390D01*
X223349Y79479D01*
X223328Y79504D01*
X223321Y79519D01*
X223302Y79536D01*
X223256Y79593D01*
X220943Y81905D01*
X220943Y86095D01*
X223905Y89057D01*
X228095Y89057D01*
X231057Y86095D01*
X231057Y81905D01*
X228744Y79593D01*
X228687Y79513D01*
X228625Y79438D01*
X228617Y79415D01*
X228602Y79395D01*
X228574Y79301D01*
X228539Y79210D01*
X228536Y79177D01*
X228531Y79161D01*
X228532Y79136D01*
X228525Y79063D01*
X228525Y40954D01*
X222046Y34475D01*
X162954Y34475D01*
G37*
%LPD*%
%LPC*%
G36*
X56325Y382293D02*
X56325Y382293D01*
X53363Y385255D01*
X53363Y389445D01*
X55676Y391757D01*
X55733Y391837D01*
X55795Y391912D01*
X55803Y391935D01*
X55818Y391955D01*
X55846Y392049D01*
X55881Y392140D01*
X55884Y392173D01*
X55889Y392189D01*
X55888Y392214D01*
X55895Y392287D01*
X55895Y416336D01*
X61184Y421625D01*
X75704Y421625D01*
X75728Y421629D01*
X75753Y421626D01*
X75848Y421648D01*
X75945Y421664D01*
X75966Y421676D01*
X75990Y421682D01*
X76074Y421733D01*
X76160Y421779D01*
X76177Y421797D01*
X76198Y421810D01*
X76260Y421886D01*
X76327Y421957D01*
X76337Y421980D01*
X76353Y421999D01*
X76387Y422090D01*
X76428Y422180D01*
X76430Y422204D01*
X76439Y422227D01*
X76453Y422374D01*
X76453Y422780D01*
X77346Y423673D01*
X101470Y423673D01*
X102363Y422780D01*
X102363Y415420D01*
X101470Y414527D01*
X77346Y414527D01*
X76453Y415420D01*
X76453Y415826D01*
X76449Y415850D01*
X76452Y415875D01*
X76430Y415970D01*
X76414Y416067D01*
X76402Y416088D01*
X76396Y416112D01*
X76345Y416196D01*
X76299Y416282D01*
X76281Y416299D01*
X76268Y416320D01*
X76192Y416382D01*
X76121Y416449D01*
X76098Y416459D01*
X76079Y416475D01*
X75988Y416509D01*
X75898Y416550D01*
X75874Y416552D01*
X75851Y416561D01*
X75704Y416575D01*
X63586Y416575D01*
X63490Y416559D01*
X63393Y416550D01*
X63370Y416540D01*
X63345Y416536D01*
X63259Y416490D01*
X63171Y416449D01*
X63145Y416428D01*
X63130Y416421D01*
X63113Y416402D01*
X63056Y416356D01*
X61164Y414464D01*
X61107Y414384D01*
X61045Y414309D01*
X61037Y414286D01*
X61022Y414265D01*
X60994Y414172D01*
X60959Y414081D01*
X60956Y414048D01*
X60951Y414032D01*
X60952Y414007D01*
X60945Y413934D01*
X60945Y392287D01*
X60961Y392191D01*
X60970Y392094D01*
X60980Y392071D01*
X60984Y392046D01*
X61030Y391960D01*
X61071Y391871D01*
X61092Y391846D01*
X61099Y391831D01*
X61118Y391814D01*
X61164Y391757D01*
X63477Y389445D01*
X63477Y385255D01*
X60515Y382293D01*
X56325Y382293D01*
G37*
%LPD*%
%LPC*%
G36*
X129985Y232433D02*
X129985Y232433D01*
X127023Y235395D01*
X127023Y239585D01*
X129066Y241627D01*
X129123Y241706D01*
X129185Y241782D01*
X129193Y241805D01*
X129208Y241825D01*
X129236Y241919D01*
X129271Y242010D01*
X129274Y242043D01*
X129279Y242059D01*
X129278Y242084D01*
X129285Y242157D01*
X129285Y258882D01*
X129269Y258978D01*
X129260Y259075D01*
X129250Y259098D01*
X129246Y259123D01*
X129200Y259209D01*
X129159Y259298D01*
X129138Y259323D01*
X129131Y259338D01*
X129112Y259355D01*
X129066Y259412D01*
X124792Y263686D01*
X124712Y263743D01*
X124637Y263805D01*
X124614Y263813D01*
X124593Y263828D01*
X124500Y263856D01*
X124409Y263891D01*
X124376Y263894D01*
X124360Y263899D01*
X124335Y263898D01*
X124262Y263905D01*
X101187Y263905D01*
X101091Y263889D01*
X100994Y263880D01*
X100971Y263870D01*
X100946Y263866D01*
X100860Y263820D01*
X100771Y263779D01*
X100746Y263758D01*
X100731Y263751D01*
X100714Y263732D01*
X100657Y263686D01*
X98615Y261643D01*
X94425Y261643D01*
X91463Y264605D01*
X91463Y268795D01*
X94425Y271757D01*
X98615Y271757D01*
X100657Y269714D01*
X100737Y269657D01*
X100812Y269595D01*
X100835Y269587D01*
X100855Y269572D01*
X100949Y269544D01*
X101040Y269509D01*
X101073Y269506D01*
X101089Y269501D01*
X101114Y269502D01*
X101187Y269495D01*
X126888Y269495D01*
X134875Y261508D01*
X134875Y242157D01*
X134891Y242061D01*
X134900Y241964D01*
X134910Y241941D01*
X134914Y241916D01*
X134960Y241830D01*
X135001Y241741D01*
X135022Y241716D01*
X135029Y241701D01*
X135048Y241684D01*
X135094Y241627D01*
X137137Y239585D01*
X137137Y235395D01*
X134175Y232433D01*
X129985Y232433D01*
G37*
%LPD*%
%LPC*%
G36*
X173618Y67075D02*
X173618Y67075D01*
X172725Y67968D01*
X172725Y94632D01*
X173618Y95525D01*
X187582Y95525D01*
X188475Y94632D01*
X188475Y67968D01*
X187582Y67075D01*
X173618Y67075D01*
G37*
%LPD*%
%LPC*%
G36*
X122028Y330135D02*
X122028Y330135D01*
X121135Y331028D01*
X121135Y334425D01*
X121123Y334498D01*
X121121Y334571D01*
X121104Y334617D01*
X121096Y334666D01*
X121061Y334731D01*
X121035Y334799D01*
X121004Y334838D01*
X120981Y334881D01*
X120927Y334931D01*
X120880Y334988D01*
X120838Y335014D01*
X120803Y335048D01*
X120736Y335078D01*
X120673Y335117D01*
X120625Y335128D01*
X120580Y335149D01*
X120507Y335156D01*
X120436Y335173D01*
X120387Y335168D01*
X120337Y335173D01*
X120266Y335156D01*
X120193Y335149D01*
X120148Y335129D01*
X120100Y335118D01*
X120037Y335079D01*
X119970Y335049D01*
X119914Y335002D01*
X119892Y334989D01*
X119882Y334976D01*
X119856Y334955D01*
X117665Y332763D01*
X113475Y332763D01*
X110653Y335586D01*
X110573Y335643D01*
X110498Y335705D01*
X110475Y335713D01*
X110455Y335728D01*
X110361Y335756D01*
X110270Y335791D01*
X110237Y335794D01*
X110221Y335799D01*
X110196Y335798D01*
X110123Y335805D01*
X109414Y335805D01*
X109390Y335801D01*
X109365Y335804D01*
X109270Y335782D01*
X109173Y335766D01*
X109152Y335754D01*
X109128Y335748D01*
X109044Y335697D01*
X108958Y335651D01*
X108941Y335633D01*
X108920Y335620D01*
X108858Y335544D01*
X108791Y335473D01*
X108781Y335450D01*
X108765Y335431D01*
X108731Y335340D01*
X108690Y335250D01*
X108688Y335226D01*
X108679Y335203D01*
X108665Y335056D01*
X108665Y334769D01*
X108668Y334747D01*
X108666Y334726D01*
X108682Y334659D01*
X108690Y334576D01*
X108700Y334553D01*
X108704Y334528D01*
X108719Y334502D01*
X108722Y334489D01*
X108749Y334444D01*
X108750Y334442D01*
X108791Y334353D01*
X108812Y334328D01*
X108819Y334313D01*
X108838Y334296D01*
X108884Y334239D01*
X109173Y333950D01*
X109508Y333371D01*
X109681Y332724D01*
X109681Y331039D01*
X104740Y331039D01*
X104716Y331035D01*
X104692Y331038D01*
X104596Y331016D01*
X104499Y331000D01*
X104478Y330988D01*
X104454Y330982D01*
X104371Y330931D01*
X104284Y330885D01*
X104268Y330867D01*
X104247Y330854D01*
X104184Y330778D01*
X104142Y330732D01*
X104134Y330746D01*
X104116Y330763D01*
X104104Y330784D01*
X104028Y330846D01*
X103956Y330913D01*
X103934Y330923D01*
X103915Y330939D01*
X103823Y330973D01*
X103734Y331014D01*
X103710Y331016D01*
X103687Y331025D01*
X103540Y331039D01*
X98599Y331039D01*
X98599Y332724D01*
X98695Y333082D01*
X98772Y333371D01*
X99107Y333950D01*
X99396Y334239D01*
X99453Y334318D01*
X99463Y334331D01*
X99489Y334358D01*
X99493Y334367D01*
X99515Y334394D01*
X99523Y334417D01*
X99538Y334437D01*
X99565Y334526D01*
X99590Y334581D01*
X99591Y334597D01*
X99601Y334622D01*
X99604Y334655D01*
X99609Y334671D01*
X99608Y334696D01*
X99615Y334769D01*
X99615Y341662D01*
X100508Y342555D01*
X107772Y342555D01*
X108665Y341662D01*
X108665Y341604D01*
X108669Y341580D01*
X108666Y341555D01*
X108688Y341460D01*
X108704Y341363D01*
X108716Y341342D01*
X108722Y341318D01*
X108773Y341234D01*
X108819Y341148D01*
X108837Y341131D01*
X108850Y341110D01*
X108926Y341048D01*
X108997Y340981D01*
X109020Y340971D01*
X109039Y340955D01*
X109130Y340921D01*
X109220Y340880D01*
X109244Y340878D01*
X109267Y340869D01*
X109414Y340855D01*
X111143Y340855D01*
X111239Y340871D01*
X111336Y340880D01*
X111359Y340890D01*
X111384Y340894D01*
X111470Y340940D01*
X111559Y340981D01*
X111584Y341002D01*
X111599Y341009D01*
X111616Y341028D01*
X111673Y341074D01*
X113475Y342877D01*
X117665Y342877D01*
X119137Y341404D01*
X119217Y341347D01*
X119292Y341285D01*
X119315Y341277D01*
X119335Y341262D01*
X119429Y341234D01*
X119520Y341199D01*
X119553Y341196D01*
X119569Y341191D01*
X119594Y341192D01*
X119667Y341185D01*
X120386Y341185D01*
X120410Y341189D01*
X120435Y341186D01*
X120530Y341208D01*
X120627Y341224D01*
X120648Y341236D01*
X120672Y341242D01*
X120756Y341293D01*
X120842Y341339D01*
X120859Y341357D01*
X120880Y341370D01*
X120942Y341446D01*
X121009Y341517D01*
X121019Y341540D01*
X121035Y341559D01*
X121069Y341650D01*
X121110Y341740D01*
X121112Y341764D01*
X121121Y341787D01*
X121135Y341934D01*
X121135Y346292D01*
X122028Y347185D01*
X133292Y347185D01*
X134185Y346292D01*
X134185Y331028D01*
X133292Y330135D01*
X122028Y330135D01*
G37*
%LPD*%
%LPC*%
G36*
X107125Y401343D02*
X107125Y401343D01*
X104813Y403656D01*
X104733Y403713D01*
X104658Y403775D01*
X104635Y403783D01*
X104615Y403798D01*
X104521Y403826D01*
X104430Y403861D01*
X104397Y403864D01*
X104381Y403869D01*
X104356Y403868D01*
X104283Y403875D01*
X103112Y403875D01*
X103088Y403871D01*
X103063Y403874D01*
X102968Y403852D01*
X102871Y403836D01*
X102850Y403824D01*
X102826Y403818D01*
X102742Y403767D01*
X102656Y403721D01*
X102639Y403703D01*
X102618Y403690D01*
X102556Y403614D01*
X102489Y403543D01*
X102479Y403520D01*
X102463Y403501D01*
X102429Y403410D01*
X102388Y403320D01*
X102386Y403296D01*
X102377Y403273D01*
X102363Y403126D01*
X102363Y402720D01*
X101470Y401827D01*
X77346Y401827D01*
X76453Y402720D01*
X76453Y410080D01*
X77346Y410973D01*
X101470Y410973D01*
X102363Y410080D01*
X102363Y409674D01*
X102365Y409660D01*
X102364Y409651D01*
X102366Y409644D01*
X102364Y409625D01*
X102386Y409530D01*
X102402Y409433D01*
X102414Y409412D01*
X102420Y409388D01*
X102471Y409304D01*
X102517Y409218D01*
X102535Y409201D01*
X102548Y409180D01*
X102624Y409118D01*
X102695Y409051D01*
X102718Y409041D01*
X102737Y409025D01*
X102828Y408991D01*
X102918Y408950D01*
X102942Y408948D01*
X102965Y408939D01*
X103112Y408925D01*
X104283Y408925D01*
X104379Y408941D01*
X104476Y408950D01*
X104499Y408960D01*
X104524Y408964D01*
X104610Y409010D01*
X104699Y409051D01*
X104724Y409072D01*
X104739Y409079D01*
X104756Y409098D01*
X104813Y409144D01*
X107125Y411457D01*
X111315Y411457D01*
X114277Y408495D01*
X114277Y404305D01*
X111315Y401343D01*
X107125Y401343D01*
G37*
%LPD*%
G36*
X225126Y127691D02*
X225126Y127691D01*
X225252Y127698D01*
X225298Y127711D01*
X225346Y127717D01*
X225465Y127759D01*
X225587Y127794D01*
X225629Y127818D01*
X225674Y127834D01*
X225781Y127903D01*
X225891Y127964D01*
X225937Y128004D01*
X225967Y128023D01*
X226001Y128058D01*
X226077Y128123D01*
X226377Y128423D01*
X226456Y128522D01*
X226540Y128616D01*
X226564Y128658D01*
X226594Y128696D01*
X226648Y128810D01*
X226709Y128921D01*
X226722Y128967D01*
X226743Y129011D01*
X226769Y129134D01*
X226804Y129256D01*
X226809Y129317D01*
X226816Y129352D01*
X226815Y129400D01*
X226823Y129500D01*
X226823Y145100D01*
X226809Y145226D01*
X226802Y145352D01*
X226789Y145398D01*
X226783Y145446D01*
X226741Y145565D01*
X226706Y145687D01*
X226682Y145729D01*
X226666Y145774D01*
X226597Y145881D01*
X226536Y145991D01*
X226496Y146037D01*
X226477Y146067D01*
X226442Y146101D01*
X226377Y146177D01*
X225677Y146877D01*
X225578Y146956D01*
X225484Y147040D01*
X225442Y147064D01*
X225404Y147094D01*
X225290Y147148D01*
X225179Y147209D01*
X225133Y147222D01*
X225089Y147243D01*
X224966Y147269D01*
X224844Y147304D01*
X224783Y147309D01*
X224748Y147316D01*
X224700Y147315D01*
X224600Y147323D01*
X216300Y147323D01*
X216274Y147320D01*
X216248Y147322D01*
X216101Y147300D01*
X215954Y147283D01*
X215929Y147275D01*
X215903Y147271D01*
X215765Y147216D01*
X215626Y147166D01*
X215604Y147152D01*
X215579Y147142D01*
X215458Y147057D01*
X215333Y146977D01*
X215315Y146958D01*
X215293Y146943D01*
X215194Y146833D01*
X215091Y146726D01*
X215077Y146704D01*
X215060Y146684D01*
X214988Y146554D01*
X214912Y146427D01*
X214904Y146402D01*
X214891Y146379D01*
X214851Y146236D01*
X214806Y146095D01*
X214804Y146069D01*
X214796Y146044D01*
X214777Y145800D01*
X214777Y129200D01*
X214780Y129174D01*
X214778Y129148D01*
X214800Y129001D01*
X214817Y128854D01*
X214825Y128829D01*
X214829Y128803D01*
X214884Y128665D01*
X214934Y128526D01*
X214948Y128504D01*
X214958Y128479D01*
X215043Y128358D01*
X215123Y128233D01*
X215142Y128215D01*
X215157Y128193D01*
X215267Y128094D01*
X215374Y127991D01*
X215396Y127977D01*
X215416Y127960D01*
X215546Y127888D01*
X215673Y127812D01*
X215698Y127804D01*
X215721Y127791D01*
X215864Y127751D01*
X216005Y127706D01*
X216031Y127704D01*
X216056Y127696D01*
X216300Y127677D01*
X225000Y127677D01*
X225126Y127691D01*
G37*
%LPC*%
G36*
X22299Y67301D02*
X22299Y67301D01*
X29131Y67301D01*
X29131Y67119D01*
X29143Y67046D01*
X29145Y66973D01*
X29162Y66927D01*
X29170Y66878D01*
X29205Y66813D01*
X29231Y66744D01*
X29262Y66706D01*
X29285Y66663D01*
X29339Y66613D01*
X29386Y66556D01*
X29428Y66530D01*
X29463Y66496D01*
X29530Y66466D01*
X29593Y66427D01*
X29641Y66416D01*
X29686Y66395D01*
X29759Y66388D01*
X29830Y66371D01*
X29879Y66376D01*
X29929Y66371D01*
X30000Y66388D01*
X30073Y66395D01*
X30118Y66415D01*
X30166Y66426D01*
X30229Y66465D01*
X30296Y66495D01*
X30352Y66542D01*
X30374Y66555D01*
X30384Y66568D01*
X30410Y66589D01*
X31984Y68163D01*
X34006Y69001D01*
X36194Y69001D01*
X38216Y68163D01*
X39763Y66616D01*
X40601Y64594D01*
X40601Y62406D01*
X39763Y60384D01*
X38216Y58837D01*
X36194Y57999D01*
X34006Y57999D01*
X31984Y58837D01*
X30437Y60384D01*
X30257Y60818D01*
X30244Y60839D01*
X30237Y60862D01*
X30180Y60942D01*
X30128Y61025D01*
X30109Y61041D01*
X30095Y61061D01*
X30015Y61118D01*
X29940Y61180D01*
X29916Y61189D01*
X29896Y61203D01*
X29803Y61231D01*
X29711Y61266D01*
X29687Y61267D01*
X29663Y61274D01*
X29565Y61271D01*
X29467Y61274D01*
X29444Y61267D01*
X29419Y61266D01*
X29328Y61232D01*
X29234Y61203D01*
X29214Y61189D01*
X29191Y61180D01*
X29115Y61118D01*
X29035Y61061D01*
X29021Y61041D01*
X29002Y61026D01*
X28950Y60943D01*
X28893Y60863D01*
X28886Y60840D01*
X28873Y60819D01*
X28830Y60677D01*
X28811Y60580D01*
X28183Y59064D01*
X27952Y58718D01*
X27451Y57969D01*
X27271Y57700D01*
X26110Y56539D01*
X24746Y55627D01*
X23230Y54999D01*
X22299Y54814D01*
X22299Y67301D01*
G37*
%LPD*%
%LPC*%
G36*
X104770Y54999D02*
X104770Y54999D01*
X103254Y55627D01*
X101890Y56539D01*
X100729Y57700D01*
X99817Y59064D01*
X99189Y60580D01*
X99170Y60677D01*
X99161Y60700D01*
X99159Y60725D01*
X99119Y60814D01*
X99084Y60906D01*
X99069Y60925D01*
X99058Y60947D01*
X98991Y61019D01*
X98929Y61094D01*
X98909Y61107D01*
X98892Y61125D01*
X98805Y61172D01*
X98722Y61223D01*
X98698Y61229D01*
X98676Y61241D01*
X98580Y61257D01*
X98485Y61279D01*
X98460Y61276D01*
X98436Y61280D01*
X98339Y61265D01*
X98242Y61255D01*
X98219Y61245D01*
X98195Y61241D01*
X98109Y61195D01*
X98019Y61155D01*
X98001Y61138D01*
X97980Y61126D01*
X97913Y61055D01*
X97841Y60988D01*
X97830Y60966D01*
X97813Y60948D01*
X97743Y60818D01*
X97563Y60384D01*
X96016Y58837D01*
X93994Y57999D01*
X91806Y57999D01*
X89784Y58837D01*
X88237Y60384D01*
X87399Y62406D01*
X87399Y64594D01*
X88237Y66616D01*
X89784Y68163D01*
X91806Y69001D01*
X93994Y69001D01*
X96016Y68163D01*
X97590Y66589D01*
X97650Y66546D01*
X97704Y66496D01*
X97748Y66476D01*
X97789Y66447D01*
X97859Y66425D01*
X97926Y66395D01*
X97975Y66390D01*
X98022Y66376D01*
X98095Y66378D01*
X98169Y66371D01*
X98217Y66382D01*
X98266Y66384D01*
X98335Y66410D01*
X98406Y66426D01*
X98448Y66452D01*
X98494Y66470D01*
X98551Y66516D01*
X98614Y66555D01*
X98645Y66593D01*
X98683Y66624D01*
X98722Y66687D01*
X98769Y66744D01*
X98786Y66790D01*
X98812Y66832D01*
X98829Y66903D01*
X98855Y66972D01*
X98862Y67045D01*
X98868Y67069D01*
X98866Y67086D01*
X98869Y67119D01*
X98869Y67301D01*
X105701Y67301D01*
X105701Y54814D01*
X104770Y54999D01*
G37*
%LPD*%
%LPC*%
G36*
X94747Y376149D02*
X94747Y376149D01*
X94747Y389209D01*
X105422Y389209D01*
X106069Y389036D01*
X106648Y388701D01*
X107121Y388228D01*
X107456Y387649D01*
X107629Y387002D01*
X107629Y376149D01*
X94747Y376149D01*
G37*
%LPD*%
%LPC*%
G36*
X78867Y376149D02*
X78867Y376149D01*
X78867Y387002D01*
X79040Y387649D01*
X79375Y388228D01*
X79848Y388701D01*
X80427Y389036D01*
X81074Y389209D01*
X91749Y389209D01*
X91749Y376149D01*
X78867Y376149D01*
G37*
%LPD*%
%LPC*%
G36*
X94747Y360091D02*
X94747Y360091D01*
X94747Y373151D01*
X107629Y373151D01*
X107629Y362298D01*
X107534Y361942D01*
X107456Y361651D01*
X107121Y361072D01*
X106648Y360599D01*
X106069Y360264D01*
X105422Y360091D01*
X94747Y360091D01*
G37*
%LPD*%
%LPC*%
G36*
X81074Y360091D02*
X81074Y360091D01*
X80427Y360264D01*
X79848Y360599D01*
X79375Y361072D01*
X79040Y361651D01*
X78867Y362298D01*
X78867Y373151D01*
X91749Y373151D01*
X91749Y360091D01*
X81074Y360091D01*
G37*
%LPD*%
%LPC*%
G36*
X204899Y82699D02*
X204899Y82699D01*
X204899Y96441D01*
X210084Y96441D01*
X210731Y96268D01*
X211310Y95933D01*
X211783Y95460D01*
X212118Y94881D01*
X212291Y94234D01*
X212291Y82699D01*
X204899Y82699D01*
G37*
%LPD*%
%LPC*%
G36*
X204899Y65959D02*
X204899Y65959D01*
X204899Y79701D01*
X212291Y79701D01*
X212291Y68166D01*
X212118Y67519D01*
X211783Y66940D01*
X211310Y66467D01*
X210731Y66132D01*
X210084Y65959D01*
X204899Y65959D01*
G37*
%LPD*%
%LPC*%
G36*
X194509Y82699D02*
X194509Y82699D01*
X194509Y94234D01*
X194682Y94881D01*
X195017Y95460D01*
X195490Y95933D01*
X196069Y96268D01*
X196716Y96441D01*
X201901Y96441D01*
X201901Y82699D01*
X194509Y82699D01*
G37*
%LPD*%
%LPC*%
G36*
X196716Y65959D02*
X196716Y65959D01*
X196069Y66132D01*
X195490Y66467D01*
X195017Y66940D01*
X194682Y67519D01*
X194509Y68166D01*
X194509Y79701D01*
X201901Y79701D01*
X201901Y65959D01*
X196716Y65959D01*
G37*
%LPD*%
%LPC*%
G36*
X227150Y107499D02*
X227150Y107499D01*
X227355Y108796D01*
X227936Y110583D01*
X228789Y112257D01*
X229894Y113777D01*
X231223Y115106D01*
X232743Y116211D01*
X234417Y117064D01*
X236204Y117645D01*
X237501Y117850D01*
X237501Y107499D01*
X227150Y107499D01*
G37*
%LPD*%
%LPC*%
G36*
X227150Y158299D02*
X227150Y158299D01*
X227355Y159596D01*
X227936Y161383D01*
X228789Y163057D01*
X229894Y164577D01*
X231223Y165906D01*
X232743Y167011D01*
X234417Y167864D01*
X236204Y168445D01*
X237501Y168650D01*
X237501Y158299D01*
X227150Y158299D01*
G37*
%LPD*%
%LPC*%
G36*
X236204Y94355D02*
X236204Y94355D01*
X234417Y94936D01*
X232743Y95789D01*
X231223Y96894D01*
X229894Y98223D01*
X228789Y99743D01*
X227936Y101417D01*
X227355Y103204D01*
X227150Y104501D01*
X237501Y104501D01*
X237501Y94150D01*
X236204Y94355D01*
G37*
%LPD*%
%LPC*%
G36*
X22299Y70299D02*
X22299Y70299D01*
X22299Y82786D01*
X23230Y82601D01*
X24746Y81973D01*
X26110Y81061D01*
X27271Y79900D01*
X28183Y78536D01*
X28811Y77020D01*
X29131Y75411D01*
X29131Y70299D01*
X22299Y70299D01*
G37*
%LPD*%
%LPC*%
G36*
X22299Y28499D02*
X22299Y28499D01*
X22299Y40986D01*
X23230Y40801D01*
X24746Y40173D01*
X26110Y39261D01*
X27271Y38100D01*
X28183Y36736D01*
X28811Y35220D01*
X29131Y33611D01*
X29131Y28499D01*
X22299Y28499D01*
G37*
%LPD*%
%LPC*%
G36*
X108699Y67301D02*
X108699Y67301D01*
X115531Y67301D01*
X115531Y62189D01*
X115211Y60580D01*
X114583Y59064D01*
X114352Y58718D01*
X113851Y57969D01*
X113671Y57700D01*
X112510Y56539D01*
X111146Y55627D01*
X109630Y54999D01*
X108699Y54814D01*
X108699Y67301D01*
G37*
%LPD*%
%LPC*%
G36*
X108699Y25501D02*
X108699Y25501D01*
X115531Y25501D01*
X115531Y20389D01*
X115211Y18780D01*
X114583Y17264D01*
X114246Y16760D01*
X113746Y16011D01*
X113745Y16011D01*
X113671Y15900D01*
X112510Y14739D01*
X111146Y13827D01*
X109630Y13199D01*
X108699Y13014D01*
X108699Y25501D01*
G37*
%LPD*%
%LPC*%
G36*
X22299Y25501D02*
X22299Y25501D01*
X29131Y25501D01*
X29131Y20389D01*
X28811Y18780D01*
X28183Y17264D01*
X27846Y16760D01*
X27346Y16011D01*
X27345Y16011D01*
X27271Y15900D01*
X26110Y14739D01*
X24746Y13827D01*
X23230Y13199D01*
X22299Y13014D01*
X22299Y25501D01*
G37*
%LPD*%
%LPC*%
G36*
X12469Y70299D02*
X12469Y70299D01*
X12469Y75411D01*
X12789Y77020D01*
X13417Y78536D01*
X13637Y78864D01*
X14137Y79613D01*
X14137Y79614D01*
X14329Y79900D01*
X15490Y81061D01*
X16854Y81973D01*
X18370Y82601D01*
X19301Y82786D01*
X19301Y70299D01*
X12469Y70299D01*
G37*
%LPD*%
%LPC*%
G36*
X12469Y28499D02*
X12469Y28499D01*
X12469Y33611D01*
X12789Y35220D01*
X13417Y36736D01*
X13531Y36906D01*
X14032Y37655D01*
X14032Y37656D01*
X14329Y38100D01*
X15490Y39261D01*
X16854Y40173D01*
X18370Y40801D01*
X19301Y40986D01*
X19301Y28499D01*
X12469Y28499D01*
G37*
%LPD*%
%LPC*%
G36*
X18370Y54999D02*
X18370Y54999D01*
X16854Y55627D01*
X15490Y56539D01*
X14329Y57700D01*
X13417Y59064D01*
X12789Y60580D01*
X12469Y62189D01*
X12469Y67301D01*
X19301Y67301D01*
X19301Y54814D01*
X18370Y54999D01*
G37*
%LPD*%
%LPC*%
G36*
X104770Y13199D02*
X104770Y13199D01*
X103254Y13827D01*
X101890Y14739D01*
X100729Y15900D01*
X99817Y17264D01*
X99189Y18780D01*
X98869Y20389D01*
X98869Y25501D01*
X105701Y25501D01*
X105701Y13014D01*
X104770Y13199D01*
G37*
%LPD*%
%LPC*%
G36*
X18370Y13199D02*
X18370Y13199D01*
X16854Y13827D01*
X15490Y14739D01*
X14329Y15900D01*
X13417Y17264D01*
X12789Y18780D01*
X12469Y20389D01*
X12469Y25501D01*
X19301Y25501D01*
X19301Y13014D01*
X18370Y13199D01*
G37*
%LPD*%
%LPC*%
G36*
X158471Y407899D02*
X158471Y407899D01*
X158471Y411989D01*
X168736Y411989D01*
X169383Y411816D01*
X169962Y411481D01*
X170435Y411008D01*
X170770Y410429D01*
X170943Y409782D01*
X170943Y407899D01*
X158471Y407899D01*
G37*
%LPD*%
%LPC*%
G36*
X143001Y407899D02*
X143001Y407899D01*
X143001Y409782D01*
X143128Y410255D01*
X143174Y410429D01*
X143509Y411008D01*
X143982Y411481D01*
X144561Y411816D01*
X145208Y411989D01*
X155473Y411989D01*
X155473Y407899D01*
X143001Y407899D01*
G37*
%LPD*%
%LPC*%
G36*
X145208Y400811D02*
X145208Y400811D01*
X144561Y400984D01*
X143982Y401319D01*
X143509Y401792D01*
X143174Y402371D01*
X143001Y403018D01*
X143001Y404901D01*
X155473Y404901D01*
X155473Y400811D01*
X145208Y400811D01*
G37*
%LPD*%
%LPC*%
G36*
X158471Y400811D02*
X158471Y400811D01*
X158471Y404901D01*
X170943Y404901D01*
X170943Y403018D01*
X170770Y402371D01*
X170435Y401792D01*
X169962Y401319D01*
X169383Y400984D01*
X168736Y400811D01*
X158471Y400811D01*
G37*
%LPD*%
%LPC*%
G36*
X92789Y324449D02*
X92789Y324449D01*
X92789Y328341D01*
X96981Y328341D01*
X96981Y326656D01*
X96808Y326009D01*
X96473Y325430D01*
X96000Y324957D01*
X95421Y324622D01*
X94774Y324449D01*
X92789Y324449D01*
G37*
%LPD*%
%LPC*%
G36*
X105489Y324449D02*
X105489Y324449D01*
X105489Y328341D01*
X109681Y328341D01*
X109681Y326656D01*
X109508Y326009D01*
X109173Y325430D01*
X108700Y324957D01*
X108121Y324622D01*
X107474Y324449D01*
X105489Y324449D01*
G37*
%LPD*%
%LPC*%
G36*
X88106Y324449D02*
X88106Y324449D01*
X87459Y324622D01*
X86880Y324957D01*
X86407Y325430D01*
X86072Y326009D01*
X85899Y326656D01*
X85899Y328341D01*
X90091Y328341D01*
X90091Y324449D01*
X88106Y324449D01*
G37*
%LPD*%
%LPC*%
G36*
X100806Y324449D02*
X100806Y324449D01*
X100159Y324622D01*
X99580Y324957D01*
X99107Y325430D01*
X98772Y326009D01*
X98599Y326656D01*
X98599Y328341D01*
X102791Y328341D01*
X102791Y324449D01*
X100806Y324449D01*
G37*
%LPD*%
%LPC*%
G36*
X99649Y459819D02*
X99649Y459819D01*
X99649Y464011D01*
X100162Y464011D01*
X101152Y463746D01*
X102039Y463233D01*
X102763Y462509D01*
X103276Y461622D01*
X103541Y460632D01*
X103541Y459819D01*
X99649Y459819D01*
G37*
%LPD*%
%LPC*%
G36*
X99649Y452929D02*
X99649Y452929D01*
X99649Y457121D01*
X103541Y457121D01*
X103541Y456308D01*
X103276Y455318D01*
X102763Y454431D01*
X102039Y453707D01*
X101152Y453194D01*
X100162Y452929D01*
X99649Y452929D01*
G37*
%LPD*%
%LPC*%
G36*
X20799Y68799D02*
X20799Y68799D01*
X20799Y68801D01*
X20801Y68801D01*
X20801Y68799D01*
X20799Y68799D01*
G37*
%LPD*%
%LPC*%
G36*
X20799Y26999D02*
X20799Y26999D01*
X20799Y27001D01*
X20801Y27001D01*
X20801Y26999D01*
X20799Y26999D01*
G37*
%LPD*%
%LPC*%
G36*
X93247Y374649D02*
X93247Y374649D01*
X93247Y374651D01*
X93249Y374651D01*
X93249Y374649D01*
X93247Y374649D01*
G37*
%LPD*%
%LPC*%
G36*
X203399Y81199D02*
X203399Y81199D01*
X203399Y81201D01*
X203401Y81201D01*
X203401Y81199D01*
X203399Y81199D01*
G37*
%LPD*%
%LPC*%
G36*
X156971Y406399D02*
X156971Y406399D01*
X156971Y406401D01*
X156973Y406401D01*
X156973Y406399D01*
X156971Y406399D01*
G37*
%LPD*%
D10*
X20800Y63010D02*
X20800Y74590D01*
X107200Y74590D02*
X107200Y63010D01*
X20800Y32790D02*
X20800Y21210D01*
X107200Y21210D02*
X107200Y32790D01*
D11*
X10000Y106000D03*
X10000Y131400D03*
X10000Y156800D03*
X10000Y182200D03*
X10000Y207600D03*
X10000Y233000D03*
X10000Y258400D03*
X10000Y283800D03*
X10000Y309200D03*
X10000Y334600D03*
X10000Y360000D03*
X10000Y385400D03*
X10000Y410800D03*
X10000Y436200D03*
X10000Y461600D03*
X10000Y487000D03*
X239000Y106000D03*
X239000Y131400D03*
X239000Y156800D03*
X239000Y182200D03*
X239000Y207600D03*
X239000Y233000D03*
X239000Y258400D03*
X239000Y283800D03*
X239000Y309200D03*
X239000Y334600D03*
X239000Y360000D03*
X239000Y385400D03*
X239000Y410800D03*
X239000Y436200D03*
X239000Y461600D03*
X239000Y487000D03*
D12*
X203400Y81200D03*
X180600Y81300D03*
D13*
X156972Y444500D03*
X89408Y444500D03*
X156972Y431800D03*
X156972Y419100D03*
X89408Y431800D03*
X89408Y419100D03*
X156972Y406400D03*
X89408Y406400D03*
D14*
X148299Y458470D03*
X156939Y458470D03*
D15*
X99650Y460120D02*
X96950Y460120D01*
X99650Y460120D02*
X99650Y456820D01*
X96950Y456820D01*
X96950Y460120D01*
X96950Y459385D02*
X99650Y459385D01*
X91010Y460120D02*
X88310Y460120D01*
X91010Y460120D02*
X91010Y456820D01*
X88310Y456820D01*
X88310Y460120D01*
X88310Y459385D02*
X91010Y459385D01*
D14*
X89566Y469824D03*
X80926Y469824D03*
X156720Y470295D03*
X148080Y470295D03*
D16*
X155672Y374650D03*
X93248Y374650D03*
D17*
X137160Y316660D03*
X146660Y338660D03*
X127660Y338660D03*
D18*
X88138Y303276D03*
X88138Y309880D03*
X88138Y316484D03*
X107442Y316484D03*
X107442Y309880D03*
X107442Y303276D03*
D19*
X104140Y329690D03*
X104140Y338330D03*
X91440Y329690D03*
X91440Y338330D03*
D20*
X172561Y323691D02*
X172561Y318929D01*
X167799Y318929D01*
X167799Y323691D01*
X172561Y323691D01*
X172561Y320438D02*
X167799Y320438D01*
X167799Y321947D02*
X172561Y321947D01*
X172561Y323456D02*
X167799Y323456D01*
X172561Y331629D02*
X172561Y336391D01*
X172561Y331629D02*
X167799Y331629D01*
X167799Y336391D01*
X172561Y336391D01*
X172561Y333138D02*
X167799Y333138D01*
X167799Y334647D02*
X172561Y334647D01*
X172561Y336156D02*
X167799Y336156D01*
D21*
X170180Y334010D02*
X170180Y321310D01*
D22*
X158000Y30000D03*
X158000Y7000D03*
X226000Y30000D03*
X226000Y7000D03*
X35000Y115000D03*
X43000Y27000D03*
X85000Y27000D03*
X5000Y51000D03*
X5000Y36000D03*
X5000Y21000D03*
X243000Y54000D03*
X243000Y38000D03*
X243000Y24000D03*
X243000Y71000D03*
X181000Y133000D03*
X13000Y9000D03*
X27000Y6000D03*
X40000Y6000D03*
X54000Y6000D03*
X68000Y6000D03*
X82000Y6000D03*
X98000Y6000D03*
X114000Y6000D03*
X174000Y6000D03*
X192000Y6000D03*
X210000Y6000D03*
X240000Y10000D03*
X5000Y65000D03*
X209550Y199390D03*
X196600Y156100D03*
X172000Y164800D03*
X154900Y154300D03*
X201930Y90170D03*
X201930Y81280D03*
X201930Y72390D03*
X222910Y111410D03*
X222910Y103790D03*
X115320Y229760D03*
X39120Y505350D03*
X61980Y505350D03*
X86110Y505350D03*
X110240Y505350D03*
X135640Y505350D03*
X163580Y505350D03*
X192790Y505350D03*
X35310Y270400D03*
X44200Y262780D03*
X23880Y495190D03*
X74680Y492650D03*
X100080Y492650D03*
X125480Y492650D03*
X150880Y492650D03*
X176280Y492650D03*
X51820Y492650D03*
X93260Y180040D03*
X102150Y216870D03*
X64050Y239730D03*
X115320Y323740D03*
X97540Y280560D03*
X121670Y180230D03*
X106430Y180230D03*
X194060Y172610D03*
X181360Y236110D03*
X73410Y116730D03*
X159770Y57040D03*
X168660Y295800D03*
X173740Y278020D03*
X125480Y283100D03*
X159770Y134510D03*
X72140Y373270D03*
X114050Y391050D03*
X180090Y354220D03*
X117860Y418990D03*
X78490Y457090D03*
X64520Y471060D03*
X121670Y460900D03*
X175010Y454550D03*
X196600Y472330D03*
X180090Y407560D03*
X89920Y258970D03*
X208030Y242460D03*
X222000Y219600D03*
X161000Y84000D03*
X222500Y121600D03*
X217100Y145000D03*
X217400Y137500D03*
X217600Y129600D03*
X224500Y145100D03*
X224600Y137200D03*
X224700Y129500D03*
D23*
X224600Y137200D02*
X224600Y145000D01*
X224500Y145100D01*
X224600Y145000D02*
X217100Y145000D01*
X224600Y145000D02*
X224900Y144700D01*
X217400Y144700D02*
X217100Y145000D01*
X217400Y144700D02*
X217400Y137500D01*
X217600Y137200D02*
X224600Y137200D01*
X217600Y137300D02*
X217400Y137500D01*
X217600Y137300D02*
X217600Y137200D01*
X217600Y129600D01*
X217700Y129500D02*
X224700Y129500D01*
X217700Y129500D02*
X217600Y129600D01*
X224600Y133350D02*
X224600Y137200D01*
X224600Y133350D02*
X224600Y129600D01*
X224700Y129500D01*
X216300Y129300D02*
X216300Y145800D01*
X216300Y129300D02*
X216400Y129200D01*
X224200Y129200D01*
X224200Y144800D02*
X224500Y145100D01*
X224200Y144800D02*
X224200Y129200D01*
X224500Y145100D02*
X223800Y145800D01*
X216300Y145800D01*
D22*
X182200Y90200D03*
X182200Y81310D03*
X182200Y72420D03*
D24*
X182190Y81300D02*
X180600Y81300D01*
X182190Y81300D02*
X182200Y81310D01*
X182200Y82900D02*
X180600Y81300D01*
X182200Y82900D02*
X182200Y90200D01*
X180600Y81300D02*
X182200Y79700D01*
X182200Y72420D01*
D25*
X161000Y84000D02*
X161000Y112000D01*
X170600Y121600D01*
X218440Y121600D01*
X222500Y121600D01*
X232300Y131400D01*
X239000Y131400D01*
X217100Y122940D02*
X217100Y145000D01*
X217100Y122940D02*
X218440Y121600D01*
X238200Y131400D02*
X224500Y145100D01*
X238200Y131400D02*
X239000Y131400D01*
X226550Y131400D01*
X224600Y133350D01*
X217100Y145000D02*
X217900Y145800D01*
X223800Y145800D01*
D22*
X62000Y65000D03*
X75000Y64000D03*
D24*
X63000Y64000D01*
X62000Y65000D01*
D22*
X70000Y126000D03*
D24*
X62830Y126000D01*
X55843Y132987D01*
D22*
X51770Y154733D03*
D24*
X55843Y150660D01*
X55843Y132987D01*
D22*
X55880Y323850D03*
D24*
X22860Y245860D02*
X10000Y233000D01*
X22860Y308610D02*
X29210Y314960D01*
X46990Y314960D02*
X55880Y323850D01*
X46990Y314960D02*
X29210Y314960D01*
X22860Y308610D02*
X22860Y245860D01*
D22*
X55880Y311150D03*
D24*
X21922Y219522D02*
X10000Y207600D01*
X21922Y219522D02*
X21922Y239938D01*
X26384Y244400D02*
X26384Y306070D01*
X31464Y311150D01*
X55880Y311150D01*
X26384Y244400D02*
X21922Y239938D01*
X21922Y194122D02*
X10000Y182200D01*
X21922Y213692D02*
X31750Y223520D01*
X21922Y213692D02*
X21922Y194122D01*
D22*
X63500Y223520D03*
D24*
X31750Y223520D01*
D22*
X49270Y133950D03*
X98000Y96000D03*
D26*
X56880Y126340D02*
X49270Y133950D01*
X65290Y96000D02*
X98000Y96000D01*
X56880Y104410D02*
X56880Y126340D01*
X56880Y104410D02*
X65290Y96000D01*
D22*
X125730Y119380D03*
D27*
X98000Y123400D02*
X98000Y96000D01*
X98000Y123400D02*
X105410Y130810D01*
X120650Y130810D01*
X125730Y125730D01*
X125730Y119380D01*
D22*
X55880Y298450D03*
D28*
X63500Y45720D02*
X128270Y45720D01*
X147304Y64754D01*
X34970Y131400D02*
X10000Y131400D01*
X49530Y59690D02*
X63500Y45720D01*
X49530Y116840D02*
X34970Y131400D01*
X49530Y116840D02*
X49530Y59690D01*
D24*
X89660Y458470D02*
X89660Y469730D01*
X89566Y469824D01*
X148299Y470076D02*
X148299Y458470D01*
X148299Y470076D02*
X148080Y470295D01*
X89408Y458218D02*
X89408Y444500D01*
X89408Y458218D02*
X89660Y458470D01*
X148047Y469824D02*
X148299Y470076D01*
D28*
X142240Y458470D02*
X128270Y444500D01*
X142240Y458470D02*
X148299Y458470D01*
X128270Y444500D02*
X89408Y444500D01*
X128270Y444500D02*
X129540Y443230D01*
X155672Y374650D02*
X155672Y356138D01*
X157480Y143510D02*
X199390Y143510D01*
X209550Y153670D01*
X209550Y173990D01*
X217760Y182200D01*
X239000Y182200D01*
X147304Y133334D02*
X147304Y64754D01*
X147304Y133334D02*
X157480Y143510D01*
X64770Y298450D02*
X55880Y298450D01*
X72390Y306070D02*
X72390Y307340D01*
X72390Y349250D01*
X77470Y354330D01*
X72390Y306070D02*
X64770Y298450D01*
X129540Y375920D02*
X129540Y443230D01*
X129540Y375920D02*
X130810Y374650D01*
X155672Y374650D01*
X123190Y354330D02*
X77470Y354330D01*
X123190Y354330D02*
X129540Y360680D01*
X129540Y375920D01*
X146660Y347126D02*
X146660Y338660D01*
X146660Y347126D02*
X155672Y356138D01*
X170180Y336550D02*
X170180Y334010D01*
X170180Y336550D02*
X167640Y339090D01*
X147090Y339090D01*
X146660Y338660D01*
X35560Y131990D02*
X34970Y131400D01*
X35560Y131990D02*
X35560Y171450D01*
X55880Y265430D02*
X55880Y298450D01*
X76200Y212090D02*
X35560Y171450D01*
X76200Y212090D02*
X76200Y245110D01*
X55880Y265430D01*
D23*
X76454Y303276D02*
X88138Y303276D01*
X76454Y303276D02*
X72390Y307340D01*
D22*
X78000Y55000D03*
D24*
X82000Y59000D01*
X82000Y80000D01*
X89000Y87000D01*
X108000Y87000D01*
D22*
X108000Y87000D03*
X152000Y43000D03*
X226000Y84000D03*
D24*
X158000Y43000D02*
X152000Y43000D01*
X158000Y43000D02*
X164000Y37000D01*
X221000Y37000D01*
X226000Y42000D01*
X226000Y84000D01*
D22*
X96520Y266700D03*
X132080Y237490D03*
D24*
X132080Y238760D01*
D26*
X125730Y266700D02*
X96520Y266700D01*
X125730Y266700D02*
X132080Y260350D01*
X132080Y238760D01*
D22*
X70493Y147083D03*
X86360Y290830D03*
D24*
X73660Y150250D02*
X70493Y147083D01*
X73660Y200660D02*
X85090Y212090D01*
X85090Y248920D01*
X76200Y257810D01*
X76200Y275590D01*
X86360Y285750D02*
X86360Y290830D01*
X86360Y285750D02*
X76200Y275590D01*
X73660Y200660D02*
X73660Y150250D01*
D22*
X69898Y137265D03*
X86360Y274320D03*
D24*
X79724Y267684D01*
X79724Y259270D01*
X88614Y250380D01*
X88614Y210630D01*
X77184Y142825D02*
X71624Y137265D01*
X69898Y137265D01*
X77184Y142825D02*
X77184Y199200D01*
X88614Y210630D01*
D22*
X58420Y387350D03*
D24*
X58420Y415290D02*
X62230Y419100D01*
X58420Y415290D02*
X58420Y387350D01*
X62230Y419100D02*
X89408Y419100D01*
X89408Y406400D02*
X109220Y406400D01*
D22*
X109220Y406400D03*
D24*
X156972Y431800D02*
X175260Y431800D01*
D22*
X175260Y431800D03*
X223520Y505460D03*
D24*
X224790Y504190D01*
D22*
X55880Y438150D03*
D24*
X55880Y474980D01*
X60960Y480060D01*
X219710Y480060D01*
X224790Y485140D02*
X224790Y504190D01*
X224790Y485140D02*
X219710Y480060D01*
X156972Y458437D02*
X156939Y458470D01*
X156972Y458437D02*
X156972Y444500D01*
X138430Y444500D01*
X134620Y440690D01*
X134620Y402590D01*
X143510Y393700D01*
D22*
X191770Y361950D03*
D24*
X184150Y393700D02*
X143510Y393700D01*
X191770Y386080D02*
X191770Y361950D01*
X191770Y386080D02*
X184150Y393700D01*
D22*
X193040Y336550D03*
D24*
X220728Y336550D01*
X227078Y330200D01*
X239000Y266940D02*
X239000Y258400D01*
X239000Y266940D02*
X227078Y278862D01*
X227078Y330200D01*
D22*
X83820Y190500D03*
D24*
X83820Y199390D01*
X93980Y209550D01*
D22*
X191770Y236220D03*
D24*
X194990Y233000D01*
X239000Y233000D01*
X137160Y209550D02*
X93980Y209550D01*
X137160Y209550D02*
X143510Y215900D01*
X143510Y275590D02*
X139700Y279400D01*
X143510Y275590D02*
X143510Y215900D01*
D22*
X139700Y279400D03*
D24*
X89408Y431800D02*
X73660Y431800D01*
X69850Y435610D01*
X69850Y466090D01*
X73660Y469900D01*
X80850Y469900D01*
X80926Y469824D01*
X156972Y419100D02*
X177800Y419100D01*
X182880Y424180D01*
X177405Y470295D02*
X156720Y470295D01*
X177405Y470295D02*
X182880Y464820D01*
X182880Y424180D01*
D28*
X137160Y316660D02*
X137160Y293370D01*
X171450Y259080D02*
X171450Y203200D01*
X171450Y259080D02*
X137160Y293370D01*
D22*
X171450Y203200D03*
D28*
X170180Y201930D01*
X142240Y201930D01*
X134620Y194310D01*
X134620Y113030D02*
X130810Y109220D01*
X121920Y109220D01*
X134620Y113030D02*
X134620Y194310D01*
D22*
X121920Y109220D03*
D24*
X107442Y316484D02*
X136984Y316484D01*
X137160Y316660D01*
D28*
X151560Y316660D01*
X156210Y321310D01*
X170180Y321310D01*
D24*
X107442Y309880D02*
X88138Y309880D01*
X88138Y316484D01*
X79756Y316484D01*
X77470Y318770D01*
X77470Y335280D01*
X80520Y338330D02*
X91440Y338330D01*
X80520Y338330D02*
X77470Y335280D01*
X127330Y338330D02*
X127660Y338660D01*
X107442Y303276D02*
X101346Y303276D01*
X99060Y300990D01*
X99060Y294640D01*
D22*
X99060Y294640D03*
X115570Y337820D03*
D24*
X115060Y338330D02*
X104140Y338330D01*
X115060Y338330D02*
X115570Y337820D01*
X116410Y338660D01*
X127660Y338660D01*
M02*
