G04 EAGLE Gerber RS-274X export*
G75*
%MOMM*%
%FSLAX34Y34*%
%LPD*%
%INBottom Copper*%
%IPPOS*%
%AMOC8*
5,1,8,0,0,1.08239X$1,22.5*%
G01*
%ADD10C,1.158000*%
%ADD11C,1.879600*%
%ADD12R,1.270000X2.540000*%
%ADD13C,0.706400*%
%ADD14C,0.304800*%
%ADD15C,0.200000*%
%ADD16C,0.812800*%
%ADD17C,0.406400*%
%ADD18C,0.254000*%
%ADD19C,0.508000*%

G36*
X228491Y186286D02*
X228491Y186286D01*
X228601Y186304D01*
X228709Y186362D01*
X228816Y186419D01*
X228895Y186503D01*
X228983Y186597D01*
X228983Y186598D01*
X229053Y186727D01*
X229740Y188387D01*
X232813Y191460D01*
X236827Y193123D01*
X241173Y193123D01*
X245187Y191460D01*
X247339Y189308D01*
X247399Y189265D01*
X247453Y189215D01*
X247497Y189194D01*
X247538Y189166D01*
X247608Y189144D01*
X247675Y189114D01*
X247724Y189109D01*
X247771Y189095D01*
X247844Y189097D01*
X247918Y189090D01*
X247966Y189101D01*
X248015Y189103D01*
X248084Y189129D01*
X248155Y189145D01*
X248197Y189171D01*
X248243Y189189D01*
X248300Y189235D01*
X248363Y189274D01*
X248394Y189312D01*
X248432Y189343D01*
X248471Y189406D01*
X248518Y189462D01*
X248535Y189508D01*
X248561Y189550D01*
X248578Y189622D01*
X248604Y189691D01*
X248611Y189764D01*
X248617Y189788D01*
X248615Y189805D01*
X248618Y189838D01*
X248618Y199962D01*
X248606Y200035D01*
X248604Y200108D01*
X248587Y200154D01*
X248579Y200203D01*
X248544Y200268D01*
X248518Y200337D01*
X248487Y200375D01*
X248464Y200418D01*
X248410Y200469D01*
X248363Y200525D01*
X248321Y200551D01*
X248286Y200585D01*
X248219Y200616D01*
X248156Y200654D01*
X248108Y200666D01*
X248063Y200686D01*
X247990Y200693D01*
X247919Y200710D01*
X247870Y200705D01*
X247820Y200710D01*
X247749Y200693D01*
X247676Y200686D01*
X247631Y200666D01*
X247583Y200655D01*
X247520Y200616D01*
X247453Y200586D01*
X247397Y200539D01*
X247375Y200526D01*
X247365Y200513D01*
X247339Y200492D01*
X245187Y198340D01*
X241173Y196677D01*
X236827Y196677D01*
X232813Y198340D01*
X229740Y201413D01*
X228077Y205427D01*
X228077Y209773D01*
X229740Y213787D01*
X232813Y216860D01*
X236827Y218523D01*
X241173Y218523D01*
X245187Y216860D01*
X247339Y214708D01*
X247399Y214665D01*
X247453Y214615D01*
X247497Y214594D01*
X247538Y214566D01*
X247608Y214544D01*
X247675Y214514D01*
X247724Y214509D01*
X247771Y214495D01*
X247844Y214497D01*
X247918Y214490D01*
X247966Y214501D01*
X248015Y214503D01*
X248084Y214529D01*
X248155Y214545D01*
X248197Y214571D01*
X248243Y214589D01*
X248300Y214635D01*
X248363Y214674D01*
X248394Y214712D01*
X248432Y214743D01*
X248471Y214806D01*
X248518Y214862D01*
X248535Y214908D01*
X248561Y214950D01*
X248578Y215022D01*
X248604Y215091D01*
X248611Y215164D01*
X248617Y215188D01*
X248615Y215205D01*
X248618Y215238D01*
X248618Y225362D01*
X248606Y225435D01*
X248604Y225508D01*
X248587Y225554D01*
X248579Y225603D01*
X248544Y225668D01*
X248518Y225737D01*
X248487Y225775D01*
X248464Y225818D01*
X248410Y225869D01*
X248363Y225925D01*
X248321Y225951D01*
X248286Y225985D01*
X248219Y226016D01*
X248156Y226054D01*
X248108Y226066D01*
X248063Y226086D01*
X247990Y226093D01*
X247919Y226110D01*
X247870Y226105D01*
X247820Y226110D01*
X247749Y226093D01*
X247676Y226086D01*
X247631Y226066D01*
X247583Y226055D01*
X247520Y226016D01*
X247453Y225986D01*
X247397Y225939D01*
X247375Y225926D01*
X247365Y225913D01*
X247339Y225892D01*
X245187Y223740D01*
X241173Y222077D01*
X236827Y222077D01*
X232813Y223740D01*
X229740Y226813D01*
X228077Y230827D01*
X228077Y235173D01*
X229740Y239187D01*
X232813Y242260D01*
X236827Y243923D01*
X241173Y243923D01*
X245187Y242260D01*
X247339Y240108D01*
X247399Y240065D01*
X247453Y240015D01*
X247497Y239994D01*
X247538Y239966D01*
X247608Y239944D01*
X247675Y239914D01*
X247724Y239909D01*
X247771Y239895D01*
X247844Y239897D01*
X247918Y239890D01*
X247966Y239901D01*
X248015Y239903D01*
X248084Y239929D01*
X248155Y239945D01*
X248197Y239971D01*
X248243Y239989D01*
X248300Y240035D01*
X248363Y240074D01*
X248394Y240112D01*
X248432Y240143D01*
X248471Y240206D01*
X248518Y240262D01*
X248535Y240308D01*
X248561Y240350D01*
X248578Y240422D01*
X248604Y240491D01*
X248611Y240564D01*
X248617Y240588D01*
X248615Y240605D01*
X248618Y240638D01*
X248618Y250762D01*
X248606Y250835D01*
X248604Y250908D01*
X248587Y250954D01*
X248579Y251003D01*
X248544Y251068D01*
X248518Y251137D01*
X248487Y251175D01*
X248464Y251218D01*
X248410Y251269D01*
X248363Y251325D01*
X248321Y251351D01*
X248286Y251385D01*
X248219Y251416D01*
X248156Y251454D01*
X248108Y251466D01*
X248063Y251486D01*
X247990Y251493D01*
X247919Y251510D01*
X247870Y251505D01*
X247820Y251510D01*
X247749Y251493D01*
X247676Y251486D01*
X247631Y251466D01*
X247583Y251455D01*
X247520Y251416D01*
X247453Y251386D01*
X247397Y251339D01*
X247375Y251326D01*
X247365Y251313D01*
X247339Y251292D01*
X245187Y249140D01*
X241173Y247477D01*
X236827Y247477D01*
X232813Y249140D01*
X229740Y252213D01*
X228077Y256227D01*
X228077Y260573D01*
X229740Y264587D01*
X232813Y267660D01*
X233118Y267786D01*
X233159Y267812D01*
X233205Y267829D01*
X233263Y267876D01*
X233325Y267915D01*
X233356Y267953D01*
X233394Y267984D01*
X233433Y268047D01*
X233480Y268104D01*
X233497Y268150D01*
X233523Y268191D01*
X233540Y268263D01*
X233566Y268332D01*
X233568Y268381D01*
X233579Y268429D01*
X233572Y268502D01*
X233574Y268576D01*
X233560Y268623D01*
X233555Y268672D01*
X233525Y268739D01*
X233503Y268809D01*
X233475Y268849D01*
X233455Y268894D01*
X233362Y269007D01*
X233361Y269008D01*
X226252Y276118D01*
X224553Y277816D01*
X224553Y328844D01*
X224537Y328940D01*
X224528Y329037D01*
X224518Y329060D01*
X224514Y329085D01*
X224468Y329171D01*
X224427Y329259D01*
X224406Y329285D01*
X224399Y329300D01*
X224380Y329317D01*
X224334Y329374D01*
X219902Y333806D01*
X219822Y333863D01*
X219747Y333925D01*
X219724Y333933D01*
X219703Y333948D01*
X219610Y333976D01*
X219519Y334011D01*
X219486Y334014D01*
X219470Y334019D01*
X219445Y334018D01*
X219372Y334025D01*
X197977Y334025D01*
X197881Y334009D01*
X197784Y334000D01*
X197761Y333990D01*
X197736Y333986D01*
X197650Y333940D01*
X197561Y333899D01*
X197536Y333878D01*
X197521Y333871D01*
X197504Y333852D01*
X197447Y333806D01*
X195135Y331493D01*
X190945Y331493D01*
X187983Y334455D01*
X187983Y338645D01*
X190945Y341607D01*
X195135Y341607D01*
X197447Y339294D01*
X197527Y339237D01*
X197602Y339175D01*
X197625Y339167D01*
X197645Y339152D01*
X197739Y339124D01*
X197830Y339089D01*
X197863Y339086D01*
X197879Y339081D01*
X197904Y339082D01*
X197977Y339075D01*
X221774Y339075D01*
X226798Y334050D01*
X226858Y334007D01*
X226912Y333957D01*
X226956Y333937D01*
X226997Y333908D01*
X227067Y333887D01*
X227134Y333856D01*
X227183Y333852D01*
X227230Y333837D01*
X227303Y333840D01*
X227377Y333832D01*
X227425Y333844D01*
X227474Y333845D01*
X227543Y333871D01*
X227614Y333888D01*
X227656Y333914D01*
X227702Y333931D01*
X227759Y333978D01*
X227822Y334016D01*
X227853Y334054D01*
X227891Y334086D01*
X227930Y334148D01*
X227977Y334205D01*
X227994Y334251D01*
X228020Y334293D01*
X228037Y334364D01*
X228063Y334433D01*
X228070Y334506D01*
X228076Y334530D01*
X228074Y334547D01*
X228077Y334580D01*
X228077Y336773D01*
X229740Y340787D01*
X232813Y343860D01*
X236827Y345523D01*
X241173Y345523D01*
X245187Y343860D01*
X247339Y341708D01*
X247399Y341665D01*
X247453Y341615D01*
X247497Y341594D01*
X247538Y341566D01*
X247608Y341544D01*
X247675Y341514D01*
X247724Y341509D01*
X247771Y341495D01*
X247844Y341497D01*
X247918Y341490D01*
X247966Y341501D01*
X248015Y341503D01*
X248084Y341529D01*
X248155Y341545D01*
X248197Y341571D01*
X248243Y341589D01*
X248300Y341635D01*
X248363Y341674D01*
X248394Y341712D01*
X248432Y341743D01*
X248471Y341806D01*
X248518Y341862D01*
X248535Y341908D01*
X248561Y341950D01*
X248578Y342022D01*
X248604Y342091D01*
X248611Y342164D01*
X248617Y342188D01*
X248615Y342205D01*
X248618Y342238D01*
X248618Y352362D01*
X248606Y352435D01*
X248604Y352508D01*
X248587Y352554D01*
X248579Y352603D01*
X248544Y352668D01*
X248518Y352737D01*
X248487Y352775D01*
X248464Y352818D01*
X248410Y352869D01*
X248363Y352925D01*
X248321Y352951D01*
X248286Y352985D01*
X248219Y353016D01*
X248156Y353054D01*
X248108Y353066D01*
X248063Y353086D01*
X247990Y353093D01*
X247919Y353110D01*
X247870Y353105D01*
X247820Y353110D01*
X247749Y353093D01*
X247676Y353086D01*
X247631Y353066D01*
X247583Y353055D01*
X247520Y353016D01*
X247453Y352986D01*
X247397Y352939D01*
X247375Y352926D01*
X247365Y352913D01*
X247339Y352892D01*
X245187Y350740D01*
X241173Y349077D01*
X236827Y349077D01*
X232813Y350740D01*
X229740Y353813D01*
X228077Y357827D01*
X228077Y362173D01*
X229740Y366187D01*
X232813Y369260D01*
X236827Y370923D01*
X241173Y370923D01*
X245187Y369260D01*
X247339Y367108D01*
X247399Y367065D01*
X247453Y367015D01*
X247497Y366994D01*
X247538Y366966D01*
X247608Y366944D01*
X247675Y366914D01*
X247724Y366909D01*
X247771Y366895D01*
X247844Y366897D01*
X247918Y366890D01*
X247966Y366901D01*
X248015Y366903D01*
X248084Y366929D01*
X248155Y366945D01*
X248197Y366971D01*
X248243Y366989D01*
X248300Y367035D01*
X248363Y367074D01*
X248394Y367112D01*
X248432Y367143D01*
X248471Y367206D01*
X248518Y367262D01*
X248535Y367308D01*
X248561Y367350D01*
X248578Y367422D01*
X248604Y367491D01*
X248611Y367564D01*
X248617Y367588D01*
X248615Y367605D01*
X248618Y367638D01*
X248618Y377762D01*
X248606Y377835D01*
X248604Y377908D01*
X248587Y377954D01*
X248579Y378003D01*
X248544Y378068D01*
X248518Y378137D01*
X248487Y378175D01*
X248464Y378218D01*
X248410Y378269D01*
X248363Y378325D01*
X248321Y378351D01*
X248286Y378385D01*
X248219Y378416D01*
X248156Y378454D01*
X248108Y378466D01*
X248063Y378486D01*
X247990Y378493D01*
X247919Y378510D01*
X247870Y378505D01*
X247820Y378510D01*
X247749Y378493D01*
X247676Y378486D01*
X247631Y378466D01*
X247583Y378455D01*
X247520Y378416D01*
X247453Y378386D01*
X247397Y378339D01*
X247375Y378326D01*
X247365Y378313D01*
X247339Y378292D01*
X245187Y376140D01*
X241173Y374477D01*
X236827Y374477D01*
X232813Y376140D01*
X229740Y379213D01*
X228077Y383227D01*
X228077Y387573D01*
X229740Y391587D01*
X232813Y394660D01*
X236827Y396323D01*
X241173Y396323D01*
X245187Y394660D01*
X247339Y392508D01*
X247399Y392465D01*
X247453Y392415D01*
X247497Y392394D01*
X247538Y392366D01*
X247608Y392344D01*
X247675Y392314D01*
X247724Y392309D01*
X247771Y392295D01*
X247844Y392297D01*
X247918Y392290D01*
X247966Y392301D01*
X248015Y392303D01*
X248084Y392329D01*
X248155Y392345D01*
X248197Y392371D01*
X248243Y392389D01*
X248300Y392435D01*
X248363Y392474D01*
X248394Y392512D01*
X248432Y392543D01*
X248471Y392606D01*
X248518Y392662D01*
X248535Y392708D01*
X248561Y392750D01*
X248578Y392822D01*
X248604Y392891D01*
X248611Y392964D01*
X248617Y392988D01*
X248615Y393005D01*
X248618Y393038D01*
X248618Y403162D01*
X248606Y403235D01*
X248604Y403308D01*
X248587Y403354D01*
X248579Y403403D01*
X248544Y403468D01*
X248518Y403537D01*
X248487Y403575D01*
X248464Y403618D01*
X248410Y403669D01*
X248363Y403725D01*
X248321Y403751D01*
X248286Y403785D01*
X248219Y403816D01*
X248156Y403854D01*
X248108Y403866D01*
X248063Y403886D01*
X247990Y403893D01*
X247919Y403910D01*
X247870Y403905D01*
X247820Y403910D01*
X247749Y403893D01*
X247676Y403886D01*
X247631Y403866D01*
X247583Y403855D01*
X247520Y403816D01*
X247453Y403786D01*
X247397Y403739D01*
X247375Y403726D01*
X247365Y403713D01*
X247339Y403692D01*
X245187Y401540D01*
X241173Y399877D01*
X236827Y399877D01*
X232813Y401540D01*
X229740Y404613D01*
X228077Y408627D01*
X228077Y412973D01*
X229740Y416987D01*
X232813Y420060D01*
X236827Y421723D01*
X241173Y421723D01*
X245187Y420060D01*
X247339Y417908D01*
X247399Y417865D01*
X247453Y417815D01*
X247497Y417794D01*
X247538Y417766D01*
X247608Y417744D01*
X247675Y417714D01*
X247724Y417709D01*
X247771Y417695D01*
X247844Y417697D01*
X247918Y417690D01*
X247966Y417701D01*
X248015Y417703D01*
X248084Y417729D01*
X248155Y417745D01*
X248197Y417771D01*
X248243Y417789D01*
X248300Y417835D01*
X248363Y417874D01*
X248394Y417912D01*
X248432Y417943D01*
X248471Y418006D01*
X248518Y418062D01*
X248535Y418108D01*
X248561Y418150D01*
X248578Y418222D01*
X248604Y418291D01*
X248611Y418364D01*
X248617Y418388D01*
X248615Y418405D01*
X248618Y418438D01*
X248618Y428562D01*
X248606Y428635D01*
X248604Y428708D01*
X248587Y428754D01*
X248579Y428803D01*
X248544Y428868D01*
X248518Y428937D01*
X248487Y428975D01*
X248464Y429018D01*
X248410Y429069D01*
X248363Y429125D01*
X248321Y429151D01*
X248286Y429185D01*
X248219Y429216D01*
X248156Y429254D01*
X248108Y429266D01*
X248063Y429286D01*
X247990Y429293D01*
X247919Y429310D01*
X247870Y429305D01*
X247820Y429310D01*
X247749Y429293D01*
X247676Y429286D01*
X247631Y429266D01*
X247583Y429255D01*
X247520Y429216D01*
X247453Y429186D01*
X247397Y429139D01*
X247375Y429126D01*
X247365Y429113D01*
X247339Y429092D01*
X245187Y426940D01*
X241173Y425277D01*
X236827Y425277D01*
X232813Y426940D01*
X229740Y430013D01*
X228077Y434027D01*
X228077Y438373D01*
X229740Y442387D01*
X232813Y445460D01*
X236827Y447123D01*
X241173Y447123D01*
X245187Y445460D01*
X247339Y443308D01*
X247399Y443265D01*
X247453Y443215D01*
X247497Y443194D01*
X247538Y443166D01*
X247608Y443144D01*
X247675Y443114D01*
X247724Y443109D01*
X247771Y443095D01*
X247844Y443097D01*
X247918Y443090D01*
X247966Y443101D01*
X248015Y443103D01*
X248084Y443129D01*
X248155Y443145D01*
X248197Y443171D01*
X248243Y443189D01*
X248300Y443235D01*
X248363Y443274D01*
X248394Y443312D01*
X248432Y443343D01*
X248471Y443406D01*
X248518Y443462D01*
X248535Y443508D01*
X248561Y443550D01*
X248578Y443622D01*
X248604Y443691D01*
X248611Y443764D01*
X248617Y443788D01*
X248615Y443805D01*
X248618Y443838D01*
X248618Y453962D01*
X248606Y454035D01*
X248604Y454108D01*
X248587Y454154D01*
X248579Y454203D01*
X248544Y454268D01*
X248518Y454337D01*
X248487Y454375D01*
X248464Y454418D01*
X248410Y454469D01*
X248363Y454525D01*
X248321Y454551D01*
X248286Y454585D01*
X248219Y454616D01*
X248156Y454654D01*
X248108Y454666D01*
X248063Y454686D01*
X247990Y454693D01*
X247919Y454710D01*
X247870Y454705D01*
X247820Y454710D01*
X247749Y454693D01*
X247676Y454686D01*
X247631Y454666D01*
X247583Y454655D01*
X247520Y454616D01*
X247453Y454586D01*
X247397Y454539D01*
X247375Y454526D01*
X247365Y454513D01*
X247339Y454492D01*
X245187Y452340D01*
X241173Y450677D01*
X236827Y450677D01*
X232813Y452340D01*
X229740Y455413D01*
X228756Y457788D01*
X228705Y457871D01*
X228659Y457958D01*
X228640Y457974D01*
X228627Y457995D01*
X228552Y458057D01*
X228480Y458124D01*
X228458Y458135D01*
X228439Y458150D01*
X228347Y458185D01*
X228258Y458225D01*
X228234Y458228D01*
X228210Y458236D01*
X228113Y458240D01*
X228015Y458249D01*
X227991Y458244D01*
X227967Y458244D01*
X227873Y458216D01*
X227778Y458194D01*
X227757Y458181D01*
X227733Y458174D01*
X227654Y458117D01*
X227570Y458065D01*
X227555Y458046D01*
X227535Y458032D01*
X227478Y457952D01*
X227415Y457877D01*
X227407Y457854D01*
X227392Y457834D01*
X227364Y457740D01*
X227329Y457649D01*
X227326Y457616D01*
X227321Y457600D01*
X227322Y457575D01*
X227315Y457502D01*
X227315Y447264D01*
X215676Y435625D01*
X60817Y435625D01*
X60721Y435609D01*
X60624Y435600D01*
X60601Y435590D01*
X60576Y435586D01*
X60490Y435540D01*
X60401Y435499D01*
X60376Y435478D01*
X60361Y435471D01*
X60344Y435452D01*
X60287Y435406D01*
X57975Y433093D01*
X53785Y433093D01*
X50823Y436055D01*
X50823Y440245D01*
X53785Y443207D01*
X57975Y443207D01*
X60287Y440894D01*
X60367Y440837D01*
X60442Y440775D01*
X60465Y440767D01*
X60485Y440752D01*
X60579Y440724D01*
X60670Y440689D01*
X60703Y440686D01*
X60719Y440681D01*
X60744Y440682D01*
X60817Y440675D01*
X213274Y440675D01*
X213370Y440691D01*
X213467Y440700D01*
X213490Y440710D01*
X213515Y440714D01*
X213601Y440760D01*
X213689Y440801D01*
X213715Y440822D01*
X213730Y440829D01*
X213747Y440848D01*
X213804Y440894D01*
X222046Y449136D01*
X222103Y449216D01*
X222165Y449291D01*
X222173Y449314D01*
X222188Y449335D01*
X222216Y449428D01*
X222251Y449519D01*
X222254Y449552D01*
X222259Y449568D01*
X222258Y449593D01*
X222265Y449666D01*
X222265Y499654D01*
X222261Y499678D01*
X222264Y499703D01*
X222242Y499798D01*
X222226Y499895D01*
X222214Y499916D01*
X222208Y499940D01*
X222157Y500024D01*
X222111Y500110D01*
X222093Y500127D01*
X222080Y500148D01*
X222004Y500210D01*
X221933Y500277D01*
X221910Y500287D01*
X221891Y500303D01*
X221800Y500337D01*
X221710Y500378D01*
X221686Y500380D01*
X221663Y500389D01*
X221516Y500403D01*
X221425Y500403D01*
X218463Y503365D01*
X218463Y507555D01*
X221425Y510517D01*
X225615Y510517D01*
X228577Y507555D01*
X228577Y503365D01*
X227534Y502323D01*
X227477Y502243D01*
X227415Y502168D01*
X227407Y502145D01*
X227392Y502125D01*
X227364Y502031D01*
X227329Y501940D01*
X227326Y501907D01*
X227321Y501891D01*
X227322Y501866D01*
X227315Y501793D01*
X227315Y491098D01*
X227331Y491002D01*
X227340Y490905D01*
X227350Y490882D01*
X227354Y490858D01*
X227401Y490771D01*
X227441Y490682D01*
X227458Y490664D01*
X227469Y490642D01*
X227541Y490576D01*
X227608Y490504D01*
X227629Y490493D01*
X227647Y490476D01*
X227736Y490435D01*
X227823Y490389D01*
X227847Y490385D01*
X227870Y490375D01*
X227967Y490365D01*
X228063Y490349D01*
X228088Y490353D01*
X228113Y490351D01*
X228208Y490373D01*
X228304Y490389D01*
X228326Y490400D01*
X228350Y490406D01*
X228433Y490458D01*
X228520Y490504D01*
X228536Y490522D01*
X228558Y490535D01*
X228620Y490610D01*
X228687Y490682D01*
X228702Y490710D01*
X228712Y490723D01*
X228721Y490746D01*
X228756Y490812D01*
X229740Y493187D01*
X232813Y496260D01*
X236827Y497923D01*
X241173Y497923D01*
X245187Y496260D01*
X247339Y494108D01*
X247399Y494065D01*
X247453Y494015D01*
X247497Y493994D01*
X247538Y493966D01*
X247608Y493944D01*
X247675Y493914D01*
X247724Y493909D01*
X247771Y493895D01*
X247844Y493897D01*
X247918Y493890D01*
X247966Y493901D01*
X248015Y493903D01*
X248084Y493929D01*
X248155Y493945D01*
X248197Y493971D01*
X248243Y493989D01*
X248300Y494035D01*
X248363Y494074D01*
X248394Y494112D01*
X248432Y494143D01*
X248471Y494206D01*
X248518Y494262D01*
X248535Y494308D01*
X248561Y494350D01*
X248578Y494422D01*
X248604Y494491D01*
X248611Y494564D01*
X248617Y494588D01*
X248615Y494605D01*
X248618Y494638D01*
X248618Y512000D01*
X248614Y512024D01*
X248617Y512049D01*
X248595Y512144D01*
X248579Y512241D01*
X248567Y512262D01*
X248561Y512286D01*
X248510Y512370D01*
X248464Y512456D01*
X248446Y512473D01*
X248433Y512494D01*
X248357Y512556D01*
X248286Y512623D01*
X248263Y512633D01*
X248244Y512649D01*
X248153Y512683D01*
X248063Y512724D01*
X248039Y512726D01*
X248016Y512735D01*
X247869Y512749D01*
X212321Y512749D01*
X212297Y512745D01*
X212272Y512748D01*
X212177Y512726D01*
X212080Y512710D01*
X212059Y512698D01*
X212035Y512692D01*
X211951Y512641D01*
X211865Y512595D01*
X211848Y512577D01*
X211827Y512564D01*
X211765Y512488D01*
X211698Y512417D01*
X211688Y512394D01*
X211672Y512375D01*
X211638Y512284D01*
X211597Y512194D01*
X211595Y512170D01*
X211586Y512147D01*
X211572Y512000D01*
X211572Y511013D01*
X210177Y509618D01*
X39823Y509618D01*
X38428Y511013D01*
X38428Y512000D01*
X38424Y512024D01*
X38427Y512049D01*
X38405Y512144D01*
X38389Y512241D01*
X38377Y512262D01*
X38371Y512286D01*
X38320Y512370D01*
X38274Y512456D01*
X38256Y512473D01*
X38243Y512494D01*
X38167Y512556D01*
X38096Y512623D01*
X38073Y512633D01*
X38054Y512649D01*
X37963Y512683D01*
X37873Y512724D01*
X37849Y512726D01*
X37826Y512735D01*
X37679Y512749D01*
X1131Y512749D01*
X1107Y512745D01*
X1082Y512748D01*
X987Y512725D01*
X890Y512710D01*
X869Y512698D01*
X845Y512692D01*
X761Y512641D01*
X675Y512595D01*
X658Y512577D01*
X637Y512564D01*
X575Y512488D01*
X508Y512416D01*
X498Y512394D01*
X482Y512375D01*
X448Y512284D01*
X407Y512194D01*
X405Y512170D01*
X396Y512147D01*
X382Y512000D01*
X382Y494638D01*
X394Y494565D01*
X396Y494492D01*
X413Y494446D01*
X421Y494397D01*
X456Y494332D01*
X482Y494263D01*
X513Y494225D01*
X536Y494182D01*
X590Y494131D01*
X637Y494075D01*
X679Y494049D01*
X714Y494015D01*
X781Y493984D01*
X844Y493946D01*
X892Y493934D01*
X937Y493914D01*
X1010Y493907D01*
X1081Y493890D01*
X1130Y493895D01*
X1180Y493890D01*
X1251Y493907D01*
X1324Y493914D01*
X1369Y493934D01*
X1417Y493945D01*
X1480Y493984D01*
X1547Y494014D01*
X1603Y494061D01*
X1625Y494074D01*
X1635Y494087D01*
X1661Y494108D01*
X3813Y496260D01*
X7827Y497923D01*
X12173Y497923D01*
X16187Y496260D01*
X19260Y493187D01*
X20923Y489173D01*
X20923Y484827D01*
X19260Y480813D01*
X16187Y477740D01*
X12173Y476077D01*
X7827Y476077D01*
X3813Y477740D01*
X1661Y479892D01*
X1601Y479935D01*
X1547Y479985D01*
X1503Y480006D01*
X1462Y480034D01*
X1392Y480056D01*
X1325Y480086D01*
X1276Y480091D01*
X1229Y480105D01*
X1156Y480103D01*
X1082Y480110D01*
X1034Y480099D01*
X985Y480097D01*
X916Y480071D01*
X845Y480055D01*
X803Y480029D01*
X757Y480011D01*
X700Y479965D01*
X637Y479926D01*
X606Y479888D01*
X568Y479857D01*
X529Y479794D01*
X482Y479738D01*
X465Y479692D01*
X439Y479650D01*
X422Y479578D01*
X396Y479509D01*
X389Y479436D01*
X383Y479412D01*
X385Y479395D01*
X382Y479362D01*
X382Y469238D01*
X394Y469165D01*
X396Y469092D01*
X413Y469046D01*
X421Y468997D01*
X456Y468932D01*
X482Y468863D01*
X513Y468825D01*
X536Y468782D01*
X590Y468731D01*
X637Y468675D01*
X679Y468649D01*
X714Y468615D01*
X781Y468584D01*
X844Y468546D01*
X892Y468534D01*
X937Y468514D01*
X1010Y468507D01*
X1081Y468490D01*
X1130Y468495D01*
X1180Y468490D01*
X1251Y468507D01*
X1324Y468514D01*
X1369Y468534D01*
X1417Y468545D01*
X1480Y468584D01*
X1547Y468614D01*
X1603Y468661D01*
X1625Y468674D01*
X1635Y468687D01*
X1661Y468708D01*
X3813Y470860D01*
X7827Y472523D01*
X12173Y472523D01*
X16187Y470860D01*
X19260Y467787D01*
X20923Y463773D01*
X20923Y459427D01*
X19260Y455413D01*
X16187Y452340D01*
X12173Y450677D01*
X7827Y450677D01*
X3813Y452340D01*
X1661Y454492D01*
X1601Y454535D01*
X1547Y454585D01*
X1503Y454606D01*
X1462Y454634D01*
X1392Y454656D01*
X1325Y454686D01*
X1276Y454691D01*
X1229Y454705D01*
X1156Y454703D01*
X1082Y454710D01*
X1034Y454699D01*
X985Y454697D01*
X916Y454671D01*
X845Y454655D01*
X803Y454629D01*
X757Y454611D01*
X700Y454565D01*
X637Y454526D01*
X606Y454488D01*
X568Y454457D01*
X529Y454394D01*
X482Y454338D01*
X465Y454292D01*
X439Y454250D01*
X422Y454178D01*
X396Y454109D01*
X389Y454036D01*
X383Y454012D01*
X385Y453995D01*
X382Y453962D01*
X382Y443838D01*
X394Y443765D01*
X396Y443692D01*
X413Y443646D01*
X421Y443597D01*
X456Y443532D01*
X482Y443463D01*
X513Y443425D01*
X536Y443382D01*
X590Y443331D01*
X637Y443275D01*
X679Y443249D01*
X714Y443215D01*
X781Y443184D01*
X844Y443146D01*
X892Y443134D01*
X937Y443114D01*
X1010Y443107D01*
X1081Y443090D01*
X1130Y443095D01*
X1180Y443090D01*
X1251Y443107D01*
X1324Y443114D01*
X1369Y443134D01*
X1417Y443145D01*
X1480Y443184D01*
X1547Y443214D01*
X1603Y443261D01*
X1625Y443274D01*
X1635Y443287D01*
X1661Y443308D01*
X3813Y445460D01*
X7827Y447123D01*
X12173Y447123D01*
X16187Y445460D01*
X19260Y442387D01*
X20923Y438373D01*
X20923Y434027D01*
X19260Y430013D01*
X16187Y426940D01*
X12173Y425277D01*
X7827Y425277D01*
X3813Y426940D01*
X1661Y429092D01*
X1601Y429135D01*
X1547Y429185D01*
X1503Y429206D01*
X1462Y429234D01*
X1392Y429256D01*
X1325Y429286D01*
X1276Y429291D01*
X1229Y429305D01*
X1156Y429303D01*
X1082Y429310D01*
X1034Y429299D01*
X985Y429297D01*
X916Y429271D01*
X845Y429255D01*
X803Y429229D01*
X757Y429211D01*
X700Y429165D01*
X637Y429126D01*
X606Y429088D01*
X568Y429057D01*
X529Y428994D01*
X482Y428938D01*
X465Y428892D01*
X439Y428850D01*
X422Y428778D01*
X396Y428709D01*
X389Y428636D01*
X383Y428612D01*
X385Y428595D01*
X382Y428562D01*
X382Y418438D01*
X394Y418365D01*
X396Y418292D01*
X413Y418246D01*
X421Y418197D01*
X456Y418132D01*
X482Y418063D01*
X513Y418025D01*
X536Y417982D01*
X590Y417931D01*
X637Y417875D01*
X679Y417849D01*
X714Y417815D01*
X781Y417784D01*
X844Y417746D01*
X892Y417734D01*
X937Y417714D01*
X1010Y417707D01*
X1081Y417690D01*
X1130Y417695D01*
X1180Y417690D01*
X1251Y417707D01*
X1324Y417714D01*
X1369Y417734D01*
X1417Y417745D01*
X1480Y417784D01*
X1547Y417814D01*
X1603Y417861D01*
X1625Y417874D01*
X1635Y417887D01*
X1661Y417908D01*
X3813Y420060D01*
X7827Y421723D01*
X12173Y421723D01*
X16187Y420060D01*
X19260Y416987D01*
X20923Y412973D01*
X20923Y408627D01*
X19260Y404613D01*
X16187Y401540D01*
X12173Y399877D01*
X7827Y399877D01*
X3813Y401540D01*
X1661Y403692D01*
X1601Y403735D01*
X1547Y403785D01*
X1503Y403806D01*
X1462Y403834D01*
X1392Y403856D01*
X1325Y403886D01*
X1276Y403891D01*
X1229Y403905D01*
X1156Y403903D01*
X1082Y403910D01*
X1034Y403899D01*
X985Y403897D01*
X916Y403871D01*
X845Y403855D01*
X803Y403829D01*
X757Y403811D01*
X700Y403765D01*
X637Y403726D01*
X606Y403688D01*
X568Y403657D01*
X529Y403594D01*
X482Y403538D01*
X465Y403492D01*
X439Y403450D01*
X422Y403378D01*
X396Y403309D01*
X389Y403236D01*
X383Y403212D01*
X385Y403195D01*
X382Y403162D01*
X382Y393038D01*
X394Y392965D01*
X396Y392892D01*
X413Y392846D01*
X421Y392797D01*
X456Y392732D01*
X482Y392663D01*
X513Y392625D01*
X536Y392582D01*
X590Y392531D01*
X637Y392475D01*
X679Y392449D01*
X714Y392415D01*
X781Y392384D01*
X844Y392346D01*
X892Y392334D01*
X937Y392314D01*
X1010Y392307D01*
X1081Y392290D01*
X1130Y392295D01*
X1180Y392290D01*
X1251Y392307D01*
X1324Y392314D01*
X1369Y392334D01*
X1417Y392345D01*
X1480Y392384D01*
X1547Y392414D01*
X1603Y392461D01*
X1625Y392474D01*
X1635Y392487D01*
X1661Y392508D01*
X3813Y394660D01*
X7827Y396323D01*
X12173Y396323D01*
X16187Y394660D01*
X19260Y391587D01*
X20923Y387573D01*
X20923Y383227D01*
X19260Y379213D01*
X16187Y376140D01*
X12173Y374477D01*
X7827Y374477D01*
X3813Y376140D01*
X1661Y378292D01*
X1601Y378335D01*
X1547Y378385D01*
X1503Y378406D01*
X1462Y378434D01*
X1392Y378456D01*
X1325Y378486D01*
X1276Y378491D01*
X1229Y378505D01*
X1156Y378503D01*
X1082Y378510D01*
X1034Y378499D01*
X985Y378497D01*
X916Y378471D01*
X845Y378455D01*
X803Y378429D01*
X757Y378411D01*
X700Y378365D01*
X637Y378326D01*
X606Y378288D01*
X568Y378257D01*
X529Y378194D01*
X482Y378138D01*
X465Y378092D01*
X439Y378050D01*
X422Y377978D01*
X396Y377909D01*
X389Y377836D01*
X383Y377812D01*
X385Y377795D01*
X382Y377762D01*
X382Y367638D01*
X394Y367565D01*
X396Y367492D01*
X413Y367446D01*
X421Y367397D01*
X456Y367332D01*
X482Y367263D01*
X513Y367225D01*
X536Y367182D01*
X590Y367131D01*
X637Y367075D01*
X679Y367049D01*
X714Y367015D01*
X781Y366984D01*
X844Y366946D01*
X892Y366934D01*
X937Y366914D01*
X1010Y366907D01*
X1081Y366890D01*
X1130Y366895D01*
X1180Y366890D01*
X1251Y366907D01*
X1324Y366914D01*
X1369Y366934D01*
X1417Y366945D01*
X1480Y366984D01*
X1547Y367014D01*
X1603Y367061D01*
X1625Y367074D01*
X1635Y367087D01*
X1661Y367108D01*
X3813Y369260D01*
X7827Y370923D01*
X12173Y370923D01*
X16187Y369260D01*
X19260Y366187D01*
X20923Y362173D01*
X20923Y357827D01*
X19260Y353813D01*
X16187Y350740D01*
X12173Y349077D01*
X7827Y349077D01*
X3813Y350740D01*
X1661Y352892D01*
X1601Y352935D01*
X1547Y352985D01*
X1503Y353006D01*
X1462Y353034D01*
X1392Y353056D01*
X1325Y353086D01*
X1276Y353091D01*
X1229Y353105D01*
X1156Y353103D01*
X1082Y353110D01*
X1034Y353099D01*
X985Y353097D01*
X916Y353071D01*
X845Y353055D01*
X803Y353029D01*
X757Y353011D01*
X700Y352965D01*
X637Y352926D01*
X606Y352888D01*
X568Y352857D01*
X529Y352794D01*
X482Y352738D01*
X465Y352692D01*
X439Y352650D01*
X422Y352578D01*
X396Y352509D01*
X389Y352436D01*
X383Y352412D01*
X385Y352395D01*
X382Y352362D01*
X382Y342238D01*
X384Y342225D01*
X383Y342219D01*
X389Y342196D01*
X394Y342165D01*
X396Y342092D01*
X413Y342046D01*
X421Y341997D01*
X456Y341932D01*
X482Y341863D01*
X513Y341825D01*
X536Y341782D01*
X590Y341731D01*
X637Y341675D01*
X679Y341649D01*
X714Y341615D01*
X781Y341584D01*
X844Y341546D01*
X892Y341534D01*
X937Y341514D01*
X1010Y341507D01*
X1081Y341490D01*
X1130Y341495D01*
X1180Y341490D01*
X1251Y341507D01*
X1324Y341514D01*
X1369Y341534D01*
X1417Y341545D01*
X1480Y341584D01*
X1547Y341614D01*
X1603Y341661D01*
X1625Y341674D01*
X1635Y341687D01*
X1661Y341708D01*
X3813Y343860D01*
X7827Y345523D01*
X12173Y345523D01*
X16187Y343860D01*
X19260Y340787D01*
X20923Y336773D01*
X20923Y332427D01*
X19260Y328413D01*
X16187Y325340D01*
X12173Y323677D01*
X7827Y323677D01*
X3813Y325340D01*
X1661Y327492D01*
X1601Y327535D01*
X1547Y327585D01*
X1503Y327606D01*
X1462Y327634D01*
X1392Y327656D01*
X1325Y327686D01*
X1276Y327691D01*
X1229Y327705D01*
X1156Y327703D01*
X1082Y327710D01*
X1034Y327699D01*
X985Y327697D01*
X916Y327671D01*
X845Y327655D01*
X803Y327629D01*
X757Y327611D01*
X700Y327565D01*
X637Y327526D01*
X606Y327488D01*
X568Y327457D01*
X529Y327394D01*
X482Y327338D01*
X465Y327292D01*
X439Y327250D01*
X422Y327178D01*
X396Y327109D01*
X389Y327036D01*
X383Y327012D01*
X385Y326995D01*
X382Y326962D01*
X382Y316838D01*
X394Y316765D01*
X396Y316692D01*
X413Y316646D01*
X421Y316597D01*
X456Y316532D01*
X482Y316463D01*
X513Y316425D01*
X536Y316382D01*
X590Y316331D01*
X637Y316275D01*
X679Y316249D01*
X714Y316215D01*
X781Y316184D01*
X844Y316146D01*
X892Y316134D01*
X937Y316114D01*
X1010Y316107D01*
X1081Y316090D01*
X1130Y316095D01*
X1180Y316090D01*
X1251Y316107D01*
X1324Y316114D01*
X1369Y316134D01*
X1417Y316145D01*
X1480Y316184D01*
X1547Y316214D01*
X1603Y316261D01*
X1625Y316274D01*
X1635Y316287D01*
X1661Y316308D01*
X3813Y318460D01*
X7827Y320123D01*
X12173Y320123D01*
X16187Y318460D01*
X19260Y315387D01*
X20824Y311610D01*
X20850Y311568D01*
X20868Y311522D01*
X20914Y311465D01*
X20953Y311403D01*
X20991Y311372D01*
X21022Y311334D01*
X21085Y311295D01*
X21142Y311248D01*
X21188Y311231D01*
X21229Y311205D01*
X21301Y311188D01*
X21370Y311162D01*
X21419Y311160D01*
X21467Y311149D01*
X21540Y311156D01*
X21614Y311154D01*
X21661Y311168D01*
X21710Y311173D01*
X21777Y311203D01*
X21848Y311225D01*
X21887Y311253D01*
X21932Y311273D01*
X22046Y311366D01*
X22046Y311367D01*
X28164Y317485D01*
X45634Y317485D01*
X45730Y317501D01*
X45827Y317510D01*
X45850Y317520D01*
X45875Y317524D01*
X45961Y317570D01*
X46049Y317611D01*
X46075Y317632D01*
X46090Y317639D01*
X46107Y317658D01*
X46164Y317704D01*
X50604Y322144D01*
X50661Y322224D01*
X50723Y322299D01*
X50731Y322322D01*
X50746Y322343D01*
X50774Y322436D01*
X50809Y322527D01*
X50812Y322560D01*
X50817Y322576D01*
X50816Y322601D01*
X50823Y322674D01*
X50823Y325945D01*
X53785Y328907D01*
X57975Y328907D01*
X60937Y325945D01*
X60937Y321755D01*
X57975Y318793D01*
X54704Y318793D01*
X54608Y318777D01*
X54511Y318768D01*
X54488Y318758D01*
X54463Y318754D01*
X54377Y318707D01*
X54289Y318667D01*
X54263Y318646D01*
X54248Y318639D01*
X54231Y318620D01*
X54174Y318574D01*
X53086Y317486D01*
X53044Y317426D01*
X52993Y317372D01*
X52973Y317328D01*
X52944Y317287D01*
X52923Y317217D01*
X52892Y317150D01*
X52888Y317101D01*
X52873Y317054D01*
X52876Y316981D01*
X52868Y316907D01*
X52880Y316859D01*
X52881Y316810D01*
X52907Y316741D01*
X52924Y316670D01*
X52950Y316628D01*
X52967Y316582D01*
X53014Y316525D01*
X53052Y316462D01*
X53090Y316431D01*
X53122Y316393D01*
X53184Y316354D01*
X53241Y316307D01*
X53287Y316290D01*
X53329Y316264D01*
X53400Y316247D01*
X53469Y316221D01*
X53542Y316214D01*
X53566Y316208D01*
X53583Y316210D01*
X53616Y316207D01*
X57975Y316207D01*
X60937Y313245D01*
X60937Y309055D01*
X57975Y306093D01*
X53785Y306093D01*
X51473Y308406D01*
X51393Y308463D01*
X51318Y308525D01*
X51295Y308533D01*
X51275Y308548D01*
X51181Y308576D01*
X51090Y308611D01*
X51057Y308614D01*
X51041Y308619D01*
X51016Y308618D01*
X50943Y308625D01*
X32820Y308625D01*
X32724Y308609D01*
X32627Y308600D01*
X32604Y308590D01*
X32579Y308586D01*
X32493Y308540D01*
X32405Y308499D01*
X32379Y308478D01*
X32364Y308471D01*
X32347Y308452D01*
X32290Y308406D01*
X29128Y305244D01*
X29071Y305164D01*
X29009Y305089D01*
X29001Y305066D01*
X28986Y305045D01*
X28958Y304952D01*
X28923Y304861D01*
X28920Y304828D01*
X28915Y304812D01*
X28916Y304787D01*
X28909Y304714D01*
X28909Y243354D01*
X24666Y239112D01*
X24609Y239033D01*
X24547Y238957D01*
X24539Y238934D01*
X24524Y238914D01*
X24496Y238820D01*
X24461Y238729D01*
X24458Y238696D01*
X24453Y238680D01*
X24454Y238655D01*
X24447Y238582D01*
X24447Y221596D01*
X24459Y221524D01*
X24461Y221450D01*
X24478Y221404D01*
X24486Y221355D01*
X24521Y221291D01*
X24547Y221222D01*
X24578Y221184D01*
X24601Y221140D01*
X24655Y221090D01*
X24702Y221033D01*
X24743Y221007D01*
X24779Y220973D01*
X24846Y220943D01*
X24909Y220904D01*
X24957Y220893D01*
X25002Y220872D01*
X25075Y220865D01*
X25146Y220848D01*
X25195Y220853D01*
X25245Y220848D01*
X25316Y220865D01*
X25389Y220872D01*
X25434Y220892D01*
X25482Y220904D01*
X25545Y220942D01*
X25612Y220973D01*
X25668Y221019D01*
X25690Y221032D01*
X25700Y221045D01*
X25726Y221066D01*
X29006Y224346D01*
X30704Y226045D01*
X71263Y226045D01*
X71359Y226061D01*
X71456Y226070D01*
X71479Y226080D01*
X71504Y226084D01*
X71590Y226130D01*
X71679Y226171D01*
X71704Y226192D01*
X71719Y226199D01*
X71736Y226218D01*
X71793Y226264D01*
X74105Y228577D01*
X78295Y228577D01*
X81286Y225585D01*
X81346Y225542D01*
X81400Y225492D01*
X81444Y225472D01*
X81485Y225443D01*
X81555Y225422D01*
X81622Y225391D01*
X81671Y225386D01*
X81718Y225372D01*
X81791Y225374D01*
X81865Y225367D01*
X81913Y225378D01*
X81962Y225380D01*
X82031Y225406D01*
X82102Y225422D01*
X82144Y225448D01*
X82190Y225466D01*
X82247Y225512D01*
X82310Y225551D01*
X82341Y225589D01*
X82379Y225620D01*
X82418Y225683D01*
X82465Y225740D01*
X82482Y225786D01*
X82508Y225828D01*
X82525Y225899D01*
X82551Y225968D01*
X82558Y226041D01*
X82564Y226065D01*
X82562Y226082D01*
X82565Y226115D01*
X82565Y247564D01*
X82549Y247660D01*
X82540Y247757D01*
X82530Y247780D01*
X82526Y247805D01*
X82480Y247891D01*
X82439Y247979D01*
X82418Y248005D01*
X82411Y248020D01*
X82392Y248037D01*
X82346Y248094D01*
X73675Y256764D01*
X73675Y276636D01*
X83009Y285970D01*
X83024Y285990D01*
X83043Y286005D01*
X83094Y286088D01*
X83151Y286168D01*
X83159Y286192D01*
X83172Y286212D01*
X83194Y286308D01*
X83222Y286402D01*
X83222Y286426D01*
X83227Y286450D01*
X83218Y286547D01*
X83214Y286646D01*
X83206Y286668D01*
X83203Y286693D01*
X83163Y286782D01*
X83129Y286874D01*
X83113Y286893D01*
X83103Y286915D01*
X83009Y287029D01*
X81303Y288735D01*
X81303Y292925D01*
X81485Y293106D01*
X81528Y293166D01*
X81578Y293220D01*
X81598Y293264D01*
X81627Y293305D01*
X81648Y293375D01*
X81679Y293442D01*
X81684Y293491D01*
X81698Y293538D01*
X81696Y293611D01*
X81703Y293685D01*
X81692Y293733D01*
X81690Y293782D01*
X81664Y293851D01*
X81648Y293922D01*
X81622Y293964D01*
X81604Y294010D01*
X81558Y294067D01*
X81519Y294130D01*
X81481Y294161D01*
X81450Y294199D01*
X81387Y294238D01*
X81330Y294285D01*
X81284Y294302D01*
X81242Y294328D01*
X81171Y294345D01*
X81102Y294371D01*
X81029Y294378D01*
X81005Y294384D01*
X80988Y294382D01*
X80955Y294385D01*
X59277Y294385D01*
X59181Y294369D01*
X59084Y294360D01*
X59061Y294350D01*
X59036Y294346D01*
X58950Y294300D01*
X58861Y294259D01*
X58836Y294238D01*
X58821Y294231D01*
X58804Y294212D01*
X58747Y294166D01*
X57975Y293393D01*
X53785Y293393D01*
X50823Y296355D01*
X50823Y300545D01*
X53785Y303507D01*
X57975Y303507D01*
X58747Y302734D01*
X58827Y302677D01*
X58902Y302615D01*
X58925Y302607D01*
X58945Y302592D01*
X59039Y302564D01*
X59130Y302529D01*
X59163Y302526D01*
X59179Y302521D01*
X59204Y302522D01*
X59277Y302515D01*
X138844Y302515D01*
X175515Y265844D01*
X175515Y204947D01*
X175531Y204851D01*
X175540Y204754D01*
X175550Y204731D01*
X175554Y204706D01*
X175600Y204620D01*
X175641Y204531D01*
X175662Y204506D01*
X175669Y204491D01*
X175688Y204474D01*
X175734Y204417D01*
X176057Y204095D01*
X176057Y202112D01*
X176073Y202016D01*
X176082Y201919D01*
X176092Y201896D01*
X176096Y201871D01*
X176142Y201785D01*
X176183Y201696D01*
X176204Y201671D01*
X176211Y201656D01*
X176230Y201639D01*
X176276Y201582D01*
X191374Y186484D01*
X191454Y186427D01*
X191529Y186365D01*
X191552Y186357D01*
X191573Y186342D01*
X191666Y186314D01*
X191757Y186279D01*
X191790Y186276D01*
X191806Y186271D01*
X191831Y186272D01*
X191904Y186265D01*
X228360Y186265D01*
X228491Y186286D01*
G37*
G36*
X19686Y1363D02*
X19686Y1363D01*
X19782Y1379D01*
X19812Y1382D01*
X21858Y1382D01*
X21879Y1385D01*
X21926Y1385D01*
X22805Y1465D01*
X22813Y1462D01*
X22864Y1432D01*
X22927Y1419D01*
X22987Y1396D01*
X23081Y1387D01*
X23103Y1382D01*
X23114Y1384D01*
X23134Y1382D01*
X228797Y1382D01*
X228875Y1394D01*
X228953Y1398D01*
X228994Y1414D01*
X229038Y1421D01*
X229061Y1434D01*
X230043Y1383D01*
X230056Y1384D01*
X230081Y1382D01*
X230260Y1382D01*
X230271Y1384D01*
X230292Y1382D01*
X233406Y1517D01*
X233439Y1524D01*
X233472Y1523D01*
X233616Y1556D01*
X235352Y2148D01*
X237551Y2897D01*
X239673Y3620D01*
X239734Y3652D01*
X239798Y3676D01*
X239867Y3724D01*
X239888Y3735D01*
X239898Y3745D01*
X239919Y3760D01*
X244778Y7925D01*
X244823Y7978D01*
X244874Y8023D01*
X244920Y8094D01*
X244935Y8112D01*
X244940Y8125D01*
X244955Y8147D01*
X247921Y13818D01*
X247931Y13849D01*
X247949Y13877D01*
X247992Y14019D01*
X248604Y17090D01*
X248604Y17091D01*
X248618Y17237D01*
X248618Y96926D01*
X248606Y96998D01*
X248604Y97071D01*
X248587Y97118D01*
X248579Y97166D01*
X248544Y97231D01*
X248518Y97300D01*
X248487Y97338D01*
X248464Y97381D01*
X248410Y97432D01*
X248363Y97489D01*
X248321Y97515D01*
X248286Y97548D01*
X248219Y97579D01*
X248156Y97618D01*
X248108Y97629D01*
X248063Y97649D01*
X247990Y97656D01*
X247919Y97673D01*
X247870Y97668D01*
X247820Y97673D01*
X247749Y97657D01*
X247676Y97649D01*
X247631Y97629D01*
X247583Y97618D01*
X247520Y97579D01*
X247453Y97549D01*
X247397Y97502D01*
X247375Y97489D01*
X247365Y97476D01*
X247339Y97455D01*
X246778Y96894D01*
X245257Y95789D01*
X243583Y94936D01*
X241796Y94355D01*
X240499Y94150D01*
X240499Y105250D01*
X240495Y105274D01*
X240498Y105298D01*
X240475Y105394D01*
X240459Y105491D01*
X240448Y105512D01*
X240442Y105536D01*
X240391Y105619D01*
X240344Y105706D01*
X240327Y105723D01*
X240314Y105743D01*
X240238Y105806D01*
X240166Y105873D01*
X240144Y105883D01*
X240125Y105898D01*
X240034Y105933D01*
X239944Y105973D01*
X239920Y105976D01*
X239897Y105985D01*
X239750Y105999D01*
X238999Y105999D01*
X238999Y106001D01*
X239750Y106001D01*
X239774Y106005D01*
X239798Y106002D01*
X239894Y106025D01*
X239991Y106041D01*
X240012Y106052D01*
X240036Y106058D01*
X240120Y106109D01*
X240206Y106156D01*
X240223Y106173D01*
X240243Y106186D01*
X240306Y106262D01*
X240373Y106334D01*
X240383Y106356D01*
X240398Y106375D01*
X240433Y106467D01*
X240474Y106556D01*
X240476Y106580D01*
X240485Y106603D01*
X240499Y106750D01*
X240499Y117850D01*
X241796Y117645D01*
X243583Y117064D01*
X245257Y116211D01*
X246778Y115106D01*
X247339Y114545D01*
X247399Y114502D01*
X247453Y114452D01*
X247497Y114431D01*
X247538Y114403D01*
X247608Y114381D01*
X247675Y114351D01*
X247724Y114346D01*
X247771Y114332D01*
X247844Y114334D01*
X247918Y114327D01*
X247966Y114338D01*
X248015Y114340D01*
X248084Y114365D01*
X248155Y114382D01*
X248197Y114408D01*
X248243Y114425D01*
X248300Y114472D01*
X248363Y114511D01*
X248394Y114549D01*
X248432Y114580D01*
X248471Y114642D01*
X248518Y114699D01*
X248535Y114745D01*
X248561Y114787D01*
X248578Y114859D01*
X248604Y114928D01*
X248611Y115001D01*
X248617Y115025D01*
X248615Y115041D01*
X248618Y115074D01*
X248618Y123762D01*
X248606Y123835D01*
X248604Y123908D01*
X248587Y123954D01*
X248579Y124003D01*
X248544Y124068D01*
X248518Y124137D01*
X248487Y124175D01*
X248464Y124218D01*
X248410Y124269D01*
X248363Y124325D01*
X248321Y124351D01*
X248286Y124385D01*
X248219Y124416D01*
X248156Y124454D01*
X248108Y124466D01*
X248063Y124486D01*
X247990Y124493D01*
X247919Y124510D01*
X247870Y124505D01*
X247820Y124510D01*
X247749Y124493D01*
X247676Y124486D01*
X247631Y124466D01*
X247583Y124455D01*
X247520Y124416D01*
X247453Y124386D01*
X247397Y124339D01*
X247375Y124326D01*
X247365Y124313D01*
X247339Y124292D01*
X245187Y122140D01*
X241173Y120477D01*
X236827Y120477D01*
X232813Y122140D01*
X232408Y122545D01*
X232388Y122559D01*
X232373Y122578D01*
X232290Y122630D01*
X232283Y122634D01*
X232281Y122636D01*
X232280Y122637D01*
X232210Y122687D01*
X232186Y122694D01*
X232165Y122707D01*
X232070Y122729D01*
X231976Y122758D01*
X231952Y122757D01*
X231928Y122763D01*
X231830Y122753D01*
X231732Y122750D01*
X231709Y122741D01*
X231685Y122739D01*
X231596Y122699D01*
X231504Y122664D01*
X231485Y122649D01*
X231463Y122638D01*
X231348Y122545D01*
X225666Y116862D01*
X223612Y116011D01*
X173225Y116011D01*
X173129Y115995D01*
X173032Y115986D01*
X173009Y115976D01*
X172985Y115972D01*
X172898Y115926D01*
X172810Y115885D01*
X172784Y115864D01*
X172769Y115857D01*
X172754Y115840D01*
X172752Y115839D01*
X172748Y115835D01*
X172695Y115792D01*
X166808Y109905D01*
X166751Y109825D01*
X166689Y109750D01*
X166681Y109727D01*
X166666Y109706D01*
X166638Y109613D01*
X166603Y109522D01*
X166600Y109489D01*
X166595Y109473D01*
X166596Y109448D01*
X166589Y109375D01*
X166589Y82888D01*
X165738Y80834D01*
X164166Y79262D01*
X162112Y78411D01*
X159888Y78411D01*
X157834Y79262D01*
X156262Y80834D01*
X155411Y82888D01*
X155411Y113112D01*
X156262Y115166D01*
X167434Y126338D01*
X169488Y127189D01*
X210762Y127189D01*
X210786Y127193D01*
X210811Y127190D01*
X210906Y127212D01*
X211003Y127228D01*
X211024Y127240D01*
X211048Y127246D01*
X211132Y127297D01*
X211218Y127343D01*
X211235Y127361D01*
X211256Y127374D01*
X211318Y127450D01*
X211385Y127521D01*
X211395Y127544D01*
X211411Y127563D01*
X211445Y127654D01*
X211486Y127744D01*
X211488Y127768D01*
X211497Y127791D01*
X211511Y127938D01*
X211511Y146112D01*
X212362Y148166D01*
X214734Y150538D01*
X216788Y151389D01*
X224912Y151389D01*
X226966Y150538D01*
X227343Y150160D01*
X227347Y150157D01*
X227350Y150154D01*
X227446Y150087D01*
X227542Y150018D01*
X227546Y150017D01*
X227550Y150014D01*
X227663Y149981D01*
X227775Y149947D01*
X227780Y149947D01*
X227785Y149946D01*
X227902Y149951D01*
X228019Y149955D01*
X228024Y149957D01*
X228029Y149957D01*
X228137Y150000D01*
X228247Y150041D01*
X228251Y150044D01*
X228256Y150046D01*
X228345Y150121D01*
X228436Y150196D01*
X228439Y150200D01*
X228442Y150203D01*
X228503Y150303D01*
X228565Y150403D01*
X228566Y150408D01*
X228569Y150412D01*
X228594Y150527D01*
X228621Y150640D01*
X228620Y150645D01*
X228621Y150650D01*
X228608Y150768D01*
X228597Y150883D01*
X228595Y150888D01*
X228594Y150893D01*
X228541Y151030D01*
X227936Y152217D01*
X227355Y154004D01*
X227150Y155301D01*
X237501Y155301D01*
X237501Y144950D01*
X236204Y145155D01*
X234417Y145736D01*
X233230Y146341D01*
X233226Y146342D01*
X233222Y146345D01*
X233110Y146379D01*
X232998Y146415D01*
X232993Y146414D01*
X232988Y146416D01*
X232871Y146412D01*
X232754Y146410D01*
X232749Y146408D01*
X232744Y146408D01*
X232634Y146366D01*
X232524Y146327D01*
X232521Y146324D01*
X232516Y146322D01*
X232425Y146247D01*
X232334Y146175D01*
X232331Y146171D01*
X232327Y146167D01*
X232265Y146068D01*
X232202Y145969D01*
X232201Y145965D01*
X232198Y145960D01*
X232172Y145847D01*
X232143Y145732D01*
X232144Y145727D01*
X232143Y145723D01*
X232154Y145606D01*
X232164Y145489D01*
X232166Y145485D01*
X232166Y145480D01*
X232215Y145373D01*
X232261Y145266D01*
X232265Y145262D01*
X232267Y145258D01*
X232360Y145143D01*
X235309Y142194D01*
X235420Y142115D01*
X235507Y142053D01*
X235507Y142052D01*
X235618Y142019D01*
X235740Y141982D01*
X235741Y141982D01*
X235741Y141981D01*
X235866Y141986D01*
X235984Y141989D01*
X235985Y141989D01*
X235986Y141990D01*
X236126Y142032D01*
X236827Y142323D01*
X241173Y142323D01*
X245187Y140660D01*
X247339Y138508D01*
X247399Y138465D01*
X247453Y138415D01*
X247497Y138394D01*
X247538Y138366D01*
X247608Y138344D01*
X247675Y138314D01*
X247724Y138309D01*
X247771Y138295D01*
X247844Y138297D01*
X247918Y138290D01*
X247966Y138301D01*
X248015Y138303D01*
X248084Y138329D01*
X248155Y138345D01*
X248197Y138371D01*
X248243Y138389D01*
X248300Y138435D01*
X248363Y138474D01*
X248394Y138512D01*
X248432Y138543D01*
X248471Y138606D01*
X248518Y138662D01*
X248535Y138708D01*
X248561Y138750D01*
X248578Y138822D01*
X248604Y138891D01*
X248611Y138964D01*
X248617Y138988D01*
X248615Y139005D01*
X248618Y139038D01*
X248618Y147726D01*
X248606Y147798D01*
X248604Y147871D01*
X248587Y147918D01*
X248579Y147966D01*
X248544Y148031D01*
X248518Y148100D01*
X248487Y148138D01*
X248464Y148181D01*
X248410Y148232D01*
X248363Y148289D01*
X248321Y148315D01*
X248286Y148348D01*
X248219Y148379D01*
X248156Y148418D01*
X248108Y148429D01*
X248063Y148449D01*
X247990Y148456D01*
X247919Y148473D01*
X247870Y148468D01*
X247820Y148473D01*
X247749Y148457D01*
X247676Y148449D01*
X247631Y148429D01*
X247583Y148418D01*
X247520Y148379D01*
X247453Y148349D01*
X247397Y148302D01*
X247375Y148289D01*
X247365Y148276D01*
X247339Y148255D01*
X246778Y147694D01*
X245257Y146589D01*
X243583Y145736D01*
X241796Y145155D01*
X240499Y144950D01*
X240499Y156050D01*
X240495Y156074D01*
X240498Y156098D01*
X240475Y156194D01*
X240459Y156291D01*
X240448Y156312D01*
X240442Y156336D01*
X240391Y156419D01*
X240344Y156506D01*
X240327Y156523D01*
X240314Y156543D01*
X240238Y156606D01*
X240166Y156673D01*
X240144Y156683D01*
X240125Y156698D01*
X240034Y156733D01*
X239944Y156773D01*
X239920Y156776D01*
X239897Y156785D01*
X239750Y156799D01*
X238999Y156799D01*
X238999Y156801D01*
X239750Y156801D01*
X239774Y156805D01*
X239798Y156802D01*
X239894Y156825D01*
X239991Y156841D01*
X240012Y156852D01*
X240036Y156858D01*
X240120Y156909D01*
X240206Y156956D01*
X240223Y156973D01*
X240243Y156986D01*
X240306Y157062D01*
X240373Y157134D01*
X240383Y157156D01*
X240398Y157175D01*
X240433Y157267D01*
X240474Y157356D01*
X240476Y157380D01*
X240485Y157403D01*
X240499Y157550D01*
X240499Y168650D01*
X241796Y168445D01*
X243583Y167864D01*
X245257Y167011D01*
X246778Y165906D01*
X247339Y165345D01*
X247399Y165302D01*
X247453Y165252D01*
X247497Y165231D01*
X247538Y165203D01*
X247608Y165181D01*
X247675Y165151D01*
X247724Y165146D01*
X247771Y165132D01*
X247844Y165134D01*
X247918Y165127D01*
X247966Y165138D01*
X248015Y165140D01*
X248084Y165165D01*
X248155Y165182D01*
X248197Y165208D01*
X248243Y165225D01*
X248300Y165272D01*
X248363Y165311D01*
X248394Y165349D01*
X248432Y165380D01*
X248471Y165442D01*
X248518Y165499D01*
X248535Y165545D01*
X248561Y165587D01*
X248578Y165659D01*
X248604Y165728D01*
X248611Y165801D01*
X248617Y165825D01*
X248615Y165841D01*
X248618Y165874D01*
X248618Y174562D01*
X248606Y174635D01*
X248604Y174708D01*
X248587Y174754D01*
X248579Y174803D01*
X248544Y174868D01*
X248518Y174937D01*
X248487Y174975D01*
X248464Y175018D01*
X248410Y175069D01*
X248363Y175125D01*
X248321Y175151D01*
X248286Y175185D01*
X248219Y175216D01*
X248156Y175254D01*
X248108Y175266D01*
X248063Y175286D01*
X247990Y175293D01*
X247919Y175310D01*
X247870Y175305D01*
X247820Y175310D01*
X247749Y175293D01*
X247676Y175286D01*
X247631Y175266D01*
X247583Y175255D01*
X247520Y175216D01*
X247453Y175186D01*
X247397Y175139D01*
X247375Y175126D01*
X247365Y175113D01*
X247339Y175092D01*
X245187Y172940D01*
X241173Y171277D01*
X236827Y171277D01*
X232813Y172940D01*
X229740Y176013D01*
X229053Y177673D01*
X228998Y177761D01*
X228924Y177880D01*
X228832Y177955D01*
X228736Y178035D01*
X228735Y178035D01*
X228603Y178085D01*
X228507Y178121D01*
X228506Y178121D01*
X228360Y178135D01*
X188226Y178135D01*
X171085Y195277D01*
X171065Y195291D01*
X171049Y195310D01*
X170966Y195362D01*
X170886Y195419D01*
X170863Y195426D01*
X170842Y195439D01*
X170747Y195461D01*
X170653Y195490D01*
X170628Y195489D01*
X170605Y195495D01*
X170507Y195485D01*
X170409Y195482D01*
X170386Y195473D01*
X170362Y195471D01*
X170273Y195431D01*
X170181Y195396D01*
X170162Y195381D01*
X170139Y195370D01*
X170025Y195277D01*
X163018Y188270D01*
X162961Y188190D01*
X162899Y188115D01*
X162891Y188092D01*
X162876Y188071D01*
X162874Y188064D01*
X151604Y176794D01*
X151547Y176715D01*
X151485Y176640D01*
X151477Y176616D01*
X151462Y176596D01*
X151434Y176503D01*
X151399Y176411D01*
X151396Y176378D01*
X151391Y176362D01*
X151392Y176337D01*
X151385Y176264D01*
X151385Y155603D01*
X151383Y155599D01*
X151380Y155566D01*
X151375Y155550D01*
X151376Y155525D01*
X151369Y155452D01*
X151369Y63070D01*
X129954Y41655D01*
X111333Y41655D01*
X111237Y41639D01*
X111139Y41630D01*
X111117Y41620D01*
X111093Y41616D01*
X111006Y41569D01*
X110917Y41529D01*
X110899Y41512D01*
X110877Y41501D01*
X110811Y41429D01*
X110739Y41362D01*
X110727Y41341D01*
X110710Y41323D01*
X110670Y41234D01*
X110624Y41147D01*
X110620Y41123D01*
X110610Y41100D01*
X110600Y41003D01*
X110584Y40906D01*
X110588Y40882D01*
X110586Y40857D01*
X110608Y40762D01*
X110624Y40666D01*
X110635Y40644D01*
X110641Y40620D01*
X110693Y40537D01*
X110738Y40450D01*
X110756Y40434D01*
X110770Y40412D01*
X110845Y40350D01*
X110916Y40283D01*
X110945Y40268D01*
X110958Y40258D01*
X110981Y40249D01*
X111047Y40214D01*
X111146Y40173D01*
X112510Y39261D01*
X113671Y38100D01*
X114583Y36736D01*
X115211Y35220D01*
X115531Y33611D01*
X115531Y28499D01*
X107950Y28499D01*
X107926Y28495D01*
X107902Y28498D01*
X107806Y28475D01*
X107709Y28459D01*
X107688Y28448D01*
X107664Y28442D01*
X107581Y28391D01*
X107494Y28344D01*
X107477Y28327D01*
X107457Y28314D01*
X107394Y28238D01*
X107327Y28166D01*
X107317Y28144D01*
X107302Y28125D01*
X107267Y28034D01*
X107227Y27944D01*
X107224Y27920D01*
X107215Y27897D01*
X107201Y27750D01*
X107201Y26999D01*
X107199Y26999D01*
X107199Y27750D01*
X107195Y27774D01*
X107198Y27798D01*
X107175Y27894D01*
X107159Y27991D01*
X107148Y28012D01*
X107142Y28036D01*
X107091Y28120D01*
X107044Y28206D01*
X107027Y28223D01*
X107014Y28243D01*
X106938Y28306D01*
X106866Y28373D01*
X106844Y28383D01*
X106825Y28398D01*
X106733Y28433D01*
X106644Y28474D01*
X106620Y28476D01*
X106597Y28485D01*
X106450Y28499D01*
X98869Y28499D01*
X98869Y33611D01*
X99189Y35220D01*
X99817Y36736D01*
X99931Y36906D01*
X100432Y37655D01*
X100432Y37656D01*
X100729Y38100D01*
X101890Y39261D01*
X103254Y40173D01*
X103353Y40214D01*
X103436Y40265D01*
X103523Y40311D01*
X103540Y40330D01*
X103561Y40343D01*
X103623Y40418D01*
X103690Y40490D01*
X103700Y40512D01*
X103715Y40531D01*
X103750Y40623D01*
X103790Y40712D01*
X103793Y40736D01*
X103801Y40759D01*
X103805Y40857D01*
X103814Y40955D01*
X103809Y40979D01*
X103810Y41003D01*
X103781Y41097D01*
X103759Y41192D01*
X103746Y41213D01*
X103739Y41237D01*
X103682Y41316D01*
X103630Y41400D01*
X103611Y41415D01*
X103597Y41435D01*
X103518Y41492D01*
X103442Y41555D01*
X103419Y41563D01*
X103399Y41578D01*
X103305Y41606D01*
X103214Y41641D01*
X103181Y41644D01*
X103165Y41649D01*
X103141Y41648D01*
X103067Y41655D01*
X61816Y41655D01*
X45465Y58006D01*
X45465Y114846D01*
X45449Y114942D01*
X45440Y115039D01*
X45430Y115062D01*
X45426Y115087D01*
X45380Y115173D01*
X45339Y115262D01*
X45318Y115287D01*
X45311Y115302D01*
X45292Y115319D01*
X45246Y115376D01*
X33506Y127116D01*
X33426Y127173D01*
X33351Y127235D01*
X33328Y127243D01*
X33307Y127258D01*
X33214Y127286D01*
X33123Y127321D01*
X33090Y127324D01*
X33074Y127329D01*
X33049Y127328D01*
X32976Y127335D01*
X20640Y127335D01*
X20509Y127314D01*
X20399Y127296D01*
X20291Y127238D01*
X20184Y127181D01*
X20090Y127080D01*
X20017Y127003D01*
X20017Y127002D01*
X19947Y126873D01*
X19260Y125213D01*
X16187Y122140D01*
X12173Y120477D01*
X7827Y120477D01*
X3813Y122140D01*
X1661Y124292D01*
X1601Y124335D01*
X1547Y124385D01*
X1503Y124406D01*
X1462Y124434D01*
X1392Y124456D01*
X1325Y124486D01*
X1276Y124491D01*
X1229Y124505D01*
X1156Y124503D01*
X1082Y124510D01*
X1034Y124499D01*
X985Y124497D01*
X916Y124471D01*
X845Y124455D01*
X803Y124429D01*
X757Y124411D01*
X700Y124365D01*
X637Y124326D01*
X606Y124288D01*
X568Y124257D01*
X529Y124194D01*
X482Y124138D01*
X465Y124092D01*
X439Y124050D01*
X422Y123978D01*
X396Y123909D01*
X389Y123836D01*
X383Y123812D01*
X385Y123795D01*
X382Y123762D01*
X382Y113638D01*
X394Y113565D01*
X396Y113492D01*
X413Y113446D01*
X421Y113397D01*
X456Y113332D01*
X482Y113263D01*
X513Y113225D01*
X536Y113182D01*
X590Y113131D01*
X637Y113075D01*
X679Y113049D01*
X714Y113015D01*
X781Y112984D01*
X844Y112946D01*
X892Y112934D01*
X937Y112914D01*
X1010Y112907D01*
X1081Y112890D01*
X1130Y112895D01*
X1180Y112890D01*
X1251Y112907D01*
X1324Y112914D01*
X1369Y112934D01*
X1417Y112945D01*
X1480Y112984D01*
X1547Y113014D01*
X1603Y113061D01*
X1625Y113074D01*
X1635Y113087D01*
X1661Y113108D01*
X3813Y115260D01*
X7827Y116923D01*
X12173Y116923D01*
X16187Y115260D01*
X19260Y112187D01*
X20923Y108173D01*
X20923Y103827D01*
X19260Y99813D01*
X16187Y96740D01*
X12173Y95077D01*
X7827Y95077D01*
X3813Y96740D01*
X1661Y98892D01*
X1601Y98935D01*
X1547Y98985D01*
X1503Y99006D01*
X1462Y99034D01*
X1392Y99056D01*
X1325Y99086D01*
X1276Y99091D01*
X1229Y99105D01*
X1156Y99103D01*
X1082Y99110D01*
X1034Y99099D01*
X985Y99097D01*
X916Y99071D01*
X845Y99055D01*
X803Y99029D01*
X757Y99011D01*
X700Y98965D01*
X637Y98926D01*
X606Y98888D01*
X568Y98857D01*
X529Y98794D01*
X482Y98738D01*
X465Y98692D01*
X439Y98650D01*
X422Y98578D01*
X396Y98509D01*
X389Y98436D01*
X383Y98412D01*
X385Y98395D01*
X382Y98362D01*
X382Y24134D01*
X392Y24071D01*
X393Y24007D01*
X412Y23951D01*
X421Y23893D01*
X452Y23836D01*
X464Y23800D01*
X385Y22926D01*
X386Y22904D01*
X382Y22858D01*
X382Y21839D01*
X381Y21836D01*
X377Y21802D01*
X372Y21786D01*
X373Y21761D01*
X366Y21689D01*
X359Y19401D01*
X363Y19377D01*
X360Y19352D01*
X384Y19206D01*
X2082Y12818D01*
X2105Y12766D01*
X2119Y12710D01*
X2175Y12611D01*
X2182Y12596D01*
X2186Y12591D01*
X2192Y12581D01*
X5979Y7164D01*
X6020Y7123D01*
X6052Y7076D01*
X6138Y7002D01*
X6150Y6990D01*
X6156Y6987D01*
X6164Y6979D01*
X11581Y3192D01*
X11633Y3167D01*
X11680Y3134D01*
X11786Y3094D01*
X11801Y3086D01*
X11808Y3086D01*
X11818Y3082D01*
X18206Y1384D01*
X18231Y1381D01*
X18254Y1373D01*
X18401Y1359D01*
X19686Y1363D01*
G37*
G36*
X142587Y87254D02*
X142587Y87254D01*
X142636Y87256D01*
X142705Y87282D01*
X142776Y87298D01*
X142818Y87324D01*
X142864Y87342D01*
X142921Y87388D01*
X142984Y87427D01*
X143015Y87465D01*
X143053Y87496D01*
X143092Y87559D01*
X143139Y87616D01*
X143156Y87662D01*
X143182Y87704D01*
X143199Y87775D01*
X143225Y87844D01*
X143232Y87917D01*
X143238Y87941D01*
X143236Y87958D01*
X143239Y87991D01*
X143239Y159306D01*
X143241Y159309D01*
X143244Y159342D01*
X143249Y159358D01*
X143248Y159383D01*
X143255Y159456D01*
X143255Y179942D01*
X145856Y182542D01*
X145856Y182543D01*
X154450Y191137D01*
X154498Y191204D01*
X154543Y191252D01*
X154551Y191270D01*
X154569Y191291D01*
X154577Y191315D01*
X154592Y191335D01*
X154594Y191343D01*
X165724Y202472D01*
X165781Y202552D01*
X165843Y202627D01*
X165851Y202650D01*
X165866Y202671D01*
X165894Y202764D01*
X165929Y202855D01*
X165932Y202888D01*
X165937Y202904D01*
X165936Y202929D01*
X165943Y203002D01*
X165943Y204095D01*
X167166Y205317D01*
X167223Y205397D01*
X167285Y205472D01*
X167293Y205495D01*
X167308Y205515D01*
X167336Y205609D01*
X167371Y205700D01*
X167374Y205733D01*
X167379Y205749D01*
X167378Y205774D01*
X167385Y205847D01*
X167385Y262166D01*
X167369Y262262D01*
X167360Y262359D01*
X167350Y262382D01*
X167346Y262407D01*
X167300Y262493D01*
X167259Y262582D01*
X167238Y262607D01*
X167231Y262622D01*
X167212Y262639D01*
X167166Y262696D01*
X135696Y294166D01*
X135616Y294223D01*
X135541Y294285D01*
X135518Y294293D01*
X135497Y294308D01*
X135404Y294336D01*
X135313Y294371D01*
X135280Y294374D01*
X135264Y294379D01*
X135239Y294378D01*
X135166Y294385D01*
X91765Y294385D01*
X91692Y294373D01*
X91619Y294371D01*
X91573Y294354D01*
X91524Y294346D01*
X91459Y294311D01*
X91391Y294285D01*
X91352Y294254D01*
X91309Y294231D01*
X91259Y294177D01*
X91202Y294130D01*
X91176Y294088D01*
X91142Y294053D01*
X91112Y293986D01*
X91073Y293923D01*
X91062Y293875D01*
X91041Y293830D01*
X91034Y293757D01*
X91017Y293686D01*
X91022Y293637D01*
X91017Y293587D01*
X91034Y293516D01*
X91041Y293443D01*
X91061Y293398D01*
X91072Y293350D01*
X91111Y293287D01*
X91141Y293220D01*
X91188Y293164D01*
X91201Y293142D01*
X91214Y293132D01*
X91235Y293106D01*
X91417Y292925D01*
X91417Y288735D01*
X89104Y286423D01*
X89047Y286343D01*
X88985Y286268D01*
X88977Y286245D01*
X88962Y286225D01*
X88934Y286131D01*
X88899Y286040D01*
X88896Y286007D01*
X88891Y285991D01*
X88892Y285966D01*
X88885Y285893D01*
X88885Y284704D01*
X84836Y280656D01*
X84793Y280596D01*
X84743Y280542D01*
X84723Y280498D01*
X84694Y280457D01*
X84673Y280387D01*
X84642Y280320D01*
X84638Y280271D01*
X84623Y280224D01*
X84626Y280151D01*
X84618Y280077D01*
X84630Y280029D01*
X84631Y279980D01*
X84657Y279911D01*
X84674Y279840D01*
X84700Y279798D01*
X84717Y279752D01*
X84764Y279695D01*
X84802Y279632D01*
X84840Y279601D01*
X84872Y279563D01*
X84934Y279524D01*
X84991Y279477D01*
X85037Y279460D01*
X85079Y279434D01*
X85150Y279417D01*
X85219Y279391D01*
X85292Y279384D01*
X85316Y279378D01*
X85333Y279380D01*
X85366Y279377D01*
X88455Y279377D01*
X91417Y276415D01*
X91417Y272225D01*
X88455Y269263D01*
X85184Y269263D01*
X85088Y269247D01*
X84991Y269238D01*
X84968Y269228D01*
X84943Y269224D01*
X84857Y269178D01*
X84769Y269137D01*
X84743Y269116D01*
X84728Y269109D01*
X84711Y269090D01*
X84654Y269044D01*
X82468Y266858D01*
X82411Y266778D01*
X82349Y266703D01*
X82341Y266680D01*
X82326Y266659D01*
X82298Y266566D01*
X82263Y266475D01*
X82260Y266442D01*
X82255Y266426D01*
X82256Y266401D01*
X82249Y266328D01*
X82249Y260626D01*
X82265Y260530D01*
X82274Y260433D01*
X82284Y260410D01*
X82288Y260385D01*
X82334Y260299D01*
X82375Y260210D01*
X82396Y260185D01*
X82403Y260170D01*
X82422Y260153D01*
X82468Y260096D01*
X91139Y251426D01*
X91139Y209584D01*
X83738Y202184D01*
X83681Y202105D01*
X83619Y202029D01*
X83611Y202006D01*
X83596Y201986D01*
X83568Y201892D01*
X83533Y201801D01*
X83530Y201768D01*
X83525Y201752D01*
X83526Y201727D01*
X83519Y201654D01*
X83519Y194079D01*
X83531Y194006D01*
X83533Y193933D01*
X83550Y193887D01*
X83558Y193838D01*
X83593Y193773D01*
X83619Y193705D01*
X83650Y193666D01*
X83673Y193623D01*
X83727Y193573D01*
X83774Y193516D01*
X83816Y193490D01*
X83851Y193456D01*
X83918Y193426D01*
X83981Y193387D01*
X84029Y193376D01*
X84074Y193355D01*
X84147Y193348D01*
X84218Y193331D01*
X84267Y193336D01*
X84317Y193331D01*
X84388Y193348D01*
X84461Y193355D01*
X84506Y193375D01*
X84554Y193386D01*
X84617Y193425D01*
X84684Y193455D01*
X84740Y193502D01*
X84762Y193515D01*
X84772Y193528D01*
X84798Y193549D01*
X86805Y195557D01*
X90995Y195557D01*
X93957Y192595D01*
X93957Y189324D01*
X93973Y189228D01*
X93982Y189131D01*
X93992Y189108D01*
X93996Y189083D01*
X94042Y188997D01*
X94083Y188909D01*
X94104Y188883D01*
X94111Y188868D01*
X94130Y188851D01*
X94176Y188794D01*
X94806Y188164D01*
X94886Y188107D01*
X94961Y188045D01*
X94984Y188037D01*
X95005Y188022D01*
X95098Y187994D01*
X95189Y187959D01*
X95222Y187956D01*
X95238Y187951D01*
X95263Y187952D01*
X95336Y187945D01*
X139614Y187945D01*
X139710Y187961D01*
X139807Y187970D01*
X139830Y187980D01*
X139855Y187984D01*
X139941Y188030D01*
X140029Y188071D01*
X140055Y188092D01*
X140070Y188099D01*
X140087Y188118D01*
X140144Y188164D01*
X150926Y198946D01*
X150983Y199026D01*
X151045Y199101D01*
X151053Y199124D01*
X151068Y199145D01*
X151096Y199238D01*
X151131Y199329D01*
X151134Y199362D01*
X151139Y199378D01*
X151138Y199403D01*
X151145Y199476D01*
X151145Y231283D01*
X151129Y231379D01*
X151120Y231476D01*
X151110Y231499D01*
X151106Y231524D01*
X151060Y231610D01*
X151019Y231699D01*
X150998Y231724D01*
X150991Y231739D01*
X150972Y231756D01*
X150926Y231813D01*
X148613Y234125D01*
X148613Y238315D01*
X151575Y241277D01*
X155765Y241277D01*
X158727Y238315D01*
X158727Y234125D01*
X156414Y231813D01*
X156357Y231733D01*
X156295Y231658D01*
X156287Y231635D01*
X156272Y231615D01*
X156244Y231521D01*
X156209Y231430D01*
X156206Y231397D01*
X156201Y231381D01*
X156202Y231356D01*
X156195Y231283D01*
X156195Y197074D01*
X142016Y182895D01*
X92934Y182895D01*
X90606Y185224D01*
X90526Y185281D01*
X90451Y185343D01*
X90428Y185351D01*
X90407Y185366D01*
X90314Y185394D01*
X90223Y185429D01*
X90190Y185432D01*
X90174Y185437D01*
X90149Y185436D01*
X90076Y185443D01*
X86805Y185443D01*
X84798Y187451D01*
X84738Y187494D01*
X84684Y187544D01*
X84640Y187564D01*
X84599Y187593D01*
X84529Y187614D01*
X84462Y187645D01*
X84413Y187650D01*
X84366Y187664D01*
X84293Y187662D01*
X84219Y187669D01*
X84171Y187658D01*
X84122Y187656D01*
X84053Y187630D01*
X83982Y187614D01*
X83940Y187588D01*
X83894Y187570D01*
X83837Y187524D01*
X83774Y187485D01*
X83743Y187447D01*
X83705Y187416D01*
X83666Y187353D01*
X83619Y187296D01*
X83602Y187250D01*
X83576Y187208D01*
X83559Y187137D01*
X83533Y187068D01*
X83526Y186995D01*
X83520Y186971D01*
X83522Y186954D01*
X83519Y186921D01*
X83519Y142235D01*
X75175Y133891D01*
X75118Y133812D01*
X75056Y133737D01*
X75047Y133713D01*
X75032Y133693D01*
X75004Y133599D01*
X74970Y133508D01*
X74966Y133475D01*
X74962Y133459D01*
X74962Y133434D01*
X74955Y133361D01*
X74955Y130091D01*
X71993Y127129D01*
X67804Y127129D01*
X64842Y130091D01*
X64842Y134280D01*
X66820Y136259D01*
X66835Y136279D01*
X66854Y136294D01*
X66906Y136378D01*
X66963Y136457D01*
X66970Y136481D01*
X66983Y136501D01*
X67005Y136597D01*
X67034Y136691D01*
X67033Y136715D01*
X67038Y136739D01*
X67029Y136836D01*
X67026Y136935D01*
X67017Y136957D01*
X67015Y136982D01*
X66974Y137071D01*
X66940Y137163D01*
X66924Y137182D01*
X66914Y137204D01*
X66821Y137318D01*
X64736Y139403D01*
X64736Y143592D01*
X67698Y146554D01*
X70969Y146554D01*
X71065Y146570D01*
X71162Y146579D01*
X71185Y146590D01*
X71210Y146594D01*
X71296Y146640D01*
X71384Y146680D01*
X71410Y146701D01*
X71425Y146709D01*
X71442Y146727D01*
X71499Y146773D01*
X74726Y150001D01*
X74783Y150080D01*
X74845Y150155D01*
X74853Y150179D01*
X74868Y150199D01*
X74896Y150292D01*
X74931Y150383D01*
X74934Y150416D01*
X74939Y150432D01*
X74938Y150457D01*
X74945Y150530D01*
X74945Y205516D01*
X82346Y212916D01*
X82403Y212996D01*
X82465Y213071D01*
X82473Y213094D01*
X82488Y213115D01*
X82516Y213208D01*
X82551Y213299D01*
X82554Y213332D01*
X82559Y213348D01*
X82558Y213373D01*
X82565Y213446D01*
X82565Y220925D01*
X82564Y220936D01*
X82564Y220938D01*
X82562Y220945D01*
X82553Y220998D01*
X82551Y221071D01*
X82534Y221117D01*
X82526Y221166D01*
X82491Y221231D01*
X82465Y221299D01*
X82434Y221338D01*
X82411Y221381D01*
X82357Y221431D01*
X82310Y221488D01*
X82269Y221514D01*
X82233Y221548D01*
X82166Y221578D01*
X82103Y221617D01*
X82055Y221628D01*
X82010Y221649D01*
X81937Y221656D01*
X81866Y221673D01*
X81817Y221668D01*
X81767Y221673D01*
X81696Y221656D01*
X81623Y221649D01*
X81578Y221629D01*
X81530Y221618D01*
X81467Y221579D01*
X81400Y221549D01*
X81344Y221502D01*
X81322Y221489D01*
X81312Y221476D01*
X81286Y221455D01*
X78295Y218463D01*
X74105Y218463D01*
X71793Y220776D01*
X71713Y220833D01*
X71638Y220895D01*
X71615Y220903D01*
X71595Y220918D01*
X71501Y220946D01*
X71410Y220981D01*
X71377Y220984D01*
X71361Y220989D01*
X71336Y220988D01*
X71263Y220995D01*
X33106Y220995D01*
X33010Y220979D01*
X32913Y220970D01*
X32890Y220960D01*
X32865Y220956D01*
X32779Y220910D01*
X32691Y220869D01*
X32665Y220848D01*
X32650Y220841D01*
X32633Y220822D01*
X32576Y220776D01*
X24666Y212866D01*
X24609Y212786D01*
X24547Y212711D01*
X24539Y212688D01*
X24524Y212667D01*
X24496Y212574D01*
X24461Y212483D01*
X24458Y212450D01*
X24453Y212434D01*
X24454Y212409D01*
X24447Y212336D01*
X24447Y193076D01*
X22748Y191378D01*
X19760Y188389D01*
X19674Y188270D01*
X19618Y188191D01*
X19579Y188064D01*
X19547Y187958D01*
X19547Y187957D01*
X19551Y187821D01*
X19554Y187714D01*
X19555Y187714D01*
X19555Y187713D01*
X19555Y187712D01*
X19597Y187573D01*
X20923Y184373D01*
X20923Y180027D01*
X19260Y176013D01*
X16187Y172940D01*
X12173Y171277D01*
X7827Y171277D01*
X3813Y172940D01*
X1661Y175092D01*
X1601Y175135D01*
X1547Y175185D01*
X1503Y175206D01*
X1462Y175234D01*
X1392Y175256D01*
X1325Y175286D01*
X1276Y175291D01*
X1229Y175305D01*
X1156Y175303D01*
X1082Y175310D01*
X1034Y175299D01*
X985Y175297D01*
X916Y175271D01*
X845Y175255D01*
X803Y175229D01*
X757Y175211D01*
X700Y175165D01*
X637Y175126D01*
X606Y175088D01*
X568Y175057D01*
X529Y174994D01*
X482Y174938D01*
X465Y174892D01*
X439Y174850D01*
X422Y174778D01*
X396Y174709D01*
X389Y174636D01*
X383Y174612D01*
X385Y174595D01*
X382Y174562D01*
X382Y164438D01*
X394Y164365D01*
X396Y164292D01*
X413Y164246D01*
X421Y164197D01*
X456Y164132D01*
X482Y164063D01*
X513Y164025D01*
X536Y163982D01*
X590Y163931D01*
X637Y163875D01*
X679Y163849D01*
X714Y163815D01*
X781Y163784D01*
X844Y163746D01*
X892Y163734D01*
X937Y163714D01*
X1010Y163707D01*
X1081Y163690D01*
X1130Y163695D01*
X1180Y163690D01*
X1251Y163707D01*
X1324Y163714D01*
X1369Y163734D01*
X1417Y163745D01*
X1480Y163784D01*
X1547Y163814D01*
X1603Y163861D01*
X1625Y163874D01*
X1635Y163887D01*
X1661Y163908D01*
X3813Y166060D01*
X7827Y167723D01*
X12173Y167723D01*
X16187Y166060D01*
X19260Y162987D01*
X20923Y158973D01*
X20923Y154627D01*
X19260Y150613D01*
X16187Y147540D01*
X12173Y145877D01*
X7827Y145877D01*
X3813Y147540D01*
X1661Y149692D01*
X1601Y149735D01*
X1547Y149785D01*
X1503Y149806D01*
X1462Y149834D01*
X1392Y149856D01*
X1325Y149886D01*
X1276Y149891D01*
X1229Y149905D01*
X1156Y149903D01*
X1082Y149910D01*
X1034Y149899D01*
X985Y149897D01*
X916Y149871D01*
X845Y149855D01*
X803Y149829D01*
X757Y149811D01*
X700Y149765D01*
X637Y149726D01*
X606Y149688D01*
X568Y149657D01*
X529Y149594D01*
X482Y149538D01*
X465Y149492D01*
X439Y149450D01*
X422Y149378D01*
X396Y149309D01*
X389Y149236D01*
X383Y149212D01*
X385Y149195D01*
X382Y149162D01*
X382Y139038D01*
X394Y138965D01*
X396Y138892D01*
X413Y138846D01*
X421Y138797D01*
X456Y138732D01*
X482Y138663D01*
X513Y138625D01*
X536Y138582D01*
X590Y138531D01*
X637Y138475D01*
X679Y138449D01*
X714Y138415D01*
X781Y138384D01*
X844Y138346D01*
X892Y138334D01*
X937Y138314D01*
X1010Y138307D01*
X1081Y138290D01*
X1130Y138295D01*
X1180Y138290D01*
X1251Y138307D01*
X1324Y138314D01*
X1369Y138334D01*
X1417Y138345D01*
X1480Y138384D01*
X1547Y138414D01*
X1603Y138461D01*
X1625Y138474D01*
X1635Y138487D01*
X1661Y138508D01*
X3813Y140660D01*
X7827Y142323D01*
X12173Y142323D01*
X16187Y140660D01*
X19260Y137587D01*
X19947Y135927D01*
X20002Y135839D01*
X20076Y135720D01*
X20168Y135645D01*
X20264Y135565D01*
X20265Y135565D01*
X20397Y135515D01*
X20493Y135479D01*
X20494Y135479D01*
X20640Y135465D01*
X36654Y135465D01*
X50994Y121124D01*
X52806Y119312D01*
X52866Y119269D01*
X52920Y119219D01*
X52964Y119199D01*
X53005Y119170D01*
X53075Y119149D01*
X53142Y119118D01*
X53191Y119113D01*
X53238Y119099D01*
X53311Y119102D01*
X53385Y119094D01*
X53433Y119105D01*
X53482Y119107D01*
X53551Y119133D01*
X53622Y119150D01*
X53664Y119176D01*
X53710Y119193D01*
X53767Y119239D01*
X53830Y119278D01*
X53861Y119316D01*
X53899Y119348D01*
X53938Y119410D01*
X53985Y119467D01*
X54002Y119513D01*
X54028Y119555D01*
X54045Y119626D01*
X54071Y119695D01*
X54078Y119768D01*
X54084Y119792D01*
X54082Y119809D01*
X54085Y119842D01*
X54085Y124872D01*
X54069Y124968D01*
X54060Y125065D01*
X54050Y125088D01*
X54046Y125113D01*
X54000Y125199D01*
X53959Y125288D01*
X53938Y125313D01*
X53931Y125328D01*
X53912Y125345D01*
X53866Y125402D01*
X50594Y128674D01*
X50514Y128731D01*
X50439Y128793D01*
X50416Y128801D01*
X50395Y128816D01*
X50302Y128844D01*
X50211Y128879D01*
X50178Y128882D01*
X50162Y128887D01*
X50137Y128886D01*
X50064Y128893D01*
X47175Y128893D01*
X44213Y131855D01*
X44213Y136045D01*
X47175Y139007D01*
X51365Y139007D01*
X52039Y138332D01*
X52099Y138289D01*
X52152Y138239D01*
X52197Y138219D01*
X52237Y138190D01*
X52308Y138169D01*
X52375Y138138D01*
X52424Y138133D01*
X52471Y138119D01*
X52544Y138121D01*
X52617Y138114D01*
X52666Y138125D01*
X52715Y138127D01*
X52783Y138153D01*
X52855Y138169D01*
X52897Y138196D01*
X52943Y138213D01*
X53000Y138259D01*
X53062Y138298D01*
X53094Y138336D01*
X53132Y138368D01*
X53171Y138430D01*
X53217Y138487D01*
X53235Y138533D01*
X53261Y138575D01*
X53278Y138646D01*
X53304Y138715D01*
X53311Y138788D01*
X53317Y138812D01*
X53315Y138829D01*
X53318Y138862D01*
X53318Y148927D01*
X53314Y148951D01*
X53317Y148976D01*
X53294Y149071D01*
X53278Y149168D01*
X53267Y149189D01*
X53261Y149213D01*
X53210Y149297D01*
X53163Y149383D01*
X53146Y149400D01*
X53133Y149421D01*
X53057Y149483D01*
X52985Y149550D01*
X52963Y149560D01*
X52944Y149575D01*
X52853Y149610D01*
X52763Y149651D01*
X52739Y149653D01*
X52716Y149662D01*
X52569Y149676D01*
X49676Y149676D01*
X46714Y152638D01*
X46714Y156828D01*
X49676Y159790D01*
X53865Y159790D01*
X56827Y156828D01*
X56827Y153557D01*
X56843Y153461D01*
X56852Y153364D01*
X56863Y153341D01*
X56867Y153316D01*
X56913Y153230D01*
X56953Y153142D01*
X56974Y153116D01*
X56982Y153101D01*
X57000Y153084D01*
X57047Y153027D01*
X58368Y151706D01*
X58368Y134343D01*
X58384Y134247D01*
X58393Y134150D01*
X58403Y134127D01*
X58407Y134102D01*
X58453Y134016D01*
X58493Y133927D01*
X58515Y133902D01*
X58522Y133887D01*
X58541Y133870D01*
X58587Y133813D01*
X67474Y124926D01*
X67553Y124869D01*
X67629Y124807D01*
X67652Y124799D01*
X67672Y124784D01*
X67766Y124756D01*
X67857Y124721D01*
X67890Y124718D01*
X67906Y124713D01*
X67931Y124714D01*
X68004Y124707D01*
X72095Y124707D01*
X75057Y121745D01*
X75057Y117555D01*
X72095Y114593D01*
X67905Y114593D01*
X64943Y117555D01*
X64943Y120006D01*
X64927Y120102D01*
X64918Y120199D01*
X64908Y120222D01*
X64904Y120246D01*
X64858Y120332D01*
X64817Y120421D01*
X64796Y120447D01*
X64789Y120462D01*
X64770Y120479D01*
X64724Y120535D01*
X60954Y124305D01*
X60894Y124348D01*
X60840Y124398D01*
X60796Y124419D01*
X60755Y124448D01*
X60685Y124469D01*
X60618Y124499D01*
X60569Y124504D01*
X60522Y124518D01*
X60449Y124516D01*
X60375Y124523D01*
X60327Y124512D01*
X60278Y124511D01*
X60209Y124485D01*
X60138Y124468D01*
X60096Y124442D01*
X60050Y124425D01*
X59993Y124378D01*
X59930Y124339D01*
X59899Y124301D01*
X59861Y124270D01*
X59822Y124208D01*
X59775Y124151D01*
X59758Y124105D01*
X59732Y124063D01*
X59715Y123991D01*
X59689Y123923D01*
X59682Y123849D01*
X59676Y123825D01*
X59678Y123809D01*
X59675Y123776D01*
X59675Y105878D01*
X59691Y105782D01*
X59700Y105685D01*
X59710Y105662D01*
X59714Y105637D01*
X59760Y105551D01*
X59801Y105462D01*
X59822Y105437D01*
X59829Y105422D01*
X59848Y105405D01*
X59894Y105348D01*
X66228Y99014D01*
X66308Y98957D01*
X66383Y98895D01*
X66406Y98887D01*
X66427Y98872D01*
X66520Y98844D01*
X66611Y98809D01*
X66644Y98806D01*
X66660Y98801D01*
X66685Y98802D01*
X66758Y98795D01*
X93333Y98795D01*
X93429Y98811D01*
X93526Y98820D01*
X93549Y98830D01*
X93574Y98834D01*
X93660Y98880D01*
X93749Y98921D01*
X93774Y98942D01*
X93789Y98949D01*
X93806Y98968D01*
X93863Y99014D01*
X94224Y99375D01*
X94281Y99454D01*
X94343Y99530D01*
X94351Y99553D01*
X94366Y99573D01*
X94394Y99667D01*
X94429Y99758D01*
X94432Y99791D01*
X94437Y99807D01*
X94436Y99832D01*
X94443Y99905D01*
X94443Y113473D01*
X103527Y122557D01*
X120095Y122557D01*
X120191Y122573D01*
X120288Y122582D01*
X120311Y122592D01*
X120336Y122596D01*
X120422Y122642D01*
X120511Y122683D01*
X120536Y122704D01*
X120551Y122711D01*
X120568Y122730D01*
X120625Y122776D01*
X121905Y124057D01*
X126095Y124057D01*
X128407Y121744D01*
X128486Y121687D01*
X128562Y121625D01*
X128585Y121617D01*
X128605Y121602D01*
X128699Y121574D01*
X128790Y121539D01*
X128823Y121536D01*
X128839Y121531D01*
X128864Y121532D01*
X128937Y121525D01*
X134506Y121525D01*
X141635Y114396D01*
X141635Y88097D01*
X141651Y88001D01*
X141660Y87904D01*
X141670Y87881D01*
X141674Y87856D01*
X141720Y87770D01*
X141760Y87681D01*
X141782Y87656D01*
X141789Y87641D01*
X141808Y87624D01*
X141854Y87567D01*
X141960Y87461D01*
X142020Y87418D01*
X142074Y87368D01*
X142118Y87348D01*
X142158Y87319D01*
X142229Y87298D01*
X142296Y87267D01*
X142345Y87262D01*
X142392Y87248D01*
X142465Y87250D01*
X142539Y87243D01*
X142587Y87254D01*
G37*
G36*
X126372Y49801D02*
X126372Y49801D01*
X126469Y49810D01*
X126492Y49820D01*
X126517Y49824D01*
X126603Y49870D01*
X126692Y49911D01*
X126717Y49932D01*
X126732Y49939D01*
X126749Y49958D01*
X126806Y50004D01*
X143020Y66218D01*
X143077Y66298D01*
X143139Y66373D01*
X143147Y66396D01*
X143162Y66417D01*
X143190Y66510D01*
X143225Y66601D01*
X143228Y66634D01*
X143233Y66650D01*
X143232Y66675D01*
X143239Y66748D01*
X143239Y78329D01*
X143227Y78402D01*
X143225Y78475D01*
X143208Y78521D01*
X143200Y78570D01*
X143165Y78635D01*
X143139Y78703D01*
X143108Y78742D01*
X143085Y78785D01*
X143031Y78835D01*
X142984Y78892D01*
X142942Y78918D01*
X142907Y78952D01*
X142840Y78982D01*
X142777Y79021D01*
X142729Y79032D01*
X142684Y79053D01*
X142611Y79060D01*
X142540Y79077D01*
X142491Y79072D01*
X142441Y79077D01*
X142370Y79060D01*
X142297Y79053D01*
X142252Y79033D01*
X142204Y79022D01*
X142141Y78983D01*
X142074Y78953D01*
X142018Y78906D01*
X141996Y78893D01*
X141986Y78880D01*
X141960Y78859D01*
X141205Y78103D01*
X137015Y78103D01*
X134053Y81065D01*
X134053Y85255D01*
X136366Y87567D01*
X136423Y87647D01*
X136485Y87722D01*
X136493Y87745D01*
X136508Y87765D01*
X136536Y87859D01*
X136571Y87950D01*
X136574Y87983D01*
X136579Y87999D01*
X136578Y88024D01*
X136585Y88097D01*
X136585Y111994D01*
X136569Y112090D01*
X136560Y112187D01*
X136550Y112210D01*
X136546Y112235D01*
X136500Y112321D01*
X136459Y112409D01*
X136438Y112435D01*
X136431Y112450D01*
X136412Y112467D01*
X136366Y112524D01*
X132634Y116256D01*
X132554Y116313D01*
X132479Y116375D01*
X132456Y116383D01*
X132435Y116398D01*
X132342Y116426D01*
X132251Y116461D01*
X132218Y116464D01*
X132202Y116469D01*
X132177Y116468D01*
X132104Y116475D01*
X128937Y116475D01*
X128841Y116459D01*
X128744Y116450D01*
X128721Y116440D01*
X128696Y116436D01*
X128610Y116390D01*
X128521Y116349D01*
X128496Y116328D01*
X128481Y116321D01*
X128464Y116302D01*
X128407Y116256D01*
X126095Y113943D01*
X121905Y113943D01*
X120625Y115224D01*
X120545Y115281D01*
X120470Y115343D01*
X120447Y115351D01*
X120427Y115366D01*
X120333Y115394D01*
X120242Y115429D01*
X120209Y115432D01*
X120193Y115437D01*
X120168Y115436D01*
X120095Y115443D01*
X106784Y115443D01*
X106687Y115427D01*
X106590Y115418D01*
X106568Y115408D01*
X106543Y115404D01*
X106457Y115358D01*
X106368Y115317D01*
X106342Y115296D01*
X106328Y115289D01*
X106311Y115270D01*
X106254Y115224D01*
X101776Y110746D01*
X101719Y110667D01*
X101657Y110592D01*
X101649Y110568D01*
X101634Y110548D01*
X101606Y110455D01*
X101571Y110363D01*
X101568Y110330D01*
X101563Y110314D01*
X101564Y110289D01*
X101557Y110216D01*
X101557Y99905D01*
X101573Y99809D01*
X101582Y99712D01*
X101592Y99689D01*
X101596Y99664D01*
X101642Y99578D01*
X101683Y99489D01*
X101704Y99464D01*
X101711Y99449D01*
X101730Y99432D01*
X101776Y99375D01*
X103057Y98095D01*
X103057Y93905D01*
X99955Y90804D01*
X99912Y90744D01*
X99862Y90690D01*
X99842Y90646D01*
X99813Y90605D01*
X99792Y90535D01*
X99761Y90468D01*
X99756Y90419D01*
X99742Y90372D01*
X99744Y90299D01*
X99737Y90225D01*
X99748Y90177D01*
X99750Y90128D01*
X99776Y90059D01*
X99792Y89988D01*
X99818Y89946D01*
X99836Y89900D01*
X99882Y89843D01*
X99921Y89780D01*
X99959Y89749D01*
X99990Y89711D01*
X100053Y89672D01*
X100110Y89625D01*
X100156Y89608D01*
X100198Y89582D01*
X100269Y89565D01*
X100338Y89539D01*
X100411Y89532D01*
X100435Y89526D01*
X100452Y89528D01*
X100485Y89525D01*
X103063Y89525D01*
X103159Y89541D01*
X103256Y89550D01*
X103279Y89560D01*
X103304Y89564D01*
X103390Y89610D01*
X103479Y89651D01*
X103504Y89672D01*
X103519Y89679D01*
X103536Y89698D01*
X103593Y89744D01*
X105905Y92057D01*
X110095Y92057D01*
X113057Y89095D01*
X113057Y84905D01*
X111179Y83028D01*
X111122Y82948D01*
X111060Y82873D01*
X111051Y82849D01*
X111037Y82829D01*
X111008Y82736D01*
X110974Y82644D01*
X110973Y82620D01*
X110966Y82596D01*
X110969Y82498D01*
X110966Y82401D01*
X110973Y82377D01*
X110974Y82352D01*
X111008Y82261D01*
X111036Y82167D01*
X111051Y82147D01*
X111060Y82123D01*
X111122Y82048D01*
X111178Y81969D01*
X111204Y81948D01*
X111214Y81935D01*
X111235Y81922D01*
X111292Y81875D01*
X112511Y81061D01*
X113671Y79900D01*
X114583Y78536D01*
X115211Y77020D01*
X115531Y75411D01*
X115531Y70299D01*
X107950Y70299D01*
X107926Y70295D01*
X107902Y70298D01*
X107806Y70275D01*
X107709Y70259D01*
X107688Y70248D01*
X107664Y70242D01*
X107581Y70191D01*
X107494Y70144D01*
X107477Y70127D01*
X107457Y70114D01*
X107394Y70038D01*
X107327Y69966D01*
X107317Y69944D01*
X107302Y69925D01*
X107267Y69834D01*
X107227Y69744D01*
X107224Y69720D01*
X107215Y69697D01*
X107201Y69550D01*
X107201Y68799D01*
X107199Y68799D01*
X107199Y69550D01*
X107196Y69571D01*
X107198Y69589D01*
X107197Y69592D01*
X107198Y69598D01*
X107175Y69694D01*
X107159Y69791D01*
X107148Y69812D01*
X107142Y69836D01*
X107091Y69920D01*
X107044Y70006D01*
X107027Y70023D01*
X107014Y70043D01*
X106938Y70106D01*
X106866Y70173D01*
X106844Y70183D01*
X106825Y70198D01*
X106733Y70233D01*
X106644Y70274D01*
X106620Y70276D01*
X106597Y70285D01*
X106450Y70299D01*
X98869Y70299D01*
X98869Y75411D01*
X99189Y77020D01*
X99817Y78536D01*
X100037Y78864D01*
X100537Y79613D01*
X100537Y79614D01*
X100729Y79900D01*
X101890Y81061D01*
X103254Y81973D01*
X104072Y82311D01*
X104114Y82337D01*
X104160Y82355D01*
X104217Y82401D01*
X104279Y82440D01*
X104310Y82478D01*
X104348Y82509D01*
X104387Y82572D01*
X104434Y82629D01*
X104451Y82675D01*
X104477Y82716D01*
X104494Y82788D01*
X104520Y82857D01*
X104522Y82906D01*
X104533Y82954D01*
X104526Y83027D01*
X104528Y83101D01*
X104514Y83148D01*
X104509Y83197D01*
X104479Y83264D01*
X104458Y83335D01*
X104429Y83375D01*
X104409Y83419D01*
X104316Y83533D01*
X104315Y83533D01*
X104315Y83534D01*
X103593Y84256D01*
X103513Y84313D01*
X103438Y84375D01*
X103415Y84383D01*
X103395Y84398D01*
X103301Y84426D01*
X103210Y84461D01*
X103177Y84464D01*
X103161Y84469D01*
X103136Y84468D01*
X103063Y84475D01*
X90356Y84475D01*
X90260Y84459D01*
X90163Y84450D01*
X90140Y84440D01*
X90115Y84436D01*
X90029Y84390D01*
X89941Y84349D01*
X89915Y84328D01*
X89900Y84321D01*
X89883Y84302D01*
X89826Y84256D01*
X84744Y79174D01*
X84687Y79094D01*
X84625Y79019D01*
X84617Y78996D01*
X84602Y78975D01*
X84574Y78882D01*
X84539Y78791D01*
X84536Y78758D01*
X84531Y78742D01*
X84532Y78717D01*
X84525Y78644D01*
X84525Y57954D01*
X83276Y56706D01*
X83219Y56626D01*
X83157Y56551D01*
X83149Y56528D01*
X83134Y56507D01*
X83106Y56414D01*
X83071Y56323D01*
X83068Y56290D01*
X83063Y56274D01*
X83064Y56249D01*
X83057Y56176D01*
X83057Y52905D01*
X81215Y51064D01*
X81172Y51004D01*
X81122Y50950D01*
X81102Y50906D01*
X81073Y50865D01*
X81052Y50795D01*
X81021Y50728D01*
X81016Y50679D01*
X81002Y50632D01*
X81004Y50559D01*
X80997Y50485D01*
X81008Y50437D01*
X81010Y50388D01*
X81036Y50319D01*
X81052Y50248D01*
X81078Y50206D01*
X81096Y50160D01*
X81142Y50103D01*
X81181Y50040D01*
X81219Y50009D01*
X81250Y49971D01*
X81313Y49932D01*
X81370Y49885D01*
X81416Y49868D01*
X81458Y49842D01*
X81529Y49825D01*
X81598Y49799D01*
X81671Y49792D01*
X81695Y49786D01*
X81712Y49788D01*
X81745Y49785D01*
X126276Y49785D01*
X126372Y49801D01*
G37*
%LPC*%
G36*
X162954Y34475D02*
X162954Y34475D01*
X161256Y36174D01*
X157320Y40109D01*
X157300Y40124D01*
X157285Y40143D01*
X157214Y40186D01*
X157175Y40219D01*
X157159Y40225D01*
X157122Y40251D01*
X157098Y40259D01*
X157078Y40272D01*
X156982Y40294D01*
X156952Y40303D01*
X156946Y40305D01*
X156944Y40305D01*
X156888Y40322D01*
X156864Y40322D01*
X156840Y40327D01*
X156743Y40318D01*
X156644Y40314D01*
X156622Y40306D01*
X156597Y40303D01*
X156548Y40281D01*
X156541Y40280D01*
X156515Y40266D01*
X156508Y40263D01*
X156416Y40229D01*
X156397Y40213D01*
X156375Y40203D01*
X156334Y40170D01*
X156325Y40165D01*
X156315Y40154D01*
X156261Y40109D01*
X154095Y37943D01*
X149905Y37943D01*
X146943Y40905D01*
X146943Y45095D01*
X149905Y48057D01*
X154095Y48057D01*
X156407Y45744D01*
X156487Y45687D01*
X156562Y45625D01*
X156585Y45617D01*
X156605Y45602D01*
X156699Y45574D01*
X156790Y45539D01*
X156823Y45536D01*
X156839Y45531D01*
X156864Y45532D01*
X156937Y45525D01*
X159046Y45525D01*
X164826Y39744D01*
X164906Y39687D01*
X164981Y39625D01*
X165004Y39617D01*
X165025Y39602D01*
X165118Y39574D01*
X165209Y39539D01*
X165242Y39536D01*
X165258Y39531D01*
X165283Y39532D01*
X165356Y39525D01*
X219644Y39525D01*
X219740Y39541D01*
X219837Y39550D01*
X219860Y39560D01*
X219885Y39564D01*
X219971Y39610D01*
X220059Y39651D01*
X220085Y39672D01*
X220100Y39679D01*
X220117Y39698D01*
X220174Y39744D01*
X223256Y42826D01*
X223307Y42897D01*
X223309Y42900D01*
X223311Y42903D01*
X223313Y42906D01*
X223375Y42981D01*
X223383Y43004D01*
X223398Y43025D01*
X223426Y43118D01*
X223461Y43209D01*
X223464Y43242D01*
X223469Y43258D01*
X223468Y43283D01*
X223475Y43356D01*
X223475Y79063D01*
X223459Y79159D01*
X223450Y79256D01*
X223440Y79279D01*
X223436Y79304D01*
X223390Y79390D01*
X223349Y79479D01*
X223328Y79504D01*
X223321Y79519D01*
X223302Y79536D01*
X223256Y79593D01*
X220943Y81905D01*
X220943Y86095D01*
X223905Y89057D01*
X228095Y89057D01*
X231057Y86095D01*
X231057Y81905D01*
X228744Y79593D01*
X228687Y79513D01*
X228625Y79438D01*
X228617Y79415D01*
X228602Y79395D01*
X228574Y79301D01*
X228539Y79210D01*
X228536Y79177D01*
X228531Y79161D01*
X228532Y79136D01*
X228525Y79063D01*
X228525Y40954D01*
X222046Y34475D01*
X162954Y34475D01*
G37*
%LPD*%
%LPC*%
G36*
X129985Y232433D02*
X129985Y232433D01*
X127023Y235395D01*
X127023Y239585D01*
X129066Y241627D01*
X129123Y241707D01*
X129185Y241782D01*
X129193Y241805D01*
X129208Y241825D01*
X129236Y241919D01*
X129271Y242010D01*
X129274Y242043D01*
X129279Y242059D01*
X129278Y242084D01*
X129285Y242157D01*
X129285Y258882D01*
X129269Y258978D01*
X129260Y259075D01*
X129250Y259098D01*
X129246Y259123D01*
X129200Y259209D01*
X129159Y259298D01*
X129138Y259323D01*
X129131Y259338D01*
X129112Y259355D01*
X129066Y259412D01*
X124792Y263686D01*
X124712Y263743D01*
X124637Y263805D01*
X124614Y263813D01*
X124593Y263828D01*
X124500Y263856D01*
X124409Y263891D01*
X124376Y263894D01*
X124360Y263899D01*
X124335Y263898D01*
X124262Y263905D01*
X101187Y263905D01*
X101091Y263889D01*
X100994Y263880D01*
X100971Y263870D01*
X100946Y263866D01*
X100860Y263820D01*
X100771Y263779D01*
X100746Y263758D01*
X100731Y263751D01*
X100714Y263732D01*
X100657Y263686D01*
X98615Y261643D01*
X94425Y261643D01*
X91463Y264605D01*
X91463Y268795D01*
X94425Y271757D01*
X98615Y271757D01*
X100657Y269714D01*
X100737Y269657D01*
X100812Y269595D01*
X100835Y269587D01*
X100855Y269572D01*
X100949Y269544D01*
X101040Y269509D01*
X101073Y269506D01*
X101089Y269501D01*
X101114Y269502D01*
X101187Y269495D01*
X126888Y269495D01*
X134875Y261508D01*
X134875Y242157D01*
X134891Y242061D01*
X134900Y241964D01*
X134910Y241941D01*
X134914Y241916D01*
X134960Y241830D01*
X135001Y241741D01*
X135022Y241716D01*
X135029Y241701D01*
X135048Y241684D01*
X135094Y241627D01*
X137137Y239585D01*
X137137Y235395D01*
X134175Y232433D01*
X129985Y232433D01*
G37*
%LPD*%
%LPC*%
G36*
X173618Y67075D02*
X173618Y67075D01*
X172725Y67968D01*
X172725Y94632D01*
X173618Y95525D01*
X187582Y95525D01*
X188475Y94632D01*
X188475Y67968D01*
X187582Y67075D01*
X173618Y67075D01*
G37*
%LPD*%
G36*
X225126Y127691D02*
X225126Y127691D01*
X225252Y127698D01*
X225298Y127711D01*
X225346Y127717D01*
X225465Y127759D01*
X225587Y127794D01*
X225629Y127818D01*
X225674Y127834D01*
X225781Y127903D01*
X225891Y127964D01*
X225937Y128004D01*
X225967Y128023D01*
X226001Y128058D01*
X226077Y128123D01*
X226377Y128423D01*
X226456Y128522D01*
X226540Y128616D01*
X226564Y128658D01*
X226594Y128696D01*
X226648Y128810D01*
X226709Y128921D01*
X226722Y128967D01*
X226743Y129011D01*
X226769Y129134D01*
X226804Y129256D01*
X226809Y129317D01*
X226816Y129352D01*
X226815Y129400D01*
X226823Y129500D01*
X226823Y145100D01*
X226809Y145226D01*
X226802Y145352D01*
X226789Y145398D01*
X226783Y145446D01*
X226741Y145565D01*
X226706Y145687D01*
X226682Y145729D01*
X226666Y145774D01*
X226597Y145881D01*
X226536Y145991D01*
X226496Y146037D01*
X226477Y146067D01*
X226442Y146101D01*
X226377Y146177D01*
X225677Y146877D01*
X225578Y146956D01*
X225484Y147040D01*
X225442Y147064D01*
X225404Y147094D01*
X225290Y147148D01*
X225179Y147209D01*
X225133Y147222D01*
X225089Y147243D01*
X224966Y147269D01*
X224844Y147304D01*
X224783Y147309D01*
X224748Y147316D01*
X224700Y147315D01*
X224600Y147323D01*
X216300Y147323D01*
X216274Y147320D01*
X216248Y147322D01*
X216101Y147300D01*
X215954Y147283D01*
X215929Y147275D01*
X215903Y147271D01*
X215765Y147216D01*
X215626Y147166D01*
X215604Y147152D01*
X215579Y147142D01*
X215458Y147057D01*
X215333Y146977D01*
X215315Y146958D01*
X215293Y146943D01*
X215194Y146833D01*
X215091Y146726D01*
X215077Y146704D01*
X215060Y146684D01*
X214988Y146554D01*
X214912Y146427D01*
X214904Y146402D01*
X214891Y146379D01*
X214851Y146236D01*
X214806Y146095D01*
X214804Y146069D01*
X214796Y146044D01*
X214777Y145800D01*
X214777Y129200D01*
X214780Y129174D01*
X214778Y129148D01*
X214800Y129001D01*
X214817Y128854D01*
X214825Y128829D01*
X214829Y128803D01*
X214884Y128665D01*
X214934Y128526D01*
X214948Y128504D01*
X214958Y128479D01*
X215043Y128358D01*
X215123Y128233D01*
X215142Y128215D01*
X215157Y128193D01*
X215267Y128094D01*
X215374Y127991D01*
X215396Y127977D01*
X215416Y127960D01*
X215546Y127888D01*
X215673Y127812D01*
X215698Y127804D01*
X215721Y127791D01*
X215864Y127751D01*
X216005Y127706D01*
X216031Y127704D01*
X216056Y127696D01*
X216300Y127677D01*
X225000Y127677D01*
X225126Y127691D01*
G37*
%LPC*%
G36*
X22299Y67301D02*
X22299Y67301D01*
X29131Y67301D01*
X29131Y67119D01*
X29143Y67046D01*
X29145Y66973D01*
X29162Y66927D01*
X29170Y66878D01*
X29205Y66813D01*
X29231Y66744D01*
X29262Y66706D01*
X29285Y66663D01*
X29339Y66613D01*
X29386Y66556D01*
X29428Y66530D01*
X29463Y66496D01*
X29530Y66466D01*
X29593Y66427D01*
X29641Y66416D01*
X29686Y66395D01*
X29759Y66388D01*
X29830Y66371D01*
X29879Y66376D01*
X29929Y66371D01*
X30000Y66388D01*
X30073Y66395D01*
X30118Y66415D01*
X30166Y66426D01*
X30229Y66465D01*
X30296Y66495D01*
X30352Y66542D01*
X30374Y66555D01*
X30384Y66568D01*
X30410Y66589D01*
X31984Y68163D01*
X34006Y69001D01*
X36194Y69001D01*
X38216Y68163D01*
X39763Y66616D01*
X40601Y64594D01*
X40601Y62406D01*
X39763Y60384D01*
X38216Y58837D01*
X36194Y57999D01*
X34006Y57999D01*
X31984Y58837D01*
X30437Y60384D01*
X30257Y60818D01*
X30244Y60839D01*
X30237Y60862D01*
X30180Y60942D01*
X30128Y61025D01*
X30109Y61041D01*
X30095Y61061D01*
X30015Y61118D01*
X29940Y61180D01*
X29916Y61189D01*
X29896Y61203D01*
X29803Y61231D01*
X29711Y61266D01*
X29687Y61267D01*
X29663Y61274D01*
X29565Y61271D01*
X29467Y61274D01*
X29444Y61267D01*
X29419Y61266D01*
X29328Y61232D01*
X29234Y61203D01*
X29214Y61189D01*
X29191Y61180D01*
X29115Y61118D01*
X29035Y61061D01*
X29021Y61041D01*
X29002Y61026D01*
X28950Y60943D01*
X28893Y60863D01*
X28886Y60840D01*
X28873Y60819D01*
X28830Y60677D01*
X28811Y60580D01*
X28183Y59064D01*
X27952Y58718D01*
X27451Y57969D01*
X27271Y57700D01*
X26110Y56539D01*
X24746Y55627D01*
X23230Y54999D01*
X22299Y54814D01*
X22299Y67301D01*
G37*
%LPD*%
%LPC*%
G36*
X104770Y54999D02*
X104770Y54999D01*
X103254Y55627D01*
X101890Y56539D01*
X100729Y57700D01*
X99817Y59064D01*
X99189Y60580D01*
X99170Y60677D01*
X99161Y60700D01*
X99159Y60725D01*
X99119Y60814D01*
X99084Y60906D01*
X99069Y60925D01*
X99058Y60947D01*
X98991Y61019D01*
X98929Y61094D01*
X98909Y61107D01*
X98892Y61125D01*
X98805Y61172D01*
X98722Y61223D01*
X98698Y61229D01*
X98676Y61241D01*
X98580Y61257D01*
X98485Y61279D01*
X98460Y61276D01*
X98436Y61280D01*
X98339Y61265D01*
X98242Y61255D01*
X98219Y61245D01*
X98195Y61241D01*
X98109Y61195D01*
X98019Y61155D01*
X98001Y61138D01*
X97980Y61126D01*
X97913Y61055D01*
X97841Y60988D01*
X97830Y60966D01*
X97813Y60948D01*
X97743Y60818D01*
X97563Y60384D01*
X96016Y58837D01*
X93994Y57999D01*
X91806Y57999D01*
X89784Y58837D01*
X88237Y60384D01*
X87399Y62406D01*
X87399Y64594D01*
X88237Y66616D01*
X89784Y68163D01*
X91806Y69001D01*
X93994Y69001D01*
X96016Y68163D01*
X97590Y66589D01*
X97650Y66546D01*
X97704Y66496D01*
X97748Y66476D01*
X97789Y66447D01*
X97859Y66425D01*
X97926Y66395D01*
X97975Y66390D01*
X98022Y66376D01*
X98095Y66378D01*
X98169Y66371D01*
X98217Y66382D01*
X98266Y66384D01*
X98335Y66410D01*
X98406Y66426D01*
X98448Y66452D01*
X98494Y66470D01*
X98551Y66516D01*
X98614Y66555D01*
X98645Y66593D01*
X98683Y66624D01*
X98722Y66687D01*
X98769Y66744D01*
X98786Y66790D01*
X98812Y66832D01*
X98829Y66903D01*
X98855Y66972D01*
X98862Y67045D01*
X98868Y67069D01*
X98866Y67086D01*
X98869Y67119D01*
X98869Y67301D01*
X105701Y67301D01*
X105701Y54814D01*
X104770Y54999D01*
G37*
%LPD*%
%LPC*%
G36*
X204899Y82699D02*
X204899Y82699D01*
X204899Y96441D01*
X210084Y96441D01*
X210731Y96268D01*
X211310Y95933D01*
X211783Y95460D01*
X212118Y94881D01*
X212291Y94234D01*
X212291Y82699D01*
X204899Y82699D01*
G37*
%LPD*%
%LPC*%
G36*
X204899Y65959D02*
X204899Y65959D01*
X204899Y79701D01*
X212291Y79701D01*
X212291Y68166D01*
X212118Y67519D01*
X211783Y66940D01*
X211310Y66467D01*
X210731Y66132D01*
X210084Y65959D01*
X204899Y65959D01*
G37*
%LPD*%
%LPC*%
G36*
X194509Y82699D02*
X194509Y82699D01*
X194509Y94234D01*
X194682Y94881D01*
X195017Y95460D01*
X195490Y95933D01*
X196069Y96268D01*
X196716Y96441D01*
X201901Y96441D01*
X201901Y82699D01*
X194509Y82699D01*
G37*
%LPD*%
%LPC*%
G36*
X196716Y65959D02*
X196716Y65959D01*
X196069Y66132D01*
X195490Y66467D01*
X195017Y66940D01*
X194682Y67519D01*
X194509Y68166D01*
X194509Y79701D01*
X201901Y79701D01*
X201901Y65959D01*
X196716Y65959D01*
G37*
%LPD*%
%LPC*%
G36*
X227150Y158299D02*
X227150Y158299D01*
X227355Y159596D01*
X227936Y161383D01*
X228789Y163057D01*
X229894Y164577D01*
X231223Y165906D01*
X232743Y167011D01*
X234417Y167864D01*
X236204Y168445D01*
X237501Y168650D01*
X237501Y158299D01*
X227150Y158299D01*
G37*
%LPD*%
%LPC*%
G36*
X227150Y107499D02*
X227150Y107499D01*
X227355Y108796D01*
X227936Y110583D01*
X228789Y112257D01*
X229894Y113777D01*
X231223Y115106D01*
X232743Y116211D01*
X234417Y117064D01*
X236204Y117645D01*
X237501Y117850D01*
X237501Y107499D01*
X227150Y107499D01*
G37*
%LPD*%
%LPC*%
G36*
X236204Y94355D02*
X236204Y94355D01*
X234417Y94936D01*
X232743Y95789D01*
X231223Y96894D01*
X229894Y98223D01*
X228789Y99743D01*
X227936Y101417D01*
X227355Y103204D01*
X227150Y104501D01*
X237501Y104501D01*
X237501Y94150D01*
X236204Y94355D01*
G37*
%LPD*%
%LPC*%
G36*
X22299Y70299D02*
X22299Y70299D01*
X22299Y82786D01*
X23230Y82601D01*
X24746Y81973D01*
X26110Y81061D01*
X27271Y79900D01*
X28183Y78536D01*
X28811Y77020D01*
X29131Y75411D01*
X29131Y70299D01*
X22299Y70299D01*
G37*
%LPD*%
%LPC*%
G36*
X22299Y28499D02*
X22299Y28499D01*
X22299Y40986D01*
X23230Y40801D01*
X24746Y40173D01*
X26110Y39261D01*
X27271Y38100D01*
X28183Y36736D01*
X28811Y35220D01*
X29131Y33611D01*
X29131Y28499D01*
X22299Y28499D01*
G37*
%LPD*%
%LPC*%
G36*
X108699Y67301D02*
X108699Y67301D01*
X115531Y67301D01*
X115531Y62189D01*
X115211Y60580D01*
X114583Y59064D01*
X114352Y58718D01*
X113851Y57969D01*
X113671Y57700D01*
X112510Y56539D01*
X111146Y55627D01*
X109630Y54999D01*
X108699Y54814D01*
X108699Y67301D01*
G37*
%LPD*%
%LPC*%
G36*
X108699Y25501D02*
X108699Y25501D01*
X115531Y25501D01*
X115531Y20389D01*
X115211Y18780D01*
X114583Y17264D01*
X114246Y16760D01*
X113746Y16011D01*
X113745Y16011D01*
X113671Y15900D01*
X112510Y14739D01*
X111146Y13827D01*
X109630Y13199D01*
X108699Y13014D01*
X108699Y25501D01*
G37*
%LPD*%
%LPC*%
G36*
X22299Y25501D02*
X22299Y25501D01*
X29131Y25501D01*
X29131Y20389D01*
X28811Y18780D01*
X28183Y17264D01*
X27846Y16760D01*
X27346Y16011D01*
X27345Y16011D01*
X27271Y15900D01*
X26110Y14739D01*
X24746Y13827D01*
X23230Y13199D01*
X22299Y13014D01*
X22299Y25501D01*
G37*
%LPD*%
%LPC*%
G36*
X12469Y70299D02*
X12469Y70299D01*
X12469Y75411D01*
X12789Y77020D01*
X13417Y78536D01*
X13637Y78864D01*
X14137Y79613D01*
X14137Y79614D01*
X14329Y79900D01*
X15490Y81061D01*
X16854Y81973D01*
X18370Y82601D01*
X19301Y82786D01*
X19301Y70299D01*
X12469Y70299D01*
G37*
%LPD*%
%LPC*%
G36*
X12469Y28499D02*
X12469Y28499D01*
X12469Y33611D01*
X12789Y35220D01*
X13417Y36736D01*
X13531Y36906D01*
X14032Y37655D01*
X14032Y37656D01*
X14329Y38100D01*
X15490Y39261D01*
X16854Y40173D01*
X18370Y40801D01*
X19301Y40986D01*
X19301Y28499D01*
X12469Y28499D01*
G37*
%LPD*%
%LPC*%
G36*
X18370Y54999D02*
X18370Y54999D01*
X16854Y55627D01*
X15490Y56539D01*
X14329Y57700D01*
X13417Y59064D01*
X12789Y60580D01*
X12469Y62189D01*
X12469Y67301D01*
X19301Y67301D01*
X19301Y54814D01*
X18370Y54999D01*
G37*
%LPD*%
%LPC*%
G36*
X18370Y13199D02*
X18370Y13199D01*
X16854Y13827D01*
X15490Y14739D01*
X14329Y15900D01*
X13417Y17264D01*
X12789Y18780D01*
X12469Y20389D01*
X12469Y25501D01*
X19301Y25501D01*
X19301Y13014D01*
X18370Y13199D01*
G37*
%LPD*%
%LPC*%
G36*
X104770Y13199D02*
X104770Y13199D01*
X103254Y13827D01*
X101890Y14739D01*
X100729Y15900D01*
X99817Y17264D01*
X99189Y18780D01*
X98869Y20389D01*
X98869Y25501D01*
X105701Y25501D01*
X105701Y13014D01*
X104770Y13199D01*
G37*
%LPD*%
%LPC*%
G36*
X20799Y68799D02*
X20799Y68799D01*
X20799Y68801D01*
X20801Y68801D01*
X20801Y68799D01*
X20799Y68799D01*
G37*
%LPD*%
%LPC*%
G36*
X20799Y26999D02*
X20799Y26999D01*
X20799Y27001D01*
X20801Y27001D01*
X20801Y26999D01*
X20799Y26999D01*
G37*
%LPD*%
%LPC*%
G36*
X203399Y81199D02*
X203399Y81199D01*
X203399Y81201D01*
X203401Y81201D01*
X203401Y81199D01*
X203399Y81199D01*
G37*
%LPD*%
D10*
X20800Y63010D02*
X20800Y74590D01*
X107200Y74590D02*
X107200Y63010D01*
X20800Y32790D02*
X20800Y21210D01*
X107200Y21210D02*
X107200Y32790D01*
D11*
X10000Y106000D03*
X10000Y131400D03*
X10000Y156800D03*
X10000Y182200D03*
X10000Y207600D03*
X10000Y233000D03*
X10000Y258400D03*
X10000Y283800D03*
X10000Y309200D03*
X10000Y334600D03*
X10000Y360000D03*
X10000Y385400D03*
X10000Y410800D03*
X10000Y436200D03*
X10000Y461600D03*
X10000Y487000D03*
X239000Y106000D03*
X239000Y131400D03*
X239000Y156800D03*
X239000Y182200D03*
X239000Y207600D03*
X239000Y233000D03*
X239000Y258400D03*
X239000Y283800D03*
X239000Y309200D03*
X239000Y334600D03*
X239000Y360000D03*
X239000Y385400D03*
X239000Y410800D03*
X239000Y436200D03*
X239000Y461600D03*
X239000Y487000D03*
D12*
X203400Y81200D03*
X180600Y81300D03*
D13*
X67000Y110000D03*
X158000Y30000D03*
X158000Y7000D03*
X226000Y30000D03*
X226000Y7000D03*
X35000Y115000D03*
X43000Y27000D03*
X85000Y27000D03*
X5000Y51000D03*
X5000Y36000D03*
X5000Y21000D03*
X243000Y54000D03*
X243000Y38000D03*
X243000Y24000D03*
X243000Y71000D03*
X181000Y133000D03*
X13000Y9000D03*
X27000Y6000D03*
X40000Y6000D03*
X54000Y6000D03*
X68000Y6000D03*
X82000Y6000D03*
X98000Y6000D03*
X114000Y6000D03*
X174000Y6000D03*
X192000Y6000D03*
X210000Y6000D03*
X240000Y10000D03*
X5000Y65000D03*
X209550Y199390D03*
X196600Y156100D03*
X172000Y164800D03*
X154900Y154300D03*
X201930Y90170D03*
X201930Y81280D03*
X201930Y72390D03*
X222910Y111410D03*
X222910Y103790D03*
X115320Y229760D03*
X39120Y505350D03*
X61980Y505350D03*
X86110Y505350D03*
X110240Y505350D03*
X135640Y505350D03*
X163580Y505350D03*
X192790Y505350D03*
X35310Y270400D03*
X44200Y262780D03*
X23880Y495190D03*
X74680Y492650D03*
X100080Y492650D03*
X125480Y492650D03*
X150880Y492650D03*
X176280Y492650D03*
X61980Y479950D03*
X87380Y479950D03*
X112780Y479950D03*
X138180Y479950D03*
X163580Y479950D03*
X192790Y479950D03*
X74680Y467250D03*
X100080Y467250D03*
X125480Y467250D03*
X150880Y467250D03*
X180090Y467250D03*
X205490Y467250D03*
X74680Y416450D03*
X100080Y416450D03*
X125480Y416450D03*
X150880Y416450D03*
X176280Y416450D03*
X87380Y391050D03*
X112780Y391050D03*
X138180Y391050D03*
X163580Y391050D03*
X188980Y391050D03*
X74680Y365650D03*
X100080Y365650D03*
X125480Y365650D03*
X150880Y365650D03*
X176280Y365650D03*
X87380Y340250D03*
X112780Y340250D03*
X138180Y340250D03*
X176280Y340250D03*
X51820Y467250D03*
X215650Y479950D03*
X51820Y492650D03*
X176280Y294530D03*
X208030Y237380D03*
X89450Y177500D03*
X161000Y84000D03*
X222500Y121600D03*
X217100Y145000D03*
X217400Y137500D03*
X217600Y129600D03*
X224500Y145100D03*
X224600Y137200D03*
X224700Y129500D03*
D14*
X224600Y137200D02*
X224600Y145000D01*
X224500Y145100D01*
X224600Y145000D02*
X217100Y145000D01*
X224600Y145000D02*
X224900Y144700D01*
X217400Y144700D02*
X217100Y145000D01*
X217400Y144700D02*
X217400Y137500D01*
X217600Y137200D02*
X224600Y137200D01*
X217600Y137300D02*
X217400Y137500D01*
X217600Y137300D02*
X217600Y137200D01*
X217600Y129600D01*
X217700Y129500D02*
X224700Y129500D01*
X217700Y129500D02*
X217600Y129600D01*
X224600Y133350D02*
X224600Y137200D01*
X224600Y133350D02*
X224600Y129600D01*
X224700Y129500D01*
X216300Y129300D02*
X216300Y145800D01*
X216300Y129300D02*
X216400Y129200D01*
X224200Y129200D01*
X224200Y144800D02*
X224500Y145100D01*
X224200Y144800D02*
X224200Y129200D01*
X224500Y145100D02*
X223800Y145800D01*
X216300Y145800D01*
D13*
X182200Y90200D03*
X182200Y81310D03*
X182200Y72420D03*
D15*
X182190Y81300D02*
X180600Y81300D01*
X182190Y81300D02*
X182200Y81310D01*
X182200Y82900D02*
X180600Y81300D01*
X182200Y82900D02*
X182200Y90200D01*
X180600Y81300D02*
X182200Y79700D01*
X182200Y72420D01*
D16*
X161000Y84000D02*
X161000Y112000D01*
X170600Y121600D01*
X218440Y121600D01*
X222500Y121600D01*
X232300Y131400D01*
X239000Y131400D01*
X217100Y122940D02*
X217100Y145000D01*
X217100Y122940D02*
X218440Y121600D01*
X238200Y131400D02*
X224500Y145100D01*
X238200Y131400D02*
X239000Y131400D01*
X226550Y131400D01*
X224600Y133350D01*
X217100Y145000D02*
X217900Y145800D01*
X223800Y145800D01*
D13*
X62000Y65000D03*
X75000Y64000D03*
D15*
X63000Y64000D01*
X62000Y65000D01*
D13*
X70000Y119650D03*
D15*
X69180Y119650D01*
X55843Y132987D01*
D13*
X51770Y154733D03*
D15*
X55843Y150660D01*
X55843Y132987D01*
D13*
X55880Y323850D03*
D15*
X22860Y245860D02*
X10000Y233000D01*
X22860Y308610D02*
X29210Y314960D01*
X46990Y314960D02*
X55880Y323850D01*
X46990Y314960D02*
X29210Y314960D01*
X22860Y308610D02*
X22860Y245860D01*
D13*
X55880Y311150D03*
D15*
X21922Y219522D02*
X10000Y207600D01*
X21922Y219522D02*
X21922Y239938D01*
X26384Y244400D02*
X26384Y306070D01*
X31464Y311150D01*
X55880Y311150D01*
X26384Y244400D02*
X21922Y239938D01*
X21922Y194122D02*
X10000Y182200D01*
X21922Y213692D02*
X31750Y223520D01*
X21922Y213692D02*
X21922Y194122D01*
D13*
X76200Y223520D03*
D15*
X31750Y223520D01*
D13*
X49270Y133950D03*
X124000Y119000D03*
X98000Y96000D03*
D17*
X98000Y112000D01*
X105000Y119000D02*
X124000Y119000D01*
X105000Y119000D02*
X98000Y112000D01*
D13*
X139110Y83160D03*
D15*
X139110Y113350D01*
X133460Y119000D01*
X124000Y119000D01*
D18*
X56880Y126340D02*
X49270Y133950D01*
X65290Y96000D02*
X98000Y96000D01*
X56880Y104410D02*
X56880Y126340D01*
X56880Y104410D02*
X65290Y96000D01*
D13*
X171000Y202000D03*
D15*
X171450Y202000D01*
D13*
X55880Y298450D03*
D19*
X137160Y298450D01*
X171450Y264160D01*
X171450Y202000D01*
X171000Y202000D02*
X171000Y201110D01*
X189910Y182200D02*
X239000Y182200D01*
X189910Y182200D02*
X171000Y201110D01*
X171000Y202000D02*
X171000Y200210D01*
X171000Y202000D02*
X158734Y189734D01*
X158734Y189672D01*
X147320Y178258D01*
X147320Y157462D02*
X147304Y157446D01*
X147304Y64754D01*
X128270Y45720D02*
X63500Y45720D01*
X147320Y157462D02*
X147320Y178258D01*
X147304Y64754D02*
X128270Y45720D01*
X34970Y131400D02*
X10000Y131400D01*
X49530Y59690D02*
X63500Y45720D01*
X49530Y116840D02*
X34970Y131400D01*
X49530Y116840D02*
X49530Y59690D01*
D13*
X78000Y55000D03*
D15*
X82000Y59000D01*
X82000Y80000D01*
X89000Y87000D01*
X108000Y87000D01*
D13*
X108000Y87000D03*
X152000Y43000D03*
X226000Y84000D03*
D15*
X158000Y43000D02*
X152000Y43000D01*
X158000Y43000D02*
X164000Y37000D01*
X221000Y37000D01*
X226000Y42000D01*
X226000Y84000D01*
D13*
X96520Y266700D03*
X132080Y237490D03*
D15*
X132080Y238760D01*
D18*
X125730Y266700D02*
X96520Y266700D01*
X125730Y266700D02*
X132080Y260350D01*
X132080Y238760D01*
D13*
X69793Y141497D03*
X86360Y290830D03*
D15*
X77470Y149174D02*
X69793Y141497D01*
X77470Y204470D02*
X85090Y212090D01*
X85090Y248920D01*
X76200Y257810D01*
X76200Y275590D01*
X86360Y285750D02*
X86360Y290830D01*
X86360Y285750D02*
X76200Y275590D01*
X77470Y204470D02*
X77470Y149174D01*
D13*
X69898Y132185D03*
X86360Y274320D03*
D15*
X79724Y267684D01*
X79724Y259270D01*
X88614Y250380D01*
X88614Y210630D01*
X80994Y143281D02*
X69898Y132185D01*
X80994Y143281D02*
X80994Y203010D01*
X88614Y210630D01*
D13*
X223520Y505460D03*
D15*
X224790Y504190D01*
D13*
X55880Y438150D03*
D15*
X214630Y438150D01*
X224790Y448310D02*
X224790Y504190D01*
X224790Y448310D02*
X214630Y438150D01*
D13*
X193040Y336550D03*
D15*
X220728Y336550D01*
X227078Y330200D01*
X239000Y266940D02*
X239000Y258400D01*
X239000Y266940D02*
X227078Y278862D01*
X227078Y330200D01*
D13*
X153670Y236220D03*
X88900Y190500D03*
D15*
X93980Y185420D02*
X140970Y185420D01*
X93980Y185420D02*
X88900Y190500D01*
X140970Y185420D02*
X153670Y198120D01*
X153670Y236220D01*
M02*
