G04 EAGLE Gerber RS-274X export*
G75*
%MOMM*%
%FSLAX34Y34*%
%LPD*%
%INBottom Copper*%
%IPPOS*%
%AMOC8*
5,1,8,0,0,1.08239X$1,22.5*%
G01*
%ADD10C,1.158000*%
%ADD11C,1.879600*%
%ADD12R,1.270000X2.540000*%
%ADD13C,0.706400*%
%ADD14C,0.508000*%
%ADD15C,0.304800*%
%ADD16C,0.200000*%
%ADD17C,0.406400*%

G36*
X20762Y176716D02*
X20762Y176716D01*
X20859Y176726D01*
X20882Y176736D01*
X20906Y176740D01*
X20992Y176786D01*
X21082Y176826D01*
X21107Y176847D01*
X21121Y176855D01*
X21139Y176873D01*
X21196Y176920D01*
X28410Y184134D01*
X30713Y186437D01*
X115056Y186437D01*
X115153Y186453D01*
X115250Y186462D01*
X115272Y186472D01*
X115297Y186476D01*
X115383Y186522D01*
X115472Y186563D01*
X115498Y186584D01*
X115512Y186591D01*
X115529Y186610D01*
X115586Y186656D01*
X125786Y196856D01*
X125829Y196916D01*
X125879Y196970D01*
X125900Y197014D01*
X125928Y197055D01*
X125950Y197125D01*
X125980Y197192D01*
X125985Y197241D01*
X125999Y197288D01*
X125997Y197361D01*
X126004Y197435D01*
X125993Y197483D01*
X125991Y197532D01*
X125966Y197601D01*
X125949Y197672D01*
X125923Y197714D01*
X125906Y197760D01*
X125859Y197817D01*
X125820Y197880D01*
X125782Y197911D01*
X125751Y197949D01*
X125688Y197988D01*
X125632Y198035D01*
X125586Y198052D01*
X125544Y198078D01*
X125472Y198095D01*
X125403Y198121D01*
X125330Y198128D01*
X125306Y198134D01*
X125290Y198132D01*
X125256Y198135D01*
X109077Y198135D01*
X108981Y198119D01*
X108884Y198110D01*
X108861Y198100D01*
X108836Y198096D01*
X108750Y198050D01*
X108661Y198009D01*
X108636Y197988D01*
X108621Y197981D01*
X108604Y197962D01*
X108547Y197916D01*
X106235Y195603D01*
X102045Y195603D01*
X99083Y198565D01*
X99083Y202755D01*
X102045Y205717D01*
X106235Y205717D01*
X108547Y203404D01*
X108626Y203347D01*
X108702Y203285D01*
X108725Y203277D01*
X108745Y203262D01*
X108839Y203234D01*
X108930Y203199D01*
X108963Y203196D01*
X108979Y203191D01*
X109004Y203192D01*
X109077Y203185D01*
X126821Y203185D01*
X126917Y203201D01*
X127014Y203210D01*
X127037Y203220D01*
X127061Y203224D01*
X127148Y203270D01*
X127236Y203311D01*
X127262Y203332D01*
X127277Y203339D01*
X127294Y203358D01*
X127350Y203404D01*
X132529Y208582D01*
X134227Y210281D01*
X146710Y210281D01*
X146806Y210297D01*
X146903Y210306D01*
X146926Y210316D01*
X146951Y210320D01*
X147037Y210366D01*
X147125Y210407D01*
X147151Y210428D01*
X147166Y210435D01*
X147183Y210454D01*
X147240Y210500D01*
X150926Y214186D01*
X150983Y214266D01*
X151045Y214341D01*
X151053Y214364D01*
X151068Y214385D01*
X151096Y214478D01*
X151131Y214569D01*
X151134Y214602D01*
X151139Y214618D01*
X151138Y214643D01*
X151145Y214716D01*
X151145Y231283D01*
X151129Y231379D01*
X151120Y231476D01*
X151110Y231499D01*
X151106Y231524D01*
X151060Y231610D01*
X151019Y231699D01*
X150998Y231724D01*
X150991Y231739D01*
X150972Y231756D01*
X150926Y231813D01*
X148613Y234125D01*
X148613Y238315D01*
X151575Y241277D01*
X155765Y241277D01*
X158727Y238315D01*
X158727Y234125D01*
X156414Y231813D01*
X156357Y231734D01*
X156295Y231658D01*
X156287Y231635D01*
X156272Y231615D01*
X156244Y231521D01*
X156209Y231430D01*
X156206Y231397D01*
X156201Y231381D01*
X156202Y231356D01*
X156195Y231283D01*
X156195Y212314D01*
X154496Y210616D01*
X151916Y208036D01*
X151874Y207976D01*
X151823Y207922D01*
X151803Y207878D01*
X151774Y207837D01*
X151753Y207767D01*
X151722Y207700D01*
X151718Y207651D01*
X151703Y207604D01*
X151706Y207531D01*
X151698Y207457D01*
X151710Y207409D01*
X151711Y207360D01*
X151737Y207291D01*
X151754Y207220D01*
X151780Y207178D01*
X151797Y207132D01*
X151844Y207075D01*
X151882Y207012D01*
X151920Y206981D01*
X151952Y206943D01*
X152014Y206904D01*
X152071Y206857D01*
X152117Y206840D01*
X152159Y206814D01*
X152230Y206797D01*
X152299Y206771D01*
X152372Y206764D01*
X152396Y206758D01*
X152413Y206760D01*
X152446Y206757D01*
X166636Y206757D01*
X166660Y206761D01*
X166685Y206758D01*
X166780Y206780D01*
X166877Y206796D01*
X166898Y206808D01*
X166922Y206814D01*
X167006Y206865D01*
X167092Y206911D01*
X167109Y206929D01*
X167130Y206942D01*
X167192Y207018D01*
X167259Y207089D01*
X167269Y207112D01*
X167285Y207131D01*
X167319Y207222D01*
X167360Y207312D01*
X167362Y207336D01*
X167371Y207359D01*
X167385Y207506D01*
X167385Y262166D01*
X167369Y262262D01*
X167360Y262359D01*
X167350Y262382D01*
X167346Y262407D01*
X167300Y262493D01*
X167259Y262582D01*
X167238Y262607D01*
X167231Y262622D01*
X167212Y262639D01*
X167166Y262696D01*
X135696Y294166D01*
X135616Y294223D01*
X135541Y294285D01*
X135518Y294293D01*
X135497Y294308D01*
X135404Y294336D01*
X135313Y294371D01*
X135280Y294374D01*
X135264Y294379D01*
X135239Y294378D01*
X135166Y294385D01*
X59277Y294385D01*
X59181Y294369D01*
X59084Y294360D01*
X59061Y294350D01*
X59036Y294346D01*
X58950Y294300D01*
X58861Y294259D01*
X58836Y294238D01*
X58821Y294231D01*
X58804Y294212D01*
X58747Y294166D01*
X57975Y293393D01*
X53785Y293393D01*
X50823Y296355D01*
X50823Y300545D01*
X53785Y303507D01*
X57975Y303507D01*
X58747Y302734D01*
X58827Y302677D01*
X58902Y302615D01*
X58925Y302607D01*
X58945Y302592D01*
X59039Y302564D01*
X59130Y302529D01*
X59163Y302526D01*
X59179Y302521D01*
X59204Y302522D01*
X59277Y302515D01*
X138844Y302515D01*
X175515Y265844D01*
X175515Y204947D01*
X175531Y204851D01*
X175540Y204754D01*
X175550Y204731D01*
X175554Y204706D01*
X175600Y204620D01*
X175641Y204531D01*
X175662Y204506D01*
X175669Y204491D01*
X175688Y204474D01*
X175734Y204417D01*
X176057Y204095D01*
X176057Y199905D01*
X175284Y199133D01*
X175227Y199053D01*
X175165Y198978D01*
X175157Y198955D01*
X175142Y198935D01*
X175114Y198841D01*
X175079Y198750D01*
X175076Y198717D01*
X175071Y198701D01*
X175072Y198676D01*
X175065Y198603D01*
X175065Y198024D01*
X175081Y197928D01*
X175090Y197831D01*
X175100Y197808D01*
X175104Y197783D01*
X175150Y197697D01*
X175191Y197608D01*
X175212Y197583D01*
X175219Y197568D01*
X175238Y197551D01*
X175284Y197494D01*
X186294Y186484D01*
X186374Y186427D01*
X186449Y186365D01*
X186472Y186357D01*
X186493Y186342D01*
X186586Y186314D01*
X186677Y186279D01*
X186710Y186276D01*
X186726Y186271D01*
X186751Y186272D01*
X186824Y186265D01*
X228360Y186265D01*
X228491Y186286D01*
X228601Y186304D01*
X228709Y186362D01*
X228816Y186419D01*
X228886Y186494D01*
X228983Y186597D01*
X228983Y186598D01*
X229053Y186727D01*
X229740Y188387D01*
X232813Y191460D01*
X236827Y193123D01*
X241173Y193123D01*
X245187Y191460D01*
X247339Y189308D01*
X247399Y189265D01*
X247453Y189215D01*
X247497Y189194D01*
X247538Y189166D01*
X247608Y189144D01*
X247675Y189114D01*
X247724Y189109D01*
X247771Y189095D01*
X247844Y189097D01*
X247918Y189090D01*
X247966Y189101D01*
X248015Y189103D01*
X248084Y189129D01*
X248155Y189145D01*
X248197Y189171D01*
X248243Y189189D01*
X248300Y189235D01*
X248363Y189274D01*
X248394Y189312D01*
X248432Y189343D01*
X248471Y189406D01*
X248518Y189462D01*
X248535Y189508D01*
X248561Y189550D01*
X248578Y189622D01*
X248604Y189691D01*
X248611Y189764D01*
X248617Y189788D01*
X248615Y189805D01*
X248618Y189838D01*
X248618Y199962D01*
X248606Y200035D01*
X248604Y200108D01*
X248587Y200154D01*
X248579Y200203D01*
X248544Y200268D01*
X248518Y200337D01*
X248487Y200375D01*
X248464Y200418D01*
X248410Y200469D01*
X248363Y200525D01*
X248321Y200551D01*
X248286Y200585D01*
X248219Y200616D01*
X248156Y200654D01*
X248108Y200666D01*
X248063Y200686D01*
X247990Y200693D01*
X247919Y200710D01*
X247870Y200705D01*
X247820Y200710D01*
X247749Y200693D01*
X247676Y200686D01*
X247631Y200666D01*
X247583Y200655D01*
X247520Y200616D01*
X247453Y200586D01*
X247397Y200539D01*
X247375Y200526D01*
X247365Y200513D01*
X247339Y200492D01*
X245187Y198340D01*
X241173Y196677D01*
X236827Y196677D01*
X232813Y198340D01*
X229740Y201413D01*
X228077Y205427D01*
X228077Y209773D01*
X229740Y213787D01*
X232813Y216860D01*
X236827Y218523D01*
X241173Y218523D01*
X245187Y216860D01*
X247339Y214708D01*
X247399Y214665D01*
X247453Y214615D01*
X247497Y214594D01*
X247538Y214566D01*
X247608Y214544D01*
X247675Y214514D01*
X247724Y214509D01*
X247771Y214495D01*
X247844Y214497D01*
X247918Y214490D01*
X247966Y214501D01*
X248015Y214503D01*
X248084Y214529D01*
X248155Y214545D01*
X248197Y214571D01*
X248243Y214589D01*
X248300Y214635D01*
X248363Y214674D01*
X248394Y214712D01*
X248432Y214743D01*
X248471Y214806D01*
X248518Y214862D01*
X248535Y214908D01*
X248561Y214950D01*
X248578Y215022D01*
X248604Y215091D01*
X248611Y215164D01*
X248617Y215188D01*
X248615Y215205D01*
X248618Y215238D01*
X248618Y225362D01*
X248606Y225435D01*
X248604Y225508D01*
X248587Y225554D01*
X248579Y225603D01*
X248544Y225668D01*
X248518Y225737D01*
X248487Y225775D01*
X248464Y225818D01*
X248410Y225869D01*
X248363Y225925D01*
X248321Y225951D01*
X248286Y225985D01*
X248219Y226016D01*
X248156Y226054D01*
X248108Y226066D01*
X248063Y226086D01*
X247990Y226093D01*
X247919Y226110D01*
X247870Y226105D01*
X247820Y226110D01*
X247749Y226093D01*
X247676Y226086D01*
X247631Y226066D01*
X247583Y226055D01*
X247520Y226016D01*
X247453Y225986D01*
X247397Y225939D01*
X247375Y225926D01*
X247365Y225913D01*
X247339Y225892D01*
X245187Y223740D01*
X241173Y222077D01*
X236827Y222077D01*
X232813Y223740D01*
X229740Y226813D01*
X228077Y230827D01*
X228077Y235173D01*
X229740Y239187D01*
X232813Y242260D01*
X236827Y243923D01*
X241173Y243923D01*
X245187Y242260D01*
X247339Y240108D01*
X247399Y240065D01*
X247453Y240015D01*
X247497Y239994D01*
X247538Y239966D01*
X247608Y239944D01*
X247675Y239914D01*
X247724Y239909D01*
X247771Y239895D01*
X247844Y239897D01*
X247918Y239890D01*
X247966Y239901D01*
X248015Y239903D01*
X248084Y239929D01*
X248155Y239945D01*
X248197Y239971D01*
X248243Y239989D01*
X248300Y240035D01*
X248363Y240074D01*
X248394Y240112D01*
X248432Y240143D01*
X248471Y240206D01*
X248518Y240262D01*
X248535Y240308D01*
X248561Y240350D01*
X248578Y240422D01*
X248604Y240491D01*
X248611Y240564D01*
X248617Y240588D01*
X248615Y240605D01*
X248618Y240638D01*
X248618Y250762D01*
X248606Y250835D01*
X248604Y250908D01*
X248587Y250954D01*
X248579Y251003D01*
X248544Y251068D01*
X248518Y251137D01*
X248487Y251175D01*
X248464Y251218D01*
X248410Y251269D01*
X248363Y251325D01*
X248321Y251351D01*
X248286Y251385D01*
X248219Y251416D01*
X248156Y251454D01*
X248108Y251466D01*
X248063Y251486D01*
X247990Y251493D01*
X247919Y251510D01*
X247870Y251505D01*
X247820Y251510D01*
X247749Y251493D01*
X247676Y251486D01*
X247631Y251466D01*
X247583Y251455D01*
X247520Y251416D01*
X247453Y251386D01*
X247397Y251339D01*
X247375Y251326D01*
X247365Y251313D01*
X247339Y251292D01*
X245187Y249140D01*
X241173Y247477D01*
X236827Y247477D01*
X232813Y249140D01*
X229740Y252213D01*
X228077Y256227D01*
X228077Y260573D01*
X229740Y264587D01*
X232813Y267660D01*
X233118Y267786D01*
X233159Y267812D01*
X233205Y267829D01*
X233263Y267876D01*
X233325Y267915D01*
X233356Y267953D01*
X233394Y267984D01*
X233433Y268047D01*
X233480Y268104D01*
X233497Y268150D01*
X233523Y268191D01*
X233540Y268263D01*
X233566Y268332D01*
X233568Y268381D01*
X233579Y268429D01*
X233572Y268502D01*
X233574Y268576D01*
X233560Y268623D01*
X233555Y268672D01*
X233525Y268739D01*
X233503Y268809D01*
X233475Y268849D01*
X233455Y268894D01*
X233362Y269007D01*
X233361Y269008D01*
X226252Y276118D01*
X224553Y277816D01*
X224553Y328844D01*
X224537Y328940D01*
X224528Y329037D01*
X224518Y329060D01*
X224514Y329085D01*
X224468Y329171D01*
X224427Y329259D01*
X224406Y329285D01*
X224399Y329300D01*
X224380Y329317D01*
X224334Y329374D01*
X219902Y333806D01*
X219822Y333863D01*
X219747Y333925D01*
X219724Y333933D01*
X219703Y333948D01*
X219610Y333976D01*
X219519Y334011D01*
X219486Y334014D01*
X219470Y334019D01*
X219445Y334018D01*
X219372Y334025D01*
X200517Y334025D01*
X200421Y334009D01*
X200324Y334000D01*
X200301Y333990D01*
X200276Y333986D01*
X200190Y333940D01*
X200101Y333899D01*
X200076Y333878D01*
X200061Y333871D01*
X200044Y333852D01*
X199987Y333806D01*
X197675Y331493D01*
X193485Y331493D01*
X190523Y334455D01*
X190523Y338645D01*
X193485Y341607D01*
X197675Y341607D01*
X199987Y339294D01*
X200067Y339237D01*
X200142Y339175D01*
X200165Y339167D01*
X200185Y339152D01*
X200279Y339124D01*
X200370Y339089D01*
X200403Y339086D01*
X200419Y339081D01*
X200444Y339082D01*
X200517Y339075D01*
X221774Y339075D01*
X226798Y334050D01*
X226858Y334007D01*
X226912Y333957D01*
X226956Y333937D01*
X226997Y333908D01*
X227067Y333887D01*
X227134Y333856D01*
X227183Y333852D01*
X227230Y333837D01*
X227303Y333840D01*
X227377Y333832D01*
X227425Y333844D01*
X227474Y333845D01*
X227543Y333871D01*
X227614Y333888D01*
X227656Y333914D01*
X227702Y333931D01*
X227759Y333978D01*
X227822Y334016D01*
X227853Y334054D01*
X227891Y334086D01*
X227930Y334148D01*
X227977Y334205D01*
X227994Y334251D01*
X228020Y334293D01*
X228037Y334364D01*
X228063Y334433D01*
X228070Y334506D01*
X228076Y334530D01*
X228074Y334547D01*
X228077Y334580D01*
X228077Y336773D01*
X229740Y340787D01*
X232813Y343860D01*
X236827Y345523D01*
X241173Y345523D01*
X245187Y343860D01*
X247339Y341708D01*
X247399Y341665D01*
X247453Y341615D01*
X247497Y341594D01*
X247538Y341566D01*
X247608Y341544D01*
X247675Y341514D01*
X247724Y341509D01*
X247771Y341495D01*
X247844Y341497D01*
X247918Y341490D01*
X247966Y341501D01*
X248015Y341503D01*
X248084Y341529D01*
X248155Y341545D01*
X248197Y341571D01*
X248243Y341589D01*
X248300Y341635D01*
X248363Y341674D01*
X248394Y341712D01*
X248432Y341743D01*
X248471Y341806D01*
X248518Y341862D01*
X248535Y341908D01*
X248561Y341950D01*
X248578Y342022D01*
X248604Y342091D01*
X248611Y342164D01*
X248617Y342188D01*
X248615Y342205D01*
X248618Y342238D01*
X248618Y352362D01*
X248606Y352435D01*
X248604Y352508D01*
X248587Y352554D01*
X248579Y352603D01*
X248544Y352668D01*
X248518Y352737D01*
X248487Y352775D01*
X248464Y352818D01*
X248410Y352869D01*
X248363Y352925D01*
X248321Y352951D01*
X248286Y352985D01*
X248219Y353016D01*
X248156Y353054D01*
X248108Y353066D01*
X248063Y353086D01*
X247990Y353093D01*
X247919Y353110D01*
X247870Y353105D01*
X247820Y353110D01*
X247749Y353093D01*
X247676Y353086D01*
X247631Y353066D01*
X247583Y353055D01*
X247520Y353016D01*
X247453Y352986D01*
X247397Y352939D01*
X247375Y352926D01*
X247365Y352913D01*
X247339Y352892D01*
X245187Y350740D01*
X241173Y349077D01*
X236827Y349077D01*
X232813Y350740D01*
X229740Y353813D01*
X228077Y357827D01*
X228077Y362173D01*
X229740Y366187D01*
X232813Y369260D01*
X236827Y370923D01*
X241173Y370923D01*
X245187Y369260D01*
X247339Y367108D01*
X247399Y367065D01*
X247453Y367015D01*
X247497Y366994D01*
X247538Y366966D01*
X247608Y366944D01*
X247675Y366914D01*
X247724Y366909D01*
X247771Y366895D01*
X247844Y366897D01*
X247918Y366890D01*
X247966Y366901D01*
X248015Y366903D01*
X248084Y366929D01*
X248155Y366945D01*
X248197Y366971D01*
X248243Y366989D01*
X248300Y367035D01*
X248363Y367074D01*
X248394Y367112D01*
X248432Y367143D01*
X248471Y367206D01*
X248518Y367262D01*
X248535Y367308D01*
X248561Y367350D01*
X248578Y367422D01*
X248604Y367491D01*
X248611Y367564D01*
X248617Y367588D01*
X248615Y367605D01*
X248618Y367638D01*
X248618Y377762D01*
X248606Y377835D01*
X248604Y377908D01*
X248587Y377954D01*
X248579Y378003D01*
X248544Y378068D01*
X248518Y378137D01*
X248487Y378175D01*
X248464Y378218D01*
X248410Y378269D01*
X248363Y378325D01*
X248321Y378351D01*
X248286Y378385D01*
X248219Y378416D01*
X248156Y378454D01*
X248108Y378466D01*
X248063Y378486D01*
X247990Y378493D01*
X247919Y378510D01*
X247870Y378505D01*
X247820Y378510D01*
X247749Y378493D01*
X247676Y378486D01*
X247631Y378466D01*
X247583Y378455D01*
X247520Y378416D01*
X247453Y378386D01*
X247397Y378339D01*
X247375Y378326D01*
X247365Y378313D01*
X247339Y378292D01*
X245187Y376140D01*
X241173Y374477D01*
X236827Y374477D01*
X232813Y376140D01*
X229740Y379213D01*
X228077Y383227D01*
X228077Y387573D01*
X229740Y391587D01*
X232813Y394660D01*
X236827Y396323D01*
X241173Y396323D01*
X245187Y394660D01*
X247339Y392508D01*
X247399Y392465D01*
X247453Y392415D01*
X247497Y392394D01*
X247538Y392366D01*
X247608Y392344D01*
X247675Y392314D01*
X247724Y392309D01*
X247771Y392295D01*
X247844Y392297D01*
X247918Y392290D01*
X247966Y392301D01*
X248015Y392303D01*
X248084Y392329D01*
X248155Y392345D01*
X248197Y392371D01*
X248243Y392389D01*
X248300Y392435D01*
X248363Y392474D01*
X248394Y392512D01*
X248432Y392543D01*
X248471Y392606D01*
X248518Y392662D01*
X248535Y392708D01*
X248561Y392750D01*
X248578Y392822D01*
X248604Y392891D01*
X248611Y392964D01*
X248617Y392988D01*
X248615Y393005D01*
X248618Y393038D01*
X248618Y403162D01*
X248606Y403235D01*
X248604Y403308D01*
X248587Y403354D01*
X248579Y403403D01*
X248544Y403468D01*
X248518Y403537D01*
X248487Y403575D01*
X248464Y403618D01*
X248410Y403669D01*
X248363Y403725D01*
X248321Y403751D01*
X248286Y403785D01*
X248219Y403816D01*
X248156Y403854D01*
X248108Y403866D01*
X248063Y403886D01*
X247990Y403893D01*
X247919Y403910D01*
X247870Y403905D01*
X247820Y403910D01*
X247749Y403893D01*
X247676Y403886D01*
X247631Y403866D01*
X247583Y403855D01*
X247520Y403816D01*
X247453Y403786D01*
X247397Y403739D01*
X247375Y403726D01*
X247365Y403713D01*
X247339Y403692D01*
X245187Y401540D01*
X241173Y399877D01*
X236827Y399877D01*
X232813Y401540D01*
X229740Y404613D01*
X228077Y408627D01*
X228077Y412973D01*
X229740Y416987D01*
X232813Y420060D01*
X236827Y421723D01*
X241173Y421723D01*
X245187Y420060D01*
X247339Y417908D01*
X247399Y417865D01*
X247453Y417815D01*
X247497Y417794D01*
X247538Y417766D01*
X247608Y417744D01*
X247675Y417714D01*
X247724Y417709D01*
X247771Y417695D01*
X247844Y417697D01*
X247918Y417690D01*
X247966Y417701D01*
X248015Y417703D01*
X248084Y417729D01*
X248155Y417745D01*
X248197Y417771D01*
X248243Y417789D01*
X248300Y417835D01*
X248363Y417874D01*
X248394Y417912D01*
X248432Y417943D01*
X248471Y418006D01*
X248518Y418062D01*
X248535Y418108D01*
X248561Y418150D01*
X248578Y418222D01*
X248604Y418291D01*
X248611Y418364D01*
X248617Y418388D01*
X248615Y418405D01*
X248618Y418438D01*
X248618Y428562D01*
X248606Y428635D01*
X248604Y428708D01*
X248587Y428754D01*
X248579Y428803D01*
X248544Y428868D01*
X248518Y428937D01*
X248487Y428975D01*
X248464Y429018D01*
X248410Y429069D01*
X248363Y429125D01*
X248321Y429151D01*
X248286Y429185D01*
X248219Y429216D01*
X248156Y429254D01*
X248108Y429266D01*
X248063Y429286D01*
X247990Y429293D01*
X247919Y429310D01*
X247870Y429305D01*
X247820Y429310D01*
X247749Y429293D01*
X247676Y429286D01*
X247631Y429266D01*
X247583Y429255D01*
X247520Y429216D01*
X247453Y429186D01*
X247397Y429139D01*
X247375Y429126D01*
X247365Y429113D01*
X247339Y429092D01*
X245187Y426940D01*
X241173Y425277D01*
X236827Y425277D01*
X232813Y426940D01*
X229740Y430013D01*
X228077Y434027D01*
X228077Y438373D01*
X229740Y442387D01*
X232813Y445460D01*
X236827Y447123D01*
X241173Y447123D01*
X245187Y445460D01*
X247339Y443308D01*
X247399Y443265D01*
X247453Y443215D01*
X247497Y443194D01*
X247538Y443166D01*
X247608Y443144D01*
X247675Y443114D01*
X247724Y443109D01*
X247771Y443095D01*
X247844Y443097D01*
X247918Y443090D01*
X247966Y443101D01*
X248015Y443103D01*
X248084Y443129D01*
X248155Y443145D01*
X248197Y443171D01*
X248243Y443189D01*
X248300Y443235D01*
X248363Y443274D01*
X248394Y443312D01*
X248432Y443343D01*
X248471Y443406D01*
X248518Y443462D01*
X248535Y443508D01*
X248561Y443550D01*
X248578Y443622D01*
X248604Y443691D01*
X248611Y443764D01*
X248617Y443788D01*
X248615Y443805D01*
X248618Y443838D01*
X248618Y453962D01*
X248606Y454035D01*
X248604Y454108D01*
X248587Y454154D01*
X248579Y454203D01*
X248544Y454268D01*
X248518Y454337D01*
X248487Y454375D01*
X248464Y454418D01*
X248410Y454469D01*
X248363Y454525D01*
X248321Y454551D01*
X248286Y454585D01*
X248219Y454616D01*
X248156Y454654D01*
X248108Y454666D01*
X248063Y454686D01*
X247990Y454693D01*
X247919Y454710D01*
X247870Y454705D01*
X247820Y454710D01*
X247749Y454693D01*
X247676Y454686D01*
X247631Y454666D01*
X247583Y454655D01*
X247520Y454616D01*
X247453Y454586D01*
X247397Y454539D01*
X247375Y454526D01*
X247365Y454513D01*
X247339Y454492D01*
X245187Y452340D01*
X241173Y450677D01*
X236827Y450677D01*
X232813Y452340D01*
X229740Y455413D01*
X228756Y457788D01*
X228705Y457871D01*
X228659Y457958D01*
X228640Y457974D01*
X228627Y457995D01*
X228552Y458057D01*
X228480Y458124D01*
X228458Y458135D01*
X228439Y458150D01*
X228347Y458185D01*
X228258Y458225D01*
X228234Y458228D01*
X228210Y458236D01*
X228113Y458240D01*
X228015Y458249D01*
X227991Y458244D01*
X227967Y458244D01*
X227873Y458216D01*
X227778Y458194D01*
X227757Y458181D01*
X227733Y458174D01*
X227654Y458117D01*
X227570Y458065D01*
X227555Y458046D01*
X227535Y458032D01*
X227478Y457952D01*
X227415Y457877D01*
X227407Y457854D01*
X227392Y457834D01*
X227364Y457740D01*
X227329Y457649D01*
X227326Y457616D01*
X227321Y457600D01*
X227322Y457575D01*
X227315Y457502D01*
X227315Y447264D01*
X215676Y435625D01*
X60817Y435625D01*
X60721Y435609D01*
X60624Y435600D01*
X60601Y435590D01*
X60576Y435586D01*
X60490Y435540D01*
X60401Y435499D01*
X60376Y435478D01*
X60361Y435471D01*
X60344Y435452D01*
X60287Y435406D01*
X57975Y433093D01*
X53785Y433093D01*
X50823Y436055D01*
X50823Y440245D01*
X53785Y443207D01*
X57975Y443207D01*
X60287Y440894D01*
X60367Y440837D01*
X60442Y440775D01*
X60465Y440767D01*
X60485Y440752D01*
X60579Y440724D01*
X60670Y440689D01*
X60703Y440686D01*
X60719Y440681D01*
X60744Y440682D01*
X60817Y440675D01*
X213274Y440675D01*
X213370Y440691D01*
X213467Y440700D01*
X213490Y440710D01*
X213515Y440714D01*
X213601Y440760D01*
X213689Y440801D01*
X213715Y440822D01*
X213730Y440829D01*
X213747Y440848D01*
X213804Y440894D01*
X222046Y449136D01*
X222103Y449216D01*
X222165Y449291D01*
X222173Y449314D01*
X222188Y449335D01*
X222216Y449428D01*
X222251Y449519D01*
X222254Y449552D01*
X222259Y449568D01*
X222258Y449593D01*
X222265Y449666D01*
X222265Y512000D01*
X222261Y512024D01*
X222264Y512049D01*
X222242Y512144D01*
X222226Y512241D01*
X222214Y512262D01*
X222208Y512286D01*
X222157Y512370D01*
X222111Y512456D01*
X222093Y512473D01*
X222080Y512494D01*
X222004Y512556D01*
X221933Y512623D01*
X221910Y512633D01*
X221891Y512649D01*
X221800Y512683D01*
X221710Y512724D01*
X221686Y512726D01*
X221663Y512735D01*
X221516Y512749D01*
X216131Y512749D01*
X216107Y512745D01*
X216082Y512748D01*
X215987Y512726D01*
X215890Y512710D01*
X215869Y512698D01*
X215845Y512692D01*
X215761Y512641D01*
X215675Y512595D01*
X215658Y512577D01*
X215637Y512564D01*
X215575Y512488D01*
X215508Y512417D01*
X215498Y512394D01*
X215482Y512375D01*
X215448Y512284D01*
X215407Y512194D01*
X215405Y512170D01*
X215396Y512147D01*
X215382Y512000D01*
X215382Y511013D01*
X213987Y509618D01*
X36013Y509618D01*
X34618Y511013D01*
X34618Y512000D01*
X34614Y512024D01*
X34617Y512049D01*
X34595Y512144D01*
X34579Y512241D01*
X34567Y512262D01*
X34561Y512286D01*
X34510Y512370D01*
X34464Y512456D01*
X34446Y512473D01*
X34433Y512494D01*
X34357Y512556D01*
X34286Y512623D01*
X34263Y512633D01*
X34244Y512649D01*
X34153Y512683D01*
X34063Y512724D01*
X34039Y512726D01*
X34016Y512735D01*
X33869Y512749D01*
X1131Y512749D01*
X1107Y512745D01*
X1082Y512748D01*
X987Y512725D01*
X890Y512710D01*
X869Y512698D01*
X845Y512692D01*
X761Y512641D01*
X675Y512595D01*
X658Y512577D01*
X637Y512564D01*
X575Y512488D01*
X508Y512416D01*
X498Y512394D01*
X482Y512375D01*
X448Y512284D01*
X407Y512194D01*
X405Y512170D01*
X396Y512147D01*
X382Y512000D01*
X382Y494638D01*
X394Y494565D01*
X396Y494492D01*
X413Y494446D01*
X421Y494397D01*
X456Y494332D01*
X482Y494263D01*
X513Y494225D01*
X536Y494182D01*
X590Y494131D01*
X637Y494075D01*
X679Y494049D01*
X714Y494015D01*
X781Y493984D01*
X844Y493946D01*
X892Y493934D01*
X937Y493914D01*
X1010Y493907D01*
X1081Y493890D01*
X1130Y493895D01*
X1180Y493890D01*
X1251Y493907D01*
X1324Y493914D01*
X1369Y493934D01*
X1417Y493945D01*
X1480Y493984D01*
X1547Y494014D01*
X1603Y494061D01*
X1625Y494074D01*
X1635Y494087D01*
X1661Y494108D01*
X3813Y496260D01*
X7827Y497923D01*
X12173Y497923D01*
X16187Y496260D01*
X19260Y493187D01*
X20923Y489173D01*
X20923Y484827D01*
X19260Y480813D01*
X16187Y477740D01*
X12173Y476077D01*
X7827Y476077D01*
X3813Y477740D01*
X1661Y479892D01*
X1601Y479935D01*
X1547Y479985D01*
X1503Y480006D01*
X1462Y480034D01*
X1392Y480056D01*
X1325Y480086D01*
X1276Y480091D01*
X1229Y480105D01*
X1156Y480103D01*
X1082Y480110D01*
X1034Y480099D01*
X985Y480097D01*
X916Y480071D01*
X845Y480055D01*
X803Y480029D01*
X757Y480011D01*
X700Y479965D01*
X637Y479926D01*
X606Y479888D01*
X568Y479857D01*
X529Y479794D01*
X482Y479738D01*
X465Y479692D01*
X439Y479650D01*
X422Y479578D01*
X396Y479509D01*
X389Y479436D01*
X383Y479412D01*
X385Y479395D01*
X382Y479362D01*
X382Y469238D01*
X394Y469165D01*
X396Y469092D01*
X413Y469046D01*
X421Y468997D01*
X456Y468932D01*
X482Y468863D01*
X513Y468825D01*
X536Y468782D01*
X590Y468731D01*
X637Y468675D01*
X679Y468649D01*
X714Y468615D01*
X781Y468584D01*
X844Y468546D01*
X892Y468534D01*
X937Y468514D01*
X1010Y468507D01*
X1081Y468490D01*
X1130Y468495D01*
X1180Y468490D01*
X1251Y468507D01*
X1324Y468514D01*
X1369Y468534D01*
X1417Y468545D01*
X1480Y468584D01*
X1547Y468614D01*
X1603Y468661D01*
X1625Y468674D01*
X1635Y468687D01*
X1661Y468708D01*
X3813Y470860D01*
X7827Y472523D01*
X12173Y472523D01*
X16187Y470860D01*
X19260Y467787D01*
X20923Y463773D01*
X20923Y459427D01*
X19260Y455413D01*
X16187Y452340D01*
X12173Y450677D01*
X7827Y450677D01*
X3813Y452340D01*
X1661Y454492D01*
X1601Y454535D01*
X1547Y454585D01*
X1503Y454606D01*
X1462Y454634D01*
X1392Y454656D01*
X1325Y454686D01*
X1276Y454691D01*
X1229Y454705D01*
X1156Y454703D01*
X1082Y454710D01*
X1034Y454699D01*
X985Y454697D01*
X916Y454671D01*
X845Y454655D01*
X803Y454629D01*
X757Y454611D01*
X700Y454565D01*
X637Y454526D01*
X606Y454488D01*
X568Y454457D01*
X529Y454394D01*
X482Y454338D01*
X465Y454292D01*
X439Y454250D01*
X422Y454178D01*
X396Y454109D01*
X389Y454036D01*
X383Y454012D01*
X385Y453995D01*
X382Y453962D01*
X382Y443838D01*
X394Y443765D01*
X396Y443692D01*
X413Y443646D01*
X421Y443597D01*
X456Y443532D01*
X482Y443463D01*
X513Y443425D01*
X536Y443382D01*
X590Y443331D01*
X637Y443275D01*
X679Y443249D01*
X714Y443215D01*
X781Y443184D01*
X844Y443146D01*
X892Y443134D01*
X937Y443114D01*
X1010Y443107D01*
X1081Y443090D01*
X1130Y443095D01*
X1180Y443090D01*
X1251Y443107D01*
X1324Y443114D01*
X1369Y443134D01*
X1417Y443145D01*
X1480Y443184D01*
X1547Y443214D01*
X1603Y443261D01*
X1625Y443274D01*
X1635Y443287D01*
X1661Y443308D01*
X3813Y445460D01*
X7827Y447123D01*
X12173Y447123D01*
X16187Y445460D01*
X19260Y442387D01*
X20585Y439187D01*
X20640Y439099D01*
X20714Y438980D01*
X20806Y438905D01*
X20902Y438825D01*
X20903Y438825D01*
X21035Y438775D01*
X21131Y438739D01*
X21132Y438739D01*
X21278Y438725D01*
X29714Y438725D01*
X29810Y438741D01*
X29907Y438750D01*
X29930Y438760D01*
X29955Y438764D01*
X30041Y438810D01*
X30129Y438851D01*
X30155Y438872D01*
X30170Y438879D01*
X30187Y438898D01*
X30244Y438944D01*
X35400Y444100D01*
X35457Y444180D01*
X35519Y444255D01*
X35527Y444278D01*
X35542Y444299D01*
X35570Y444392D01*
X35605Y444483D01*
X35608Y444516D01*
X35613Y444532D01*
X35612Y444557D01*
X35619Y444630D01*
X35619Y489049D01*
X35603Y489145D01*
X35594Y489242D01*
X35584Y489265D01*
X35580Y489290D01*
X35534Y489376D01*
X35493Y489465D01*
X35472Y489490D01*
X35465Y489505D01*
X35446Y489522D01*
X35400Y489579D01*
X33043Y491935D01*
X33043Y496125D01*
X36005Y499087D01*
X40195Y499087D01*
X43157Y496125D01*
X43157Y491935D01*
X40888Y489667D01*
X40831Y489587D01*
X40769Y489512D01*
X40761Y489489D01*
X40746Y489469D01*
X40718Y489375D01*
X40698Y489322D01*
X40694Y489315D01*
X40694Y489313D01*
X40683Y489284D01*
X40680Y489251D01*
X40675Y489235D01*
X40676Y489210D01*
X40669Y489137D01*
X40669Y442228D01*
X32116Y433675D01*
X21278Y433675D01*
X21147Y433654D01*
X21037Y433636D01*
X20923Y433575D01*
X20822Y433521D01*
X20743Y433437D01*
X20655Y433343D01*
X20654Y433342D01*
X20585Y433213D01*
X19260Y430013D01*
X16187Y426940D01*
X12173Y425277D01*
X7827Y425277D01*
X3813Y426940D01*
X1661Y429092D01*
X1601Y429135D01*
X1547Y429185D01*
X1503Y429206D01*
X1462Y429234D01*
X1392Y429256D01*
X1325Y429286D01*
X1276Y429291D01*
X1229Y429305D01*
X1156Y429303D01*
X1082Y429310D01*
X1034Y429299D01*
X985Y429297D01*
X916Y429271D01*
X845Y429255D01*
X803Y429229D01*
X757Y429211D01*
X700Y429165D01*
X637Y429126D01*
X606Y429088D01*
X568Y429057D01*
X529Y428994D01*
X482Y428938D01*
X465Y428892D01*
X439Y428850D01*
X422Y428778D01*
X396Y428709D01*
X389Y428636D01*
X383Y428612D01*
X385Y428595D01*
X382Y428562D01*
X382Y418438D01*
X394Y418365D01*
X396Y418292D01*
X413Y418246D01*
X421Y418197D01*
X456Y418132D01*
X482Y418063D01*
X513Y418025D01*
X536Y417982D01*
X590Y417931D01*
X637Y417875D01*
X679Y417849D01*
X714Y417815D01*
X781Y417784D01*
X844Y417746D01*
X892Y417734D01*
X937Y417714D01*
X1010Y417707D01*
X1081Y417690D01*
X1130Y417695D01*
X1180Y417690D01*
X1251Y417707D01*
X1324Y417714D01*
X1369Y417734D01*
X1417Y417745D01*
X1480Y417784D01*
X1547Y417814D01*
X1603Y417861D01*
X1625Y417874D01*
X1635Y417887D01*
X1661Y417908D01*
X3813Y420060D01*
X7827Y421723D01*
X12173Y421723D01*
X16187Y420060D01*
X19260Y416987D01*
X20923Y412973D01*
X20923Y408627D01*
X19260Y404613D01*
X16187Y401540D01*
X12173Y399877D01*
X7827Y399877D01*
X3813Y401540D01*
X1661Y403692D01*
X1601Y403735D01*
X1547Y403785D01*
X1503Y403806D01*
X1462Y403834D01*
X1392Y403856D01*
X1325Y403886D01*
X1276Y403891D01*
X1229Y403905D01*
X1156Y403903D01*
X1082Y403910D01*
X1034Y403899D01*
X985Y403897D01*
X916Y403871D01*
X845Y403855D01*
X803Y403829D01*
X757Y403811D01*
X700Y403765D01*
X637Y403726D01*
X606Y403688D01*
X568Y403657D01*
X529Y403594D01*
X482Y403538D01*
X465Y403492D01*
X439Y403450D01*
X422Y403378D01*
X396Y403309D01*
X389Y403236D01*
X383Y403212D01*
X385Y403195D01*
X382Y403162D01*
X382Y393038D01*
X394Y392965D01*
X396Y392892D01*
X413Y392846D01*
X421Y392797D01*
X456Y392732D01*
X482Y392663D01*
X513Y392625D01*
X536Y392582D01*
X590Y392531D01*
X637Y392475D01*
X679Y392449D01*
X714Y392415D01*
X781Y392384D01*
X844Y392346D01*
X892Y392334D01*
X937Y392314D01*
X1010Y392307D01*
X1081Y392290D01*
X1130Y392295D01*
X1180Y392290D01*
X1251Y392307D01*
X1324Y392314D01*
X1369Y392334D01*
X1417Y392345D01*
X1480Y392384D01*
X1547Y392414D01*
X1603Y392461D01*
X1625Y392474D01*
X1635Y392487D01*
X1661Y392508D01*
X3813Y394660D01*
X7827Y396323D01*
X12173Y396323D01*
X16187Y394660D01*
X19260Y391587D01*
X20923Y387573D01*
X20923Y383227D01*
X19260Y379213D01*
X16187Y376140D01*
X12173Y374477D01*
X7827Y374477D01*
X3813Y376140D01*
X1661Y378292D01*
X1601Y378335D01*
X1547Y378385D01*
X1503Y378406D01*
X1462Y378434D01*
X1392Y378456D01*
X1325Y378486D01*
X1276Y378491D01*
X1229Y378505D01*
X1156Y378503D01*
X1082Y378510D01*
X1034Y378499D01*
X985Y378497D01*
X916Y378471D01*
X845Y378455D01*
X803Y378429D01*
X757Y378411D01*
X700Y378365D01*
X637Y378326D01*
X606Y378288D01*
X568Y378257D01*
X529Y378194D01*
X482Y378138D01*
X465Y378092D01*
X439Y378050D01*
X422Y377978D01*
X396Y377909D01*
X389Y377836D01*
X383Y377812D01*
X385Y377795D01*
X382Y377762D01*
X382Y367638D01*
X394Y367565D01*
X396Y367492D01*
X413Y367446D01*
X421Y367397D01*
X456Y367332D01*
X482Y367263D01*
X513Y367225D01*
X536Y367182D01*
X590Y367131D01*
X637Y367075D01*
X679Y367049D01*
X714Y367015D01*
X781Y366984D01*
X844Y366946D01*
X892Y366934D01*
X937Y366914D01*
X1010Y366907D01*
X1081Y366890D01*
X1130Y366895D01*
X1180Y366890D01*
X1251Y366907D01*
X1324Y366914D01*
X1369Y366934D01*
X1417Y366945D01*
X1480Y366984D01*
X1547Y367014D01*
X1603Y367061D01*
X1625Y367074D01*
X1635Y367087D01*
X1661Y367108D01*
X3813Y369260D01*
X7827Y370923D01*
X12173Y370923D01*
X16187Y369260D01*
X19260Y366187D01*
X20923Y362173D01*
X20923Y357827D01*
X19260Y353813D01*
X16187Y350740D01*
X12173Y349077D01*
X7827Y349077D01*
X3813Y350740D01*
X1661Y352892D01*
X1601Y352935D01*
X1547Y352985D01*
X1503Y353006D01*
X1462Y353034D01*
X1392Y353056D01*
X1325Y353086D01*
X1276Y353091D01*
X1229Y353105D01*
X1156Y353103D01*
X1082Y353110D01*
X1034Y353099D01*
X985Y353097D01*
X916Y353071D01*
X845Y353055D01*
X803Y353029D01*
X757Y353011D01*
X700Y352965D01*
X637Y352926D01*
X606Y352888D01*
X568Y352857D01*
X529Y352794D01*
X482Y352738D01*
X465Y352692D01*
X439Y352650D01*
X422Y352578D01*
X396Y352509D01*
X389Y352436D01*
X383Y352412D01*
X385Y352395D01*
X382Y352362D01*
X382Y342238D01*
X384Y342225D01*
X383Y342219D01*
X389Y342196D01*
X394Y342165D01*
X396Y342092D01*
X413Y342046D01*
X421Y341997D01*
X456Y341932D01*
X482Y341863D01*
X513Y341825D01*
X536Y341782D01*
X590Y341731D01*
X637Y341675D01*
X679Y341649D01*
X714Y341615D01*
X781Y341584D01*
X844Y341546D01*
X892Y341534D01*
X937Y341514D01*
X1010Y341507D01*
X1081Y341490D01*
X1130Y341495D01*
X1180Y341490D01*
X1251Y341507D01*
X1324Y341514D01*
X1369Y341534D01*
X1417Y341545D01*
X1480Y341584D01*
X1547Y341614D01*
X1603Y341661D01*
X1625Y341674D01*
X1635Y341687D01*
X1661Y341708D01*
X3813Y343860D01*
X7827Y345523D01*
X12173Y345523D01*
X16187Y343860D01*
X19260Y340787D01*
X20923Y336773D01*
X20923Y332427D01*
X19260Y328413D01*
X16187Y325340D01*
X12173Y323677D01*
X7827Y323677D01*
X3813Y325340D01*
X1661Y327492D01*
X1601Y327535D01*
X1547Y327585D01*
X1503Y327606D01*
X1462Y327634D01*
X1392Y327656D01*
X1325Y327686D01*
X1276Y327691D01*
X1229Y327705D01*
X1156Y327703D01*
X1082Y327710D01*
X1034Y327699D01*
X985Y327697D01*
X916Y327671D01*
X845Y327655D01*
X803Y327629D01*
X757Y327611D01*
X700Y327565D01*
X637Y327526D01*
X606Y327488D01*
X568Y327457D01*
X529Y327394D01*
X482Y327338D01*
X465Y327292D01*
X439Y327250D01*
X422Y327178D01*
X396Y327109D01*
X389Y327036D01*
X383Y327012D01*
X385Y326995D01*
X382Y326962D01*
X382Y316838D01*
X394Y316765D01*
X396Y316692D01*
X413Y316646D01*
X421Y316597D01*
X456Y316532D01*
X482Y316463D01*
X513Y316425D01*
X536Y316382D01*
X590Y316331D01*
X637Y316275D01*
X679Y316249D01*
X714Y316215D01*
X781Y316184D01*
X844Y316146D01*
X892Y316134D01*
X937Y316114D01*
X1010Y316107D01*
X1081Y316090D01*
X1130Y316095D01*
X1180Y316090D01*
X1251Y316107D01*
X1324Y316114D01*
X1369Y316134D01*
X1417Y316145D01*
X1480Y316184D01*
X1547Y316214D01*
X1603Y316261D01*
X1625Y316274D01*
X1635Y316287D01*
X1661Y316308D01*
X3813Y318460D01*
X7827Y320123D01*
X12173Y320123D01*
X16187Y318460D01*
X19260Y315387D01*
X20824Y311610D01*
X20850Y311568D01*
X20868Y311522D01*
X20914Y311465D01*
X20953Y311403D01*
X20991Y311372D01*
X21022Y311334D01*
X21085Y311295D01*
X21142Y311248D01*
X21188Y311231D01*
X21229Y311205D01*
X21301Y311188D01*
X21370Y311162D01*
X21419Y311160D01*
X21467Y311149D01*
X21540Y311156D01*
X21614Y311154D01*
X21661Y311168D01*
X21710Y311173D01*
X21777Y311203D01*
X21848Y311225D01*
X21887Y311253D01*
X21932Y311273D01*
X22046Y311366D01*
X22046Y311367D01*
X28164Y317485D01*
X45634Y317485D01*
X45730Y317501D01*
X45827Y317510D01*
X45850Y317520D01*
X45875Y317524D01*
X45961Y317570D01*
X46049Y317611D01*
X46075Y317632D01*
X46090Y317639D01*
X46107Y317658D01*
X46164Y317704D01*
X50604Y322144D01*
X50661Y322224D01*
X50723Y322299D01*
X50731Y322322D01*
X50746Y322343D01*
X50774Y322436D01*
X50809Y322527D01*
X50812Y322560D01*
X50817Y322576D01*
X50816Y322601D01*
X50823Y322674D01*
X50823Y325945D01*
X53785Y328907D01*
X57975Y328907D01*
X60937Y325945D01*
X60937Y321755D01*
X57975Y318793D01*
X54704Y318793D01*
X54608Y318777D01*
X54511Y318768D01*
X54488Y318758D01*
X54463Y318754D01*
X54377Y318707D01*
X54289Y318667D01*
X54263Y318646D01*
X54248Y318639D01*
X54231Y318620D01*
X54174Y318574D01*
X53086Y317486D01*
X53044Y317426D01*
X52993Y317372D01*
X52973Y317328D01*
X52944Y317287D01*
X52923Y317217D01*
X52892Y317150D01*
X52888Y317101D01*
X52873Y317054D01*
X52876Y316981D01*
X52868Y316907D01*
X52880Y316859D01*
X52881Y316810D01*
X52907Y316741D01*
X52924Y316670D01*
X52950Y316628D01*
X52967Y316582D01*
X53014Y316525D01*
X53052Y316462D01*
X53090Y316431D01*
X53122Y316393D01*
X53184Y316354D01*
X53241Y316307D01*
X53287Y316290D01*
X53329Y316264D01*
X53400Y316247D01*
X53469Y316221D01*
X53542Y316214D01*
X53566Y316208D01*
X53583Y316210D01*
X53616Y316207D01*
X57975Y316207D01*
X60937Y313245D01*
X60937Y309055D01*
X57975Y306093D01*
X53785Y306093D01*
X51473Y308406D01*
X51393Y308463D01*
X51318Y308525D01*
X51295Y308533D01*
X51275Y308548D01*
X51181Y308576D01*
X51090Y308611D01*
X51057Y308614D01*
X51041Y308619D01*
X51016Y308618D01*
X50943Y308625D01*
X32820Y308625D01*
X32724Y308609D01*
X32627Y308600D01*
X32604Y308590D01*
X32579Y308586D01*
X32493Y308540D01*
X32405Y308499D01*
X32379Y308478D01*
X32364Y308471D01*
X32347Y308452D01*
X32290Y308406D01*
X29128Y305244D01*
X29071Y305164D01*
X29009Y305089D01*
X29001Y305066D01*
X28986Y305045D01*
X28958Y304952D01*
X28923Y304861D01*
X28920Y304828D01*
X28915Y304812D01*
X28916Y304787D01*
X28909Y304714D01*
X28909Y243354D01*
X24666Y239112D01*
X24609Y239033D01*
X24547Y238957D01*
X24539Y238934D01*
X24524Y238914D01*
X24496Y238820D01*
X24461Y238729D01*
X24458Y238696D01*
X24453Y238680D01*
X24454Y238655D01*
X24447Y238582D01*
X24447Y221596D01*
X24459Y221524D01*
X24461Y221450D01*
X24478Y221404D01*
X24486Y221355D01*
X24521Y221291D01*
X24547Y221222D01*
X24578Y221184D01*
X24601Y221140D01*
X24655Y221090D01*
X24702Y221033D01*
X24743Y221007D01*
X24779Y220973D01*
X24846Y220943D01*
X24909Y220904D01*
X24957Y220893D01*
X25002Y220872D01*
X25075Y220865D01*
X25146Y220848D01*
X25195Y220853D01*
X25245Y220848D01*
X25316Y220865D01*
X25389Y220872D01*
X25434Y220892D01*
X25482Y220904D01*
X25545Y220942D01*
X25612Y220973D01*
X25668Y221019D01*
X25690Y221032D01*
X25700Y221045D01*
X25726Y221066D01*
X30704Y226045D01*
X97933Y226045D01*
X98029Y226061D01*
X98126Y226070D01*
X98149Y226080D01*
X98174Y226084D01*
X98260Y226130D01*
X98349Y226171D01*
X98374Y226192D01*
X98389Y226199D01*
X98406Y226218D01*
X98463Y226264D01*
X100775Y228577D01*
X104965Y228577D01*
X107927Y225615D01*
X107927Y221425D01*
X104965Y218463D01*
X100775Y218463D01*
X98463Y220776D01*
X98383Y220833D01*
X98308Y220895D01*
X98285Y220903D01*
X98265Y220918D01*
X98171Y220946D01*
X98080Y220981D01*
X98047Y220984D01*
X98031Y220989D01*
X98006Y220988D01*
X97933Y220995D01*
X33106Y220995D01*
X33010Y220979D01*
X32913Y220970D01*
X32890Y220960D01*
X32865Y220956D01*
X32779Y220910D01*
X32691Y220869D01*
X32665Y220848D01*
X32650Y220841D01*
X32633Y220822D01*
X32576Y220776D01*
X24666Y212866D01*
X24609Y212786D01*
X24547Y212711D01*
X24539Y212688D01*
X24524Y212667D01*
X24496Y212574D01*
X24461Y212483D01*
X24458Y212450D01*
X24453Y212434D01*
X24454Y212409D01*
X24447Y212336D01*
X24447Y193076D01*
X19760Y188389D01*
X19680Y188279D01*
X19618Y188191D01*
X19583Y188077D01*
X19547Y187958D01*
X19547Y187957D01*
X19551Y187809D01*
X19554Y187714D01*
X19555Y187714D01*
X19555Y187713D01*
X19597Y187573D01*
X20923Y184373D01*
X20923Y180027D01*
X19974Y177736D01*
X19952Y177641D01*
X19923Y177547D01*
X19924Y177523D01*
X19918Y177499D01*
X19928Y177401D01*
X19931Y177304D01*
X19940Y177280D01*
X19942Y177256D01*
X19982Y177167D01*
X20017Y177075D01*
X20033Y177056D01*
X20043Y177033D01*
X20110Y176962D01*
X20172Y176887D01*
X20193Y176873D01*
X20210Y176855D01*
X20296Y176809D01*
X20379Y176758D01*
X20403Y176752D01*
X20425Y176740D01*
X20521Y176724D01*
X20616Y176702D01*
X20641Y176704D01*
X20665Y176700D01*
X20762Y176716D01*
G37*
G36*
X19686Y1363D02*
X19686Y1363D01*
X19782Y1379D01*
X19812Y1382D01*
X21858Y1382D01*
X21879Y1385D01*
X21926Y1385D01*
X22805Y1465D01*
X22813Y1462D01*
X22864Y1432D01*
X22927Y1419D01*
X22987Y1396D01*
X23081Y1387D01*
X23103Y1382D01*
X23114Y1384D01*
X23134Y1382D01*
X228797Y1382D01*
X228875Y1394D01*
X228953Y1398D01*
X228994Y1414D01*
X229038Y1421D01*
X229061Y1434D01*
X230043Y1383D01*
X230056Y1384D01*
X230081Y1382D01*
X230260Y1382D01*
X230271Y1384D01*
X230292Y1382D01*
X233406Y1517D01*
X233439Y1524D01*
X233472Y1523D01*
X233616Y1556D01*
X235352Y2148D01*
X237551Y2897D01*
X239673Y3620D01*
X239734Y3652D01*
X239798Y3676D01*
X239867Y3724D01*
X239888Y3735D01*
X239898Y3745D01*
X239919Y3760D01*
X244778Y7925D01*
X244823Y7978D01*
X244874Y8023D01*
X244920Y8094D01*
X244935Y8112D01*
X244940Y8125D01*
X244955Y8147D01*
X247921Y13818D01*
X247931Y13849D01*
X247949Y13877D01*
X247992Y14019D01*
X248604Y17090D01*
X248604Y17091D01*
X248618Y17237D01*
X248618Y96926D01*
X248606Y96998D01*
X248604Y97071D01*
X248587Y97118D01*
X248579Y97166D01*
X248544Y97231D01*
X248518Y97300D01*
X248487Y97338D01*
X248464Y97381D01*
X248410Y97432D01*
X248363Y97489D01*
X248321Y97515D01*
X248286Y97548D01*
X248219Y97579D01*
X248156Y97618D01*
X248108Y97629D01*
X248063Y97649D01*
X247990Y97656D01*
X247919Y97673D01*
X247870Y97668D01*
X247820Y97673D01*
X247749Y97657D01*
X247676Y97649D01*
X247631Y97629D01*
X247583Y97618D01*
X247520Y97579D01*
X247453Y97549D01*
X247397Y97502D01*
X247375Y97489D01*
X247365Y97476D01*
X247339Y97455D01*
X246778Y96894D01*
X245257Y95789D01*
X243583Y94936D01*
X241796Y94355D01*
X240499Y94150D01*
X240499Y105250D01*
X240495Y105274D01*
X240498Y105298D01*
X240475Y105394D01*
X240459Y105491D01*
X240448Y105512D01*
X240442Y105536D01*
X240391Y105619D01*
X240344Y105706D01*
X240327Y105723D01*
X240314Y105743D01*
X240238Y105806D01*
X240166Y105873D01*
X240144Y105883D01*
X240125Y105898D01*
X240034Y105933D01*
X239944Y105973D01*
X239920Y105976D01*
X239897Y105985D01*
X239750Y105999D01*
X238999Y105999D01*
X238999Y106001D01*
X239750Y106001D01*
X239774Y106005D01*
X239798Y106002D01*
X239894Y106025D01*
X239991Y106041D01*
X240012Y106052D01*
X240036Y106058D01*
X240120Y106109D01*
X240206Y106156D01*
X240223Y106173D01*
X240243Y106186D01*
X240306Y106262D01*
X240373Y106334D01*
X240383Y106356D01*
X240398Y106375D01*
X240433Y106467D01*
X240474Y106556D01*
X240476Y106580D01*
X240485Y106603D01*
X240499Y106750D01*
X240499Y117850D01*
X241796Y117645D01*
X243583Y117064D01*
X245257Y116211D01*
X246778Y115106D01*
X247339Y114545D01*
X247399Y114502D01*
X247453Y114452D01*
X247497Y114431D01*
X247538Y114403D01*
X247608Y114381D01*
X247675Y114351D01*
X247724Y114346D01*
X247771Y114332D01*
X247844Y114334D01*
X247918Y114327D01*
X247966Y114338D01*
X248015Y114340D01*
X248084Y114365D01*
X248155Y114382D01*
X248197Y114408D01*
X248243Y114425D01*
X248300Y114472D01*
X248363Y114511D01*
X248394Y114549D01*
X248432Y114580D01*
X248471Y114642D01*
X248518Y114699D01*
X248535Y114745D01*
X248561Y114787D01*
X248578Y114859D01*
X248604Y114928D01*
X248611Y115001D01*
X248617Y115025D01*
X248615Y115041D01*
X248618Y115074D01*
X248618Y123762D01*
X248606Y123835D01*
X248604Y123908D01*
X248587Y123954D01*
X248579Y124003D01*
X248544Y124068D01*
X248518Y124137D01*
X248487Y124175D01*
X248464Y124218D01*
X248410Y124269D01*
X248363Y124325D01*
X248321Y124351D01*
X248286Y124385D01*
X248219Y124416D01*
X248156Y124454D01*
X248108Y124466D01*
X248063Y124486D01*
X247990Y124493D01*
X247919Y124510D01*
X247870Y124505D01*
X247820Y124510D01*
X247749Y124493D01*
X247676Y124486D01*
X247631Y124466D01*
X247583Y124455D01*
X247520Y124416D01*
X247453Y124386D01*
X247397Y124339D01*
X247375Y124326D01*
X247365Y124313D01*
X247339Y124292D01*
X245187Y122140D01*
X241173Y120477D01*
X236827Y120477D01*
X234301Y121524D01*
X234253Y121535D01*
X234208Y121555D01*
X234135Y121563D01*
X234063Y121579D01*
X234014Y121574D01*
X233965Y121579D01*
X233894Y121563D01*
X233820Y121555D01*
X233776Y121535D01*
X233728Y121524D01*
X233665Y121485D01*
X233598Y121455D01*
X233562Y121421D01*
X233520Y121395D01*
X233474Y121338D01*
X233420Y121288D01*
X233397Y121245D01*
X233365Y121207D01*
X233339Y121138D01*
X233305Y121073D01*
X233297Y121024D01*
X233279Y120979D01*
X233265Y120833D01*
X233265Y120832D01*
X233265Y119916D01*
X230884Y117535D01*
X225897Y117535D01*
X225801Y117519D01*
X225704Y117510D01*
X225681Y117500D01*
X225656Y117496D01*
X225570Y117450D01*
X225481Y117409D01*
X225456Y117388D01*
X225441Y117381D01*
X225424Y117362D01*
X225367Y117316D01*
X224595Y116543D01*
X220405Y116543D01*
X219633Y117316D01*
X219553Y117373D01*
X219478Y117435D01*
X219455Y117443D01*
X219435Y117458D01*
X219341Y117486D01*
X219250Y117521D01*
X219217Y117524D01*
X219201Y117529D01*
X219176Y117528D01*
X219103Y117535D01*
X172594Y117535D01*
X172498Y117519D01*
X172401Y117510D01*
X172378Y117500D01*
X172353Y117496D01*
X172267Y117450D01*
X172178Y117409D01*
X172153Y117388D01*
X172138Y117381D01*
X172121Y117362D01*
X172064Y117316D01*
X165284Y110536D01*
X165227Y110456D01*
X165218Y110445D01*
X165191Y110416D01*
X165187Y110408D01*
X165165Y110381D01*
X165157Y110358D01*
X165142Y110337D01*
X165115Y110249D01*
X165090Y110194D01*
X165089Y110178D01*
X165079Y110153D01*
X165076Y110120D01*
X165071Y110104D01*
X165072Y110079D01*
X165065Y110006D01*
X165065Y87397D01*
X165081Y87301D01*
X165090Y87204D01*
X165100Y87181D01*
X165104Y87156D01*
X165150Y87070D01*
X165191Y86981D01*
X165212Y86956D01*
X165219Y86941D01*
X165238Y86924D01*
X165284Y86867D01*
X166057Y86095D01*
X166057Y81905D01*
X163095Y78943D01*
X158905Y78943D01*
X155943Y81905D01*
X155943Y86095D01*
X156716Y86867D01*
X156773Y86947D01*
X156835Y87022D01*
X156843Y87045D01*
X156858Y87065D01*
X156886Y87159D01*
X156921Y87250D01*
X156924Y87283D01*
X156929Y87299D01*
X156928Y87324D01*
X156935Y87397D01*
X156935Y113684D01*
X168916Y125665D01*
X212575Y125665D01*
X212648Y125677D01*
X212721Y125679D01*
X212767Y125696D01*
X212816Y125704D01*
X212881Y125739D01*
X212949Y125765D01*
X212988Y125796D01*
X213031Y125819D01*
X213081Y125873D01*
X213138Y125920D01*
X213164Y125962D01*
X213198Y125997D01*
X213228Y126064D01*
X213267Y126127D01*
X213278Y126175D01*
X213299Y126220D01*
X213306Y126293D01*
X213323Y126364D01*
X213318Y126413D01*
X213323Y126463D01*
X213306Y126534D01*
X213299Y126607D01*
X213279Y126652D01*
X213268Y126700D01*
X213229Y126763D01*
X213199Y126830D01*
X213152Y126886D01*
X213139Y126908D01*
X213126Y126918D01*
X213105Y126944D01*
X212543Y127505D01*
X212543Y131695D01*
X213032Y132183D01*
X213089Y132262D01*
X213151Y132338D01*
X213159Y132361D01*
X213174Y132381D01*
X213202Y132475D01*
X213237Y132566D01*
X213240Y132599D01*
X213245Y132615D01*
X213244Y132640D01*
X213251Y132713D01*
X213251Y134187D01*
X213235Y134283D01*
X213226Y134380D01*
X213216Y134403D01*
X213212Y134428D01*
X213166Y134514D01*
X213125Y134603D01*
X213104Y134628D01*
X213097Y134643D01*
X213078Y134660D01*
X213032Y134717D01*
X212343Y135405D01*
X212343Y139595D01*
X213032Y140283D01*
X213089Y140362D01*
X213151Y140438D01*
X213159Y140461D01*
X213174Y140481D01*
X213202Y140575D01*
X213237Y140666D01*
X213240Y140699D01*
X213245Y140715D01*
X213244Y140740D01*
X213251Y140813D01*
X213251Y141387D01*
X213235Y141483D01*
X213226Y141580D01*
X213216Y141603D01*
X213212Y141628D01*
X213166Y141714D01*
X213125Y141803D01*
X213104Y141828D01*
X213097Y141843D01*
X213078Y141860D01*
X213032Y141917D01*
X212043Y142905D01*
X212043Y147095D01*
X215005Y150057D01*
X219195Y150057D01*
X220183Y149068D01*
X220262Y149011D01*
X220338Y148949D01*
X220361Y148941D01*
X220381Y148926D01*
X220475Y148898D01*
X220566Y148863D01*
X220599Y148860D01*
X220615Y148855D01*
X220640Y148856D01*
X220713Y148849D01*
X220787Y148849D01*
X220883Y148865D01*
X220980Y148874D01*
X221003Y148884D01*
X221028Y148888D01*
X221114Y148934D01*
X221203Y148975D01*
X221228Y148996D01*
X221243Y149003D01*
X221260Y149022D01*
X221317Y149068D01*
X222405Y150157D01*
X226595Y150157D01*
X229557Y147195D01*
X229557Y143005D01*
X228281Y141730D01*
X228267Y141710D01*
X228248Y141694D01*
X228196Y141611D01*
X228139Y141531D01*
X228132Y141508D01*
X228119Y141487D01*
X228097Y141392D01*
X228068Y141298D01*
X228069Y141274D01*
X228063Y141250D01*
X228073Y141152D01*
X228076Y141054D01*
X228085Y141031D01*
X228087Y141007D01*
X228127Y140918D01*
X228162Y140826D01*
X228177Y140807D01*
X228187Y140784D01*
X228281Y140670D01*
X229660Y139291D01*
X229669Y139240D01*
X229671Y139167D01*
X229688Y139121D01*
X229696Y139072D01*
X229731Y139007D01*
X229757Y138938D01*
X229788Y138900D01*
X229811Y138857D01*
X229865Y138806D01*
X229912Y138750D01*
X229954Y138724D01*
X229989Y138690D01*
X230056Y138659D01*
X230119Y138621D01*
X230167Y138609D01*
X230212Y138589D01*
X230285Y138582D01*
X230356Y138565D01*
X230405Y138570D01*
X230455Y138565D01*
X230526Y138582D01*
X230599Y138589D01*
X230644Y138609D01*
X230692Y138620D01*
X230755Y138659D01*
X230822Y138689D01*
X230878Y138736D01*
X230900Y138749D01*
X230910Y138762D01*
X230936Y138783D01*
X232813Y140660D01*
X236827Y142323D01*
X241173Y142323D01*
X245187Y140660D01*
X247339Y138508D01*
X247399Y138465D01*
X247453Y138415D01*
X247497Y138394D01*
X247538Y138366D01*
X247608Y138344D01*
X247675Y138314D01*
X247724Y138309D01*
X247771Y138295D01*
X247844Y138297D01*
X247918Y138290D01*
X247966Y138301D01*
X248015Y138303D01*
X248084Y138329D01*
X248155Y138345D01*
X248197Y138371D01*
X248243Y138389D01*
X248300Y138435D01*
X248363Y138474D01*
X248394Y138512D01*
X248432Y138543D01*
X248471Y138606D01*
X248518Y138662D01*
X248535Y138708D01*
X248561Y138750D01*
X248578Y138822D01*
X248604Y138891D01*
X248611Y138964D01*
X248617Y138988D01*
X248615Y139005D01*
X248618Y139038D01*
X248618Y147726D01*
X248606Y147798D01*
X248604Y147871D01*
X248587Y147918D01*
X248579Y147966D01*
X248544Y148031D01*
X248518Y148100D01*
X248487Y148138D01*
X248464Y148181D01*
X248410Y148232D01*
X248363Y148289D01*
X248321Y148315D01*
X248286Y148348D01*
X248219Y148379D01*
X248156Y148418D01*
X248108Y148429D01*
X248063Y148449D01*
X247990Y148456D01*
X247919Y148473D01*
X247870Y148468D01*
X247820Y148473D01*
X247749Y148457D01*
X247676Y148449D01*
X247631Y148429D01*
X247583Y148418D01*
X247520Y148379D01*
X247453Y148349D01*
X247397Y148302D01*
X247375Y148289D01*
X247365Y148276D01*
X247339Y148255D01*
X246778Y147694D01*
X245257Y146589D01*
X243583Y145736D01*
X241796Y145155D01*
X240499Y144950D01*
X240499Y156050D01*
X240495Y156074D01*
X240498Y156098D01*
X240475Y156194D01*
X240459Y156291D01*
X240448Y156312D01*
X240442Y156336D01*
X240391Y156419D01*
X240344Y156506D01*
X240327Y156523D01*
X240314Y156543D01*
X240238Y156606D01*
X240166Y156673D01*
X240144Y156683D01*
X240125Y156698D01*
X240034Y156733D01*
X239944Y156773D01*
X239920Y156776D01*
X239897Y156785D01*
X239750Y156799D01*
X238999Y156799D01*
X238999Y156801D01*
X239750Y156801D01*
X239774Y156805D01*
X239798Y156802D01*
X239894Y156825D01*
X239991Y156841D01*
X240012Y156852D01*
X240036Y156858D01*
X240120Y156909D01*
X240206Y156956D01*
X240223Y156973D01*
X240243Y156986D01*
X240306Y157062D01*
X240373Y157134D01*
X240383Y157156D01*
X240398Y157175D01*
X240433Y157267D01*
X240474Y157356D01*
X240476Y157380D01*
X240485Y157403D01*
X240499Y157550D01*
X240499Y168650D01*
X241796Y168445D01*
X243583Y167864D01*
X245257Y167011D01*
X246778Y165906D01*
X247339Y165345D01*
X247399Y165302D01*
X247453Y165252D01*
X247497Y165231D01*
X247538Y165203D01*
X247608Y165181D01*
X247675Y165151D01*
X247724Y165146D01*
X247771Y165132D01*
X247844Y165134D01*
X247918Y165127D01*
X247966Y165138D01*
X248015Y165140D01*
X248084Y165165D01*
X248155Y165182D01*
X248197Y165208D01*
X248243Y165225D01*
X248300Y165272D01*
X248363Y165311D01*
X248394Y165349D01*
X248432Y165380D01*
X248471Y165442D01*
X248518Y165499D01*
X248535Y165545D01*
X248561Y165587D01*
X248578Y165659D01*
X248604Y165728D01*
X248611Y165801D01*
X248617Y165825D01*
X248615Y165841D01*
X248618Y165874D01*
X248618Y174562D01*
X248606Y174635D01*
X248604Y174708D01*
X248587Y174754D01*
X248579Y174803D01*
X248544Y174868D01*
X248518Y174937D01*
X248487Y174975D01*
X248464Y175018D01*
X248410Y175069D01*
X248363Y175125D01*
X248321Y175151D01*
X248286Y175185D01*
X248219Y175216D01*
X248156Y175254D01*
X248108Y175266D01*
X248063Y175286D01*
X247990Y175293D01*
X247919Y175310D01*
X247870Y175305D01*
X247820Y175310D01*
X247749Y175293D01*
X247676Y175286D01*
X247631Y175266D01*
X247583Y175255D01*
X247520Y175216D01*
X247453Y175186D01*
X247397Y175139D01*
X247375Y175126D01*
X247365Y175113D01*
X247339Y175092D01*
X245187Y172940D01*
X241173Y171277D01*
X236827Y171277D01*
X232813Y172940D01*
X229740Y176013D01*
X229053Y177673D01*
X228998Y177761D01*
X228924Y177880D01*
X228838Y177951D01*
X228736Y178035D01*
X228735Y178035D01*
X228603Y178085D01*
X228507Y178121D01*
X228506Y178121D01*
X228360Y178135D01*
X183146Y178135D01*
X166935Y194346D01*
X166935Y198603D01*
X166919Y198700D01*
X166910Y198796D01*
X166900Y198819D01*
X166896Y198844D01*
X166850Y198930D01*
X166809Y199019D01*
X166788Y199044D01*
X166781Y199059D01*
X166762Y199076D01*
X166716Y199133D01*
X166425Y199424D01*
X166345Y199481D01*
X166270Y199543D01*
X166247Y199551D01*
X166227Y199566D01*
X166133Y199594D01*
X166042Y199629D01*
X166009Y199632D01*
X165993Y199637D01*
X165968Y199636D01*
X165895Y199643D01*
X138944Y199643D01*
X138847Y199627D01*
X138750Y199618D01*
X138728Y199608D01*
X138703Y199604D01*
X138617Y199558D01*
X138528Y199517D01*
X138502Y199496D01*
X138488Y199489D01*
X138471Y199470D01*
X138414Y199424D01*
X118313Y179323D01*
X95746Y179323D01*
X95722Y179319D01*
X95697Y179322D01*
X95602Y179300D01*
X95505Y179284D01*
X95484Y179272D01*
X95460Y179266D01*
X95376Y179215D01*
X95290Y179169D01*
X95273Y179151D01*
X95252Y179138D01*
X95190Y179062D01*
X95123Y178991D01*
X95113Y178968D01*
X95097Y178949D01*
X95063Y178858D01*
X95022Y178768D01*
X95020Y178744D01*
X95011Y178721D01*
X94997Y178574D01*
X94997Y176465D01*
X95013Y176369D01*
X95022Y176272D01*
X95032Y176249D01*
X95036Y176224D01*
X95082Y176138D01*
X95123Y176049D01*
X95144Y176024D01*
X95151Y176009D01*
X95170Y175992D01*
X95216Y175935D01*
X96057Y175095D01*
X96057Y170905D01*
X93095Y167943D01*
X88905Y167943D01*
X85943Y170905D01*
X85943Y175095D01*
X87664Y176815D01*
X87721Y176895D01*
X87783Y176970D01*
X87791Y176993D01*
X87806Y177013D01*
X87834Y177107D01*
X87869Y177198D01*
X87872Y177231D01*
X87877Y177247D01*
X87876Y177272D01*
X87883Y177345D01*
X87883Y178574D01*
X87879Y178598D01*
X87882Y178623D01*
X87860Y178718D01*
X87844Y178815D01*
X87832Y178836D01*
X87826Y178860D01*
X87775Y178944D01*
X87729Y179030D01*
X87711Y179047D01*
X87698Y179068D01*
X87622Y179130D01*
X87551Y179197D01*
X87528Y179207D01*
X87509Y179223D01*
X87418Y179257D01*
X87328Y179298D01*
X87304Y179300D01*
X87281Y179309D01*
X87134Y179323D01*
X33970Y179323D01*
X33873Y179307D01*
X33776Y179298D01*
X33754Y179288D01*
X33729Y179284D01*
X33643Y179238D01*
X33554Y179197D01*
X33528Y179176D01*
X33514Y179169D01*
X33497Y179150D01*
X33440Y179104D01*
X28672Y174336D01*
X28629Y174276D01*
X28579Y174222D01*
X28558Y174178D01*
X28530Y174137D01*
X28508Y174067D01*
X28478Y174000D01*
X28473Y173951D01*
X28459Y173904D01*
X28461Y173831D01*
X28454Y173757D01*
X28465Y173709D01*
X28467Y173660D01*
X28492Y173591D01*
X28509Y173520D01*
X28535Y173478D01*
X28552Y173432D01*
X28599Y173375D01*
X28638Y173312D01*
X28676Y173281D01*
X28707Y173243D01*
X28770Y173204D01*
X28826Y173157D01*
X28872Y173140D01*
X28914Y173114D01*
X28986Y173097D01*
X29055Y173071D01*
X29128Y173064D01*
X29152Y173058D01*
X29168Y173060D01*
X29202Y173057D01*
X33235Y173057D01*
X35547Y170744D01*
X35627Y170687D01*
X35702Y170625D01*
X35725Y170617D01*
X35745Y170602D01*
X35839Y170574D01*
X35930Y170539D01*
X35963Y170536D01*
X35979Y170531D01*
X36004Y170532D01*
X36077Y170525D01*
X56046Y170525D01*
X61469Y165102D01*
X61469Y153848D01*
X61485Y153751D01*
X61494Y153654D01*
X61504Y153632D01*
X61508Y153607D01*
X61554Y153521D01*
X61595Y153432D01*
X61616Y153406D01*
X61623Y153392D01*
X61642Y153375D01*
X61688Y153318D01*
X64469Y150537D01*
X64469Y135412D01*
X64485Y135316D01*
X64494Y135219D01*
X64504Y135196D01*
X64508Y135171D01*
X64554Y135085D01*
X64595Y134997D01*
X64616Y134971D01*
X64623Y134956D01*
X64642Y134939D01*
X64688Y134882D01*
X68294Y131276D01*
X68374Y131219D01*
X68449Y131157D01*
X68472Y131149D01*
X68493Y131134D01*
X68586Y131106D01*
X68677Y131071D01*
X68710Y131068D01*
X68726Y131063D01*
X68751Y131064D01*
X68824Y131057D01*
X72095Y131057D01*
X75057Y128095D01*
X75057Y123905D01*
X72095Y120943D01*
X71872Y120943D01*
X71799Y120931D01*
X71726Y120929D01*
X71680Y120912D01*
X71631Y120904D01*
X71566Y120869D01*
X71497Y120843D01*
X71459Y120812D01*
X71416Y120789D01*
X71365Y120735D01*
X71309Y120688D01*
X71283Y120647D01*
X71249Y120611D01*
X71218Y120544D01*
X71180Y120481D01*
X71168Y120433D01*
X71148Y120388D01*
X71141Y120315D01*
X71124Y120244D01*
X71129Y120195D01*
X71124Y120145D01*
X71141Y120074D01*
X71148Y120001D01*
X71168Y119956D01*
X71179Y119908D01*
X71218Y119845D01*
X71248Y119778D01*
X71295Y119722D01*
X71308Y119700D01*
X71321Y119690D01*
X71342Y119664D01*
X78525Y112481D01*
X78525Y101356D01*
X78541Y101260D01*
X78550Y101163D01*
X78560Y101140D01*
X78564Y101115D01*
X78610Y101029D01*
X78651Y100941D01*
X78672Y100915D01*
X78679Y100900D01*
X78698Y100883D01*
X78744Y100826D01*
X80826Y98744D01*
X80906Y98687D01*
X80981Y98625D01*
X81004Y98617D01*
X81025Y98602D01*
X81118Y98574D01*
X81209Y98539D01*
X81242Y98536D01*
X81258Y98531D01*
X81283Y98532D01*
X81356Y98525D01*
X93063Y98525D01*
X93159Y98541D01*
X93256Y98550D01*
X93279Y98560D01*
X93304Y98564D01*
X93390Y98610D01*
X93479Y98651D01*
X93504Y98672D01*
X93519Y98679D01*
X93536Y98698D01*
X93593Y98744D01*
X94224Y99375D01*
X94281Y99454D01*
X94343Y99530D01*
X94351Y99553D01*
X94366Y99573D01*
X94394Y99667D01*
X94429Y99758D01*
X94432Y99791D01*
X94437Y99807D01*
X94436Y99832D01*
X94443Y99905D01*
X94443Y113473D01*
X103527Y122557D01*
X120095Y122557D01*
X120191Y122573D01*
X120288Y122582D01*
X120311Y122592D01*
X120336Y122596D01*
X120422Y122642D01*
X120511Y122683D01*
X120536Y122704D01*
X120551Y122711D01*
X120568Y122730D01*
X120625Y122776D01*
X121905Y124057D01*
X126095Y124057D01*
X128407Y121744D01*
X128486Y121687D01*
X128562Y121625D01*
X128585Y121617D01*
X128605Y121602D01*
X128699Y121574D01*
X128790Y121539D01*
X128823Y121536D01*
X128839Y121531D01*
X128864Y121532D01*
X128937Y121525D01*
X137046Y121525D01*
X150525Y108046D01*
X150525Y77937D01*
X150541Y77841D01*
X150550Y77744D01*
X150560Y77721D01*
X150564Y77696D01*
X150610Y77610D01*
X150651Y77521D01*
X150672Y77496D01*
X150679Y77481D01*
X150698Y77464D01*
X150744Y77407D01*
X153057Y75095D01*
X153057Y70905D01*
X150095Y67943D01*
X145905Y67943D01*
X142943Y70905D01*
X142943Y75095D01*
X145256Y77407D01*
X145313Y77487D01*
X145375Y77562D01*
X145383Y77585D01*
X145398Y77605D01*
X145426Y77699D01*
X145461Y77790D01*
X145464Y77823D01*
X145469Y77839D01*
X145468Y77864D01*
X145475Y77937D01*
X145475Y105644D01*
X145459Y105740D01*
X145450Y105837D01*
X145440Y105860D01*
X145436Y105885D01*
X145390Y105971D01*
X145349Y106059D01*
X145328Y106085D01*
X145321Y106100D01*
X145302Y106117D01*
X145256Y106174D01*
X135174Y116256D01*
X135094Y116313D01*
X135019Y116375D01*
X134996Y116383D01*
X134975Y116398D01*
X134882Y116426D01*
X134791Y116461D01*
X134758Y116464D01*
X134742Y116469D01*
X134717Y116468D01*
X134644Y116475D01*
X128937Y116475D01*
X128841Y116459D01*
X128744Y116450D01*
X128721Y116440D01*
X128696Y116436D01*
X128610Y116390D01*
X128521Y116349D01*
X128496Y116328D01*
X128481Y116321D01*
X128464Y116302D01*
X128407Y116256D01*
X126095Y113943D01*
X121905Y113943D01*
X120625Y115224D01*
X120546Y115281D01*
X120470Y115343D01*
X120447Y115351D01*
X120427Y115366D01*
X120333Y115394D01*
X120242Y115429D01*
X120209Y115432D01*
X120193Y115437D01*
X120168Y115436D01*
X120095Y115443D01*
X106784Y115443D01*
X106687Y115427D01*
X106590Y115418D01*
X106568Y115408D01*
X106543Y115404D01*
X106457Y115358D01*
X106368Y115317D01*
X106342Y115296D01*
X106328Y115289D01*
X106311Y115270D01*
X106254Y115224D01*
X101776Y110746D01*
X101719Y110667D01*
X101657Y110592D01*
X101649Y110568D01*
X101634Y110548D01*
X101606Y110455D01*
X101571Y110363D01*
X101568Y110330D01*
X101563Y110314D01*
X101564Y110289D01*
X101557Y110216D01*
X101557Y99905D01*
X101573Y99809D01*
X101582Y99712D01*
X101592Y99689D01*
X101596Y99664D01*
X101642Y99578D01*
X101683Y99489D01*
X101704Y99464D01*
X101711Y99449D01*
X101730Y99432D01*
X101776Y99375D01*
X103057Y98095D01*
X103057Y93905D01*
X99955Y90804D01*
X99912Y90744D01*
X99862Y90690D01*
X99842Y90646D01*
X99813Y90605D01*
X99792Y90535D01*
X99761Y90468D01*
X99756Y90419D01*
X99742Y90372D01*
X99744Y90299D01*
X99737Y90225D01*
X99748Y90177D01*
X99750Y90128D01*
X99776Y90059D01*
X99792Y89988D01*
X99818Y89946D01*
X99836Y89900D01*
X99882Y89843D01*
X99921Y89780D01*
X99959Y89749D01*
X99990Y89711D01*
X100053Y89672D01*
X100110Y89625D01*
X100156Y89608D01*
X100198Y89582D01*
X100269Y89565D01*
X100338Y89539D01*
X100411Y89532D01*
X100435Y89526D01*
X100452Y89528D01*
X100485Y89525D01*
X103063Y89525D01*
X103159Y89541D01*
X103256Y89550D01*
X103279Y89560D01*
X103304Y89564D01*
X103390Y89610D01*
X103479Y89651D01*
X103504Y89672D01*
X103519Y89679D01*
X103536Y89698D01*
X103593Y89744D01*
X105905Y92057D01*
X110095Y92057D01*
X113057Y89095D01*
X113057Y84905D01*
X111179Y83028D01*
X111122Y82948D01*
X111060Y82873D01*
X111051Y82849D01*
X111037Y82829D01*
X111008Y82736D01*
X110974Y82644D01*
X110973Y82620D01*
X110966Y82596D01*
X110969Y82498D01*
X110966Y82401D01*
X110973Y82377D01*
X110974Y82352D01*
X111008Y82261D01*
X111036Y82167D01*
X111051Y82147D01*
X111060Y82123D01*
X111122Y82048D01*
X111178Y81969D01*
X111204Y81948D01*
X111214Y81935D01*
X111235Y81922D01*
X111292Y81875D01*
X112511Y81061D01*
X113671Y79900D01*
X114583Y78536D01*
X115211Y77020D01*
X115531Y75411D01*
X115531Y70299D01*
X107950Y70299D01*
X107926Y70295D01*
X107902Y70298D01*
X107806Y70275D01*
X107709Y70259D01*
X107688Y70248D01*
X107664Y70242D01*
X107581Y70191D01*
X107494Y70144D01*
X107477Y70127D01*
X107457Y70114D01*
X107394Y70038D01*
X107327Y69966D01*
X107317Y69944D01*
X107302Y69925D01*
X107267Y69834D01*
X107227Y69744D01*
X107224Y69720D01*
X107215Y69697D01*
X107201Y69550D01*
X107201Y68799D01*
X107199Y68799D01*
X107199Y69550D01*
X107196Y69571D01*
X107198Y69589D01*
X107197Y69592D01*
X107198Y69598D01*
X107175Y69694D01*
X107159Y69791D01*
X107148Y69812D01*
X107142Y69836D01*
X107091Y69920D01*
X107044Y70006D01*
X107027Y70023D01*
X107014Y70043D01*
X106938Y70106D01*
X106866Y70173D01*
X106844Y70183D01*
X106825Y70198D01*
X106733Y70233D01*
X106644Y70274D01*
X106620Y70276D01*
X106597Y70285D01*
X106450Y70299D01*
X98869Y70299D01*
X98869Y75411D01*
X99189Y77020D01*
X99817Y78536D01*
X100037Y78864D01*
X100537Y79613D01*
X100537Y79614D01*
X100729Y79900D01*
X101890Y81061D01*
X103254Y81973D01*
X104072Y82311D01*
X104114Y82337D01*
X104160Y82355D01*
X104217Y82401D01*
X104279Y82440D01*
X104310Y82478D01*
X104348Y82509D01*
X104387Y82572D01*
X104434Y82629D01*
X104451Y82675D01*
X104477Y82716D01*
X104494Y82788D01*
X104520Y82857D01*
X104522Y82906D01*
X104533Y82954D01*
X104526Y83027D01*
X104528Y83101D01*
X104514Y83148D01*
X104509Y83197D01*
X104479Y83264D01*
X104458Y83335D01*
X104429Y83375D01*
X104409Y83419D01*
X104316Y83533D01*
X104315Y83533D01*
X104315Y83534D01*
X103593Y84256D01*
X103513Y84313D01*
X103438Y84375D01*
X103415Y84383D01*
X103395Y84398D01*
X103301Y84426D01*
X103210Y84461D01*
X103177Y84464D01*
X103161Y84469D01*
X103136Y84468D01*
X103063Y84475D01*
X90356Y84475D01*
X90260Y84459D01*
X90163Y84450D01*
X90140Y84440D01*
X90115Y84436D01*
X90029Y84390D01*
X89941Y84349D01*
X89915Y84328D01*
X89900Y84321D01*
X89883Y84302D01*
X89826Y84256D01*
X84744Y79174D01*
X84687Y79094D01*
X84625Y79019D01*
X84617Y78996D01*
X84602Y78975D01*
X84574Y78882D01*
X84539Y78791D01*
X84536Y78758D01*
X84531Y78742D01*
X84532Y78717D01*
X84525Y78644D01*
X84525Y57954D01*
X83276Y56706D01*
X83219Y56626D01*
X83157Y56551D01*
X83149Y56528D01*
X83134Y56507D01*
X83106Y56414D01*
X83071Y56323D01*
X83068Y56290D01*
X83063Y56274D01*
X83064Y56249D01*
X83057Y56176D01*
X83057Y52905D01*
X80095Y49943D01*
X75905Y49943D01*
X72943Y52905D01*
X72943Y57095D01*
X73513Y57664D01*
X73556Y57724D01*
X73606Y57778D01*
X73626Y57822D01*
X73655Y57863D01*
X73676Y57933D01*
X73707Y58000D01*
X73712Y58049D01*
X73726Y58096D01*
X73724Y58169D01*
X73731Y58243D01*
X73720Y58291D01*
X73718Y58340D01*
X73692Y58409D01*
X73676Y58480D01*
X73650Y58522D01*
X73632Y58568D01*
X73586Y58625D01*
X73547Y58688D01*
X73509Y58719D01*
X73478Y58757D01*
X73415Y58796D01*
X73358Y58843D01*
X73312Y58860D01*
X73270Y58886D01*
X73199Y58903D01*
X73130Y58929D01*
X73057Y58936D01*
X73033Y58942D01*
X73016Y58940D01*
X72983Y58943D01*
X72905Y58943D01*
X70593Y61256D01*
X70513Y61313D01*
X70438Y61375D01*
X70415Y61383D01*
X70395Y61398D01*
X70301Y61426D01*
X70210Y61461D01*
X70177Y61464D01*
X70161Y61469D01*
X70136Y61468D01*
X70063Y61475D01*
X65937Y61475D01*
X65841Y61459D01*
X65744Y61450D01*
X65721Y61440D01*
X65696Y61436D01*
X65610Y61390D01*
X65521Y61349D01*
X65496Y61328D01*
X65481Y61321D01*
X65464Y61302D01*
X65407Y61256D01*
X64095Y59943D01*
X59905Y59943D01*
X56943Y62905D01*
X56943Y67095D01*
X59905Y70057D01*
X64095Y70057D01*
X67092Y67059D01*
X67096Y67033D01*
X67108Y67012D01*
X67114Y66988D01*
X67165Y66904D01*
X67211Y66818D01*
X67229Y66801D01*
X67242Y66780D01*
X67318Y66718D01*
X67389Y66651D01*
X67412Y66641D01*
X67431Y66625D01*
X67522Y66591D01*
X67612Y66550D01*
X67636Y66548D01*
X67659Y66539D01*
X67806Y66525D01*
X70063Y66525D01*
X70159Y66541D01*
X70256Y66550D01*
X70279Y66560D01*
X70304Y66564D01*
X70390Y66610D01*
X70479Y66651D01*
X70504Y66672D01*
X70519Y66679D01*
X70535Y66697D01*
X70538Y66698D01*
X70541Y66702D01*
X70593Y66744D01*
X72905Y69057D01*
X77095Y69057D01*
X78196Y67955D01*
X78256Y67912D01*
X78310Y67862D01*
X78354Y67842D01*
X78395Y67813D01*
X78465Y67792D01*
X78532Y67761D01*
X78581Y67756D01*
X78628Y67742D01*
X78701Y67744D01*
X78775Y67737D01*
X78823Y67748D01*
X78872Y67750D01*
X78941Y67776D01*
X79012Y67792D01*
X79054Y67818D01*
X79100Y67836D01*
X79157Y67882D01*
X79220Y67921D01*
X79251Y67959D01*
X79289Y67990D01*
X79328Y68053D01*
X79375Y68110D01*
X79392Y68156D01*
X79418Y68198D01*
X79435Y68269D01*
X79461Y68338D01*
X79468Y68411D01*
X79474Y68435D01*
X79472Y68452D01*
X79475Y68485D01*
X79475Y81046D01*
X87954Y89525D01*
X95515Y89525D01*
X95588Y89537D01*
X95661Y89539D01*
X95707Y89556D01*
X95756Y89564D01*
X95821Y89599D01*
X95889Y89625D01*
X95928Y89656D01*
X95971Y89679D01*
X96021Y89733D01*
X96078Y89780D01*
X96104Y89822D01*
X96138Y89857D01*
X96168Y89924D01*
X96207Y89987D01*
X96218Y90035D01*
X96239Y90080D01*
X96246Y90153D01*
X96263Y90224D01*
X96258Y90273D01*
X96263Y90323D01*
X96246Y90394D01*
X96239Y90467D01*
X96219Y90512D01*
X96208Y90560D01*
X96169Y90623D01*
X96139Y90690D01*
X96092Y90746D01*
X96079Y90768D01*
X96066Y90778D01*
X96045Y90804D01*
X93593Y93256D01*
X93514Y93313D01*
X93438Y93375D01*
X93415Y93383D01*
X93395Y93398D01*
X93301Y93426D01*
X93210Y93461D01*
X93177Y93464D01*
X93161Y93469D01*
X93136Y93468D01*
X93063Y93475D01*
X78954Y93475D01*
X73475Y98954D01*
X73475Y110079D01*
X73459Y110176D01*
X73450Y110273D01*
X73440Y110295D01*
X73436Y110320D01*
X73390Y110406D01*
X73349Y110495D01*
X73328Y110521D01*
X73321Y110535D01*
X73302Y110552D01*
X73256Y110609D01*
X55895Y127970D01*
X55895Y146676D01*
X55879Y146772D01*
X55870Y146869D01*
X55860Y146892D01*
X55856Y146916D01*
X55810Y147002D01*
X55769Y147091D01*
X55748Y147117D01*
X55741Y147132D01*
X55722Y147149D01*
X55676Y147205D01*
X53046Y149835D01*
X53026Y149849D01*
X53011Y149868D01*
X52927Y149920D01*
X52848Y149977D01*
X52824Y149984D01*
X52803Y149997D01*
X52708Y150020D01*
X52614Y150048D01*
X52590Y150047D01*
X52566Y150053D01*
X52468Y150043D01*
X52370Y150040D01*
X52347Y150032D01*
X52323Y150029D01*
X52234Y149989D01*
X52142Y149954D01*
X52123Y149939D01*
X52101Y149929D01*
X51986Y149835D01*
X50095Y147943D01*
X45905Y147943D01*
X42943Y150905D01*
X42943Y155095D01*
X45905Y158057D01*
X50095Y158057D01*
X52407Y155744D01*
X52486Y155687D01*
X52562Y155625D01*
X52585Y155617D01*
X52605Y155602D01*
X52699Y155574D01*
X52790Y155539D01*
X52823Y155536D01*
X52839Y155531D01*
X52864Y155532D01*
X52937Y155525D01*
X54498Y155525D01*
X55140Y154882D01*
X55200Y154839D01*
X55254Y154789D01*
X55298Y154769D01*
X55339Y154740D01*
X55409Y154719D01*
X55476Y154688D01*
X55525Y154683D01*
X55572Y154669D01*
X55645Y154671D01*
X55719Y154664D01*
X55767Y154675D01*
X55816Y154677D01*
X55885Y154703D01*
X55956Y154719D01*
X55998Y154745D01*
X56044Y154763D01*
X56101Y154809D01*
X56164Y154848D01*
X56195Y154886D01*
X56233Y154917D01*
X56272Y154980D01*
X56319Y155037D01*
X56336Y155083D01*
X56362Y155125D01*
X56379Y155196D01*
X56405Y155265D01*
X56412Y155338D01*
X56418Y155362D01*
X56416Y155379D01*
X56419Y155412D01*
X56419Y162700D01*
X56403Y162796D01*
X56394Y162893D01*
X56384Y162916D01*
X56380Y162941D01*
X56334Y163027D01*
X56293Y163115D01*
X56272Y163141D01*
X56265Y163156D01*
X56246Y163173D01*
X56200Y163230D01*
X54174Y165256D01*
X54094Y165313D01*
X54019Y165375D01*
X53996Y165383D01*
X53975Y165398D01*
X53882Y165426D01*
X53791Y165461D01*
X53758Y165464D01*
X53742Y165469D01*
X53717Y165468D01*
X53644Y165475D01*
X36077Y165475D01*
X35981Y165459D01*
X35884Y165450D01*
X35861Y165440D01*
X35836Y165436D01*
X35750Y165390D01*
X35661Y165349D01*
X35636Y165328D01*
X35621Y165321D01*
X35604Y165302D01*
X35547Y165256D01*
X33235Y162943D01*
X29045Y162943D01*
X27790Y164199D01*
X27730Y164242D01*
X27676Y164292D01*
X27632Y164312D01*
X27591Y164341D01*
X27521Y164362D01*
X27454Y164393D01*
X27405Y164398D01*
X27358Y164412D01*
X27285Y164410D01*
X27211Y164417D01*
X27163Y164406D01*
X27114Y164404D01*
X27045Y164378D01*
X26974Y164362D01*
X26932Y164336D01*
X26886Y164318D01*
X26829Y164272D01*
X26766Y164233D01*
X26735Y164195D01*
X26697Y164164D01*
X26658Y164101D01*
X26611Y164044D01*
X26594Y163998D01*
X26568Y163956D01*
X26551Y163885D01*
X26525Y163816D01*
X26518Y163743D01*
X26512Y163719D01*
X26514Y163702D01*
X26511Y163669D01*
X26511Y142881D01*
X20187Y136557D01*
X20108Y136447D01*
X20045Y136359D01*
X20008Y136238D01*
X19974Y136126D01*
X19974Y136125D01*
X19979Y135968D01*
X19982Y135882D01*
X19982Y135881D01*
X20025Y135741D01*
X20923Y133573D01*
X20923Y129227D01*
X19260Y125213D01*
X16187Y122140D01*
X12173Y120477D01*
X7827Y120477D01*
X3813Y122140D01*
X1661Y124292D01*
X1601Y124335D01*
X1547Y124385D01*
X1503Y124406D01*
X1462Y124434D01*
X1392Y124456D01*
X1325Y124486D01*
X1276Y124491D01*
X1229Y124505D01*
X1156Y124503D01*
X1082Y124510D01*
X1034Y124499D01*
X985Y124497D01*
X916Y124471D01*
X845Y124455D01*
X803Y124429D01*
X757Y124411D01*
X700Y124365D01*
X637Y124326D01*
X606Y124288D01*
X568Y124257D01*
X529Y124194D01*
X482Y124138D01*
X465Y124092D01*
X439Y124050D01*
X422Y123978D01*
X396Y123909D01*
X389Y123836D01*
X383Y123812D01*
X385Y123795D01*
X382Y123762D01*
X382Y113638D01*
X394Y113565D01*
X396Y113492D01*
X413Y113446D01*
X421Y113397D01*
X456Y113332D01*
X482Y113263D01*
X513Y113225D01*
X536Y113182D01*
X590Y113131D01*
X637Y113075D01*
X679Y113049D01*
X714Y113015D01*
X781Y112984D01*
X844Y112946D01*
X892Y112934D01*
X937Y112914D01*
X1010Y112907D01*
X1081Y112890D01*
X1130Y112895D01*
X1180Y112890D01*
X1251Y112907D01*
X1324Y112914D01*
X1369Y112934D01*
X1417Y112945D01*
X1480Y112984D01*
X1547Y113014D01*
X1603Y113061D01*
X1625Y113074D01*
X1635Y113087D01*
X1661Y113108D01*
X3813Y115260D01*
X7827Y116923D01*
X12173Y116923D01*
X16187Y115260D01*
X19260Y112187D01*
X20923Y108173D01*
X20923Y103827D01*
X19260Y99813D01*
X16187Y96740D01*
X12173Y95077D01*
X7827Y95077D01*
X3813Y96740D01*
X1661Y98892D01*
X1601Y98935D01*
X1547Y98985D01*
X1503Y99006D01*
X1462Y99034D01*
X1392Y99056D01*
X1325Y99086D01*
X1276Y99091D01*
X1229Y99105D01*
X1156Y99103D01*
X1082Y99110D01*
X1034Y99099D01*
X985Y99097D01*
X916Y99071D01*
X845Y99055D01*
X803Y99029D01*
X757Y99011D01*
X700Y98965D01*
X637Y98926D01*
X606Y98888D01*
X568Y98857D01*
X529Y98794D01*
X482Y98738D01*
X465Y98692D01*
X439Y98650D01*
X422Y98578D01*
X396Y98509D01*
X389Y98436D01*
X383Y98412D01*
X385Y98395D01*
X382Y98362D01*
X382Y24134D01*
X392Y24071D01*
X393Y24007D01*
X412Y23951D01*
X421Y23893D01*
X452Y23836D01*
X464Y23800D01*
X385Y22926D01*
X386Y22904D01*
X382Y22858D01*
X382Y21839D01*
X381Y21836D01*
X377Y21802D01*
X372Y21786D01*
X373Y21761D01*
X366Y21689D01*
X359Y19401D01*
X363Y19377D01*
X360Y19352D01*
X384Y19206D01*
X2082Y12818D01*
X2105Y12766D01*
X2119Y12710D01*
X2175Y12611D01*
X2182Y12596D01*
X2186Y12591D01*
X2192Y12581D01*
X5979Y7164D01*
X6020Y7123D01*
X6052Y7076D01*
X6138Y7002D01*
X6150Y6990D01*
X6156Y6987D01*
X6164Y6979D01*
X11581Y3192D01*
X11633Y3167D01*
X11680Y3134D01*
X11786Y3094D01*
X11801Y3086D01*
X11808Y3086D01*
X11818Y3082D01*
X18206Y1384D01*
X18231Y1381D01*
X18254Y1373D01*
X18401Y1359D01*
X19686Y1363D01*
G37*
%LPC*%
G36*
X162954Y34475D02*
X162954Y34475D01*
X161256Y36174D01*
X157320Y40109D01*
X157300Y40124D01*
X157285Y40143D01*
X157214Y40186D01*
X157175Y40219D01*
X157159Y40225D01*
X157122Y40251D01*
X157098Y40259D01*
X157078Y40272D01*
X156982Y40294D01*
X156952Y40303D01*
X156946Y40305D01*
X156944Y40305D01*
X156888Y40322D01*
X156864Y40322D01*
X156840Y40327D01*
X156743Y40318D01*
X156644Y40314D01*
X156622Y40306D01*
X156597Y40303D01*
X156548Y40281D01*
X156541Y40280D01*
X156515Y40266D01*
X156508Y40263D01*
X156416Y40229D01*
X156397Y40213D01*
X156375Y40203D01*
X156334Y40170D01*
X156325Y40165D01*
X156315Y40154D01*
X156261Y40109D01*
X154095Y37943D01*
X149905Y37943D01*
X146943Y40905D01*
X146943Y45095D01*
X149905Y48057D01*
X154095Y48057D01*
X156407Y45744D01*
X156487Y45687D01*
X156562Y45625D01*
X156585Y45617D01*
X156605Y45602D01*
X156699Y45574D01*
X156790Y45539D01*
X156823Y45536D01*
X156839Y45531D01*
X156864Y45532D01*
X156937Y45525D01*
X159046Y45525D01*
X164826Y39744D01*
X164906Y39687D01*
X164981Y39625D01*
X165004Y39617D01*
X165025Y39602D01*
X165118Y39574D01*
X165209Y39539D01*
X165242Y39536D01*
X165258Y39531D01*
X165283Y39532D01*
X165356Y39525D01*
X219644Y39525D01*
X219740Y39541D01*
X219837Y39550D01*
X219860Y39560D01*
X219885Y39564D01*
X219971Y39610D01*
X220059Y39651D01*
X220085Y39672D01*
X220100Y39679D01*
X220117Y39698D01*
X220174Y39744D01*
X223256Y42826D01*
X223307Y42897D01*
X223309Y42900D01*
X223311Y42903D01*
X223313Y42906D01*
X223375Y42981D01*
X223383Y43004D01*
X223398Y43025D01*
X223426Y43118D01*
X223461Y43209D01*
X223464Y43242D01*
X223469Y43258D01*
X223468Y43283D01*
X223475Y43356D01*
X223475Y79063D01*
X223459Y79159D01*
X223450Y79256D01*
X223440Y79279D01*
X223436Y79304D01*
X223390Y79390D01*
X223349Y79479D01*
X223328Y79504D01*
X223321Y79519D01*
X223302Y79536D01*
X223256Y79593D01*
X220943Y81905D01*
X220943Y86095D01*
X223905Y89057D01*
X228095Y89057D01*
X231057Y86095D01*
X231057Y81905D01*
X228744Y79593D01*
X228687Y79514D01*
X228625Y79438D01*
X228617Y79415D01*
X228602Y79395D01*
X228574Y79301D01*
X228539Y79210D01*
X228536Y79177D01*
X228531Y79161D01*
X228532Y79136D01*
X228525Y79063D01*
X228525Y40954D01*
X222046Y34475D01*
X162954Y34475D01*
G37*
%LPD*%
%LPC*%
G36*
X129985Y232433D02*
X129985Y232433D01*
X127023Y235395D01*
X127023Y239585D01*
X129336Y241897D01*
X129393Y241977D01*
X129455Y242052D01*
X129463Y242075D01*
X129478Y242095D01*
X129506Y242189D01*
X129541Y242280D01*
X129544Y242313D01*
X129549Y242329D01*
X129548Y242354D01*
X129555Y242427D01*
X129555Y269154D01*
X129539Y269250D01*
X129530Y269347D01*
X129520Y269370D01*
X129516Y269395D01*
X129470Y269481D01*
X129429Y269569D01*
X129408Y269595D01*
X129401Y269610D01*
X129382Y269627D01*
X129336Y269684D01*
X121094Y277926D01*
X121014Y277983D01*
X120939Y278045D01*
X120916Y278053D01*
X120895Y278068D01*
X120802Y278096D01*
X120711Y278131D01*
X120678Y278134D01*
X120662Y278139D01*
X120637Y278138D01*
X120564Y278145D01*
X88757Y278145D01*
X88661Y278129D01*
X88564Y278120D01*
X88541Y278110D01*
X88516Y278106D01*
X88430Y278060D01*
X88341Y278019D01*
X88316Y277998D01*
X88301Y277991D01*
X88284Y277972D01*
X88227Y277926D01*
X85915Y275613D01*
X81725Y275613D01*
X78763Y278575D01*
X78763Y282765D01*
X81725Y285727D01*
X85915Y285727D01*
X88227Y283414D01*
X88307Y283357D01*
X88382Y283295D01*
X88405Y283287D01*
X88425Y283272D01*
X88519Y283244D01*
X88610Y283209D01*
X88643Y283206D01*
X88659Y283201D01*
X88684Y283202D01*
X88757Y283195D01*
X122966Y283195D01*
X134605Y271556D01*
X134605Y242427D01*
X134621Y242331D01*
X134630Y242234D01*
X134640Y242211D01*
X134644Y242186D01*
X134690Y242100D01*
X134731Y242011D01*
X134752Y241986D01*
X134759Y241971D01*
X134778Y241954D01*
X134824Y241897D01*
X137137Y239585D01*
X137137Y235395D01*
X134175Y232433D01*
X129985Y232433D01*
G37*
%LPD*%
%LPC*%
G36*
X173618Y67075D02*
X173618Y67075D01*
X172725Y67968D01*
X172725Y94632D01*
X173618Y95525D01*
X187582Y95525D01*
X188475Y94632D01*
X188475Y67968D01*
X187582Y67075D01*
X173618Y67075D01*
G37*
%LPD*%
G36*
X225126Y127691D02*
X225126Y127691D01*
X225252Y127698D01*
X225298Y127711D01*
X225346Y127717D01*
X225465Y127759D01*
X225587Y127794D01*
X225629Y127818D01*
X225674Y127834D01*
X225781Y127903D01*
X225891Y127964D01*
X225937Y128004D01*
X225967Y128023D01*
X226001Y128058D01*
X226077Y128123D01*
X226377Y128423D01*
X226456Y128522D01*
X226540Y128616D01*
X226564Y128658D01*
X226594Y128696D01*
X226648Y128810D01*
X226709Y128921D01*
X226722Y128967D01*
X226743Y129011D01*
X226769Y129134D01*
X226804Y129256D01*
X226809Y129317D01*
X226816Y129352D01*
X226815Y129400D01*
X226823Y129500D01*
X226823Y145100D01*
X226809Y145226D01*
X226802Y145352D01*
X226789Y145398D01*
X226783Y145446D01*
X226741Y145565D01*
X226706Y145687D01*
X226682Y145729D01*
X226666Y145774D01*
X226597Y145881D01*
X226536Y145991D01*
X226496Y146037D01*
X226477Y146067D01*
X226442Y146101D01*
X226377Y146177D01*
X225677Y146877D01*
X225578Y146956D01*
X225484Y147040D01*
X225442Y147064D01*
X225404Y147094D01*
X225290Y147148D01*
X225179Y147209D01*
X225133Y147222D01*
X225089Y147243D01*
X224966Y147269D01*
X224844Y147304D01*
X224783Y147309D01*
X224748Y147316D01*
X224700Y147315D01*
X224600Y147323D01*
X216300Y147323D01*
X216274Y147320D01*
X216248Y147322D01*
X216101Y147300D01*
X215954Y147283D01*
X215929Y147275D01*
X215903Y147271D01*
X215765Y147216D01*
X215626Y147166D01*
X215604Y147152D01*
X215579Y147142D01*
X215458Y147057D01*
X215333Y146977D01*
X215315Y146958D01*
X215293Y146943D01*
X215194Y146833D01*
X215091Y146726D01*
X215077Y146704D01*
X215060Y146684D01*
X214988Y146554D01*
X214912Y146427D01*
X214904Y146402D01*
X214891Y146379D01*
X214851Y146236D01*
X214806Y146095D01*
X214804Y146069D01*
X214796Y146044D01*
X214777Y145800D01*
X214777Y129200D01*
X214780Y129174D01*
X214778Y129148D01*
X214800Y129001D01*
X214817Y128854D01*
X214825Y128829D01*
X214829Y128803D01*
X214884Y128665D01*
X214934Y128526D01*
X214948Y128504D01*
X214958Y128479D01*
X215043Y128358D01*
X215123Y128233D01*
X215142Y128215D01*
X215157Y128193D01*
X215267Y128094D01*
X215374Y127991D01*
X215396Y127977D01*
X215416Y127960D01*
X215546Y127888D01*
X215673Y127812D01*
X215698Y127804D01*
X215721Y127791D01*
X215864Y127751D01*
X216005Y127706D01*
X216031Y127704D01*
X216056Y127696D01*
X216300Y127677D01*
X225000Y127677D01*
X225126Y127691D01*
G37*
%LPC*%
G36*
X22299Y67301D02*
X22299Y67301D01*
X29131Y67301D01*
X29131Y67119D01*
X29143Y67046D01*
X29145Y66973D01*
X29162Y66927D01*
X29170Y66878D01*
X29205Y66813D01*
X29231Y66744D01*
X29262Y66706D01*
X29285Y66663D01*
X29339Y66613D01*
X29386Y66556D01*
X29428Y66530D01*
X29463Y66496D01*
X29530Y66466D01*
X29593Y66427D01*
X29641Y66416D01*
X29686Y66395D01*
X29759Y66388D01*
X29830Y66371D01*
X29879Y66376D01*
X29929Y66371D01*
X30000Y66388D01*
X30073Y66395D01*
X30118Y66415D01*
X30166Y66426D01*
X30229Y66465D01*
X30296Y66495D01*
X30352Y66542D01*
X30374Y66555D01*
X30384Y66568D01*
X30410Y66589D01*
X31984Y68163D01*
X34006Y69001D01*
X36194Y69001D01*
X38216Y68163D01*
X39763Y66616D01*
X40601Y64594D01*
X40601Y62406D01*
X39763Y60384D01*
X38216Y58837D01*
X36194Y57999D01*
X34006Y57999D01*
X31984Y58837D01*
X30437Y60384D01*
X30257Y60818D01*
X30244Y60839D01*
X30237Y60862D01*
X30180Y60942D01*
X30128Y61025D01*
X30109Y61041D01*
X30095Y61061D01*
X30015Y61118D01*
X29940Y61180D01*
X29916Y61189D01*
X29896Y61203D01*
X29803Y61231D01*
X29711Y61266D01*
X29687Y61267D01*
X29663Y61274D01*
X29565Y61271D01*
X29467Y61274D01*
X29444Y61267D01*
X29419Y61266D01*
X29328Y61232D01*
X29234Y61203D01*
X29214Y61189D01*
X29191Y61180D01*
X29115Y61118D01*
X29035Y61061D01*
X29021Y61041D01*
X29002Y61026D01*
X28950Y60943D01*
X28893Y60863D01*
X28886Y60840D01*
X28873Y60819D01*
X28830Y60677D01*
X28811Y60580D01*
X28183Y59064D01*
X27952Y58718D01*
X27451Y57969D01*
X27271Y57700D01*
X26110Y56539D01*
X24746Y55627D01*
X23230Y54999D01*
X22299Y54814D01*
X22299Y67301D01*
G37*
%LPD*%
%LPC*%
G36*
X104770Y54999D02*
X104770Y54999D01*
X103254Y55627D01*
X101890Y56539D01*
X100729Y57700D01*
X99817Y59064D01*
X99189Y60580D01*
X99170Y60677D01*
X99161Y60700D01*
X99159Y60725D01*
X99119Y60814D01*
X99084Y60906D01*
X99069Y60925D01*
X99058Y60947D01*
X98991Y61019D01*
X98929Y61094D01*
X98909Y61107D01*
X98892Y61125D01*
X98805Y61172D01*
X98722Y61223D01*
X98698Y61229D01*
X98676Y61241D01*
X98580Y61257D01*
X98485Y61279D01*
X98460Y61276D01*
X98436Y61280D01*
X98339Y61265D01*
X98242Y61255D01*
X98219Y61245D01*
X98195Y61241D01*
X98109Y61195D01*
X98019Y61155D01*
X98001Y61138D01*
X97980Y61126D01*
X97913Y61055D01*
X97841Y60988D01*
X97830Y60966D01*
X97813Y60948D01*
X97743Y60818D01*
X97563Y60384D01*
X96016Y58837D01*
X93994Y57999D01*
X91806Y57999D01*
X89784Y58837D01*
X88237Y60384D01*
X87399Y62406D01*
X87399Y64594D01*
X88237Y66616D01*
X89784Y68163D01*
X91806Y69001D01*
X93994Y69001D01*
X96016Y68163D01*
X97590Y66589D01*
X97650Y66546D01*
X97704Y66496D01*
X97748Y66476D01*
X97789Y66447D01*
X97859Y66425D01*
X97926Y66395D01*
X97975Y66390D01*
X98022Y66376D01*
X98095Y66378D01*
X98169Y66371D01*
X98217Y66382D01*
X98266Y66384D01*
X98335Y66410D01*
X98406Y66426D01*
X98448Y66452D01*
X98494Y66470D01*
X98551Y66516D01*
X98614Y66555D01*
X98645Y66593D01*
X98683Y66624D01*
X98722Y66687D01*
X98769Y66744D01*
X98786Y66790D01*
X98812Y66832D01*
X98829Y66903D01*
X98855Y66972D01*
X98862Y67045D01*
X98868Y67069D01*
X98866Y67086D01*
X98869Y67119D01*
X98869Y67301D01*
X105701Y67301D01*
X105701Y54814D01*
X104770Y54999D01*
G37*
%LPD*%
%LPC*%
G36*
X204899Y82699D02*
X204899Y82699D01*
X204899Y96441D01*
X210084Y96441D01*
X210731Y96268D01*
X211310Y95933D01*
X211783Y95460D01*
X212118Y94881D01*
X212291Y94234D01*
X212291Y82699D01*
X204899Y82699D01*
G37*
%LPD*%
%LPC*%
G36*
X204899Y65959D02*
X204899Y65959D01*
X204899Y79701D01*
X212291Y79701D01*
X212291Y68166D01*
X212118Y67519D01*
X211783Y66940D01*
X211310Y66467D01*
X210731Y66132D01*
X210084Y65959D01*
X204899Y65959D01*
G37*
%LPD*%
%LPC*%
G36*
X194509Y82699D02*
X194509Y82699D01*
X194509Y94234D01*
X194682Y94881D01*
X195017Y95460D01*
X195490Y95933D01*
X196069Y96268D01*
X196716Y96441D01*
X201901Y96441D01*
X201901Y82699D01*
X194509Y82699D01*
G37*
%LPD*%
%LPC*%
G36*
X196716Y65959D02*
X196716Y65959D01*
X196069Y66132D01*
X195490Y66467D01*
X195017Y66940D01*
X194682Y67519D01*
X194509Y68166D01*
X194509Y79701D01*
X201901Y79701D01*
X201901Y65959D01*
X196716Y65959D01*
G37*
%LPD*%
%LPC*%
G36*
X227150Y158299D02*
X227150Y158299D01*
X227355Y159596D01*
X227936Y161383D01*
X228789Y163057D01*
X229894Y164577D01*
X231223Y165906D01*
X232743Y167011D01*
X234417Y167864D01*
X236204Y168445D01*
X237501Y168650D01*
X237501Y158299D01*
X227150Y158299D01*
G37*
%LPD*%
%LPC*%
G36*
X227150Y107499D02*
X227150Y107499D01*
X227355Y108796D01*
X227936Y110583D01*
X228789Y112257D01*
X229894Y113777D01*
X231223Y115106D01*
X232743Y116211D01*
X234417Y117064D01*
X236204Y117645D01*
X237501Y117850D01*
X237501Y107499D01*
X227150Y107499D01*
G37*
%LPD*%
%LPC*%
G36*
X236204Y145155D02*
X236204Y145155D01*
X234417Y145736D01*
X232743Y146589D01*
X231223Y147694D01*
X229894Y149023D01*
X228789Y150543D01*
X227936Y152217D01*
X227355Y154004D01*
X227150Y155301D01*
X237501Y155301D01*
X237501Y144950D01*
X236204Y145155D01*
G37*
%LPD*%
%LPC*%
G36*
X236204Y94355D02*
X236204Y94355D01*
X234417Y94936D01*
X232743Y95789D01*
X231223Y96894D01*
X229894Y98223D01*
X228789Y99743D01*
X227936Y101417D01*
X227355Y103204D01*
X227150Y104501D01*
X237501Y104501D01*
X237501Y94150D01*
X236204Y94355D01*
G37*
%LPD*%
%LPC*%
G36*
X22299Y70299D02*
X22299Y70299D01*
X22299Y82786D01*
X23230Y82601D01*
X24746Y81973D01*
X26110Y81061D01*
X27271Y79900D01*
X28183Y78536D01*
X28811Y77020D01*
X29131Y75411D01*
X29131Y70299D01*
X22299Y70299D01*
G37*
%LPD*%
%LPC*%
G36*
X22299Y28499D02*
X22299Y28499D01*
X22299Y40986D01*
X23230Y40801D01*
X24746Y40173D01*
X26110Y39261D01*
X27271Y38100D01*
X28183Y36736D01*
X28811Y35220D01*
X29131Y33611D01*
X29131Y28499D01*
X22299Y28499D01*
G37*
%LPD*%
%LPC*%
G36*
X108699Y28499D02*
X108699Y28499D01*
X108699Y40986D01*
X109630Y40801D01*
X111146Y40173D01*
X112510Y39261D01*
X113671Y38100D01*
X114583Y36736D01*
X115211Y35220D01*
X115531Y33611D01*
X115531Y28499D01*
X108699Y28499D01*
G37*
%LPD*%
%LPC*%
G36*
X108699Y67301D02*
X108699Y67301D01*
X115531Y67301D01*
X115531Y62189D01*
X115211Y60580D01*
X114583Y59064D01*
X114352Y58718D01*
X113851Y57969D01*
X113671Y57700D01*
X112510Y56539D01*
X111146Y55627D01*
X109630Y54999D01*
X108699Y54814D01*
X108699Y67301D01*
G37*
%LPD*%
%LPC*%
G36*
X108699Y25501D02*
X108699Y25501D01*
X115531Y25501D01*
X115531Y20389D01*
X115211Y18780D01*
X114583Y17264D01*
X114246Y16760D01*
X113746Y16011D01*
X113745Y16011D01*
X113671Y15900D01*
X112510Y14739D01*
X111146Y13827D01*
X109630Y13199D01*
X108699Y13014D01*
X108699Y25501D01*
G37*
%LPD*%
%LPC*%
G36*
X22299Y25501D02*
X22299Y25501D01*
X29131Y25501D01*
X29131Y20389D01*
X28811Y18780D01*
X28183Y17264D01*
X27846Y16760D01*
X27346Y16011D01*
X27345Y16011D01*
X27271Y15900D01*
X26110Y14739D01*
X24746Y13827D01*
X23230Y13199D01*
X22299Y13014D01*
X22299Y25501D01*
G37*
%LPD*%
%LPC*%
G36*
X12469Y70299D02*
X12469Y70299D01*
X12469Y75411D01*
X12789Y77020D01*
X13417Y78536D01*
X13637Y78864D01*
X14137Y79613D01*
X14137Y79614D01*
X14329Y79900D01*
X15490Y81061D01*
X16854Y81973D01*
X18370Y82601D01*
X19301Y82786D01*
X19301Y70299D01*
X12469Y70299D01*
G37*
%LPD*%
%LPC*%
G36*
X12469Y28499D02*
X12469Y28499D01*
X12469Y33611D01*
X12789Y35220D01*
X13417Y36736D01*
X13531Y36906D01*
X14032Y37655D01*
X14032Y37656D01*
X14329Y38100D01*
X15490Y39261D01*
X16854Y40173D01*
X18370Y40801D01*
X19301Y40986D01*
X19301Y28499D01*
X12469Y28499D01*
G37*
%LPD*%
%LPC*%
G36*
X98869Y28499D02*
X98869Y28499D01*
X98869Y33611D01*
X99189Y35220D01*
X99817Y36736D01*
X99931Y36906D01*
X100432Y37655D01*
X100432Y37656D01*
X100729Y38100D01*
X101890Y39261D01*
X103254Y40173D01*
X104770Y40801D01*
X105701Y40986D01*
X105701Y28499D01*
X98869Y28499D01*
G37*
%LPD*%
%LPC*%
G36*
X18370Y54999D02*
X18370Y54999D01*
X16854Y55627D01*
X15490Y56539D01*
X14329Y57700D01*
X13417Y59064D01*
X12789Y60580D01*
X12469Y62189D01*
X12469Y67301D01*
X19301Y67301D01*
X19301Y54814D01*
X18370Y54999D01*
G37*
%LPD*%
%LPC*%
G36*
X18370Y13199D02*
X18370Y13199D01*
X16854Y13827D01*
X15490Y14739D01*
X14329Y15900D01*
X13417Y17264D01*
X12789Y18780D01*
X12469Y20389D01*
X12469Y25501D01*
X19301Y25501D01*
X19301Y13014D01*
X18370Y13199D01*
G37*
%LPD*%
%LPC*%
G36*
X104770Y13199D02*
X104770Y13199D01*
X103254Y13827D01*
X101890Y14739D01*
X100729Y15900D01*
X99817Y17264D01*
X99189Y18780D01*
X98869Y20389D01*
X98869Y25501D01*
X105701Y25501D01*
X105701Y13014D01*
X104770Y13199D01*
G37*
%LPD*%
%LPC*%
G36*
X20799Y68799D02*
X20799Y68799D01*
X20799Y68801D01*
X20801Y68801D01*
X20801Y68799D01*
X20799Y68799D01*
G37*
%LPD*%
%LPC*%
G36*
X107199Y26999D02*
X107199Y26999D01*
X107199Y27001D01*
X107201Y27001D01*
X107201Y26999D01*
X107199Y26999D01*
G37*
%LPD*%
%LPC*%
G36*
X20799Y26999D02*
X20799Y26999D01*
X20799Y27001D01*
X20801Y27001D01*
X20801Y26999D01*
X20799Y26999D01*
G37*
%LPD*%
%LPC*%
G36*
X203399Y81199D02*
X203399Y81199D01*
X203399Y81201D01*
X203401Y81201D01*
X203401Y81199D01*
X203399Y81199D01*
G37*
%LPD*%
D10*
X20800Y63010D02*
X20800Y74590D01*
X107200Y74590D02*
X107200Y63010D01*
X20800Y32790D02*
X20800Y21210D01*
X107200Y21210D02*
X107200Y32790D01*
D11*
X10000Y106000D03*
X10000Y131400D03*
X10000Y156800D03*
X10000Y182200D03*
X10000Y207600D03*
X10000Y233000D03*
X10000Y258400D03*
X10000Y283800D03*
X10000Y309200D03*
X10000Y334600D03*
X10000Y360000D03*
X10000Y385400D03*
X10000Y410800D03*
X10000Y436200D03*
X10000Y461600D03*
X10000Y487000D03*
X239000Y106000D03*
X239000Y131400D03*
X239000Y156800D03*
X239000Y182200D03*
X239000Y207600D03*
X239000Y233000D03*
X239000Y258400D03*
X239000Y283800D03*
X239000Y309200D03*
X239000Y334600D03*
X239000Y360000D03*
X239000Y385400D03*
X239000Y410800D03*
X239000Y436200D03*
X239000Y461600D03*
X239000Y487000D03*
D12*
X203400Y81200D03*
X180600Y81300D03*
D13*
X67000Y110000D03*
X132000Y177000D03*
X50000Y55000D03*
X158000Y30000D03*
X158000Y7000D03*
X226000Y30000D03*
X226000Y7000D03*
X35000Y115000D03*
X43000Y27000D03*
X85000Y27000D03*
X5000Y51000D03*
X5000Y36000D03*
X5000Y21000D03*
X243000Y54000D03*
X243000Y38000D03*
X243000Y24000D03*
X243000Y71000D03*
X181000Y133000D03*
X13000Y9000D03*
X27000Y6000D03*
X40000Y6000D03*
X54000Y6000D03*
X68000Y6000D03*
X82000Y6000D03*
X98000Y6000D03*
X114000Y6000D03*
X174000Y6000D03*
X192000Y6000D03*
X210000Y6000D03*
X240000Y10000D03*
X48000Y135000D03*
X5000Y65000D03*
X209550Y199390D03*
X196600Y156100D03*
X172000Y164800D03*
X154900Y154300D03*
X201930Y90170D03*
X201930Y81280D03*
X201930Y72390D03*
X222910Y111410D03*
X222910Y103790D03*
X115320Y229760D03*
X67060Y234840D03*
X39120Y505350D03*
X61980Y505350D03*
X86110Y505350D03*
X110240Y505350D03*
X135640Y505350D03*
X163580Y505350D03*
X192790Y505350D03*
X4830Y504080D03*
X35310Y270400D03*
X44200Y262780D03*
X28960Y490110D03*
X74680Y492650D03*
X100080Y492650D03*
X125480Y492650D03*
X150880Y492650D03*
X176280Y492650D03*
X61980Y479950D03*
X87380Y479950D03*
X112780Y479950D03*
X138180Y479950D03*
X163580Y479950D03*
X192790Y479950D03*
X74680Y467250D03*
X100080Y467250D03*
X125480Y467250D03*
X150880Y467250D03*
X180090Y467250D03*
X205490Y467250D03*
X74680Y416450D03*
X100080Y416450D03*
X125480Y416450D03*
X150880Y416450D03*
X176280Y416450D03*
X87380Y391050D03*
X112780Y391050D03*
X138180Y391050D03*
X163580Y391050D03*
X188980Y391050D03*
X74680Y365650D03*
X100080Y365650D03*
X125480Y365650D03*
X150880Y365650D03*
X176280Y365650D03*
X87380Y340250D03*
X112780Y340250D03*
X138180Y340250D03*
X176280Y340250D03*
X51820Y467250D03*
X63250Y391050D03*
X215650Y479950D03*
X51820Y492650D03*
X176280Y294530D03*
X67060Y201820D03*
X208030Y237380D03*
X161000Y84000D03*
D14*
X161000Y112000D01*
D13*
X222500Y121600D03*
D14*
X170600Y121600D02*
X161000Y112000D01*
X170600Y121600D02*
X222500Y121600D01*
X229200Y121600D01*
D13*
X217100Y145000D03*
X217400Y137500D03*
X217600Y129600D03*
X224500Y145100D03*
X224600Y137200D03*
X224700Y129500D03*
D15*
X224600Y137200D02*
X224600Y145000D01*
X224500Y145100D01*
X224600Y145000D02*
X217100Y145000D01*
X224600Y145000D02*
X224900Y144700D01*
X217400Y144700D02*
X217100Y145000D01*
X217400Y144700D02*
X217400Y137500D01*
X217600Y137200D02*
X224600Y137200D01*
X217600Y137300D02*
X217400Y137500D01*
X217600Y137300D02*
X217600Y137200D01*
X217600Y129600D01*
X217700Y129500D02*
X224700Y129500D01*
X217700Y129500D02*
X217600Y129600D01*
X224600Y129600D02*
X224600Y137200D01*
X224600Y129600D02*
X224700Y129500D01*
X216300Y129300D02*
X216300Y145800D01*
X216300Y129300D02*
X216400Y129200D01*
X224200Y129200D01*
X224200Y144800D02*
X224500Y145100D01*
X224200Y144800D02*
X224200Y129200D01*
X224500Y145100D02*
X223800Y145800D01*
X216300Y145800D01*
D13*
X182200Y90200D03*
X182200Y81310D03*
X182200Y72420D03*
D16*
X182190Y81300D02*
X180600Y81300D01*
X182190Y81300D02*
X182200Y81310D01*
X182200Y82900D02*
X180600Y81300D01*
X182200Y82900D02*
X182200Y90200D01*
X180600Y81300D02*
X182200Y79700D01*
X182200Y72420D01*
D13*
X62000Y65000D03*
X75000Y64000D03*
D16*
X63000Y64000D01*
X62000Y65000D01*
D13*
X70000Y126000D03*
X31140Y168000D03*
D16*
X61944Y149492D02*
X61944Y134056D01*
X70000Y126000D01*
X61944Y149492D02*
X58944Y152492D01*
X58944Y164056D01*
X55000Y168000D02*
X31140Y168000D01*
X55000Y168000D02*
X58944Y164056D01*
D13*
X55880Y323850D03*
D16*
X22860Y245860D02*
X10000Y233000D01*
X22860Y308610D02*
X29210Y314960D01*
X46990Y314960D02*
X55880Y323850D01*
X46990Y314960D02*
X29210Y314960D01*
X22860Y308610D02*
X22860Y245860D01*
D13*
X55880Y311150D03*
D16*
X21922Y219522D02*
X10000Y207600D01*
X21922Y219522D02*
X21922Y239938D01*
X26384Y244400D02*
X26384Y306070D01*
X31464Y311150D01*
X55880Y311150D01*
X26384Y244400D02*
X21922Y239938D01*
D13*
X102870Y223520D03*
D16*
X21922Y194122D02*
X10000Y182200D01*
X21922Y213692D02*
X31750Y223520D01*
X102870Y223520D01*
X21922Y213692D02*
X21922Y194122D01*
D13*
X48000Y153000D03*
X124000Y119000D03*
X98000Y96000D03*
D17*
X98000Y112000D01*
X105000Y119000D02*
X124000Y119000D01*
X105000Y119000D02*
X98000Y112000D01*
D13*
X148000Y73000D03*
D16*
X148000Y107000D01*
X136000Y119000D01*
X124000Y119000D01*
X53452Y153000D02*
X48000Y153000D01*
X53452Y153000D02*
X58420Y148032D01*
X80000Y96000D02*
X98000Y96000D01*
X76000Y100000D02*
X76000Y111436D01*
X58420Y129016D02*
X58420Y148032D01*
X76000Y100000D02*
X80000Y96000D01*
X76000Y111436D02*
X58420Y129016D01*
D13*
X171000Y202000D03*
X91000Y173000D03*
D16*
X171000Y202000D02*
X171450Y202000D01*
D13*
X55880Y298450D03*
D14*
X137160Y298450D01*
X171450Y264160D01*
X171450Y202000D01*
X171000Y202000D02*
X171000Y196030D01*
X184830Y182200D02*
X239000Y182200D01*
X184830Y182200D02*
X171000Y196030D01*
D17*
X22954Y173648D02*
X22954Y144354D01*
X10000Y131400D01*
X22954Y173648D02*
X32186Y182880D01*
X91440Y182880D01*
X116840Y182880D01*
X137160Y203200D01*
X170250Y203200D01*
X171450Y202000D01*
X91440Y173440D02*
X91000Y173000D01*
X91440Y173440D02*
X91440Y182880D01*
D13*
X78000Y55000D03*
D16*
X82000Y59000D01*
X82000Y80000D01*
X89000Y87000D01*
X108000Y87000D01*
D13*
X108000Y87000D03*
X152000Y43000D03*
X226000Y84000D03*
D16*
X158000Y43000D02*
X152000Y43000D01*
X158000Y43000D02*
X164000Y37000D01*
X221000Y37000D01*
X226000Y42000D01*
X226000Y84000D01*
D13*
X83820Y280670D03*
X132080Y237490D03*
D16*
X121920Y280670D02*
X83820Y280670D01*
X132080Y270510D02*
X132080Y237490D01*
X132080Y270510D02*
X121920Y280670D01*
D13*
X38100Y494030D03*
D16*
X31070Y436200D02*
X10000Y436200D01*
X38144Y443274D02*
X38144Y493986D01*
X38100Y494030D01*
X38144Y443274D02*
X31070Y436200D01*
D13*
X223520Y527050D03*
D16*
X224790Y525780D01*
D13*
X55880Y438150D03*
D16*
X214630Y438150D01*
X224790Y448310D02*
X224790Y525780D01*
X224790Y448310D02*
X214630Y438150D01*
D13*
X195580Y336550D03*
D16*
X220728Y336550D01*
X227078Y330200D01*
X239000Y266940D02*
X239000Y258400D01*
X239000Y266940D02*
X227078Y278862D01*
X227078Y330200D01*
D13*
X104140Y200660D03*
X153670Y236220D03*
D16*
X128177Y200660D02*
X104140Y200660D01*
X128177Y200660D02*
X135273Y207756D01*
X148066Y207756D02*
X153670Y213360D01*
X153670Y236220D01*
X148066Y207756D02*
X135273Y207756D01*
M02*
