G04 EAGLE Gerber RS-274X export*
G75*
%MOMM*%
%FSLAX34Y34*%
%LPD*%
%IN*%
%IPPOS*%
%AMOC8*
5,1,8,0,0,1.08239X$1,22.5*%
G01*
%ADD10C,0.254000*%


D10*
X-2000Y23000D02*
X-2091Y21075D01*
X-2013Y19149D01*
X-1768Y17238D01*
X-1357Y15355D01*
X-784Y13515D01*
X-53Y11732D01*
X831Y10020D01*
X1861Y8391D01*
X3029Y6858D01*
X4327Y5433D01*
X5743Y4126D01*
X7268Y2947D01*
X8890Y1906D01*
X10596Y1011D01*
X12374Y267D01*
X14210Y-318D01*
X16090Y-742D01*
X18000Y-1000D01*
X19925Y-1091D01*
X21851Y-1013D01*
X22000Y-1000D01*
X230000Y-1000D01*
X231750Y-1015D01*
X233495Y-876D01*
X235221Y-587D01*
X236915Y-148D01*
X238565Y437D01*
X240157Y1164D01*
X241680Y2026D01*
X243122Y3018D01*
X244472Y4132D01*
X245720Y5359D01*
X246856Y6691D01*
X247872Y8116D01*
X248759Y9625D01*
X249512Y11205D01*
X250124Y12844D01*
X250591Y14531D01*
X250909Y16252D01*
X251000Y17000D01*
X251000Y547000D01*
X251129Y548967D01*
X251086Y550938D01*
X250871Y552897D01*
X250486Y554830D01*
X249935Y556722D01*
X249220Y558559D01*
X248348Y560327D01*
X247325Y562012D01*
X246160Y563602D01*
X244860Y565084D01*
X243436Y566447D01*
X241899Y567680D01*
X240260Y568775D01*
X238532Y569723D01*
X236728Y570517D01*
X234861Y571150D01*
X232946Y571619D01*
X230998Y571918D01*
X229031Y572047D01*
X227061Y572004D01*
X227000Y572000D01*
X209190Y572000D01*
X209190Y512000D01*
X40810Y512000D01*
X40810Y572000D01*
X22000Y572000D01*
X20030Y572049D01*
X18062Y571927D01*
X16113Y571633D01*
X14197Y571170D01*
X12329Y570543D01*
X10522Y569755D01*
X8791Y568812D01*
X7148Y567722D01*
X5607Y566493D01*
X4179Y565135D01*
X2875Y563657D01*
X1704Y562071D01*
X676Y560389D01*
X-201Y558624D01*
X-921Y556789D01*
X-1479Y554899D01*
X-1869Y552967D01*
X-2000Y552000D01*
X-2000Y23000D01*
X103950Y24000D02*
X103962Y23717D01*
X103999Y23436D01*
X104061Y23159D01*
X104146Y22888D01*
X104255Y22627D01*
X104385Y22375D01*
X104538Y22136D01*
X104710Y21911D01*
X104902Y21702D01*
X105111Y21510D01*
X105336Y21338D01*
X105575Y21185D01*
X105827Y21055D01*
X106088Y20946D01*
X106359Y20861D01*
X106636Y20799D01*
X106917Y20762D01*
X107200Y20750D01*
X107483Y20762D01*
X107764Y20799D01*
X108041Y20861D01*
X108312Y20946D01*
X108574Y21055D01*
X108825Y21185D01*
X109064Y21338D01*
X109289Y21510D01*
X109498Y21702D01*
X109690Y21911D01*
X109862Y22136D01*
X110015Y22375D01*
X110146Y22627D01*
X110254Y22888D01*
X110339Y23159D01*
X110401Y23436D01*
X110438Y23717D01*
X110450Y24000D01*
X110450Y30000D01*
X110438Y30283D01*
X110401Y30564D01*
X110339Y30841D01*
X110254Y31112D01*
X110146Y31374D01*
X110015Y31625D01*
X109862Y31864D01*
X109690Y32089D01*
X109498Y32298D01*
X109289Y32490D01*
X109064Y32662D01*
X108825Y32815D01*
X108574Y32946D01*
X108312Y33054D01*
X108041Y33139D01*
X107764Y33201D01*
X107483Y33238D01*
X107200Y33250D01*
X106917Y33238D01*
X106636Y33201D01*
X106359Y33139D01*
X106088Y33054D01*
X105827Y32946D01*
X105575Y32815D01*
X105336Y32662D01*
X105111Y32490D01*
X104902Y32298D01*
X104710Y32089D01*
X104538Y31864D01*
X104385Y31625D01*
X104255Y31374D01*
X104146Y31112D01*
X104061Y30841D01*
X103999Y30564D01*
X103962Y30283D01*
X103950Y30000D01*
X103950Y24000D01*
X17550Y24000D02*
X17562Y23717D01*
X17599Y23436D01*
X17661Y23159D01*
X17746Y22888D01*
X17855Y22627D01*
X17985Y22375D01*
X18138Y22136D01*
X18310Y21911D01*
X18502Y21702D01*
X18711Y21510D01*
X18936Y21338D01*
X19175Y21185D01*
X19427Y21055D01*
X19688Y20946D01*
X19959Y20861D01*
X20236Y20799D01*
X20517Y20762D01*
X20800Y20750D01*
X21083Y20762D01*
X21364Y20799D01*
X21641Y20861D01*
X21912Y20946D01*
X22174Y21055D01*
X22425Y21185D01*
X22664Y21338D01*
X22889Y21510D01*
X23098Y21702D01*
X23290Y21911D01*
X23462Y22136D01*
X23615Y22375D01*
X23746Y22627D01*
X23854Y22888D01*
X23939Y23159D01*
X24001Y23436D01*
X24038Y23717D01*
X24050Y24000D01*
X24050Y30000D01*
X24038Y30283D01*
X24001Y30564D01*
X23939Y30841D01*
X23854Y31112D01*
X23746Y31374D01*
X23615Y31625D01*
X23462Y31864D01*
X23290Y32089D01*
X23098Y32298D01*
X22889Y32490D01*
X22664Y32662D01*
X22425Y32815D01*
X22174Y32946D01*
X21912Y33054D01*
X21641Y33139D01*
X21364Y33201D01*
X21083Y33238D01*
X20800Y33250D01*
X20517Y33238D01*
X20236Y33201D01*
X19959Y33139D01*
X19688Y33054D01*
X19427Y32946D01*
X19175Y32815D01*
X18936Y32662D01*
X18711Y32490D01*
X18502Y32298D01*
X18310Y32089D01*
X18138Y31864D01*
X17985Y31625D01*
X17855Y31374D01*
X17746Y31112D01*
X17661Y30841D01*
X17599Y30564D01*
X17562Y30283D01*
X17550Y30000D01*
X17550Y24000D01*
X103950Y63300D02*
X103962Y63017D01*
X103999Y62736D01*
X104061Y62459D01*
X104146Y62188D01*
X104255Y61927D01*
X104385Y61675D01*
X104538Y61436D01*
X104710Y61211D01*
X104902Y61002D01*
X105111Y60810D01*
X105336Y60638D01*
X105575Y60485D01*
X105827Y60355D01*
X106088Y60246D01*
X106359Y60161D01*
X106636Y60099D01*
X106917Y60062D01*
X107200Y60050D01*
X107483Y60062D01*
X107764Y60099D01*
X108041Y60161D01*
X108312Y60246D01*
X108574Y60355D01*
X108825Y60485D01*
X109064Y60638D01*
X109289Y60810D01*
X109498Y61002D01*
X109690Y61211D01*
X109862Y61436D01*
X110015Y61675D01*
X110146Y61927D01*
X110254Y62188D01*
X110339Y62459D01*
X110401Y62736D01*
X110438Y63017D01*
X110450Y63300D01*
X110450Y74300D01*
X110438Y74583D01*
X110401Y74864D01*
X110339Y75141D01*
X110254Y75412D01*
X110146Y75674D01*
X110015Y75925D01*
X109862Y76164D01*
X109690Y76389D01*
X109498Y76598D01*
X109289Y76790D01*
X109064Y76962D01*
X108825Y77115D01*
X108574Y77246D01*
X108312Y77354D01*
X108041Y77439D01*
X107764Y77501D01*
X107483Y77538D01*
X107200Y77550D01*
X106917Y77538D01*
X106636Y77501D01*
X106359Y77439D01*
X106088Y77354D01*
X105827Y77246D01*
X105575Y77115D01*
X105336Y76962D01*
X105111Y76790D01*
X104902Y76598D01*
X104710Y76389D01*
X104538Y76164D01*
X104385Y75925D01*
X104255Y75674D01*
X104146Y75412D01*
X104061Y75141D01*
X103999Y74864D01*
X103962Y74583D01*
X103950Y74300D01*
X103950Y63300D01*
X17550Y63300D02*
X17562Y63017D01*
X17599Y62736D01*
X17661Y62459D01*
X17746Y62188D01*
X17855Y61927D01*
X17985Y61675D01*
X18138Y61436D01*
X18310Y61211D01*
X18502Y61002D01*
X18711Y60810D01*
X18936Y60638D01*
X19175Y60485D01*
X19427Y60355D01*
X19688Y60246D01*
X19959Y60161D01*
X20236Y60099D01*
X20517Y60062D01*
X20800Y60050D01*
X21083Y60062D01*
X21364Y60099D01*
X21641Y60161D01*
X21912Y60246D01*
X22174Y60355D01*
X22425Y60485D01*
X22664Y60638D01*
X22889Y60810D01*
X23098Y61002D01*
X23290Y61211D01*
X23462Y61436D01*
X23615Y61675D01*
X23746Y61927D01*
X23854Y62188D01*
X23939Y62459D01*
X24001Y62736D01*
X24038Y63017D01*
X24050Y63300D01*
X24050Y74300D01*
X24038Y74583D01*
X24001Y74864D01*
X23939Y75141D01*
X23854Y75412D01*
X23746Y75674D01*
X23615Y75925D01*
X23462Y76164D01*
X23290Y76389D01*
X23098Y76598D01*
X22889Y76790D01*
X22664Y76962D01*
X22425Y77115D01*
X22174Y77246D01*
X21912Y77354D01*
X21641Y77439D01*
X21364Y77501D01*
X21083Y77538D01*
X20800Y77550D01*
X20517Y77538D01*
X20236Y77501D01*
X19959Y77439D01*
X19688Y77354D01*
X19427Y77246D01*
X19175Y77115D01*
X18936Y76962D01*
X18711Y76790D01*
X18502Y76598D01*
X18310Y76389D01*
X18138Y76164D01*
X17985Y75925D01*
X17855Y75674D01*
X17746Y75412D01*
X17661Y75141D01*
X17599Y74864D01*
X17562Y74583D01*
X17550Y74300D01*
X17550Y63300D01*
X38600Y63271D02*
X38540Y62816D01*
X38421Y62373D01*
X38246Y61949D01*
X38016Y61551D01*
X37737Y61187D01*
X37413Y60863D01*
X37049Y60584D01*
X36651Y60354D01*
X36227Y60179D01*
X35784Y60060D01*
X35329Y60000D01*
X34871Y60000D01*
X34416Y60060D01*
X33973Y60179D01*
X33549Y60354D01*
X33151Y60584D01*
X32787Y60863D01*
X32463Y61187D01*
X32184Y61551D01*
X31954Y61949D01*
X31779Y62373D01*
X31660Y62816D01*
X31600Y63271D01*
X31600Y63729D01*
X31660Y64184D01*
X31779Y64627D01*
X31954Y65051D01*
X32184Y65449D01*
X32463Y65813D01*
X32787Y66137D01*
X33151Y66416D01*
X33549Y66646D01*
X33973Y66821D01*
X34416Y66940D01*
X34871Y67000D01*
X35329Y67000D01*
X35784Y66940D01*
X36227Y66821D01*
X36651Y66646D01*
X37049Y66416D01*
X37413Y66137D01*
X37737Y65813D01*
X38016Y65449D01*
X38246Y65051D01*
X38421Y64627D01*
X38540Y64184D01*
X38600Y63729D01*
X38600Y63271D01*
X96400Y63271D02*
X96340Y62816D01*
X96221Y62373D01*
X96046Y61949D01*
X95816Y61551D01*
X95537Y61187D01*
X95213Y60863D01*
X94849Y60584D01*
X94451Y60354D01*
X94027Y60179D01*
X93584Y60060D01*
X93129Y60000D01*
X92671Y60000D01*
X92216Y60060D01*
X91773Y60179D01*
X91349Y60354D01*
X90951Y60584D01*
X90587Y60863D01*
X90263Y61187D01*
X89984Y61551D01*
X89754Y61949D01*
X89579Y62373D01*
X89460Y62816D01*
X89400Y63271D01*
X89400Y63729D01*
X89460Y64184D01*
X89579Y64627D01*
X89754Y65051D01*
X89984Y65449D01*
X90263Y65813D01*
X90587Y66137D01*
X90951Y66416D01*
X91349Y66646D01*
X91773Y66821D01*
X92216Y66940D01*
X92671Y67000D01*
X93129Y67000D01*
X93584Y66940D01*
X94027Y66821D01*
X94451Y66646D01*
X94849Y66416D01*
X95213Y66137D01*
X95537Y65813D01*
X95816Y65449D01*
X96046Y65051D01*
X96221Y64627D01*
X96340Y64184D01*
X96400Y63729D01*
X96400Y63271D01*
M02*
