G04 EAGLE Gerber RS-274X export*
G75*
%MOMM*%
%FSLAX34Y34*%
%LPD*%
%INSoldermask Top*%
%IPPOS*%
%AMOC8*
5,1,8,0,0,1.08239X$1,22.5*%
G01*
%ADD10R,0.300000X0.600000*%
%ADD11R,0.600000X0.300000*%
%ADD12R,0.500000X0.500000*%
%ADD13R,0.651600X1.301600*%
%ADD14R,1.101600X4.701600*%
%ADD15R,1.701600X3.501600*%
%ADD16R,1.101600X1.001600*%
%ADD17C,0.396575*%
%ADD18R,0.641600X0.701600*%
%ADD19R,1.101600X1.201600*%
%ADD20R,0.701600X0.641600*%
%ADD21R,0.701600X1.551600*%
%ADD22R,0.401600X1.551600*%
%ADD23C,1.259600*%
%ADD24C,0.801600*%
%ADD25R,1.201600X1.101600*%
%ADD26C,0.300959*%
%ADD27C,1.981200*%
%ADD28C,0.349309*%
%ADD29C,0.248975*%
%ADD30R,0.901600X1.101600*%
%ADD31R,1.101600X1.501600*%
%ADD32R,1.301600X0.651600*%
%ADD33R,1.371600X0.609600*%
%ADD34R,1.219200X0.584200*%
%ADD35R,1.701600X1.041600*%
%ADD36C,0.135406*%


D10*
X87000Y118000D03*
X92000Y118000D03*
X97000Y118000D03*
X102000Y118000D03*
X107000Y118000D03*
X112000Y118000D03*
X117000Y118000D03*
D11*
X125000Y126000D03*
X125000Y131000D03*
X125000Y136000D03*
X125000Y141000D03*
X125000Y146000D03*
X125000Y151000D03*
X125000Y156000D03*
D10*
X117000Y164000D03*
X112000Y164000D03*
X107000Y164000D03*
X102000Y164000D03*
X97000Y164000D03*
X92000Y164000D03*
X87000Y164000D03*
D11*
X79000Y156000D03*
X79000Y151000D03*
X79000Y146000D03*
X79000Y141000D03*
X79000Y136000D03*
X79000Y131000D03*
X79000Y126000D03*
D12*
X80975Y119975D03*
D10*
X89500Y131000D03*
X89500Y141000D03*
X89500Y151000D03*
X94500Y131000D03*
X94500Y141000D03*
X94500Y151000D03*
X99500Y131000D03*
X99500Y141000D03*
X99500Y151000D03*
X104500Y131000D03*
X104500Y141000D03*
X104500Y151000D03*
X109500Y131000D03*
X109500Y141000D03*
X109500Y151000D03*
X114500Y131000D03*
X114500Y141000D03*
X114500Y151000D03*
D13*
X162500Y175999D03*
X172000Y175999D03*
X181500Y175999D03*
X181500Y202001D03*
X162500Y202001D03*
D14*
X202000Y71000D03*
X182000Y71000D03*
D15*
X226000Y19000D03*
X158000Y19000D03*
D16*
X192000Y256500D03*
X208000Y256500D03*
X208000Y215500D03*
X192000Y215500D03*
X154000Y256500D03*
X170000Y256500D03*
X170000Y215500D03*
X154000Y215500D03*
D17*
X16025Y513015D02*
X16025Y520065D01*
X16025Y513015D02*
X8975Y513015D01*
X8975Y520065D01*
X16025Y520065D01*
X16025Y516783D02*
X8975Y516783D01*
X33565Y520065D02*
X33565Y513015D01*
X26515Y513015D01*
X26515Y520065D01*
X33565Y520065D01*
X33565Y516783D02*
X26515Y516783D01*
X233705Y520065D02*
X233705Y513015D01*
X233705Y520065D02*
X240755Y520065D01*
X240755Y513015D01*
X233705Y513015D01*
X233705Y516783D02*
X240755Y516783D01*
X216165Y520065D02*
X216165Y513015D01*
X216165Y520065D02*
X223215Y520065D01*
X223215Y513015D01*
X216165Y513015D01*
X216165Y516783D02*
X223215Y516783D01*
D18*
X232760Y504540D03*
X241400Y504540D03*
X16240Y504540D03*
X7600Y504540D03*
D19*
X195500Y185500D03*
X195500Y202500D03*
X146500Y202500D03*
X146500Y185500D03*
D16*
X132000Y216500D03*
X116000Y216500D03*
X116000Y257500D03*
X132000Y257500D03*
D20*
X211200Y177820D03*
X211200Y169180D03*
D21*
X31500Y77950D03*
X39500Y77950D03*
D22*
X61500Y77950D03*
X56500Y77950D03*
X51500Y77950D03*
X46500Y77950D03*
X66500Y77950D03*
X71500Y77950D03*
X76500Y77950D03*
X81500Y77950D03*
D21*
X88500Y77950D03*
X96500Y77950D03*
D23*
X20800Y74590D02*
X20800Y63010D01*
X107200Y63010D02*
X107200Y74590D01*
X20800Y32790D02*
X20800Y21210D01*
X107200Y21210D02*
X107200Y32790D01*
D24*
X35100Y63500D03*
X92900Y63500D03*
D20*
X47000Y105320D03*
X47000Y96680D03*
X72000Y93680D03*
X72000Y102320D03*
X84000Y93680D03*
X84000Y102320D03*
D25*
X124500Y97000D03*
X141500Y97000D03*
D20*
X136000Y137320D03*
X136000Y128680D03*
D26*
X46193Y173497D02*
X37287Y173497D01*
X37287Y175503D01*
X46193Y175503D01*
X46193Y173497D01*
X46193Y166997D02*
X37287Y166997D01*
X37287Y169003D01*
X46193Y169003D01*
X46193Y166997D01*
X46193Y160497D02*
X37287Y160497D01*
X37287Y162503D01*
X46193Y162503D01*
X46193Y160497D01*
X55687Y162503D02*
X64593Y162503D01*
X64593Y160497D01*
X55687Y160497D01*
X55687Y162503D01*
X55687Y169003D02*
X64593Y169003D01*
X64593Y166997D01*
X55687Y166997D01*
X55687Y169003D01*
X55687Y175503D02*
X64593Y175503D01*
X64593Y173497D01*
X55687Y173497D01*
X55687Y175503D01*
D17*
X121475Y36755D02*
X128525Y36755D01*
X128525Y29705D01*
X121475Y29705D01*
X121475Y36755D01*
X121475Y33473D02*
X128525Y33473D01*
X128525Y54295D02*
X121475Y54295D01*
X128525Y54295D02*
X128525Y47245D01*
X121475Y47245D01*
X121475Y54295D01*
X121475Y51013D02*
X128525Y51013D01*
D20*
X123000Y73320D03*
X123000Y64680D03*
D27*
X10000Y106000D03*
X10000Y131400D03*
X10000Y156800D03*
X10000Y182200D03*
X10000Y207600D03*
X10000Y233000D03*
X10000Y258400D03*
X10000Y283800D03*
X10000Y309200D03*
X10000Y334600D03*
X10000Y360000D03*
X10000Y385400D03*
X10000Y410800D03*
X10000Y436200D03*
X10000Y461600D03*
X10000Y487000D03*
X239000Y106000D03*
X239000Y131400D03*
X239000Y156800D03*
X239000Y182200D03*
X239000Y207600D03*
X239000Y233000D03*
X239000Y258400D03*
X239000Y283800D03*
X239000Y309200D03*
X239000Y334600D03*
X239000Y360000D03*
X239000Y385400D03*
X239000Y410800D03*
X239000Y436200D03*
X239000Y461600D03*
X239000Y487000D03*
D28*
X42412Y138888D02*
X32488Y138888D01*
X32488Y146312D01*
X42412Y146312D01*
X42412Y138888D01*
X42412Y142206D02*
X32488Y142206D01*
X32488Y145524D02*
X42412Y145524D01*
D29*
X42913Y123187D02*
X31987Y123187D01*
X31987Y127613D01*
X42913Y127613D01*
X42913Y123187D01*
X42913Y125552D02*
X31987Y125552D01*
X53087Y123187D02*
X64013Y123187D01*
X53087Y123187D02*
X53087Y127613D01*
X64013Y127613D01*
X64013Y123187D01*
X64013Y125552D02*
X53087Y125552D01*
X53087Y142387D02*
X64013Y142387D01*
X53087Y142387D02*
X53087Y146813D01*
X64013Y146813D01*
X64013Y142387D01*
X64013Y144752D02*
X53087Y144752D01*
D30*
X151000Y164500D03*
X151000Y141500D03*
D31*
X161000Y101000D03*
X151500Y123000D03*
X170500Y123000D03*
D20*
X111000Y105320D03*
X111000Y96680D03*
D32*
X211001Y102500D03*
X211001Y112000D03*
X211001Y121500D03*
X184999Y121500D03*
X184999Y102500D03*
D18*
X193680Y133000D03*
X202320Y133000D03*
D20*
X139000Y64680D03*
X139000Y73320D03*
D17*
X135475Y36755D02*
X142525Y36755D01*
X142525Y29705D01*
X135475Y29705D01*
X135475Y36755D01*
X135475Y33473D02*
X142525Y33473D01*
X142525Y54295D02*
X135475Y54295D01*
X142525Y54295D02*
X142525Y47245D01*
X135475Y47245D01*
X135475Y54295D01*
X135475Y51013D02*
X142525Y51013D01*
D33*
X91130Y224000D03*
X91130Y211300D03*
X91130Y198600D03*
X91130Y236700D03*
X91130Y249400D03*
X42870Y249400D03*
X42870Y236700D03*
X42870Y224000D03*
X42870Y211300D03*
X42870Y198600D03*
D34*
X183662Y163500D03*
X183662Y144500D03*
X207538Y154000D03*
D20*
X34900Y105420D03*
X34900Y96780D03*
X172500Y153220D03*
X172500Y144580D03*
D35*
X42450Y285780D03*
X42450Y298480D03*
X42450Y311180D03*
X42450Y323880D03*
X42450Y336580D03*
X42450Y349280D03*
X42450Y361980D03*
X42450Y374680D03*
X42450Y387380D03*
X42450Y400080D03*
X42450Y412780D03*
X42450Y425480D03*
X42450Y438180D03*
D36*
X198809Y281249D02*
X214471Y281249D01*
X198809Y281249D02*
X198809Y290311D01*
X214471Y290311D01*
X214471Y281249D01*
X214471Y282535D02*
X198809Y282535D01*
X198809Y283821D02*
X214471Y283821D01*
X214471Y285107D02*
X198809Y285107D01*
X198809Y286393D02*
X214471Y286393D01*
X214471Y287679D02*
X198809Y287679D01*
X198809Y288965D02*
X214471Y288965D01*
X214471Y290251D02*
X198809Y290251D01*
D35*
X206640Y298480D03*
X206640Y311180D03*
X206640Y323880D03*
X206640Y336580D03*
X206640Y349280D03*
X206640Y361980D03*
X206640Y374680D03*
X206640Y387380D03*
X206640Y400080D03*
X206640Y412780D03*
X206640Y425480D03*
X206640Y438180D03*
X206640Y491780D03*
X206640Y504480D03*
X42450Y450880D03*
X206640Y450880D03*
M02*
