G04 EAGLE Gerber RS-274X export*
G75*
%MOMM*%
%FSLAX34Y34*%
%LPD*%
%INSolderpaste Top*%
%IPPOS*%
%AMOC8*
5,1,8,0,0,1.08239X$1,22.5*%
G01*
%ADD10R,0.260000X0.560000*%
%ADD11R,0.560000X0.260000*%
%ADD12R,0.400000X0.400000*%
%ADD13R,0.550000X1.200000*%
%ADD14R,1.000000X4.600000*%
%ADD15R,1.600000X3.400000*%
%ADD16R,1.000000X0.900000*%
%ADD17C,0.300000*%
%ADD18R,0.540000X0.600000*%
%ADD19R,1.000000X1.100000*%
%ADD20R,1.100000X1.000000*%
%ADD21R,0.600000X0.540000*%
%ADD22R,0.600000X1.450000*%
%ADD23R,0.300000X1.450000*%
%ADD24C,0.200000*%
%ADD25C,0.247500*%
%ADD26C,0.147500*%
%ADD27R,0.800000X1.000000*%
%ADD28R,1.000000X1.400000*%
%ADD29R,1.200000X0.550000*%
%ADD30R,1.270000X0.508000*%
%ADD31R,1.117600X0.482600*%
%ADD32R,1.600000X0.940000*%
%ADD33C,0.037600*%


D10*
X87000Y118000D03*
X92000Y118000D03*
X97000Y118000D03*
X102000Y118000D03*
X107000Y118000D03*
X112000Y118000D03*
X117000Y118000D03*
D11*
X125000Y126000D03*
X125000Y131000D03*
X125000Y136000D03*
X125000Y141000D03*
X125000Y146000D03*
X125000Y151000D03*
X125000Y156000D03*
D10*
X117000Y164000D03*
X112000Y164000D03*
X107000Y164000D03*
X102000Y164000D03*
X97000Y164000D03*
X92000Y164000D03*
X87000Y164000D03*
D11*
X79000Y156000D03*
X79000Y151000D03*
X79000Y146000D03*
X79000Y141000D03*
X79000Y136000D03*
X79000Y131000D03*
X79000Y126000D03*
D10*
X89500Y131000D03*
X89500Y141000D03*
X89500Y151000D03*
X94500Y131000D03*
X94500Y141000D03*
X94500Y151000D03*
X99500Y131000D03*
X99500Y141000D03*
X99500Y151000D03*
X104500Y131000D03*
X104500Y141000D03*
X104500Y151000D03*
X109500Y131000D03*
X109500Y141000D03*
X109500Y151000D03*
X114500Y131000D03*
X114500Y141000D03*
X114500Y151000D03*
D12*
X81000Y120000D03*
D13*
X162500Y175999D03*
X172000Y175999D03*
X181500Y175999D03*
X181500Y202001D03*
X162500Y202001D03*
D14*
X202000Y71000D03*
X182000Y71000D03*
D15*
X226000Y19000D03*
X158000Y19000D03*
D16*
X192000Y256500D03*
X208000Y256500D03*
X208000Y215500D03*
X192000Y215500D03*
X154000Y256500D03*
X170000Y256500D03*
X170000Y215500D03*
X154000Y215500D03*
D17*
X12190Y513040D02*
X12190Y520040D01*
X12190Y513040D02*
X5190Y513040D01*
X5190Y520040D01*
X12190Y520040D01*
X12190Y515890D02*
X5190Y515890D01*
X5190Y518740D02*
X12190Y518740D01*
X29730Y520040D02*
X29730Y513040D01*
X22730Y513040D01*
X22730Y520040D01*
X29730Y520040D01*
X29730Y515890D02*
X22730Y515890D01*
X22730Y518740D02*
X29730Y518740D01*
X237540Y520040D02*
X237540Y513040D01*
X237540Y520040D02*
X244540Y520040D01*
X244540Y513040D01*
X237540Y513040D01*
X237540Y515890D02*
X244540Y515890D01*
X244540Y518740D02*
X237540Y518740D01*
X220000Y520040D02*
X220000Y513040D01*
X220000Y520040D02*
X227000Y520040D01*
X227000Y513040D01*
X220000Y513040D01*
X220000Y515890D02*
X227000Y515890D01*
X227000Y518740D02*
X220000Y518740D01*
D18*
X228950Y502000D03*
X237590Y502000D03*
X21320Y502000D03*
X12680Y502000D03*
D19*
X195500Y185500D03*
X195500Y202500D03*
X146500Y202500D03*
X146500Y185500D03*
D18*
X132720Y189430D03*
X124080Y189430D03*
D20*
X130580Y202780D03*
X113580Y202780D03*
D16*
X132000Y216500D03*
X116000Y216500D03*
X116000Y257500D03*
X132000Y257500D03*
D21*
X211200Y177820D03*
X211200Y169180D03*
D22*
X31500Y77950D03*
X39500Y77950D03*
D23*
X61500Y77950D03*
X56500Y77950D03*
X51500Y77950D03*
X46500Y77950D03*
X66500Y77950D03*
X71500Y77950D03*
X76500Y77950D03*
X81500Y77950D03*
D22*
X88500Y77950D03*
X96500Y77950D03*
D21*
X47000Y105320D03*
X47000Y96680D03*
X72000Y93680D03*
X72000Y102320D03*
X84000Y93680D03*
X84000Y102320D03*
D20*
X124500Y97000D03*
X141500Y97000D03*
D21*
X136000Y137320D03*
X136000Y128680D03*
D24*
X46190Y173500D02*
X37290Y173500D01*
X37290Y175500D01*
X46190Y175500D01*
X46190Y173500D01*
X46190Y175400D02*
X37290Y175400D01*
X37290Y167000D02*
X46190Y167000D01*
X37290Y167000D02*
X37290Y169000D01*
X46190Y169000D01*
X46190Y167000D01*
X46190Y168900D02*
X37290Y168900D01*
X37290Y160500D02*
X46190Y160500D01*
X37290Y160500D02*
X37290Y162500D01*
X46190Y162500D01*
X46190Y160500D01*
X46190Y162400D02*
X37290Y162400D01*
X55690Y162500D02*
X64590Y162500D01*
X64590Y160500D01*
X55690Y160500D01*
X55690Y162500D01*
X55690Y162400D02*
X64590Y162400D01*
X64590Y169000D02*
X55690Y169000D01*
X64590Y169000D02*
X64590Y167000D01*
X55690Y167000D01*
X55690Y169000D01*
X55690Y168900D02*
X64590Y168900D01*
X64590Y175500D02*
X55690Y175500D01*
X64590Y175500D02*
X64590Y173500D01*
X55690Y173500D01*
X55690Y175500D01*
X55690Y175400D02*
X64590Y175400D01*
D17*
X121500Y36730D02*
X128500Y36730D01*
X128500Y29730D01*
X121500Y29730D01*
X121500Y36730D01*
X121500Y32580D02*
X128500Y32580D01*
X128500Y35430D02*
X121500Y35430D01*
X121500Y54270D02*
X128500Y54270D01*
X128500Y47270D01*
X121500Y47270D01*
X121500Y54270D01*
X121500Y50120D02*
X128500Y50120D01*
X128500Y52970D02*
X121500Y52970D01*
D21*
X123000Y73320D03*
X123000Y64680D03*
D25*
X42413Y138887D02*
X32487Y138887D01*
X32487Y146313D01*
X42413Y146313D01*
X42413Y138887D01*
X42413Y141238D02*
X32487Y141238D01*
X32487Y143589D02*
X42413Y143589D01*
X42413Y145940D02*
X32487Y145940D01*
D26*
X31987Y123187D02*
X42913Y123187D01*
X31987Y123187D02*
X31987Y127613D01*
X42913Y127613D01*
X42913Y123187D01*
X42913Y124588D02*
X31987Y124588D01*
X31987Y125989D02*
X42913Y125989D01*
X42913Y127390D02*
X31987Y127390D01*
X53087Y123187D02*
X64013Y123187D01*
X53087Y123187D02*
X53087Y127613D01*
X64013Y127613D01*
X64013Y123187D01*
X64013Y124588D02*
X53087Y124588D01*
X53087Y125989D02*
X64013Y125989D01*
X64013Y127390D02*
X53087Y127390D01*
X53087Y142387D02*
X64013Y142387D01*
X53087Y142387D02*
X53087Y146813D01*
X64013Y146813D01*
X64013Y142387D01*
X64013Y143788D02*
X53087Y143788D01*
X53087Y145189D02*
X64013Y145189D01*
X64013Y146590D02*
X53087Y146590D01*
D27*
X151000Y164500D03*
X151000Y141500D03*
D28*
X161000Y101000D03*
X151500Y123000D03*
X170500Y123000D03*
D21*
X111000Y105320D03*
X111000Y96680D03*
D29*
X211001Y102500D03*
X211001Y112000D03*
X211001Y121500D03*
X184999Y121500D03*
X184999Y102500D03*
D18*
X193680Y133000D03*
X202320Y133000D03*
D21*
X139000Y64680D03*
X139000Y73320D03*
D17*
X135500Y36730D02*
X142500Y36730D01*
X142500Y29730D01*
X135500Y29730D01*
X135500Y36730D01*
X135500Y32580D02*
X142500Y32580D01*
X142500Y35430D02*
X135500Y35430D01*
X135500Y54270D02*
X142500Y54270D01*
X142500Y47270D01*
X135500Y47270D01*
X135500Y54270D01*
X135500Y50120D02*
X142500Y50120D01*
X142500Y52970D02*
X135500Y52970D01*
D30*
X91130Y224000D03*
X91130Y211300D03*
X91130Y198600D03*
X91130Y236700D03*
X91130Y249400D03*
X42870Y249400D03*
X42870Y236700D03*
X42870Y224000D03*
X42870Y211300D03*
X42870Y198600D03*
D31*
X183662Y163500D03*
X183662Y144500D03*
X207538Y154000D03*
D21*
X34900Y105420D03*
X34900Y96780D03*
X172500Y153220D03*
X172500Y144580D03*
D32*
X41180Y285780D03*
X41180Y298480D03*
X41180Y311180D03*
X41180Y323880D03*
X41180Y336580D03*
X41180Y349280D03*
X41180Y361980D03*
X41180Y374680D03*
X41180Y387380D03*
X41180Y400080D03*
X41180Y412780D03*
X41180Y425480D03*
X41180Y438180D03*
D33*
X201368Y281268D02*
X216992Y281268D01*
X201368Y281268D02*
X201368Y290292D01*
X216992Y290292D01*
X216992Y281268D01*
X216992Y281625D02*
X201368Y281625D01*
X201368Y281982D02*
X216992Y281982D01*
X216992Y282339D02*
X201368Y282339D01*
X201368Y282696D02*
X216992Y282696D01*
X216992Y283053D02*
X201368Y283053D01*
X201368Y283410D02*
X216992Y283410D01*
X216992Y283767D02*
X201368Y283767D01*
X201368Y284124D02*
X216992Y284124D01*
X216992Y284481D02*
X201368Y284481D01*
X201368Y284838D02*
X216992Y284838D01*
X216992Y285195D02*
X201368Y285195D01*
X201368Y285552D02*
X216992Y285552D01*
X216992Y285909D02*
X201368Y285909D01*
X201368Y286266D02*
X216992Y286266D01*
X216992Y286623D02*
X201368Y286623D01*
X201368Y286980D02*
X216992Y286980D01*
X216992Y287337D02*
X201368Y287337D01*
X201368Y287694D02*
X216992Y287694D01*
X216992Y288051D02*
X201368Y288051D01*
X201368Y288408D02*
X216992Y288408D01*
X216992Y288765D02*
X201368Y288765D01*
X201368Y289122D02*
X216992Y289122D01*
X216992Y289479D02*
X201368Y289479D01*
X201368Y289836D02*
X216992Y289836D01*
X216992Y290193D02*
X201368Y290193D01*
D32*
X209180Y298480D03*
X209180Y311180D03*
X209180Y323880D03*
X209180Y336580D03*
X209180Y349280D03*
X209180Y361980D03*
X209180Y374680D03*
X209180Y387380D03*
X209180Y400080D03*
X209180Y412780D03*
X209180Y425480D03*
X209180Y438180D03*
X209180Y491780D03*
X209180Y504480D03*
X41180Y450880D03*
X209180Y450880D03*
M02*
