G04 EAGLE Gerber RS-274X export*
G75*
%MOMM*%
%FSLAX34Y34*%
%LPD*%
%INSolderpaste Bottom*%
%IPPOS*%
%AMOC8*
5,1,8,0,0,1.08239X$1,22.5*%
G01*
%ADD10R,1.270000X2.540000*%
%ADD11R,2.286000X0.609600*%
%ADD12R,0.540000X0.600000*%
%ADD13C,0.270000*%
%ADD14R,2.368000X2.403600*%
%ADD15R,1.000000X1.400000*%
%ADD16R,1.117600X0.355600*%
%ADD17R,0.600000X0.540000*%
%ADD18C,0.158750*%


D10*
X203400Y81200D03*
X180600Y81300D03*
D11*
X156972Y444500D03*
X89408Y444500D03*
X156972Y431800D03*
X156972Y419100D03*
X89408Y431800D03*
X89408Y419100D03*
X156972Y406400D03*
X89408Y406400D03*
D12*
X148299Y458470D03*
X156939Y458470D03*
D13*
X99650Y460120D02*
X96950Y460120D01*
X99650Y460120D02*
X99650Y456820D01*
X96950Y456820D01*
X96950Y460120D01*
X96950Y459385D02*
X99650Y459385D01*
X91010Y460120D02*
X88310Y460120D01*
X91010Y460120D02*
X91010Y456820D01*
X88310Y456820D01*
X88310Y460120D01*
X88310Y459385D02*
X91010Y459385D01*
D12*
X89566Y469824D03*
X80926Y469824D03*
X156720Y470295D03*
X148080Y470295D03*
D14*
X155672Y374650D03*
X93248Y374650D03*
D15*
X137160Y316660D03*
X146660Y338660D03*
X127660Y338660D03*
D16*
X88138Y303276D03*
X88138Y309880D03*
X88138Y316484D03*
X107442Y316484D03*
X107442Y309880D03*
X107442Y303276D03*
D17*
X104140Y329690D03*
X104140Y338330D03*
X91440Y329690D03*
X91440Y338330D03*
D18*
X172561Y323691D02*
X172561Y318929D01*
X167799Y318929D01*
X167799Y323691D01*
X172561Y323691D01*
X172561Y320438D02*
X167799Y320438D01*
X167799Y321947D02*
X172561Y321947D01*
X172561Y323456D02*
X167799Y323456D01*
X172561Y331629D02*
X172561Y336391D01*
X172561Y331629D02*
X167799Y331629D01*
X167799Y336391D01*
X172561Y336391D01*
X172561Y333138D02*
X167799Y333138D01*
X167799Y334647D02*
X172561Y334647D01*
X172561Y336156D02*
X167799Y336156D01*
M02*
