G04 EAGLE Gerber RS-274X export*
G75*
%MOMM*%
%FSLAX34Y34*%
%LPD*%
%INSoldermask Bottom*%
%IPPOS*%
%AMOC8*
5,1,8,0,0,1.08239X$1,22.5*%
G01*
%ADD10C,1.259600*%
%ADD11C,0.801600*%
%ADD12C,1.981200*%
%ADD13R,1.371600X2.641600*%
%ADD14R,2.387600X0.711200*%
%ADD15R,0.641600X0.701600*%
%ADD16C,0.372125*%


D10*
X20800Y63010D02*
X20800Y74590D01*
X107200Y74590D02*
X107200Y63010D01*
X20800Y32790D02*
X20800Y21210D01*
X107200Y21210D02*
X107200Y32790D01*
D11*
X35100Y63500D03*
X92900Y63500D03*
D12*
X10000Y106000D03*
X10000Y131400D03*
X10000Y156800D03*
X10000Y182200D03*
X10000Y207600D03*
X10000Y233000D03*
X10000Y258400D03*
X10000Y283800D03*
X10000Y309200D03*
X10000Y334600D03*
X10000Y360000D03*
X10000Y385400D03*
X10000Y410800D03*
X10000Y436200D03*
X10000Y461600D03*
X10000Y487000D03*
X239000Y106000D03*
X239000Y131400D03*
X239000Y156800D03*
X239000Y182200D03*
X239000Y207600D03*
X239000Y233000D03*
X239000Y258400D03*
X239000Y283800D03*
X239000Y309200D03*
X239000Y334600D03*
X239000Y360000D03*
X239000Y385400D03*
X239000Y410800D03*
X239000Y436200D03*
X239000Y461600D03*
X239000Y487000D03*
D13*
X203400Y81200D03*
X180600Y81300D03*
D14*
X156972Y421640D03*
X89408Y421640D03*
X156972Y408940D03*
X156972Y396240D03*
X89408Y408940D03*
X89408Y396240D03*
X156972Y383540D03*
X89408Y383540D03*
D15*
X148299Y435610D03*
X156939Y435610D03*
D16*
X99648Y437258D02*
X96952Y437258D01*
X99648Y437258D02*
X99648Y433962D01*
X96952Y433962D01*
X96952Y437258D01*
X91008Y437258D02*
X88312Y437258D01*
X91008Y437258D02*
X91008Y433962D01*
X88312Y433962D01*
X88312Y437258D01*
D15*
X89566Y446964D03*
X80926Y446964D03*
X156720Y447435D03*
X148080Y447435D03*
M02*
