G04 EAGLE Gerber RS-274X export*
G75*
%MOMM*%
%FSLAX34Y34*%
%LPD*%
%INBottom Copper*%
%IPPOS*%
%AMOC8*
5,1,8,0,0,1.08239X$1,22.5*%
G01*
%ADD10C,1.158000*%
%ADD11C,1.879600*%
%ADD12R,1.270000X2.540000*%
%ADD13R,2.286000X0.609600*%
%ADD14R,0.540000X0.600000*%
%ADD15C,0.270000*%
%ADD16R,2.368000X2.403600*%
%ADD17R,1.000000X1.400000*%
%ADD18R,1.117600X0.355600*%
%ADD19C,0.158750*%
%ADD20C,0.127000*%
%ADD21C,0.706400*%
%ADD22C,0.200000*%
%ADD23C,0.508000*%
%ADD24C,0.304800*%
%ADD25C,0.812800*%
%ADD26C,0.406400*%

G36*
X19686Y1363D02*
X19686Y1363D01*
X19782Y1379D01*
X19812Y1382D01*
X21858Y1382D01*
X21879Y1385D01*
X21926Y1385D01*
X22805Y1465D01*
X22813Y1462D01*
X22864Y1432D01*
X22927Y1419D01*
X22987Y1396D01*
X23081Y1387D01*
X23103Y1382D01*
X23114Y1384D01*
X23134Y1382D01*
X228797Y1382D01*
X228875Y1394D01*
X228953Y1398D01*
X228994Y1414D01*
X229038Y1421D01*
X229061Y1434D01*
X230043Y1383D01*
X230056Y1384D01*
X230081Y1382D01*
X230260Y1382D01*
X230271Y1384D01*
X230292Y1382D01*
X233406Y1517D01*
X233439Y1524D01*
X233472Y1523D01*
X233616Y1556D01*
X235352Y2148D01*
X237551Y2897D01*
X239673Y3620D01*
X239734Y3652D01*
X239798Y3676D01*
X239867Y3724D01*
X239888Y3735D01*
X239898Y3745D01*
X239919Y3760D01*
X244778Y7925D01*
X244823Y7978D01*
X244874Y8023D01*
X244920Y8094D01*
X244935Y8112D01*
X244940Y8125D01*
X244955Y8147D01*
X247921Y13818D01*
X247931Y13849D01*
X247949Y13877D01*
X247992Y14019D01*
X248604Y17090D01*
X248604Y17091D01*
X248618Y17237D01*
X248618Y96926D01*
X248606Y96998D01*
X248604Y97071D01*
X248587Y97118D01*
X248579Y97166D01*
X248544Y97231D01*
X248518Y97300D01*
X248487Y97338D01*
X248464Y97381D01*
X248410Y97432D01*
X248363Y97489D01*
X248321Y97515D01*
X248286Y97548D01*
X248219Y97579D01*
X248156Y97618D01*
X248108Y97629D01*
X248063Y97649D01*
X247990Y97656D01*
X247919Y97673D01*
X247870Y97668D01*
X247820Y97673D01*
X247749Y97657D01*
X247676Y97649D01*
X247631Y97629D01*
X247583Y97618D01*
X247520Y97579D01*
X247453Y97549D01*
X247397Y97502D01*
X247375Y97489D01*
X247365Y97476D01*
X247339Y97455D01*
X246778Y96894D01*
X245257Y95789D01*
X243583Y94936D01*
X241796Y94355D01*
X240499Y94150D01*
X240499Y105250D01*
X240495Y105274D01*
X240498Y105298D01*
X240475Y105394D01*
X240459Y105491D01*
X240448Y105512D01*
X240442Y105536D01*
X240391Y105619D01*
X240344Y105706D01*
X240327Y105723D01*
X240314Y105743D01*
X240238Y105806D01*
X240166Y105873D01*
X240144Y105883D01*
X240125Y105898D01*
X240034Y105933D01*
X239944Y105973D01*
X239920Y105976D01*
X239897Y105985D01*
X239750Y105999D01*
X238999Y105999D01*
X238999Y106001D01*
X239750Y106001D01*
X239774Y106005D01*
X239798Y106002D01*
X239894Y106025D01*
X239991Y106041D01*
X240012Y106052D01*
X240036Y106058D01*
X240120Y106109D01*
X240206Y106156D01*
X240223Y106173D01*
X240243Y106186D01*
X240306Y106262D01*
X240373Y106334D01*
X240383Y106356D01*
X240398Y106375D01*
X240433Y106467D01*
X240474Y106556D01*
X240476Y106580D01*
X240485Y106603D01*
X240499Y106750D01*
X240499Y117850D01*
X241796Y117645D01*
X243583Y117064D01*
X245257Y116211D01*
X246778Y115106D01*
X247339Y114545D01*
X247399Y114502D01*
X247453Y114452D01*
X247497Y114431D01*
X247538Y114403D01*
X247608Y114381D01*
X247675Y114351D01*
X247724Y114346D01*
X247771Y114332D01*
X247844Y114334D01*
X247918Y114327D01*
X247966Y114338D01*
X248015Y114340D01*
X248084Y114365D01*
X248155Y114382D01*
X248197Y114408D01*
X248243Y114425D01*
X248300Y114472D01*
X248363Y114511D01*
X248394Y114549D01*
X248432Y114580D01*
X248471Y114642D01*
X248518Y114699D01*
X248535Y114745D01*
X248561Y114787D01*
X248578Y114859D01*
X248604Y114928D01*
X248611Y115001D01*
X248617Y115025D01*
X248615Y115041D01*
X248618Y115074D01*
X248618Y123762D01*
X248606Y123835D01*
X248604Y123908D01*
X248587Y123954D01*
X248579Y124003D01*
X248544Y124068D01*
X248518Y124137D01*
X248487Y124175D01*
X248464Y124218D01*
X248410Y124269D01*
X248363Y124325D01*
X248321Y124351D01*
X248286Y124385D01*
X248219Y124416D01*
X248156Y124454D01*
X248108Y124466D01*
X248063Y124486D01*
X247990Y124493D01*
X247919Y124510D01*
X247870Y124505D01*
X247820Y124510D01*
X247749Y124493D01*
X247676Y124486D01*
X247631Y124466D01*
X247583Y124455D01*
X247520Y124416D01*
X247453Y124386D01*
X247397Y124339D01*
X247375Y124326D01*
X247365Y124313D01*
X247339Y124292D01*
X245187Y122140D01*
X241173Y120477D01*
X236827Y120477D01*
X235167Y121165D01*
X235052Y121192D01*
X234930Y121220D01*
X234798Y121207D01*
X234687Y121197D01*
X234687Y121196D01*
X234558Y121138D01*
X234465Y121096D01*
X234464Y121095D01*
X234351Y121002D01*
X230884Y117535D01*
X226649Y117535D01*
X226553Y117519D01*
X226456Y117510D01*
X226433Y117500D01*
X226409Y117496D01*
X226322Y117450D01*
X226234Y117409D01*
X226208Y117388D01*
X226193Y117381D01*
X226176Y117362D01*
X226119Y117316D01*
X225666Y116862D01*
X223612Y116011D01*
X173225Y116011D01*
X173129Y115995D01*
X173032Y115986D01*
X173009Y115976D01*
X172985Y115972D01*
X172898Y115926D01*
X172810Y115885D01*
X172784Y115864D01*
X172769Y115857D01*
X172754Y115840D01*
X172752Y115839D01*
X172748Y115835D01*
X172695Y115792D01*
X166808Y109905D01*
X166751Y109825D01*
X166689Y109750D01*
X166681Y109727D01*
X166666Y109706D01*
X166638Y109613D01*
X166603Y109522D01*
X166600Y109489D01*
X166595Y109473D01*
X166596Y109448D01*
X166589Y109375D01*
X166589Y82888D01*
X165738Y80834D01*
X164166Y79262D01*
X162112Y78411D01*
X159888Y78411D01*
X157834Y79262D01*
X156262Y80834D01*
X155411Y82888D01*
X155411Y113112D01*
X156262Y115166D01*
X167434Y126338D01*
X169488Y127189D01*
X211086Y127189D01*
X211110Y127193D01*
X211135Y127190D01*
X211230Y127212D01*
X211327Y127228D01*
X211348Y127240D01*
X211372Y127246D01*
X211456Y127297D01*
X211542Y127343D01*
X211559Y127361D01*
X211580Y127374D01*
X211642Y127450D01*
X211709Y127521D01*
X211719Y127544D01*
X211735Y127563D01*
X211769Y127654D01*
X211810Y127744D01*
X211812Y127768D01*
X211821Y127791D01*
X211835Y127938D01*
X211835Y147084D01*
X214636Y149884D01*
X214696Y149890D01*
X214719Y149900D01*
X214744Y149904D01*
X214830Y149950D01*
X214919Y149991D01*
X214944Y150012D01*
X214959Y150019D01*
X214976Y150038D01*
X214999Y150057D01*
X219195Y150057D01*
X220183Y149068D01*
X220263Y149011D01*
X220338Y148949D01*
X220361Y148941D01*
X220381Y148926D01*
X220475Y148898D01*
X220566Y148863D01*
X220599Y148860D01*
X220615Y148855D01*
X220640Y148856D01*
X220713Y148849D01*
X220787Y148849D01*
X220883Y148865D01*
X220980Y148874D01*
X221003Y148884D01*
X221028Y148888D01*
X221114Y148934D01*
X221203Y148975D01*
X221228Y148996D01*
X221243Y149003D01*
X221260Y149022D01*
X221317Y149068D01*
X222405Y150157D01*
X226595Y150157D01*
X229557Y147195D01*
X229557Y146902D01*
X229573Y146806D01*
X229582Y146709D01*
X229592Y146686D01*
X229596Y146661D01*
X229642Y146575D01*
X229683Y146486D01*
X229704Y146461D01*
X229711Y146446D01*
X229730Y146429D01*
X229776Y146372D01*
X234351Y141798D01*
X234461Y141718D01*
X234549Y141656D01*
X234549Y141655D01*
X234660Y141622D01*
X234782Y141585D01*
X234783Y141585D01*
X234907Y141589D01*
X235026Y141592D01*
X235027Y141592D01*
X235027Y141593D01*
X235167Y141635D01*
X236827Y142323D01*
X241173Y142323D01*
X245187Y140660D01*
X247339Y138508D01*
X247399Y138465D01*
X247453Y138415D01*
X247497Y138394D01*
X247538Y138366D01*
X247608Y138344D01*
X247675Y138314D01*
X247724Y138309D01*
X247771Y138295D01*
X247844Y138297D01*
X247918Y138290D01*
X247966Y138301D01*
X248015Y138303D01*
X248084Y138329D01*
X248155Y138345D01*
X248197Y138371D01*
X248243Y138389D01*
X248300Y138435D01*
X248363Y138474D01*
X248394Y138512D01*
X248432Y138543D01*
X248471Y138606D01*
X248518Y138662D01*
X248535Y138708D01*
X248561Y138750D01*
X248578Y138822D01*
X248604Y138891D01*
X248611Y138964D01*
X248617Y138988D01*
X248615Y139005D01*
X248618Y139038D01*
X248618Y149162D01*
X248606Y149235D01*
X248604Y149308D01*
X248587Y149354D01*
X248579Y149403D01*
X248544Y149468D01*
X248518Y149537D01*
X248487Y149575D01*
X248464Y149618D01*
X248410Y149669D01*
X248363Y149725D01*
X248321Y149751D01*
X248286Y149785D01*
X248219Y149816D01*
X248156Y149854D01*
X248108Y149866D01*
X248063Y149886D01*
X247990Y149893D01*
X247919Y149910D01*
X247870Y149905D01*
X247820Y149910D01*
X247749Y149893D01*
X247676Y149886D01*
X247631Y149866D01*
X247583Y149855D01*
X247520Y149816D01*
X247453Y149786D01*
X247397Y149739D01*
X247375Y149726D01*
X247365Y149713D01*
X247339Y149692D01*
X245187Y147540D01*
X241173Y145877D01*
X236827Y145877D01*
X232813Y147540D01*
X229740Y150613D01*
X228077Y154627D01*
X228077Y158973D01*
X229740Y162987D01*
X232813Y166060D01*
X236827Y167723D01*
X241173Y167723D01*
X245187Y166060D01*
X247339Y163908D01*
X247399Y163865D01*
X247453Y163815D01*
X247497Y163794D01*
X247538Y163766D01*
X247608Y163744D01*
X247675Y163714D01*
X247724Y163709D01*
X247771Y163695D01*
X247844Y163697D01*
X247918Y163690D01*
X247966Y163701D01*
X248015Y163703D01*
X248084Y163729D01*
X248155Y163745D01*
X248197Y163771D01*
X248243Y163789D01*
X248300Y163835D01*
X248363Y163874D01*
X248394Y163912D01*
X248432Y163943D01*
X248471Y164006D01*
X248518Y164062D01*
X248535Y164108D01*
X248561Y164150D01*
X248578Y164222D01*
X248604Y164291D01*
X248611Y164364D01*
X248617Y164388D01*
X248615Y164405D01*
X248618Y164438D01*
X248618Y174562D01*
X248606Y174635D01*
X248604Y174708D01*
X248587Y174754D01*
X248579Y174803D01*
X248544Y174868D01*
X248518Y174937D01*
X248487Y174975D01*
X248464Y175018D01*
X248410Y175069D01*
X248363Y175125D01*
X248321Y175151D01*
X248286Y175185D01*
X248219Y175216D01*
X248156Y175254D01*
X248108Y175266D01*
X248063Y175286D01*
X247990Y175293D01*
X247919Y175310D01*
X247870Y175305D01*
X247820Y175310D01*
X247749Y175293D01*
X247676Y175286D01*
X247631Y175266D01*
X247583Y175255D01*
X247520Y175216D01*
X247453Y175186D01*
X247397Y175139D01*
X247375Y175126D01*
X247365Y175113D01*
X247339Y175092D01*
X245187Y172940D01*
X241173Y171277D01*
X236827Y171277D01*
X232813Y172940D01*
X229740Y176013D01*
X228077Y180027D01*
X228077Y184373D01*
X229740Y188387D01*
X232813Y191460D01*
X236827Y193123D01*
X241173Y193123D01*
X245187Y191460D01*
X247339Y189308D01*
X247399Y189265D01*
X247453Y189215D01*
X247497Y189194D01*
X247538Y189166D01*
X247608Y189144D01*
X247675Y189114D01*
X247724Y189109D01*
X247771Y189095D01*
X247844Y189097D01*
X247918Y189090D01*
X247966Y189101D01*
X248015Y189103D01*
X248084Y189129D01*
X248155Y189145D01*
X248197Y189171D01*
X248243Y189189D01*
X248300Y189235D01*
X248363Y189274D01*
X248394Y189312D01*
X248432Y189343D01*
X248471Y189406D01*
X248518Y189462D01*
X248535Y189508D01*
X248561Y189550D01*
X248578Y189622D01*
X248604Y189691D01*
X248611Y189764D01*
X248617Y189788D01*
X248615Y189805D01*
X248618Y189838D01*
X248618Y199962D01*
X248606Y200035D01*
X248604Y200108D01*
X248587Y200154D01*
X248579Y200203D01*
X248544Y200268D01*
X248518Y200337D01*
X248487Y200375D01*
X248464Y200418D01*
X248410Y200469D01*
X248363Y200525D01*
X248321Y200551D01*
X248286Y200585D01*
X248219Y200616D01*
X248156Y200654D01*
X248108Y200666D01*
X248063Y200686D01*
X247990Y200693D01*
X247919Y200710D01*
X247870Y200705D01*
X247820Y200710D01*
X247749Y200693D01*
X247676Y200686D01*
X247631Y200666D01*
X247583Y200655D01*
X247520Y200616D01*
X247453Y200586D01*
X247397Y200539D01*
X247375Y200526D01*
X247365Y200513D01*
X247339Y200492D01*
X245187Y198340D01*
X241173Y196677D01*
X236827Y196677D01*
X232813Y198340D01*
X229740Y201413D01*
X228077Y205427D01*
X228077Y209773D01*
X229740Y213787D01*
X232813Y216860D01*
X236827Y218523D01*
X241173Y218523D01*
X245187Y216860D01*
X247339Y214708D01*
X247399Y214665D01*
X247453Y214615D01*
X247497Y214594D01*
X247538Y214566D01*
X247608Y214544D01*
X247675Y214514D01*
X247724Y214509D01*
X247771Y214495D01*
X247844Y214497D01*
X247918Y214490D01*
X247966Y214501D01*
X248015Y214503D01*
X248084Y214529D01*
X248155Y214545D01*
X248197Y214571D01*
X248243Y214589D01*
X248300Y214635D01*
X248363Y214674D01*
X248394Y214712D01*
X248432Y214743D01*
X248471Y214806D01*
X248518Y214862D01*
X248535Y214908D01*
X248561Y214950D01*
X248578Y215022D01*
X248604Y215091D01*
X248611Y215164D01*
X248617Y215188D01*
X248615Y215205D01*
X248618Y215238D01*
X248618Y225362D01*
X248606Y225435D01*
X248604Y225508D01*
X248587Y225554D01*
X248579Y225603D01*
X248544Y225668D01*
X248518Y225737D01*
X248487Y225775D01*
X248464Y225818D01*
X248410Y225869D01*
X248363Y225925D01*
X248321Y225951D01*
X248286Y225985D01*
X248219Y226016D01*
X248156Y226054D01*
X248108Y226066D01*
X248063Y226086D01*
X247990Y226093D01*
X247919Y226110D01*
X247870Y226105D01*
X247820Y226110D01*
X247749Y226093D01*
X247676Y226086D01*
X247631Y226066D01*
X247583Y226055D01*
X247520Y226016D01*
X247453Y225986D01*
X247397Y225939D01*
X247375Y225926D01*
X247365Y225913D01*
X247339Y225892D01*
X245187Y223740D01*
X241173Y222077D01*
X236827Y222077D01*
X232813Y223740D01*
X229740Y226813D01*
X228077Y230827D01*
X228077Y235173D01*
X229740Y239187D01*
X232813Y242260D01*
X236827Y243923D01*
X241173Y243923D01*
X245187Y242260D01*
X247339Y240108D01*
X247399Y240065D01*
X247453Y240015D01*
X247497Y239994D01*
X247538Y239966D01*
X247608Y239944D01*
X247675Y239914D01*
X247724Y239909D01*
X247771Y239895D01*
X247844Y239897D01*
X247918Y239890D01*
X247966Y239901D01*
X248015Y239903D01*
X248084Y239929D01*
X248155Y239945D01*
X248197Y239971D01*
X248243Y239989D01*
X248300Y240035D01*
X248363Y240074D01*
X248394Y240112D01*
X248432Y240143D01*
X248471Y240206D01*
X248518Y240262D01*
X248535Y240308D01*
X248561Y240350D01*
X248578Y240422D01*
X248604Y240491D01*
X248611Y240564D01*
X248617Y240588D01*
X248615Y240605D01*
X248618Y240638D01*
X248618Y250762D01*
X248606Y250835D01*
X248604Y250908D01*
X248587Y250954D01*
X248579Y251003D01*
X248544Y251068D01*
X248518Y251137D01*
X248487Y251175D01*
X248464Y251218D01*
X248410Y251269D01*
X248363Y251325D01*
X248321Y251351D01*
X248286Y251385D01*
X248219Y251416D01*
X248156Y251454D01*
X248108Y251466D01*
X248063Y251486D01*
X247990Y251493D01*
X247919Y251510D01*
X247870Y251505D01*
X247820Y251510D01*
X247749Y251493D01*
X247676Y251486D01*
X247631Y251466D01*
X247583Y251455D01*
X247520Y251416D01*
X247453Y251386D01*
X247397Y251339D01*
X247375Y251326D01*
X247365Y251313D01*
X247339Y251292D01*
X245187Y249140D01*
X241173Y247477D01*
X236827Y247477D01*
X232813Y249140D01*
X229740Y252213D01*
X228077Y256227D01*
X228077Y260573D01*
X229740Y264587D01*
X232813Y267660D01*
X236827Y269323D01*
X241173Y269323D01*
X245187Y267660D01*
X247339Y265508D01*
X247399Y265465D01*
X247453Y265415D01*
X247497Y265394D01*
X247538Y265366D01*
X247608Y265344D01*
X247675Y265314D01*
X247724Y265309D01*
X247771Y265295D01*
X247844Y265297D01*
X247918Y265290D01*
X247966Y265301D01*
X248015Y265303D01*
X248084Y265329D01*
X248155Y265345D01*
X248197Y265371D01*
X248243Y265389D01*
X248300Y265435D01*
X248363Y265474D01*
X248394Y265512D01*
X248432Y265543D01*
X248471Y265606D01*
X248518Y265662D01*
X248535Y265708D01*
X248561Y265750D01*
X248578Y265822D01*
X248604Y265891D01*
X248611Y265964D01*
X248617Y265988D01*
X248615Y266005D01*
X248618Y266038D01*
X248618Y276162D01*
X248606Y276235D01*
X248604Y276308D01*
X248587Y276354D01*
X248579Y276403D01*
X248544Y276468D01*
X248518Y276537D01*
X248487Y276575D01*
X248464Y276618D01*
X248410Y276669D01*
X248363Y276725D01*
X248321Y276751D01*
X248286Y276785D01*
X248219Y276816D01*
X248156Y276854D01*
X248108Y276866D01*
X248063Y276886D01*
X247990Y276893D01*
X247919Y276910D01*
X247870Y276905D01*
X247820Y276910D01*
X247749Y276893D01*
X247676Y276886D01*
X247631Y276866D01*
X247583Y276855D01*
X247520Y276816D01*
X247453Y276786D01*
X247397Y276739D01*
X247375Y276726D01*
X247365Y276713D01*
X247339Y276692D01*
X245187Y274540D01*
X241173Y272877D01*
X236827Y272877D01*
X232813Y274540D01*
X229740Y277613D01*
X228077Y281627D01*
X228077Y285973D01*
X229740Y289987D01*
X232813Y293060D01*
X236827Y294723D01*
X241173Y294723D01*
X245187Y293060D01*
X247339Y290908D01*
X247399Y290865D01*
X247453Y290815D01*
X247497Y290794D01*
X247538Y290766D01*
X247608Y290744D01*
X247675Y290714D01*
X247724Y290709D01*
X247771Y290695D01*
X247844Y290697D01*
X247918Y290690D01*
X247966Y290701D01*
X248015Y290703D01*
X248084Y290729D01*
X248155Y290745D01*
X248197Y290771D01*
X248243Y290789D01*
X248300Y290835D01*
X248363Y290874D01*
X248394Y290912D01*
X248432Y290943D01*
X248471Y291006D01*
X248518Y291062D01*
X248535Y291108D01*
X248561Y291150D01*
X248578Y291222D01*
X248604Y291291D01*
X248611Y291364D01*
X248617Y291388D01*
X248615Y291405D01*
X248618Y291438D01*
X248618Y301562D01*
X248606Y301635D01*
X248604Y301708D01*
X248587Y301754D01*
X248579Y301803D01*
X248544Y301868D01*
X248518Y301937D01*
X248487Y301975D01*
X248464Y302018D01*
X248410Y302069D01*
X248363Y302125D01*
X248321Y302151D01*
X248286Y302185D01*
X248219Y302216D01*
X248156Y302254D01*
X248108Y302266D01*
X248063Y302286D01*
X247990Y302293D01*
X247919Y302310D01*
X247870Y302305D01*
X247820Y302310D01*
X247749Y302293D01*
X247676Y302286D01*
X247631Y302266D01*
X247583Y302255D01*
X247520Y302216D01*
X247453Y302186D01*
X247397Y302139D01*
X247375Y302126D01*
X247365Y302113D01*
X247339Y302092D01*
X245187Y299940D01*
X241173Y298277D01*
X236827Y298277D01*
X232813Y299940D01*
X229740Y303013D01*
X228077Y307027D01*
X228077Y311373D01*
X229740Y315387D01*
X232813Y318460D01*
X236827Y320123D01*
X241173Y320123D01*
X245187Y318460D01*
X247339Y316308D01*
X247399Y316265D01*
X247453Y316215D01*
X247497Y316194D01*
X247538Y316166D01*
X247608Y316144D01*
X247675Y316114D01*
X247724Y316109D01*
X247771Y316095D01*
X247844Y316097D01*
X247918Y316090D01*
X247966Y316101D01*
X248015Y316103D01*
X248084Y316129D01*
X248155Y316145D01*
X248197Y316171D01*
X248243Y316189D01*
X248300Y316235D01*
X248363Y316274D01*
X248394Y316312D01*
X248432Y316343D01*
X248471Y316406D01*
X248518Y316462D01*
X248535Y316508D01*
X248561Y316550D01*
X248578Y316622D01*
X248604Y316691D01*
X248611Y316764D01*
X248617Y316788D01*
X248615Y316805D01*
X248618Y316838D01*
X248618Y326962D01*
X248606Y327035D01*
X248604Y327108D01*
X248587Y327154D01*
X248579Y327203D01*
X248544Y327268D01*
X248518Y327337D01*
X248487Y327375D01*
X248464Y327418D01*
X248410Y327469D01*
X248363Y327525D01*
X248321Y327551D01*
X248286Y327585D01*
X248219Y327616D01*
X248156Y327654D01*
X248108Y327666D01*
X248063Y327686D01*
X247990Y327693D01*
X247919Y327710D01*
X247870Y327705D01*
X247820Y327710D01*
X247749Y327693D01*
X247676Y327686D01*
X247631Y327666D01*
X247583Y327655D01*
X247520Y327616D01*
X247453Y327586D01*
X247397Y327539D01*
X247375Y327526D01*
X247365Y327513D01*
X247339Y327492D01*
X245187Y325340D01*
X241173Y323677D01*
X236827Y323677D01*
X232813Y325340D01*
X229740Y328413D01*
X228077Y332427D01*
X228077Y336773D01*
X229740Y340787D01*
X232813Y343860D01*
X236827Y345523D01*
X241173Y345523D01*
X245187Y343860D01*
X247339Y341708D01*
X247399Y341665D01*
X247453Y341615D01*
X247497Y341594D01*
X247538Y341566D01*
X247608Y341544D01*
X247675Y341514D01*
X247724Y341509D01*
X247771Y341495D01*
X247844Y341497D01*
X247918Y341490D01*
X247966Y341501D01*
X248015Y341503D01*
X248084Y341529D01*
X248155Y341545D01*
X248197Y341571D01*
X248243Y341589D01*
X248300Y341635D01*
X248363Y341674D01*
X248394Y341712D01*
X248432Y341743D01*
X248471Y341806D01*
X248518Y341862D01*
X248535Y341908D01*
X248561Y341950D01*
X248578Y342022D01*
X248604Y342091D01*
X248611Y342164D01*
X248617Y342188D01*
X248615Y342205D01*
X248618Y342238D01*
X248618Y352362D01*
X248606Y352435D01*
X248604Y352508D01*
X248587Y352554D01*
X248579Y352603D01*
X248544Y352668D01*
X248518Y352737D01*
X248487Y352775D01*
X248464Y352818D01*
X248410Y352869D01*
X248363Y352925D01*
X248321Y352951D01*
X248286Y352985D01*
X248219Y353016D01*
X248156Y353054D01*
X248108Y353066D01*
X248063Y353086D01*
X247990Y353093D01*
X247919Y353110D01*
X247870Y353105D01*
X247820Y353110D01*
X247749Y353093D01*
X247676Y353086D01*
X247631Y353066D01*
X247583Y353055D01*
X247520Y353016D01*
X247453Y352986D01*
X247397Y352939D01*
X247375Y352926D01*
X247365Y352913D01*
X247339Y352892D01*
X245187Y350740D01*
X241173Y349077D01*
X236827Y349077D01*
X232813Y350740D01*
X229740Y353813D01*
X228077Y357827D01*
X228077Y362173D01*
X229740Y366187D01*
X232813Y369260D01*
X236827Y370923D01*
X241173Y370923D01*
X245187Y369260D01*
X247339Y367108D01*
X247399Y367065D01*
X247453Y367015D01*
X247497Y366994D01*
X247538Y366966D01*
X247608Y366944D01*
X247675Y366914D01*
X247724Y366909D01*
X247771Y366895D01*
X247844Y366897D01*
X247918Y366890D01*
X247966Y366901D01*
X248015Y366903D01*
X248084Y366929D01*
X248155Y366945D01*
X248197Y366971D01*
X248243Y366989D01*
X248300Y367035D01*
X248363Y367074D01*
X248394Y367112D01*
X248432Y367143D01*
X248471Y367206D01*
X248518Y367262D01*
X248535Y367308D01*
X248561Y367350D01*
X248578Y367422D01*
X248604Y367491D01*
X248611Y367564D01*
X248617Y367588D01*
X248615Y367605D01*
X248618Y367638D01*
X248618Y377762D01*
X248606Y377835D01*
X248604Y377908D01*
X248587Y377954D01*
X248579Y378003D01*
X248544Y378068D01*
X248518Y378137D01*
X248487Y378175D01*
X248464Y378218D01*
X248410Y378269D01*
X248363Y378325D01*
X248321Y378351D01*
X248286Y378385D01*
X248219Y378416D01*
X248156Y378454D01*
X248108Y378466D01*
X248063Y378486D01*
X247990Y378493D01*
X247919Y378510D01*
X247870Y378505D01*
X247820Y378510D01*
X247749Y378493D01*
X247676Y378486D01*
X247631Y378466D01*
X247583Y378455D01*
X247520Y378416D01*
X247453Y378386D01*
X247397Y378339D01*
X247375Y378326D01*
X247365Y378313D01*
X247339Y378292D01*
X245187Y376140D01*
X241173Y374477D01*
X236827Y374477D01*
X232813Y376140D01*
X229740Y379213D01*
X228077Y383227D01*
X228077Y387573D01*
X229740Y391587D01*
X232813Y394660D01*
X236827Y396323D01*
X241173Y396323D01*
X245187Y394660D01*
X247339Y392508D01*
X247399Y392465D01*
X247453Y392415D01*
X247497Y392394D01*
X247538Y392366D01*
X247608Y392344D01*
X247675Y392314D01*
X247724Y392309D01*
X247771Y392295D01*
X247844Y392297D01*
X247918Y392290D01*
X247966Y392301D01*
X248015Y392303D01*
X248084Y392329D01*
X248155Y392345D01*
X248197Y392371D01*
X248243Y392389D01*
X248300Y392435D01*
X248363Y392474D01*
X248394Y392512D01*
X248432Y392543D01*
X248471Y392606D01*
X248518Y392662D01*
X248535Y392708D01*
X248561Y392750D01*
X248578Y392822D01*
X248604Y392891D01*
X248611Y392964D01*
X248617Y392988D01*
X248615Y393005D01*
X248618Y393038D01*
X248618Y403162D01*
X248606Y403235D01*
X248604Y403308D01*
X248587Y403354D01*
X248579Y403403D01*
X248544Y403468D01*
X248518Y403537D01*
X248487Y403575D01*
X248464Y403618D01*
X248410Y403669D01*
X248363Y403725D01*
X248321Y403751D01*
X248286Y403785D01*
X248219Y403816D01*
X248156Y403854D01*
X248108Y403866D01*
X248063Y403886D01*
X247990Y403893D01*
X247919Y403910D01*
X247870Y403905D01*
X247820Y403910D01*
X247749Y403893D01*
X247676Y403886D01*
X247631Y403866D01*
X247583Y403855D01*
X247520Y403816D01*
X247453Y403786D01*
X247397Y403739D01*
X247375Y403726D01*
X247365Y403713D01*
X247339Y403692D01*
X245187Y401540D01*
X241173Y399877D01*
X236827Y399877D01*
X232813Y401540D01*
X229740Y404613D01*
X228077Y408627D01*
X228077Y412973D01*
X229740Y416987D01*
X232813Y420060D01*
X236827Y421723D01*
X241173Y421723D01*
X245187Y420060D01*
X247339Y417908D01*
X247399Y417865D01*
X247453Y417815D01*
X247497Y417794D01*
X247538Y417766D01*
X247608Y417744D01*
X247675Y417714D01*
X247724Y417709D01*
X247771Y417695D01*
X247844Y417697D01*
X247918Y417690D01*
X247966Y417701D01*
X248015Y417703D01*
X248084Y417729D01*
X248155Y417745D01*
X248197Y417771D01*
X248243Y417789D01*
X248300Y417835D01*
X248363Y417874D01*
X248394Y417912D01*
X248432Y417943D01*
X248471Y418006D01*
X248518Y418062D01*
X248535Y418108D01*
X248561Y418150D01*
X248578Y418222D01*
X248604Y418291D01*
X248611Y418364D01*
X248617Y418388D01*
X248615Y418405D01*
X248618Y418438D01*
X248618Y428562D01*
X248606Y428635D01*
X248604Y428708D01*
X248587Y428754D01*
X248579Y428803D01*
X248544Y428868D01*
X248518Y428937D01*
X248487Y428975D01*
X248464Y429018D01*
X248410Y429069D01*
X248363Y429125D01*
X248321Y429151D01*
X248286Y429185D01*
X248219Y429216D01*
X248156Y429254D01*
X248108Y429266D01*
X248063Y429286D01*
X247990Y429293D01*
X247919Y429310D01*
X247870Y429305D01*
X247820Y429310D01*
X247749Y429293D01*
X247676Y429286D01*
X247631Y429266D01*
X247583Y429255D01*
X247520Y429216D01*
X247453Y429186D01*
X247397Y429139D01*
X247375Y429126D01*
X247365Y429113D01*
X247339Y429092D01*
X245187Y426940D01*
X241173Y425277D01*
X236827Y425277D01*
X232813Y426940D01*
X229740Y430013D01*
X228077Y434027D01*
X228077Y438373D01*
X229740Y442387D01*
X232813Y445460D01*
X236827Y447123D01*
X241173Y447123D01*
X245187Y445460D01*
X247339Y443308D01*
X247399Y443265D01*
X247453Y443215D01*
X247497Y443194D01*
X247538Y443166D01*
X247608Y443144D01*
X247675Y443114D01*
X247724Y443109D01*
X247771Y443095D01*
X247844Y443097D01*
X247918Y443090D01*
X247966Y443101D01*
X248015Y443103D01*
X248084Y443129D01*
X248155Y443145D01*
X248197Y443171D01*
X248243Y443189D01*
X248300Y443235D01*
X248363Y443274D01*
X248394Y443312D01*
X248432Y443343D01*
X248471Y443406D01*
X248518Y443462D01*
X248535Y443508D01*
X248561Y443550D01*
X248578Y443622D01*
X248604Y443691D01*
X248611Y443764D01*
X248617Y443788D01*
X248615Y443805D01*
X248618Y443838D01*
X248618Y453962D01*
X248606Y454035D01*
X248604Y454108D01*
X248587Y454154D01*
X248579Y454203D01*
X248544Y454268D01*
X248518Y454337D01*
X248487Y454375D01*
X248464Y454418D01*
X248410Y454469D01*
X248363Y454525D01*
X248321Y454551D01*
X248286Y454585D01*
X248219Y454616D01*
X248156Y454654D01*
X248108Y454666D01*
X248063Y454686D01*
X247990Y454693D01*
X247919Y454710D01*
X247870Y454705D01*
X247820Y454710D01*
X247749Y454693D01*
X247676Y454686D01*
X247631Y454666D01*
X247583Y454655D01*
X247520Y454616D01*
X247453Y454586D01*
X247397Y454539D01*
X247375Y454526D01*
X247365Y454513D01*
X247339Y454492D01*
X245187Y452340D01*
X241173Y450677D01*
X236827Y450677D01*
X232813Y452340D01*
X229740Y455413D01*
X228077Y459427D01*
X228077Y463773D01*
X229740Y467787D01*
X232813Y470860D01*
X236827Y472523D01*
X241173Y472523D01*
X245187Y470860D01*
X247339Y468708D01*
X247399Y468665D01*
X247453Y468615D01*
X247497Y468594D01*
X247538Y468566D01*
X247608Y468544D01*
X247675Y468514D01*
X247724Y468509D01*
X247771Y468495D01*
X247844Y468497D01*
X247918Y468490D01*
X247966Y468501D01*
X248015Y468503D01*
X248084Y468529D01*
X248155Y468545D01*
X248197Y468571D01*
X248243Y468589D01*
X248300Y468635D01*
X248363Y468674D01*
X248394Y468712D01*
X248432Y468743D01*
X248471Y468806D01*
X248518Y468862D01*
X248535Y468908D01*
X248561Y468950D01*
X248578Y469022D01*
X248604Y469091D01*
X248611Y469164D01*
X248617Y469188D01*
X248615Y469205D01*
X248618Y469238D01*
X248618Y479362D01*
X248606Y479435D01*
X248604Y479508D01*
X248587Y479554D01*
X248579Y479603D01*
X248544Y479668D01*
X248518Y479737D01*
X248487Y479775D01*
X248464Y479818D01*
X248410Y479869D01*
X248363Y479925D01*
X248321Y479951D01*
X248286Y479985D01*
X248219Y480016D01*
X248156Y480054D01*
X248108Y480066D01*
X248063Y480086D01*
X247990Y480093D01*
X247919Y480110D01*
X247870Y480105D01*
X247820Y480110D01*
X247749Y480093D01*
X247676Y480086D01*
X247631Y480066D01*
X247583Y480055D01*
X247520Y480016D01*
X247453Y479986D01*
X247397Y479939D01*
X247375Y479926D01*
X247365Y479913D01*
X247339Y479892D01*
X245187Y477740D01*
X241173Y476077D01*
X236827Y476077D01*
X232813Y477740D01*
X229740Y480813D01*
X228077Y484827D01*
X228077Y489173D01*
X229740Y493187D01*
X232813Y496260D01*
X236827Y497923D01*
X241173Y497923D01*
X245187Y496260D01*
X247339Y494108D01*
X247399Y494065D01*
X247453Y494015D01*
X247497Y493994D01*
X247538Y493966D01*
X247608Y493944D01*
X247675Y493914D01*
X247724Y493909D01*
X247771Y493895D01*
X247844Y493897D01*
X247918Y493890D01*
X247966Y493901D01*
X248015Y493903D01*
X248084Y493929D01*
X248155Y493945D01*
X248197Y493971D01*
X248243Y493989D01*
X248300Y494035D01*
X248363Y494074D01*
X248394Y494112D01*
X248432Y494143D01*
X248471Y494206D01*
X248518Y494262D01*
X248535Y494308D01*
X248561Y494350D01*
X248578Y494422D01*
X248604Y494491D01*
X248611Y494564D01*
X248617Y494588D01*
X248615Y494605D01*
X248618Y494638D01*
X248618Y510730D01*
X248614Y510754D01*
X248617Y510779D01*
X248595Y510874D01*
X248579Y510971D01*
X248567Y510992D01*
X248561Y511016D01*
X248510Y511100D01*
X248464Y511186D01*
X248446Y511203D01*
X248433Y511224D01*
X248357Y511286D01*
X248286Y511353D01*
X248263Y511363D01*
X248244Y511379D01*
X248153Y511413D01*
X248063Y511454D01*
X248039Y511456D01*
X248016Y511465D01*
X247869Y511479D01*
X213591Y511479D01*
X213567Y511475D01*
X213542Y511478D01*
X213447Y511456D01*
X213350Y511440D01*
X213329Y511428D01*
X213305Y511422D01*
X213221Y511371D01*
X213135Y511325D01*
X213118Y511307D01*
X213097Y511294D01*
X213035Y511218D01*
X212968Y511147D01*
X212963Y511134D01*
X211447Y509618D01*
X37283Y509618D01*
X35754Y511148D01*
X35734Y511186D01*
X35716Y511203D01*
X35703Y511224D01*
X35627Y511286D01*
X35556Y511353D01*
X35533Y511363D01*
X35514Y511379D01*
X35423Y511413D01*
X35333Y511454D01*
X35309Y511456D01*
X35286Y511465D01*
X35139Y511479D01*
X1131Y511479D01*
X1107Y511475D01*
X1082Y511478D01*
X987Y511455D01*
X890Y511440D01*
X869Y511428D01*
X845Y511422D01*
X761Y511371D01*
X675Y511325D01*
X658Y511307D01*
X637Y511294D01*
X575Y511218D01*
X508Y511146D01*
X498Y511124D01*
X482Y511105D01*
X448Y511014D01*
X407Y510924D01*
X405Y510900D01*
X396Y510877D01*
X382Y510730D01*
X382Y494638D01*
X394Y494565D01*
X396Y494492D01*
X413Y494446D01*
X421Y494397D01*
X456Y494332D01*
X482Y494263D01*
X513Y494225D01*
X536Y494182D01*
X590Y494131D01*
X637Y494075D01*
X679Y494049D01*
X714Y494015D01*
X781Y493984D01*
X844Y493946D01*
X892Y493934D01*
X937Y493914D01*
X1010Y493907D01*
X1081Y493890D01*
X1130Y493895D01*
X1180Y493890D01*
X1251Y493907D01*
X1324Y493914D01*
X1369Y493934D01*
X1417Y493945D01*
X1480Y493984D01*
X1547Y494014D01*
X1603Y494061D01*
X1625Y494074D01*
X1635Y494087D01*
X1661Y494108D01*
X3813Y496260D01*
X7827Y497923D01*
X12173Y497923D01*
X16187Y496260D01*
X19260Y493187D01*
X20923Y489173D01*
X20923Y484827D01*
X19260Y480813D01*
X16187Y477740D01*
X12173Y476077D01*
X7827Y476077D01*
X3813Y477740D01*
X1661Y479892D01*
X1601Y479935D01*
X1547Y479985D01*
X1503Y480006D01*
X1462Y480034D01*
X1392Y480056D01*
X1325Y480086D01*
X1276Y480091D01*
X1229Y480105D01*
X1156Y480103D01*
X1082Y480110D01*
X1034Y480099D01*
X985Y480097D01*
X916Y480071D01*
X845Y480055D01*
X803Y480029D01*
X757Y480011D01*
X700Y479965D01*
X637Y479926D01*
X606Y479888D01*
X568Y479857D01*
X529Y479794D01*
X482Y479738D01*
X465Y479692D01*
X439Y479650D01*
X422Y479578D01*
X396Y479509D01*
X389Y479436D01*
X383Y479412D01*
X385Y479395D01*
X382Y479362D01*
X382Y469238D01*
X394Y469165D01*
X396Y469092D01*
X413Y469046D01*
X421Y468997D01*
X456Y468932D01*
X482Y468863D01*
X513Y468825D01*
X536Y468782D01*
X590Y468731D01*
X637Y468675D01*
X679Y468649D01*
X714Y468615D01*
X781Y468584D01*
X844Y468546D01*
X892Y468534D01*
X937Y468514D01*
X1010Y468507D01*
X1081Y468490D01*
X1130Y468495D01*
X1180Y468490D01*
X1251Y468507D01*
X1324Y468514D01*
X1369Y468534D01*
X1417Y468545D01*
X1480Y468584D01*
X1547Y468614D01*
X1603Y468661D01*
X1625Y468674D01*
X1635Y468687D01*
X1661Y468708D01*
X3813Y470860D01*
X7827Y472523D01*
X12173Y472523D01*
X16187Y470860D01*
X19260Y467787D01*
X20923Y463773D01*
X20923Y459427D01*
X19260Y455413D01*
X16187Y452340D01*
X12173Y450677D01*
X7827Y450677D01*
X3813Y452340D01*
X1661Y454492D01*
X1601Y454535D01*
X1547Y454585D01*
X1503Y454606D01*
X1462Y454634D01*
X1392Y454656D01*
X1325Y454686D01*
X1276Y454691D01*
X1229Y454705D01*
X1156Y454703D01*
X1082Y454710D01*
X1034Y454699D01*
X985Y454697D01*
X916Y454671D01*
X845Y454655D01*
X803Y454629D01*
X757Y454611D01*
X700Y454565D01*
X637Y454526D01*
X606Y454488D01*
X568Y454457D01*
X529Y454394D01*
X482Y454338D01*
X465Y454292D01*
X439Y454250D01*
X422Y454178D01*
X396Y454109D01*
X389Y454036D01*
X383Y454012D01*
X385Y453995D01*
X382Y453962D01*
X382Y443838D01*
X394Y443765D01*
X396Y443692D01*
X413Y443646D01*
X421Y443597D01*
X456Y443532D01*
X482Y443463D01*
X513Y443425D01*
X536Y443382D01*
X590Y443331D01*
X637Y443275D01*
X679Y443249D01*
X714Y443215D01*
X781Y443184D01*
X844Y443146D01*
X892Y443134D01*
X937Y443114D01*
X1010Y443107D01*
X1081Y443090D01*
X1130Y443095D01*
X1180Y443090D01*
X1251Y443107D01*
X1324Y443114D01*
X1369Y443134D01*
X1417Y443145D01*
X1480Y443184D01*
X1547Y443214D01*
X1603Y443261D01*
X1625Y443274D01*
X1635Y443287D01*
X1661Y443308D01*
X3813Y445460D01*
X7827Y447123D01*
X12173Y447123D01*
X16187Y445460D01*
X19260Y442387D01*
X20923Y438373D01*
X20923Y434027D01*
X19260Y430013D01*
X16187Y426940D01*
X12173Y425277D01*
X7827Y425277D01*
X3813Y426940D01*
X1661Y429092D01*
X1601Y429135D01*
X1547Y429185D01*
X1503Y429206D01*
X1462Y429234D01*
X1392Y429256D01*
X1325Y429286D01*
X1276Y429291D01*
X1229Y429305D01*
X1156Y429303D01*
X1082Y429310D01*
X1034Y429299D01*
X985Y429297D01*
X916Y429271D01*
X845Y429255D01*
X803Y429229D01*
X757Y429211D01*
X700Y429165D01*
X637Y429126D01*
X606Y429088D01*
X568Y429057D01*
X529Y428994D01*
X482Y428938D01*
X465Y428892D01*
X439Y428850D01*
X422Y428778D01*
X396Y428709D01*
X389Y428636D01*
X383Y428612D01*
X385Y428595D01*
X382Y428562D01*
X382Y418438D01*
X394Y418365D01*
X396Y418292D01*
X413Y418246D01*
X421Y418197D01*
X456Y418132D01*
X482Y418063D01*
X513Y418025D01*
X536Y417982D01*
X590Y417931D01*
X637Y417875D01*
X679Y417849D01*
X714Y417815D01*
X781Y417784D01*
X844Y417746D01*
X892Y417734D01*
X937Y417714D01*
X1010Y417707D01*
X1081Y417690D01*
X1130Y417695D01*
X1180Y417690D01*
X1251Y417707D01*
X1324Y417714D01*
X1369Y417734D01*
X1417Y417745D01*
X1480Y417784D01*
X1547Y417814D01*
X1603Y417861D01*
X1625Y417874D01*
X1635Y417887D01*
X1661Y417908D01*
X3813Y420060D01*
X7827Y421723D01*
X12173Y421723D01*
X16187Y420060D01*
X19260Y416987D01*
X20923Y412973D01*
X20923Y408627D01*
X19260Y404613D01*
X16187Y401540D01*
X12173Y399877D01*
X7827Y399877D01*
X3813Y401540D01*
X1661Y403692D01*
X1601Y403735D01*
X1547Y403785D01*
X1503Y403806D01*
X1462Y403834D01*
X1392Y403856D01*
X1325Y403886D01*
X1276Y403891D01*
X1229Y403905D01*
X1156Y403903D01*
X1082Y403910D01*
X1034Y403899D01*
X985Y403897D01*
X916Y403871D01*
X845Y403855D01*
X803Y403829D01*
X757Y403811D01*
X700Y403765D01*
X637Y403726D01*
X606Y403688D01*
X568Y403657D01*
X529Y403594D01*
X482Y403538D01*
X465Y403492D01*
X439Y403450D01*
X422Y403378D01*
X396Y403309D01*
X389Y403236D01*
X383Y403212D01*
X385Y403195D01*
X382Y403162D01*
X382Y393038D01*
X394Y392965D01*
X396Y392892D01*
X413Y392846D01*
X421Y392797D01*
X456Y392732D01*
X482Y392663D01*
X513Y392625D01*
X536Y392582D01*
X590Y392531D01*
X637Y392475D01*
X679Y392449D01*
X714Y392415D01*
X781Y392384D01*
X844Y392346D01*
X892Y392334D01*
X937Y392314D01*
X1010Y392307D01*
X1081Y392290D01*
X1130Y392295D01*
X1180Y392290D01*
X1251Y392307D01*
X1324Y392314D01*
X1369Y392334D01*
X1417Y392345D01*
X1480Y392384D01*
X1547Y392414D01*
X1603Y392461D01*
X1625Y392474D01*
X1635Y392487D01*
X1661Y392508D01*
X3813Y394660D01*
X7827Y396323D01*
X12173Y396323D01*
X16187Y394660D01*
X19260Y391587D01*
X20923Y387573D01*
X20923Y383227D01*
X19260Y379213D01*
X16187Y376140D01*
X12173Y374477D01*
X7827Y374477D01*
X3813Y376140D01*
X1661Y378292D01*
X1601Y378335D01*
X1547Y378385D01*
X1503Y378406D01*
X1462Y378434D01*
X1392Y378456D01*
X1325Y378486D01*
X1276Y378491D01*
X1229Y378505D01*
X1156Y378503D01*
X1082Y378510D01*
X1034Y378499D01*
X985Y378497D01*
X916Y378471D01*
X845Y378455D01*
X803Y378429D01*
X757Y378411D01*
X700Y378365D01*
X637Y378326D01*
X606Y378288D01*
X568Y378257D01*
X529Y378194D01*
X482Y378138D01*
X465Y378092D01*
X439Y378050D01*
X422Y377978D01*
X396Y377909D01*
X389Y377836D01*
X383Y377812D01*
X385Y377795D01*
X382Y377762D01*
X382Y367638D01*
X394Y367565D01*
X396Y367492D01*
X413Y367446D01*
X421Y367397D01*
X456Y367332D01*
X482Y367263D01*
X513Y367225D01*
X536Y367182D01*
X590Y367131D01*
X637Y367075D01*
X679Y367049D01*
X714Y367015D01*
X781Y366984D01*
X844Y366946D01*
X892Y366934D01*
X937Y366914D01*
X1010Y366907D01*
X1081Y366890D01*
X1130Y366895D01*
X1180Y366890D01*
X1251Y366907D01*
X1324Y366914D01*
X1369Y366934D01*
X1417Y366945D01*
X1480Y366984D01*
X1547Y367014D01*
X1603Y367061D01*
X1625Y367074D01*
X1635Y367087D01*
X1661Y367108D01*
X3813Y369260D01*
X7827Y370923D01*
X12173Y370923D01*
X16187Y369260D01*
X19260Y366187D01*
X20923Y362173D01*
X20923Y357827D01*
X19260Y353813D01*
X16187Y350740D01*
X12173Y349077D01*
X7827Y349077D01*
X3813Y350740D01*
X1661Y352892D01*
X1601Y352935D01*
X1547Y352985D01*
X1503Y353006D01*
X1462Y353034D01*
X1392Y353056D01*
X1325Y353086D01*
X1276Y353091D01*
X1229Y353105D01*
X1156Y353103D01*
X1082Y353110D01*
X1034Y353099D01*
X985Y353097D01*
X916Y353071D01*
X845Y353055D01*
X803Y353029D01*
X757Y353011D01*
X700Y352965D01*
X637Y352926D01*
X606Y352888D01*
X568Y352857D01*
X529Y352794D01*
X482Y352738D01*
X465Y352692D01*
X439Y352650D01*
X422Y352578D01*
X396Y352509D01*
X389Y352436D01*
X383Y352412D01*
X385Y352395D01*
X382Y352362D01*
X382Y342238D01*
X384Y342225D01*
X383Y342219D01*
X389Y342196D01*
X394Y342165D01*
X396Y342092D01*
X413Y342046D01*
X421Y341997D01*
X456Y341932D01*
X482Y341863D01*
X513Y341825D01*
X536Y341782D01*
X590Y341731D01*
X637Y341675D01*
X679Y341649D01*
X714Y341615D01*
X781Y341584D01*
X844Y341546D01*
X892Y341534D01*
X937Y341514D01*
X1010Y341507D01*
X1081Y341490D01*
X1130Y341495D01*
X1180Y341490D01*
X1251Y341507D01*
X1324Y341514D01*
X1369Y341534D01*
X1417Y341545D01*
X1480Y341584D01*
X1547Y341614D01*
X1603Y341661D01*
X1625Y341674D01*
X1635Y341687D01*
X1661Y341708D01*
X3813Y343860D01*
X7827Y345523D01*
X12173Y345523D01*
X16187Y343860D01*
X19260Y340787D01*
X20923Y336773D01*
X20923Y332427D01*
X19260Y328413D01*
X16187Y325340D01*
X12173Y323677D01*
X7827Y323677D01*
X3813Y325340D01*
X1661Y327492D01*
X1601Y327535D01*
X1547Y327585D01*
X1503Y327606D01*
X1462Y327634D01*
X1392Y327656D01*
X1325Y327686D01*
X1276Y327691D01*
X1229Y327705D01*
X1156Y327703D01*
X1082Y327710D01*
X1034Y327699D01*
X985Y327697D01*
X916Y327671D01*
X845Y327655D01*
X803Y327629D01*
X757Y327611D01*
X700Y327565D01*
X637Y327526D01*
X606Y327488D01*
X568Y327457D01*
X529Y327394D01*
X482Y327338D01*
X465Y327292D01*
X439Y327250D01*
X422Y327178D01*
X396Y327109D01*
X389Y327036D01*
X383Y327012D01*
X385Y326995D01*
X382Y326962D01*
X382Y316838D01*
X394Y316765D01*
X396Y316692D01*
X413Y316646D01*
X421Y316597D01*
X456Y316532D01*
X482Y316463D01*
X513Y316425D01*
X536Y316382D01*
X590Y316331D01*
X637Y316275D01*
X679Y316249D01*
X714Y316215D01*
X781Y316184D01*
X844Y316146D01*
X892Y316134D01*
X937Y316114D01*
X1010Y316107D01*
X1081Y316090D01*
X1130Y316095D01*
X1180Y316090D01*
X1251Y316107D01*
X1324Y316114D01*
X1369Y316134D01*
X1417Y316145D01*
X1480Y316184D01*
X1547Y316214D01*
X1603Y316261D01*
X1625Y316274D01*
X1635Y316287D01*
X1661Y316308D01*
X3813Y318460D01*
X7827Y320123D01*
X12173Y320123D01*
X16187Y318460D01*
X19260Y315387D01*
X20923Y311373D01*
X20923Y307027D01*
X19260Y303013D01*
X16187Y299940D01*
X12173Y298277D01*
X7827Y298277D01*
X3813Y299940D01*
X1661Y302092D01*
X1601Y302135D01*
X1547Y302185D01*
X1503Y302206D01*
X1462Y302234D01*
X1392Y302256D01*
X1325Y302286D01*
X1276Y302291D01*
X1229Y302305D01*
X1156Y302303D01*
X1082Y302310D01*
X1034Y302299D01*
X985Y302297D01*
X916Y302271D01*
X845Y302255D01*
X803Y302229D01*
X757Y302211D01*
X700Y302165D01*
X637Y302126D01*
X606Y302088D01*
X568Y302057D01*
X529Y301994D01*
X482Y301938D01*
X465Y301892D01*
X439Y301850D01*
X422Y301778D01*
X396Y301709D01*
X389Y301636D01*
X383Y301612D01*
X385Y301595D01*
X382Y301562D01*
X382Y291438D01*
X394Y291365D01*
X396Y291292D01*
X413Y291246D01*
X421Y291197D01*
X456Y291132D01*
X482Y291063D01*
X513Y291025D01*
X536Y290982D01*
X590Y290931D01*
X637Y290875D01*
X679Y290849D01*
X714Y290815D01*
X781Y290784D01*
X844Y290746D01*
X892Y290734D01*
X937Y290714D01*
X1010Y290707D01*
X1081Y290690D01*
X1130Y290695D01*
X1180Y290690D01*
X1251Y290707D01*
X1324Y290714D01*
X1369Y290734D01*
X1417Y290745D01*
X1480Y290784D01*
X1547Y290814D01*
X1603Y290861D01*
X1625Y290874D01*
X1635Y290887D01*
X1661Y290908D01*
X3813Y293060D01*
X7827Y294723D01*
X12173Y294723D01*
X16187Y293060D01*
X19260Y289987D01*
X20923Y285973D01*
X20923Y281627D01*
X19260Y277613D01*
X16187Y274540D01*
X12173Y272877D01*
X7827Y272877D01*
X3813Y274540D01*
X1661Y276692D01*
X1601Y276735D01*
X1547Y276785D01*
X1503Y276806D01*
X1462Y276834D01*
X1392Y276856D01*
X1325Y276886D01*
X1276Y276891D01*
X1229Y276905D01*
X1156Y276903D01*
X1082Y276910D01*
X1034Y276899D01*
X985Y276897D01*
X916Y276871D01*
X845Y276855D01*
X803Y276829D01*
X757Y276811D01*
X700Y276765D01*
X637Y276726D01*
X606Y276688D01*
X568Y276657D01*
X529Y276594D01*
X482Y276538D01*
X465Y276492D01*
X439Y276450D01*
X422Y276378D01*
X396Y276309D01*
X389Y276236D01*
X383Y276212D01*
X385Y276195D01*
X382Y276162D01*
X382Y266038D01*
X394Y265965D01*
X396Y265892D01*
X413Y265846D01*
X421Y265797D01*
X456Y265732D01*
X482Y265663D01*
X513Y265625D01*
X536Y265582D01*
X590Y265531D01*
X637Y265475D01*
X679Y265449D01*
X714Y265415D01*
X781Y265384D01*
X844Y265346D01*
X892Y265334D01*
X937Y265314D01*
X1010Y265307D01*
X1081Y265290D01*
X1130Y265295D01*
X1180Y265290D01*
X1251Y265307D01*
X1324Y265314D01*
X1369Y265334D01*
X1417Y265345D01*
X1480Y265384D01*
X1547Y265414D01*
X1603Y265461D01*
X1625Y265474D01*
X1635Y265487D01*
X1661Y265508D01*
X3813Y267660D01*
X7827Y269323D01*
X12173Y269323D01*
X16187Y267660D01*
X19260Y264587D01*
X20158Y262419D01*
X20213Y262331D01*
X20286Y262212D01*
X20287Y262212D01*
X20378Y262137D01*
X20475Y262057D01*
X20608Y262007D01*
X20703Y261971D01*
X20704Y261971D01*
X20705Y261971D01*
X20850Y261957D01*
X22473Y261957D01*
X30234Y254196D01*
X30313Y254139D01*
X30388Y254077D01*
X30412Y254069D01*
X30432Y254054D01*
X30525Y254026D01*
X30617Y253991D01*
X30650Y253988D01*
X30666Y253983D01*
X30691Y253984D01*
X30764Y253977D01*
X32575Y253977D01*
X35537Y251015D01*
X35537Y246825D01*
X33039Y244328D01*
X32996Y244268D01*
X32946Y244214D01*
X32926Y244170D01*
X32897Y244129D01*
X32876Y244059D01*
X32845Y243992D01*
X32840Y243943D01*
X32826Y243896D01*
X32828Y243823D01*
X32821Y243749D01*
X32832Y243701D01*
X32834Y243652D01*
X32860Y243583D01*
X32876Y243512D01*
X32902Y243470D01*
X32920Y243424D01*
X32966Y243367D01*
X33005Y243304D01*
X33043Y243273D01*
X33074Y243235D01*
X33137Y243196D01*
X33194Y243149D01*
X33240Y243132D01*
X33282Y243106D01*
X33353Y243089D01*
X33422Y243063D01*
X33495Y243056D01*
X33519Y243050D01*
X33536Y243052D01*
X33569Y243049D01*
X93168Y243049D01*
X93264Y243065D01*
X93361Y243074D01*
X93384Y243084D01*
X93409Y243088D01*
X93495Y243134D01*
X93583Y243175D01*
X93609Y243196D01*
X93624Y243203D01*
X93641Y243222D01*
X93698Y243268D01*
X97724Y247294D01*
X97781Y247374D01*
X97843Y247449D01*
X97851Y247472D01*
X97866Y247493D01*
X97894Y247586D01*
X97929Y247677D01*
X97932Y247710D01*
X97937Y247726D01*
X97936Y247751D01*
X97943Y247824D01*
X97943Y251095D01*
X100905Y254057D01*
X105095Y254057D01*
X106196Y252955D01*
X106256Y252912D01*
X106310Y252862D01*
X106354Y252842D01*
X106395Y252813D01*
X106465Y252792D01*
X106532Y252761D01*
X106581Y252756D01*
X106628Y252742D01*
X106701Y252744D01*
X106775Y252737D01*
X106823Y252748D01*
X106872Y252750D01*
X106941Y252776D01*
X107012Y252792D01*
X107054Y252818D01*
X107100Y252836D01*
X107157Y252882D01*
X107220Y252921D01*
X107251Y252959D01*
X107289Y252990D01*
X107328Y253053D01*
X107375Y253110D01*
X107392Y253156D01*
X107418Y253198D01*
X107435Y253269D01*
X107461Y253338D01*
X107468Y253411D01*
X107474Y253435D01*
X107472Y253452D01*
X107475Y253485D01*
X107475Y254644D01*
X107474Y254653D01*
X107474Y254654D01*
X107473Y254655D01*
X107459Y254740D01*
X107450Y254837D01*
X107440Y254860D01*
X107436Y254885D01*
X107390Y254971D01*
X107349Y255059D01*
X107328Y255085D01*
X107321Y255100D01*
X107302Y255117D01*
X107256Y255174D01*
X102174Y260256D01*
X102094Y260313D01*
X102019Y260375D01*
X101996Y260383D01*
X101975Y260398D01*
X101882Y260426D01*
X101791Y260461D01*
X101758Y260464D01*
X101742Y260469D01*
X101717Y260468D01*
X101644Y260475D01*
X59954Y260475D01*
X52475Y267954D01*
X52475Y354063D01*
X52459Y354159D01*
X52450Y354256D01*
X52440Y354279D01*
X52436Y354304D01*
X52390Y354390D01*
X52349Y354479D01*
X52328Y354504D01*
X52321Y354519D01*
X52302Y354536D01*
X52256Y354593D01*
X49943Y356905D01*
X49943Y361095D01*
X52905Y364057D01*
X53128Y364057D01*
X53201Y364069D01*
X53274Y364071D01*
X53320Y364088D01*
X53369Y364096D01*
X53434Y364131D01*
X53503Y364157D01*
X53541Y364188D01*
X53584Y364211D01*
X53635Y364265D01*
X53691Y364312D01*
X53718Y364354D01*
X53751Y364389D01*
X53782Y364456D01*
X53820Y364519D01*
X53832Y364567D01*
X53852Y364612D01*
X53859Y364685D01*
X53876Y364756D01*
X53871Y364805D01*
X53876Y364855D01*
X53859Y364926D01*
X53852Y364999D01*
X53832Y365044D01*
X53821Y365092D01*
X53782Y365155D01*
X53752Y365222D01*
X53705Y365278D01*
X53692Y365300D01*
X53679Y365310D01*
X53658Y365336D01*
X53475Y365519D01*
X53475Y370063D01*
X53459Y370159D01*
X53450Y370256D01*
X53440Y370279D01*
X53436Y370304D01*
X53390Y370390D01*
X53349Y370479D01*
X53328Y370504D01*
X53321Y370519D01*
X53302Y370536D01*
X53256Y370593D01*
X50943Y372905D01*
X50943Y377095D01*
X53905Y380057D01*
X58095Y380057D01*
X61057Y377095D01*
X61057Y372905D01*
X58744Y370593D01*
X58687Y370514D01*
X58625Y370438D01*
X58617Y370415D01*
X58602Y370395D01*
X58574Y370301D01*
X58539Y370210D01*
X58536Y370177D01*
X58531Y370161D01*
X58532Y370136D01*
X58525Y370063D01*
X58525Y367921D01*
X58541Y367824D01*
X58550Y367727D01*
X58560Y367705D01*
X58564Y367680D01*
X58610Y367594D01*
X58651Y367505D01*
X58672Y367479D01*
X58679Y367465D01*
X58698Y367448D01*
X58744Y367391D01*
X63581Y362554D01*
X63581Y355446D01*
X62236Y354101D01*
X62179Y354022D01*
X62117Y353946D01*
X62109Y353923D01*
X62094Y353903D01*
X62066Y353809D01*
X62031Y353718D01*
X62028Y353685D01*
X62023Y353669D01*
X62024Y353644D01*
X62017Y353571D01*
X62017Y270848D01*
X62033Y270752D01*
X62042Y270655D01*
X62052Y270632D01*
X62056Y270607D01*
X62102Y270521D01*
X62142Y270432D01*
X62163Y270407D01*
X62171Y270392D01*
X62189Y270375D01*
X62236Y270318D01*
X63286Y269268D01*
X63365Y269211D01*
X63441Y269149D01*
X63464Y269141D01*
X63484Y269126D01*
X63578Y269098D01*
X63669Y269063D01*
X63702Y269060D01*
X63718Y269055D01*
X63743Y269056D01*
X63816Y269049D01*
X105506Y269049D01*
X107204Y267350D01*
X114350Y260204D01*
X116049Y258506D01*
X116049Y207304D01*
X114350Y205606D01*
X108382Y199638D01*
X108339Y199578D01*
X108289Y199524D01*
X108269Y199480D01*
X108240Y199439D01*
X108219Y199369D01*
X108188Y199302D01*
X108183Y199253D01*
X108169Y199206D01*
X108171Y199133D01*
X108164Y199059D01*
X108175Y199011D01*
X108177Y198962D01*
X108203Y198893D01*
X108219Y198822D01*
X108245Y198780D01*
X108263Y198734D01*
X108309Y198677D01*
X108348Y198614D01*
X108386Y198583D01*
X108417Y198545D01*
X108480Y198506D01*
X108537Y198459D01*
X108583Y198442D01*
X108625Y198416D01*
X108696Y198399D01*
X108765Y198373D01*
X108838Y198366D01*
X108862Y198360D01*
X108879Y198362D01*
X108912Y198359D01*
X112580Y198359D01*
X112676Y198375D01*
X112773Y198384D01*
X112796Y198394D01*
X112821Y198398D01*
X112907Y198444D01*
X112996Y198485D01*
X113021Y198506D01*
X113036Y198513D01*
X113053Y198532D01*
X113110Y198578D01*
X113668Y199137D01*
X116614Y199137D01*
X116638Y199141D01*
X116663Y199138D01*
X116758Y199160D01*
X116855Y199176D01*
X116876Y199188D01*
X116900Y199194D01*
X116984Y199245D01*
X117070Y199291D01*
X117087Y199309D01*
X117108Y199322D01*
X117170Y199398D01*
X117237Y199469D01*
X117247Y199492D01*
X117263Y199511D01*
X117297Y199602D01*
X117338Y199692D01*
X117340Y199716D01*
X117349Y199739D01*
X117363Y199886D01*
X117363Y200944D01*
X125954Y209535D01*
X135900Y209535D01*
X135996Y209551D01*
X136093Y209560D01*
X136116Y209570D01*
X136141Y209574D01*
X136227Y209620D01*
X136316Y209661D01*
X136341Y209682D01*
X136356Y209689D01*
X136373Y209708D01*
X136430Y209754D01*
X145046Y218370D01*
X145103Y218449D01*
X145165Y218525D01*
X145173Y218548D01*
X145188Y218568D01*
X145216Y218662D01*
X145251Y218753D01*
X145254Y218786D01*
X145259Y218802D01*
X145258Y218827D01*
X145265Y218900D01*
X145265Y231992D01*
X146158Y232885D01*
X150965Y232885D01*
X151038Y232897D01*
X151111Y232899D01*
X151157Y232916D01*
X151206Y232924D01*
X151271Y232959D01*
X151339Y232985D01*
X151378Y233016D01*
X151421Y233039D01*
X151471Y233093D01*
X151528Y233140D01*
X151554Y233182D01*
X151588Y233217D01*
X151618Y233284D01*
X151657Y233347D01*
X151668Y233395D01*
X151689Y233440D01*
X151696Y233513D01*
X151713Y233584D01*
X151708Y233633D01*
X151713Y233683D01*
X151696Y233754D01*
X151689Y233827D01*
X151669Y233872D01*
X151658Y233920D01*
X151619Y233983D01*
X151589Y234050D01*
X151542Y234106D01*
X151529Y234128D01*
X151516Y234138D01*
X151495Y234164D01*
X149593Y236066D01*
X149514Y236123D01*
X149438Y236185D01*
X149415Y236193D01*
X149395Y236208D01*
X149301Y236236D01*
X149210Y236271D01*
X149177Y236274D01*
X149161Y236279D01*
X149136Y236278D01*
X149063Y236285D01*
X142684Y236285D01*
X135804Y243166D01*
X135744Y243209D01*
X135690Y243259D01*
X135646Y243279D01*
X135605Y243308D01*
X135535Y243329D01*
X135468Y243360D01*
X135419Y243364D01*
X135372Y243379D01*
X135299Y243376D01*
X135225Y243384D01*
X135177Y243372D01*
X135128Y243371D01*
X135059Y243345D01*
X134988Y243328D01*
X134946Y243302D01*
X134900Y243285D01*
X134843Y243238D01*
X134780Y243200D01*
X134749Y243162D01*
X134711Y243130D01*
X134672Y243068D01*
X134625Y243011D01*
X134608Y242965D01*
X134582Y242923D01*
X134565Y242852D01*
X134539Y242783D01*
X134532Y242710D01*
X134526Y242686D01*
X134528Y242669D01*
X134525Y242636D01*
X134525Y240937D01*
X134541Y240841D01*
X134550Y240744D01*
X134560Y240721D01*
X134564Y240696D01*
X134610Y240610D01*
X134651Y240521D01*
X134672Y240496D01*
X134679Y240481D01*
X134698Y240464D01*
X134744Y240407D01*
X137057Y238095D01*
X137057Y233905D01*
X134095Y230943D01*
X129905Y230943D01*
X126943Y233905D01*
X126943Y238095D01*
X129256Y240407D01*
X129313Y240487D01*
X129375Y240562D01*
X129383Y240585D01*
X129398Y240605D01*
X129426Y240699D01*
X129461Y240790D01*
X129464Y240823D01*
X129469Y240839D01*
X129468Y240864D01*
X129475Y240937D01*
X129475Y317030D01*
X131174Y318728D01*
X135497Y323052D01*
X135512Y323072D01*
X135531Y323087D01*
X135582Y323170D01*
X135640Y323250D01*
X135647Y323273D01*
X135660Y323294D01*
X135682Y323390D01*
X135710Y323484D01*
X135710Y323508D01*
X135715Y323532D01*
X135706Y323629D01*
X135703Y323727D01*
X135694Y323750D01*
X135692Y323775D01*
X135651Y323864D01*
X135617Y323956D01*
X135601Y323975D01*
X135591Y323997D01*
X135497Y324111D01*
X133433Y326175D01*
X133433Y330365D01*
X136395Y333327D01*
X140585Y333327D01*
X141686Y332225D01*
X141746Y332182D01*
X141800Y332132D01*
X141844Y332112D01*
X141885Y332083D01*
X141955Y332062D01*
X142022Y332031D01*
X142071Y332026D01*
X142118Y332012D01*
X142191Y332014D01*
X142265Y332007D01*
X142313Y332018D01*
X142362Y332020D01*
X142431Y332046D01*
X142502Y332062D01*
X142544Y332088D01*
X142590Y332106D01*
X142647Y332152D01*
X142710Y332191D01*
X142741Y332229D01*
X142779Y332260D01*
X142818Y332323D01*
X142865Y332380D01*
X142882Y332426D01*
X142908Y332468D01*
X142925Y332539D01*
X142951Y332608D01*
X142958Y332681D01*
X142964Y332705D01*
X142962Y332722D01*
X142965Y332755D01*
X142965Y342063D01*
X142949Y342159D01*
X142940Y342256D01*
X142930Y342279D01*
X142926Y342304D01*
X142880Y342390D01*
X142839Y342479D01*
X142818Y342504D01*
X142811Y342519D01*
X142792Y342536D01*
X142746Y342593D01*
X140433Y344905D01*
X140433Y349095D01*
X143395Y352057D01*
X147585Y352057D01*
X150547Y349095D01*
X150547Y344905D01*
X148234Y342593D01*
X148177Y342513D01*
X148115Y342438D01*
X148107Y342415D01*
X148092Y342395D01*
X148064Y342301D01*
X148029Y342210D01*
X148026Y342177D01*
X148021Y342161D01*
X148022Y342136D01*
X148015Y342063D01*
X148015Y323444D01*
X138268Y313698D01*
X138211Y313618D01*
X138149Y313543D01*
X138141Y313520D01*
X138126Y313499D01*
X138098Y313406D01*
X138063Y313315D01*
X138060Y313282D01*
X138055Y313266D01*
X138056Y313241D01*
X138049Y313168D01*
X138049Y248372D01*
X138065Y248276D01*
X138074Y248179D01*
X138084Y248156D01*
X138088Y248131D01*
X138134Y248045D01*
X138175Y247957D01*
X138196Y247931D01*
X138203Y247916D01*
X138222Y247899D01*
X138268Y247842D01*
X144556Y241554D01*
X144636Y241497D01*
X144711Y241435D01*
X144734Y241427D01*
X144755Y241412D01*
X144848Y241384D01*
X144939Y241349D01*
X144972Y241346D01*
X144988Y241341D01*
X145013Y241342D01*
X145086Y241335D01*
X149063Y241335D01*
X149159Y241351D01*
X149256Y241360D01*
X149279Y241370D01*
X149304Y241374D01*
X149390Y241420D01*
X149479Y241461D01*
X149504Y241482D01*
X149519Y241489D01*
X149536Y241508D01*
X149593Y241554D01*
X151905Y243867D01*
X156095Y243867D01*
X159057Y240905D01*
X159057Y236715D01*
X156505Y234164D01*
X156462Y234104D01*
X156412Y234050D01*
X156392Y234006D01*
X156363Y233965D01*
X156342Y233895D01*
X156311Y233828D01*
X156306Y233779D01*
X156292Y233732D01*
X156294Y233659D01*
X156287Y233585D01*
X156298Y233537D01*
X156300Y233488D01*
X156326Y233419D01*
X156342Y233348D01*
X156368Y233306D01*
X156386Y233260D01*
X156432Y233203D01*
X156471Y233140D01*
X156509Y233109D01*
X156540Y233071D01*
X156603Y233032D01*
X156660Y232985D01*
X156706Y232968D01*
X156748Y232942D01*
X156819Y232925D01*
X156888Y232899D01*
X156961Y232892D01*
X156985Y232886D01*
X157002Y232888D01*
X157035Y232885D01*
X157422Y232885D01*
X158315Y231992D01*
X158315Y216728D01*
X157480Y215894D01*
X157437Y215834D01*
X157387Y215780D01*
X157367Y215736D01*
X157338Y215695D01*
X157317Y215625D01*
X157286Y215558D01*
X157281Y215509D01*
X157267Y215462D01*
X157269Y215389D01*
X157262Y215315D01*
X157273Y215267D01*
X157275Y215218D01*
X157301Y215149D01*
X157317Y215078D01*
X157343Y215036D01*
X157361Y214990D01*
X157407Y214933D01*
X157446Y214870D01*
X157484Y214839D01*
X157515Y214801D01*
X157578Y214762D01*
X157635Y214715D01*
X157681Y214698D01*
X157723Y214672D01*
X157794Y214655D01*
X157863Y214629D01*
X157936Y214622D01*
X157960Y214616D01*
X157977Y214618D01*
X158010Y214615D01*
X159934Y214615D01*
X160030Y214631D01*
X160127Y214640D01*
X160150Y214650D01*
X160175Y214654D01*
X160261Y214700D01*
X160349Y214741D01*
X160375Y214762D01*
X160390Y214769D01*
X160407Y214788D01*
X160464Y214834D01*
X164046Y218416D01*
X164103Y218496D01*
X164165Y218571D01*
X164173Y218594D01*
X164188Y218615D01*
X164216Y218708D01*
X164251Y218799D01*
X164254Y218832D01*
X164259Y218848D01*
X164258Y218873D01*
X164265Y218946D01*
X164265Y231992D01*
X165158Y232885D01*
X166694Y232885D01*
X166718Y232889D01*
X166743Y232886D01*
X166838Y232908D01*
X166935Y232924D01*
X166956Y232936D01*
X166980Y232942D01*
X167064Y232993D01*
X167150Y233039D01*
X167167Y233057D01*
X167188Y233070D01*
X167250Y233146D01*
X167317Y233217D01*
X167327Y233240D01*
X167343Y233259D01*
X167377Y233350D01*
X167418Y233440D01*
X167420Y233464D01*
X167429Y233487D01*
X167443Y233634D01*
X167443Y271716D01*
X167427Y271813D01*
X167418Y271910D01*
X167408Y271932D01*
X167404Y271957D01*
X167358Y272043D01*
X167317Y272132D01*
X167296Y272158D01*
X167289Y272172D01*
X167270Y272189D01*
X167224Y272246D01*
X152653Y286817D01*
X152653Y299885D01*
X152637Y299981D01*
X152628Y300078D01*
X152618Y300101D01*
X152614Y300126D01*
X152568Y300212D01*
X152527Y300301D01*
X152506Y300326D01*
X152499Y300341D01*
X152480Y300358D01*
X152434Y300415D01*
X150943Y301905D01*
X150943Y306095D01*
X152224Y307375D01*
X152281Y307454D01*
X152343Y307530D01*
X152351Y307553D01*
X152366Y307573D01*
X152394Y307667D01*
X152429Y307758D01*
X152432Y307791D01*
X152437Y307807D01*
X152436Y307832D01*
X152443Y307905D01*
X152443Y375598D01*
X152439Y375622D01*
X152442Y375647D01*
X152420Y375742D01*
X152404Y375839D01*
X152392Y375860D01*
X152386Y375884D01*
X152335Y375968D01*
X152289Y376054D01*
X152271Y376071D01*
X152258Y376092D01*
X152182Y376154D01*
X152111Y376221D01*
X152088Y376231D01*
X152069Y376247D01*
X151978Y376281D01*
X151888Y376322D01*
X151864Y376324D01*
X151841Y376333D01*
X151694Y376347D01*
X143200Y376347D01*
X142307Y377240D01*
X142307Y398101D01*
X142291Y398197D01*
X142282Y398294D01*
X142272Y398317D01*
X142268Y398342D01*
X142222Y398428D01*
X142181Y398516D01*
X142160Y398542D01*
X142153Y398557D01*
X142134Y398574D01*
X142088Y398631D01*
X121936Y418782D01*
X119633Y421085D01*
X119633Y455434D01*
X119631Y455447D01*
X119632Y455453D01*
X119630Y455462D01*
X119632Y455483D01*
X119610Y455578D01*
X119594Y455675D01*
X119582Y455696D01*
X119576Y455720D01*
X119525Y455804D01*
X119479Y455890D01*
X119461Y455907D01*
X119448Y455928D01*
X119372Y455990D01*
X119301Y456057D01*
X119278Y456067D01*
X119259Y456083D01*
X119168Y456117D01*
X119078Y456158D01*
X119054Y456160D01*
X119031Y456169D01*
X118884Y456183D01*
X104066Y456183D01*
X103970Y456167D01*
X103873Y456158D01*
X103850Y456148D01*
X103825Y456144D01*
X103739Y456098D01*
X103650Y456057D01*
X103625Y456036D01*
X103610Y456029D01*
X103593Y456010D01*
X103536Y455964D01*
X102740Y455167D01*
X78616Y455167D01*
X77723Y456060D01*
X77723Y463420D01*
X78616Y464313D01*
X87656Y464313D01*
X87680Y464317D01*
X87705Y464314D01*
X87800Y464336D01*
X87897Y464352D01*
X87918Y464364D01*
X87942Y464370D01*
X88026Y464421D01*
X88112Y464467D01*
X88129Y464485D01*
X88150Y464498D01*
X88212Y464574D01*
X88279Y464645D01*
X88289Y464668D01*
X88305Y464687D01*
X88339Y464778D01*
X88380Y464868D01*
X88382Y464892D01*
X88391Y464915D01*
X88405Y465062D01*
X88405Y468859D01*
X88389Y468955D01*
X88380Y469052D01*
X88370Y469075D01*
X88366Y469100D01*
X88320Y469186D01*
X88279Y469274D01*
X88258Y469300D01*
X88251Y469315D01*
X88232Y469332D01*
X88186Y469389D01*
X86705Y470869D01*
X86705Y476551D01*
X87936Y477781D01*
X87993Y477861D01*
X88055Y477936D01*
X88063Y477959D01*
X88078Y477980D01*
X88106Y478073D01*
X88141Y478164D01*
X88144Y478197D01*
X88149Y478213D01*
X88148Y478238D01*
X88155Y478311D01*
X88155Y479866D01*
X88151Y479890D01*
X88154Y479915D01*
X88132Y480010D01*
X88116Y480107D01*
X88104Y480128D01*
X88098Y480152D01*
X88047Y480236D01*
X88001Y480322D01*
X87983Y480339D01*
X87970Y480360D01*
X87894Y480422D01*
X87823Y480489D01*
X87800Y480499D01*
X87781Y480515D01*
X87690Y480549D01*
X87600Y480590D01*
X87576Y480592D01*
X87553Y480601D01*
X87406Y480615D01*
X87348Y480615D01*
X86890Y481074D01*
X86870Y481088D01*
X86854Y481107D01*
X86771Y481159D01*
X86691Y481216D01*
X86668Y481223D01*
X86647Y481236D01*
X86552Y481258D01*
X86458Y481287D01*
X86434Y481286D01*
X86410Y481292D01*
X86312Y481282D01*
X86214Y481279D01*
X86191Y481270D01*
X86167Y481268D01*
X86077Y481228D01*
X85986Y481193D01*
X85967Y481178D01*
X85944Y481168D01*
X85830Y481074D01*
X85372Y480615D01*
X78708Y480615D01*
X77815Y481508D01*
X77815Y481866D01*
X77811Y481890D01*
X77814Y481915D01*
X77792Y482010D01*
X77776Y482107D01*
X77764Y482128D01*
X77758Y482152D01*
X77707Y482236D01*
X77661Y482322D01*
X77643Y482339D01*
X77630Y482360D01*
X77554Y482422D01*
X77483Y482489D01*
X77460Y482499D01*
X77441Y482515D01*
X77350Y482549D01*
X77260Y482590D01*
X77236Y482592D01*
X77213Y482601D01*
X77066Y482615D01*
X75016Y482615D01*
X74920Y482599D01*
X74823Y482590D01*
X74800Y482580D01*
X74775Y482576D01*
X74689Y482530D01*
X74601Y482489D01*
X74575Y482468D01*
X74560Y482461D01*
X74543Y482442D01*
X74486Y482396D01*
X72594Y480504D01*
X72537Y480424D01*
X72475Y480349D01*
X72467Y480326D01*
X72452Y480305D01*
X72424Y480212D01*
X72389Y480121D01*
X72386Y480088D01*
X72381Y480072D01*
X72382Y480047D01*
X72375Y479974D01*
X72375Y452206D01*
X72391Y452110D01*
X72400Y452013D01*
X72410Y451990D01*
X72414Y451965D01*
X72460Y451879D01*
X72501Y451791D01*
X72522Y451765D01*
X72529Y451750D01*
X72548Y451733D01*
X72594Y451676D01*
X74486Y449784D01*
X74566Y449727D01*
X74641Y449665D01*
X74664Y449657D01*
X74685Y449642D01*
X74778Y449614D01*
X74869Y449579D01*
X74902Y449576D01*
X74918Y449571D01*
X74943Y449572D01*
X75016Y449565D01*
X76974Y449565D01*
X76998Y449569D01*
X77023Y449566D01*
X77118Y449588D01*
X77215Y449604D01*
X77236Y449616D01*
X77260Y449622D01*
X77344Y449673D01*
X77430Y449719D01*
X77447Y449737D01*
X77468Y449750D01*
X77530Y449826D01*
X77597Y449897D01*
X77607Y449920D01*
X77623Y449939D01*
X77657Y450030D01*
X77698Y450120D01*
X77700Y450144D01*
X77709Y450167D01*
X77723Y450314D01*
X77723Y450720D01*
X78616Y451613D01*
X102740Y451613D01*
X103633Y450720D01*
X103633Y443360D01*
X102740Y442467D01*
X78616Y442467D01*
X77723Y443360D01*
X77723Y443766D01*
X77719Y443790D01*
X77722Y443815D01*
X77700Y443910D01*
X77684Y444007D01*
X77672Y444028D01*
X77666Y444052D01*
X77615Y444136D01*
X77569Y444222D01*
X77551Y444239D01*
X77538Y444260D01*
X77462Y444322D01*
X77391Y444389D01*
X77368Y444399D01*
X77349Y444415D01*
X77258Y444449D01*
X77168Y444490D01*
X77144Y444492D01*
X77121Y444501D01*
X76974Y444515D01*
X72614Y444515D01*
X67325Y449804D01*
X67325Y482376D01*
X72614Y487665D01*
X77066Y487665D01*
X77090Y487669D01*
X77115Y487666D01*
X77210Y487688D01*
X77307Y487704D01*
X77328Y487716D01*
X77352Y487722D01*
X77436Y487773D01*
X77522Y487819D01*
X77539Y487837D01*
X77560Y487850D01*
X77622Y487926D01*
X77689Y487997D01*
X77699Y488020D01*
X77715Y488039D01*
X77749Y488130D01*
X77790Y488220D01*
X77792Y488244D01*
X77801Y488267D01*
X77815Y488414D01*
X77815Y488772D01*
X78708Y489665D01*
X85372Y489665D01*
X85830Y489206D01*
X85850Y489192D01*
X85866Y489173D01*
X85949Y489121D01*
X86029Y489064D01*
X86052Y489057D01*
X86073Y489044D01*
X86168Y489022D01*
X86262Y488993D01*
X86287Y488994D01*
X86310Y488988D01*
X86408Y488998D01*
X86506Y489001D01*
X86529Y489010D01*
X86553Y489012D01*
X86643Y489052D01*
X86734Y489087D01*
X86753Y489102D01*
X86776Y489112D01*
X86890Y489206D01*
X87348Y489665D01*
X94012Y489665D01*
X94905Y488772D01*
X94905Y481508D01*
X94012Y480615D01*
X93954Y480615D01*
X93930Y480611D01*
X93905Y480614D01*
X93810Y480592D01*
X93713Y480576D01*
X93692Y480564D01*
X93668Y480558D01*
X93584Y480507D01*
X93498Y480461D01*
X93481Y480443D01*
X93460Y480430D01*
X93398Y480354D01*
X93331Y480283D01*
X93321Y480260D01*
X93305Y480241D01*
X93271Y480150D01*
X93230Y480060D01*
X93228Y480036D01*
X93219Y480013D01*
X93205Y479866D01*
X93205Y478811D01*
X93221Y478715D01*
X93230Y478618D01*
X93240Y478595D01*
X93244Y478570D01*
X93291Y478484D01*
X93331Y478396D01*
X93352Y478370D01*
X93359Y478355D01*
X93378Y478338D01*
X93424Y478281D01*
X94002Y477704D01*
X94022Y477689D01*
X94037Y477670D01*
X94120Y477619D01*
X94200Y477562D01*
X94224Y477554D01*
X94244Y477541D01*
X94340Y477519D01*
X94434Y477491D01*
X94458Y477491D01*
X94482Y477486D01*
X94579Y477495D01*
X94677Y477499D01*
X94700Y477507D01*
X94725Y477510D01*
X94814Y477550D01*
X94906Y477584D01*
X94925Y477600D01*
X94947Y477610D01*
X95061Y477704D01*
X95831Y478473D01*
X96718Y478986D01*
X97708Y479251D01*
X98221Y479251D01*
X98221Y474310D01*
X98225Y474286D01*
X98222Y474262D01*
X98244Y474166D01*
X98260Y474069D01*
X98272Y474048D01*
X98278Y474024D01*
X98329Y473941D01*
X98375Y473854D01*
X98393Y473838D01*
X98406Y473817D01*
X98482Y473754D01*
X98528Y473712D01*
X98514Y473704D01*
X98497Y473686D01*
X98476Y473674D01*
X98414Y473598D01*
X98347Y473526D01*
X98337Y473504D01*
X98321Y473485D01*
X98287Y473393D01*
X98246Y473304D01*
X98244Y473280D01*
X98235Y473257D01*
X98221Y473110D01*
X98221Y468169D01*
X97708Y468169D01*
X96718Y468434D01*
X95831Y468947D01*
X95061Y469716D01*
X95041Y469731D01*
X95026Y469750D01*
X94943Y469801D01*
X94863Y469858D01*
X94840Y469866D01*
X94819Y469879D01*
X94723Y469901D01*
X94630Y469929D01*
X94605Y469929D01*
X94581Y469934D01*
X94484Y469925D01*
X94386Y469921D01*
X94363Y469913D01*
X94338Y469910D01*
X94249Y469870D01*
X94157Y469836D01*
X94138Y469820D01*
X94116Y469810D01*
X94002Y469716D01*
X93674Y469389D01*
X93625Y469320D01*
X93613Y469307D01*
X93610Y469300D01*
X93555Y469234D01*
X93547Y469211D01*
X93532Y469190D01*
X93504Y469097D01*
X93469Y469006D01*
X93466Y468973D01*
X93461Y468957D01*
X93462Y468932D01*
X93455Y468859D01*
X93455Y465062D01*
X93459Y465038D01*
X93456Y465013D01*
X93478Y464918D01*
X93494Y464821D01*
X93506Y464800D01*
X93512Y464776D01*
X93563Y464692D01*
X93609Y464606D01*
X93627Y464589D01*
X93640Y464568D01*
X93716Y464506D01*
X93787Y464439D01*
X93810Y464429D01*
X93829Y464413D01*
X93920Y464379D01*
X94010Y464338D01*
X94034Y464336D01*
X94057Y464327D01*
X94204Y464313D01*
X102740Y464313D01*
X103536Y463516D01*
X103615Y463459D01*
X103691Y463397D01*
X103714Y463389D01*
X103734Y463374D01*
X103828Y463346D01*
X103919Y463311D01*
X103952Y463308D01*
X103968Y463303D01*
X103993Y463304D01*
X104066Y463297D01*
X118884Y463297D01*
X118908Y463301D01*
X118933Y463298D01*
X119028Y463320D01*
X119125Y463336D01*
X119146Y463348D01*
X119170Y463354D01*
X119254Y463405D01*
X119340Y463451D01*
X119357Y463469D01*
X119378Y463482D01*
X119440Y463558D01*
X119507Y463629D01*
X119517Y463652D01*
X119533Y463671D01*
X119567Y463762D01*
X119608Y463852D01*
X119610Y463876D01*
X119619Y463899D01*
X119633Y464046D01*
X119633Y468833D01*
X128067Y477267D01*
X144740Y477267D01*
X144836Y477283D01*
X144933Y477292D01*
X144956Y477302D01*
X144981Y477306D01*
X145067Y477352D01*
X145156Y477393D01*
X145181Y477414D01*
X145196Y477421D01*
X145213Y477440D01*
X145270Y477486D01*
X146018Y478235D01*
X146076Y478235D01*
X146100Y478239D01*
X146125Y478236D01*
X146220Y478258D01*
X146317Y478274D01*
X146338Y478286D01*
X146362Y478292D01*
X146446Y478343D01*
X146532Y478389D01*
X146549Y478407D01*
X146570Y478420D01*
X146632Y478496D01*
X146699Y478567D01*
X146709Y478590D01*
X146725Y478609D01*
X146759Y478700D01*
X146800Y478790D01*
X146802Y478814D01*
X146811Y478837D01*
X146825Y478984D01*
X146825Y481136D01*
X146821Y481160D01*
X146824Y481185D01*
X146802Y481280D01*
X146786Y481377D01*
X146774Y481398D01*
X146768Y481422D01*
X146717Y481506D01*
X146671Y481592D01*
X146653Y481609D01*
X146640Y481630D01*
X146564Y481692D01*
X146493Y481759D01*
X146470Y481769D01*
X146451Y481785D01*
X146360Y481819D01*
X146270Y481860D01*
X146246Y481862D01*
X146223Y481871D01*
X146076Y481885D01*
X146018Y481885D01*
X145125Y482778D01*
X145125Y490042D01*
X146018Y490935D01*
X152682Y490935D01*
X153140Y490476D01*
X153160Y490462D01*
X153176Y490443D01*
X153259Y490391D01*
X153339Y490334D01*
X153362Y490327D01*
X153383Y490314D01*
X153478Y490292D01*
X153572Y490263D01*
X153597Y490264D01*
X153620Y490258D01*
X153718Y490268D01*
X153816Y490271D01*
X153839Y490280D01*
X153863Y490282D01*
X153953Y490322D01*
X154044Y490357D01*
X154063Y490372D01*
X154086Y490382D01*
X154200Y490476D01*
X154658Y490935D01*
X161322Y490935D01*
X162215Y490042D01*
X162215Y489684D01*
X162219Y489660D01*
X162216Y489635D01*
X162238Y489540D01*
X162254Y489443D01*
X162266Y489422D01*
X162272Y489398D01*
X162323Y489314D01*
X162369Y489228D01*
X162387Y489211D01*
X162400Y489190D01*
X162476Y489128D01*
X162547Y489061D01*
X162570Y489051D01*
X162589Y489035D01*
X162680Y489001D01*
X162770Y488960D01*
X162794Y488958D01*
X162817Y488949D01*
X162964Y488935D01*
X180116Y488935D01*
X187945Y481106D01*
X187945Y438374D01*
X181386Y431815D01*
X171946Y431815D01*
X171922Y431811D01*
X171897Y431814D01*
X171802Y431792D01*
X171705Y431776D01*
X171684Y431764D01*
X171660Y431758D01*
X171576Y431707D01*
X171490Y431661D01*
X171473Y431643D01*
X171452Y431630D01*
X171390Y431554D01*
X171323Y431483D01*
X171313Y431460D01*
X171297Y431441D01*
X171263Y431350D01*
X171222Y431260D01*
X171220Y431236D01*
X171211Y431213D01*
X171197Y431066D01*
X171197Y430660D01*
X170304Y429767D01*
X146180Y429767D01*
X145287Y430660D01*
X145287Y438020D01*
X146180Y438913D01*
X170304Y438913D01*
X171197Y438020D01*
X171197Y437614D01*
X171201Y437590D01*
X171198Y437565D01*
X171220Y437470D01*
X171236Y437373D01*
X171248Y437352D01*
X171254Y437328D01*
X171305Y437244D01*
X171351Y437158D01*
X171369Y437141D01*
X171382Y437120D01*
X171458Y437058D01*
X171529Y436991D01*
X171552Y436981D01*
X171571Y436965D01*
X171662Y436931D01*
X171752Y436890D01*
X171776Y436888D01*
X171799Y436879D01*
X171946Y436865D01*
X178984Y436865D01*
X179080Y436881D01*
X179177Y436890D01*
X179200Y436900D01*
X179225Y436904D01*
X179311Y436950D01*
X179399Y436991D01*
X179425Y437012D01*
X179440Y437019D01*
X179457Y437038D01*
X179514Y437084D01*
X182676Y440246D01*
X182733Y440326D01*
X182795Y440401D01*
X182803Y440424D01*
X182818Y440445D01*
X182846Y440538D01*
X182881Y440629D01*
X182884Y440662D01*
X182889Y440678D01*
X182888Y440703D01*
X182895Y440776D01*
X182895Y444445D01*
X182883Y444518D01*
X182881Y444591D01*
X182864Y444637D01*
X182856Y444686D01*
X182821Y444751D01*
X182795Y444819D01*
X182764Y444858D01*
X182741Y444901D01*
X182687Y444951D01*
X182640Y445008D01*
X182599Y445034D01*
X182563Y445068D01*
X182496Y445098D01*
X182433Y445137D01*
X182385Y445148D01*
X182340Y445169D01*
X182267Y445176D01*
X182196Y445193D01*
X182147Y445188D01*
X182097Y445193D01*
X182026Y445176D01*
X181953Y445169D01*
X181908Y445149D01*
X181860Y445138D01*
X181797Y445099D01*
X181730Y445069D01*
X181674Y445022D01*
X181652Y445009D01*
X181642Y444996D01*
X181616Y444975D01*
X178625Y441983D01*
X174435Y441983D01*
X172476Y443943D01*
X172416Y443986D01*
X172362Y444036D01*
X172318Y444056D01*
X172277Y444085D01*
X172207Y444106D01*
X172140Y444137D01*
X172091Y444142D01*
X172044Y444156D01*
X171971Y444154D01*
X171897Y444161D01*
X171849Y444150D01*
X171800Y444148D01*
X171731Y444122D01*
X171660Y444106D01*
X171618Y444080D01*
X171572Y444062D01*
X171515Y444016D01*
X171452Y443977D01*
X171421Y443939D01*
X171383Y443908D01*
X171344Y443845D01*
X171297Y443788D01*
X171280Y443742D01*
X171254Y443700D01*
X171237Y443629D01*
X171211Y443560D01*
X171204Y443487D01*
X171198Y443463D01*
X171200Y443446D01*
X171197Y443413D01*
X171197Y443360D01*
X170304Y442467D01*
X146180Y442467D01*
X145287Y443360D01*
X145287Y450720D01*
X146180Y451613D01*
X170304Y451613D01*
X171197Y450720D01*
X171197Y450667D01*
X171209Y450594D01*
X171211Y450521D01*
X171228Y450475D01*
X171236Y450426D01*
X171271Y450361D01*
X171297Y450293D01*
X171328Y450254D01*
X171351Y450211D01*
X171405Y450161D01*
X171452Y450104D01*
X171494Y450078D01*
X171529Y450044D01*
X171596Y450014D01*
X171659Y449975D01*
X171707Y449964D01*
X171752Y449943D01*
X171825Y449936D01*
X171896Y449919D01*
X171945Y449924D01*
X171995Y449919D01*
X172066Y449936D01*
X172139Y449943D01*
X172184Y449963D01*
X172232Y449974D01*
X172295Y450013D01*
X172362Y450043D01*
X172418Y450090D01*
X172440Y450103D01*
X172450Y450116D01*
X172476Y450137D01*
X174435Y452097D01*
X178625Y452097D01*
X181616Y449105D01*
X181676Y449062D01*
X181730Y449012D01*
X181774Y448992D01*
X181815Y448963D01*
X181885Y448942D01*
X181952Y448911D01*
X182001Y448906D01*
X182048Y448892D01*
X182121Y448894D01*
X182195Y448887D01*
X182243Y448898D01*
X182292Y448900D01*
X182361Y448926D01*
X182432Y448942D01*
X182474Y448968D01*
X182520Y448986D01*
X182577Y449032D01*
X182640Y449071D01*
X182671Y449109D01*
X182709Y449140D01*
X182748Y449203D01*
X182795Y449260D01*
X182812Y449306D01*
X182838Y449348D01*
X182855Y449419D01*
X182881Y449488D01*
X182888Y449561D01*
X182894Y449585D01*
X182892Y449602D01*
X182895Y449635D01*
X182895Y478704D01*
X182879Y478800D01*
X182870Y478897D01*
X182860Y478920D01*
X182856Y478945D01*
X182810Y479031D01*
X182769Y479119D01*
X182748Y479145D01*
X182741Y479160D01*
X182722Y479177D01*
X182676Y479234D01*
X178244Y483666D01*
X178164Y483723D01*
X178089Y483785D01*
X178066Y483793D01*
X178045Y483808D01*
X177952Y483836D01*
X177861Y483871D01*
X177828Y483874D01*
X177812Y483879D01*
X177787Y483878D01*
X177714Y483885D01*
X162964Y483885D01*
X162940Y483881D01*
X162915Y483884D01*
X162820Y483862D01*
X162723Y483846D01*
X162702Y483834D01*
X162678Y483828D01*
X162594Y483777D01*
X162508Y483731D01*
X162491Y483713D01*
X162470Y483700D01*
X162408Y483624D01*
X162341Y483553D01*
X162331Y483530D01*
X162315Y483511D01*
X162281Y483420D01*
X162240Y483330D01*
X162238Y483306D01*
X162229Y483283D01*
X162215Y483136D01*
X162215Y482778D01*
X161322Y481885D01*
X154658Y481885D01*
X154200Y482344D01*
X154180Y482358D01*
X154164Y482377D01*
X154081Y482429D01*
X154001Y482486D01*
X153978Y482493D01*
X153957Y482506D01*
X153862Y482528D01*
X153768Y482557D01*
X153744Y482556D01*
X153720Y482562D01*
X153622Y482552D01*
X153524Y482549D01*
X153501Y482540D01*
X153477Y482538D01*
X153387Y482498D01*
X153296Y482463D01*
X153277Y482448D01*
X153254Y482438D01*
X153140Y482344D01*
X152682Y481885D01*
X152624Y481885D01*
X152600Y481881D01*
X152575Y481884D01*
X152480Y481862D01*
X152383Y481846D01*
X152362Y481834D01*
X152338Y481828D01*
X152254Y481777D01*
X152168Y481731D01*
X152151Y481713D01*
X152130Y481700D01*
X152068Y481624D01*
X152001Y481553D01*
X151991Y481530D01*
X151975Y481511D01*
X151941Y481420D01*
X151900Y481330D01*
X151898Y481306D01*
X151889Y481283D01*
X151875Y481136D01*
X151875Y478984D01*
X151879Y478960D01*
X151876Y478935D01*
X151898Y478840D01*
X151914Y478743D01*
X151926Y478722D01*
X151932Y478698D01*
X151983Y478614D01*
X152029Y478528D01*
X152047Y478511D01*
X152060Y478490D01*
X152136Y478428D01*
X152207Y478361D01*
X152230Y478351D01*
X152249Y478335D01*
X152340Y478301D01*
X152430Y478260D01*
X152454Y478258D01*
X152477Y478249D01*
X152624Y478235D01*
X152682Y478235D01*
X153140Y477776D01*
X153160Y477762D01*
X153176Y477743D01*
X153259Y477691D01*
X153339Y477634D01*
X153362Y477627D01*
X153383Y477614D01*
X153478Y477592D01*
X153572Y477563D01*
X153596Y477564D01*
X153620Y477558D01*
X153718Y477568D01*
X153816Y477571D01*
X153839Y477580D01*
X153863Y477582D01*
X153953Y477622D01*
X154044Y477657D01*
X154063Y477672D01*
X154086Y477682D01*
X154200Y477776D01*
X154658Y478235D01*
X161322Y478235D01*
X162215Y477342D01*
X162215Y470078D01*
X161322Y469185D01*
X161264Y469185D01*
X161240Y469181D01*
X161215Y469184D01*
X161120Y469162D01*
X161023Y469146D01*
X161002Y469134D01*
X160978Y469128D01*
X160894Y469077D01*
X160808Y469031D01*
X160791Y469013D01*
X160770Y469000D01*
X160708Y468924D01*
X160641Y468853D01*
X160631Y468830D01*
X160615Y468811D01*
X160581Y468720D01*
X160540Y468630D01*
X160538Y468606D01*
X160529Y468583D01*
X160515Y468436D01*
X160515Y465062D01*
X160519Y465038D01*
X160516Y465013D01*
X160538Y464918D01*
X160554Y464821D01*
X160566Y464800D01*
X160572Y464776D01*
X160623Y464692D01*
X160669Y464606D01*
X160687Y464589D01*
X160700Y464568D01*
X160776Y464506D01*
X160847Y464439D01*
X160870Y464429D01*
X160889Y464413D01*
X160980Y464379D01*
X161070Y464338D01*
X161094Y464336D01*
X161117Y464327D01*
X161264Y464313D01*
X170304Y464313D01*
X171197Y463420D01*
X171197Y456060D01*
X170304Y455167D01*
X146180Y455167D01*
X145287Y456060D01*
X145287Y456466D01*
X145283Y456490D01*
X145286Y456515D01*
X145264Y456610D01*
X145248Y456707D01*
X145236Y456728D01*
X145230Y456752D01*
X145179Y456836D01*
X145133Y456922D01*
X145115Y456939D01*
X145102Y456960D01*
X145026Y457022D01*
X144955Y457089D01*
X144932Y457099D01*
X144913Y457115D01*
X144822Y457149D01*
X144732Y457190D01*
X144708Y457192D01*
X144685Y457201D01*
X144538Y457215D01*
X135976Y457215D01*
X135880Y457199D01*
X135783Y457190D01*
X135760Y457180D01*
X135735Y457176D01*
X135649Y457130D01*
X135561Y457089D01*
X135535Y457068D01*
X135520Y457061D01*
X135503Y457042D01*
X135446Y456996D01*
X133554Y455104D01*
X133497Y455024D01*
X133435Y454949D01*
X133427Y454926D01*
X133412Y454905D01*
X133384Y454812D01*
X133349Y454721D01*
X133346Y454688D01*
X133341Y454672D01*
X133342Y454647D01*
X133335Y454574D01*
X133335Y426806D01*
X133351Y426710D01*
X133360Y426613D01*
X133370Y426590D01*
X133374Y426565D01*
X133420Y426479D01*
X133461Y426391D01*
X133482Y426365D01*
X133489Y426350D01*
X133508Y426333D01*
X133554Y426276D01*
X143460Y416371D01*
X143480Y416356D01*
X143496Y416337D01*
X143579Y416285D01*
X143658Y416228D01*
X143682Y416221D01*
X143703Y416208D01*
X143798Y416186D01*
X143892Y416158D01*
X143916Y416158D01*
X143940Y416153D01*
X144038Y416162D01*
X144136Y416165D01*
X144159Y416174D01*
X144183Y416177D01*
X144272Y416217D01*
X144364Y416251D01*
X144383Y416267D01*
X144406Y416277D01*
X144477Y416344D01*
X144553Y416406D01*
X144566Y416427D01*
X144584Y416444D01*
X144630Y416530D01*
X144682Y416613D01*
X144687Y416637D01*
X144699Y416659D01*
X144715Y416755D01*
X144737Y416851D01*
X144735Y416875D01*
X144739Y416900D01*
X144723Y416996D01*
X144714Y417094D01*
X144703Y417116D01*
X144699Y417140D01*
X144639Y417275D01*
X144444Y417611D01*
X144271Y418258D01*
X144271Y420141D01*
X156743Y420141D01*
X156743Y416051D01*
X146478Y416051D01*
X145831Y416224D01*
X145495Y416419D01*
X145472Y416427D01*
X145452Y416442D01*
X145358Y416470D01*
X145267Y416505D01*
X145242Y416505D01*
X145218Y416513D01*
X145121Y416509D01*
X145023Y416513D01*
X144999Y416505D01*
X144974Y416505D01*
X144883Y416470D01*
X144789Y416442D01*
X144769Y416428D01*
X144746Y416419D01*
X144670Y416357D01*
X144591Y416300D01*
X144576Y416280D01*
X144557Y416264D01*
X144506Y416181D01*
X144449Y416102D01*
X144441Y416078D01*
X144428Y416057D01*
X144406Y415962D01*
X144378Y415868D01*
X144378Y415843D01*
X144373Y415819D01*
X144382Y415722D01*
X144385Y415624D01*
X144394Y415601D01*
X144396Y415577D01*
X144437Y415487D01*
X144471Y415396D01*
X144487Y415377D01*
X144497Y415354D01*
X144591Y415240D01*
X145606Y414224D01*
X145686Y414167D01*
X145761Y414105D01*
X145784Y414097D01*
X145805Y414082D01*
X145898Y414054D01*
X145989Y414019D01*
X146022Y414016D01*
X146038Y414011D01*
X146063Y414012D01*
X146136Y414005D01*
X169956Y414005D01*
X177785Y406176D01*
X177785Y373604D01*
X164744Y360564D01*
X164687Y360484D01*
X164625Y360409D01*
X164617Y360386D01*
X164602Y360365D01*
X164574Y360272D01*
X164539Y360181D01*
X164536Y360148D01*
X164531Y360132D01*
X164532Y360107D01*
X164525Y360034D01*
X164525Y342485D01*
X164537Y342412D01*
X164539Y342339D01*
X164556Y342293D01*
X164564Y342244D01*
X164599Y342179D01*
X164625Y342111D01*
X164656Y342072D01*
X164679Y342029D01*
X164733Y341979D01*
X164780Y341922D01*
X164821Y341896D01*
X164857Y341862D01*
X164924Y341832D01*
X164987Y341793D01*
X165035Y341782D01*
X165080Y341761D01*
X165153Y341754D01*
X165224Y341737D01*
X165273Y341742D01*
X165323Y341737D01*
X165394Y341754D01*
X165467Y341761D01*
X165512Y341781D01*
X165560Y341792D01*
X165623Y341831D01*
X165690Y341861D01*
X165746Y341908D01*
X165768Y341921D01*
X165778Y341934D01*
X165804Y341955D01*
X168905Y345057D01*
X173095Y345057D01*
X176057Y342095D01*
X176057Y337905D01*
X173095Y334943D01*
X169824Y334943D01*
X169728Y334927D01*
X169631Y334918D01*
X169608Y334908D01*
X169583Y334904D01*
X169497Y334858D01*
X169409Y334817D01*
X169383Y334796D01*
X169368Y334789D01*
X169351Y334770D01*
X169294Y334724D01*
X168268Y333698D01*
X168211Y333618D01*
X168149Y333543D01*
X168141Y333520D01*
X168126Y333499D01*
X168098Y333406D01*
X168063Y333315D01*
X168060Y333282D01*
X168055Y333266D01*
X168056Y333241D01*
X168049Y333168D01*
X168049Y313027D01*
X168051Y313010D01*
X168050Y312998D01*
X168061Y312952D01*
X168065Y312930D01*
X168074Y312833D01*
X168084Y312811D01*
X168088Y312786D01*
X168134Y312700D01*
X168175Y312611D01*
X168196Y312585D01*
X168203Y312571D01*
X168222Y312554D01*
X168268Y312497D01*
X178081Y302684D01*
X178081Y253800D01*
X178097Y253704D01*
X178106Y253607D01*
X178116Y253584D01*
X178120Y253559D01*
X178166Y253473D01*
X178207Y253385D01*
X178228Y253359D01*
X178235Y253344D01*
X178254Y253327D01*
X178300Y253270D01*
X190294Y241276D01*
X190374Y241219D01*
X190449Y241157D01*
X190472Y241149D01*
X190493Y241134D01*
X190586Y241106D01*
X190677Y241071D01*
X190710Y241068D01*
X190726Y241063D01*
X190751Y241064D01*
X190824Y241057D01*
X194095Y241057D01*
X197057Y238095D01*
X197057Y233905D01*
X194095Y230943D01*
X189905Y230943D01*
X186943Y233905D01*
X186943Y237176D01*
X186927Y237272D01*
X186918Y237369D01*
X186908Y237392D01*
X186904Y237417D01*
X186858Y237503D01*
X186817Y237591D01*
X186796Y237617D01*
X186789Y237632D01*
X186770Y237649D01*
X186724Y237706D01*
X175836Y248594D01*
X175776Y248637D01*
X175722Y248687D01*
X175678Y248707D01*
X175637Y248736D01*
X175567Y248757D01*
X175500Y248788D01*
X175451Y248792D01*
X175404Y248807D01*
X175331Y248804D01*
X175257Y248812D01*
X175209Y248800D01*
X175160Y248799D01*
X175091Y248773D01*
X175020Y248756D01*
X174978Y248730D01*
X174932Y248713D01*
X174875Y248666D01*
X174812Y248628D01*
X174781Y248590D01*
X174743Y248558D01*
X174704Y248496D01*
X174657Y248439D01*
X174640Y248393D01*
X174614Y248351D01*
X174597Y248280D01*
X174571Y248211D01*
X174564Y248138D01*
X174558Y248114D01*
X174560Y248097D01*
X174557Y248064D01*
X174557Y233634D01*
X174561Y233610D01*
X174558Y233585D01*
X174580Y233490D01*
X174596Y233393D01*
X174608Y233372D01*
X174614Y233348D01*
X174665Y233264D01*
X174711Y233178D01*
X174729Y233161D01*
X174742Y233140D01*
X174818Y233078D01*
X174889Y233011D01*
X174912Y233001D01*
X174931Y232985D01*
X175022Y232951D01*
X175112Y232910D01*
X175136Y232908D01*
X175159Y232899D01*
X175306Y232885D01*
X176422Y232885D01*
X177315Y231992D01*
X177315Y221066D01*
X177331Y220969D01*
X177340Y220872D01*
X177350Y220850D01*
X177354Y220825D01*
X177400Y220739D01*
X177441Y220650D01*
X177462Y220624D01*
X177469Y220610D01*
X177488Y220593D01*
X177534Y220536D01*
X181594Y216476D01*
X183897Y214173D01*
X183897Y189027D01*
X174193Y179323D01*
X171165Y179323D01*
X171069Y179307D01*
X170972Y179298D01*
X170949Y179288D01*
X170924Y179284D01*
X170838Y179238D01*
X170749Y179197D01*
X170724Y179176D01*
X170709Y179169D01*
X170692Y179150D01*
X170635Y179104D01*
X169712Y178180D01*
X163028Y178180D01*
X162350Y178859D01*
X162271Y178915D01*
X162196Y178977D01*
X162172Y178986D01*
X162152Y179001D01*
X162058Y179029D01*
X161967Y179063D01*
X161934Y179067D01*
X161918Y179072D01*
X161893Y179071D01*
X161820Y179078D01*
X158220Y179078D01*
X158124Y179062D01*
X158027Y179053D01*
X158004Y179042D01*
X157979Y179038D01*
X157893Y178992D01*
X157804Y178952D01*
X157778Y178931D01*
X157764Y178923D01*
X157747Y178905D01*
X157690Y178859D01*
X157446Y178615D01*
X157389Y178536D01*
X157328Y178460D01*
X157319Y178437D01*
X157304Y178417D01*
X157276Y178323D01*
X157241Y178232D01*
X157238Y178199D01*
X157233Y178183D01*
X157234Y178158D01*
X157227Y178085D01*
X157227Y177044D01*
X157227Y175322D01*
X157227Y173787D01*
X156167Y172727D01*
X154924Y171484D01*
X142206Y158766D01*
X142149Y158687D01*
X142087Y158612D01*
X142079Y158588D01*
X142064Y158568D01*
X142036Y158475D01*
X142001Y158383D01*
X141998Y158350D01*
X141993Y158334D01*
X141994Y158309D01*
X141987Y158236D01*
X141987Y119177D01*
X129736Y106926D01*
X129679Y106847D01*
X129617Y106772D01*
X129609Y106748D01*
X129594Y106728D01*
X129566Y106635D01*
X129531Y106543D01*
X129528Y106510D01*
X129523Y106494D01*
X129524Y106470D01*
X129517Y106396D01*
X129517Y105855D01*
X126555Y102893D01*
X122365Y102893D01*
X119403Y105855D01*
X119403Y110045D01*
X122494Y113135D01*
X122508Y113155D01*
X122527Y113171D01*
X122579Y113254D01*
X122636Y113334D01*
X122643Y113357D01*
X122656Y113378D01*
X122678Y113473D01*
X122707Y113567D01*
X122706Y113592D01*
X122712Y113615D01*
X122702Y113713D01*
X122699Y113811D01*
X122690Y113834D01*
X122688Y113858D01*
X122648Y113948D01*
X122613Y114039D01*
X122598Y114058D01*
X122588Y114081D01*
X122494Y114195D01*
X121085Y115604D01*
X121006Y115661D01*
X120930Y115723D01*
X120907Y115731D01*
X120887Y115746D01*
X120793Y115774D01*
X120702Y115809D01*
X120669Y115812D01*
X120653Y115817D01*
X120628Y115816D01*
X120555Y115823D01*
X107164Y115823D01*
X107067Y115807D01*
X106970Y115798D01*
X106948Y115788D01*
X106923Y115784D01*
X106837Y115738D01*
X106748Y115697D01*
X106722Y115676D01*
X106708Y115669D01*
X106691Y115650D01*
X106634Y115604D01*
X101776Y110746D01*
X101719Y110667D01*
X101657Y110592D01*
X101649Y110568D01*
X101634Y110548D01*
X101606Y110455D01*
X101571Y110363D01*
X101568Y110330D01*
X101563Y110314D01*
X101564Y110290D01*
X101557Y110216D01*
X101557Y99905D01*
X101573Y99809D01*
X101582Y99712D01*
X101592Y99689D01*
X101596Y99664D01*
X101642Y99578D01*
X101683Y99489D01*
X101704Y99464D01*
X101711Y99449D01*
X101730Y99432D01*
X101776Y99375D01*
X103057Y98095D01*
X103057Y93905D01*
X99955Y90804D01*
X99912Y90744D01*
X99862Y90690D01*
X99842Y90646D01*
X99813Y90605D01*
X99792Y90535D01*
X99761Y90468D01*
X99756Y90419D01*
X99742Y90372D01*
X99744Y90299D01*
X99737Y90225D01*
X99748Y90177D01*
X99750Y90128D01*
X99776Y90059D01*
X99792Y89988D01*
X99818Y89946D01*
X99836Y89900D01*
X99882Y89843D01*
X99921Y89780D01*
X99959Y89749D01*
X99990Y89711D01*
X100053Y89672D01*
X100110Y89625D01*
X100156Y89608D01*
X100198Y89582D01*
X100269Y89565D01*
X100338Y89539D01*
X100411Y89532D01*
X100435Y89526D01*
X100452Y89528D01*
X100485Y89525D01*
X103063Y89525D01*
X103159Y89541D01*
X103256Y89550D01*
X103279Y89560D01*
X103304Y89564D01*
X103390Y89610D01*
X103479Y89651D01*
X103504Y89672D01*
X103519Y89679D01*
X103536Y89698D01*
X103593Y89744D01*
X105905Y92057D01*
X110095Y92057D01*
X113057Y89095D01*
X113057Y84905D01*
X111179Y83028D01*
X111122Y82948D01*
X111060Y82873D01*
X111051Y82849D01*
X111037Y82829D01*
X111008Y82736D01*
X110974Y82644D01*
X110973Y82620D01*
X110966Y82596D01*
X110969Y82498D01*
X110966Y82401D01*
X110973Y82377D01*
X110974Y82352D01*
X111008Y82261D01*
X111036Y82167D01*
X111051Y82147D01*
X111060Y82123D01*
X111122Y82048D01*
X111178Y81969D01*
X111204Y81948D01*
X111214Y81935D01*
X111235Y81922D01*
X111292Y81875D01*
X112511Y81061D01*
X113671Y79900D01*
X114583Y78536D01*
X115211Y77020D01*
X115531Y75411D01*
X115531Y70299D01*
X107950Y70299D01*
X107926Y70295D01*
X107902Y70298D01*
X107806Y70275D01*
X107709Y70259D01*
X107688Y70248D01*
X107664Y70242D01*
X107581Y70191D01*
X107494Y70144D01*
X107477Y70127D01*
X107457Y70114D01*
X107394Y70038D01*
X107327Y69966D01*
X107317Y69944D01*
X107302Y69925D01*
X107267Y69834D01*
X107227Y69744D01*
X107224Y69720D01*
X107215Y69697D01*
X107201Y69550D01*
X107201Y68799D01*
X107199Y68799D01*
X107199Y69550D01*
X107196Y69571D01*
X107198Y69589D01*
X107197Y69592D01*
X107198Y69598D01*
X107175Y69694D01*
X107159Y69791D01*
X107148Y69812D01*
X107142Y69836D01*
X107091Y69920D01*
X107044Y70006D01*
X107027Y70023D01*
X107014Y70043D01*
X106938Y70106D01*
X106866Y70173D01*
X106844Y70183D01*
X106825Y70198D01*
X106733Y70233D01*
X106644Y70274D01*
X106620Y70276D01*
X106597Y70285D01*
X106450Y70299D01*
X98869Y70299D01*
X98869Y75411D01*
X99189Y77020D01*
X99817Y78536D01*
X100037Y78864D01*
X100537Y79613D01*
X100537Y79614D01*
X100729Y79900D01*
X101890Y81061D01*
X103254Y81973D01*
X104072Y82312D01*
X104114Y82337D01*
X104160Y82355D01*
X104217Y82401D01*
X104279Y82440D01*
X104310Y82478D01*
X104348Y82509D01*
X104387Y82572D01*
X104434Y82629D01*
X104451Y82675D01*
X104477Y82717D01*
X104494Y82788D01*
X104520Y82857D01*
X104522Y82906D01*
X104533Y82954D01*
X104526Y83027D01*
X104528Y83101D01*
X104514Y83148D01*
X104509Y83197D01*
X104479Y83264D01*
X104458Y83335D01*
X104429Y83375D01*
X104409Y83419D01*
X104316Y83532D01*
X104316Y83533D01*
X104315Y83533D01*
X104315Y83534D01*
X103593Y84256D01*
X103514Y84313D01*
X103438Y84375D01*
X103415Y84383D01*
X103395Y84398D01*
X103301Y84426D01*
X103210Y84461D01*
X103177Y84464D01*
X103161Y84469D01*
X103136Y84468D01*
X103063Y84475D01*
X90356Y84475D01*
X90260Y84459D01*
X90163Y84450D01*
X90140Y84440D01*
X90115Y84436D01*
X90029Y84390D01*
X89941Y84349D01*
X89915Y84328D01*
X89900Y84321D01*
X89883Y84302D01*
X89826Y84256D01*
X84744Y79174D01*
X84687Y79094D01*
X84625Y79019D01*
X84617Y78996D01*
X84602Y78975D01*
X84574Y78882D01*
X84539Y78791D01*
X84536Y78758D01*
X84531Y78742D01*
X84532Y78717D01*
X84525Y78644D01*
X84525Y57954D01*
X83276Y56706D01*
X83219Y56626D01*
X83157Y56551D01*
X83149Y56528D01*
X83134Y56507D01*
X83106Y56414D01*
X83071Y56323D01*
X83068Y56290D01*
X83063Y56274D01*
X83064Y56249D01*
X83057Y56176D01*
X83057Y52905D01*
X80095Y49943D01*
X75905Y49943D01*
X72943Y52905D01*
X72943Y57095D01*
X73513Y57664D01*
X73556Y57724D01*
X73606Y57778D01*
X73626Y57822D01*
X73655Y57863D01*
X73676Y57933D01*
X73707Y58000D01*
X73712Y58049D01*
X73726Y58096D01*
X73724Y58169D01*
X73731Y58243D01*
X73720Y58291D01*
X73718Y58340D01*
X73692Y58409D01*
X73676Y58480D01*
X73650Y58522D01*
X73632Y58568D01*
X73586Y58625D01*
X73547Y58688D01*
X73509Y58719D01*
X73478Y58757D01*
X73415Y58796D01*
X73358Y58843D01*
X73312Y58860D01*
X73270Y58886D01*
X73199Y58903D01*
X73130Y58929D01*
X73057Y58936D01*
X73033Y58942D01*
X73016Y58940D01*
X72983Y58943D01*
X72905Y58943D01*
X70593Y61256D01*
X70513Y61313D01*
X70438Y61375D01*
X70415Y61383D01*
X70395Y61398D01*
X70301Y61426D01*
X70210Y61461D01*
X70177Y61464D01*
X70161Y61469D01*
X70136Y61468D01*
X70063Y61475D01*
X65937Y61475D01*
X65841Y61459D01*
X65744Y61450D01*
X65721Y61440D01*
X65696Y61436D01*
X65610Y61390D01*
X65521Y61349D01*
X65496Y61328D01*
X65481Y61321D01*
X65464Y61302D01*
X65407Y61256D01*
X64095Y59943D01*
X59905Y59943D01*
X56943Y62905D01*
X56943Y67095D01*
X59905Y70057D01*
X64095Y70057D01*
X67092Y67059D01*
X67096Y67033D01*
X67108Y67012D01*
X67114Y66988D01*
X67165Y66904D01*
X67211Y66818D01*
X67229Y66801D01*
X67242Y66780D01*
X67318Y66718D01*
X67389Y66651D01*
X67412Y66641D01*
X67431Y66625D01*
X67522Y66591D01*
X67612Y66550D01*
X67636Y66548D01*
X67659Y66539D01*
X67806Y66525D01*
X70063Y66525D01*
X70159Y66541D01*
X70256Y66550D01*
X70279Y66560D01*
X70304Y66564D01*
X70390Y66610D01*
X70479Y66651D01*
X70504Y66672D01*
X70519Y66679D01*
X70535Y66697D01*
X70538Y66698D01*
X70541Y66702D01*
X70593Y66744D01*
X72905Y69057D01*
X77095Y69057D01*
X78196Y67955D01*
X78256Y67912D01*
X78310Y67862D01*
X78354Y67842D01*
X78395Y67813D01*
X78465Y67792D01*
X78532Y67761D01*
X78581Y67756D01*
X78628Y67742D01*
X78701Y67744D01*
X78775Y67737D01*
X78823Y67748D01*
X78872Y67750D01*
X78941Y67776D01*
X79012Y67792D01*
X79054Y67818D01*
X79100Y67836D01*
X79157Y67882D01*
X79220Y67921D01*
X79251Y67959D01*
X79289Y67990D01*
X79328Y68053D01*
X79375Y68110D01*
X79392Y68156D01*
X79418Y68198D01*
X79435Y68269D01*
X79461Y68338D01*
X79468Y68411D01*
X79474Y68435D01*
X79472Y68452D01*
X79475Y68485D01*
X79475Y81046D01*
X87954Y89525D01*
X95515Y89525D01*
X95588Y89537D01*
X95661Y89539D01*
X95707Y89556D01*
X95756Y89564D01*
X95821Y89599D01*
X95889Y89625D01*
X95928Y89656D01*
X95971Y89679D01*
X96021Y89733D01*
X96078Y89780D01*
X96104Y89822D01*
X96138Y89857D01*
X96168Y89924D01*
X96207Y89987D01*
X96218Y90035D01*
X96239Y90080D01*
X96246Y90153D01*
X96263Y90224D01*
X96258Y90273D01*
X96263Y90323D01*
X96246Y90394D01*
X96239Y90467D01*
X96219Y90512D01*
X96208Y90560D01*
X96169Y90623D01*
X96139Y90690D01*
X96092Y90746D01*
X96079Y90768D01*
X96066Y90778D01*
X96045Y90804D01*
X93593Y93256D01*
X93514Y93313D01*
X93438Y93375D01*
X93415Y93383D01*
X93395Y93398D01*
X93301Y93426D01*
X93210Y93461D01*
X93177Y93464D01*
X93161Y93469D01*
X93136Y93468D01*
X93063Y93475D01*
X78954Y93475D01*
X73475Y98954D01*
X73475Y110079D01*
X73459Y110176D01*
X73450Y110273D01*
X73440Y110295D01*
X73436Y110320D01*
X73390Y110406D01*
X73349Y110495D01*
X73328Y110521D01*
X73321Y110535D01*
X73302Y110552D01*
X73256Y110609D01*
X55895Y127970D01*
X55895Y146676D01*
X55879Y146772D01*
X55870Y146869D01*
X55860Y146892D01*
X55856Y146916D01*
X55810Y147002D01*
X55769Y147091D01*
X55748Y147117D01*
X55741Y147132D01*
X55722Y147149D01*
X55676Y147205D01*
X53046Y149835D01*
X53026Y149850D01*
X53011Y149868D01*
X52928Y149920D01*
X52848Y149977D01*
X52824Y149984D01*
X52803Y149997D01*
X52708Y150020D01*
X52614Y150048D01*
X52590Y150047D01*
X52566Y150053D01*
X52468Y150043D01*
X52370Y150040D01*
X52347Y150032D01*
X52323Y150029D01*
X52234Y149989D01*
X52142Y149954D01*
X52123Y149939D01*
X52101Y149929D01*
X51986Y149835D01*
X50095Y147943D01*
X45905Y147943D01*
X42943Y150905D01*
X42943Y155095D01*
X45905Y158057D01*
X50095Y158057D01*
X52407Y155744D01*
X52487Y155687D01*
X52562Y155625D01*
X52585Y155617D01*
X52605Y155602D01*
X52699Y155574D01*
X52790Y155539D01*
X52823Y155536D01*
X52839Y155531D01*
X52864Y155532D01*
X52937Y155525D01*
X54498Y155525D01*
X55140Y154882D01*
X55200Y154839D01*
X55254Y154789D01*
X55298Y154769D01*
X55339Y154740D01*
X55409Y154719D01*
X55476Y154688D01*
X55525Y154683D01*
X55572Y154669D01*
X55645Y154671D01*
X55719Y154664D01*
X55767Y154675D01*
X55816Y154677D01*
X55885Y154703D01*
X55956Y154719D01*
X55998Y154745D01*
X56044Y154763D01*
X56101Y154809D01*
X56164Y154848D01*
X56195Y154886D01*
X56233Y154917D01*
X56272Y154980D01*
X56319Y155037D01*
X56336Y155083D01*
X56362Y155125D01*
X56379Y155196D01*
X56405Y155265D01*
X56412Y155338D01*
X56418Y155362D01*
X56416Y155379D01*
X56419Y155412D01*
X56419Y162700D01*
X56403Y162796D01*
X56394Y162893D01*
X56384Y162916D01*
X56380Y162941D01*
X56334Y163027D01*
X56293Y163115D01*
X56272Y163141D01*
X56265Y163156D01*
X56246Y163173D01*
X56200Y163230D01*
X54174Y165256D01*
X54094Y165313D01*
X54019Y165375D01*
X53996Y165383D01*
X53975Y165398D01*
X53882Y165426D01*
X53791Y165461D01*
X53758Y165464D01*
X53742Y165469D01*
X53717Y165468D01*
X53644Y165475D01*
X33537Y165475D01*
X33441Y165459D01*
X33344Y165450D01*
X33321Y165440D01*
X33296Y165436D01*
X33210Y165390D01*
X33121Y165349D01*
X33096Y165328D01*
X33081Y165321D01*
X33064Y165302D01*
X33007Y165256D01*
X30695Y162943D01*
X26505Y162943D01*
X23543Y165905D01*
X23543Y170095D01*
X26505Y173057D01*
X30695Y173057D01*
X33007Y170744D01*
X33086Y170687D01*
X33162Y170625D01*
X33185Y170617D01*
X33205Y170602D01*
X33299Y170574D01*
X33390Y170539D01*
X33423Y170536D01*
X33439Y170531D01*
X33464Y170532D01*
X33537Y170525D01*
X56046Y170525D01*
X61196Y165374D01*
X61256Y165331D01*
X61310Y165281D01*
X61354Y165261D01*
X61395Y165232D01*
X61465Y165211D01*
X61532Y165180D01*
X61581Y165176D01*
X61628Y165161D01*
X61701Y165164D01*
X61775Y165156D01*
X61823Y165168D01*
X61872Y165169D01*
X61941Y165195D01*
X62012Y165212D01*
X62054Y165238D01*
X62100Y165255D01*
X62157Y165302D01*
X62220Y165340D01*
X62251Y165378D01*
X62289Y165410D01*
X62328Y165472D01*
X62375Y165529D01*
X62392Y165575D01*
X62418Y165617D01*
X62435Y165688D01*
X62461Y165757D01*
X62468Y165830D01*
X62474Y165854D01*
X62472Y165871D01*
X62475Y165904D01*
X62475Y190046D01*
X74954Y202525D01*
X97564Y202525D01*
X97660Y202541D01*
X97757Y202550D01*
X97780Y202560D01*
X97805Y202564D01*
X97891Y202610D01*
X97979Y202651D01*
X98005Y202672D01*
X98020Y202679D01*
X98037Y202698D01*
X98094Y202744D01*
X105094Y209744D01*
X105137Y209804D01*
X105187Y209858D01*
X105207Y209902D01*
X105236Y209943D01*
X105257Y210013D01*
X105288Y210080D01*
X105292Y210129D01*
X105307Y210176D01*
X105304Y210249D01*
X105312Y210323D01*
X105300Y210371D01*
X105299Y210420D01*
X105273Y210489D01*
X105256Y210560D01*
X105230Y210602D01*
X105213Y210648D01*
X105166Y210705D01*
X105128Y210768D01*
X105090Y210799D01*
X105058Y210837D01*
X104996Y210876D01*
X104939Y210923D01*
X104893Y210940D01*
X104851Y210966D01*
X104780Y210983D01*
X104711Y211009D01*
X104638Y211016D01*
X104614Y211022D01*
X104597Y211020D01*
X104564Y211023D01*
X100905Y211023D01*
X97943Y213985D01*
X97943Y215526D01*
X97927Y215622D01*
X97918Y215719D01*
X97908Y215742D01*
X97904Y215767D01*
X97858Y215853D01*
X97817Y215941D01*
X97796Y215967D01*
X97789Y215982D01*
X97770Y215999D01*
X97724Y216056D01*
X92475Y221304D01*
X92475Y225644D01*
X92459Y225740D01*
X92450Y225837D01*
X92440Y225860D01*
X92436Y225885D01*
X92389Y225971D01*
X92349Y226059D01*
X92328Y226085D01*
X92321Y226100D01*
X92302Y226117D01*
X92256Y226174D01*
X91222Y227208D01*
X91142Y227265D01*
X91067Y227327D01*
X91044Y227335D01*
X91023Y227350D01*
X90930Y227378D01*
X90839Y227413D01*
X90806Y227416D01*
X90790Y227421D01*
X90765Y227420D01*
X90692Y227427D01*
X33278Y227427D01*
X33182Y227411D01*
X33085Y227402D01*
X33062Y227392D01*
X33037Y227388D01*
X32951Y227342D01*
X32863Y227301D01*
X32837Y227280D01*
X32822Y227273D01*
X32805Y227254D01*
X32748Y227208D01*
X31714Y226174D01*
X31657Y226094D01*
X31595Y226019D01*
X31587Y225996D01*
X31572Y225975D01*
X31544Y225882D01*
X31509Y225791D01*
X31506Y225758D01*
X31501Y225742D01*
X31502Y225717D01*
X31495Y225644D01*
X31495Y215557D01*
X28190Y212252D01*
X28133Y212173D01*
X28071Y212098D01*
X28063Y212074D01*
X28048Y212054D01*
X28020Y211960D01*
X27985Y211869D01*
X27982Y211836D01*
X27977Y211820D01*
X27978Y211795D01*
X27971Y211722D01*
X27971Y179740D01*
X15639Y167408D01*
X15610Y167368D01*
X15575Y167335D01*
X15540Y167270D01*
X15497Y167210D01*
X15483Y167163D01*
X15460Y167120D01*
X15447Y167047D01*
X15426Y166976D01*
X15428Y166927D01*
X15420Y166879D01*
X15432Y166806D01*
X15434Y166733D01*
X15451Y166687D01*
X15459Y166638D01*
X15494Y166573D01*
X15520Y166504D01*
X15551Y166466D01*
X15574Y166423D01*
X15628Y166372D01*
X15674Y166315D01*
X15716Y166289D01*
X15752Y166256D01*
X15881Y166187D01*
X15882Y166186D01*
X16187Y166060D01*
X19260Y162987D01*
X20923Y158973D01*
X20923Y154627D01*
X19260Y150613D01*
X16187Y147540D01*
X12173Y145877D01*
X7827Y145877D01*
X3813Y147540D01*
X1661Y149692D01*
X1601Y149735D01*
X1547Y149785D01*
X1503Y149806D01*
X1462Y149834D01*
X1392Y149856D01*
X1325Y149886D01*
X1276Y149891D01*
X1229Y149905D01*
X1156Y149903D01*
X1082Y149910D01*
X1034Y149899D01*
X985Y149897D01*
X916Y149871D01*
X845Y149855D01*
X803Y149829D01*
X757Y149811D01*
X700Y149765D01*
X637Y149726D01*
X606Y149688D01*
X568Y149657D01*
X529Y149594D01*
X482Y149538D01*
X465Y149492D01*
X439Y149450D01*
X422Y149378D01*
X396Y149309D01*
X389Y149236D01*
X383Y149212D01*
X385Y149195D01*
X382Y149162D01*
X382Y140474D01*
X394Y140402D01*
X396Y140329D01*
X413Y140282D01*
X421Y140234D01*
X456Y140169D01*
X482Y140100D01*
X513Y140062D01*
X536Y140019D01*
X590Y139968D01*
X637Y139911D01*
X679Y139885D01*
X714Y139852D01*
X781Y139821D01*
X844Y139782D01*
X892Y139771D01*
X937Y139751D01*
X1010Y139744D01*
X1081Y139727D01*
X1130Y139732D01*
X1180Y139727D01*
X1251Y139743D01*
X1324Y139751D01*
X1369Y139771D01*
X1417Y139782D01*
X1480Y139821D01*
X1547Y139851D01*
X1603Y139898D01*
X1625Y139911D01*
X1635Y139924D01*
X1661Y139945D01*
X2222Y140506D01*
X3743Y141611D01*
X5417Y142464D01*
X7204Y143045D01*
X8501Y143250D01*
X8501Y132150D01*
X8505Y132126D01*
X8502Y132102D01*
X8525Y132006D01*
X8540Y131909D01*
X8552Y131888D01*
X8558Y131864D01*
X8609Y131781D01*
X8655Y131694D01*
X8673Y131677D01*
X8686Y131657D01*
X8762Y131594D01*
X8834Y131527D01*
X8856Y131517D01*
X8875Y131502D01*
X8966Y131467D01*
X9056Y131427D01*
X9080Y131424D01*
X9103Y131415D01*
X9250Y131401D01*
X10001Y131401D01*
X10001Y131399D01*
X9250Y131399D01*
X9226Y131395D01*
X9201Y131398D01*
X9106Y131375D01*
X9009Y131359D01*
X8988Y131348D01*
X8964Y131342D01*
X8880Y131291D01*
X8794Y131244D01*
X8777Y131227D01*
X8756Y131214D01*
X8694Y131138D01*
X8627Y131066D01*
X8617Y131044D01*
X8602Y131025D01*
X8567Y130933D01*
X8526Y130844D01*
X8524Y130820D01*
X8515Y130797D01*
X8501Y130650D01*
X8501Y119550D01*
X7204Y119755D01*
X5417Y120336D01*
X3743Y121189D01*
X2222Y122294D01*
X1661Y122855D01*
X1601Y122898D01*
X1547Y122948D01*
X1503Y122969D01*
X1462Y122997D01*
X1392Y123019D01*
X1325Y123049D01*
X1276Y123054D01*
X1229Y123068D01*
X1156Y123066D01*
X1082Y123073D01*
X1034Y123062D01*
X985Y123060D01*
X916Y123035D01*
X845Y123018D01*
X803Y122992D01*
X757Y122975D01*
X700Y122928D01*
X637Y122889D01*
X606Y122851D01*
X568Y122820D01*
X529Y122758D01*
X482Y122701D01*
X465Y122655D01*
X439Y122613D01*
X422Y122541D01*
X396Y122472D01*
X389Y122399D01*
X383Y122375D01*
X385Y122359D01*
X382Y122326D01*
X382Y113638D01*
X394Y113565D01*
X396Y113492D01*
X413Y113446D01*
X421Y113397D01*
X456Y113332D01*
X482Y113263D01*
X513Y113225D01*
X536Y113182D01*
X590Y113131D01*
X637Y113075D01*
X679Y113049D01*
X714Y113015D01*
X781Y112984D01*
X844Y112946D01*
X892Y112934D01*
X937Y112914D01*
X1010Y112907D01*
X1081Y112890D01*
X1130Y112895D01*
X1180Y112890D01*
X1251Y112907D01*
X1324Y112914D01*
X1369Y112934D01*
X1417Y112945D01*
X1480Y112984D01*
X1547Y113014D01*
X1603Y113061D01*
X1625Y113074D01*
X1635Y113087D01*
X1661Y113108D01*
X3813Y115260D01*
X7827Y116923D01*
X12173Y116923D01*
X16187Y115260D01*
X19260Y112187D01*
X20923Y108173D01*
X20923Y103827D01*
X19260Y99813D01*
X16187Y96740D01*
X12173Y95077D01*
X7827Y95077D01*
X3813Y96740D01*
X1661Y98892D01*
X1601Y98935D01*
X1547Y98985D01*
X1503Y99006D01*
X1462Y99034D01*
X1392Y99056D01*
X1325Y99086D01*
X1276Y99091D01*
X1229Y99105D01*
X1156Y99103D01*
X1082Y99110D01*
X1034Y99099D01*
X985Y99097D01*
X916Y99071D01*
X845Y99055D01*
X803Y99029D01*
X757Y99011D01*
X700Y98965D01*
X637Y98926D01*
X606Y98888D01*
X568Y98857D01*
X529Y98794D01*
X482Y98738D01*
X465Y98692D01*
X439Y98650D01*
X422Y98578D01*
X396Y98509D01*
X389Y98436D01*
X383Y98412D01*
X385Y98395D01*
X382Y98362D01*
X382Y24134D01*
X392Y24071D01*
X393Y24007D01*
X412Y23951D01*
X421Y23893D01*
X452Y23836D01*
X464Y23800D01*
X385Y22926D01*
X386Y22904D01*
X382Y22858D01*
X382Y21839D01*
X381Y21836D01*
X377Y21802D01*
X372Y21786D01*
X373Y21761D01*
X366Y21689D01*
X359Y19401D01*
X363Y19377D01*
X360Y19352D01*
X384Y19206D01*
X2082Y12818D01*
X2105Y12766D01*
X2119Y12710D01*
X2175Y12611D01*
X2182Y12596D01*
X2186Y12591D01*
X2192Y12581D01*
X5979Y7164D01*
X6020Y7123D01*
X6052Y7076D01*
X6138Y7002D01*
X6150Y6990D01*
X6156Y6987D01*
X6164Y6979D01*
X11581Y3192D01*
X11633Y3167D01*
X11680Y3134D01*
X11786Y3094D01*
X11801Y3086D01*
X11808Y3086D01*
X11818Y3082D01*
X18206Y1384D01*
X18231Y1381D01*
X18254Y1373D01*
X18401Y1359D01*
X19686Y1363D01*
G37*
G36*
X93159Y98541D02*
X93159Y98541D01*
X93256Y98550D01*
X93279Y98560D01*
X93304Y98564D01*
X93390Y98610D01*
X93479Y98651D01*
X93504Y98672D01*
X93519Y98679D01*
X93536Y98698D01*
X93593Y98744D01*
X94224Y99375D01*
X94281Y99455D01*
X94343Y99530D01*
X94351Y99553D01*
X94366Y99573D01*
X94394Y99667D01*
X94429Y99758D01*
X94432Y99791D01*
X94437Y99807D01*
X94436Y99832D01*
X94443Y99905D01*
X94443Y113473D01*
X96746Y115776D01*
X103907Y122937D01*
X120555Y122937D01*
X120651Y122953D01*
X120748Y122962D01*
X120771Y122972D01*
X120796Y122976D01*
X120882Y123022D01*
X120971Y123063D01*
X120996Y123084D01*
X121011Y123091D01*
X121028Y123110D01*
X121085Y123156D01*
X122365Y124437D01*
X126555Y124437D01*
X129517Y121475D01*
X129517Y118576D01*
X129529Y118503D01*
X129531Y118430D01*
X129548Y118384D01*
X129556Y118335D01*
X129591Y118270D01*
X129617Y118201D01*
X129648Y118163D01*
X129671Y118120D01*
X129725Y118069D01*
X129772Y118013D01*
X129813Y117987D01*
X129849Y117953D01*
X129916Y117922D01*
X129979Y117884D01*
X130027Y117872D01*
X130072Y117852D01*
X130145Y117845D01*
X130216Y117828D01*
X130265Y117833D01*
X130315Y117828D01*
X130386Y117845D01*
X130459Y117852D01*
X130504Y117872D01*
X130552Y117883D01*
X130615Y117922D01*
X130682Y117952D01*
X130738Y117999D01*
X130760Y118012D01*
X130770Y118025D01*
X130796Y118046D01*
X134654Y121904D01*
X134711Y121983D01*
X134773Y122058D01*
X134781Y122082D01*
X134796Y122102D01*
X134824Y122195D01*
X134859Y122287D01*
X134862Y122320D01*
X134867Y122336D01*
X134866Y122361D01*
X134873Y122434D01*
X134873Y161493D01*
X149894Y176514D01*
X149951Y176593D01*
X150013Y176668D01*
X150021Y176692D01*
X150036Y176712D01*
X150064Y176806D01*
X150099Y176897D01*
X150102Y176930D01*
X150107Y176946D01*
X150106Y176971D01*
X150113Y177044D01*
X150113Y178085D01*
X150097Y178181D01*
X150088Y178278D01*
X150078Y178301D01*
X150074Y178326D01*
X150028Y178412D01*
X149988Y178501D01*
X149967Y178526D01*
X149959Y178541D01*
X149940Y178558D01*
X149894Y178615D01*
X148970Y179538D01*
X148970Y186222D01*
X149894Y187145D01*
X149951Y187224D01*
X150013Y187300D01*
X150021Y187323D01*
X150036Y187343D01*
X150064Y187437D01*
X150099Y187528D01*
X150102Y187561D01*
X150107Y187577D01*
X150106Y187602D01*
X150113Y187675D01*
X150113Y193673D01*
X154546Y198106D01*
X154603Y198185D01*
X154665Y198260D01*
X154673Y198284D01*
X154688Y198304D01*
X154716Y198397D01*
X154751Y198489D01*
X154754Y198522D01*
X154759Y198538D01*
X154758Y198562D01*
X154765Y198636D01*
X154765Y208816D01*
X154761Y208840D01*
X154764Y208865D01*
X154742Y208960D01*
X154726Y209057D01*
X154714Y209078D01*
X154708Y209102D01*
X154657Y209186D01*
X154611Y209272D01*
X154593Y209289D01*
X154580Y209310D01*
X154504Y209372D01*
X154433Y209439D01*
X154410Y209449D01*
X154391Y209465D01*
X154300Y209499D01*
X154210Y209540D01*
X154186Y209542D01*
X154163Y209551D01*
X154016Y209565D01*
X148676Y209565D01*
X148580Y209549D01*
X148483Y209540D01*
X148460Y209530D01*
X148435Y209526D01*
X148349Y209480D01*
X148261Y209439D01*
X148235Y209418D01*
X148220Y209411D01*
X148203Y209392D01*
X148146Y209346D01*
X141936Y203136D01*
X141879Y203056D01*
X141817Y202981D01*
X141809Y202958D01*
X141794Y202937D01*
X141766Y202844D01*
X141731Y202753D01*
X141728Y202720D01*
X141723Y202704D01*
X141724Y202679D01*
X141717Y202606D01*
X141717Y199886D01*
X141719Y199871D01*
X141718Y199861D01*
X141720Y199854D01*
X141718Y199837D01*
X141740Y199742D01*
X141756Y199645D01*
X141768Y199624D01*
X141774Y199600D01*
X141825Y199516D01*
X141871Y199430D01*
X141889Y199413D01*
X141902Y199392D01*
X141978Y199330D01*
X142049Y199263D01*
X142072Y199253D01*
X142091Y199237D01*
X142182Y199203D01*
X142272Y199162D01*
X142296Y199160D01*
X142319Y199151D01*
X142466Y199137D01*
X145412Y199137D01*
X146305Y198244D01*
X146305Y193424D01*
X145942Y193062D01*
X145928Y193042D01*
X145909Y193026D01*
X145857Y192943D01*
X145800Y192864D01*
X145793Y192840D01*
X145780Y192819D01*
X145758Y192724D01*
X145729Y192630D01*
X145730Y192606D01*
X145724Y192582D01*
X145734Y192484D01*
X145737Y192386D01*
X145746Y192363D01*
X145748Y192339D01*
X145788Y192249D01*
X145823Y192158D01*
X145838Y192139D01*
X145848Y192116D01*
X145942Y192002D01*
X146305Y191640D01*
X146305Y186820D01*
X145942Y186458D01*
X145928Y186438D01*
X145909Y186422D01*
X145857Y186339D01*
X145800Y186260D01*
X145793Y186236D01*
X145780Y186215D01*
X145758Y186120D01*
X145729Y186026D01*
X145730Y186002D01*
X145724Y185978D01*
X145734Y185880D01*
X145737Y185782D01*
X145746Y185759D01*
X145748Y185735D01*
X145788Y185645D01*
X145823Y185554D01*
X145838Y185535D01*
X145848Y185512D01*
X145942Y185398D01*
X146305Y185036D01*
X146305Y180216D01*
X145412Y179323D01*
X135707Y179323D01*
X135634Y179311D01*
X135561Y179309D01*
X135515Y179292D01*
X135466Y179284D01*
X135401Y179249D01*
X135333Y179223D01*
X135294Y179192D01*
X135251Y179169D01*
X135201Y179115D01*
X135144Y179068D01*
X135118Y179026D01*
X135084Y178991D01*
X135054Y178924D01*
X135015Y178861D01*
X135004Y178813D01*
X134983Y178768D01*
X134976Y178695D01*
X134959Y178624D01*
X134964Y178575D01*
X134959Y178525D01*
X134976Y178454D01*
X134983Y178381D01*
X135003Y178336D01*
X135014Y178288D01*
X135053Y178225D01*
X135083Y178158D01*
X135130Y178102D01*
X135143Y178080D01*
X135156Y178070D01*
X135177Y178044D01*
X135867Y177355D01*
X135867Y173165D01*
X132905Y170203D01*
X128715Y170203D01*
X125753Y173165D01*
X125753Y177355D01*
X126443Y178044D01*
X126486Y178104D01*
X126536Y178158D01*
X126556Y178202D01*
X126585Y178243D01*
X126606Y178313D01*
X126637Y178380D01*
X126642Y178429D01*
X126656Y178476D01*
X126654Y178549D01*
X126661Y178623D01*
X126650Y178671D01*
X126648Y178720D01*
X126622Y178789D01*
X126606Y178860D01*
X126580Y178902D01*
X126562Y178948D01*
X126516Y179005D01*
X126477Y179068D01*
X126439Y179099D01*
X126408Y179137D01*
X126345Y179176D01*
X126288Y179223D01*
X126242Y179240D01*
X126200Y179266D01*
X126129Y179283D01*
X126060Y179309D01*
X125987Y179316D01*
X125963Y179322D01*
X125946Y179320D01*
X125913Y179323D01*
X113668Y179323D01*
X112775Y180216D01*
X112775Y183825D01*
X112763Y183898D01*
X112761Y183971D01*
X112744Y184017D01*
X112736Y184066D01*
X112701Y184131D01*
X112675Y184199D01*
X112644Y184238D01*
X112621Y184281D01*
X112567Y184331D01*
X112520Y184388D01*
X112478Y184414D01*
X112443Y184448D01*
X112376Y184478D01*
X112313Y184517D01*
X112265Y184528D01*
X112220Y184549D01*
X112147Y184556D01*
X112076Y184573D01*
X112027Y184568D01*
X111977Y184573D01*
X111906Y184556D01*
X111833Y184549D01*
X111788Y184529D01*
X111740Y184518D01*
X111677Y184479D01*
X111610Y184449D01*
X111554Y184402D01*
X111532Y184389D01*
X111522Y184376D01*
X111496Y184355D01*
X111315Y184173D01*
X107125Y184173D01*
X104163Y187135D01*
X104163Y189678D01*
X104159Y189702D01*
X104162Y189727D01*
X104140Y189822D01*
X104124Y189919D01*
X104112Y189940D01*
X104106Y189964D01*
X104055Y190048D01*
X104009Y190134D01*
X103991Y190151D01*
X103978Y190172D01*
X103902Y190234D01*
X103831Y190301D01*
X103808Y190311D01*
X103789Y190327D01*
X103698Y190361D01*
X103608Y190402D01*
X103584Y190404D01*
X103561Y190413D01*
X103414Y190427D01*
X85816Y190427D01*
X85792Y190423D01*
X85767Y190426D01*
X85672Y190404D01*
X85575Y190388D01*
X85554Y190376D01*
X85530Y190370D01*
X85446Y190319D01*
X85360Y190273D01*
X85343Y190255D01*
X85322Y190242D01*
X85260Y190166D01*
X85193Y190095D01*
X85183Y190072D01*
X85167Y190053D01*
X85133Y189962D01*
X85092Y189872D01*
X85090Y189848D01*
X85081Y189825D01*
X85067Y189678D01*
X85067Y187135D01*
X82105Y184173D01*
X77915Y184173D01*
X74953Y187135D01*
X74953Y188590D01*
X74941Y188663D01*
X74939Y188736D01*
X74922Y188782D01*
X74914Y188831D01*
X74879Y188896D01*
X74853Y188964D01*
X74822Y189003D01*
X74799Y189046D01*
X74745Y189096D01*
X74698Y189153D01*
X74656Y189179D01*
X74621Y189213D01*
X74554Y189243D01*
X74491Y189282D01*
X74443Y189293D01*
X74398Y189314D01*
X74325Y189321D01*
X74254Y189338D01*
X74205Y189333D01*
X74155Y189338D01*
X74084Y189321D01*
X74011Y189314D01*
X73966Y189294D01*
X73918Y189283D01*
X73855Y189244D01*
X73788Y189214D01*
X73732Y189167D01*
X73710Y189154D01*
X73700Y189141D01*
X73674Y189120D01*
X71268Y186714D01*
X71211Y186635D01*
X71149Y186559D01*
X71141Y186536D01*
X71126Y186516D01*
X71098Y186422D01*
X71063Y186331D01*
X71060Y186298D01*
X71055Y186282D01*
X71056Y186257D01*
X71049Y186184D01*
X71049Y163832D01*
X71065Y163736D01*
X71074Y163639D01*
X71084Y163616D01*
X71088Y163591D01*
X71134Y163505D01*
X71175Y163417D01*
X71196Y163391D01*
X71203Y163376D01*
X71222Y163359D01*
X71268Y163302D01*
X73581Y160990D01*
X73581Y151446D01*
X70744Y148609D01*
X70687Y148530D01*
X70625Y148455D01*
X70617Y148431D01*
X70602Y148411D01*
X70574Y148317D01*
X70539Y148226D01*
X70536Y148193D01*
X70531Y148177D01*
X70532Y148152D01*
X70525Y148079D01*
X70525Y142937D01*
X70527Y142924D01*
X70526Y142918D01*
X70531Y142896D01*
X70541Y142841D01*
X70550Y142744D01*
X70560Y142721D01*
X70564Y142696D01*
X70610Y142610D01*
X70651Y142521D01*
X70672Y142496D01*
X70679Y142481D01*
X70698Y142464D01*
X70744Y142407D01*
X73057Y140095D01*
X73057Y135905D01*
X70095Y132943D01*
X68436Y132943D01*
X68364Y132931D01*
X68290Y132929D01*
X68244Y132912D01*
X68195Y132904D01*
X68131Y132869D01*
X68062Y132843D01*
X68024Y132812D01*
X67980Y132789D01*
X67930Y132735D01*
X67873Y132688D01*
X67847Y132646D01*
X67813Y132611D01*
X67783Y132544D01*
X67744Y132481D01*
X67733Y132433D01*
X67712Y132388D01*
X67705Y132315D01*
X67688Y132244D01*
X67693Y132195D01*
X67688Y132145D01*
X67705Y132074D01*
X67712Y132001D01*
X67732Y131956D01*
X67744Y131908D01*
X67782Y131845D01*
X67813Y131778D01*
X67859Y131722D01*
X67872Y131700D01*
X67885Y131690D01*
X67906Y131664D01*
X68294Y131276D01*
X68374Y131219D01*
X68449Y131157D01*
X68472Y131149D01*
X68493Y131134D01*
X68586Y131106D01*
X68677Y131071D01*
X68710Y131068D01*
X68726Y131063D01*
X68751Y131064D01*
X68824Y131057D01*
X72095Y131057D01*
X75057Y128095D01*
X75057Y123905D01*
X72095Y120943D01*
X71872Y120943D01*
X71799Y120931D01*
X71726Y120929D01*
X71680Y120912D01*
X71631Y120904D01*
X71566Y120869D01*
X71497Y120843D01*
X71459Y120812D01*
X71416Y120789D01*
X71365Y120735D01*
X71309Y120688D01*
X71283Y120647D01*
X71249Y120611D01*
X71218Y120544D01*
X71180Y120481D01*
X71168Y120433D01*
X71148Y120388D01*
X71141Y120315D01*
X71124Y120244D01*
X71129Y120195D01*
X71124Y120145D01*
X71141Y120074D01*
X71148Y120001D01*
X71168Y119956D01*
X71179Y119908D01*
X71218Y119845D01*
X71248Y119778D01*
X71295Y119722D01*
X71308Y119700D01*
X71321Y119690D01*
X71342Y119664D01*
X78525Y112481D01*
X78525Y101356D01*
X78541Y101260D01*
X78550Y101163D01*
X78560Y101140D01*
X78564Y101115D01*
X78610Y101029D01*
X78651Y100941D01*
X78672Y100915D01*
X78679Y100900D01*
X78698Y100883D01*
X78744Y100826D01*
X80826Y98744D01*
X80906Y98687D01*
X80981Y98625D01*
X81004Y98617D01*
X81025Y98602D01*
X81118Y98574D01*
X81209Y98539D01*
X81242Y98536D01*
X81258Y98531D01*
X81283Y98532D01*
X81356Y98525D01*
X93063Y98525D01*
X93159Y98541D01*
G37*
%LPC*%
G36*
X162954Y34475D02*
X162954Y34475D01*
X161256Y36174D01*
X157320Y40109D01*
X157300Y40124D01*
X157285Y40143D01*
X157214Y40186D01*
X157175Y40219D01*
X157159Y40225D01*
X157122Y40251D01*
X157098Y40259D01*
X157078Y40272D01*
X156982Y40294D01*
X156952Y40303D01*
X156946Y40305D01*
X156944Y40305D01*
X156888Y40322D01*
X156864Y40322D01*
X156840Y40327D01*
X156743Y40318D01*
X156644Y40314D01*
X156622Y40306D01*
X156597Y40303D01*
X156548Y40281D01*
X156541Y40280D01*
X156515Y40266D01*
X156508Y40263D01*
X156416Y40229D01*
X156397Y40213D01*
X156375Y40203D01*
X156334Y40170D01*
X156325Y40165D01*
X156315Y40154D01*
X156261Y40109D01*
X154095Y37943D01*
X149905Y37943D01*
X146943Y40905D01*
X146943Y45095D01*
X149905Y48057D01*
X154095Y48057D01*
X156407Y45744D01*
X156487Y45687D01*
X156562Y45625D01*
X156585Y45617D01*
X156605Y45602D01*
X156699Y45574D01*
X156790Y45539D01*
X156823Y45536D01*
X156839Y45531D01*
X156864Y45532D01*
X156937Y45525D01*
X159046Y45525D01*
X164826Y39744D01*
X164906Y39687D01*
X164981Y39625D01*
X165004Y39617D01*
X165025Y39602D01*
X165118Y39574D01*
X165209Y39539D01*
X165242Y39536D01*
X165258Y39531D01*
X165283Y39532D01*
X165356Y39525D01*
X219644Y39525D01*
X219740Y39541D01*
X219837Y39550D01*
X219860Y39560D01*
X219885Y39564D01*
X219971Y39610D01*
X220059Y39651D01*
X220085Y39672D01*
X220100Y39679D01*
X220117Y39698D01*
X220174Y39744D01*
X223256Y42826D01*
X223307Y42897D01*
X223309Y42900D01*
X223311Y42903D01*
X223313Y42906D01*
X223375Y42981D01*
X223383Y43004D01*
X223398Y43025D01*
X223426Y43118D01*
X223461Y43209D01*
X223464Y43242D01*
X223469Y43258D01*
X223468Y43283D01*
X223475Y43356D01*
X223475Y79063D01*
X223459Y79159D01*
X223450Y79256D01*
X223440Y79279D01*
X223436Y79304D01*
X223390Y79390D01*
X223349Y79479D01*
X223328Y79504D01*
X223321Y79519D01*
X223302Y79536D01*
X223256Y79593D01*
X220943Y81905D01*
X220943Y86095D01*
X223905Y89057D01*
X228095Y89057D01*
X231057Y86095D01*
X231057Y81905D01*
X228744Y79593D01*
X228687Y79513D01*
X228625Y79438D01*
X228617Y79415D01*
X228602Y79395D01*
X228574Y79301D01*
X228539Y79210D01*
X228536Y79177D01*
X228531Y79161D01*
X228532Y79136D01*
X228525Y79063D01*
X228525Y40954D01*
X222046Y34475D01*
X162954Y34475D01*
G37*
%LPD*%
%LPC*%
G36*
X48905Y423943D02*
X48905Y423943D01*
X46593Y426256D01*
X46513Y426313D01*
X46438Y426375D01*
X46415Y426383D01*
X46395Y426398D01*
X46301Y426426D01*
X46210Y426461D01*
X46177Y426464D01*
X46161Y426469D01*
X46136Y426468D01*
X46063Y426475D01*
X31954Y426475D01*
X23475Y434954D01*
X23475Y493046D01*
X26724Y496294D01*
X26781Y496374D01*
X26843Y496449D01*
X26851Y496472D01*
X26866Y496493D01*
X26894Y496586D01*
X26929Y496677D01*
X26932Y496710D01*
X26937Y496726D01*
X26936Y496751D01*
X26943Y496824D01*
X26943Y500095D01*
X29905Y503057D01*
X34095Y503057D01*
X37057Y500095D01*
X37057Y495905D01*
X34095Y492943D01*
X30824Y492943D01*
X30728Y492927D01*
X30631Y492918D01*
X30608Y492908D01*
X30583Y492904D01*
X30497Y492858D01*
X30409Y492817D01*
X30383Y492796D01*
X30368Y492789D01*
X30351Y492770D01*
X30294Y492724D01*
X28744Y491174D01*
X28687Y491094D01*
X28625Y491019D01*
X28617Y490996D01*
X28602Y490975D01*
X28574Y490882D01*
X28539Y490791D01*
X28536Y490758D01*
X28531Y490742D01*
X28532Y490717D01*
X28525Y490644D01*
X28525Y437356D01*
X28541Y437260D01*
X28550Y437163D01*
X28560Y437140D01*
X28564Y437115D01*
X28610Y437029D01*
X28651Y436941D01*
X28672Y436915D01*
X28679Y436900D01*
X28698Y436883D01*
X28744Y436826D01*
X33826Y431744D01*
X33906Y431687D01*
X33981Y431625D01*
X34004Y431617D01*
X34025Y431602D01*
X34118Y431574D01*
X34209Y431539D01*
X34242Y431536D01*
X34258Y431531D01*
X34283Y431532D01*
X34356Y431525D01*
X46063Y431525D01*
X46159Y431541D01*
X46256Y431550D01*
X46279Y431560D01*
X46304Y431564D01*
X46390Y431610D01*
X46479Y431651D01*
X46504Y431672D01*
X46519Y431679D01*
X46536Y431698D01*
X46593Y431744D01*
X48905Y434057D01*
X53095Y434057D01*
X56057Y431095D01*
X56057Y426905D01*
X53095Y423943D01*
X48905Y423943D01*
G37*
%LPD*%
%LPC*%
G36*
X48705Y398803D02*
X48705Y398803D01*
X45743Y401765D01*
X45743Y405955D01*
X48056Y408267D01*
X48113Y408347D01*
X48175Y408422D01*
X48183Y408445D01*
X48198Y408465D01*
X48226Y408559D01*
X48261Y408650D01*
X48264Y408683D01*
X48269Y408699D01*
X48268Y408724D01*
X48275Y408797D01*
X48275Y413796D01*
X71344Y436865D01*
X76974Y436865D01*
X76998Y436869D01*
X77023Y436866D01*
X77118Y436888D01*
X77215Y436904D01*
X77236Y436916D01*
X77260Y436922D01*
X77344Y436973D01*
X77430Y437019D01*
X77447Y437037D01*
X77468Y437050D01*
X77530Y437126D01*
X77597Y437197D01*
X77607Y437220D01*
X77623Y437239D01*
X77657Y437330D01*
X77698Y437420D01*
X77700Y437444D01*
X77709Y437467D01*
X77723Y437614D01*
X77723Y438020D01*
X78616Y438913D01*
X102740Y438913D01*
X103633Y438020D01*
X103633Y430660D01*
X102740Y429767D01*
X78616Y429767D01*
X77723Y430660D01*
X77723Y431066D01*
X77719Y431090D01*
X77722Y431115D01*
X77700Y431210D01*
X77684Y431307D01*
X77672Y431328D01*
X77666Y431352D01*
X77615Y431436D01*
X77569Y431522D01*
X77551Y431539D01*
X77538Y431560D01*
X77462Y431622D01*
X77391Y431689D01*
X77368Y431699D01*
X77349Y431715D01*
X77258Y431749D01*
X77168Y431790D01*
X77144Y431792D01*
X77121Y431801D01*
X76974Y431815D01*
X73746Y431815D01*
X73650Y431799D01*
X73553Y431790D01*
X73530Y431780D01*
X73505Y431776D01*
X73419Y431730D01*
X73331Y431689D01*
X73305Y431668D01*
X73290Y431661D01*
X73273Y431642D01*
X73216Y431596D01*
X53544Y411924D01*
X53487Y411844D01*
X53425Y411769D01*
X53417Y411746D01*
X53402Y411725D01*
X53374Y411632D01*
X53339Y411541D01*
X53336Y411508D01*
X53331Y411492D01*
X53332Y411467D01*
X53325Y411394D01*
X53325Y408797D01*
X53341Y408701D01*
X53350Y408604D01*
X53360Y408581D01*
X53364Y408556D01*
X53410Y408470D01*
X53451Y408381D01*
X53472Y408356D01*
X53479Y408341D01*
X53498Y408324D01*
X53544Y408267D01*
X55857Y405955D01*
X55857Y401765D01*
X52895Y398803D01*
X48705Y398803D01*
G37*
%LPD*%
%LPC*%
G36*
X173618Y67075D02*
X173618Y67075D01*
X172725Y67968D01*
X172725Y94632D01*
X173618Y95525D01*
X187582Y95525D01*
X188475Y94632D01*
X188475Y67968D01*
X187582Y67075D01*
X173618Y67075D01*
G37*
%LPD*%
%LPC*%
G36*
X107125Y416583D02*
X107125Y416583D01*
X104912Y418797D01*
X104852Y418840D01*
X104798Y418890D01*
X104754Y418910D01*
X104713Y418939D01*
X104643Y418960D01*
X104576Y418991D01*
X104527Y418996D01*
X104480Y419010D01*
X104407Y419008D01*
X104333Y419015D01*
X104285Y419004D01*
X104236Y419002D01*
X104167Y418976D01*
X104096Y418960D01*
X104054Y418934D01*
X104008Y418916D01*
X103951Y418870D01*
X103888Y418831D01*
X103857Y418793D01*
X103819Y418762D01*
X103780Y418699D01*
X103733Y418642D01*
X103716Y418596D01*
X103690Y418554D01*
X103673Y418483D01*
X103647Y418414D01*
X103640Y418341D01*
X103634Y418317D01*
X103636Y418300D01*
X103633Y418267D01*
X103633Y417960D01*
X102740Y417067D01*
X78616Y417067D01*
X77723Y417960D01*
X77723Y425320D01*
X78616Y426213D01*
X102740Y426213D01*
X103633Y425320D01*
X103633Y425013D01*
X103645Y424940D01*
X103647Y424867D01*
X103664Y424821D01*
X103672Y424772D01*
X103707Y424707D01*
X103733Y424639D01*
X103764Y424600D01*
X103787Y424557D01*
X103841Y424507D01*
X103888Y424450D01*
X103930Y424424D01*
X103965Y424390D01*
X104032Y424360D01*
X104095Y424321D01*
X104143Y424310D01*
X104188Y424289D01*
X104261Y424282D01*
X104332Y424265D01*
X104381Y424270D01*
X104431Y424265D01*
X104502Y424282D01*
X104575Y424289D01*
X104620Y424309D01*
X104668Y424320D01*
X104731Y424359D01*
X104798Y424389D01*
X104854Y424436D01*
X104876Y424449D01*
X104886Y424462D01*
X104912Y424483D01*
X107125Y426697D01*
X111315Y426697D01*
X114277Y423735D01*
X114277Y419545D01*
X111315Y416583D01*
X107125Y416583D01*
G37*
%LPD*%
G36*
X225126Y127691D02*
X225126Y127691D01*
X225252Y127698D01*
X225298Y127711D01*
X225346Y127717D01*
X225465Y127759D01*
X225587Y127794D01*
X225629Y127818D01*
X225674Y127834D01*
X225781Y127903D01*
X225891Y127964D01*
X225937Y128004D01*
X225967Y128023D01*
X226001Y128058D01*
X226077Y128123D01*
X226377Y128423D01*
X226456Y128522D01*
X226540Y128616D01*
X226564Y128658D01*
X226594Y128696D01*
X226648Y128810D01*
X226709Y128921D01*
X226722Y128967D01*
X226743Y129011D01*
X226769Y129134D01*
X226804Y129256D01*
X226809Y129317D01*
X226816Y129352D01*
X226815Y129400D01*
X226823Y129500D01*
X226823Y145100D01*
X226809Y145226D01*
X226802Y145352D01*
X226789Y145398D01*
X226783Y145446D01*
X226741Y145565D01*
X226706Y145687D01*
X226682Y145729D01*
X226666Y145774D01*
X226597Y145881D01*
X226536Y145991D01*
X226496Y146037D01*
X226477Y146067D01*
X226442Y146101D01*
X226377Y146177D01*
X225677Y146877D01*
X225578Y146956D01*
X225484Y147040D01*
X225442Y147064D01*
X225404Y147094D01*
X225290Y147148D01*
X225179Y147209D01*
X225133Y147222D01*
X225089Y147243D01*
X224966Y147269D01*
X224844Y147304D01*
X224783Y147309D01*
X224748Y147316D01*
X224700Y147315D01*
X224600Y147323D01*
X216300Y147323D01*
X216274Y147320D01*
X216248Y147322D01*
X216101Y147300D01*
X215954Y147283D01*
X215929Y147275D01*
X215903Y147271D01*
X215765Y147216D01*
X215626Y147166D01*
X215604Y147152D01*
X215579Y147142D01*
X215458Y147057D01*
X215333Y146977D01*
X215315Y146958D01*
X215293Y146943D01*
X215194Y146833D01*
X215091Y146726D01*
X215077Y146704D01*
X215060Y146684D01*
X214988Y146554D01*
X214912Y146427D01*
X214904Y146402D01*
X214891Y146379D01*
X214851Y146236D01*
X214806Y146095D01*
X214804Y146069D01*
X214796Y146044D01*
X214777Y145800D01*
X214777Y129200D01*
X214780Y129174D01*
X214778Y129148D01*
X214800Y129001D01*
X214817Y128854D01*
X214825Y128829D01*
X214829Y128803D01*
X214884Y128665D01*
X214934Y128526D01*
X214948Y128504D01*
X214958Y128479D01*
X215043Y128358D01*
X215123Y128233D01*
X215142Y128215D01*
X215157Y128193D01*
X215267Y128094D01*
X215374Y127991D01*
X215396Y127977D01*
X215416Y127960D01*
X215546Y127888D01*
X215673Y127812D01*
X215698Y127804D01*
X215721Y127791D01*
X215864Y127751D01*
X216005Y127706D01*
X216031Y127704D01*
X216056Y127696D01*
X216300Y127677D01*
X225000Y127677D01*
X225126Y127691D01*
G37*
%LPC*%
G36*
X22299Y67301D02*
X22299Y67301D01*
X29131Y67301D01*
X29131Y67119D01*
X29143Y67046D01*
X29145Y66973D01*
X29162Y66927D01*
X29170Y66878D01*
X29205Y66813D01*
X29231Y66744D01*
X29262Y66706D01*
X29285Y66663D01*
X29339Y66613D01*
X29386Y66556D01*
X29428Y66530D01*
X29463Y66496D01*
X29530Y66466D01*
X29593Y66427D01*
X29641Y66416D01*
X29686Y66395D01*
X29759Y66388D01*
X29830Y66371D01*
X29879Y66376D01*
X29929Y66371D01*
X30000Y66388D01*
X30073Y66395D01*
X30118Y66415D01*
X30166Y66426D01*
X30229Y66465D01*
X30296Y66495D01*
X30352Y66542D01*
X30374Y66555D01*
X30384Y66568D01*
X30410Y66589D01*
X31984Y68163D01*
X34006Y69001D01*
X36194Y69001D01*
X38216Y68163D01*
X39763Y66616D01*
X40601Y64594D01*
X40601Y62406D01*
X39763Y60384D01*
X38216Y58837D01*
X36194Y57999D01*
X34006Y57999D01*
X31984Y58837D01*
X30437Y60384D01*
X30257Y60818D01*
X30244Y60839D01*
X30237Y60862D01*
X30180Y60942D01*
X30128Y61025D01*
X30109Y61041D01*
X30095Y61061D01*
X30015Y61118D01*
X29940Y61180D01*
X29916Y61189D01*
X29896Y61203D01*
X29803Y61231D01*
X29711Y61266D01*
X29687Y61267D01*
X29663Y61274D01*
X29565Y61271D01*
X29467Y61274D01*
X29444Y61267D01*
X29419Y61266D01*
X29328Y61232D01*
X29234Y61203D01*
X29214Y61189D01*
X29191Y61180D01*
X29115Y61118D01*
X29035Y61061D01*
X29021Y61041D01*
X29002Y61026D01*
X28950Y60943D01*
X28893Y60863D01*
X28886Y60840D01*
X28873Y60819D01*
X28830Y60677D01*
X28811Y60580D01*
X28183Y59064D01*
X27952Y58718D01*
X27451Y57969D01*
X27271Y57700D01*
X26110Y56539D01*
X24746Y55627D01*
X23230Y54999D01*
X22299Y54814D01*
X22299Y67301D01*
G37*
%LPD*%
%LPC*%
G36*
X104770Y54999D02*
X104770Y54999D01*
X103254Y55627D01*
X101890Y56539D01*
X100729Y57700D01*
X99817Y59064D01*
X99189Y60580D01*
X99170Y60677D01*
X99161Y60700D01*
X99159Y60725D01*
X99119Y60814D01*
X99084Y60906D01*
X99069Y60925D01*
X99058Y60947D01*
X98991Y61019D01*
X98929Y61094D01*
X98909Y61107D01*
X98892Y61125D01*
X98805Y61172D01*
X98722Y61223D01*
X98698Y61229D01*
X98676Y61241D01*
X98580Y61257D01*
X98485Y61279D01*
X98460Y61276D01*
X98436Y61280D01*
X98339Y61265D01*
X98242Y61255D01*
X98219Y61245D01*
X98195Y61241D01*
X98109Y61195D01*
X98019Y61155D01*
X98001Y61138D01*
X97980Y61126D01*
X97913Y61055D01*
X97841Y60988D01*
X97830Y60966D01*
X97813Y60948D01*
X97743Y60818D01*
X97563Y60384D01*
X96016Y58837D01*
X93994Y57999D01*
X91806Y57999D01*
X89784Y58837D01*
X88237Y60384D01*
X87399Y62406D01*
X87399Y64594D01*
X88237Y66616D01*
X89784Y68163D01*
X91806Y69001D01*
X93994Y69001D01*
X96016Y68163D01*
X97590Y66589D01*
X97650Y66546D01*
X97704Y66496D01*
X97748Y66476D01*
X97789Y66447D01*
X97859Y66425D01*
X97926Y66395D01*
X97975Y66390D01*
X98022Y66376D01*
X98095Y66378D01*
X98169Y66371D01*
X98217Y66382D01*
X98266Y66384D01*
X98335Y66410D01*
X98406Y66426D01*
X98448Y66452D01*
X98494Y66470D01*
X98551Y66516D01*
X98614Y66555D01*
X98645Y66593D01*
X98683Y66624D01*
X98722Y66687D01*
X98769Y66744D01*
X98786Y66790D01*
X98812Y66832D01*
X98829Y66903D01*
X98855Y66972D01*
X98862Y67045D01*
X98868Y67069D01*
X98866Y67086D01*
X98869Y67119D01*
X98869Y67301D01*
X105701Y67301D01*
X105701Y54814D01*
X104770Y54999D01*
G37*
%LPD*%
%LPC*%
G36*
X94747Y391389D02*
X94747Y391389D01*
X94747Y404449D01*
X105422Y404449D01*
X106069Y404276D01*
X106648Y403941D01*
X107121Y403468D01*
X107456Y402889D01*
X107629Y402242D01*
X107629Y391389D01*
X94747Y391389D01*
G37*
%LPD*%
%LPC*%
G36*
X78867Y391389D02*
X78867Y391389D01*
X78867Y402242D01*
X79040Y402889D01*
X79375Y403468D01*
X79848Y403941D01*
X80427Y404276D01*
X81074Y404449D01*
X91749Y404449D01*
X91749Y391389D01*
X78867Y391389D01*
G37*
%LPD*%
%LPC*%
G36*
X94747Y375331D02*
X94747Y375331D01*
X94747Y388391D01*
X107629Y388391D01*
X107629Y377538D01*
X107456Y376891D01*
X107121Y376312D01*
X106648Y375839D01*
X106069Y375504D01*
X105422Y375331D01*
X94747Y375331D01*
G37*
%LPD*%
%LPC*%
G36*
X81074Y375331D02*
X81074Y375331D01*
X80427Y375504D01*
X79848Y375839D01*
X79375Y376312D01*
X79040Y376891D01*
X78867Y377538D01*
X78867Y388391D01*
X91749Y388391D01*
X91749Y375331D01*
X81074Y375331D01*
G37*
%LPD*%
%LPC*%
G36*
X204899Y82699D02*
X204899Y82699D01*
X204899Y96441D01*
X210084Y96441D01*
X210731Y96268D01*
X211310Y95933D01*
X211783Y95460D01*
X212118Y94881D01*
X212291Y94234D01*
X212291Y82699D01*
X204899Y82699D01*
G37*
%LPD*%
%LPC*%
G36*
X204899Y65959D02*
X204899Y65959D01*
X204899Y79701D01*
X212291Y79701D01*
X212291Y68166D01*
X212118Y67519D01*
X211783Y66940D01*
X211310Y66467D01*
X210731Y66132D01*
X210084Y65959D01*
X204899Y65959D01*
G37*
%LPD*%
%LPC*%
G36*
X194509Y82699D02*
X194509Y82699D01*
X194509Y94234D01*
X194682Y94881D01*
X195017Y95460D01*
X195490Y95933D01*
X196069Y96268D01*
X196716Y96441D01*
X201901Y96441D01*
X201901Y82699D01*
X194509Y82699D01*
G37*
%LPD*%
%LPC*%
G36*
X196716Y65959D02*
X196716Y65959D01*
X196069Y66132D01*
X195490Y66467D01*
X195017Y66940D01*
X194682Y67519D01*
X194509Y68166D01*
X194509Y79701D01*
X201901Y79701D01*
X201901Y65959D01*
X196716Y65959D01*
G37*
%LPD*%
%LPC*%
G36*
X11499Y132899D02*
X11499Y132899D01*
X11499Y143250D01*
X12796Y143045D01*
X14583Y142464D01*
X16257Y141611D01*
X17777Y140506D01*
X19106Y139177D01*
X20211Y137657D01*
X21064Y135983D01*
X21645Y134196D01*
X21850Y132899D01*
X11499Y132899D01*
G37*
%LPD*%
%LPC*%
G36*
X227150Y107499D02*
X227150Y107499D01*
X227355Y108796D01*
X227936Y110583D01*
X228789Y112257D01*
X229894Y113777D01*
X231223Y115106D01*
X232743Y116211D01*
X234417Y117064D01*
X236204Y117645D01*
X237501Y117850D01*
X237501Y107499D01*
X227150Y107499D01*
G37*
%LPD*%
%LPC*%
G36*
X11499Y129901D02*
X11499Y129901D01*
X21850Y129901D01*
X21645Y128604D01*
X21064Y126817D01*
X20211Y125143D01*
X19106Y123623D01*
X17777Y122294D01*
X16257Y121189D01*
X14583Y120336D01*
X12796Y119755D01*
X11499Y119550D01*
X11499Y129901D01*
G37*
%LPD*%
%LPC*%
G36*
X236204Y94355D02*
X236204Y94355D01*
X234417Y94936D01*
X232743Y95789D01*
X231223Y96894D01*
X229894Y98223D01*
X228789Y99743D01*
X227936Y101417D01*
X227355Y103204D01*
X227150Y104501D01*
X237501Y104501D01*
X237501Y94150D01*
X236204Y94355D01*
G37*
%LPD*%
%LPC*%
G36*
X22299Y70299D02*
X22299Y70299D01*
X22299Y82786D01*
X23230Y82601D01*
X24746Y81973D01*
X26110Y81061D01*
X27271Y79900D01*
X28183Y78536D01*
X28811Y77020D01*
X29131Y75411D01*
X29131Y70299D01*
X22299Y70299D01*
G37*
%LPD*%
%LPC*%
G36*
X22299Y28499D02*
X22299Y28499D01*
X22299Y40986D01*
X23230Y40801D01*
X24746Y40173D01*
X26110Y39261D01*
X27271Y38100D01*
X28183Y36736D01*
X28811Y35220D01*
X29131Y33611D01*
X29131Y28499D01*
X22299Y28499D01*
G37*
%LPD*%
%LPC*%
G36*
X108699Y28499D02*
X108699Y28499D01*
X108699Y40986D01*
X109630Y40801D01*
X111146Y40173D01*
X112510Y39261D01*
X113671Y38100D01*
X114583Y36736D01*
X115211Y35220D01*
X115531Y33611D01*
X115531Y28499D01*
X108699Y28499D01*
G37*
%LPD*%
%LPC*%
G36*
X108699Y67301D02*
X108699Y67301D01*
X115531Y67301D01*
X115531Y62189D01*
X115211Y60580D01*
X114583Y59064D01*
X114352Y58718D01*
X113851Y57969D01*
X113671Y57700D01*
X112510Y56539D01*
X111146Y55627D01*
X109630Y54999D01*
X108699Y54814D01*
X108699Y67301D01*
G37*
%LPD*%
%LPC*%
G36*
X22299Y25501D02*
X22299Y25501D01*
X29131Y25501D01*
X29131Y20389D01*
X28811Y18780D01*
X28183Y17264D01*
X27846Y16760D01*
X27346Y16011D01*
X27345Y16011D01*
X27271Y15900D01*
X26110Y14739D01*
X24746Y13827D01*
X23230Y13199D01*
X22299Y13014D01*
X22299Y25501D01*
G37*
%LPD*%
%LPC*%
G36*
X108699Y25501D02*
X108699Y25501D01*
X115531Y25501D01*
X115531Y20389D01*
X115211Y18780D01*
X114583Y17264D01*
X114246Y16760D01*
X113746Y16011D01*
X113745Y16011D01*
X113671Y15900D01*
X112510Y14739D01*
X111146Y13827D01*
X109630Y13199D01*
X108699Y13014D01*
X108699Y25501D01*
G37*
%LPD*%
%LPC*%
G36*
X12469Y70299D02*
X12469Y70299D01*
X12469Y75411D01*
X12789Y77020D01*
X13417Y78536D01*
X13637Y78864D01*
X14137Y79613D01*
X14137Y79614D01*
X14329Y79900D01*
X15490Y81061D01*
X16854Y81973D01*
X18370Y82601D01*
X19301Y82786D01*
X19301Y70299D01*
X12469Y70299D01*
G37*
%LPD*%
%LPC*%
G36*
X12469Y28499D02*
X12469Y28499D01*
X12469Y33611D01*
X12789Y35220D01*
X13417Y36736D01*
X13531Y36906D01*
X14032Y37655D01*
X14032Y37656D01*
X14329Y38100D01*
X15490Y39261D01*
X16854Y40173D01*
X18370Y40801D01*
X19301Y40986D01*
X19301Y28499D01*
X12469Y28499D01*
G37*
%LPD*%
%LPC*%
G36*
X98869Y28499D02*
X98869Y28499D01*
X98869Y33611D01*
X99189Y35220D01*
X99817Y36736D01*
X99931Y36906D01*
X100432Y37655D01*
X100432Y37656D01*
X100729Y38100D01*
X101890Y39261D01*
X103254Y40173D01*
X104770Y40801D01*
X105701Y40986D01*
X105701Y28499D01*
X98869Y28499D01*
G37*
%LPD*%
%LPC*%
G36*
X18370Y54999D02*
X18370Y54999D01*
X16854Y55627D01*
X15490Y56539D01*
X14329Y57700D01*
X13417Y59064D01*
X12789Y60580D01*
X12469Y62189D01*
X12469Y67301D01*
X19301Y67301D01*
X19301Y54814D01*
X18370Y54999D01*
G37*
%LPD*%
%LPC*%
G36*
X18370Y13199D02*
X18370Y13199D01*
X16854Y13827D01*
X15490Y14739D01*
X14329Y15900D01*
X13417Y17264D01*
X12789Y18780D01*
X12469Y20389D01*
X12469Y25501D01*
X19301Y25501D01*
X19301Y13014D01*
X18370Y13199D01*
G37*
%LPD*%
%LPC*%
G36*
X104770Y13199D02*
X104770Y13199D01*
X103254Y13827D01*
X101890Y14739D01*
X100729Y15900D01*
X99817Y17264D01*
X99189Y18780D01*
X98869Y20389D01*
X98869Y25501D01*
X105701Y25501D01*
X105701Y13014D01*
X104770Y13199D01*
G37*
%LPD*%
%LPC*%
G36*
X159741Y423139D02*
X159741Y423139D01*
X159741Y427229D01*
X170006Y427229D01*
X170653Y427056D01*
X171232Y426721D01*
X171705Y426248D01*
X172040Y425669D01*
X172213Y425022D01*
X172213Y423139D01*
X159741Y423139D01*
G37*
%LPD*%
%LPC*%
G36*
X144271Y423139D02*
X144271Y423139D01*
X144271Y425022D01*
X144444Y425669D01*
X144779Y426248D01*
X145252Y426721D01*
X145831Y427056D01*
X146478Y427229D01*
X156743Y427229D01*
X156743Y423139D01*
X144271Y423139D01*
G37*
%LPD*%
%LPC*%
G36*
X159741Y416051D02*
X159741Y416051D01*
X159741Y420141D01*
X172213Y420141D01*
X172213Y418258D01*
X172040Y417611D01*
X171705Y417032D01*
X171232Y416559D01*
X170653Y416224D01*
X170006Y416051D01*
X159741Y416051D01*
G37*
%LPD*%
%LPC*%
G36*
X100919Y475059D02*
X100919Y475059D01*
X100919Y479251D01*
X101432Y479251D01*
X102422Y478986D01*
X103309Y478473D01*
X104033Y477749D01*
X104546Y476862D01*
X104811Y475872D01*
X104811Y475059D01*
X100919Y475059D01*
G37*
%LPD*%
%LPC*%
G36*
X100919Y468169D02*
X100919Y468169D01*
X100919Y472361D01*
X104811Y472361D01*
X104811Y471548D01*
X104552Y470584D01*
X104552Y470583D01*
X104546Y470558D01*
X104033Y469671D01*
X103309Y468947D01*
X102422Y468434D01*
X101432Y468169D01*
X100919Y468169D01*
G37*
%LPD*%
%LPC*%
G36*
X20799Y68799D02*
X20799Y68799D01*
X20799Y68801D01*
X20801Y68801D01*
X20801Y68799D01*
X20799Y68799D01*
G37*
%LPD*%
%LPC*%
G36*
X20799Y26999D02*
X20799Y26999D01*
X20799Y27001D01*
X20801Y27001D01*
X20801Y26999D01*
X20799Y26999D01*
G37*
%LPD*%
%LPC*%
G36*
X107199Y26999D02*
X107199Y26999D01*
X107199Y27001D01*
X107201Y27001D01*
X107201Y26999D01*
X107199Y26999D01*
G37*
%LPD*%
%LPC*%
G36*
X158241Y421639D02*
X158241Y421639D01*
X158241Y421641D01*
X158243Y421641D01*
X158243Y421639D01*
X158241Y421639D01*
G37*
%LPD*%
%LPC*%
G36*
X203399Y81199D02*
X203399Y81199D01*
X203399Y81201D01*
X203401Y81201D01*
X203401Y81199D01*
X203399Y81199D01*
G37*
%LPD*%
%LPC*%
G36*
X93247Y389889D02*
X93247Y389889D01*
X93247Y389891D01*
X93249Y389891D01*
X93249Y389889D01*
X93247Y389889D01*
G37*
%LPD*%
D10*
X20800Y63010D02*
X20800Y74590D01*
X107200Y74590D02*
X107200Y63010D01*
X20800Y32790D02*
X20800Y21210D01*
X107200Y21210D02*
X107200Y32790D01*
D11*
X10000Y106000D03*
X10000Y131400D03*
X10000Y156800D03*
X10000Y182200D03*
X10000Y207600D03*
X10000Y233000D03*
X10000Y258400D03*
X10000Y283800D03*
X10000Y309200D03*
X10000Y334600D03*
X10000Y360000D03*
X10000Y385400D03*
X10000Y410800D03*
X10000Y436200D03*
X10000Y461600D03*
X10000Y487000D03*
X239000Y106000D03*
X239000Y131400D03*
X239000Y156800D03*
X239000Y182200D03*
X239000Y207600D03*
X239000Y233000D03*
X239000Y258400D03*
X239000Y283800D03*
X239000Y309200D03*
X239000Y334600D03*
X239000Y360000D03*
X239000Y385400D03*
X239000Y410800D03*
X239000Y436200D03*
X239000Y461600D03*
X239000Y487000D03*
D12*
X203400Y81200D03*
X180600Y81300D03*
D13*
X158242Y459740D03*
X90678Y459740D03*
X158242Y447040D03*
X158242Y434340D03*
X90678Y447040D03*
X90678Y434340D03*
X158242Y421640D03*
X90678Y421640D03*
D14*
X149350Y473710D03*
X157990Y473710D03*
D15*
X100920Y475360D02*
X98220Y475360D01*
X100920Y475360D02*
X100920Y472060D01*
X98220Y472060D01*
X98220Y475360D01*
X98220Y474625D02*
X100920Y474625D01*
X92280Y475360D02*
X89580Y475360D01*
X92280Y475360D02*
X92280Y472060D01*
X89580Y472060D01*
X89580Y475360D01*
X89580Y474625D02*
X92280Y474625D01*
D14*
X90680Y485140D03*
X82040Y485140D03*
X157990Y486410D03*
X149350Y486410D03*
D16*
X155672Y389890D03*
X93248Y389890D03*
D17*
X161290Y202360D03*
X170790Y224360D03*
X151790Y224360D03*
D18*
X139192Y195834D03*
X139192Y189230D03*
X139192Y182626D03*
X119888Y182626D03*
X119888Y189230D03*
X119888Y195834D03*
D19*
X151289Y180499D02*
X156051Y180499D01*
X151289Y180499D02*
X151289Y185261D01*
X156051Y185261D01*
X156051Y180499D01*
X156051Y182008D02*
X151289Y182008D01*
X151289Y183517D02*
X156051Y183517D01*
X156051Y185026D02*
X151289Y185026D01*
X163989Y180499D02*
X168751Y180499D01*
X163989Y180499D02*
X163989Y185261D01*
X168751Y185261D01*
X168751Y180499D01*
X168751Y182008D02*
X163989Y182008D01*
X163989Y183517D02*
X168751Y183517D01*
X168751Y185026D02*
X163989Y185026D01*
D20*
X166370Y182880D02*
X153670Y182880D01*
D21*
X67000Y110000D03*
X50000Y55000D03*
X43000Y188000D03*
X60000Y202000D03*
X158000Y30000D03*
X158000Y7000D03*
X226000Y30000D03*
X226000Y7000D03*
X35000Y115000D03*
X144000Y298000D03*
X182000Y236000D03*
X62000Y506000D03*
X126000Y394000D03*
X184000Y411000D03*
X184000Y394000D03*
X126000Y375000D03*
X184000Y376000D03*
X184000Y357000D03*
X76000Y394000D03*
X76000Y375000D03*
X77000Y340000D03*
X77000Y320000D03*
X93000Y340000D03*
X109000Y340000D03*
X126000Y340000D03*
X92000Y320000D03*
X109000Y320000D03*
X184000Y319000D03*
X184000Y301000D03*
X43000Y27000D03*
X85000Y27000D03*
X5000Y51000D03*
X5000Y36000D03*
X5000Y21000D03*
X243000Y85000D03*
X243000Y54000D03*
X243000Y38000D03*
X243000Y24000D03*
X243000Y71000D03*
X76000Y359000D03*
X93000Y359000D03*
X109000Y359000D03*
X126000Y359000D03*
X184000Y339000D03*
X44000Y506000D03*
X44000Y490000D03*
X206000Y485000D03*
X206000Y469000D03*
X181000Y133000D03*
X13000Y9000D03*
X27000Y6000D03*
X40000Y6000D03*
X54000Y6000D03*
X68000Y6000D03*
X82000Y6000D03*
X98000Y6000D03*
X114000Y6000D03*
X174000Y6000D03*
X192000Y6000D03*
X210000Y6000D03*
X240000Y10000D03*
X48000Y135000D03*
X208000Y301000D03*
X5000Y65000D03*
X117800Y299400D03*
X209550Y199390D03*
X196600Y156100D03*
X222600Y167700D03*
X172000Y164800D03*
X154900Y154300D03*
X201930Y90170D03*
X201930Y81280D03*
X201930Y72390D03*
X222910Y111410D03*
X222910Y103790D03*
X60000Y215970D03*
X87400Y506000D03*
X112800Y506000D03*
X138200Y506000D03*
X163600Y506000D03*
X189000Y506000D03*
X76000Y413050D03*
X93000Y413050D03*
X145050Y359000D03*
X109020Y438450D03*
X44220Y471710D03*
X184000Y428780D03*
X5000Y78970D03*
X181000Y111410D03*
X194970Y111410D03*
X79700Y272730D03*
X107640Y272730D03*
X194620Y172790D03*
X209860Y189300D03*
X140010Y228670D03*
X119690Y175330D03*
X132000Y236000D03*
X138490Y328270D03*
D22*
X138430Y328210D01*
X138430Y322414D01*
X132000Y315984D01*
X132000Y236000D01*
D21*
X154000Y238810D03*
D22*
X143730Y238810D01*
X135524Y247016D01*
X135524Y314524D02*
X145490Y324490D01*
X135524Y314524D02*
X135524Y247016D01*
D21*
X145490Y347000D03*
D22*
X145490Y324490D01*
D21*
X161000Y84000D03*
X222500Y121600D03*
D23*
X215900Y121600D02*
X173990Y121600D01*
X215900Y121600D02*
X222500Y121600D01*
X229200Y121600D01*
X239000Y131400D01*
D21*
X217100Y145000D03*
X217400Y137500D03*
X217600Y129600D03*
X224500Y145100D03*
X224600Y137200D03*
X224700Y129500D03*
D24*
X224600Y137200D02*
X224600Y145000D01*
X224500Y145100D01*
X224600Y145000D02*
X217100Y145000D01*
X224600Y145000D02*
X224900Y144700D01*
X217400Y144700D02*
X217100Y145000D01*
X217400Y144700D02*
X217400Y137500D01*
X217600Y137200D02*
X219710Y137200D01*
X224600Y137200D01*
X217600Y137300D02*
X217400Y137500D01*
X217600Y137300D02*
X217600Y137200D01*
X217600Y129600D01*
X219710Y129500D02*
X224700Y129500D01*
X219710Y129500D02*
X217700Y129500D01*
X217600Y129600D01*
X224600Y137160D02*
X224600Y137200D01*
X224600Y137160D02*
X224600Y129600D01*
X224700Y129500D01*
X216300Y129300D02*
X216300Y145800D01*
X216300Y129300D02*
X216400Y129200D01*
X224200Y129200D01*
X224200Y144800D02*
X224500Y145100D01*
X224200Y144800D02*
X224200Y130810D01*
X224200Y129200D01*
X224500Y145100D02*
X223800Y145800D01*
X216300Y145800D01*
D21*
X182200Y90200D03*
X182200Y81310D03*
X182200Y72420D03*
D22*
X182190Y81300D02*
X180600Y81300D01*
X182190Y81300D02*
X182200Y81310D01*
X182200Y82900D02*
X180600Y81300D01*
X182200Y82900D02*
X182200Y90200D01*
X180600Y81300D02*
X182200Y79700D01*
X182200Y72420D01*
D23*
X215900Y121600D02*
X215900Y145400D01*
X216300Y145800D01*
X224600Y123700D02*
X222500Y121600D01*
X224600Y123700D02*
X224600Y137160D01*
X224600Y145000D01*
X222500Y134410D02*
X222500Y121600D01*
X222500Y134410D02*
X219710Y137200D01*
X219710Y124390D02*
X222500Y121600D01*
X219710Y124390D02*
X219710Y129500D01*
X224500Y145100D02*
X225300Y145100D01*
X239000Y131400D01*
X226010Y130810D02*
X224200Y130810D01*
X232410Y131400D02*
X239000Y131400D01*
X232410Y131400D02*
X230360Y131400D01*
X224600Y137160D01*
X224600Y137200D02*
X226610Y137200D01*
X232410Y131400D01*
X239000Y131400D02*
X231300Y123700D01*
X228600Y123700D01*
X224600Y123700D01*
X224700Y129500D02*
X226010Y130810D01*
X238410Y130810D02*
X239000Y131400D01*
X238410Y130810D02*
X233680Y130810D01*
X226010Y130810D01*
X224700Y129500D02*
X228600Y125600D01*
X228600Y123700D01*
X233680Y128780D01*
X233680Y130810D01*
D25*
X161000Y112000D02*
X161000Y84000D01*
X173990Y121600D02*
X222500Y121600D01*
X170600Y121600D02*
X161000Y112000D01*
X170600Y121600D02*
X173990Y121600D01*
D21*
X62000Y65000D03*
X75000Y64000D03*
D22*
X63000Y64000D01*
X62000Y65000D01*
D21*
X70000Y126000D03*
X28600Y168000D03*
D22*
X61944Y149492D02*
X61944Y134056D01*
X70000Y126000D01*
X61944Y149492D02*
X58944Y152492D01*
X58944Y164056D01*
X55000Y168000D02*
X28600Y168000D01*
X55000Y168000D02*
X58944Y164056D01*
D21*
X51000Y429000D03*
D22*
X33000Y429000D01*
X26000Y436000D01*
X26000Y492000D01*
X32000Y498000D01*
D21*
X32000Y498000D03*
D22*
X158242Y447040D02*
X176530Y447040D01*
D21*
X176530Y447040D03*
X109220Y421640D03*
D22*
X90678Y421640D01*
D21*
X50800Y403860D03*
D22*
X50800Y412750D01*
X72390Y434340D01*
X90678Y434340D01*
D21*
X68000Y138000D03*
D22*
X68000Y149436D01*
X71056Y152492D01*
X71056Y159944D01*
X68524Y162476D01*
X68524Y187540D02*
X77460Y196476D01*
X113524Y208350D02*
X113524Y257460D01*
X62460Y266524D02*
X59492Y269492D01*
X61056Y356492D02*
X61056Y361509D01*
X56000Y366565D02*
X56000Y375000D01*
X56000Y366565D02*
X61056Y361509D01*
X59492Y354927D02*
X59492Y269492D01*
X59492Y354927D02*
X61056Y356492D01*
X68524Y187540D02*
X68524Y162476D01*
X77460Y196476D02*
X101650Y196476D01*
X113524Y208350D01*
X113524Y257460D02*
X104460Y266524D01*
X62460Y266524D01*
D21*
X56000Y375000D03*
X192000Y236000D03*
X171000Y340000D03*
D22*
X165524Y334524D01*
X175556Y252444D02*
X192000Y236000D01*
X165524Y311671D02*
X165524Y334524D01*
X165524Y311671D02*
X175556Y301639D01*
X175556Y252444D01*
D21*
X103000Y249000D03*
D22*
X13000Y236000D02*
X10000Y233000D01*
X13000Y236000D02*
X20938Y236000D01*
X94524Y240524D02*
X103000Y249000D01*
X25462Y240524D02*
X20938Y236000D01*
X25462Y240524D02*
X94524Y240524D01*
D21*
X103000Y237000D03*
D22*
X21922Y219522D02*
X10000Y207600D01*
X21922Y219522D02*
X21922Y232000D01*
X26922Y237000D01*
X103000Y237000D01*
D21*
X103000Y226540D03*
D22*
X21922Y194122D02*
X10000Y182200D01*
X25446Y218062D02*
X25446Y229922D01*
X29000Y233476D01*
X95000Y233476D01*
X101936Y226540D01*
X103000Y226540D01*
X25446Y218062D02*
X21922Y214538D01*
X21922Y194122D01*
D21*
X103000Y216080D03*
D22*
X10000Y165340D02*
X10000Y156800D01*
X10000Y165340D02*
X25446Y180786D01*
X25446Y213079D01*
X28970Y216603D01*
X28970Y227000D01*
X31922Y229952D01*
X92048Y229952D02*
X95000Y227000D01*
X95000Y222350D01*
X101270Y216080D01*
X103000Y216080D01*
X92048Y229952D02*
X31922Y229952D01*
X157990Y459992D02*
X157990Y473710D01*
X157990Y459992D02*
X158242Y459740D01*
X168910Y300549D02*
X168910Y299720D01*
X168910Y300549D02*
X162000Y307459D01*
D21*
X168910Y299720D03*
D22*
X158242Y459740D02*
X134620Y459740D01*
X130810Y455930D01*
X130810Y425450D01*
X168910Y411480D02*
X175260Y405130D01*
X175260Y374650D01*
X162000Y361390D02*
X162000Y307459D01*
X144780Y411480D02*
X130810Y425450D01*
X144780Y411480D02*
X168910Y411480D01*
X175260Y374650D02*
X162000Y361390D01*
D21*
X65000Y155000D03*
D22*
X65000Y189000D01*
X76000Y200000D01*
X98920Y200000D01*
X110000Y211080D01*
X103000Y263000D02*
X61000Y263000D01*
X55000Y269000D01*
X55000Y359000D01*
X110000Y256000D02*
X110000Y211080D01*
X110000Y256000D02*
X103000Y263000D01*
D21*
X55000Y359000D03*
X48000Y153000D03*
X98000Y96000D03*
D26*
X98000Y112000D01*
D22*
X53452Y153000D02*
X48000Y153000D01*
X53452Y153000D02*
X58420Y148032D01*
X80000Y96000D02*
X98000Y96000D01*
X76000Y100000D02*
X76000Y111436D01*
X58420Y129016D02*
X58420Y148032D01*
X76000Y100000D02*
X80000Y96000D01*
X76000Y111436D02*
X58420Y129016D01*
D26*
X105380Y119380D02*
X124460Y119380D01*
X105380Y119380D02*
X98000Y112000D01*
D21*
X124460Y119380D03*
X156000Y304000D03*
X30480Y248920D03*
D26*
X21000Y258400D02*
X10000Y258400D01*
X21000Y258400D02*
X30480Y248920D01*
D22*
X90930Y459992D02*
X90930Y473710D01*
X90930Y459992D02*
X90678Y459740D01*
X90930Y473710D02*
X90680Y473960D01*
X90680Y485140D01*
X149350Y486410D02*
X149350Y473710D01*
D26*
X129540Y473710D01*
X123190Y459740D02*
X123190Y422558D01*
X123190Y459740D02*
X123190Y467360D01*
X129540Y473710D01*
X123190Y459740D02*
X90678Y459740D01*
X156210Y288290D02*
X171000Y273500D01*
X156210Y303790D02*
X156000Y304000D01*
X156210Y303790D02*
X156210Y288290D01*
X156000Y304000D02*
X156000Y389562D01*
X171000Y224570D02*
X170790Y224360D01*
X171000Y224570D02*
X171000Y273500D01*
D22*
X139192Y203962D02*
X139192Y195834D01*
X147320Y212090D02*
X161290Y212090D01*
X170790Y221590D01*
X170790Y222250D01*
X170790Y224360D01*
X147320Y212090D02*
X139192Y203962D01*
D26*
X156000Y389562D02*
X155672Y389890D01*
X156000Y389748D02*
X156000Y389562D01*
X156000Y389748D02*
X123190Y422558D01*
X170790Y222250D02*
X180340Y212700D01*
X172720Y182880D02*
X166370Y182880D01*
X172720Y182880D02*
X180340Y190500D01*
X180340Y212700D01*
D21*
X78000Y55000D03*
D22*
X82000Y59000D01*
X82000Y80000D01*
X89000Y87000D01*
X108000Y87000D01*
D21*
X108000Y87000D03*
X152000Y43000D03*
X226000Y84000D03*
D22*
X158000Y43000D02*
X152000Y43000D01*
X158000Y43000D02*
X164000Y37000D01*
X221000Y37000D01*
X226000Y42000D01*
X226000Y84000D01*
X90678Y447040D02*
X73660Y447040D01*
X69850Y450850D01*
X69850Y481330D01*
X73660Y485140D01*
X82040Y485140D01*
X158242Y434340D02*
X180340Y434340D01*
X185420Y439420D01*
X185420Y480060D01*
X179070Y486410D01*
X157990Y486410D01*
D21*
X124460Y107950D03*
X172720Y201930D03*
D26*
X163830Y202360D02*
X161290Y202360D01*
X163830Y202360D02*
X172290Y202360D01*
X172720Y201930D01*
D22*
X127254Y182626D02*
X119888Y182626D01*
X130810Y179070D02*
X130810Y175260D01*
X130810Y179070D02*
X127254Y182626D01*
D21*
X130810Y175260D03*
D26*
X138430Y160020D02*
X138430Y120650D01*
X125730Y107950D01*
X124460Y107950D01*
X153670Y175260D02*
X153670Y182880D01*
X153670Y175260D02*
X138430Y160020D01*
X153670Y182880D02*
X153670Y192200D01*
X163830Y202360D01*
D22*
X139192Y189230D02*
X119888Y189230D01*
X139192Y189230D02*
X139192Y182626D01*
D21*
X109220Y189230D03*
D22*
X119888Y189230D01*
X119888Y195834D02*
X119888Y199898D01*
X127000Y207010D02*
X137256Y207010D01*
X151790Y221544D02*
X151790Y224360D01*
X127000Y207010D02*
X119888Y199898D01*
X137256Y207010D02*
X151790Y221544D01*
X119888Y195834D02*
X105992Y195834D01*
X83732Y192952D02*
X80010Y189230D01*
X103110Y192952D02*
X105992Y195834D01*
X103110Y192952D02*
X83732Y192952D01*
D21*
X80010Y189230D03*
M02*
