G04 EAGLE Gerber RS-274X export*
G75*
%MOMM*%
%FSLAX34Y34*%
%LPD*%
%INBottom Copper*%
%IPPOS*%
%AMOC8*
5,1,8,0,0,1.08239X$1,22.5*%
G01*
%ADD10C,1.158000*%
%ADD11C,1.879600*%
%ADD12R,1.270000X2.540000*%
%ADD13R,2.286000X0.609600*%
%ADD14R,0.540000X0.600000*%
%ADD15C,0.270000*%
%ADD16R,2.368000X2.403600*%
%ADD17R,1.000000X1.400000*%
%ADD18R,1.117600X0.355600*%
%ADD19C,0.158750*%
%ADD20C,0.127000*%
%ADD21R,0.560000X0.350000*%
%ADD22R,0.200000X1.600000*%
%ADD23C,0.706400*%
%ADD24C,0.200000*%
%ADD25C,0.508000*%
%ADD26C,0.304800*%
%ADD27C,0.812800*%
%ADD28C,0.406400*%

G36*
X15978Y-13606D02*
X15978Y-13606D01*
X16073Y-13590D01*
X16104Y-13587D01*
X18149Y-13587D01*
X18170Y-13584D01*
X18217Y-13584D01*
X19097Y-13504D01*
X19105Y-13507D01*
X19156Y-13537D01*
X19218Y-13550D01*
X19278Y-13573D01*
X19373Y-13582D01*
X19395Y-13587D01*
X19405Y-13585D01*
X19425Y-13587D01*
X225089Y-13587D01*
X225166Y-13575D01*
X225244Y-13571D01*
X225286Y-13555D01*
X225330Y-13548D01*
X225353Y-13535D01*
X226334Y-13586D01*
X226347Y-13585D01*
X226373Y-13587D01*
X226551Y-13587D01*
X226563Y-13586D01*
X226584Y-13587D01*
X229698Y-13452D01*
X229730Y-13445D01*
X229763Y-13447D01*
X229907Y-13413D01*
X231643Y-12821D01*
X233842Y-12072D01*
X235965Y-11349D01*
X236025Y-11317D01*
X236090Y-11293D01*
X236158Y-11245D01*
X236180Y-11234D01*
X236189Y-11224D01*
X236211Y-11209D01*
X241070Y-7044D01*
X241114Y-6991D01*
X241165Y-6946D01*
X241211Y-6876D01*
X241227Y-6857D01*
X241232Y-6844D01*
X241246Y-6822D01*
X244212Y-1151D01*
X244223Y-1120D01*
X244240Y-1092D01*
X244283Y-950D01*
X244895Y2121D01*
X244895Y2122D01*
X244910Y2267D01*
X244910Y81956D01*
X244898Y82029D01*
X244895Y82102D01*
X244878Y82148D01*
X244870Y82197D01*
X244835Y82262D01*
X244809Y82331D01*
X244778Y82369D01*
X244755Y82412D01*
X244701Y82463D01*
X244655Y82519D01*
X244613Y82545D01*
X244577Y82579D01*
X244510Y82610D01*
X244448Y82648D01*
X244400Y82660D01*
X244355Y82680D01*
X244281Y82687D01*
X244210Y82704D01*
X244161Y82699D01*
X244112Y82704D01*
X244040Y82687D01*
X243967Y82680D01*
X243922Y82660D01*
X243874Y82649D01*
X243812Y82610D01*
X243745Y82580D01*
X243688Y82533D01*
X243667Y82520D01*
X243656Y82507D01*
X243631Y82486D01*
X243069Y81925D01*
X241549Y80820D01*
X239874Y79967D01*
X238087Y79386D01*
X236791Y79181D01*
X236791Y90281D01*
X236787Y90305D01*
X236789Y90329D01*
X236767Y90425D01*
X236751Y90521D01*
X236739Y90543D01*
X236734Y90567D01*
X236682Y90650D01*
X236636Y90737D01*
X236618Y90753D01*
X236605Y90774D01*
X236529Y90837D01*
X236458Y90904D01*
X236436Y90914D01*
X236417Y90929D01*
X236325Y90964D01*
X236236Y91004D01*
X236211Y91007D01*
X236188Y91015D01*
X236041Y91030D01*
X235291Y91030D01*
X235291Y91032D01*
X236041Y91032D01*
X236066Y91036D01*
X236090Y91033D01*
X236185Y91056D01*
X236282Y91071D01*
X236304Y91083D01*
X236328Y91089D01*
X236411Y91140D01*
X236497Y91186D01*
X236514Y91204D01*
X236535Y91217D01*
X236597Y91293D01*
X236664Y91365D01*
X236674Y91387D01*
X236690Y91406D01*
X236724Y91497D01*
X236765Y91587D01*
X236767Y91611D01*
X236776Y91634D01*
X236791Y91781D01*
X236791Y102881D01*
X238087Y102676D01*
X239874Y102095D01*
X241549Y101242D01*
X243069Y100137D01*
X243631Y99576D01*
X243690Y99533D01*
X243744Y99483D01*
X243789Y99462D01*
X243829Y99433D01*
X243899Y99412D01*
X243966Y99382D01*
X244015Y99377D01*
X244062Y99363D01*
X244136Y99365D01*
X244209Y99358D01*
X244257Y99369D01*
X244306Y99370D01*
X244375Y99396D01*
X244447Y99413D01*
X244489Y99439D01*
X244535Y99456D01*
X244591Y99503D01*
X244654Y99542D01*
X244685Y99580D01*
X244723Y99611D01*
X244762Y99673D01*
X244809Y99730D01*
X244826Y99776D01*
X244852Y99818D01*
X244869Y99890D01*
X244895Y99958D01*
X244902Y100032D01*
X244908Y100056D01*
X244906Y100072D01*
X244910Y100105D01*
X244910Y108793D01*
X244898Y108866D01*
X244895Y108939D01*
X244878Y108985D01*
X244870Y109034D01*
X244835Y109099D01*
X244810Y109168D01*
X244778Y109206D01*
X244755Y109249D01*
X244701Y109299D01*
X244655Y109356D01*
X244613Y109382D01*
X244577Y109416D01*
X244510Y109446D01*
X244448Y109485D01*
X244400Y109496D01*
X244355Y109517D01*
X244281Y109524D01*
X244210Y109541D01*
X244161Y109536D01*
X244112Y109541D01*
X244040Y109524D01*
X243967Y109517D01*
X243922Y109497D01*
X243874Y109486D01*
X243812Y109447D01*
X243745Y109417D01*
X243688Y109370D01*
X243667Y109357D01*
X243656Y109344D01*
X243631Y109323D01*
X241479Y107171D01*
X237464Y105508D01*
X233119Y105508D01*
X231459Y106196D01*
X231344Y106223D01*
X231222Y106251D01*
X231221Y106251D01*
X231090Y106238D01*
X230979Y106227D01*
X230978Y106227D01*
X230860Y106174D01*
X230757Y106127D01*
X230756Y106127D01*
X230755Y106126D01*
X230642Y106033D01*
X229056Y104447D01*
X227175Y102566D01*
X222941Y102566D01*
X222844Y102550D01*
X222747Y102541D01*
X222725Y102531D01*
X222700Y102526D01*
X222614Y102480D01*
X222525Y102440D01*
X222499Y102419D01*
X222485Y102411D01*
X222468Y102393D01*
X222411Y102347D01*
X221957Y101893D01*
X219903Y101042D01*
X169517Y101042D01*
X169420Y101026D01*
X169323Y101017D01*
X169301Y101007D01*
X169276Y101002D01*
X169190Y100956D01*
X169101Y100916D01*
X169075Y100895D01*
X169061Y100887D01*
X169046Y100871D01*
X169043Y100870D01*
X169039Y100865D01*
X168987Y100823D01*
X163100Y94935D01*
X163043Y94856D01*
X162981Y94781D01*
X162972Y94757D01*
X162957Y94737D01*
X162929Y94644D01*
X162895Y94553D01*
X162891Y94520D01*
X162887Y94504D01*
X162887Y94479D01*
X162880Y94406D01*
X162880Y67919D01*
X162029Y65865D01*
X160457Y64293D01*
X158403Y63442D01*
X156180Y63442D01*
X154126Y64293D01*
X152554Y65865D01*
X151703Y67919D01*
X151703Y98143D01*
X152554Y100197D01*
X163726Y111369D01*
X165780Y112220D01*
X207377Y112220D01*
X207402Y112224D01*
X207426Y112221D01*
X207521Y112243D01*
X207618Y112259D01*
X207640Y112271D01*
X207664Y112276D01*
X207747Y112328D01*
X207833Y112374D01*
X207850Y112392D01*
X207871Y112405D01*
X207933Y112481D01*
X208000Y112552D01*
X208010Y112575D01*
X208026Y112594D01*
X208061Y112685D01*
X208101Y112775D01*
X208103Y112799D01*
X208112Y112822D01*
X208127Y112969D01*
X208127Y132115D01*
X210927Y134915D01*
X210988Y134921D01*
X211011Y134931D01*
X211035Y134935D01*
X211121Y134981D01*
X211210Y135021D01*
X211236Y135042D01*
X211250Y135050D01*
X211267Y135068D01*
X211291Y135088D01*
X215486Y135088D01*
X216475Y134099D01*
X216554Y134042D01*
X216629Y133980D01*
X216653Y133972D01*
X216673Y133957D01*
X216766Y133929D01*
X216857Y133894D01*
X216890Y133891D01*
X216906Y133886D01*
X216931Y133887D01*
X217004Y133880D01*
X217079Y133880D01*
X217175Y133896D01*
X217272Y133905D01*
X217295Y133915D01*
X217319Y133919D01*
X217405Y133965D01*
X217494Y134005D01*
X217520Y134026D01*
X217534Y134034D01*
X217551Y134052D01*
X217608Y134099D01*
X218697Y135188D01*
X222886Y135188D01*
X225848Y132225D01*
X225848Y131933D01*
X225864Y131837D01*
X225874Y131740D01*
X225884Y131717D01*
X225888Y131692D01*
X225934Y131606D01*
X225974Y131517D01*
X225995Y131492D01*
X226003Y131477D01*
X226021Y131460D01*
X226068Y131403D01*
X230642Y126828D01*
X230753Y126749D01*
X230840Y126687D01*
X230840Y126686D01*
X230841Y126686D01*
X230951Y126653D01*
X231074Y126615D01*
X231199Y126619D01*
X231317Y126623D01*
X231318Y126623D01*
X231319Y126624D01*
X231459Y126666D01*
X233119Y127354D01*
X237464Y127354D01*
X241479Y125691D01*
X243631Y123539D01*
X243690Y123496D01*
X243744Y123446D01*
X243789Y123425D01*
X243829Y123397D01*
X243899Y123375D01*
X243966Y123345D01*
X244015Y123340D01*
X244062Y123326D01*
X244136Y123328D01*
X244209Y123321D01*
X244257Y123332D01*
X244306Y123334D01*
X244375Y123359D01*
X244447Y123376D01*
X244489Y123402D01*
X244535Y123419D01*
X244592Y123466D01*
X244654Y123505D01*
X244685Y123543D01*
X244723Y123574D01*
X244762Y123637D01*
X244809Y123693D01*
X244826Y123739D01*
X244852Y123781D01*
X244869Y123853D01*
X244895Y123922D01*
X244902Y123995D01*
X244908Y124019D01*
X244906Y124035D01*
X244910Y124069D01*
X244910Y134193D01*
X244898Y134266D01*
X244895Y134339D01*
X244878Y134385D01*
X244870Y134434D01*
X244835Y134499D01*
X244810Y134568D01*
X244778Y134606D01*
X244755Y134649D01*
X244701Y134699D01*
X244655Y134756D01*
X244613Y134782D01*
X244577Y134816D01*
X244510Y134846D01*
X244448Y134885D01*
X244400Y134896D01*
X244355Y134917D01*
X244281Y134924D01*
X244210Y134941D01*
X244161Y134936D01*
X244112Y134941D01*
X244040Y134924D01*
X243967Y134917D01*
X243922Y134897D01*
X243874Y134886D01*
X243812Y134847D01*
X243745Y134817D01*
X243688Y134770D01*
X243667Y134757D01*
X243656Y134744D01*
X243631Y134723D01*
X241479Y132571D01*
X237464Y130908D01*
X233119Y130908D01*
X229104Y132571D01*
X226032Y135644D01*
X224369Y139658D01*
X224369Y144004D01*
X226032Y148018D01*
X229104Y151091D01*
X233119Y152754D01*
X237464Y152754D01*
X241479Y151091D01*
X243631Y148939D01*
X243690Y148896D01*
X243744Y148846D01*
X243789Y148825D01*
X243829Y148797D01*
X243899Y148775D01*
X243966Y148745D01*
X244015Y148740D01*
X244062Y148726D01*
X244136Y148728D01*
X244209Y148721D01*
X244257Y148732D01*
X244306Y148734D01*
X244375Y148759D01*
X244447Y148776D01*
X244489Y148802D01*
X244535Y148819D01*
X244592Y148866D01*
X244654Y148905D01*
X244685Y148943D01*
X244723Y148974D01*
X244762Y149037D01*
X244809Y149093D01*
X244826Y149139D01*
X244852Y149181D01*
X244869Y149253D01*
X244895Y149322D01*
X244902Y149395D01*
X244908Y149419D01*
X244906Y149435D01*
X244910Y149469D01*
X244910Y159593D01*
X244898Y159666D01*
X244895Y159739D01*
X244878Y159785D01*
X244870Y159834D01*
X244835Y159899D01*
X244810Y159968D01*
X244778Y160006D01*
X244755Y160049D01*
X244701Y160099D01*
X244655Y160156D01*
X244613Y160182D01*
X244577Y160216D01*
X244510Y160246D01*
X244448Y160285D01*
X244400Y160296D01*
X244355Y160317D01*
X244281Y160324D01*
X244210Y160341D01*
X244161Y160336D01*
X244112Y160341D01*
X244040Y160324D01*
X243967Y160317D01*
X243922Y160297D01*
X243874Y160286D01*
X243812Y160247D01*
X243745Y160217D01*
X243688Y160170D01*
X243667Y160157D01*
X243656Y160144D01*
X243631Y160123D01*
X241479Y157971D01*
X237464Y156308D01*
X233119Y156308D01*
X229104Y157971D01*
X226032Y161044D01*
X224369Y165058D01*
X224369Y169404D01*
X226032Y173418D01*
X229104Y176491D01*
X233119Y178154D01*
X237464Y178154D01*
X241479Y176491D01*
X243631Y174339D01*
X243690Y174296D01*
X243744Y174246D01*
X243789Y174225D01*
X243829Y174197D01*
X243899Y174175D01*
X243966Y174145D01*
X244015Y174140D01*
X244062Y174126D01*
X244136Y174128D01*
X244209Y174121D01*
X244257Y174132D01*
X244306Y174134D01*
X244375Y174159D01*
X244447Y174176D01*
X244489Y174202D01*
X244535Y174219D01*
X244592Y174266D01*
X244654Y174305D01*
X244685Y174343D01*
X244723Y174374D01*
X244762Y174437D01*
X244809Y174493D01*
X244826Y174539D01*
X244852Y174581D01*
X244869Y174653D01*
X244895Y174722D01*
X244902Y174795D01*
X244908Y174819D01*
X244906Y174835D01*
X244910Y174869D01*
X244910Y184993D01*
X244898Y185066D01*
X244895Y185139D01*
X244878Y185185D01*
X244870Y185234D01*
X244835Y185299D01*
X244810Y185368D01*
X244778Y185406D01*
X244755Y185449D01*
X244701Y185499D01*
X244655Y185556D01*
X244613Y185582D01*
X244577Y185616D01*
X244510Y185646D01*
X244448Y185685D01*
X244400Y185696D01*
X244355Y185717D01*
X244281Y185724D01*
X244210Y185741D01*
X244161Y185736D01*
X244112Y185741D01*
X244040Y185724D01*
X243967Y185717D01*
X243922Y185697D01*
X243874Y185686D01*
X243812Y185647D01*
X243745Y185617D01*
X243688Y185570D01*
X243667Y185557D01*
X243656Y185544D01*
X243631Y185523D01*
X241479Y183371D01*
X237464Y181708D01*
X233119Y181708D01*
X229104Y183371D01*
X226032Y186444D01*
X224369Y190458D01*
X224369Y194804D01*
X226032Y198818D01*
X229104Y201891D01*
X233119Y203554D01*
X237464Y203554D01*
X241479Y201891D01*
X243631Y199739D01*
X243690Y199696D01*
X243744Y199646D01*
X243789Y199625D01*
X243829Y199597D01*
X243899Y199575D01*
X243966Y199545D01*
X244015Y199540D01*
X244062Y199526D01*
X244136Y199528D01*
X244209Y199521D01*
X244257Y199532D01*
X244306Y199534D01*
X244375Y199559D01*
X244447Y199576D01*
X244489Y199602D01*
X244535Y199619D01*
X244592Y199666D01*
X244654Y199705D01*
X244685Y199743D01*
X244723Y199774D01*
X244762Y199837D01*
X244809Y199893D01*
X244826Y199939D01*
X244852Y199981D01*
X244869Y200053D01*
X244895Y200122D01*
X244902Y200195D01*
X244908Y200219D01*
X244906Y200235D01*
X244910Y200269D01*
X244910Y210393D01*
X244898Y210466D01*
X244895Y210539D01*
X244878Y210585D01*
X244870Y210634D01*
X244835Y210699D01*
X244810Y210768D01*
X244778Y210806D01*
X244755Y210849D01*
X244701Y210899D01*
X244655Y210956D01*
X244613Y210982D01*
X244577Y211016D01*
X244510Y211046D01*
X244448Y211085D01*
X244400Y211096D01*
X244355Y211117D01*
X244281Y211124D01*
X244210Y211141D01*
X244161Y211136D01*
X244112Y211141D01*
X244040Y211124D01*
X243967Y211117D01*
X243922Y211097D01*
X243874Y211086D01*
X243812Y211047D01*
X243745Y211017D01*
X243688Y210970D01*
X243667Y210957D01*
X243656Y210944D01*
X243631Y210923D01*
X241479Y208771D01*
X237464Y207108D01*
X233119Y207108D01*
X229104Y208771D01*
X226032Y211844D01*
X224369Y215858D01*
X224369Y220204D01*
X226032Y224218D01*
X229104Y227291D01*
X233119Y228954D01*
X237464Y228954D01*
X241479Y227291D01*
X243631Y225139D01*
X243690Y225096D01*
X243744Y225046D01*
X243789Y225025D01*
X243829Y224997D01*
X243899Y224975D01*
X243966Y224945D01*
X244015Y224940D01*
X244062Y224926D01*
X244136Y224928D01*
X244209Y224921D01*
X244257Y224932D01*
X244306Y224934D01*
X244375Y224959D01*
X244447Y224976D01*
X244489Y225002D01*
X244535Y225019D01*
X244592Y225066D01*
X244654Y225105D01*
X244685Y225143D01*
X244723Y225174D01*
X244762Y225237D01*
X244809Y225293D01*
X244826Y225339D01*
X244852Y225381D01*
X244869Y225453D01*
X244895Y225522D01*
X244902Y225595D01*
X244908Y225619D01*
X244906Y225635D01*
X244910Y225669D01*
X244910Y235793D01*
X244898Y235866D01*
X244895Y235939D01*
X244878Y235985D01*
X244870Y236034D01*
X244835Y236099D01*
X244810Y236168D01*
X244778Y236206D01*
X244755Y236249D01*
X244701Y236299D01*
X244655Y236356D01*
X244613Y236382D01*
X244577Y236416D01*
X244510Y236446D01*
X244448Y236485D01*
X244400Y236496D01*
X244355Y236517D01*
X244281Y236524D01*
X244210Y236541D01*
X244161Y236536D01*
X244112Y236541D01*
X244040Y236524D01*
X243967Y236517D01*
X243922Y236497D01*
X243874Y236486D01*
X243812Y236447D01*
X243745Y236417D01*
X243688Y236370D01*
X243667Y236357D01*
X243656Y236344D01*
X243631Y236323D01*
X241479Y234171D01*
X237464Y232508D01*
X233119Y232508D01*
X229104Y234171D01*
X226032Y237244D01*
X224369Y241258D01*
X224369Y245604D01*
X226032Y249618D01*
X229104Y252691D01*
X233119Y254354D01*
X237464Y254354D01*
X241479Y252691D01*
X243631Y250539D01*
X243690Y250496D01*
X243744Y250446D01*
X243789Y250425D01*
X243829Y250397D01*
X243899Y250375D01*
X243966Y250345D01*
X244015Y250340D01*
X244062Y250326D01*
X244136Y250328D01*
X244209Y250321D01*
X244257Y250332D01*
X244306Y250334D01*
X244375Y250359D01*
X244447Y250376D01*
X244489Y250402D01*
X244535Y250419D01*
X244592Y250466D01*
X244654Y250505D01*
X244685Y250543D01*
X244723Y250574D01*
X244762Y250637D01*
X244809Y250693D01*
X244826Y250739D01*
X244852Y250781D01*
X244869Y250853D01*
X244895Y250922D01*
X244902Y250995D01*
X244908Y251019D01*
X244906Y251035D01*
X244910Y251069D01*
X244910Y261193D01*
X244898Y261266D01*
X244895Y261339D01*
X244878Y261385D01*
X244870Y261434D01*
X244835Y261499D01*
X244810Y261568D01*
X244778Y261606D01*
X244755Y261649D01*
X244701Y261699D01*
X244655Y261756D01*
X244613Y261782D01*
X244577Y261816D01*
X244510Y261846D01*
X244448Y261885D01*
X244400Y261896D01*
X244355Y261917D01*
X244281Y261924D01*
X244210Y261941D01*
X244161Y261936D01*
X244112Y261941D01*
X244040Y261924D01*
X243967Y261917D01*
X243922Y261897D01*
X243874Y261886D01*
X243812Y261847D01*
X243745Y261817D01*
X243688Y261770D01*
X243667Y261757D01*
X243656Y261744D01*
X243631Y261723D01*
X241479Y259571D01*
X237464Y257908D01*
X233119Y257908D01*
X229104Y259571D01*
X226032Y262644D01*
X224369Y266658D01*
X224369Y271004D01*
X226032Y275018D01*
X229104Y278091D01*
X233119Y279754D01*
X237464Y279754D01*
X241479Y278091D01*
X243631Y275939D01*
X243690Y275896D01*
X243744Y275846D01*
X243789Y275825D01*
X243829Y275797D01*
X243899Y275775D01*
X243966Y275745D01*
X244015Y275740D01*
X244062Y275726D01*
X244136Y275728D01*
X244209Y275721D01*
X244257Y275732D01*
X244306Y275734D01*
X244375Y275759D01*
X244447Y275776D01*
X244489Y275802D01*
X244535Y275819D01*
X244592Y275866D01*
X244654Y275905D01*
X244685Y275943D01*
X244723Y275974D01*
X244762Y276037D01*
X244809Y276093D01*
X244826Y276139D01*
X244852Y276181D01*
X244869Y276253D01*
X244895Y276322D01*
X244902Y276395D01*
X244908Y276419D01*
X244906Y276435D01*
X244910Y276469D01*
X244910Y286593D01*
X244898Y286666D01*
X244895Y286739D01*
X244878Y286785D01*
X244870Y286834D01*
X244835Y286899D01*
X244810Y286968D01*
X244778Y287006D01*
X244755Y287049D01*
X244701Y287099D01*
X244655Y287156D01*
X244613Y287182D01*
X244577Y287216D01*
X244510Y287246D01*
X244448Y287285D01*
X244400Y287296D01*
X244355Y287317D01*
X244281Y287324D01*
X244210Y287341D01*
X244161Y287336D01*
X244112Y287341D01*
X244040Y287324D01*
X243967Y287317D01*
X243922Y287297D01*
X243874Y287286D01*
X243812Y287247D01*
X243745Y287217D01*
X243688Y287170D01*
X243667Y287157D01*
X243656Y287144D01*
X243631Y287123D01*
X241479Y284971D01*
X237464Y283308D01*
X233119Y283308D01*
X229104Y284971D01*
X226032Y288044D01*
X224369Y292058D01*
X224369Y296404D01*
X226032Y300418D01*
X229104Y303491D01*
X233119Y305154D01*
X237464Y305154D01*
X241479Y303491D01*
X243631Y301339D01*
X243690Y301296D01*
X243744Y301246D01*
X243789Y301225D01*
X243829Y301197D01*
X243899Y301175D01*
X243966Y301145D01*
X244015Y301140D01*
X244062Y301126D01*
X244136Y301128D01*
X244209Y301121D01*
X244257Y301132D01*
X244306Y301134D01*
X244375Y301159D01*
X244447Y301176D01*
X244489Y301202D01*
X244535Y301219D01*
X244592Y301266D01*
X244654Y301305D01*
X244685Y301343D01*
X244723Y301374D01*
X244762Y301437D01*
X244809Y301493D01*
X244826Y301539D01*
X244852Y301581D01*
X244869Y301653D01*
X244895Y301722D01*
X244902Y301795D01*
X244908Y301819D01*
X244906Y301835D01*
X244910Y301869D01*
X244910Y311993D01*
X244898Y312066D01*
X244895Y312139D01*
X244878Y312185D01*
X244870Y312234D01*
X244835Y312299D01*
X244810Y312368D01*
X244778Y312406D01*
X244755Y312449D01*
X244701Y312499D01*
X244655Y312556D01*
X244613Y312582D01*
X244577Y312616D01*
X244510Y312646D01*
X244448Y312685D01*
X244400Y312696D01*
X244355Y312717D01*
X244281Y312724D01*
X244210Y312741D01*
X244161Y312736D01*
X244112Y312741D01*
X244040Y312724D01*
X243967Y312717D01*
X243922Y312697D01*
X243874Y312686D01*
X243812Y312647D01*
X243745Y312617D01*
X243688Y312570D01*
X243667Y312557D01*
X243656Y312544D01*
X243631Y312523D01*
X241479Y310371D01*
X237464Y308708D01*
X233119Y308708D01*
X229104Y310371D01*
X226032Y313444D01*
X224369Y317458D01*
X224369Y321804D01*
X226032Y325818D01*
X229104Y328891D01*
X233119Y330554D01*
X237464Y330554D01*
X241479Y328891D01*
X243631Y326739D01*
X243690Y326696D01*
X243744Y326646D01*
X243789Y326625D01*
X243829Y326597D01*
X243899Y326575D01*
X243966Y326545D01*
X244015Y326540D01*
X244062Y326526D01*
X244136Y326528D01*
X244209Y326521D01*
X244257Y326532D01*
X244306Y326534D01*
X244375Y326559D01*
X244447Y326576D01*
X244489Y326602D01*
X244535Y326619D01*
X244592Y326666D01*
X244654Y326705D01*
X244685Y326743D01*
X244723Y326774D01*
X244762Y326837D01*
X244809Y326893D01*
X244826Y326939D01*
X244852Y326981D01*
X244869Y327053D01*
X244895Y327122D01*
X244902Y327195D01*
X244908Y327219D01*
X244906Y327235D01*
X244910Y327269D01*
X244910Y337393D01*
X244898Y337466D01*
X244895Y337539D01*
X244878Y337585D01*
X244870Y337634D01*
X244835Y337699D01*
X244810Y337768D01*
X244778Y337806D01*
X244755Y337849D01*
X244701Y337899D01*
X244655Y337956D01*
X244613Y337982D01*
X244577Y338016D01*
X244510Y338046D01*
X244448Y338085D01*
X244400Y338096D01*
X244355Y338117D01*
X244281Y338124D01*
X244210Y338141D01*
X244161Y338136D01*
X244112Y338141D01*
X244040Y338124D01*
X243967Y338117D01*
X243922Y338097D01*
X243874Y338086D01*
X243812Y338047D01*
X243745Y338017D01*
X243688Y337970D01*
X243667Y337957D01*
X243656Y337944D01*
X243631Y337923D01*
X241479Y335771D01*
X237464Y334108D01*
X233119Y334108D01*
X229104Y335771D01*
X226032Y338844D01*
X224369Y342858D01*
X224369Y347204D01*
X226032Y351218D01*
X229104Y354291D01*
X233119Y355954D01*
X237464Y355954D01*
X241479Y354291D01*
X243631Y352139D01*
X243690Y352096D01*
X243744Y352046D01*
X243789Y352025D01*
X243829Y351997D01*
X243899Y351975D01*
X243966Y351945D01*
X244015Y351940D01*
X244062Y351926D01*
X244136Y351928D01*
X244209Y351921D01*
X244257Y351932D01*
X244306Y351934D01*
X244375Y351959D01*
X244447Y351976D01*
X244489Y352002D01*
X244535Y352019D01*
X244592Y352066D01*
X244654Y352105D01*
X244685Y352143D01*
X244723Y352174D01*
X244762Y352237D01*
X244809Y352293D01*
X244826Y352339D01*
X244852Y352381D01*
X244869Y352453D01*
X244895Y352522D01*
X244902Y352595D01*
X244908Y352619D01*
X244906Y352635D01*
X244910Y352669D01*
X244910Y362793D01*
X244898Y362866D01*
X244895Y362939D01*
X244878Y362985D01*
X244870Y363034D01*
X244835Y363099D01*
X244810Y363168D01*
X244778Y363206D01*
X244755Y363249D01*
X244701Y363299D01*
X244655Y363356D01*
X244613Y363382D01*
X244577Y363416D01*
X244510Y363446D01*
X244448Y363485D01*
X244400Y363496D01*
X244355Y363517D01*
X244281Y363524D01*
X244210Y363541D01*
X244161Y363536D01*
X244112Y363541D01*
X244040Y363524D01*
X243967Y363517D01*
X243922Y363497D01*
X243874Y363486D01*
X243812Y363447D01*
X243745Y363417D01*
X243688Y363370D01*
X243667Y363357D01*
X243656Y363344D01*
X243631Y363323D01*
X241479Y361171D01*
X237464Y359508D01*
X233119Y359508D01*
X229104Y361171D01*
X226032Y364244D01*
X224369Y368258D01*
X224369Y372604D01*
X226032Y376618D01*
X229104Y379691D01*
X233119Y381354D01*
X237464Y381354D01*
X241479Y379691D01*
X243631Y377539D01*
X243690Y377496D01*
X243744Y377446D01*
X243789Y377425D01*
X243829Y377397D01*
X243899Y377375D01*
X243966Y377345D01*
X244015Y377340D01*
X244062Y377326D01*
X244136Y377328D01*
X244209Y377321D01*
X244257Y377332D01*
X244306Y377334D01*
X244375Y377359D01*
X244447Y377376D01*
X244489Y377402D01*
X244535Y377419D01*
X244592Y377466D01*
X244654Y377505D01*
X244685Y377543D01*
X244723Y377574D01*
X244762Y377637D01*
X244809Y377693D01*
X244826Y377739D01*
X244852Y377781D01*
X244869Y377853D01*
X244895Y377922D01*
X244902Y377995D01*
X244908Y378019D01*
X244906Y378035D01*
X244910Y378069D01*
X244910Y388193D01*
X244898Y388266D01*
X244895Y388339D01*
X244878Y388385D01*
X244870Y388434D01*
X244835Y388499D01*
X244810Y388568D01*
X244778Y388606D01*
X244755Y388649D01*
X244701Y388699D01*
X244655Y388756D01*
X244613Y388782D01*
X244577Y388816D01*
X244510Y388846D01*
X244448Y388885D01*
X244400Y388896D01*
X244355Y388917D01*
X244281Y388924D01*
X244210Y388941D01*
X244161Y388936D01*
X244112Y388941D01*
X244040Y388924D01*
X243967Y388917D01*
X243922Y388897D01*
X243874Y388886D01*
X243812Y388847D01*
X243745Y388817D01*
X243688Y388770D01*
X243667Y388757D01*
X243656Y388744D01*
X243631Y388723D01*
X241479Y386571D01*
X237464Y384908D01*
X233119Y384908D01*
X229104Y386571D01*
X226032Y389644D01*
X224369Y393658D01*
X224369Y398004D01*
X226032Y402018D01*
X229104Y405091D01*
X233119Y406754D01*
X237464Y406754D01*
X241479Y405091D01*
X243631Y402939D01*
X243690Y402896D01*
X243744Y402846D01*
X243789Y402825D01*
X243829Y402797D01*
X243899Y402775D01*
X243966Y402745D01*
X244015Y402740D01*
X244062Y402726D01*
X244136Y402728D01*
X244209Y402721D01*
X244257Y402732D01*
X244306Y402734D01*
X244375Y402759D01*
X244447Y402776D01*
X244489Y402802D01*
X244535Y402819D01*
X244592Y402866D01*
X244654Y402905D01*
X244685Y402943D01*
X244723Y402974D01*
X244762Y403037D01*
X244809Y403093D01*
X244826Y403139D01*
X244852Y403181D01*
X244869Y403253D01*
X244895Y403322D01*
X244902Y403395D01*
X244908Y403419D01*
X244906Y403435D01*
X244910Y403469D01*
X244910Y413593D01*
X244898Y413666D01*
X244895Y413739D01*
X244878Y413785D01*
X244870Y413834D01*
X244835Y413899D01*
X244810Y413968D01*
X244778Y414006D01*
X244755Y414049D01*
X244701Y414099D01*
X244655Y414156D01*
X244613Y414182D01*
X244577Y414216D01*
X244510Y414246D01*
X244448Y414285D01*
X244400Y414296D01*
X244355Y414317D01*
X244281Y414324D01*
X244210Y414341D01*
X244161Y414336D01*
X244112Y414341D01*
X244040Y414324D01*
X243967Y414317D01*
X243922Y414297D01*
X243874Y414286D01*
X243812Y414247D01*
X243745Y414217D01*
X243688Y414170D01*
X243667Y414157D01*
X243656Y414144D01*
X243631Y414123D01*
X241479Y411971D01*
X237464Y410308D01*
X233119Y410308D01*
X229104Y411971D01*
X226032Y415044D01*
X224369Y419058D01*
X224369Y423404D01*
X226032Y427418D01*
X229104Y430491D01*
X233119Y432154D01*
X237464Y432154D01*
X241479Y430491D01*
X243631Y428339D01*
X243690Y428296D01*
X243744Y428246D01*
X243789Y428225D01*
X243829Y428197D01*
X243899Y428175D01*
X243966Y428145D01*
X244015Y428140D01*
X244062Y428126D01*
X244136Y428128D01*
X244209Y428121D01*
X244257Y428132D01*
X244306Y428134D01*
X244375Y428159D01*
X244447Y428176D01*
X244489Y428202D01*
X244535Y428219D01*
X244592Y428266D01*
X244654Y428305D01*
X244685Y428343D01*
X244723Y428374D01*
X244762Y428437D01*
X244809Y428493D01*
X244826Y428539D01*
X244852Y428581D01*
X244869Y428653D01*
X244895Y428722D01*
X244902Y428795D01*
X244908Y428819D01*
X244906Y428835D01*
X244910Y428869D01*
X244910Y438993D01*
X244898Y439066D01*
X244895Y439139D01*
X244878Y439185D01*
X244870Y439234D01*
X244835Y439299D01*
X244810Y439368D01*
X244778Y439406D01*
X244755Y439449D01*
X244701Y439499D01*
X244655Y439556D01*
X244613Y439582D01*
X244577Y439616D01*
X244510Y439646D01*
X244448Y439685D01*
X244400Y439696D01*
X244355Y439717D01*
X244281Y439724D01*
X244210Y439741D01*
X244161Y439736D01*
X244112Y439741D01*
X244040Y439724D01*
X243967Y439717D01*
X243922Y439697D01*
X243874Y439686D01*
X243812Y439647D01*
X243745Y439617D01*
X243688Y439570D01*
X243667Y439557D01*
X243656Y439544D01*
X243631Y439523D01*
X241479Y437371D01*
X237464Y435708D01*
X233119Y435708D01*
X229104Y437371D01*
X226032Y440444D01*
X224369Y444458D01*
X224369Y448804D01*
X226032Y452818D01*
X229104Y455891D01*
X233119Y457554D01*
X237464Y457554D01*
X241479Y455891D01*
X243631Y453739D01*
X243690Y453696D01*
X243744Y453646D01*
X243789Y453625D01*
X243829Y453597D01*
X243899Y453575D01*
X243966Y453545D01*
X244015Y453540D01*
X244062Y453526D01*
X244136Y453528D01*
X244209Y453521D01*
X244257Y453532D01*
X244306Y453534D01*
X244375Y453559D01*
X244447Y453576D01*
X244489Y453602D01*
X244535Y453619D01*
X244592Y453666D01*
X244654Y453705D01*
X244685Y453743D01*
X244723Y453774D01*
X244762Y453837D01*
X244809Y453893D01*
X244826Y453939D01*
X244852Y453981D01*
X244869Y454053D01*
X244895Y454122D01*
X244902Y454195D01*
X244908Y454219D01*
X244906Y454235D01*
X244910Y454269D01*
X244910Y464393D01*
X244898Y464466D01*
X244895Y464539D01*
X244878Y464585D01*
X244870Y464634D01*
X244835Y464699D01*
X244810Y464768D01*
X244778Y464806D01*
X244755Y464849D01*
X244701Y464899D01*
X244655Y464956D01*
X244613Y464982D01*
X244577Y465016D01*
X244510Y465046D01*
X244448Y465085D01*
X244400Y465096D01*
X244355Y465117D01*
X244281Y465124D01*
X244210Y465141D01*
X244161Y465136D01*
X244112Y465141D01*
X244040Y465124D01*
X243967Y465117D01*
X243922Y465097D01*
X243874Y465086D01*
X243812Y465047D01*
X243745Y465017D01*
X243688Y464970D01*
X243667Y464957D01*
X243656Y464944D01*
X243631Y464923D01*
X241479Y462771D01*
X237464Y461108D01*
X233119Y461108D01*
X229104Y462771D01*
X226032Y465844D01*
X224369Y469858D01*
X224369Y474204D01*
X226032Y478218D01*
X229104Y481291D01*
X233119Y482954D01*
X237464Y482954D01*
X241479Y481291D01*
X243631Y479139D01*
X243690Y479096D01*
X243744Y479046D01*
X243789Y479025D01*
X243829Y478997D01*
X243899Y478975D01*
X243966Y478945D01*
X244015Y478940D01*
X244062Y478926D01*
X244136Y478928D01*
X244209Y478921D01*
X244257Y478932D01*
X244306Y478934D01*
X244375Y478959D01*
X244447Y478976D01*
X244489Y479002D01*
X244535Y479019D01*
X244592Y479066D01*
X244654Y479105D01*
X244685Y479143D01*
X244723Y479174D01*
X244762Y479237D01*
X244809Y479293D01*
X244826Y479339D01*
X244852Y479381D01*
X244869Y479453D01*
X244895Y479522D01*
X244902Y479595D01*
X244908Y479619D01*
X244906Y479635D01*
X244910Y479669D01*
X244910Y495761D01*
X244906Y495785D01*
X244908Y495809D01*
X244886Y495905D01*
X244870Y496002D01*
X244858Y496023D01*
X244853Y496047D01*
X244801Y496130D01*
X244755Y496217D01*
X244737Y496234D01*
X244724Y496254D01*
X244648Y496317D01*
X244577Y496384D01*
X244555Y496394D01*
X244536Y496409D01*
X244444Y496444D01*
X244355Y496485D01*
X244330Y496487D01*
X244307Y496496D01*
X244160Y496510D01*
X209882Y496510D01*
X209858Y496506D01*
X209834Y496509D01*
X209738Y496486D01*
X209642Y496470D01*
X209620Y496459D01*
X209596Y496453D01*
X209513Y496402D01*
X209426Y496355D01*
X209410Y496338D01*
X209389Y496325D01*
X209327Y496249D01*
X209260Y496177D01*
X209254Y496165D01*
X207738Y494649D01*
X33575Y494649D01*
X32045Y496179D01*
X32025Y496217D01*
X32007Y496234D01*
X31994Y496254D01*
X31918Y496317D01*
X31847Y496384D01*
X31825Y496394D01*
X31806Y496409D01*
X31714Y496444D01*
X31625Y496485D01*
X31600Y496487D01*
X31577Y496496D01*
X31430Y496510D01*
X-2578Y496510D01*
X-2602Y496506D01*
X-2626Y496509D01*
X-2722Y496486D01*
X-2818Y496470D01*
X-2840Y496459D01*
X-2864Y496453D01*
X-2947Y496402D01*
X-3034Y496355D01*
X-3050Y496338D01*
X-3071Y496325D01*
X-3133Y496249D01*
X-3200Y496177D01*
X-3211Y496155D01*
X-3226Y496136D01*
X-3261Y496044D01*
X-3301Y495955D01*
X-3304Y495931D01*
X-3312Y495908D01*
X-3327Y495761D01*
X-3327Y479669D01*
X-3315Y479596D01*
X-3312Y479523D01*
X-3295Y479476D01*
X-3287Y479428D01*
X-3252Y479363D01*
X-3227Y479294D01*
X-3195Y479256D01*
X-3172Y479213D01*
X-3119Y479162D01*
X-3072Y479105D01*
X-3030Y479079D01*
X-2994Y479046D01*
X-2927Y479015D01*
X-2865Y478977D01*
X-2817Y478965D01*
X-2772Y478945D01*
X-2699Y478938D01*
X-2627Y478921D01*
X-2578Y478926D01*
X-2529Y478921D01*
X-2457Y478937D01*
X-2384Y478945D01*
X-2339Y478965D01*
X-2291Y478976D01*
X-2229Y479015D01*
X-2162Y479045D01*
X-2105Y479092D01*
X-2084Y479105D01*
X-2073Y479118D01*
X-2048Y479139D01*
X104Y481291D01*
X4119Y482954D01*
X8464Y482954D01*
X12479Y481291D01*
X15551Y478218D01*
X17214Y474204D01*
X17214Y469858D01*
X15551Y465844D01*
X12479Y462771D01*
X8464Y461108D01*
X4119Y461108D01*
X104Y462771D01*
X-2048Y464923D01*
X-2107Y464966D01*
X-2161Y465016D01*
X-2206Y465036D01*
X-2246Y465065D01*
X-2316Y465087D01*
X-2383Y465117D01*
X-2432Y465122D01*
X-2480Y465136D01*
X-2553Y465134D01*
X-2626Y465141D01*
X-2674Y465130D01*
X-2723Y465128D01*
X-2792Y465102D01*
X-2864Y465086D01*
X-2906Y465060D01*
X-2952Y465042D01*
X-3009Y464996D01*
X-3071Y464957D01*
X-3102Y464919D01*
X-3141Y464888D01*
X-3179Y464825D01*
X-3226Y464768D01*
X-3243Y464722D01*
X-3270Y464680D01*
X-3286Y464609D01*
X-3312Y464540D01*
X-3320Y464467D01*
X-3325Y464443D01*
X-3324Y464426D01*
X-3327Y464393D01*
X-3327Y454269D01*
X-3315Y454196D01*
X-3312Y454123D01*
X-3295Y454076D01*
X-3287Y454028D01*
X-3252Y453963D01*
X-3227Y453894D01*
X-3195Y453856D01*
X-3172Y453813D01*
X-3119Y453762D01*
X-3072Y453705D01*
X-3030Y453679D01*
X-2994Y453646D01*
X-2927Y453615D01*
X-2865Y453577D01*
X-2817Y453565D01*
X-2772Y453545D01*
X-2699Y453538D01*
X-2627Y453521D01*
X-2578Y453526D01*
X-2529Y453521D01*
X-2457Y453537D01*
X-2384Y453545D01*
X-2339Y453565D01*
X-2291Y453576D01*
X-2229Y453615D01*
X-2162Y453645D01*
X-2105Y453692D01*
X-2084Y453705D01*
X-2073Y453718D01*
X-2048Y453739D01*
X104Y455891D01*
X4119Y457554D01*
X8464Y457554D01*
X12479Y455891D01*
X15551Y452818D01*
X17214Y448804D01*
X17214Y444458D01*
X15551Y440444D01*
X12479Y437371D01*
X8464Y435708D01*
X4119Y435708D01*
X104Y437371D01*
X-2048Y439523D01*
X-2107Y439566D01*
X-2161Y439616D01*
X-2206Y439636D01*
X-2246Y439665D01*
X-2316Y439687D01*
X-2383Y439717D01*
X-2432Y439722D01*
X-2480Y439736D01*
X-2553Y439734D01*
X-2626Y439741D01*
X-2674Y439730D01*
X-2723Y439728D01*
X-2792Y439702D01*
X-2864Y439686D01*
X-2906Y439660D01*
X-2952Y439642D01*
X-3009Y439596D01*
X-3071Y439557D01*
X-3102Y439519D01*
X-3141Y439488D01*
X-3179Y439425D01*
X-3226Y439368D01*
X-3243Y439322D01*
X-3270Y439280D01*
X-3286Y439209D01*
X-3312Y439140D01*
X-3320Y439067D01*
X-3325Y439043D01*
X-3324Y439026D01*
X-3327Y438993D01*
X-3327Y428869D01*
X-3315Y428796D01*
X-3312Y428723D01*
X-3295Y428676D01*
X-3287Y428628D01*
X-3252Y428563D01*
X-3227Y428494D01*
X-3195Y428456D01*
X-3172Y428413D01*
X-3119Y428362D01*
X-3072Y428305D01*
X-3030Y428279D01*
X-2994Y428246D01*
X-2927Y428215D01*
X-2865Y428177D01*
X-2817Y428165D01*
X-2772Y428145D01*
X-2699Y428138D01*
X-2627Y428121D01*
X-2578Y428126D01*
X-2529Y428121D01*
X-2457Y428137D01*
X-2384Y428145D01*
X-2339Y428165D01*
X-2291Y428176D01*
X-2229Y428215D01*
X-2162Y428245D01*
X-2105Y428292D01*
X-2084Y428305D01*
X-2073Y428318D01*
X-2048Y428339D01*
X104Y430491D01*
X4119Y432154D01*
X8464Y432154D01*
X12479Y430491D01*
X15551Y427418D01*
X17214Y423404D01*
X17214Y419058D01*
X15551Y415044D01*
X12479Y411971D01*
X8464Y410308D01*
X4119Y410308D01*
X104Y411971D01*
X-2048Y414123D01*
X-2107Y414166D01*
X-2161Y414216D01*
X-2206Y414236D01*
X-2246Y414265D01*
X-2316Y414287D01*
X-2383Y414317D01*
X-2432Y414322D01*
X-2480Y414336D01*
X-2553Y414334D01*
X-2626Y414341D01*
X-2674Y414330D01*
X-2723Y414328D01*
X-2792Y414302D01*
X-2864Y414286D01*
X-2906Y414260D01*
X-2952Y414242D01*
X-3009Y414196D01*
X-3071Y414157D01*
X-3102Y414119D01*
X-3141Y414088D01*
X-3179Y414025D01*
X-3226Y413968D01*
X-3243Y413922D01*
X-3270Y413880D01*
X-3286Y413809D01*
X-3312Y413740D01*
X-3320Y413667D01*
X-3325Y413643D01*
X-3324Y413626D01*
X-3327Y413593D01*
X-3327Y403469D01*
X-3315Y403396D01*
X-3312Y403323D01*
X-3295Y403276D01*
X-3287Y403228D01*
X-3252Y403163D01*
X-3227Y403094D01*
X-3195Y403056D01*
X-3172Y403013D01*
X-3119Y402962D01*
X-3072Y402905D01*
X-3030Y402879D01*
X-2994Y402846D01*
X-2927Y402815D01*
X-2865Y402777D01*
X-2817Y402765D01*
X-2772Y402745D01*
X-2699Y402738D01*
X-2627Y402721D01*
X-2578Y402726D01*
X-2529Y402721D01*
X-2457Y402737D01*
X-2384Y402745D01*
X-2339Y402765D01*
X-2291Y402776D01*
X-2229Y402815D01*
X-2162Y402845D01*
X-2105Y402892D01*
X-2084Y402905D01*
X-2073Y402918D01*
X-2048Y402939D01*
X104Y405091D01*
X4119Y406754D01*
X8464Y406754D01*
X12479Y405091D01*
X15551Y402018D01*
X17214Y398004D01*
X17214Y393658D01*
X15551Y389644D01*
X12479Y386571D01*
X8464Y384908D01*
X4119Y384908D01*
X104Y386571D01*
X-2048Y388723D01*
X-2107Y388766D01*
X-2161Y388816D01*
X-2206Y388836D01*
X-2246Y388865D01*
X-2316Y388887D01*
X-2383Y388917D01*
X-2432Y388922D01*
X-2480Y388936D01*
X-2553Y388934D01*
X-2626Y388941D01*
X-2674Y388930D01*
X-2723Y388928D01*
X-2792Y388902D01*
X-2864Y388886D01*
X-2906Y388860D01*
X-2952Y388842D01*
X-3009Y388796D01*
X-3071Y388757D01*
X-3102Y388719D01*
X-3141Y388688D01*
X-3179Y388625D01*
X-3226Y388568D01*
X-3243Y388522D01*
X-3270Y388480D01*
X-3286Y388409D01*
X-3312Y388340D01*
X-3320Y388267D01*
X-3325Y388243D01*
X-3324Y388226D01*
X-3327Y388193D01*
X-3327Y378069D01*
X-3315Y377996D01*
X-3312Y377923D01*
X-3295Y377876D01*
X-3287Y377828D01*
X-3252Y377763D01*
X-3227Y377694D01*
X-3195Y377656D01*
X-3172Y377613D01*
X-3119Y377562D01*
X-3072Y377505D01*
X-3030Y377479D01*
X-2994Y377446D01*
X-2927Y377415D01*
X-2865Y377377D01*
X-2817Y377365D01*
X-2772Y377345D01*
X-2699Y377338D01*
X-2627Y377321D01*
X-2578Y377326D01*
X-2529Y377321D01*
X-2457Y377337D01*
X-2384Y377345D01*
X-2339Y377365D01*
X-2291Y377376D01*
X-2229Y377415D01*
X-2162Y377445D01*
X-2105Y377492D01*
X-2084Y377505D01*
X-2073Y377518D01*
X-2048Y377539D01*
X104Y379691D01*
X4119Y381354D01*
X8464Y381354D01*
X12479Y379691D01*
X15551Y376618D01*
X17214Y372604D01*
X17214Y368258D01*
X15551Y364244D01*
X12479Y361171D01*
X8464Y359508D01*
X4119Y359508D01*
X104Y361171D01*
X-2048Y363323D01*
X-2107Y363366D01*
X-2161Y363416D01*
X-2206Y363436D01*
X-2246Y363465D01*
X-2316Y363487D01*
X-2383Y363517D01*
X-2432Y363522D01*
X-2480Y363536D01*
X-2553Y363534D01*
X-2626Y363541D01*
X-2674Y363530D01*
X-2723Y363528D01*
X-2792Y363502D01*
X-2864Y363486D01*
X-2906Y363460D01*
X-2952Y363442D01*
X-3009Y363396D01*
X-3071Y363357D01*
X-3102Y363319D01*
X-3141Y363288D01*
X-3179Y363225D01*
X-3226Y363168D01*
X-3243Y363122D01*
X-3270Y363080D01*
X-3286Y363009D01*
X-3312Y362940D01*
X-3320Y362867D01*
X-3325Y362843D01*
X-3324Y362826D01*
X-3327Y362793D01*
X-3327Y352669D01*
X-3315Y352596D01*
X-3312Y352523D01*
X-3295Y352476D01*
X-3287Y352428D01*
X-3252Y352363D01*
X-3227Y352294D01*
X-3195Y352256D01*
X-3172Y352213D01*
X-3119Y352162D01*
X-3072Y352105D01*
X-3030Y352079D01*
X-2994Y352046D01*
X-2927Y352015D01*
X-2865Y351977D01*
X-2817Y351965D01*
X-2772Y351945D01*
X-2699Y351938D01*
X-2627Y351921D01*
X-2578Y351926D01*
X-2529Y351921D01*
X-2457Y351937D01*
X-2384Y351945D01*
X-2339Y351965D01*
X-2291Y351976D01*
X-2229Y352015D01*
X-2162Y352045D01*
X-2105Y352092D01*
X-2084Y352105D01*
X-2073Y352118D01*
X-2048Y352139D01*
X104Y354291D01*
X4119Y355954D01*
X8464Y355954D01*
X12479Y354291D01*
X15551Y351218D01*
X17214Y347204D01*
X17214Y342858D01*
X15551Y338844D01*
X12479Y335771D01*
X8464Y334108D01*
X4119Y334108D01*
X104Y335771D01*
X-2048Y337923D01*
X-2107Y337966D01*
X-2161Y338016D01*
X-2206Y338036D01*
X-2246Y338065D01*
X-2316Y338087D01*
X-2383Y338117D01*
X-2432Y338122D01*
X-2480Y338136D01*
X-2553Y338134D01*
X-2626Y338141D01*
X-2674Y338130D01*
X-2723Y338128D01*
X-2792Y338102D01*
X-2864Y338086D01*
X-2906Y338060D01*
X-2952Y338042D01*
X-3009Y337996D01*
X-3071Y337957D01*
X-3102Y337919D01*
X-3141Y337888D01*
X-3179Y337825D01*
X-3226Y337768D01*
X-3243Y337722D01*
X-3270Y337680D01*
X-3286Y337609D01*
X-3312Y337540D01*
X-3320Y337467D01*
X-3325Y337443D01*
X-3324Y337426D01*
X-3327Y337393D01*
X-3327Y327269D01*
X-3325Y327256D01*
X-3325Y327250D01*
X-3320Y327227D01*
X-3315Y327196D01*
X-3312Y327123D01*
X-3295Y327076D01*
X-3287Y327028D01*
X-3252Y326963D01*
X-3227Y326894D01*
X-3195Y326856D01*
X-3172Y326813D01*
X-3119Y326762D01*
X-3072Y326705D01*
X-3030Y326679D01*
X-2994Y326646D01*
X-2927Y326615D01*
X-2865Y326577D01*
X-2817Y326565D01*
X-2772Y326545D01*
X-2699Y326538D01*
X-2627Y326521D01*
X-2578Y326526D01*
X-2529Y326521D01*
X-2457Y326537D01*
X-2384Y326545D01*
X-2339Y326565D01*
X-2291Y326576D01*
X-2229Y326615D01*
X-2162Y326645D01*
X-2105Y326692D01*
X-2084Y326705D01*
X-2073Y326718D01*
X-2048Y326739D01*
X104Y328891D01*
X4119Y330554D01*
X8464Y330554D01*
X12479Y328891D01*
X15551Y325818D01*
X17214Y321804D01*
X17214Y317458D01*
X15551Y313444D01*
X12479Y310371D01*
X8464Y308708D01*
X4119Y308708D01*
X104Y310371D01*
X-2048Y312523D01*
X-2107Y312566D01*
X-2161Y312616D01*
X-2206Y312636D01*
X-2246Y312665D01*
X-2316Y312687D01*
X-2383Y312717D01*
X-2432Y312722D01*
X-2480Y312736D01*
X-2553Y312734D01*
X-2626Y312741D01*
X-2674Y312730D01*
X-2723Y312728D01*
X-2792Y312702D01*
X-2864Y312686D01*
X-2906Y312660D01*
X-2952Y312642D01*
X-3009Y312596D01*
X-3071Y312557D01*
X-3102Y312519D01*
X-3141Y312488D01*
X-3179Y312425D01*
X-3226Y312368D01*
X-3243Y312322D01*
X-3270Y312280D01*
X-3286Y312209D01*
X-3312Y312140D01*
X-3320Y312067D01*
X-3325Y312043D01*
X-3324Y312026D01*
X-3327Y311993D01*
X-3327Y301869D01*
X-3315Y301796D01*
X-3312Y301723D01*
X-3295Y301676D01*
X-3287Y301628D01*
X-3252Y301563D01*
X-3227Y301494D01*
X-3195Y301456D01*
X-3172Y301413D01*
X-3119Y301362D01*
X-3072Y301305D01*
X-3030Y301279D01*
X-2994Y301246D01*
X-2927Y301215D01*
X-2865Y301177D01*
X-2817Y301165D01*
X-2772Y301145D01*
X-2699Y301138D01*
X-2627Y301121D01*
X-2578Y301126D01*
X-2529Y301121D01*
X-2457Y301137D01*
X-2384Y301145D01*
X-2339Y301165D01*
X-2291Y301176D01*
X-2229Y301215D01*
X-2162Y301245D01*
X-2105Y301292D01*
X-2084Y301305D01*
X-2073Y301318D01*
X-2048Y301339D01*
X104Y303491D01*
X4119Y305154D01*
X8464Y305154D01*
X12479Y303491D01*
X15551Y300418D01*
X17214Y296404D01*
X17214Y292058D01*
X15551Y288044D01*
X12479Y284971D01*
X8464Y283308D01*
X4119Y283308D01*
X104Y284971D01*
X-2048Y287123D01*
X-2107Y287166D01*
X-2161Y287216D01*
X-2206Y287236D01*
X-2246Y287265D01*
X-2316Y287287D01*
X-2383Y287317D01*
X-2432Y287322D01*
X-2480Y287336D01*
X-2553Y287334D01*
X-2626Y287341D01*
X-2674Y287330D01*
X-2723Y287328D01*
X-2792Y287302D01*
X-2864Y287286D01*
X-2906Y287260D01*
X-2952Y287242D01*
X-3009Y287196D01*
X-3071Y287157D01*
X-3102Y287119D01*
X-3141Y287088D01*
X-3179Y287025D01*
X-3226Y286968D01*
X-3243Y286922D01*
X-3270Y286880D01*
X-3286Y286809D01*
X-3312Y286740D01*
X-3320Y286667D01*
X-3325Y286643D01*
X-3324Y286626D01*
X-3327Y286593D01*
X-3327Y276469D01*
X-3315Y276396D01*
X-3312Y276323D01*
X-3295Y276276D01*
X-3287Y276228D01*
X-3252Y276163D01*
X-3227Y276094D01*
X-3195Y276056D01*
X-3172Y276013D01*
X-3119Y275962D01*
X-3072Y275905D01*
X-3030Y275879D01*
X-2994Y275846D01*
X-2927Y275815D01*
X-2865Y275777D01*
X-2817Y275765D01*
X-2772Y275745D01*
X-2699Y275738D01*
X-2627Y275721D01*
X-2578Y275726D01*
X-2529Y275721D01*
X-2457Y275737D01*
X-2384Y275745D01*
X-2339Y275765D01*
X-2291Y275776D01*
X-2229Y275815D01*
X-2162Y275845D01*
X-2105Y275892D01*
X-2084Y275905D01*
X-2073Y275918D01*
X-2048Y275939D01*
X104Y278091D01*
X4119Y279754D01*
X8464Y279754D01*
X12479Y278091D01*
X15551Y275018D01*
X17214Y271004D01*
X17214Y266658D01*
X15551Y262644D01*
X12479Y259571D01*
X8464Y257908D01*
X4119Y257908D01*
X104Y259571D01*
X-2048Y261723D01*
X-2107Y261766D01*
X-2161Y261816D01*
X-2206Y261836D01*
X-2246Y261865D01*
X-2316Y261887D01*
X-2383Y261917D01*
X-2432Y261922D01*
X-2480Y261936D01*
X-2553Y261934D01*
X-2626Y261941D01*
X-2674Y261930D01*
X-2723Y261928D01*
X-2792Y261902D01*
X-2864Y261886D01*
X-2906Y261860D01*
X-2952Y261842D01*
X-3009Y261796D01*
X-3071Y261757D01*
X-3102Y261719D01*
X-3141Y261688D01*
X-3179Y261625D01*
X-3226Y261568D01*
X-3243Y261522D01*
X-3270Y261480D01*
X-3286Y261409D01*
X-3312Y261340D01*
X-3320Y261267D01*
X-3325Y261243D01*
X-3324Y261226D01*
X-3327Y261193D01*
X-3327Y251069D01*
X-3315Y250996D01*
X-3312Y250923D01*
X-3295Y250876D01*
X-3287Y250828D01*
X-3252Y250763D01*
X-3227Y250694D01*
X-3195Y250656D01*
X-3172Y250613D01*
X-3119Y250562D01*
X-3072Y250505D01*
X-3030Y250479D01*
X-2994Y250446D01*
X-2927Y250415D01*
X-2865Y250377D01*
X-2817Y250365D01*
X-2772Y250345D01*
X-2699Y250338D01*
X-2627Y250321D01*
X-2578Y250326D01*
X-2529Y250321D01*
X-2457Y250337D01*
X-2384Y250345D01*
X-2339Y250365D01*
X-2291Y250376D01*
X-2229Y250415D01*
X-2162Y250445D01*
X-2105Y250492D01*
X-2084Y250505D01*
X-2073Y250518D01*
X-2048Y250539D01*
X104Y252691D01*
X4119Y254354D01*
X8464Y254354D01*
X12479Y252691D01*
X15551Y249618D01*
X16449Y247450D01*
X16504Y247362D01*
X16578Y247243D01*
X16670Y247168D01*
X16766Y247088D01*
X16767Y247088D01*
X16899Y247038D01*
X16995Y247002D01*
X16996Y247002D01*
X17141Y246988D01*
X18765Y246988D01*
X26525Y239227D01*
X26605Y239170D01*
X26680Y239108D01*
X26703Y239100D01*
X26724Y239085D01*
X26817Y239057D01*
X26908Y239022D01*
X26941Y239019D01*
X26957Y239014D01*
X26982Y239015D01*
X27055Y239008D01*
X28866Y239008D01*
X31828Y236045D01*
X31828Y231856D01*
X29331Y229359D01*
X29288Y229299D01*
X29237Y229245D01*
X29217Y229200D01*
X29188Y229160D01*
X29167Y229090D01*
X29137Y229023D01*
X29132Y228974D01*
X29117Y228927D01*
X29120Y228854D01*
X29113Y228780D01*
X29124Y228732D01*
X29125Y228683D01*
X29151Y228614D01*
X29168Y228543D01*
X29194Y228501D01*
X29211Y228455D01*
X29258Y228398D01*
X29297Y228335D01*
X29335Y228304D01*
X29366Y228266D01*
X29428Y228227D01*
X29485Y228180D01*
X29531Y228163D01*
X29573Y228137D01*
X29645Y228120D01*
X29713Y228094D01*
X29786Y228087D01*
X29811Y228081D01*
X29827Y228083D01*
X29860Y228080D01*
X89459Y228080D01*
X89556Y228096D01*
X89653Y228105D01*
X89675Y228115D01*
X89700Y228119D01*
X89786Y228165D01*
X89875Y228205D01*
X89901Y228226D01*
X89915Y228234D01*
X89932Y228252D01*
X89989Y228299D01*
X94015Y232325D01*
X94072Y232405D01*
X94134Y232480D01*
X94143Y232503D01*
X94157Y232524D01*
X94186Y232617D01*
X94220Y232708D01*
X94223Y232741D01*
X94228Y232757D01*
X94227Y232782D01*
X94235Y232855D01*
X94235Y236125D01*
X97197Y239088D01*
X101386Y239088D01*
X102488Y237986D01*
X102547Y237943D01*
X102601Y237893D01*
X102646Y237873D01*
X102686Y237844D01*
X102756Y237822D01*
X102823Y237792D01*
X102872Y237787D01*
X102919Y237773D01*
X102993Y237775D01*
X103066Y237768D01*
X103114Y237779D01*
X103163Y237781D01*
X103232Y237807D01*
X103304Y237823D01*
X103346Y237849D01*
X103392Y237867D01*
X103449Y237913D01*
X103511Y237952D01*
X103542Y237990D01*
X103580Y238021D01*
X103619Y238084D01*
X103666Y238140D01*
X103683Y238187D01*
X103709Y238228D01*
X103726Y238300D01*
X103752Y238369D01*
X103759Y238442D01*
X103765Y238466D01*
X103763Y238483D01*
X103767Y238516D01*
X103767Y239675D01*
X103765Y239684D01*
X103765Y239685D01*
X103765Y239686D01*
X103751Y239771D01*
X103741Y239868D01*
X103731Y239891D01*
X103727Y239915D01*
X103681Y240002D01*
X103641Y240090D01*
X103620Y240116D01*
X103612Y240131D01*
X103594Y240148D01*
X103547Y240205D01*
X98465Y245287D01*
X98386Y245344D01*
X98311Y245405D01*
X98287Y245414D01*
X98267Y245429D01*
X98173Y245457D01*
X98082Y245492D01*
X98049Y245495D01*
X98033Y245500D01*
X98008Y245499D01*
X97935Y245506D01*
X56246Y245506D01*
X48767Y252985D01*
X48767Y339094D01*
X48751Y339190D01*
X48741Y339287D01*
X48731Y339310D01*
X48727Y339335D01*
X48681Y339421D01*
X48641Y339510D01*
X48620Y339535D01*
X48612Y339550D01*
X48594Y339567D01*
X48547Y339624D01*
X46235Y341936D01*
X46235Y346125D01*
X49197Y349088D01*
X49420Y349088D01*
X49492Y349100D01*
X49566Y349102D01*
X49612Y349119D01*
X49661Y349127D01*
X49725Y349162D01*
X49794Y349188D01*
X49832Y349219D01*
X49876Y349242D01*
X49926Y349296D01*
X49983Y349343D01*
X50009Y349384D01*
X50043Y349420D01*
X50073Y349487D01*
X50112Y349550D01*
X50123Y349598D01*
X50143Y349643D01*
X50151Y349716D01*
X50167Y349787D01*
X50163Y349836D01*
X50168Y349885D01*
X50151Y349957D01*
X50144Y350030D01*
X50123Y350075D01*
X50112Y350123D01*
X50073Y350186D01*
X50043Y350252D01*
X49997Y350309D01*
X49984Y350330D01*
X49971Y350341D01*
X49950Y350367D01*
X49767Y350550D01*
X49767Y355094D01*
X49751Y355190D01*
X49741Y355287D01*
X49731Y355310D01*
X49727Y355335D01*
X49681Y355421D01*
X49641Y355510D01*
X49620Y355535D01*
X49612Y355550D01*
X49594Y355567D01*
X49547Y355624D01*
X47235Y357936D01*
X47235Y362125D01*
X50197Y365088D01*
X54386Y365088D01*
X57348Y362125D01*
X57348Y357936D01*
X55036Y355624D01*
X54979Y355544D01*
X54917Y355469D01*
X54908Y355446D01*
X54893Y355425D01*
X54865Y355332D01*
X54831Y355241D01*
X54827Y355208D01*
X54823Y355192D01*
X54823Y355167D01*
X54816Y355094D01*
X54816Y352952D01*
X54832Y352855D01*
X54842Y352758D01*
X54852Y352736D01*
X54856Y352711D01*
X54902Y352625D01*
X54942Y352536D01*
X54963Y352510D01*
X54971Y352496D01*
X54989Y352479D01*
X55036Y352422D01*
X59872Y347585D01*
X59872Y340477D01*
X58527Y339132D01*
X58471Y339053D01*
X58409Y338977D01*
X58400Y338954D01*
X58385Y338934D01*
X58357Y338840D01*
X58323Y338749D01*
X58319Y338716D01*
X58314Y338700D01*
X58315Y338675D01*
X58308Y338602D01*
X58308Y255879D01*
X58324Y255783D01*
X58333Y255686D01*
X58344Y255663D01*
X58348Y255638D01*
X58394Y255552D01*
X58434Y255463D01*
X58455Y255438D01*
X58463Y255423D01*
X58481Y255406D01*
X58527Y255349D01*
X59577Y254299D01*
X59657Y254242D01*
X59732Y254180D01*
X59755Y254172D01*
X59776Y254157D01*
X59869Y254129D01*
X59960Y254094D01*
X59993Y254091D01*
X60009Y254086D01*
X60034Y254087D01*
X60107Y254080D01*
X101797Y254080D01*
X112340Y243536D01*
X112340Y192335D01*
X104673Y184669D01*
X104631Y184609D01*
X104580Y184555D01*
X104560Y184510D01*
X104531Y184470D01*
X104510Y184400D01*
X104480Y184333D01*
X104475Y184284D01*
X104460Y184237D01*
X104463Y184164D01*
X104456Y184090D01*
X104467Y184042D01*
X104468Y183993D01*
X104494Y183924D01*
X104511Y183853D01*
X104537Y183811D01*
X104554Y183765D01*
X104601Y183708D01*
X104640Y183645D01*
X104678Y183614D01*
X104709Y183576D01*
X104771Y183537D01*
X104828Y183490D01*
X104874Y183473D01*
X104916Y183447D01*
X104988Y183430D01*
X105056Y183404D01*
X105129Y183397D01*
X105154Y183391D01*
X105170Y183393D01*
X105203Y183390D01*
X108872Y183390D01*
X108968Y183406D01*
X109065Y183415D01*
X109088Y183425D01*
X109112Y183429D01*
X109198Y183475D01*
X109287Y183515D01*
X109313Y183536D01*
X109328Y183544D01*
X109345Y183562D01*
X109401Y183609D01*
X109960Y184168D01*
X112905Y184168D01*
X112930Y184172D01*
X112954Y184169D01*
X113049Y184191D01*
X113146Y184207D01*
X113168Y184219D01*
X113192Y184224D01*
X113275Y184276D01*
X113361Y184322D01*
X113378Y184340D01*
X113399Y184353D01*
X113461Y184429D01*
X113528Y184500D01*
X113538Y184523D01*
X113554Y184542D01*
X113589Y184633D01*
X113629Y184723D01*
X113631Y184747D01*
X113640Y184770D01*
X113655Y184917D01*
X113655Y185975D01*
X122246Y194566D01*
X132192Y194566D01*
X132288Y194582D01*
X132385Y194591D01*
X132408Y194601D01*
X132432Y194605D01*
X132518Y194651D01*
X132607Y194691D01*
X132633Y194712D01*
X132648Y194720D01*
X132665Y194738D01*
X132721Y194785D01*
X141337Y203401D01*
X141394Y203480D01*
X141456Y203556D01*
X141465Y203579D01*
X141479Y203599D01*
X141508Y203693D01*
X141542Y203784D01*
X141545Y203817D01*
X141550Y203833D01*
X141549Y203858D01*
X141557Y203931D01*
X141557Y217022D01*
X142450Y217916D01*
X147257Y217916D01*
X147329Y217928D01*
X147402Y217930D01*
X147449Y217947D01*
X147497Y217955D01*
X147562Y217990D01*
X147631Y218016D01*
X147669Y218047D01*
X147713Y218070D01*
X147763Y218124D01*
X147820Y218170D01*
X147846Y218212D01*
X147879Y218248D01*
X147910Y218315D01*
X147949Y218378D01*
X147960Y218426D01*
X147980Y218471D01*
X147987Y218544D01*
X148004Y218615D01*
X147999Y218664D01*
X148004Y218713D01*
X147988Y218785D01*
X147980Y218858D01*
X147960Y218903D01*
X147949Y218951D01*
X147910Y219014D01*
X147880Y219080D01*
X147833Y219137D01*
X147820Y219158D01*
X147807Y219169D01*
X147786Y219195D01*
X145884Y221097D01*
X145805Y221154D01*
X145730Y221215D01*
X145706Y221224D01*
X145686Y221239D01*
X145593Y221267D01*
X145502Y221302D01*
X145469Y221305D01*
X145453Y221310D01*
X145428Y221309D01*
X145355Y221316D01*
X138976Y221316D01*
X132095Y228197D01*
X132035Y228239D01*
X131982Y228290D01*
X131937Y228310D01*
X131897Y228339D01*
X131827Y228360D01*
X131760Y228390D01*
X131711Y228395D01*
X131663Y228410D01*
X131590Y228407D01*
X131517Y228414D01*
X131469Y228403D01*
X131420Y228402D01*
X131351Y228376D01*
X131279Y228359D01*
X131237Y228333D01*
X131191Y228316D01*
X131134Y228269D01*
X131072Y228231D01*
X131041Y228192D01*
X131002Y228161D01*
X130964Y228099D01*
X130917Y228042D01*
X130900Y227996D01*
X130873Y227954D01*
X130857Y227882D01*
X130831Y227814D01*
X130823Y227741D01*
X130818Y227716D01*
X130819Y227700D01*
X130816Y227667D01*
X130816Y225968D01*
X130832Y225871D01*
X130842Y225775D01*
X130852Y225752D01*
X130856Y225727D01*
X130902Y225641D01*
X130942Y225552D01*
X130963Y225527D01*
X130971Y225512D01*
X130989Y225495D01*
X131036Y225438D01*
X133348Y223125D01*
X133348Y218936D01*
X130386Y215974D01*
X126197Y215974D01*
X123235Y218936D01*
X123235Y223125D01*
X125547Y225438D01*
X125604Y225517D01*
X125666Y225593D01*
X125675Y225616D01*
X125689Y225636D01*
X125718Y225730D01*
X125752Y225821D01*
X125755Y225854D01*
X125760Y225870D01*
X125759Y225895D01*
X125767Y225968D01*
X125767Y302060D01*
X131789Y308083D01*
X131803Y308102D01*
X131822Y308118D01*
X131874Y308201D01*
X131931Y308281D01*
X131938Y308304D01*
X131951Y308325D01*
X131973Y308421D01*
X132002Y308514D01*
X132001Y308539D01*
X132007Y308563D01*
X131997Y308660D01*
X131994Y308758D01*
X131985Y308781D01*
X131983Y308806D01*
X131943Y308895D01*
X131908Y308987D01*
X131893Y309006D01*
X131882Y309028D01*
X131789Y309142D01*
X129725Y311206D01*
X129725Y315395D01*
X132687Y318358D01*
X136876Y318358D01*
X137978Y317256D01*
X138037Y317213D01*
X138091Y317163D01*
X138136Y317143D01*
X138176Y317114D01*
X138246Y317092D01*
X138313Y317062D01*
X138362Y317057D01*
X138409Y317043D01*
X138483Y317045D01*
X138556Y317038D01*
X138604Y317049D01*
X138653Y317051D01*
X138722Y317077D01*
X138794Y317093D01*
X138836Y317119D01*
X138882Y317137D01*
X138939Y317183D01*
X139001Y317222D01*
X139032Y317260D01*
X139070Y317291D01*
X139109Y317354D01*
X139156Y317410D01*
X139173Y317457D01*
X139199Y317498D01*
X139216Y317570D01*
X139242Y317639D01*
X139249Y317712D01*
X139255Y317736D01*
X139253Y317753D01*
X139257Y317786D01*
X139257Y327094D01*
X139241Y327190D01*
X139231Y327287D01*
X139221Y327310D01*
X139217Y327335D01*
X139171Y327421D01*
X139131Y327510D01*
X139110Y327535D01*
X139102Y327550D01*
X139084Y327567D01*
X139037Y327624D01*
X136725Y329936D01*
X136725Y334125D01*
X139687Y337088D01*
X143876Y337088D01*
X146838Y334125D01*
X146838Y329936D01*
X144526Y327624D01*
X144469Y327544D01*
X144407Y327469D01*
X144398Y327446D01*
X144383Y327425D01*
X144355Y327332D01*
X144321Y327241D01*
X144317Y327208D01*
X144313Y327192D01*
X144313Y327167D01*
X144306Y327094D01*
X144306Y308475D01*
X142608Y306777D01*
X134560Y298729D01*
X134503Y298649D01*
X134441Y298574D01*
X134432Y298551D01*
X134417Y298530D01*
X134389Y298437D01*
X134355Y298346D01*
X134351Y298313D01*
X134347Y298297D01*
X134347Y298272D01*
X134340Y298199D01*
X134340Y233403D01*
X134356Y233307D01*
X134366Y233210D01*
X134376Y233187D01*
X134380Y233162D01*
X134426Y233076D01*
X134466Y232987D01*
X134487Y232962D01*
X134495Y232947D01*
X134513Y232930D01*
X134560Y232873D01*
X140848Y226585D01*
X140927Y226528D01*
X141002Y226466D01*
X141026Y226458D01*
X141046Y226443D01*
X141139Y226415D01*
X141231Y226380D01*
X141264Y226377D01*
X141280Y226372D01*
X141304Y226373D01*
X141378Y226366D01*
X145355Y226366D01*
X145451Y226382D01*
X145548Y226391D01*
X145571Y226401D01*
X145595Y226405D01*
X145681Y226451D01*
X145770Y226491D01*
X145796Y226512D01*
X145811Y226520D01*
X145828Y226539D01*
X145884Y226585D01*
X148197Y228898D01*
X152386Y228898D01*
X155348Y225935D01*
X155348Y221746D01*
X152797Y219195D01*
X152754Y219135D01*
X152703Y219081D01*
X152683Y219036D01*
X152654Y218996D01*
X152633Y218926D01*
X152603Y218859D01*
X152598Y218810D01*
X152583Y218763D01*
X152586Y218690D01*
X152579Y218616D01*
X152590Y218568D01*
X152591Y218519D01*
X152617Y218450D01*
X152634Y218379D01*
X152660Y218337D01*
X152677Y218291D01*
X152724Y218234D01*
X152763Y218171D01*
X152801Y218140D01*
X152832Y218102D01*
X152894Y218063D01*
X152951Y218016D01*
X152997Y217999D01*
X153039Y217973D01*
X153111Y217956D01*
X153179Y217930D01*
X153252Y217923D01*
X153277Y217917D01*
X153293Y217919D01*
X153326Y217916D01*
X153713Y217916D01*
X154606Y217022D01*
X154606Y201759D01*
X153772Y200925D01*
X153729Y200865D01*
X153678Y200811D01*
X153658Y200766D01*
X153629Y200726D01*
X153608Y200656D01*
X153578Y200589D01*
X153573Y200540D01*
X153558Y200493D01*
X153561Y200419D01*
X153554Y200346D01*
X153565Y200298D01*
X153566Y200249D01*
X153592Y200180D01*
X153609Y200109D01*
X153635Y200067D01*
X153652Y200021D01*
X153699Y199964D01*
X153738Y199901D01*
X153776Y199870D01*
X153807Y199832D01*
X153869Y199793D01*
X153926Y199746D01*
X153972Y199729D01*
X154014Y199703D01*
X154086Y199686D01*
X154154Y199660D01*
X154227Y199653D01*
X154252Y199647D01*
X154268Y199649D01*
X154301Y199646D01*
X156225Y199646D01*
X156322Y199662D01*
X156419Y199671D01*
X156441Y199681D01*
X156466Y199685D01*
X156552Y199731D01*
X156641Y199771D01*
X156667Y199792D01*
X156681Y199800D01*
X156698Y199818D01*
X156755Y199865D01*
X160337Y203447D01*
X160394Y203527D01*
X160456Y203602D01*
X160465Y203625D01*
X160479Y203646D01*
X160508Y203739D01*
X160542Y203830D01*
X160545Y203863D01*
X160550Y203879D01*
X160549Y203904D01*
X160557Y203977D01*
X160557Y217022D01*
X161450Y217916D01*
X162985Y217916D01*
X163010Y217920D01*
X163034Y217917D01*
X163129Y217939D01*
X163226Y217955D01*
X163248Y217967D01*
X163272Y217972D01*
X163355Y218024D01*
X163441Y218070D01*
X163458Y218088D01*
X163479Y218101D01*
X163541Y218177D01*
X163608Y218248D01*
X163618Y218271D01*
X163634Y218290D01*
X163669Y218381D01*
X163709Y218471D01*
X163711Y218495D01*
X163720Y218518D01*
X163735Y218665D01*
X163735Y256747D01*
X163719Y256844D01*
X163709Y256940D01*
X163699Y256963D01*
X163695Y256988D01*
X163649Y257074D01*
X163609Y257163D01*
X163588Y257188D01*
X163580Y257203D01*
X163562Y257220D01*
X163515Y257277D01*
X148945Y271848D01*
X148945Y284916D01*
X148929Y285012D01*
X148919Y285109D01*
X148909Y285132D01*
X148905Y285157D01*
X148859Y285243D01*
X148819Y285332D01*
X148798Y285357D01*
X148790Y285372D01*
X148772Y285389D01*
X148725Y285446D01*
X147235Y286936D01*
X147235Y291125D01*
X148515Y292406D01*
X148572Y292485D01*
X148634Y292561D01*
X148643Y292584D01*
X148657Y292604D01*
X148686Y292698D01*
X148720Y292789D01*
X148723Y292822D01*
X148728Y292838D01*
X148727Y292863D01*
X148735Y292936D01*
X148735Y360629D01*
X148731Y360653D01*
X148733Y360677D01*
X148711Y360773D01*
X148695Y360870D01*
X148683Y360891D01*
X148678Y360915D01*
X148626Y360998D01*
X148580Y361085D01*
X148562Y361102D01*
X148549Y361122D01*
X148473Y361185D01*
X148402Y361252D01*
X148380Y361262D01*
X148361Y361277D01*
X148269Y361312D01*
X148180Y361353D01*
X148155Y361355D01*
X148132Y361364D01*
X147985Y361378D01*
X139492Y361378D01*
X138599Y362271D01*
X138599Y387570D01*
X139492Y388464D01*
X145157Y388464D01*
X145230Y388476D01*
X145303Y388478D01*
X145349Y388495D01*
X145398Y388503D01*
X145463Y388538D01*
X145531Y388564D01*
X145569Y388595D01*
X145613Y388618D01*
X145663Y388672D01*
X145720Y388719D01*
X145746Y388760D01*
X145780Y388796D01*
X145810Y388863D01*
X145849Y388926D01*
X145860Y388974D01*
X145881Y389019D01*
X145888Y389092D01*
X145905Y389163D01*
X145900Y389212D01*
X145905Y389261D01*
X145888Y389333D01*
X145881Y389406D01*
X145861Y389451D01*
X145849Y389499D01*
X145811Y389562D01*
X145780Y389628D01*
X145734Y389685D01*
X145721Y389706D01*
X145708Y389717D01*
X145687Y389743D01*
X145187Y390243D01*
X145108Y390299D01*
X145032Y390361D01*
X145009Y390370D01*
X144988Y390385D01*
X144895Y390413D01*
X144804Y390448D01*
X144771Y390451D01*
X144755Y390456D01*
X144730Y390455D01*
X144657Y390462D01*
X126967Y390462D01*
X125269Y392160D01*
X125269Y392161D01*
X115174Y402256D01*
X113475Y403954D01*
X113475Y414539D01*
X113463Y414611D01*
X113461Y414685D01*
X113444Y414731D01*
X113436Y414779D01*
X113401Y414844D01*
X113375Y414913D01*
X113344Y414951D01*
X113321Y414995D01*
X113267Y415045D01*
X113220Y415102D01*
X113178Y415128D01*
X113143Y415162D01*
X113076Y415192D01*
X113013Y415231D01*
X112965Y415242D01*
X112920Y415262D01*
X112847Y415270D01*
X112776Y415286D01*
X112727Y415282D01*
X112677Y415286D01*
X112606Y415270D01*
X112533Y415263D01*
X112488Y415242D01*
X112440Y415231D01*
X112377Y415192D01*
X112310Y415162D01*
X112254Y415116D01*
X112232Y415102D01*
X112222Y415090D01*
X112196Y415068D01*
X111803Y414675D01*
X111646Y414675D01*
X111622Y414672D01*
X111597Y414674D01*
X111502Y414652D01*
X111405Y414636D01*
X111383Y414624D01*
X111359Y414619D01*
X111276Y414567D01*
X111190Y414521D01*
X111173Y414503D01*
X111152Y414490D01*
X111090Y414414D01*
X111023Y414343D01*
X111013Y414320D01*
X110997Y414301D01*
X110963Y414210D01*
X110922Y414121D01*
X110920Y414096D01*
X110911Y414073D01*
X110896Y413926D01*
X110896Y410622D01*
X108838Y408564D01*
X108781Y408484D01*
X108719Y408409D01*
X108710Y408386D01*
X108696Y408365D01*
X108667Y408272D01*
X108633Y408181D01*
X108629Y408148D01*
X108625Y408132D01*
X108625Y408107D01*
X108618Y408034D01*
X108618Y404764D01*
X105656Y401801D01*
X101467Y401801D01*
X100630Y402638D01*
X100610Y402652D01*
X100595Y402671D01*
X100512Y402723D01*
X100432Y402780D01*
X100409Y402787D01*
X100388Y402800D01*
X100292Y402822D01*
X100199Y402851D01*
X100174Y402850D01*
X100150Y402856D01*
X100053Y402846D01*
X99955Y402843D01*
X99932Y402834D01*
X99907Y402832D01*
X99818Y402792D01*
X99726Y402757D01*
X99707Y402742D01*
X99685Y402732D01*
X99571Y402638D01*
X99031Y402098D01*
X74908Y402098D01*
X74015Y402991D01*
X74015Y410350D01*
X74908Y411244D01*
X99031Y411244D01*
X99384Y410891D01*
X99403Y410877D01*
X99419Y410858D01*
X99502Y410806D01*
X99582Y410749D01*
X99605Y410742D01*
X99626Y410729D01*
X99721Y410707D01*
X99815Y410678D01*
X99840Y410679D01*
X99864Y410673D01*
X99961Y410683D01*
X100059Y410686D01*
X100082Y410695D01*
X100107Y410697D01*
X100196Y410737D01*
X100288Y410772D01*
X100307Y410787D01*
X100329Y410797D01*
X100443Y410891D01*
X101467Y411915D01*
X104737Y411915D01*
X104834Y411931D01*
X104931Y411940D01*
X104953Y411950D01*
X104978Y411955D01*
X105064Y412001D01*
X105153Y412041D01*
X105179Y412062D01*
X105193Y412070D01*
X105210Y412088D01*
X105267Y412134D01*
X105627Y412495D01*
X105684Y412574D01*
X105746Y412649D01*
X105755Y412673D01*
X105770Y412693D01*
X105798Y412786D01*
X105832Y412877D01*
X105836Y412910D01*
X105840Y412926D01*
X105840Y412951D01*
X105847Y413024D01*
X105847Y413926D01*
X105843Y413950D01*
X105845Y413975D01*
X105823Y414070D01*
X105807Y414167D01*
X105796Y414189D01*
X105790Y414212D01*
X105738Y414296D01*
X105692Y414382D01*
X105674Y414399D01*
X105661Y414420D01*
X105586Y414482D01*
X105514Y414549D01*
X105492Y414559D01*
X105473Y414575D01*
X105381Y414609D01*
X105292Y414650D01*
X105268Y414652D01*
X105245Y414661D01*
X105098Y414675D01*
X104940Y414675D01*
X104047Y415569D01*
X104047Y419676D01*
X104043Y419700D01*
X104045Y419725D01*
X104023Y419820D01*
X104007Y419917D01*
X103996Y419939D01*
X103990Y419962D01*
X103938Y420046D01*
X103892Y420132D01*
X103874Y420149D01*
X103861Y420170D01*
X103786Y420232D01*
X103714Y420299D01*
X103692Y420309D01*
X103673Y420325D01*
X103581Y420359D01*
X103492Y420400D01*
X103468Y420402D01*
X103445Y420411D01*
X103298Y420425D01*
X100673Y420425D01*
X100649Y420422D01*
X100625Y420424D01*
X100529Y420402D01*
X100433Y420386D01*
X100411Y420374D01*
X100387Y420369D01*
X100304Y420317D01*
X100217Y420271D01*
X100201Y420253D01*
X100180Y420240D01*
X100117Y420164D01*
X100051Y420093D01*
X100040Y420070D01*
X100025Y420051D01*
X99990Y419960D01*
X99950Y419871D01*
X99947Y419846D01*
X99939Y419823D01*
X99924Y419676D01*
X99924Y415691D01*
X99031Y414798D01*
X74908Y414798D01*
X74015Y415691D01*
X74015Y416097D01*
X74011Y416121D01*
X74013Y416145D01*
X73991Y416241D01*
X73975Y416338D01*
X73963Y416359D01*
X73958Y416383D01*
X73906Y416466D01*
X73860Y416553D01*
X73842Y416570D01*
X73829Y416590D01*
X73753Y416653D01*
X73682Y416720D01*
X73660Y416730D01*
X73641Y416745D01*
X73549Y416780D01*
X73460Y416821D01*
X73435Y416823D01*
X73412Y416832D01*
X73265Y416846D01*
X66038Y416846D01*
X65941Y416830D01*
X65844Y416821D01*
X65822Y416811D01*
X65797Y416806D01*
X65711Y416760D01*
X65622Y416720D01*
X65596Y416699D01*
X65582Y416691D01*
X65565Y416673D01*
X65508Y416627D01*
X49836Y400955D01*
X49779Y400875D01*
X49717Y400800D01*
X49708Y400777D01*
X49693Y400756D01*
X49665Y400663D01*
X49631Y400572D01*
X49627Y400539D01*
X49623Y400523D01*
X49623Y400498D01*
X49616Y400425D01*
X49616Y393828D01*
X49632Y393731D01*
X49642Y393635D01*
X49652Y393612D01*
X49656Y393587D01*
X49702Y393501D01*
X49742Y393412D01*
X49763Y393387D01*
X49771Y393372D01*
X49789Y393355D01*
X49836Y393298D01*
X52148Y390985D01*
X52148Y386796D01*
X49186Y383834D01*
X44997Y383834D01*
X42035Y386796D01*
X42035Y390985D01*
X44347Y393298D01*
X44404Y393377D01*
X44466Y393453D01*
X44475Y393476D01*
X44489Y393496D01*
X44518Y393590D01*
X44552Y393681D01*
X44555Y393714D01*
X44560Y393730D01*
X44559Y393755D01*
X44567Y393828D01*
X44567Y402827D01*
X49435Y407695D01*
X49478Y407755D01*
X49528Y407808D01*
X49549Y407853D01*
X49577Y407893D01*
X49599Y407964D01*
X49629Y408031D01*
X49634Y408080D01*
X49648Y408127D01*
X49646Y408200D01*
X49653Y408273D01*
X49642Y408322D01*
X49640Y408371D01*
X49614Y408440D01*
X49598Y408511D01*
X49572Y408553D01*
X49554Y408599D01*
X49508Y408656D01*
X49469Y408718D01*
X49431Y408750D01*
X49400Y408788D01*
X49337Y408827D01*
X49281Y408873D01*
X49235Y408891D01*
X49193Y408917D01*
X49121Y408934D01*
X49052Y408960D01*
X48979Y408967D01*
X48955Y408972D01*
X48938Y408971D01*
X48905Y408974D01*
X45197Y408974D01*
X42884Y411287D01*
X42805Y411344D01*
X42730Y411405D01*
X42706Y411414D01*
X42686Y411429D01*
X42593Y411457D01*
X42501Y411492D01*
X42468Y411495D01*
X42452Y411500D01*
X42428Y411499D01*
X42355Y411506D01*
X28246Y411506D01*
X19767Y419985D01*
X19767Y478077D01*
X23015Y481325D01*
X23072Y481405D01*
X23134Y481480D01*
X23143Y481503D01*
X23157Y481524D01*
X23186Y481617D01*
X23220Y481708D01*
X23223Y481741D01*
X23228Y481757D01*
X23227Y481782D01*
X23235Y481855D01*
X23235Y485125D01*
X26197Y488088D01*
X30386Y488088D01*
X33348Y485125D01*
X33348Y480936D01*
X30386Y477974D01*
X27116Y477974D01*
X27019Y477958D01*
X26922Y477949D01*
X26900Y477939D01*
X26875Y477934D01*
X26789Y477888D01*
X26700Y477848D01*
X26674Y477827D01*
X26660Y477819D01*
X26643Y477801D01*
X26586Y477755D01*
X25036Y476205D01*
X24979Y476125D01*
X24917Y476050D01*
X24908Y476027D01*
X24893Y476006D01*
X24865Y475913D01*
X24831Y475822D01*
X24827Y475789D01*
X24823Y475773D01*
X24823Y475748D01*
X24816Y475675D01*
X24816Y422387D01*
X24832Y422291D01*
X24842Y422194D01*
X24852Y422171D01*
X24856Y422146D01*
X24902Y422060D01*
X24942Y421971D01*
X24963Y421946D01*
X24971Y421931D01*
X24989Y421914D01*
X25036Y421857D01*
X30118Y416775D01*
X30197Y416718D01*
X30272Y416656D01*
X30296Y416648D01*
X30316Y416633D01*
X30409Y416605D01*
X30501Y416570D01*
X30534Y416567D01*
X30550Y416562D01*
X30574Y416563D01*
X30648Y416556D01*
X42355Y416556D01*
X42451Y416572D01*
X42548Y416581D01*
X42571Y416591D01*
X42595Y416595D01*
X42681Y416641D01*
X42770Y416681D01*
X42796Y416702D01*
X42810Y416710D01*
X42827Y416728D01*
X42884Y416775D01*
X45197Y419088D01*
X49386Y419088D01*
X52348Y416125D01*
X52348Y412417D01*
X52360Y412344D01*
X52363Y412271D01*
X52380Y412225D01*
X52388Y412176D01*
X52423Y412111D01*
X52448Y412043D01*
X52480Y412004D01*
X52503Y411961D01*
X52557Y411911D01*
X52603Y411854D01*
X52645Y411828D01*
X52681Y411794D01*
X52748Y411764D01*
X52810Y411725D01*
X52858Y411714D01*
X52903Y411693D01*
X52976Y411686D01*
X53048Y411669D01*
X53097Y411674D01*
X53146Y411669D01*
X53218Y411686D01*
X53291Y411693D01*
X53336Y411713D01*
X53384Y411725D01*
X53446Y411763D01*
X53513Y411794D01*
X53570Y411840D01*
X53591Y411853D01*
X53602Y411866D01*
X53627Y411887D01*
X61937Y420197D01*
X63636Y421896D01*
X73265Y421896D01*
X73290Y421900D01*
X73314Y421897D01*
X73409Y421919D01*
X73506Y421935D01*
X73528Y421947D01*
X73552Y421952D01*
X73635Y422004D01*
X73721Y422050D01*
X73738Y422068D01*
X73759Y422081D01*
X73821Y422157D01*
X73888Y422228D01*
X73898Y422251D01*
X73914Y422270D01*
X73949Y422361D01*
X73989Y422451D01*
X73991Y422475D01*
X74000Y422498D01*
X74015Y422645D01*
X74015Y423050D01*
X74908Y423944D01*
X96063Y423944D01*
X96159Y423960D01*
X96256Y423969D01*
X96279Y423979D01*
X96303Y423983D01*
X96390Y424029D01*
X96478Y424069D01*
X96504Y424090D01*
X96519Y424098D01*
X96526Y424106D01*
X96527Y424106D01*
X96538Y424118D01*
X96593Y424163D01*
X97400Y424970D01*
X97414Y424990D01*
X97433Y425006D01*
X97485Y425089D01*
X97542Y425169D01*
X97549Y425192D01*
X97562Y425213D01*
X97584Y425308D01*
X97613Y425402D01*
X97612Y425426D01*
X97617Y425450D01*
X97608Y425548D01*
X97605Y425646D01*
X97596Y425669D01*
X97594Y425693D01*
X97553Y425783D01*
X97519Y425874D01*
X97503Y425893D01*
X97493Y425916D01*
X97400Y426030D01*
X96151Y427279D01*
X96071Y427336D01*
X95996Y427397D01*
X95973Y427406D01*
X95952Y427421D01*
X95859Y427449D01*
X95768Y427484D01*
X95735Y427487D01*
X95719Y427492D01*
X95694Y427491D01*
X95621Y427498D01*
X74908Y427498D01*
X74015Y428391D01*
X74015Y428797D01*
X74011Y428821D01*
X74013Y428845D01*
X73991Y428941D01*
X73975Y429038D01*
X73963Y429059D01*
X73958Y429083D01*
X73906Y429166D01*
X73860Y429253D01*
X73842Y429270D01*
X73829Y429290D01*
X73753Y429353D01*
X73682Y429420D01*
X73660Y429430D01*
X73641Y429445D01*
X73549Y429480D01*
X73460Y429521D01*
X73435Y429523D01*
X73412Y429532D01*
X73265Y429546D01*
X68906Y429546D01*
X63617Y434835D01*
X63617Y467407D01*
X68906Y472696D01*
X73357Y472696D01*
X73382Y472700D01*
X73406Y472697D01*
X73501Y472719D01*
X73598Y472735D01*
X73620Y472747D01*
X73644Y472752D01*
X73727Y472804D01*
X73813Y472850D01*
X73830Y472868D01*
X73851Y472881D01*
X73913Y472957D01*
X73980Y473028D01*
X73990Y473051D01*
X74006Y473070D01*
X74041Y473161D01*
X74081Y473251D01*
X74083Y473275D01*
X74092Y473298D01*
X74107Y473445D01*
X74107Y473802D01*
X75000Y474696D01*
X81663Y474696D01*
X82122Y474237D01*
X82142Y474223D01*
X82157Y474204D01*
X82240Y474152D01*
X82320Y474095D01*
X82343Y474088D01*
X82364Y474075D01*
X82460Y474052D01*
X82553Y474024D01*
X82578Y474025D01*
X82602Y474019D01*
X82699Y474029D01*
X82797Y474032D01*
X82820Y474040D01*
X82845Y474043D01*
X82934Y474083D01*
X83026Y474118D01*
X83045Y474133D01*
X83067Y474143D01*
X83181Y474237D01*
X83640Y474696D01*
X90303Y474696D01*
X91196Y473802D01*
X91196Y466539D01*
X90303Y465646D01*
X90245Y465646D01*
X90221Y465642D01*
X90197Y465645D01*
X90101Y465622D01*
X90005Y465606D01*
X89983Y465595D01*
X89959Y465589D01*
X89876Y465538D01*
X89789Y465491D01*
X89773Y465474D01*
X89752Y465461D01*
X89690Y465385D01*
X89623Y465313D01*
X89612Y465291D01*
X89597Y465272D01*
X89562Y465181D01*
X89522Y465091D01*
X89519Y465067D01*
X89511Y465044D01*
X89496Y464897D01*
X89496Y463842D01*
X89512Y463746D01*
X89522Y463649D01*
X89532Y463626D01*
X89536Y463601D01*
X89582Y463515D01*
X89622Y463426D01*
X89643Y463401D01*
X89651Y463386D01*
X89669Y463369D01*
X89716Y463312D01*
X90293Y462735D01*
X90313Y462720D01*
X90329Y462701D01*
X90412Y462650D01*
X90492Y462592D01*
X90515Y462585D01*
X90536Y462572D01*
X90631Y462550D01*
X90725Y462522D01*
X90750Y462522D01*
X90773Y462517D01*
X90871Y462526D01*
X90969Y462529D01*
X90992Y462538D01*
X91016Y462540D01*
X91106Y462581D01*
X91197Y462615D01*
X91216Y462631D01*
X91239Y462641D01*
X91353Y462735D01*
X92122Y463504D01*
X93010Y464016D01*
X93999Y464282D01*
X94512Y464282D01*
X94512Y459341D01*
X94516Y459317D01*
X94514Y459293D01*
X94536Y459197D01*
X94552Y459100D01*
X94563Y459079D01*
X94569Y459055D01*
X94621Y458972D01*
X94667Y458885D01*
X94685Y458868D01*
X94698Y458848D01*
X94773Y458785D01*
X94819Y458742D01*
X94805Y458735D01*
X94789Y458717D01*
X94768Y458704D01*
X94706Y458629D01*
X94639Y458557D01*
X94628Y458535D01*
X94613Y458516D01*
X94578Y458424D01*
X94538Y458335D01*
X94535Y458311D01*
X94527Y458288D01*
X94512Y458141D01*
X94512Y453200D01*
X93999Y453200D01*
X93010Y453465D01*
X92122Y453978D01*
X91353Y454747D01*
X91333Y454761D01*
X91317Y454780D01*
X91234Y454832D01*
X91154Y454889D01*
X91131Y454896D01*
X91110Y454909D01*
X91015Y454932D01*
X90921Y454960D01*
X90896Y454959D01*
X90873Y454965D01*
X90775Y454955D01*
X90677Y454952D01*
X90654Y454944D01*
X90630Y454941D01*
X90540Y454901D01*
X90449Y454866D01*
X90430Y454851D01*
X90407Y454841D01*
X90293Y454747D01*
X89966Y454420D01*
X89916Y454351D01*
X89904Y454338D01*
X89901Y454331D01*
X89847Y454265D01*
X89838Y454242D01*
X89823Y454221D01*
X89795Y454128D01*
X89761Y454037D01*
X89757Y454004D01*
X89753Y453988D01*
X89753Y453963D01*
X89746Y453890D01*
X89746Y450093D01*
X89750Y450069D01*
X89748Y450044D01*
X89770Y449949D01*
X89786Y449852D01*
X89797Y449830D01*
X89803Y449807D01*
X89855Y449723D01*
X89901Y449637D01*
X89919Y449620D01*
X89932Y449599D01*
X90007Y449537D01*
X90079Y449470D01*
X90101Y449460D01*
X90120Y449444D01*
X90212Y449410D01*
X90301Y449369D01*
X90326Y449367D01*
X90348Y449358D01*
X90495Y449344D01*
X99031Y449344D01*
X99924Y448450D01*
X99924Y448297D01*
X99928Y448273D01*
X99926Y448248D01*
X99948Y448153D01*
X99964Y448056D01*
X99975Y448034D01*
X99981Y448011D01*
X100033Y447927D01*
X100079Y447841D01*
X100097Y447824D01*
X100110Y447803D01*
X100185Y447741D01*
X100257Y447674D01*
X100279Y447664D01*
X100298Y447648D01*
X100390Y447614D01*
X100479Y447573D01*
X100504Y447571D01*
X100526Y447562D01*
X100673Y447548D01*
X104023Y447548D01*
X105721Y445849D01*
X109198Y442373D01*
X109198Y442372D01*
X110896Y440674D01*
X110896Y436974D01*
X110900Y436950D01*
X110898Y436926D01*
X110920Y436830D01*
X110936Y436733D01*
X110948Y436712D01*
X110953Y436688D01*
X111005Y436605D01*
X111051Y436518D01*
X111069Y436502D01*
X111082Y436481D01*
X111158Y436418D01*
X111229Y436351D01*
X111251Y436341D01*
X111270Y436326D01*
X111362Y436291D01*
X111451Y436251D01*
X111476Y436248D01*
X111499Y436240D01*
X111646Y436225D01*
X111803Y436225D01*
X112196Y435832D01*
X112256Y435789D01*
X112310Y435739D01*
X112354Y435719D01*
X112395Y435690D01*
X112465Y435668D01*
X112532Y435638D01*
X112581Y435633D01*
X112628Y435619D01*
X112701Y435621D01*
X112775Y435614D01*
X112823Y435625D01*
X112872Y435627D01*
X112941Y435653D01*
X113012Y435669D01*
X113054Y435695D01*
X113100Y435713D01*
X113157Y435759D01*
X113220Y435798D01*
X113251Y435836D01*
X113289Y435867D01*
X113328Y435930D01*
X113375Y435986D01*
X113392Y436033D01*
X113418Y436074D01*
X113435Y436146D01*
X113461Y436215D01*
X113468Y436288D01*
X113474Y436312D01*
X113472Y436329D01*
X113475Y436362D01*
X113475Y454046D01*
X115174Y455744D01*
X119256Y459826D01*
X120954Y461525D01*
X140667Y461525D01*
X140692Y461529D01*
X140716Y461526D01*
X140811Y461548D01*
X140908Y461564D01*
X140930Y461576D01*
X140954Y461582D01*
X141037Y461633D01*
X141123Y461679D01*
X141140Y461697D01*
X141161Y461710D01*
X141223Y461786D01*
X141290Y461857D01*
X141300Y461880D01*
X141316Y461899D01*
X141351Y461990D01*
X141391Y462080D01*
X141393Y462104D01*
X141402Y462127D01*
X141417Y462274D01*
X141417Y462372D01*
X142310Y463266D01*
X142367Y463266D01*
X142392Y463270D01*
X142416Y463267D01*
X142511Y463289D01*
X142608Y463305D01*
X142630Y463317D01*
X142654Y463322D01*
X142737Y463374D01*
X142823Y463420D01*
X142840Y463438D01*
X142861Y463451D01*
X142923Y463527D01*
X142990Y463598D01*
X143000Y463621D01*
X143016Y463640D01*
X143051Y463731D01*
X143091Y463821D01*
X143093Y463845D01*
X143102Y463868D01*
X143117Y464015D01*
X143117Y466167D01*
X143113Y466191D01*
X143115Y466215D01*
X143093Y466311D01*
X143077Y466408D01*
X143065Y466429D01*
X143060Y466453D01*
X143008Y466536D01*
X142962Y466623D01*
X142944Y466640D01*
X142931Y466660D01*
X142855Y466723D01*
X142784Y466790D01*
X142762Y466800D01*
X142743Y466815D01*
X142651Y466850D01*
X142562Y466891D01*
X142537Y466893D01*
X142514Y466902D01*
X142367Y466916D01*
X142310Y466916D01*
X141417Y467809D01*
X141417Y475072D01*
X142310Y475966D01*
X148973Y475966D01*
X149432Y475507D01*
X149452Y475493D01*
X149467Y475474D01*
X149550Y475422D01*
X149630Y475365D01*
X149653Y475358D01*
X149674Y475345D01*
X149770Y475322D01*
X149863Y475294D01*
X149888Y475295D01*
X149912Y475289D01*
X150009Y475299D01*
X150107Y475302D01*
X150130Y475310D01*
X150155Y475313D01*
X150244Y475353D01*
X150336Y475388D01*
X150355Y475403D01*
X150377Y475413D01*
X150491Y475507D01*
X150950Y475966D01*
X157613Y475966D01*
X158506Y475072D01*
X158506Y474715D01*
X158510Y474691D01*
X158508Y474666D01*
X158530Y474571D01*
X158546Y474474D01*
X158557Y474452D01*
X158563Y474429D01*
X158615Y474345D01*
X158661Y474259D01*
X158679Y474242D01*
X158692Y474221D01*
X158767Y474159D01*
X158839Y474092D01*
X158861Y474082D01*
X158880Y474066D01*
X158972Y474032D01*
X159061Y473991D01*
X159086Y473989D01*
X159108Y473980D01*
X159255Y473966D01*
X176407Y473966D01*
X178105Y472267D01*
X178106Y472267D01*
X182538Y467835D01*
X184236Y466137D01*
X184236Y423405D01*
X177677Y416846D01*
X168237Y416846D01*
X168213Y416842D01*
X168189Y416845D01*
X168093Y416822D01*
X167997Y416806D01*
X167975Y416795D01*
X167951Y416789D01*
X167868Y416738D01*
X167781Y416691D01*
X167765Y416674D01*
X167744Y416661D01*
X167682Y416585D01*
X167615Y416513D01*
X167604Y416491D01*
X167589Y416472D01*
X167554Y416381D01*
X167514Y416291D01*
X167511Y416267D01*
X167503Y416244D01*
X167488Y416097D01*
X167488Y415691D01*
X166595Y414798D01*
X142472Y414798D01*
X141579Y415691D01*
X141579Y419540D01*
X141563Y419637D01*
X141553Y419734D01*
X141543Y419756D01*
X141539Y419781D01*
X141493Y419867D01*
X141453Y419956D01*
X141432Y419982D01*
X141424Y419996D01*
X141406Y420013D01*
X141359Y420070D01*
X141223Y420206D01*
X141144Y420263D01*
X141069Y420325D01*
X141045Y420334D01*
X141025Y420348D01*
X140932Y420376D01*
X140841Y420411D01*
X140808Y420414D01*
X140792Y420419D01*
X140767Y420418D01*
X140694Y420425D01*
X139162Y420425D01*
X139138Y420422D01*
X139113Y420424D01*
X139018Y420402D01*
X138921Y420386D01*
X138899Y420374D01*
X138875Y420369D01*
X138792Y420317D01*
X138706Y420271D01*
X138689Y420253D01*
X138668Y420240D01*
X138606Y420164D01*
X138539Y420093D01*
X138529Y420070D01*
X138513Y420051D01*
X138479Y419960D01*
X138438Y419871D01*
X138436Y419846D01*
X138427Y419823D01*
X138412Y419676D01*
X138412Y418824D01*
X133197Y418824D01*
X133173Y418821D01*
X133148Y418823D01*
X133053Y418801D01*
X132956Y418785D01*
X132934Y418773D01*
X132911Y418768D01*
X132827Y418716D01*
X132741Y418670D01*
X132724Y418652D01*
X132703Y418639D01*
X132641Y418563D01*
X132574Y418492D01*
X132564Y418469D01*
X132548Y418450D01*
X132491Y418420D01*
X132474Y418402D01*
X132453Y418389D01*
X132391Y418313D01*
X132324Y418242D01*
X132314Y418219D01*
X132298Y418200D01*
X132264Y418109D01*
X132223Y418019D01*
X132221Y417995D01*
X132212Y417972D01*
X132197Y417825D01*
X132197Y413659D01*
X129937Y413659D01*
X129468Y413785D01*
X129355Y413796D01*
X129225Y413809D01*
X129130Y413787D01*
X128988Y413754D01*
X128987Y413754D01*
X128927Y413716D01*
X128780Y413625D01*
X128693Y413519D01*
X128625Y413437D01*
X128625Y413436D01*
X128572Y413295D01*
X128539Y413208D01*
X128525Y413062D01*
X128525Y402356D01*
X128541Y402260D01*
X128550Y402163D01*
X128560Y402140D01*
X128564Y402115D01*
X128611Y402029D01*
X128651Y401941D01*
X128672Y401915D01*
X128679Y401900D01*
X128698Y401883D01*
X128744Y401826D01*
X131315Y399255D01*
X131395Y399198D01*
X131470Y399136D01*
X131493Y399128D01*
X131514Y399113D01*
X131607Y399085D01*
X131698Y399050D01*
X131731Y399047D01*
X131747Y399042D01*
X131772Y399043D01*
X131845Y399036D01*
X166247Y399036D01*
X167945Y397337D01*
X167946Y397337D01*
X172378Y392905D01*
X174076Y391207D01*
X174076Y358635D01*
X161036Y345595D01*
X160979Y345515D01*
X160917Y345440D01*
X160908Y345417D01*
X160893Y345396D01*
X160865Y345303D01*
X160831Y345212D01*
X160827Y345179D01*
X160823Y345163D01*
X160823Y345138D01*
X160816Y345065D01*
X160816Y327516D01*
X160828Y327443D01*
X160831Y327370D01*
X160848Y327324D01*
X160856Y327275D01*
X160891Y327210D01*
X160916Y327141D01*
X160948Y327103D01*
X160971Y327060D01*
X161025Y327009D01*
X161071Y326953D01*
X161113Y326927D01*
X161149Y326893D01*
X161216Y326863D01*
X161278Y326824D01*
X161326Y326813D01*
X161371Y326792D01*
X161444Y326785D01*
X161516Y326768D01*
X161565Y326773D01*
X161614Y326768D01*
X161686Y326785D01*
X161759Y326792D01*
X161804Y326812D01*
X161852Y326823D01*
X161914Y326862D01*
X161981Y326892D01*
X162038Y326939D01*
X162059Y326952D01*
X162070Y326965D01*
X162095Y326986D01*
X165197Y330088D01*
X169386Y330088D01*
X172348Y327125D01*
X172348Y322936D01*
X169386Y319974D01*
X166116Y319974D01*
X166019Y319958D01*
X165922Y319949D01*
X165900Y319939D01*
X165875Y319934D01*
X165789Y319888D01*
X165700Y319848D01*
X165674Y319827D01*
X165660Y319819D01*
X165643Y319801D01*
X165586Y319755D01*
X164560Y318729D01*
X164503Y318649D01*
X164441Y318574D01*
X164432Y318551D01*
X164417Y318530D01*
X164389Y318437D01*
X164355Y318346D01*
X164351Y318313D01*
X164347Y318297D01*
X164347Y318272D01*
X164340Y318199D01*
X164340Y298058D01*
X164343Y298041D01*
X164342Y298029D01*
X164352Y297983D01*
X164356Y297961D01*
X164366Y297864D01*
X164376Y297842D01*
X164380Y297817D01*
X164426Y297731D01*
X164466Y297642D01*
X164487Y297616D01*
X164495Y297602D01*
X164513Y297585D01*
X164560Y297528D01*
X174372Y287715D01*
X174372Y238831D01*
X174388Y238735D01*
X174398Y238638D01*
X174408Y238615D01*
X174412Y238590D01*
X174458Y238504D01*
X174498Y238415D01*
X174519Y238390D01*
X174527Y238375D01*
X174545Y238358D01*
X174592Y238301D01*
X186586Y226307D01*
X186665Y226250D01*
X186740Y226188D01*
X186764Y226180D01*
X186784Y226165D01*
X186877Y226137D01*
X186969Y226102D01*
X187002Y226099D01*
X187018Y226094D01*
X187042Y226095D01*
X187116Y226088D01*
X190386Y226088D01*
X193348Y223125D01*
X193348Y218936D01*
X190386Y215974D01*
X186197Y215974D01*
X183235Y218936D01*
X183235Y222207D01*
X183219Y222303D01*
X183209Y222400D01*
X183199Y222423D01*
X183195Y222448D01*
X183149Y222534D01*
X183109Y222622D01*
X183088Y222648D01*
X183080Y222663D01*
X183062Y222680D01*
X183015Y222737D01*
X172127Y233625D01*
X172067Y233667D01*
X172014Y233718D01*
X171969Y233738D01*
X171929Y233767D01*
X171859Y233788D01*
X171792Y233818D01*
X171743Y233823D01*
X171695Y233838D01*
X171622Y233835D01*
X171549Y233842D01*
X171501Y233831D01*
X171452Y233830D01*
X171383Y233804D01*
X171311Y233787D01*
X171269Y233761D01*
X171223Y233744D01*
X171166Y233697D01*
X171104Y233659D01*
X171073Y233620D01*
X171034Y233589D01*
X170996Y233527D01*
X170949Y233470D01*
X170932Y233424D01*
X170905Y233382D01*
X170889Y233310D01*
X170863Y233242D01*
X170855Y233169D01*
X170850Y233144D01*
X170851Y233128D01*
X170848Y233095D01*
X170848Y218665D01*
X170852Y218641D01*
X170850Y218616D01*
X170872Y218521D01*
X170888Y218424D01*
X170899Y218402D01*
X170905Y218379D01*
X170957Y218295D01*
X171003Y218209D01*
X171021Y218192D01*
X171034Y218171D01*
X171109Y218109D01*
X171181Y218042D01*
X171203Y218032D01*
X171222Y218016D01*
X171314Y217982D01*
X171403Y217941D01*
X171428Y217939D01*
X171450Y217930D01*
X171597Y217916D01*
X172713Y217916D01*
X173606Y217022D01*
X173606Y206096D01*
X173622Y206000D01*
X173632Y205903D01*
X173642Y205880D01*
X173646Y205856D01*
X173692Y205770D01*
X173732Y205681D01*
X173753Y205655D01*
X173761Y205641D01*
X173779Y205624D01*
X173826Y205567D01*
X180188Y199204D01*
X180188Y174058D01*
X170485Y164354D01*
X167456Y164354D01*
X167360Y164338D01*
X167263Y164329D01*
X167240Y164319D01*
X167216Y164314D01*
X167130Y164268D01*
X167041Y164228D01*
X167015Y164207D01*
X167000Y164199D01*
X166983Y164181D01*
X166927Y164135D01*
X166003Y163211D01*
X159320Y163211D01*
X158642Y163889D01*
X158562Y163946D01*
X158487Y164008D01*
X158464Y164017D01*
X158443Y164032D01*
X158350Y164060D01*
X158259Y164094D01*
X158226Y164098D01*
X158210Y164102D01*
X158185Y164102D01*
X158112Y164109D01*
X154511Y164109D01*
X154415Y164093D01*
X154318Y164084D01*
X154295Y164073D01*
X154270Y164069D01*
X154184Y164023D01*
X154096Y163983D01*
X154070Y163962D01*
X154055Y163954D01*
X154038Y163936D01*
X153981Y163889D01*
X153738Y163646D01*
X153681Y163566D01*
X153619Y163491D01*
X153610Y163468D01*
X153596Y163448D01*
X153567Y163354D01*
X153533Y163263D01*
X153530Y163230D01*
X153525Y163214D01*
X153525Y163189D01*
X153518Y163116D01*
X153518Y162075D01*
X153518Y162074D01*
X153518Y160353D01*
X153518Y158818D01*
X152458Y157758D01*
X151216Y156515D01*
X151215Y156515D01*
X138498Y143797D01*
X138441Y143718D01*
X138379Y143643D01*
X138370Y143619D01*
X138355Y143599D01*
X138327Y143505D01*
X138293Y143414D01*
X138289Y143381D01*
X138285Y143365D01*
X138285Y143340D01*
X138278Y143267D01*
X138278Y104208D01*
X126028Y91957D01*
X125971Y91878D01*
X125909Y91803D01*
X125900Y91779D01*
X125885Y91759D01*
X125857Y91665D01*
X125823Y91574D01*
X125819Y91541D01*
X125815Y91525D01*
X125815Y91500D01*
X125808Y91427D01*
X125808Y90886D01*
X122846Y87924D01*
X118657Y87924D01*
X115695Y90886D01*
X115695Y95075D01*
X118785Y98166D01*
X118800Y98186D01*
X118819Y98201D01*
X118870Y98285D01*
X118927Y98364D01*
X118935Y98388D01*
X118948Y98409D01*
X118970Y98504D01*
X118998Y98598D01*
X118998Y98622D01*
X119003Y98646D01*
X118994Y98744D01*
X118990Y98842D01*
X118982Y98865D01*
X118979Y98889D01*
X118939Y98978D01*
X118905Y99070D01*
X118889Y99089D01*
X118879Y99111D01*
X118785Y99226D01*
X117376Y100635D01*
X117297Y100692D01*
X117222Y100753D01*
X117198Y100762D01*
X117178Y100777D01*
X117085Y100805D01*
X116993Y100840D01*
X116960Y100843D01*
X116944Y100848D01*
X116920Y100847D01*
X116847Y100854D01*
X103455Y100854D01*
X103359Y100838D01*
X103262Y100829D01*
X103239Y100819D01*
X103214Y100814D01*
X103128Y100768D01*
X103039Y100728D01*
X103014Y100707D01*
X102999Y100699D01*
X102982Y100681D01*
X102925Y100635D01*
X98068Y95777D01*
X98011Y95698D01*
X97949Y95623D01*
X97940Y95599D01*
X97925Y95579D01*
X97897Y95485D01*
X97863Y95394D01*
X97859Y95361D01*
X97855Y95345D01*
X97855Y95320D01*
X97848Y95247D01*
X97848Y84936D01*
X97864Y84839D01*
X97874Y84743D01*
X97884Y84720D01*
X97888Y84695D01*
X97934Y84609D01*
X97974Y84520D01*
X97995Y84495D01*
X98003Y84480D01*
X98021Y84463D01*
X98068Y84406D01*
X99348Y83125D01*
X99348Y78936D01*
X96246Y75835D01*
X96204Y75775D01*
X96153Y75721D01*
X96133Y75676D01*
X96104Y75636D01*
X96083Y75566D01*
X96053Y75499D01*
X96048Y75450D01*
X96033Y75403D01*
X96036Y75330D01*
X96029Y75256D01*
X96040Y75208D01*
X96041Y75159D01*
X96067Y75090D01*
X96084Y75019D01*
X96110Y74977D01*
X96127Y74931D01*
X96174Y74874D01*
X96213Y74811D01*
X96251Y74780D01*
X96282Y74742D01*
X96344Y74703D01*
X96401Y74656D01*
X96447Y74639D01*
X96489Y74613D01*
X96561Y74596D01*
X96629Y74570D01*
X96702Y74563D01*
X96727Y74557D01*
X96743Y74559D01*
X96776Y74556D01*
X99355Y74556D01*
X99451Y74572D01*
X99548Y74581D01*
X99571Y74591D01*
X99595Y74595D01*
X99681Y74641D01*
X99770Y74681D01*
X99796Y74702D01*
X99810Y74710D01*
X99827Y74728D01*
X99884Y74775D01*
X102197Y77088D01*
X106386Y77088D01*
X109348Y74125D01*
X109348Y69936D01*
X107621Y68209D01*
X107592Y68169D01*
X107556Y68136D01*
X107522Y68071D01*
X107479Y68011D01*
X107465Y67964D01*
X107441Y67920D01*
X107429Y67848D01*
X107408Y67777D01*
X107410Y67728D01*
X107402Y67680D01*
X107413Y67607D01*
X107416Y67533D01*
X107433Y67487D01*
X107441Y67439D01*
X107476Y67374D01*
X107502Y67305D01*
X107533Y67267D01*
X107556Y67224D01*
X107610Y67173D01*
X107656Y67116D01*
X107698Y67090D01*
X107734Y67057D01*
X107863Y66988D01*
X107864Y66987D01*
X107890Y66976D01*
X109255Y66065D01*
X110415Y64904D01*
X111327Y63540D01*
X111955Y62024D01*
X112275Y60414D01*
X112275Y55303D01*
X112013Y55303D01*
X111989Y55299D01*
X111965Y55301D01*
X111869Y55279D01*
X111773Y55263D01*
X111751Y55252D01*
X111727Y55246D01*
X111644Y55194D01*
X111557Y55148D01*
X111541Y55130D01*
X111520Y55117D01*
X111458Y55042D01*
X111391Y54970D01*
X111380Y54948D01*
X111365Y54929D01*
X111330Y54837D01*
X111290Y54748D01*
X111287Y54723D01*
X111279Y54701D01*
X111264Y54554D01*
X111264Y53054D01*
X111267Y53037D01*
X111266Y53024D01*
X111267Y53019D01*
X111266Y53005D01*
X111288Y52910D01*
X111304Y52813D01*
X111315Y52791D01*
X111321Y52767D01*
X111373Y52684D01*
X111419Y52598D01*
X111437Y52581D01*
X111450Y52560D01*
X111525Y52498D01*
X111597Y52431D01*
X111619Y52421D01*
X111638Y52405D01*
X111730Y52371D01*
X111819Y52330D01*
X111844Y52328D01*
X111866Y52319D01*
X112013Y52304D01*
X112275Y52304D01*
X112275Y47193D01*
X111955Y45584D01*
X111327Y44067D01*
X111114Y43749D01*
X110614Y43000D01*
X110613Y43000D01*
X110415Y42703D01*
X109255Y41543D01*
X107890Y40631D01*
X106374Y40003D01*
X105443Y39818D01*
X105443Y40019D01*
X105440Y40043D01*
X105442Y40068D01*
X105420Y40163D01*
X105404Y40260D01*
X105392Y40282D01*
X105387Y40305D01*
X105335Y40389D01*
X105289Y40475D01*
X105271Y40492D01*
X105258Y40513D01*
X105182Y40575D01*
X105111Y40642D01*
X105088Y40652D01*
X105069Y40668D01*
X104978Y40702D01*
X104889Y40743D01*
X104864Y40745D01*
X104841Y40754D01*
X104694Y40769D01*
X103194Y40769D01*
X103170Y40765D01*
X103146Y40767D01*
X103050Y40745D01*
X102954Y40729D01*
X102932Y40717D01*
X102908Y40712D01*
X102825Y40660D01*
X102738Y40614D01*
X102722Y40596D01*
X102701Y40583D01*
X102638Y40507D01*
X102571Y40436D01*
X102561Y40413D01*
X102546Y40395D01*
X102511Y40303D01*
X102471Y40214D01*
X102468Y40189D01*
X102460Y40166D01*
X102445Y40019D01*
X102445Y39818D01*
X101514Y40003D01*
X99998Y40631D01*
X98634Y41543D01*
X97473Y42703D01*
X96562Y44067D01*
X95934Y45584D01*
X95923Y45640D01*
X95914Y45663D01*
X95911Y45688D01*
X95871Y45776D01*
X95837Y45868D01*
X95821Y45887D01*
X95811Y45910D01*
X95744Y45981D01*
X95682Y46057D01*
X95661Y46070D01*
X95644Y46088D01*
X95558Y46134D01*
X95475Y46186D01*
X95451Y46191D01*
X95429Y46203D01*
X95332Y46219D01*
X95237Y46241D01*
X95212Y46239D01*
X95188Y46243D01*
X95092Y46227D01*
X94994Y46218D01*
X94972Y46207D01*
X94947Y46203D01*
X94861Y46157D01*
X94772Y46117D01*
X94754Y46100D01*
X94732Y46089D01*
X94665Y46017D01*
X94594Y45950D01*
X94582Y45929D01*
X94565Y45911D01*
X94495Y45780D01*
X94331Y45384D01*
X92784Y43837D01*
X90762Y42999D01*
X88574Y42999D01*
X86552Y43837D01*
X85005Y45384D01*
X84167Y47406D01*
X84167Y49594D01*
X85005Y51616D01*
X86552Y53163D01*
X88574Y54001D01*
X90762Y54001D01*
X92784Y53163D01*
X94334Y51613D01*
X94394Y51570D01*
X94448Y51520D01*
X94493Y51499D01*
X94533Y51470D01*
X94603Y51449D01*
X94670Y51419D01*
X94719Y51414D01*
X94766Y51400D01*
X94840Y51402D01*
X94913Y51395D01*
X94961Y51406D01*
X95010Y51408D01*
X95079Y51433D01*
X95151Y51450D01*
X95192Y51476D01*
X95239Y51493D01*
X95295Y51540D01*
X95358Y51579D01*
X95389Y51617D01*
X95427Y51648D01*
X95466Y51710D01*
X95513Y51767D01*
X95530Y51813D01*
X95556Y51855D01*
X95573Y51927D01*
X95599Y51995D01*
X95606Y52069D01*
X95612Y52093D01*
X95610Y52109D01*
X95614Y52142D01*
X95614Y52304D01*
X95885Y52304D01*
X95910Y52308D01*
X95934Y52306D01*
X96029Y52328D01*
X96126Y52344D01*
X96148Y52356D01*
X96172Y52361D01*
X96255Y52413D01*
X96341Y52459D01*
X96358Y52477D01*
X96379Y52490D01*
X96441Y52566D01*
X96508Y52637D01*
X96518Y52659D01*
X96534Y52678D01*
X96569Y52770D01*
X96609Y52859D01*
X96611Y52884D01*
X96620Y52907D01*
X96635Y53054D01*
X96635Y54554D01*
X96631Y54578D01*
X96633Y54602D01*
X96611Y54698D01*
X96595Y54794D01*
X96583Y54816D01*
X96578Y54840D01*
X96526Y54923D01*
X96480Y55010D01*
X96462Y55026D01*
X96449Y55047D01*
X96373Y55109D01*
X96302Y55176D01*
X96280Y55186D01*
X96261Y55202D01*
X96169Y55237D01*
X96080Y55277D01*
X96055Y55280D01*
X96032Y55288D01*
X95885Y55303D01*
X95614Y55303D01*
X95614Y60414D01*
X95934Y62024D01*
X96562Y63540D01*
X96799Y63895D01*
X97300Y64644D01*
X97300Y64645D01*
X97473Y64904D01*
X98634Y66065D01*
X99998Y66976D01*
X100515Y67190D01*
X100557Y67216D01*
X100603Y67234D01*
X100660Y67280D01*
X100723Y67319D01*
X100754Y67357D01*
X100792Y67388D01*
X100831Y67451D01*
X100878Y67508D01*
X100895Y67554D01*
X100921Y67595D01*
X100938Y67667D01*
X100964Y67736D01*
X100965Y67785D01*
X100976Y67833D01*
X100969Y67906D01*
X100972Y67980D01*
X100957Y68027D01*
X100953Y68076D01*
X100922Y68143D01*
X100901Y68214D01*
X100872Y68254D01*
X100852Y68298D01*
X100759Y68411D01*
X100759Y68412D01*
X99884Y69287D01*
X99805Y69343D01*
X99730Y69405D01*
X99706Y69414D01*
X99686Y69429D01*
X99593Y69457D01*
X99501Y69492D01*
X99468Y69495D01*
X99452Y69500D01*
X99428Y69499D01*
X99355Y69506D01*
X85365Y69506D01*
X85268Y69490D01*
X85172Y69481D01*
X85149Y69471D01*
X85124Y69466D01*
X85038Y69420D01*
X84949Y69380D01*
X84924Y69359D01*
X84909Y69351D01*
X84892Y69333D01*
X84835Y69287D01*
X81036Y65487D01*
X80979Y65408D01*
X80917Y65333D01*
X80908Y65309D01*
X80893Y65289D01*
X80865Y65196D01*
X80831Y65105D01*
X80827Y65072D01*
X80823Y65056D01*
X80823Y65031D01*
X80816Y64958D01*
X80816Y42985D01*
X79568Y41737D01*
X79511Y41657D01*
X79449Y41582D01*
X79440Y41559D01*
X79425Y41538D01*
X79397Y41445D01*
X79363Y41354D01*
X79359Y41321D01*
X79355Y41305D01*
X79355Y41280D01*
X79348Y41207D01*
X79348Y37936D01*
X76386Y34974D01*
X72197Y34974D01*
X69235Y37936D01*
X69235Y42125D01*
X70804Y43695D01*
X70847Y43755D01*
X70897Y43808D01*
X70918Y43853D01*
X70947Y43893D01*
X70968Y43964D01*
X70998Y44031D01*
X71003Y44080D01*
X71017Y44127D01*
X71015Y44200D01*
X71022Y44273D01*
X71011Y44322D01*
X71009Y44371D01*
X70984Y44440D01*
X70967Y44511D01*
X70941Y44553D01*
X70924Y44599D01*
X70877Y44656D01*
X70838Y44718D01*
X70800Y44750D01*
X70769Y44788D01*
X70707Y44827D01*
X70650Y44873D01*
X70604Y44891D01*
X70562Y44917D01*
X70490Y44934D01*
X70422Y44960D01*
X70348Y44967D01*
X70324Y44972D01*
X70308Y44971D01*
X70275Y44974D01*
X69197Y44974D01*
X66884Y47287D01*
X66805Y47344D01*
X66730Y47405D01*
X66706Y47414D01*
X66686Y47429D01*
X66593Y47457D01*
X66501Y47492D01*
X66468Y47495D01*
X66452Y47500D01*
X66428Y47499D01*
X66355Y47506D01*
X63228Y47506D01*
X63132Y47490D01*
X63035Y47481D01*
X63012Y47471D01*
X62988Y47466D01*
X62901Y47420D01*
X62813Y47380D01*
X62787Y47359D01*
X62772Y47351D01*
X62755Y47333D01*
X62699Y47287D01*
X60386Y44974D01*
X56197Y44974D01*
X53235Y47936D01*
X53235Y52125D01*
X56197Y55088D01*
X60386Y55088D01*
X62699Y52775D01*
X62778Y52718D01*
X62853Y52656D01*
X62877Y52648D01*
X62897Y52633D01*
X62990Y52605D01*
X63081Y52570D01*
X63114Y52567D01*
X63130Y52562D01*
X63155Y52563D01*
X63228Y52556D01*
X66355Y52556D01*
X66451Y52572D01*
X66548Y52581D01*
X66571Y52591D01*
X66595Y52595D01*
X66681Y52641D01*
X66770Y52681D01*
X66796Y52702D01*
X66810Y52710D01*
X66827Y52728D01*
X66884Y52775D01*
X69197Y55088D01*
X73386Y55088D01*
X74488Y53986D01*
X74547Y53943D01*
X74601Y53893D01*
X74646Y53873D01*
X74686Y53844D01*
X74756Y53822D01*
X74823Y53792D01*
X74872Y53787D01*
X74919Y53773D01*
X74993Y53775D01*
X75066Y53768D01*
X75114Y53779D01*
X75163Y53781D01*
X75232Y53807D01*
X75304Y53823D01*
X75346Y53849D01*
X75392Y53867D01*
X75449Y53913D01*
X75511Y53952D01*
X75542Y53990D01*
X75580Y54021D01*
X75619Y54084D01*
X75666Y54140D01*
X75683Y54187D01*
X75709Y54228D01*
X75726Y54300D01*
X75752Y54369D01*
X75759Y54442D01*
X75765Y54466D01*
X75763Y54483D01*
X75767Y54516D01*
X75767Y67359D01*
X82963Y74556D01*
X91807Y74556D01*
X91879Y74568D01*
X91952Y74570D01*
X91999Y74587D01*
X92047Y74595D01*
X92112Y74630D01*
X92181Y74656D01*
X92219Y74687D01*
X92263Y74710D01*
X92313Y74764D01*
X92370Y74811D01*
X92396Y74852D01*
X92429Y74888D01*
X92460Y74955D01*
X92499Y75018D01*
X92510Y75066D01*
X92530Y75111D01*
X92537Y75184D01*
X92554Y75255D01*
X92549Y75304D01*
X92554Y75353D01*
X92538Y75425D01*
X92530Y75498D01*
X92510Y75543D01*
X92499Y75591D01*
X92460Y75654D01*
X92430Y75720D01*
X92384Y75777D01*
X92370Y75798D01*
X92357Y75809D01*
X92336Y75835D01*
X89884Y78287D01*
X89805Y78343D01*
X89730Y78405D01*
X89706Y78414D01*
X89686Y78429D01*
X89593Y78457D01*
X89501Y78492D01*
X89468Y78495D01*
X89452Y78500D01*
X89428Y78499D01*
X89355Y78506D01*
X75246Y78506D01*
X73547Y80204D01*
X73547Y80205D01*
X69767Y83985D01*
X69767Y95110D01*
X69751Y95207D01*
X69741Y95303D01*
X69731Y95326D01*
X69727Y95351D01*
X69681Y95437D01*
X69641Y95526D01*
X69620Y95551D01*
X69612Y95566D01*
X69594Y95583D01*
X69547Y95640D01*
X52187Y113001D01*
X52187Y131706D01*
X52171Y131803D01*
X52161Y131900D01*
X52151Y131922D01*
X52147Y131947D01*
X52101Y132033D01*
X52061Y132122D01*
X52040Y132148D01*
X52032Y132162D01*
X52014Y132179D01*
X51967Y132236D01*
X49338Y134866D01*
X49318Y134880D01*
X49302Y134899D01*
X49219Y134951D01*
X49139Y135008D01*
X49116Y135015D01*
X49095Y135028D01*
X49000Y135051D01*
X48906Y135079D01*
X48881Y135078D01*
X48857Y135084D01*
X48760Y135074D01*
X48662Y135071D01*
X48639Y135063D01*
X48614Y135060D01*
X48525Y135020D01*
X48433Y134985D01*
X48414Y134970D01*
X48392Y134960D01*
X48278Y134866D01*
X46386Y132974D01*
X42197Y132974D01*
X39235Y135936D01*
X39235Y140125D01*
X42197Y143088D01*
X46386Y143088D01*
X48699Y140775D01*
X48778Y140718D01*
X48853Y140656D01*
X48877Y140648D01*
X48897Y140633D01*
X48990Y140605D01*
X49081Y140570D01*
X49114Y140567D01*
X49130Y140562D01*
X49155Y140563D01*
X49228Y140556D01*
X50789Y140556D01*
X51432Y139913D01*
X51491Y139870D01*
X51545Y139820D01*
X51590Y139800D01*
X51630Y139771D01*
X51700Y139749D01*
X51767Y139719D01*
X51816Y139714D01*
X51863Y139700D01*
X51937Y139702D01*
X52010Y139695D01*
X52058Y139706D01*
X52107Y139708D01*
X52176Y139734D01*
X52248Y139750D01*
X52290Y139776D01*
X52336Y139794D01*
X52392Y139840D01*
X52455Y139879D01*
X52486Y139917D01*
X52524Y139948D01*
X52563Y140011D01*
X52610Y140067D01*
X52627Y140114D01*
X52653Y140155D01*
X52670Y140227D01*
X52696Y140296D01*
X52703Y140369D01*
X52709Y140393D01*
X52707Y140410D01*
X52711Y140443D01*
X52711Y147731D01*
X52695Y147827D01*
X52685Y147924D01*
X52675Y147947D01*
X52671Y147971D01*
X52625Y148058D01*
X52585Y148146D01*
X52564Y148172D01*
X52556Y148187D01*
X52538Y148204D01*
X52491Y148261D01*
X50465Y150287D01*
X50386Y150344D01*
X50311Y150405D01*
X50287Y150414D01*
X50267Y150429D01*
X50173Y150457D01*
X50082Y150492D01*
X50049Y150495D01*
X50033Y150500D01*
X50008Y150499D01*
X49935Y150506D01*
X29828Y150506D01*
X29732Y150490D01*
X29635Y150481D01*
X29612Y150471D01*
X29588Y150466D01*
X29501Y150420D01*
X29413Y150380D01*
X29387Y150359D01*
X29372Y150351D01*
X29355Y150333D01*
X29299Y150287D01*
X26986Y147974D01*
X22797Y147974D01*
X19835Y150936D01*
X19835Y155125D01*
X22797Y158088D01*
X26986Y158088D01*
X29299Y155775D01*
X29378Y155718D01*
X29453Y155656D01*
X29477Y155648D01*
X29497Y155633D01*
X29590Y155605D01*
X29681Y155570D01*
X29714Y155567D01*
X29730Y155562D01*
X29755Y155563D01*
X29828Y155556D01*
X52337Y155556D01*
X57488Y150405D01*
X57547Y150362D01*
X57601Y150312D01*
X57646Y150292D01*
X57686Y150263D01*
X57756Y150242D01*
X57823Y150211D01*
X57872Y150206D01*
X57919Y150192D01*
X57993Y150195D01*
X58066Y150187D01*
X58114Y150198D01*
X58163Y150200D01*
X58232Y150226D01*
X58304Y150243D01*
X58346Y150269D01*
X58392Y150286D01*
X58449Y150332D01*
X58511Y150371D01*
X58542Y150409D01*
X58580Y150441D01*
X58619Y150503D01*
X58666Y150560D01*
X58683Y150606D01*
X58709Y150648D01*
X58726Y150719D01*
X58752Y150788D01*
X58759Y150861D01*
X58765Y150885D01*
X58763Y150902D01*
X58767Y150935D01*
X58767Y175077D01*
X71246Y187556D01*
X93855Y187556D01*
X93952Y187572D01*
X94049Y187581D01*
X94071Y187591D01*
X94096Y187595D01*
X94182Y187641D01*
X94271Y187681D01*
X94297Y187702D01*
X94311Y187710D01*
X94328Y187728D01*
X94385Y187775D01*
X101385Y194775D01*
X101428Y194835D01*
X101478Y194888D01*
X101499Y194933D01*
X101527Y194973D01*
X101549Y195044D01*
X101579Y195111D01*
X101584Y195160D01*
X101598Y195207D01*
X101596Y195280D01*
X101603Y195353D01*
X101592Y195402D01*
X101590Y195451D01*
X101564Y195520D01*
X101548Y195591D01*
X101522Y195633D01*
X101504Y195679D01*
X101458Y195736D01*
X101419Y195798D01*
X101381Y195830D01*
X101350Y195868D01*
X101287Y195907D01*
X101231Y195953D01*
X101185Y195971D01*
X101143Y195997D01*
X101071Y196014D01*
X101002Y196040D01*
X100929Y196047D01*
X100905Y196052D01*
X100888Y196051D01*
X100855Y196054D01*
X97197Y196054D01*
X94235Y199016D01*
X94235Y200557D01*
X94219Y200653D01*
X94209Y200750D01*
X94199Y200773D01*
X94195Y200797D01*
X94149Y200884D01*
X94109Y200972D01*
X94088Y200998D01*
X94080Y201013D01*
X94062Y201030D01*
X94015Y201087D01*
X88767Y206335D01*
X88767Y210675D01*
X88751Y210771D01*
X88741Y210868D01*
X88731Y210891D01*
X88727Y210915D01*
X88681Y211002D01*
X88641Y211090D01*
X88620Y211116D01*
X88612Y211131D01*
X88594Y211148D01*
X88547Y211205D01*
X87513Y212239D01*
X87434Y212296D01*
X87359Y212357D01*
X87335Y212366D01*
X87315Y212381D01*
X87221Y212409D01*
X87130Y212444D01*
X87097Y212447D01*
X87081Y212452D01*
X87056Y212451D01*
X86983Y212458D01*
X29570Y212458D01*
X29473Y212442D01*
X29376Y212433D01*
X29354Y212423D01*
X29329Y212418D01*
X29243Y212372D01*
X29154Y212332D01*
X29128Y212311D01*
X29114Y212303D01*
X29097Y212285D01*
X29040Y212239D01*
X28006Y211205D01*
X27949Y211125D01*
X27887Y211050D01*
X27878Y211027D01*
X27863Y211006D01*
X27835Y210913D01*
X27801Y210822D01*
X27797Y210789D01*
X27793Y210773D01*
X27793Y210748D01*
X27786Y210675D01*
X27786Y200588D01*
X24482Y197283D01*
X24425Y197204D01*
X24363Y197128D01*
X24354Y197105D01*
X24339Y197085D01*
X24311Y196991D01*
X24277Y196900D01*
X24273Y196867D01*
X24269Y196851D01*
X24269Y196826D01*
X24262Y196753D01*
X24262Y164771D01*
X11930Y152439D01*
X11902Y152399D01*
X11866Y152366D01*
X11831Y152301D01*
X11788Y152241D01*
X11774Y152194D01*
X11751Y152151D01*
X11739Y152078D01*
X11717Y152007D01*
X11719Y151958D01*
X11711Y151910D01*
X11723Y151837D01*
X11725Y151763D01*
X11743Y151717D01*
X11751Y151669D01*
X11785Y151604D01*
X11811Y151535D01*
X11842Y151497D01*
X11865Y151454D01*
X11919Y151403D01*
X11966Y151346D01*
X12008Y151320D01*
X12043Y151287D01*
X12172Y151218D01*
X12173Y151217D01*
X12174Y151217D01*
X12479Y151091D01*
X15551Y148018D01*
X17214Y144004D01*
X17214Y139658D01*
X15551Y135644D01*
X12479Y132571D01*
X8464Y130908D01*
X4119Y130908D01*
X104Y132571D01*
X-2048Y134723D01*
X-2107Y134766D01*
X-2161Y134816D01*
X-2206Y134836D01*
X-2246Y134865D01*
X-2316Y134887D01*
X-2383Y134917D01*
X-2432Y134922D01*
X-2480Y134936D01*
X-2553Y134934D01*
X-2626Y134941D01*
X-2674Y134930D01*
X-2723Y134928D01*
X-2792Y134902D01*
X-2864Y134886D01*
X-2906Y134860D01*
X-2952Y134842D01*
X-3009Y134796D01*
X-3071Y134757D01*
X-3102Y134719D01*
X-3141Y134688D01*
X-3179Y134625D01*
X-3226Y134568D01*
X-3243Y134522D01*
X-3270Y134480D01*
X-3286Y134409D01*
X-3312Y134340D01*
X-3320Y134267D01*
X-3325Y134243D01*
X-3324Y134226D01*
X-3327Y134193D01*
X-3327Y125505D01*
X-3315Y125433D01*
X-3312Y125359D01*
X-3295Y125313D01*
X-3287Y125265D01*
X-3252Y125200D01*
X-3227Y125131D01*
X-3195Y125093D01*
X-3172Y125049D01*
X-3118Y124999D01*
X-3072Y124942D01*
X-3030Y124916D01*
X-2994Y124883D01*
X-2927Y124852D01*
X-2865Y124813D01*
X-2817Y124802D01*
X-2772Y124782D01*
X-2699Y124774D01*
X-2627Y124758D01*
X-2578Y124763D01*
X-2529Y124758D01*
X-2457Y124774D01*
X-2384Y124781D01*
X-2339Y124802D01*
X-2291Y124813D01*
X-2229Y124852D01*
X-2162Y124882D01*
X-2105Y124928D01*
X-2084Y124942D01*
X-2073Y124955D01*
X-2048Y124976D01*
X-1486Y125537D01*
X34Y126642D01*
X1709Y127495D01*
X3496Y128076D01*
X4792Y128281D01*
X4792Y117181D01*
X4796Y117157D01*
X4794Y117132D01*
X4816Y117037D01*
X4832Y116940D01*
X4843Y116919D01*
X4849Y116895D01*
X4901Y116811D01*
X4947Y116725D01*
X4965Y116708D01*
X4978Y116687D01*
X5053Y116625D01*
X5125Y116558D01*
X5147Y116548D01*
X5166Y116533D01*
X5258Y116498D01*
X5347Y116457D01*
X5372Y116455D01*
X5394Y116446D01*
X5541Y116432D01*
X6292Y116432D01*
X6292Y116430D01*
X5541Y116430D01*
X5517Y116426D01*
X5493Y116428D01*
X5397Y116406D01*
X5301Y116390D01*
X5279Y116379D01*
X5255Y116373D01*
X5172Y116321D01*
X5085Y116275D01*
X5069Y116257D01*
X5048Y116244D01*
X4986Y116169D01*
X4919Y116097D01*
X4909Y116075D01*
X4893Y116056D01*
X4858Y115964D01*
X4818Y115875D01*
X4815Y115851D01*
X4807Y115828D01*
X4792Y115681D01*
X4792Y104581D01*
X3496Y104786D01*
X1709Y105367D01*
X34Y106220D01*
X-1486Y107325D01*
X-2048Y107886D01*
X-2107Y107929D01*
X-2161Y107979D01*
X-2206Y108000D01*
X-2246Y108028D01*
X-2316Y108050D01*
X-2383Y108080D01*
X-2432Y108085D01*
X-2480Y108099D01*
X-2553Y108097D01*
X-2626Y108104D01*
X-2674Y108093D01*
X-2723Y108091D01*
X-2792Y108065D01*
X-2864Y108049D01*
X-2906Y108023D01*
X-2952Y108005D01*
X-3009Y107959D01*
X-3071Y107920D01*
X-3102Y107882D01*
X-3141Y107851D01*
X-3179Y107788D01*
X-3226Y107732D01*
X-3243Y107686D01*
X-3270Y107644D01*
X-3286Y107572D01*
X-3312Y107503D01*
X-3320Y107430D01*
X-3325Y107406D01*
X-3324Y107389D01*
X-3327Y107356D01*
X-3327Y98669D01*
X-3315Y98596D01*
X-3312Y98523D01*
X-3295Y98476D01*
X-3287Y98428D01*
X-3252Y98363D01*
X-3227Y98294D01*
X-3195Y98256D01*
X-3172Y98213D01*
X-3119Y98162D01*
X-3072Y98105D01*
X-3030Y98079D01*
X-2994Y98046D01*
X-2927Y98015D01*
X-2865Y97977D01*
X-2817Y97965D01*
X-2772Y97945D01*
X-2699Y97938D01*
X-2627Y97921D01*
X-2578Y97926D01*
X-2529Y97921D01*
X-2457Y97937D01*
X-2384Y97945D01*
X-2339Y97965D01*
X-2291Y97976D01*
X-2229Y98015D01*
X-2162Y98045D01*
X-2105Y98092D01*
X-2084Y98105D01*
X-2073Y98118D01*
X-2048Y98139D01*
X104Y100291D01*
X4119Y101954D01*
X8464Y101954D01*
X12479Y100291D01*
X15551Y97218D01*
X17214Y93204D01*
X17214Y88858D01*
X15551Y84844D01*
X12479Y81771D01*
X8464Y80108D01*
X4119Y80108D01*
X104Y81771D01*
X-2048Y83923D01*
X-2107Y83966D01*
X-2161Y84016D01*
X-2206Y84036D01*
X-2246Y84065D01*
X-2316Y84087D01*
X-2383Y84117D01*
X-2432Y84122D01*
X-2480Y84136D01*
X-2553Y84134D01*
X-2626Y84141D01*
X-2674Y84130D01*
X-2723Y84128D01*
X-2792Y84102D01*
X-2864Y84086D01*
X-2906Y84060D01*
X-2952Y84042D01*
X-3009Y83996D01*
X-3071Y83957D01*
X-3102Y83919D01*
X-3141Y83888D01*
X-3179Y83825D01*
X-3226Y83768D01*
X-3243Y83722D01*
X-3270Y83680D01*
X-3286Y83609D01*
X-3312Y83540D01*
X-3320Y83467D01*
X-3325Y83443D01*
X-3324Y83426D01*
X-3327Y83393D01*
X-3327Y9164D01*
X-3316Y9101D01*
X-3316Y9038D01*
X-3297Y8982D01*
X-3287Y8924D01*
X-3257Y8867D01*
X-3244Y8831D01*
X-3324Y7957D01*
X-3322Y7935D01*
X-3327Y7889D01*
X-3327Y6870D01*
X-3328Y6867D01*
X-3331Y6833D01*
X-3336Y6817D01*
X-3336Y6792D01*
X-3343Y6720D01*
X-3350Y4432D01*
X-3346Y4408D01*
X-3348Y4383D01*
X-3325Y4237D01*
X-1627Y-2151D01*
X-1603Y-2203D01*
X-1589Y-2259D01*
X-1534Y-2358D01*
X-1527Y-2373D01*
X-1522Y-2378D01*
X-1517Y-2388D01*
X2271Y-7805D01*
X2311Y-7846D01*
X2343Y-7894D01*
X2429Y-7967D01*
X2441Y-7980D01*
X2447Y-7982D01*
X2456Y-7990D01*
X7873Y-11777D01*
X7925Y-11802D01*
X7971Y-11836D01*
X8077Y-11875D01*
X8093Y-11883D01*
X8099Y-11884D01*
X8110Y-11887D01*
X14498Y-13585D01*
X14523Y-13588D01*
X14546Y-13596D01*
X14693Y-13610D01*
X15978Y-13606D01*
G37*
G36*
X89451Y83572D02*
X89451Y83572D01*
X89548Y83581D01*
X89571Y83591D01*
X89595Y83595D01*
X89681Y83641D01*
X89770Y83681D01*
X89796Y83702D01*
X89810Y83710D01*
X89827Y83728D01*
X89884Y83775D01*
X90515Y84406D01*
X90572Y84485D01*
X90634Y84561D01*
X90643Y84584D01*
X90657Y84604D01*
X90686Y84698D01*
X90720Y84789D01*
X90723Y84822D01*
X90728Y84838D01*
X90727Y84863D01*
X90735Y84936D01*
X90735Y98504D01*
X93037Y100807D01*
X93038Y100807D01*
X100198Y107968D01*
X116847Y107968D01*
X116943Y107984D01*
X117040Y107993D01*
X117063Y108003D01*
X117087Y108007D01*
X117173Y108053D01*
X117262Y108093D01*
X117288Y108114D01*
X117302Y108122D01*
X117319Y108140D01*
X117376Y108187D01*
X118657Y109468D01*
X122846Y109468D01*
X125808Y106505D01*
X125808Y103606D01*
X125820Y103534D01*
X125823Y103461D01*
X125840Y103414D01*
X125848Y103366D01*
X125883Y103301D01*
X125908Y103232D01*
X125940Y103194D01*
X125963Y103150D01*
X126017Y103100D01*
X126063Y103043D01*
X126105Y103017D01*
X126141Y102984D01*
X126208Y102953D01*
X126270Y102914D01*
X126318Y102903D01*
X126363Y102883D01*
X126436Y102876D01*
X126508Y102859D01*
X126557Y102864D01*
X126606Y102859D01*
X126678Y102875D01*
X126751Y102883D01*
X126796Y102903D01*
X126844Y102914D01*
X126906Y102953D01*
X126973Y102983D01*
X127030Y103030D01*
X127051Y103043D01*
X127062Y103056D01*
X127087Y103077D01*
X130945Y106935D01*
X131002Y107014D01*
X131064Y107089D01*
X131073Y107113D01*
X131087Y107133D01*
X131116Y107226D01*
X131150Y107318D01*
X131153Y107351D01*
X131158Y107367D01*
X131157Y107391D01*
X131165Y107464D01*
X131165Y146524D01*
X146185Y161545D01*
X146242Y161624D01*
X146304Y161699D01*
X146313Y161723D01*
X146327Y161743D01*
X146356Y161836D01*
X146390Y161928D01*
X146394Y161961D01*
X146398Y161977D01*
X146398Y162001D01*
X146405Y162075D01*
X146405Y163116D01*
X146389Y163212D01*
X146379Y163309D01*
X146369Y163332D01*
X146365Y163357D01*
X146319Y163443D01*
X146279Y163531D01*
X146258Y163557D01*
X146250Y163572D01*
X146232Y163589D01*
X146185Y163646D01*
X145262Y164569D01*
X145262Y171252D01*
X146185Y172176D01*
X146242Y172255D01*
X146304Y172331D01*
X146313Y172354D01*
X146327Y172374D01*
X146356Y172468D01*
X146390Y172559D01*
X146393Y172592D01*
X146398Y172608D01*
X146397Y172633D01*
X146405Y172706D01*
X146405Y178704D01*
X150837Y183137D01*
X150894Y183216D01*
X150956Y183291D01*
X150965Y183315D01*
X150979Y183335D01*
X151008Y183428D01*
X151042Y183520D01*
X151045Y183553D01*
X151050Y183569D01*
X151049Y183593D01*
X151057Y183666D01*
X151057Y193847D01*
X151053Y193871D01*
X151055Y193895D01*
X151033Y193991D01*
X151017Y194088D01*
X151005Y194109D01*
X151000Y194133D01*
X150948Y194216D01*
X150902Y194303D01*
X150884Y194320D01*
X150871Y194340D01*
X150795Y194403D01*
X150724Y194470D01*
X150702Y194480D01*
X150683Y194495D01*
X150591Y194530D01*
X150502Y194571D01*
X150477Y194573D01*
X150454Y194582D01*
X150307Y194596D01*
X144968Y194596D01*
X144871Y194580D01*
X144774Y194571D01*
X144752Y194561D01*
X144727Y194556D01*
X144641Y194510D01*
X144552Y194470D01*
X144526Y194449D01*
X144512Y194441D01*
X144495Y194423D01*
X144438Y194377D01*
X138228Y188167D01*
X138171Y188087D01*
X138109Y188012D01*
X138100Y187989D01*
X138085Y187968D01*
X138057Y187875D01*
X138023Y187784D01*
X138019Y187751D01*
X138015Y187735D01*
X138015Y187710D01*
X138008Y187637D01*
X138008Y184917D01*
X138011Y184902D01*
X138010Y184892D01*
X138011Y184885D01*
X138010Y184868D01*
X138032Y184773D01*
X138048Y184676D01*
X138059Y184654D01*
X138065Y184631D01*
X138117Y184547D01*
X138163Y184461D01*
X138181Y184444D01*
X138194Y184423D01*
X138269Y184361D01*
X138341Y184294D01*
X138363Y184284D01*
X138382Y184268D01*
X138474Y184234D01*
X138563Y184193D01*
X138588Y184191D01*
X138610Y184182D01*
X138757Y184168D01*
X141703Y184168D01*
X142596Y183274D01*
X142596Y178455D01*
X142234Y178093D01*
X142219Y178073D01*
X142200Y178057D01*
X142149Y177974D01*
X142091Y177894D01*
X142084Y177871D01*
X142071Y177850D01*
X142049Y177755D01*
X142021Y177661D01*
X142021Y177636D01*
X142016Y177613D01*
X142025Y177515D01*
X142028Y177417D01*
X142037Y177394D01*
X142039Y177370D01*
X142080Y177280D01*
X142114Y177189D01*
X142130Y177170D01*
X142140Y177147D01*
X142234Y177033D01*
X142596Y176670D01*
X142596Y171851D01*
X142234Y171489D01*
X142219Y171469D01*
X142200Y171453D01*
X142149Y171370D01*
X142091Y171290D01*
X142084Y171267D01*
X142071Y171246D01*
X142049Y171151D01*
X142021Y171057D01*
X142021Y171032D01*
X142016Y171009D01*
X142025Y170911D01*
X142028Y170813D01*
X142037Y170790D01*
X142039Y170766D01*
X142080Y170676D01*
X142114Y170585D01*
X142130Y170566D01*
X142140Y170543D01*
X142234Y170429D01*
X142596Y170066D01*
X142596Y165247D01*
X141703Y164354D01*
X131998Y164354D01*
X131926Y164342D01*
X131852Y164340D01*
X131806Y164322D01*
X131758Y164314D01*
X131693Y164280D01*
X131624Y164254D01*
X131586Y164223D01*
X131542Y164199D01*
X131492Y164146D01*
X131435Y164099D01*
X131409Y164057D01*
X131375Y164021D01*
X131345Y163954D01*
X131306Y163892D01*
X131295Y163844D01*
X131275Y163799D01*
X131267Y163726D01*
X131251Y163655D01*
X131255Y163606D01*
X131251Y163556D01*
X131267Y163485D01*
X131274Y163412D01*
X131295Y163367D01*
X131306Y163319D01*
X131345Y163256D01*
X131375Y163189D01*
X131421Y163133D01*
X131435Y163111D01*
X131447Y163101D01*
X131469Y163075D01*
X132158Y162385D01*
X132158Y158196D01*
X129196Y155234D01*
X125007Y155234D01*
X122045Y158196D01*
X122045Y162385D01*
X122734Y163075D01*
X122777Y163135D01*
X122827Y163188D01*
X122848Y163233D01*
X122877Y163273D01*
X122898Y163344D01*
X122928Y163411D01*
X122933Y163460D01*
X122947Y163507D01*
X122945Y163580D01*
X122952Y163653D01*
X122941Y163702D01*
X122939Y163751D01*
X122914Y163819D01*
X122897Y163891D01*
X122871Y163933D01*
X122854Y163979D01*
X122807Y164036D01*
X122768Y164098D01*
X122730Y164130D01*
X122699Y164168D01*
X122637Y164207D01*
X122580Y164253D01*
X122534Y164271D01*
X122492Y164297D01*
X122420Y164314D01*
X122352Y164340D01*
X122278Y164347D01*
X122254Y164352D01*
X122238Y164351D01*
X122205Y164354D01*
X109960Y164354D01*
X109067Y165247D01*
X109067Y168856D01*
X109055Y168929D01*
X109052Y169002D01*
X109035Y169048D01*
X109027Y169097D01*
X108992Y169162D01*
X108966Y169230D01*
X108935Y169268D01*
X108912Y169312D01*
X108858Y169362D01*
X108812Y169419D01*
X108770Y169445D01*
X108734Y169479D01*
X108667Y169509D01*
X108605Y169548D01*
X108557Y169559D01*
X108512Y169580D01*
X108439Y169587D01*
X108367Y169604D01*
X108318Y169599D01*
X108269Y169604D01*
X108197Y169587D01*
X108124Y169580D01*
X108079Y169560D01*
X108031Y169548D01*
X107969Y169510D01*
X107902Y169479D01*
X107845Y169433D01*
X107824Y169420D01*
X107813Y169407D01*
X107788Y169386D01*
X107606Y169204D01*
X103417Y169204D01*
X100455Y172166D01*
X100455Y174709D01*
X100451Y174733D01*
X100453Y174757D01*
X100431Y174853D01*
X100415Y174950D01*
X100403Y174971D01*
X100398Y174995D01*
X100346Y175078D01*
X100300Y175165D01*
X100282Y175182D01*
X100269Y175202D01*
X100193Y175265D01*
X100122Y175332D01*
X100100Y175342D01*
X100081Y175357D01*
X99989Y175392D01*
X99900Y175433D01*
X99875Y175435D01*
X99852Y175444D01*
X99705Y175458D01*
X82107Y175458D01*
X82083Y175454D01*
X82059Y175457D01*
X81963Y175434D01*
X81867Y175418D01*
X81845Y175407D01*
X81821Y175401D01*
X81738Y175350D01*
X81651Y175303D01*
X81635Y175286D01*
X81614Y175273D01*
X81552Y175197D01*
X81485Y175125D01*
X81474Y175103D01*
X81459Y175084D01*
X81424Y174993D01*
X81384Y174903D01*
X81381Y174879D01*
X81373Y174856D01*
X81358Y174709D01*
X81358Y172166D01*
X78396Y169204D01*
X74207Y169204D01*
X71245Y172166D01*
X71245Y173621D01*
X71233Y173694D01*
X71230Y173767D01*
X71213Y173813D01*
X71205Y173862D01*
X71170Y173927D01*
X71145Y173995D01*
X71113Y174034D01*
X71090Y174077D01*
X71036Y174127D01*
X70990Y174184D01*
X70948Y174210D01*
X70912Y174244D01*
X70845Y174274D01*
X70783Y174313D01*
X70735Y174324D01*
X70690Y174345D01*
X70616Y174352D01*
X70545Y174369D01*
X70496Y174364D01*
X70447Y174369D01*
X70375Y174352D01*
X70302Y174345D01*
X70257Y174325D01*
X70209Y174313D01*
X70147Y174275D01*
X70080Y174244D01*
X70023Y174198D01*
X70002Y174185D01*
X69991Y174172D01*
X69966Y174151D01*
X67560Y171745D01*
X67503Y171666D01*
X67441Y171590D01*
X67432Y171567D01*
X67417Y171546D01*
X67389Y171453D01*
X67355Y171362D01*
X67351Y171329D01*
X67347Y171313D01*
X67347Y171288D01*
X67340Y171215D01*
X67340Y148863D01*
X67356Y148767D01*
X67366Y148670D01*
X67376Y148647D01*
X67380Y148622D01*
X67426Y148536D01*
X67466Y148447D01*
X67487Y148422D01*
X67495Y148407D01*
X67513Y148390D01*
X67560Y148333D01*
X69872Y146021D01*
X69872Y136477D01*
X67036Y133640D01*
X66979Y133561D01*
X66917Y133485D01*
X66908Y133462D01*
X66893Y133442D01*
X66865Y133348D01*
X66831Y133257D01*
X66827Y133224D01*
X66823Y133208D01*
X66823Y133183D01*
X66816Y133110D01*
X66816Y127968D01*
X66818Y127955D01*
X66818Y127949D01*
X66823Y127927D01*
X66832Y127871D01*
X66842Y127775D01*
X66852Y127752D01*
X66856Y127727D01*
X66902Y127641D01*
X66942Y127552D01*
X66963Y127527D01*
X66971Y127512D01*
X66989Y127495D01*
X67036Y127438D01*
X69348Y125125D01*
X69348Y120936D01*
X66386Y117974D01*
X64728Y117974D01*
X64655Y117962D01*
X64582Y117960D01*
X64535Y117942D01*
X64487Y117934D01*
X64422Y117900D01*
X64353Y117874D01*
X64315Y117843D01*
X64272Y117819D01*
X64221Y117766D01*
X64164Y117719D01*
X64138Y117677D01*
X64105Y117641D01*
X64074Y117575D01*
X64035Y117512D01*
X64024Y117464D01*
X64004Y117419D01*
X63997Y117346D01*
X63980Y117275D01*
X63985Y117226D01*
X63980Y117176D01*
X63996Y117105D01*
X64004Y117032D01*
X64024Y116987D01*
X64035Y116939D01*
X64074Y116876D01*
X64104Y116809D01*
X64151Y116753D01*
X64164Y116731D01*
X64177Y116721D01*
X64198Y116695D01*
X64586Y116307D01*
X64665Y116250D01*
X64740Y116188D01*
X64764Y116180D01*
X64784Y116165D01*
X64878Y116137D01*
X64969Y116102D01*
X65002Y116099D01*
X65018Y116094D01*
X65042Y116095D01*
X65116Y116088D01*
X68386Y116088D01*
X71348Y113125D01*
X71348Y108936D01*
X68386Y105974D01*
X68163Y105974D01*
X68090Y105962D01*
X68017Y105960D01*
X67971Y105942D01*
X67922Y105934D01*
X67857Y105900D01*
X67789Y105874D01*
X67751Y105843D01*
X67707Y105819D01*
X67657Y105766D01*
X67600Y105719D01*
X67574Y105677D01*
X67540Y105641D01*
X67510Y105574D01*
X67471Y105512D01*
X67460Y105464D01*
X67439Y105419D01*
X67432Y105346D01*
X67415Y105275D01*
X67420Y105226D01*
X67415Y105176D01*
X67432Y105105D01*
X67439Y105032D01*
X67459Y104987D01*
X67471Y104939D01*
X67509Y104876D01*
X67540Y104809D01*
X67586Y104753D01*
X67599Y104731D01*
X67612Y104721D01*
X67633Y104695D01*
X74816Y97512D01*
X74816Y86387D01*
X74832Y86291D01*
X74842Y86194D01*
X74852Y86171D01*
X74856Y86146D01*
X74902Y86060D01*
X74942Y85971D01*
X74963Y85946D01*
X74971Y85931D01*
X74989Y85914D01*
X75036Y85857D01*
X77118Y83775D01*
X77197Y83718D01*
X77272Y83656D01*
X77296Y83648D01*
X77316Y83633D01*
X77409Y83605D01*
X77501Y83570D01*
X77534Y83567D01*
X77550Y83562D01*
X77574Y83563D01*
X77648Y83556D01*
X89355Y83556D01*
X89451Y83572D01*
G37*
%LPC*%
G36*
X159246Y19506D02*
X159246Y19506D01*
X157547Y21205D01*
X153612Y25140D01*
X153592Y25155D01*
X153576Y25173D01*
X153506Y25217D01*
X153466Y25250D01*
X153450Y25256D01*
X153413Y25282D01*
X153390Y25289D01*
X153369Y25302D01*
X153274Y25325D01*
X153244Y25334D01*
X153238Y25336D01*
X153235Y25336D01*
X153180Y25353D01*
X153155Y25352D01*
X153131Y25358D01*
X153034Y25348D01*
X152936Y25345D01*
X152913Y25337D01*
X152889Y25334D01*
X152840Y25312D01*
X152832Y25311D01*
X152806Y25297D01*
X152799Y25294D01*
X152708Y25259D01*
X152689Y25244D01*
X152666Y25234D01*
X152626Y25201D01*
X152617Y25196D01*
X152606Y25185D01*
X152552Y25140D01*
X150386Y22974D01*
X146197Y22974D01*
X143235Y25936D01*
X143235Y30125D01*
X146197Y33088D01*
X150386Y33088D01*
X152699Y30775D01*
X152778Y30718D01*
X152853Y30656D01*
X152877Y30648D01*
X152897Y30633D01*
X152990Y30605D01*
X153081Y30570D01*
X153114Y30567D01*
X153130Y30562D01*
X153155Y30563D01*
X153228Y30556D01*
X155337Y30556D01*
X161118Y24775D01*
X161197Y24718D01*
X161272Y24656D01*
X161296Y24648D01*
X161316Y24633D01*
X161409Y24605D01*
X161501Y24570D01*
X161534Y24567D01*
X161550Y24562D01*
X161574Y24563D01*
X161648Y24556D01*
X215935Y24556D01*
X216032Y24572D01*
X216129Y24581D01*
X216151Y24591D01*
X216176Y24595D01*
X216262Y24641D01*
X216351Y24681D01*
X216377Y24702D01*
X216391Y24710D01*
X216408Y24728D01*
X216465Y24775D01*
X219547Y27857D01*
X219598Y27928D01*
X219601Y27931D01*
X219602Y27934D01*
X219604Y27937D01*
X219666Y28012D01*
X219675Y28035D01*
X219689Y28056D01*
X219718Y28149D01*
X219752Y28240D01*
X219755Y28273D01*
X219760Y28289D01*
X219759Y28314D01*
X219767Y28387D01*
X219767Y64094D01*
X219751Y64190D01*
X219741Y64287D01*
X219731Y64310D01*
X219727Y64335D01*
X219681Y64421D01*
X219641Y64510D01*
X219620Y64535D01*
X219612Y64550D01*
X219594Y64567D01*
X219547Y64624D01*
X217235Y66936D01*
X217235Y71125D01*
X220197Y74088D01*
X224386Y74088D01*
X227348Y71125D01*
X227348Y66936D01*
X225036Y64624D01*
X224979Y64544D01*
X224917Y64469D01*
X224908Y64446D01*
X224893Y64425D01*
X224865Y64332D01*
X224831Y64241D01*
X224827Y64208D01*
X224823Y64192D01*
X224823Y64167D01*
X224816Y64094D01*
X224816Y25985D01*
X218337Y19506D01*
X159246Y19506D01*
G37*
%LPD*%
G36*
X122823Y402168D02*
X122823Y402168D01*
X122872Y402169D01*
X122941Y402195D01*
X123012Y402212D01*
X123054Y402238D01*
X123100Y402255D01*
X123157Y402302D01*
X123220Y402340D01*
X123251Y402378D01*
X123289Y402410D01*
X123328Y402472D01*
X123375Y402529D01*
X123392Y402575D01*
X123418Y402617D01*
X123435Y402688D01*
X123461Y402757D01*
X123468Y402830D01*
X123474Y402854D01*
X123472Y402871D01*
X123475Y402904D01*
X123475Y414313D01*
X123460Y414406D01*
X123436Y414554D01*
X123378Y414661D01*
X123321Y414769D01*
X123254Y414832D01*
X123143Y414936D01*
X123038Y414984D01*
X122921Y415037D01*
X122920Y415037D01*
X122758Y415053D01*
X122678Y415061D01*
X122677Y415061D01*
X122532Y415037D01*
X122056Y414909D01*
X121471Y414909D01*
X121471Y425450D01*
X121471Y425451D01*
X121471Y435991D01*
X122056Y435991D01*
X122702Y435818D01*
X123282Y435483D01*
X123755Y435010D01*
X124089Y434431D01*
X124262Y433785D01*
X124262Y432640D01*
X124274Y432567D01*
X124277Y432494D01*
X124294Y432448D01*
X124302Y432399D01*
X124337Y432334D01*
X124363Y432265D01*
X124394Y432227D01*
X124417Y432184D01*
X124471Y432134D01*
X124517Y432077D01*
X124559Y432051D01*
X124595Y432017D01*
X124662Y431987D01*
X124724Y431948D01*
X124772Y431937D01*
X124817Y431916D01*
X124891Y431909D01*
X124962Y431892D01*
X125011Y431897D01*
X125060Y431892D01*
X125132Y431909D01*
X125205Y431916D01*
X125250Y431936D01*
X125298Y431947D01*
X125360Y431986D01*
X125427Y432016D01*
X125484Y432063D01*
X125505Y432076D01*
X125516Y432089D01*
X125541Y432110D01*
X127208Y433776D01*
X127208Y433777D01*
X128527Y435096D01*
X128569Y435154D01*
X129640Y436225D01*
X129798Y436225D01*
X129822Y436229D01*
X129846Y436227D01*
X129942Y436249D01*
X130038Y436265D01*
X130060Y436276D01*
X130084Y436282D01*
X130167Y436334D01*
X130254Y436380D01*
X130270Y436398D01*
X130291Y436410D01*
X130353Y436486D01*
X130420Y436558D01*
X130431Y436580D01*
X130446Y436599D01*
X130481Y436691D01*
X130521Y436780D01*
X130524Y436804D01*
X130532Y436827D01*
X130547Y436974D01*
X130547Y437572D01*
X130531Y437669D01*
X130522Y437765D01*
X130511Y437788D01*
X130507Y437813D01*
X130475Y437873D01*
X130475Y441046D01*
X136977Y447548D01*
X140829Y447548D01*
X140854Y447552D01*
X140878Y447549D01*
X140973Y447571D01*
X141070Y447587D01*
X141092Y447599D01*
X141116Y447604D01*
X141199Y447656D01*
X141285Y447702D01*
X141302Y447720D01*
X141323Y447733D01*
X141385Y447809D01*
X141452Y447880D01*
X141462Y447903D01*
X141478Y447922D01*
X141513Y448013D01*
X141553Y448103D01*
X141555Y448127D01*
X141564Y448150D01*
X141579Y448297D01*
X141579Y448450D01*
X142472Y449344D01*
X151007Y449344D01*
X151032Y449348D01*
X151056Y449345D01*
X151151Y449367D01*
X151248Y449383D01*
X151270Y449395D01*
X151294Y449400D01*
X151377Y449452D01*
X151463Y449498D01*
X151480Y449516D01*
X151501Y449529D01*
X151563Y449605D01*
X151630Y449676D01*
X151640Y449699D01*
X151656Y449718D01*
X151691Y449809D01*
X151731Y449899D01*
X151733Y449923D01*
X151742Y449946D01*
X151757Y450093D01*
X151757Y453467D01*
X151753Y453491D01*
X151755Y453515D01*
X151733Y453611D01*
X151717Y453708D01*
X151705Y453729D01*
X151700Y453753D01*
X151648Y453836D01*
X151602Y453923D01*
X151584Y453940D01*
X151571Y453960D01*
X151495Y454023D01*
X151424Y454090D01*
X151402Y454100D01*
X151383Y454115D01*
X151291Y454150D01*
X151202Y454191D01*
X151177Y454193D01*
X151154Y454202D01*
X151007Y454216D01*
X150950Y454216D01*
X150491Y454675D01*
X150471Y454689D01*
X150456Y454708D01*
X150373Y454760D01*
X150293Y454817D01*
X150269Y454824D01*
X150249Y454837D01*
X150153Y454859D01*
X150059Y454888D01*
X150035Y454887D01*
X150011Y454893D01*
X149914Y454883D01*
X149816Y454880D01*
X149793Y454871D01*
X149768Y454869D01*
X149679Y454829D01*
X149587Y454794D01*
X149568Y454779D01*
X149546Y454768D01*
X149432Y454675D01*
X148973Y454216D01*
X142310Y454216D01*
X141417Y455109D01*
X141417Y455726D01*
X141413Y455750D01*
X141415Y455775D01*
X141393Y455870D01*
X141377Y455967D01*
X141365Y455988D01*
X141360Y456012D01*
X141308Y456096D01*
X141262Y456182D01*
X141244Y456199D01*
X141231Y456220D01*
X141155Y456282D01*
X141084Y456349D01*
X141062Y456359D01*
X141043Y456375D01*
X140951Y456409D01*
X140862Y456450D01*
X140837Y456452D01*
X140814Y456461D01*
X140667Y456475D01*
X123356Y456475D01*
X123260Y456459D01*
X123163Y456450D01*
X123140Y456440D01*
X123115Y456436D01*
X123029Y456390D01*
X122941Y456349D01*
X122915Y456328D01*
X122900Y456321D01*
X122883Y456302D01*
X122826Y456256D01*
X118744Y452174D01*
X118695Y452105D01*
X118681Y452090D01*
X118678Y452083D01*
X118625Y452019D01*
X118617Y451996D01*
X118602Y451975D01*
X118574Y451882D01*
X118539Y451791D01*
X118536Y451758D01*
X118531Y451742D01*
X118532Y451717D01*
X118525Y451644D01*
X118525Y436736D01*
X118545Y436613D01*
X118564Y436496D01*
X118565Y436495D01*
X118621Y436390D01*
X118679Y436280D01*
X118680Y436280D01*
X118771Y436194D01*
X118857Y436113D01*
X118858Y436113D01*
X118975Y436060D01*
X119080Y436013D01*
X119138Y436007D01*
X119142Y436006D01*
X119289Y435991D01*
X119299Y435991D01*
X119323Y435989D01*
X119337Y435991D01*
X119972Y435991D01*
X119972Y425451D01*
X119972Y425450D01*
X119972Y414909D01*
X119289Y414909D01*
X119274Y414907D01*
X119226Y414912D01*
X119225Y414912D01*
X119095Y414881D01*
X118988Y414857D01*
X118876Y414787D01*
X118781Y414728D01*
X118780Y414728D01*
X118698Y414628D01*
X118626Y414540D01*
X118626Y414539D01*
X118625Y414539D01*
X118583Y414426D01*
X118539Y414311D01*
X118525Y414164D01*
X118525Y406356D01*
X118541Y406260D01*
X118550Y406163D01*
X118560Y406140D01*
X118564Y406115D01*
X118610Y406029D01*
X118651Y405941D01*
X118672Y405915D01*
X118679Y405900D01*
X118698Y405883D01*
X118744Y405826D01*
X122196Y402374D01*
X122256Y402331D01*
X122310Y402281D01*
X122354Y402261D01*
X122395Y402232D01*
X122465Y402211D01*
X122532Y402180D01*
X122581Y402176D01*
X122628Y402161D01*
X122701Y402164D01*
X122775Y402156D01*
X122823Y402168D01*
G37*
%LPC*%
G36*
X19114Y39963D02*
X19114Y39963D01*
X19110Y39987D01*
X19112Y40012D01*
X19090Y40107D01*
X19074Y40204D01*
X19062Y40226D01*
X19057Y40250D01*
X19005Y40333D01*
X18959Y40419D01*
X18941Y40436D01*
X18928Y40457D01*
X18852Y40519D01*
X18781Y40586D01*
X18759Y40596D01*
X18740Y40612D01*
X18648Y40646D01*
X18559Y40687D01*
X18534Y40689D01*
X18511Y40698D01*
X18364Y40713D01*
X16864Y40713D01*
X16840Y40709D01*
X16816Y40711D01*
X16720Y40689D01*
X16624Y40673D01*
X16602Y40661D01*
X16578Y40656D01*
X16495Y40604D01*
X16409Y40558D01*
X16392Y40540D01*
X16371Y40527D01*
X16309Y40451D01*
X16242Y40380D01*
X16232Y40358D01*
X16216Y40339D01*
X16181Y40247D01*
X16141Y40158D01*
X16138Y40133D01*
X16130Y40110D01*
X16115Y39963D01*
X16115Y39920D01*
X15184Y40105D01*
X13668Y40733D01*
X12304Y41645D01*
X11143Y42805D01*
X10232Y44170D01*
X9604Y45686D01*
X9284Y47295D01*
X9284Y52407D01*
X9573Y52407D01*
X9597Y52411D01*
X9622Y52408D01*
X9717Y52430D01*
X9814Y52446D01*
X9836Y52458D01*
X9859Y52463D01*
X9943Y52515D01*
X10029Y52561D01*
X10046Y52579D01*
X10067Y52592D01*
X10129Y52668D01*
X10196Y52739D01*
X10206Y52762D01*
X10222Y52781D01*
X10256Y52872D01*
X10297Y52962D01*
X10299Y52986D01*
X10308Y53009D01*
X10322Y53156D01*
X10322Y54656D01*
X10319Y54680D01*
X10321Y54704D01*
X10299Y54800D01*
X10283Y54897D01*
X10271Y54918D01*
X10266Y54942D01*
X10214Y55025D01*
X10168Y55112D01*
X10150Y55128D01*
X10137Y55149D01*
X10061Y55212D01*
X9990Y55279D01*
X9967Y55289D01*
X9948Y55304D01*
X9857Y55339D01*
X9768Y55379D01*
X9743Y55382D01*
X9720Y55390D01*
X9573Y55405D01*
X9284Y55405D01*
X9284Y60516D01*
X9604Y62126D01*
X10232Y63642D01*
X10401Y63895D01*
X10902Y64644D01*
X10902Y64645D01*
X11143Y65006D01*
X12304Y66167D01*
X13668Y67078D01*
X15184Y67706D01*
X16115Y67892D01*
X16115Y67671D01*
X16119Y67647D01*
X16117Y67623D01*
X16139Y67527D01*
X16155Y67431D01*
X16167Y67409D01*
X16172Y67385D01*
X16224Y67302D01*
X16270Y67215D01*
X16288Y67199D01*
X16301Y67178D01*
X16376Y67115D01*
X16448Y67048D01*
X16470Y67038D01*
X16489Y67023D01*
X16581Y66988D01*
X16670Y66948D01*
X16695Y66945D01*
X16718Y66937D01*
X16864Y66922D01*
X18364Y66922D01*
X18389Y66926D01*
X18413Y66924D01*
X18508Y66946D01*
X18605Y66962D01*
X18627Y66973D01*
X18651Y66979D01*
X18734Y67031D01*
X18820Y67077D01*
X18837Y67095D01*
X18858Y67108D01*
X18920Y67183D01*
X18987Y67255D01*
X18997Y67277D01*
X19013Y67296D01*
X19048Y67388D01*
X19088Y67477D01*
X19090Y67501D01*
X19099Y67524D01*
X19114Y67671D01*
X19114Y67892D01*
X20044Y67706D01*
X21561Y67078D01*
X22925Y66167D01*
X24085Y65006D01*
X24997Y63642D01*
X25625Y62126D01*
X25945Y60516D01*
X25945Y55405D01*
X25701Y55405D01*
X25677Y55401D01*
X25653Y55403D01*
X25557Y55381D01*
X25460Y55365D01*
X25439Y55354D01*
X25415Y55348D01*
X25332Y55296D01*
X25245Y55250D01*
X25229Y55232D01*
X25208Y55220D01*
X25145Y55144D01*
X25078Y55072D01*
X25068Y55050D01*
X25053Y55031D01*
X25018Y54939D01*
X24978Y54850D01*
X24975Y54826D01*
X24967Y54803D01*
X24952Y54656D01*
X24952Y53156D01*
X24956Y53132D01*
X24954Y53107D01*
X24976Y53012D01*
X24992Y52915D01*
X25003Y52893D01*
X25009Y52870D01*
X25061Y52786D01*
X25107Y52700D01*
X25125Y52683D01*
X25137Y52662D01*
X25213Y52600D01*
X25285Y52533D01*
X25307Y52523D01*
X25326Y52507D01*
X25418Y52473D01*
X25507Y52432D01*
X25531Y52430D01*
X25554Y52421D01*
X25701Y52407D01*
X25945Y52407D01*
X25945Y52165D01*
X25957Y52093D01*
X25960Y52019D01*
X25977Y51973D01*
X25985Y51925D01*
X26020Y51860D01*
X26045Y51791D01*
X26077Y51753D01*
X26100Y51709D01*
X26154Y51659D01*
X26200Y51602D01*
X26242Y51576D01*
X26278Y51542D01*
X26345Y51512D01*
X26407Y51473D01*
X26455Y51462D01*
X26500Y51442D01*
X26573Y51434D01*
X26645Y51418D01*
X26694Y51422D01*
X26743Y51418D01*
X26815Y51434D01*
X26888Y51441D01*
X26933Y51462D01*
X26981Y51473D01*
X27043Y51512D01*
X27110Y51542D01*
X27167Y51588D01*
X27188Y51602D01*
X27199Y51614D01*
X27224Y51636D01*
X28752Y53163D01*
X30774Y54001D01*
X32962Y54001D01*
X34984Y53163D01*
X36531Y51616D01*
X37369Y49594D01*
X37369Y47406D01*
X36531Y45384D01*
X34984Y43837D01*
X32962Y42999D01*
X30774Y42999D01*
X28752Y43837D01*
X27205Y45384D01*
X27042Y45776D01*
X27029Y45797D01*
X27022Y45821D01*
X26965Y45900D01*
X26913Y45984D01*
X26894Y45999D01*
X26880Y46019D01*
X26800Y46076D01*
X26725Y46138D01*
X26702Y46147D01*
X26681Y46162D01*
X26588Y46190D01*
X26496Y46224D01*
X26472Y46225D01*
X26448Y46232D01*
X26350Y46229D01*
X26253Y46233D01*
X26229Y46225D01*
X26204Y46225D01*
X26113Y46190D01*
X26019Y46162D01*
X25999Y46147D01*
X25976Y46139D01*
X25900Y46077D01*
X25821Y46020D01*
X25806Y46000D01*
X25787Y45984D01*
X25735Y45901D01*
X25724Y45885D01*
X25723Y45884D01*
X25722Y45883D01*
X25678Y45822D01*
X25671Y45798D01*
X25658Y45777D01*
X25645Y45733D01*
X24997Y44170D01*
X24716Y43749D01*
X24215Y43000D01*
X24085Y42805D01*
X22925Y41645D01*
X21561Y40733D01*
X20044Y40105D01*
X19114Y39920D01*
X19114Y39963D01*
G37*
%LPD*%
%LPC*%
G36*
X169910Y52106D02*
X169910Y52106D01*
X169017Y52999D01*
X169017Y79662D01*
X169910Y80556D01*
X183873Y80556D01*
X184766Y79662D01*
X184766Y52999D01*
X183873Y52106D01*
X169910Y52106D01*
G37*
%LPD*%
G36*
X221417Y112722D02*
X221417Y112722D01*
X221543Y112729D01*
X221590Y112742D01*
X221638Y112748D01*
X221757Y112790D01*
X221878Y112825D01*
X221920Y112849D01*
X221966Y112865D01*
X222072Y112934D01*
X222182Y112995D01*
X222229Y113035D01*
X222259Y113054D01*
X222292Y113089D01*
X222369Y113154D01*
X222669Y113454D01*
X222747Y113553D01*
X222832Y113647D01*
X222855Y113689D01*
X222885Y113727D01*
X222939Y113841D01*
X223000Y113952D01*
X223013Y113998D01*
X223034Y114042D01*
X223061Y114165D01*
X223095Y114287D01*
X223100Y114348D01*
X223107Y114383D01*
X223107Y114431D01*
X223115Y114531D01*
X223115Y130131D01*
X223100Y130256D01*
X223094Y130383D01*
X223080Y130429D01*
X223075Y130477D01*
X223032Y130596D01*
X222997Y130718D01*
X222974Y130760D01*
X222957Y130805D01*
X222889Y130911D01*
X222827Y131022D01*
X222788Y131068D01*
X222768Y131098D01*
X222734Y131132D01*
X222669Y131208D01*
X221969Y131908D01*
X221870Y131987D01*
X221776Y132071D01*
X221733Y132095D01*
X221696Y132125D01*
X221581Y132179D01*
X221471Y132240D01*
X221424Y132253D01*
X221380Y132274D01*
X221257Y132300D01*
X221135Y132335D01*
X221074Y132339D01*
X221040Y132347D01*
X220992Y132346D01*
X220891Y132354D01*
X212591Y132354D01*
X212565Y132351D01*
X212539Y132353D01*
X212392Y132331D01*
X212245Y132314D01*
X212221Y132305D01*
X212195Y132302D01*
X212057Y132247D01*
X211917Y132197D01*
X211895Y132183D01*
X211871Y132173D01*
X211749Y132088D01*
X211624Y132008D01*
X211606Y131989D01*
X211585Y131974D01*
X211485Y131864D01*
X211382Y131757D01*
X211369Y131735D01*
X211351Y131715D01*
X211279Y131585D01*
X211203Y131458D01*
X211195Y131433D01*
X211183Y131410D01*
X211142Y131267D01*
X211097Y131126D01*
X211095Y131100D01*
X211088Y131075D01*
X211068Y130831D01*
X211068Y114231D01*
X211071Y114205D01*
X211069Y114179D01*
X211091Y114032D01*
X211108Y113885D01*
X211117Y113860D01*
X211121Y113834D01*
X211176Y113696D01*
X211226Y113557D01*
X211240Y113534D01*
X211250Y113510D01*
X211334Y113389D01*
X211415Y113264D01*
X211434Y113245D01*
X211448Y113224D01*
X211558Y113125D01*
X211665Y113022D01*
X211688Y113008D01*
X211707Y112991D01*
X211837Y112919D01*
X211964Y112843D01*
X211989Y112835D01*
X212012Y112822D01*
X212155Y112782D01*
X212296Y112737D01*
X212322Y112734D01*
X212348Y112727D01*
X212591Y112708D01*
X221291Y112708D01*
X221417Y112722D01*
G37*
%LPC*%
G36*
X91039Y376420D02*
X91039Y376420D01*
X91039Y389480D01*
X101714Y389480D01*
X102360Y389306D01*
X102939Y388972D01*
X103413Y388499D01*
X103747Y387920D01*
X103920Y387273D01*
X103920Y376420D01*
X91039Y376420D01*
G37*
%LPD*%
%LPC*%
G36*
X75159Y376420D02*
X75159Y376420D01*
X75159Y387273D01*
X75332Y387920D01*
X75666Y388499D01*
X76139Y388972D01*
X76719Y389306D01*
X77365Y389480D01*
X88040Y389480D01*
X88040Y376420D01*
X75159Y376420D01*
G37*
%LPD*%
%LPC*%
G36*
X91039Y360362D02*
X91039Y360362D01*
X91039Y373422D01*
X103920Y373422D01*
X103920Y362568D01*
X103747Y361922D01*
X103413Y361343D01*
X102939Y360870D01*
X102360Y360535D01*
X101714Y360362D01*
X91039Y360362D01*
G37*
%LPD*%
%LPC*%
G36*
X77365Y360362D02*
X77365Y360362D01*
X76719Y360535D01*
X76139Y360870D01*
X75666Y361343D01*
X75332Y361922D01*
X75159Y362568D01*
X75159Y373422D01*
X88040Y373422D01*
X88040Y360362D01*
X77365Y360362D01*
G37*
%LPD*%
%LPC*%
G36*
X201191Y67730D02*
X201191Y67730D01*
X201191Y81472D01*
X206376Y81472D01*
X207022Y81298D01*
X207601Y80964D01*
X208075Y80491D01*
X208409Y79912D01*
X208582Y79265D01*
X208582Y67730D01*
X201191Y67730D01*
G37*
%LPD*%
%LPC*%
G36*
X201191Y50990D02*
X201191Y50990D01*
X201191Y64732D01*
X208582Y64732D01*
X208582Y53196D01*
X208409Y52550D01*
X208075Y51971D01*
X207601Y51498D01*
X207022Y51163D01*
X206376Y50990D01*
X201191Y50990D01*
G37*
%LPD*%
%LPC*%
G36*
X190801Y67730D02*
X190801Y67730D01*
X190801Y79265D01*
X190974Y79912D01*
X191308Y80491D01*
X191781Y80964D01*
X192361Y81298D01*
X193007Y81472D01*
X198192Y81472D01*
X198192Y67730D01*
X190801Y67730D01*
G37*
%LPD*%
%LPC*%
G36*
X193007Y50990D02*
X193007Y50990D01*
X192361Y51163D01*
X191781Y51498D01*
X191308Y51971D01*
X190974Y52550D01*
X190801Y53196D01*
X190801Y64732D01*
X198192Y64732D01*
X198192Y50990D01*
X193007Y50990D01*
G37*
%LPD*%
%LPC*%
G36*
X7791Y117930D02*
X7791Y117930D01*
X7791Y128281D01*
X9087Y128076D01*
X10874Y127495D01*
X12549Y126642D01*
X14069Y125537D01*
X15398Y124208D01*
X16502Y122688D01*
X17355Y121014D01*
X17936Y119226D01*
X18142Y117930D01*
X7791Y117930D01*
G37*
%LPD*%
%LPC*%
G36*
X7791Y114932D02*
X7791Y114932D01*
X18142Y114932D01*
X17936Y113635D01*
X17355Y111848D01*
X16502Y110174D01*
X15398Y108653D01*
X14069Y107324D01*
X12549Y106220D01*
X10874Y105367D01*
X9087Y104786D01*
X7791Y104581D01*
X7791Y114932D01*
G37*
%LPD*%
%LPC*%
G36*
X223441Y92530D02*
X223441Y92530D01*
X223647Y93826D01*
X224227Y95614D01*
X225081Y97288D01*
X226185Y98808D01*
X227514Y100137D01*
X229034Y101242D01*
X230709Y102095D01*
X232496Y102676D01*
X233792Y102881D01*
X233792Y92530D01*
X223441Y92530D01*
G37*
%LPD*%
%LPC*%
G36*
X232496Y79386D02*
X232496Y79386D01*
X230709Y79967D01*
X229034Y80820D01*
X227514Y81924D01*
X226185Y83253D01*
X225081Y84774D01*
X224227Y86448D01*
X223647Y88235D01*
X223441Y89532D01*
X233792Y89532D01*
X233792Y79181D01*
X232496Y79386D01*
G37*
%LPD*%
%LPC*%
G36*
X19067Y13499D02*
X19067Y13499D01*
X19067Y25986D01*
X19998Y25801D01*
X21514Y25173D01*
X22878Y24261D01*
X24039Y23100D01*
X24951Y21736D01*
X25579Y20220D01*
X25899Y18611D01*
X25899Y13499D01*
X19067Y13499D01*
G37*
%LPD*%
%LPC*%
G36*
X105467Y13499D02*
X105467Y13499D01*
X105467Y25986D01*
X106398Y25801D01*
X107914Y25173D01*
X109278Y24261D01*
X110439Y23100D01*
X111351Y21736D01*
X111979Y20220D01*
X112299Y18611D01*
X112299Y13499D01*
X105467Y13499D01*
G37*
%LPD*%
%LPC*%
G36*
X95637Y13499D02*
X95637Y13499D01*
X95637Y18611D01*
X95957Y20220D01*
X96585Y21736D01*
X97497Y23100D01*
X98658Y24261D01*
X100022Y25173D01*
X101538Y25801D01*
X102469Y25986D01*
X102469Y13499D01*
X95637Y13499D01*
G37*
%LPD*%
%LPC*%
G36*
X9237Y13499D02*
X9237Y13499D01*
X9237Y18611D01*
X9557Y20220D01*
X10185Y21736D01*
X11097Y23100D01*
X12258Y24261D01*
X13622Y25173D01*
X15138Y25801D01*
X16069Y25986D01*
X16069Y13499D01*
X9237Y13499D01*
G37*
%LPD*%
%LPC*%
G36*
X105467Y10501D02*
X105467Y10501D01*
X112299Y10501D01*
X112299Y5389D01*
X111979Y3780D01*
X111351Y2264D01*
X111035Y1791D01*
X110534Y1042D01*
X110439Y899D01*
X109278Y-261D01*
X107914Y-1173D01*
X106398Y-1801D01*
X105467Y-1986D01*
X105467Y10501D01*
G37*
%LPD*%
%LPC*%
G36*
X19067Y10501D02*
X19067Y10501D01*
X25899Y10501D01*
X25899Y5389D01*
X25579Y3780D01*
X24951Y2264D01*
X24635Y1791D01*
X24134Y1042D01*
X24039Y899D01*
X22878Y-261D01*
X21514Y-1173D01*
X19998Y-1801D01*
X19067Y-1986D01*
X19067Y10501D01*
G37*
%LPD*%
%LPC*%
G36*
X101538Y-1801D02*
X101538Y-1801D01*
X100022Y-1173D01*
X98657Y-261D01*
X97497Y899D01*
X96585Y2264D01*
X95957Y3780D01*
X95637Y5389D01*
X95637Y10501D01*
X102469Y10501D01*
X102469Y-1986D01*
X101538Y-1801D01*
G37*
%LPD*%
%LPC*%
G36*
X15138Y-1801D02*
X15138Y-1801D01*
X13622Y-1173D01*
X12257Y-261D01*
X11097Y899D01*
X10185Y2264D01*
X9557Y3780D01*
X9237Y5389D01*
X9237Y10501D01*
X16069Y10501D01*
X16069Y-1986D01*
X15138Y-1801D01*
G37*
%LPD*%
%LPC*%
G36*
X156033Y408170D02*
X156033Y408170D01*
X156033Y412260D01*
X166298Y412260D01*
X166944Y412086D01*
X167523Y411752D01*
X167997Y411279D01*
X168331Y410700D01*
X168504Y410053D01*
X168504Y408170D01*
X156033Y408170D01*
G37*
%LPD*%
%LPC*%
G36*
X140563Y408170D02*
X140563Y408170D01*
X140563Y410053D01*
X140736Y410700D01*
X141070Y411279D01*
X141543Y411752D01*
X142123Y412086D01*
X142769Y412260D01*
X153034Y412260D01*
X153034Y408170D01*
X140563Y408170D01*
G37*
%LPD*%
%LPC*%
G36*
X142769Y401082D02*
X142769Y401082D01*
X142123Y401255D01*
X141543Y401590D01*
X141070Y402063D01*
X140736Y402642D01*
X140563Y403288D01*
X140563Y405172D01*
X153034Y405172D01*
X153034Y401082D01*
X142769Y401082D01*
G37*
%LPD*%
%LPC*%
G36*
X156033Y401082D02*
X156033Y401082D01*
X156033Y405172D01*
X168504Y405172D01*
X168504Y403288D01*
X168331Y402642D01*
X167997Y402063D01*
X167523Y401590D01*
X166944Y401255D01*
X166298Y401082D01*
X156033Y401082D01*
G37*
%LPD*%
%LPC*%
G36*
X133946Y413659D02*
X133946Y413659D01*
X133946Y417076D01*
X138412Y417076D01*
X138412Y415866D01*
X138239Y415220D01*
X137905Y414640D01*
X137432Y414167D01*
X136852Y413833D01*
X136206Y413659D01*
X133946Y413659D01*
G37*
%LPD*%
%LPC*%
G36*
X97211Y460090D02*
X97211Y460090D01*
X97211Y464282D01*
X97724Y464282D01*
X98713Y464016D01*
X99600Y463504D01*
X100325Y462780D01*
X100837Y461893D01*
X101102Y460903D01*
X101102Y460090D01*
X97211Y460090D01*
G37*
%LPD*%
%LPC*%
G36*
X97211Y453200D02*
X97211Y453200D01*
X97211Y457392D01*
X101102Y457392D01*
X101102Y456579D01*
X101045Y456364D01*
X100837Y455589D01*
X100325Y454702D01*
X99600Y453977D01*
X98713Y453465D01*
X97724Y453200D01*
X97211Y453200D01*
G37*
%LPD*%
%LPC*%
G36*
X103967Y11999D02*
X103967Y11999D01*
X103967Y12001D01*
X103969Y12001D01*
X103969Y11999D01*
X103967Y11999D01*
G37*
%LPD*%
%LPC*%
G36*
X17567Y11999D02*
X17567Y11999D01*
X17567Y12001D01*
X17569Y12001D01*
X17569Y11999D01*
X17567Y11999D01*
G37*
%LPD*%
%LPC*%
G36*
X89539Y374920D02*
X89539Y374920D01*
X89539Y374922D01*
X89540Y374922D01*
X89540Y374920D01*
X89539Y374920D01*
G37*
%LPD*%
%LPC*%
G36*
X154533Y406670D02*
X154533Y406670D01*
X154533Y406672D01*
X154534Y406672D01*
X154534Y406670D01*
X154533Y406670D01*
G37*
%LPD*%
%LPC*%
G36*
X199691Y66230D02*
X199691Y66230D01*
X199691Y66232D01*
X199692Y66232D01*
X199692Y66230D01*
X199691Y66230D01*
G37*
%LPD*%
D10*
X17568Y6210D02*
X17568Y17790D01*
X103968Y17790D02*
X103968Y6210D01*
X17614Y48116D02*
X17614Y59696D01*
X103944Y59594D02*
X103944Y48014D01*
X17637Y48027D02*
X17637Y59607D01*
X103949Y59663D02*
X103949Y48083D01*
D11*
X6291Y91031D03*
X6291Y116431D03*
X6291Y141831D03*
X6291Y167231D03*
X6291Y192631D03*
X6291Y218031D03*
X6291Y243431D03*
X6291Y268831D03*
X6291Y294231D03*
X6291Y319631D03*
X6291Y345031D03*
X6291Y370431D03*
X6291Y395831D03*
X6291Y421231D03*
X6291Y446631D03*
X6291Y472031D03*
X235291Y91031D03*
X235291Y116431D03*
X235291Y141831D03*
X235291Y167231D03*
X235291Y192631D03*
X235291Y218031D03*
X235291Y243431D03*
X235291Y268831D03*
X235291Y294231D03*
X235291Y319631D03*
X235291Y345031D03*
X235291Y370431D03*
X235291Y395831D03*
X235291Y421231D03*
X235291Y446631D03*
X235291Y472031D03*
D12*
X199691Y66231D03*
X176891Y66331D03*
D13*
X154533Y444771D03*
X86969Y444771D03*
X154533Y432071D03*
X154533Y419371D03*
X86969Y432071D03*
X86969Y419371D03*
X154533Y406671D03*
X86969Y406671D03*
D14*
X145641Y458741D03*
X154281Y458741D03*
D15*
X97211Y460391D02*
X94511Y460391D01*
X97211Y460391D02*
X97211Y457091D01*
X94511Y457091D01*
X94511Y460391D01*
X94511Y459656D02*
X97211Y459656D01*
X88571Y460391D02*
X85871Y460391D01*
X88571Y460391D02*
X88571Y457091D01*
X85871Y457091D01*
X85871Y460391D01*
X85871Y459656D02*
X88571Y459656D01*
D14*
X86971Y470171D03*
X78331Y470171D03*
X154281Y471441D03*
X145641Y471441D03*
D16*
X151963Y374921D03*
X89539Y374921D03*
D17*
X157581Y187391D03*
X167081Y209391D03*
X148081Y209391D03*
D18*
X135483Y180865D03*
X135483Y174261D03*
X135483Y167657D03*
X116179Y167657D03*
X116179Y174261D03*
X116179Y180865D03*
D19*
X147580Y165530D02*
X152342Y165530D01*
X147580Y165530D02*
X147580Y170292D01*
X152342Y170292D01*
X152342Y165530D01*
X152342Y167039D02*
X147580Y167039D01*
X147580Y168548D02*
X152342Y168548D01*
X152342Y170057D02*
X147580Y170057D01*
X160280Y165530D02*
X165042Y165530D01*
X160280Y165530D02*
X160280Y170292D01*
X165042Y170292D01*
X165042Y165530D01*
X165042Y167039D02*
X160280Y167039D01*
X160280Y168548D02*
X165042Y168548D01*
X165042Y170057D02*
X160280Y170057D01*
D20*
X162661Y167911D02*
X149961Y167911D01*
D21*
X133072Y432950D03*
X133072Y427950D03*
X133072Y422950D03*
X133072Y417950D03*
X108372Y417950D03*
X108372Y422950D03*
X108372Y427950D03*
X108372Y432950D03*
D22*
X120722Y425450D03*
D23*
X63291Y95031D03*
X46291Y40031D03*
X39291Y173031D03*
X56291Y187031D03*
X154291Y15031D03*
X154291Y-7969D03*
X222291Y15031D03*
X222291Y-7969D03*
X31291Y100031D03*
X140291Y283031D03*
X178291Y221031D03*
X58291Y491031D03*
X122291Y379031D03*
X180291Y396031D03*
X180291Y379031D03*
X122291Y360031D03*
X180291Y361031D03*
X180291Y342031D03*
X72291Y379031D03*
X72291Y360031D03*
X73291Y325031D03*
X73291Y305031D03*
X89291Y325031D03*
X105291Y325031D03*
X122291Y325031D03*
X88291Y305031D03*
X105291Y305031D03*
X180291Y304031D03*
X180291Y286031D03*
X39291Y12031D03*
X81291Y12031D03*
X1291Y36031D03*
X1291Y21031D03*
X1291Y6031D03*
X239291Y70031D03*
X239291Y39031D03*
X239291Y23031D03*
X239291Y9031D03*
X239291Y56031D03*
X72291Y344031D03*
X89291Y344031D03*
X105291Y344031D03*
X122291Y344031D03*
X180291Y324031D03*
X40291Y491031D03*
X40291Y475031D03*
X202291Y470031D03*
X202291Y454031D03*
X177291Y118031D03*
X9291Y-5969D03*
X23291Y-8969D03*
X36291Y-8969D03*
X50291Y-8969D03*
X64291Y-8969D03*
X78291Y-8969D03*
X94291Y-8969D03*
X110291Y-8969D03*
X170291Y-8969D03*
X188291Y-8969D03*
X206291Y-8969D03*
X236291Y-4969D03*
X44291Y120031D03*
X204291Y286031D03*
X1291Y50031D03*
X114091Y284431D03*
X205841Y184421D03*
X192891Y141131D03*
X218891Y152731D03*
X168291Y149831D03*
X151191Y139331D03*
X198221Y75201D03*
X198221Y66311D03*
X198221Y57421D03*
X219201Y96441D03*
X219201Y88821D03*
X56291Y201001D03*
X83691Y491031D03*
X109091Y491031D03*
X134491Y491031D03*
X159891Y491031D03*
X185291Y491031D03*
X72291Y398081D03*
X89291Y398081D03*
X141341Y344031D03*
X40511Y456741D03*
X180291Y413811D03*
X1291Y64001D03*
X177291Y96441D03*
X191261Y96441D03*
X75991Y257761D03*
X103931Y257761D03*
X190911Y157821D03*
X206151Y174331D03*
X136301Y213701D03*
X115981Y160361D03*
X124291Y447031D03*
X128291Y221031D03*
X134781Y313301D03*
D24*
X134721Y313241D01*
X134721Y307445D01*
X128291Y301015D01*
X128291Y221031D01*
D23*
X150291Y223841D03*
D24*
X140021Y223841D01*
X131815Y232047D01*
X131815Y299555D02*
X141781Y309521D01*
X131815Y299555D02*
X131815Y232047D01*
D23*
X141781Y332031D03*
D24*
X141781Y309521D01*
D23*
X157291Y69031D03*
X218791Y106631D03*
D25*
X212191Y106631D02*
X170281Y106631D01*
X212191Y106631D02*
X218791Y106631D01*
X225491Y106631D01*
X235291Y116431D01*
D23*
X213391Y130031D03*
X213691Y122531D03*
X213891Y114631D03*
X220791Y130131D03*
X220891Y122231D03*
X220991Y114531D03*
D26*
X220891Y122231D02*
X220891Y130031D01*
X220791Y130131D01*
X220891Y130031D02*
X213391Y130031D01*
X220891Y130031D02*
X221191Y129731D01*
X213691Y129731D02*
X213391Y130031D01*
X213691Y129731D02*
X213691Y122531D01*
X213891Y122231D02*
X216001Y122231D01*
X220891Y122231D01*
X213891Y122331D02*
X213691Y122531D01*
X213891Y122331D02*
X213891Y122231D01*
X213891Y114631D01*
X216001Y114531D02*
X220991Y114531D01*
X216001Y114531D02*
X213991Y114531D01*
X213891Y114631D01*
X220891Y122191D02*
X220891Y122231D01*
X220891Y122191D02*
X220891Y114631D01*
X220991Y114531D01*
X212591Y114331D02*
X212591Y130831D01*
X212591Y114331D02*
X212691Y114231D01*
X220491Y114231D01*
X220491Y129831D02*
X220791Y130131D01*
X220491Y129831D02*
X220491Y115841D01*
X220491Y114231D01*
X220791Y130131D02*
X220091Y130831D01*
X212591Y130831D01*
D23*
X178491Y75231D03*
X178491Y66341D03*
X178491Y57451D03*
D24*
X178481Y66331D02*
X176891Y66331D01*
X178481Y66331D02*
X178491Y66341D01*
X178491Y67931D02*
X176891Y66331D01*
X178491Y67931D02*
X178491Y75231D01*
X176891Y66331D02*
X178491Y64731D01*
X178491Y57451D01*
D25*
X212191Y106631D02*
X212191Y130431D01*
X212591Y130831D01*
X220891Y108731D02*
X218791Y106631D01*
X220891Y108731D02*
X220891Y122191D01*
X220891Y130031D01*
X218791Y119441D02*
X218791Y106631D01*
X218791Y119441D02*
X216001Y122231D01*
X216001Y109421D02*
X218791Y106631D01*
X216001Y109421D02*
X216001Y114531D01*
X220791Y130131D02*
X221591Y130131D01*
X235291Y116431D01*
X222301Y115841D02*
X220491Y115841D01*
X228701Y116431D02*
X235291Y116431D01*
X228701Y116431D02*
X226651Y116431D01*
X220891Y122191D01*
X220891Y122231D02*
X222901Y122231D01*
X228701Y116431D01*
X235291Y116431D02*
X227591Y108731D01*
X224891Y108731D01*
X220891Y108731D01*
X220991Y114531D02*
X222301Y115841D01*
X234701Y115841D02*
X235291Y116431D01*
X234701Y115841D02*
X229971Y115841D01*
X222301Y115841D01*
X220991Y114531D02*
X224891Y110631D01*
X224891Y108731D01*
X229971Y113811D01*
X229971Y115841D01*
D27*
X157291Y97031D02*
X157291Y69031D01*
X170281Y106631D02*
X218791Y106631D01*
X166891Y106631D02*
X157291Y97031D01*
X166891Y106631D02*
X170281Y106631D01*
D23*
X71291Y50031D03*
X58291Y50031D03*
D24*
X71291Y50031D01*
D23*
X66291Y111031D03*
X24891Y153031D03*
D24*
X58235Y134522D02*
X58235Y119087D01*
X66291Y111031D01*
X58235Y134522D02*
X55235Y137522D01*
X55235Y149087D01*
X51291Y153031D02*
X24891Y153031D01*
X51291Y153031D02*
X55235Y149087D01*
D23*
X47291Y414031D03*
D24*
X29291Y414031D01*
X22291Y421031D01*
X22291Y477031D01*
X28291Y483031D01*
D23*
X28291Y483031D03*
D24*
X154533Y432071D02*
X172821Y432071D01*
D23*
X172821Y432071D03*
D24*
X141950Y427950D02*
X133072Y427950D01*
X146071Y432071D02*
X154533Y432071D01*
X146071Y432071D02*
X141950Y427950D01*
D23*
X103561Y406858D03*
D24*
X87157Y406858D01*
X86969Y406671D01*
X108372Y411668D02*
X108372Y417950D01*
X108372Y411668D02*
X103561Y406858D01*
D23*
X47091Y388891D03*
D24*
X47091Y401781D01*
X64681Y419371D01*
X86000Y419371D01*
X86969Y419371D01*
X98950Y422950D02*
X108372Y422950D01*
X98950Y422950D02*
X95000Y419000D01*
X86371Y419000D01*
X86000Y419371D01*
D23*
X64291Y123031D03*
D24*
X64291Y134466D01*
X67347Y137522D01*
X67347Y144975D01*
X64815Y147507D01*
X64815Y172571D02*
X73751Y181507D01*
X109815Y193381D02*
X109815Y242491D01*
X58751Y251555D02*
X55783Y254523D01*
X57347Y341522D02*
X57347Y346539D01*
X52291Y351595D02*
X52291Y360031D01*
X52291Y351595D02*
X57347Y346539D01*
X55783Y339958D02*
X55783Y254523D01*
X55783Y339958D02*
X57347Y341522D01*
X64815Y172571D02*
X64815Y147507D01*
X73751Y181507D02*
X97941Y181507D01*
X109815Y193381D01*
X109815Y242491D02*
X100751Y251555D01*
X58751Y251555D01*
D23*
X52291Y360031D03*
X188291Y221031D03*
X167291Y325031D03*
D24*
X161815Y319555D01*
X171847Y237475D02*
X188291Y221031D01*
X161815Y296701D02*
X161815Y319555D01*
X161815Y296701D02*
X171847Y286669D01*
X171847Y237475D01*
D23*
X99291Y234031D03*
D24*
X9291Y221031D02*
X6291Y218031D01*
X9291Y221031D02*
X17230Y221031D01*
X90815Y225555D02*
X99291Y234031D01*
X21754Y225555D02*
X17230Y221031D01*
X21754Y225555D02*
X90815Y225555D01*
D23*
X99291Y222031D03*
D24*
X18213Y204553D02*
X6291Y192631D01*
X18213Y204553D02*
X18213Y217031D01*
X23213Y222031D01*
X99291Y222031D01*
D23*
X99291Y211571D03*
D24*
X18213Y179153D02*
X6291Y167231D01*
X21737Y203093D02*
X21737Y214953D01*
X25291Y218507D01*
X91291Y218507D01*
X98227Y211571D01*
X99291Y211571D01*
X21737Y203093D02*
X18213Y199569D01*
X18213Y179153D01*
D23*
X99291Y201111D03*
D24*
X6291Y150371D02*
X6291Y141831D01*
X6291Y150371D02*
X21737Y165817D01*
X21737Y198109D01*
X25261Y201633D01*
X25261Y212031D01*
X28213Y214983D01*
X88339Y214983D02*
X91291Y212031D01*
X91291Y207381D01*
X97561Y201111D01*
X99291Y201111D01*
X88339Y214983D02*
X28213Y214983D01*
X154281Y445023D02*
X154281Y458741D01*
X154281Y445023D02*
X154533Y444771D01*
X165201Y285580D02*
X165201Y284751D01*
X165201Y285580D02*
X158291Y292490D01*
D23*
X165201Y284751D03*
D24*
X171551Y390161D02*
X165201Y396511D01*
X171551Y390161D02*
X171551Y359681D01*
X158291Y346421D02*
X158291Y292490D01*
X165201Y396511D02*
X130489Y396511D01*
X171551Y359681D02*
X158291Y346421D01*
X133072Y432950D02*
X133072Y438928D01*
X133000Y439000D01*
X133000Y440000D01*
X138023Y445023D02*
X154281Y445023D01*
X138023Y445023D02*
X133000Y440000D01*
X129952Y432950D02*
X126000Y428998D01*
X129952Y432950D02*
X133072Y432950D01*
X126000Y401000D02*
X130489Y396511D01*
X126000Y401000D02*
X126000Y428998D01*
D23*
X61291Y140031D03*
D24*
X61291Y174031D01*
X72291Y185031D01*
X95211Y185031D01*
X106291Y196111D01*
X99291Y248031D02*
X57291Y248031D01*
X51291Y254031D01*
X51291Y344031D01*
X106291Y241031D02*
X106291Y196111D01*
X106291Y241031D02*
X99291Y248031D01*
D23*
X51291Y344031D03*
X44291Y138031D03*
X94291Y81031D03*
D28*
X94291Y97031D01*
D24*
X49743Y138031D02*
X44291Y138031D01*
X49743Y138031D02*
X54711Y133063D01*
X76291Y81031D02*
X94291Y81031D01*
X72291Y85031D02*
X72291Y96466D01*
X54711Y114046D02*
X54711Y133063D01*
X72291Y85031D02*
X76291Y81031D01*
X72291Y96466D02*
X54711Y114046D01*
D28*
X101671Y104411D02*
X120751Y104411D01*
X101671Y104411D02*
X94291Y97031D01*
D23*
X120751Y104411D03*
X152291Y289031D03*
X26771Y233951D03*
D28*
X17291Y243431D02*
X6291Y243431D01*
X17291Y243431D02*
X26771Y233951D01*
D24*
X87221Y445023D02*
X87221Y458741D01*
X87221Y445023D02*
X86969Y444771D01*
X87221Y458741D02*
X86971Y458991D01*
X86971Y470171D01*
X145641Y471441D02*
X145641Y458741D01*
D28*
X152501Y273321D02*
X167291Y258531D01*
X152501Y288821D02*
X152291Y289031D01*
X152501Y288821D02*
X152501Y273321D01*
X152291Y289031D02*
X152291Y374593D01*
X167291Y209601D02*
X167081Y209391D01*
X167291Y209601D02*
X167291Y258531D01*
D24*
X135483Y188993D02*
X135483Y180865D01*
X143611Y197121D02*
X157581Y197121D01*
X167081Y206621D01*
X167081Y207281D01*
X167081Y209391D01*
X143611Y197121D02*
X135483Y188993D01*
D28*
X152291Y374593D02*
X151963Y374921D01*
X152291Y374779D02*
X152291Y374593D01*
X167081Y207281D02*
X176631Y197731D01*
X169011Y167911D02*
X162661Y167911D01*
X169011Y167911D02*
X176631Y175531D01*
X176631Y197731D01*
D24*
X108372Y432950D02*
X108372Y439628D01*
X102977Y445023D02*
X87221Y445023D01*
X102977Y445023D02*
X108372Y439628D01*
X116000Y405000D02*
X128013Y392987D01*
X151963Y387037D02*
X151963Y374921D01*
X146013Y392987D02*
X128013Y392987D01*
X146013Y392987D02*
X151963Y387037D01*
X116000Y453000D02*
X122000Y459000D01*
X145382Y459000D01*
X145641Y458741D01*
X116000Y433000D02*
X116000Y405000D01*
X116000Y433000D02*
X116000Y453000D01*
X108421Y433000D02*
X108372Y432950D01*
X108421Y433000D02*
X116000Y433000D01*
D23*
X74291Y40031D03*
D24*
X78291Y44031D01*
D23*
X104291Y72031D03*
D24*
X84009Y72031D01*
X78291Y66314D02*
X78291Y44031D01*
X78291Y66314D02*
X84009Y72031D01*
D23*
X148291Y28031D03*
X222291Y69031D03*
D24*
X154291Y28031D02*
X148291Y28031D01*
X154291Y28031D02*
X160291Y22031D01*
X217291Y22031D01*
X222291Y27031D01*
X222291Y69031D01*
X86969Y432071D02*
X69951Y432071D01*
X66141Y435881D01*
X66141Y466361D01*
X69951Y470171D01*
X78331Y470171D01*
X99050Y427950D02*
X108372Y427950D01*
X94929Y432071D02*
X86969Y432071D01*
X94929Y432071D02*
X99050Y427950D01*
X154533Y419371D02*
X176631Y419371D01*
X181711Y424451D01*
X181711Y465091D01*
X175361Y471441D01*
X154281Y471441D01*
X142050Y422950D02*
X133072Y422950D01*
X142050Y422950D02*
X146000Y419000D01*
X154163Y419000D01*
X154533Y419371D01*
D23*
X120751Y92981D03*
X169011Y186961D03*
D28*
X160121Y187391D02*
X157581Y187391D01*
X160121Y187391D02*
X168581Y187391D01*
X169011Y186961D01*
D24*
X123545Y167657D02*
X116179Y167657D01*
X127101Y164101D02*
X127101Y160291D01*
X127101Y164101D02*
X123545Y167657D01*
D23*
X127101Y160291D03*
D28*
X134721Y145051D02*
X134721Y105681D01*
X122021Y92981D01*
X120751Y92981D01*
X149962Y160291D02*
X149961Y167911D01*
X149962Y160291D02*
X134721Y145051D01*
X149961Y167911D02*
X149961Y177231D01*
X160121Y187391D01*
D24*
X135483Y174261D02*
X116179Y174261D01*
X135483Y174261D02*
X135483Y167657D01*
D23*
X105511Y174261D03*
D24*
X116179Y174261D01*
X116179Y180865D02*
X116179Y184929D01*
X123291Y192041D02*
X133548Y192041D01*
X148081Y206575D02*
X148081Y209391D01*
X123291Y192041D02*
X116179Y184929D01*
X133548Y192041D02*
X148081Y206575D01*
X116179Y180865D02*
X102283Y180865D01*
X80023Y177983D02*
X76301Y174261D01*
X99401Y177983D02*
X102283Y180865D01*
X99401Y177983D02*
X80023Y177983D01*
D23*
X76301Y174261D03*
M02*
