G04 EAGLE Gerber RS-274X export*
G75*
%MOMM*%
%FSLAX34Y34*%
%LPD*%
%INSilkscreen Top*%
%IPPOS*%
%AMOC8*
5,1,8,0,0,1.08239X$1,22.5*%
G01*
%ADD10C,0.101600*%
%ADD11C,0.355600*%
%ADD12C,0.203200*%
%ADD13C,0.254000*%
%ADD14C,0.127000*%
%ADD15C,0.177800*%
%ADD16C,0.152400*%
%ADD17C,0.076200*%
%ADD18C,0.200000*%
%ADD19C,0.300000*%
%ADD20C,0.050800*%


D10*
X55808Y314403D02*
X64896Y314403D01*
X64896Y314402D02*
X64995Y314400D01*
X65095Y314394D01*
X65194Y314385D01*
X65292Y314372D01*
X65390Y314355D01*
X65488Y314334D01*
X65584Y314309D01*
X65679Y314281D01*
X65773Y314249D01*
X65866Y314214D01*
X65958Y314175D01*
X66048Y314132D01*
X66136Y314087D01*
X66223Y314037D01*
X66307Y313985D01*
X66390Y313929D01*
X66470Y313871D01*
X66548Y313809D01*
X66623Y313744D01*
X66696Y313676D01*
X66766Y313606D01*
X66834Y313533D01*
X66899Y313458D01*
X66961Y313380D01*
X67019Y313300D01*
X67075Y313217D01*
X67127Y313133D01*
X67177Y313046D01*
X67222Y312958D01*
X67265Y312868D01*
X67304Y312776D01*
X67339Y312683D01*
X67371Y312589D01*
X67399Y312494D01*
X67424Y312398D01*
X67445Y312300D01*
X67462Y312202D01*
X67475Y312104D01*
X67484Y312005D01*
X67490Y311905D01*
X67492Y311806D01*
X67492Y310508D01*
X67492Y320080D02*
X55808Y320080D01*
X67492Y320080D02*
X67492Y325273D01*
X67492Y332145D02*
X67492Y334742D01*
X67492Y332145D02*
X67490Y332046D01*
X67484Y331946D01*
X67475Y331847D01*
X67462Y331749D01*
X67445Y331651D01*
X67424Y331553D01*
X67399Y331457D01*
X67371Y331362D01*
X67339Y331268D01*
X67304Y331175D01*
X67265Y331083D01*
X67222Y330993D01*
X67177Y330905D01*
X67127Y330818D01*
X67075Y330734D01*
X67019Y330651D01*
X66961Y330571D01*
X66899Y330493D01*
X66834Y330418D01*
X66766Y330345D01*
X66696Y330275D01*
X66623Y330207D01*
X66548Y330142D01*
X66470Y330080D01*
X66390Y330022D01*
X66307Y329966D01*
X66223Y329914D01*
X66136Y329864D01*
X66048Y329819D01*
X65958Y329776D01*
X65866Y329737D01*
X65773Y329702D01*
X65679Y329670D01*
X65584Y329642D01*
X65488Y329617D01*
X65390Y329596D01*
X65292Y329579D01*
X65194Y329566D01*
X65095Y329557D01*
X64995Y329551D01*
X64896Y329549D01*
X58404Y329549D01*
X58404Y329548D02*
X58305Y329550D01*
X58205Y329556D01*
X58106Y329565D01*
X58008Y329578D01*
X57910Y329596D01*
X57812Y329616D01*
X57716Y329641D01*
X57620Y329669D01*
X57526Y329701D01*
X57433Y329736D01*
X57342Y329775D01*
X57252Y329818D01*
X57163Y329863D01*
X57077Y329913D01*
X56992Y329965D01*
X56910Y330021D01*
X56830Y330080D01*
X56752Y330141D01*
X56676Y330206D01*
X56603Y330274D01*
X56533Y330344D01*
X56465Y330417D01*
X56400Y330493D01*
X56339Y330571D01*
X56280Y330651D01*
X56224Y330733D01*
X56172Y330818D01*
X56123Y330904D01*
X56077Y330993D01*
X56034Y331083D01*
X55995Y331174D01*
X55960Y331267D01*
X55928Y331361D01*
X55900Y331457D01*
X55875Y331553D01*
X55855Y331651D01*
X55837Y331749D01*
X55824Y331847D01*
X55815Y331946D01*
X55809Y332045D01*
X55807Y332145D01*
X55808Y332145D02*
X55808Y334742D01*
X55808Y341835D02*
X64896Y341835D01*
X64896Y341834D02*
X64995Y341832D01*
X65095Y341826D01*
X65194Y341817D01*
X65292Y341804D01*
X65390Y341787D01*
X65488Y341766D01*
X65584Y341741D01*
X65679Y341713D01*
X65773Y341681D01*
X65866Y341646D01*
X65958Y341607D01*
X66048Y341564D01*
X66136Y341519D01*
X66223Y341469D01*
X66307Y341417D01*
X66390Y341361D01*
X66470Y341303D01*
X66548Y341241D01*
X66623Y341176D01*
X66696Y341108D01*
X66766Y341038D01*
X66834Y340965D01*
X66899Y340890D01*
X66961Y340812D01*
X67019Y340732D01*
X67075Y340649D01*
X67127Y340565D01*
X67177Y340478D01*
X67222Y340390D01*
X67265Y340300D01*
X67304Y340208D01*
X67339Y340115D01*
X67371Y340021D01*
X67399Y339926D01*
X67424Y339830D01*
X67445Y339732D01*
X67462Y339634D01*
X67475Y339536D01*
X67484Y339437D01*
X67490Y339337D01*
X67492Y339238D01*
X67492Y337940D01*
X67492Y347512D02*
X55808Y347512D01*
X67492Y347512D02*
X67492Y352705D01*
X67492Y359577D02*
X67492Y362174D01*
X67492Y359577D02*
X67490Y359478D01*
X67484Y359378D01*
X67475Y359279D01*
X67462Y359181D01*
X67445Y359083D01*
X67424Y358985D01*
X67399Y358889D01*
X67371Y358794D01*
X67339Y358700D01*
X67304Y358607D01*
X67265Y358515D01*
X67222Y358425D01*
X67177Y358337D01*
X67127Y358250D01*
X67075Y358166D01*
X67019Y358083D01*
X66961Y358003D01*
X66899Y357925D01*
X66834Y357850D01*
X66766Y357777D01*
X66696Y357707D01*
X66623Y357639D01*
X66548Y357574D01*
X66470Y357512D01*
X66390Y357454D01*
X66307Y357398D01*
X66223Y357346D01*
X66136Y357296D01*
X66048Y357251D01*
X65958Y357208D01*
X65866Y357169D01*
X65773Y357134D01*
X65679Y357102D01*
X65584Y357074D01*
X65488Y357049D01*
X65390Y357028D01*
X65292Y357011D01*
X65194Y356998D01*
X65095Y356989D01*
X64995Y356983D01*
X64896Y356981D01*
X58404Y356981D01*
X58404Y356980D02*
X58305Y356982D01*
X58205Y356988D01*
X58106Y356997D01*
X58008Y357010D01*
X57910Y357028D01*
X57812Y357048D01*
X57716Y357073D01*
X57620Y357101D01*
X57526Y357133D01*
X57433Y357168D01*
X57342Y357207D01*
X57252Y357250D01*
X57163Y357295D01*
X57077Y357345D01*
X56992Y357397D01*
X56910Y357453D01*
X56830Y357512D01*
X56752Y357573D01*
X56676Y357638D01*
X56603Y357706D01*
X56533Y357776D01*
X56465Y357849D01*
X56400Y357925D01*
X56339Y358003D01*
X56280Y358083D01*
X56224Y358165D01*
X56172Y358250D01*
X56123Y358336D01*
X56077Y358425D01*
X56034Y358515D01*
X55995Y358606D01*
X55960Y358699D01*
X55928Y358793D01*
X55900Y358889D01*
X55875Y358985D01*
X55855Y359083D01*
X55837Y359181D01*
X55824Y359279D01*
X55815Y359378D01*
X55809Y359477D01*
X55807Y359577D01*
X55808Y359577D02*
X55808Y362174D01*
X55808Y369267D02*
X64896Y369267D01*
X64896Y369266D02*
X64995Y369264D01*
X65095Y369258D01*
X65194Y369249D01*
X65292Y369236D01*
X65390Y369219D01*
X65488Y369198D01*
X65584Y369173D01*
X65679Y369145D01*
X65773Y369113D01*
X65866Y369078D01*
X65958Y369039D01*
X66048Y368996D01*
X66136Y368951D01*
X66223Y368901D01*
X66307Y368849D01*
X66390Y368793D01*
X66470Y368735D01*
X66548Y368673D01*
X66623Y368608D01*
X66696Y368540D01*
X66766Y368470D01*
X66834Y368397D01*
X66899Y368322D01*
X66961Y368244D01*
X67019Y368164D01*
X67075Y368081D01*
X67127Y367997D01*
X67177Y367910D01*
X67222Y367822D01*
X67265Y367732D01*
X67304Y367640D01*
X67339Y367547D01*
X67371Y367453D01*
X67399Y367358D01*
X67424Y367262D01*
X67445Y367164D01*
X67462Y367066D01*
X67475Y366968D01*
X67484Y366869D01*
X67490Y366769D01*
X67492Y366670D01*
X67492Y365372D01*
X67492Y374944D02*
X55808Y374944D01*
X67492Y374944D02*
X67492Y380137D01*
X67492Y387009D02*
X67492Y389606D01*
X67492Y387009D02*
X67490Y386910D01*
X67484Y386810D01*
X67475Y386711D01*
X67462Y386613D01*
X67445Y386515D01*
X67424Y386417D01*
X67399Y386321D01*
X67371Y386226D01*
X67339Y386132D01*
X67304Y386039D01*
X67265Y385947D01*
X67222Y385857D01*
X67177Y385769D01*
X67127Y385682D01*
X67075Y385598D01*
X67019Y385515D01*
X66961Y385435D01*
X66899Y385357D01*
X66834Y385282D01*
X66766Y385209D01*
X66696Y385139D01*
X66623Y385071D01*
X66548Y385006D01*
X66470Y384944D01*
X66390Y384886D01*
X66307Y384830D01*
X66223Y384778D01*
X66136Y384728D01*
X66048Y384683D01*
X65958Y384640D01*
X65866Y384601D01*
X65773Y384566D01*
X65679Y384534D01*
X65584Y384506D01*
X65488Y384481D01*
X65390Y384460D01*
X65292Y384443D01*
X65194Y384430D01*
X65095Y384421D01*
X64995Y384415D01*
X64896Y384413D01*
X58404Y384413D01*
X58404Y384412D02*
X58305Y384414D01*
X58205Y384420D01*
X58106Y384429D01*
X58008Y384442D01*
X57910Y384460D01*
X57812Y384480D01*
X57716Y384505D01*
X57620Y384533D01*
X57526Y384565D01*
X57433Y384600D01*
X57342Y384639D01*
X57252Y384682D01*
X57163Y384727D01*
X57077Y384777D01*
X56992Y384829D01*
X56910Y384885D01*
X56830Y384944D01*
X56752Y385005D01*
X56676Y385070D01*
X56603Y385138D01*
X56533Y385208D01*
X56465Y385281D01*
X56400Y385357D01*
X56339Y385435D01*
X56280Y385515D01*
X56224Y385597D01*
X56172Y385682D01*
X56123Y385768D01*
X56077Y385857D01*
X56034Y385947D01*
X55995Y386038D01*
X55960Y386131D01*
X55928Y386225D01*
X55900Y386321D01*
X55875Y386417D01*
X55855Y386515D01*
X55837Y386613D01*
X55824Y386711D01*
X55815Y386810D01*
X55809Y386909D01*
X55807Y387009D01*
X55808Y387009D02*
X55808Y389606D01*
X55808Y396699D02*
X64896Y396699D01*
X64896Y396698D02*
X64995Y396696D01*
X65095Y396690D01*
X65194Y396681D01*
X65292Y396668D01*
X65390Y396651D01*
X65488Y396630D01*
X65584Y396605D01*
X65679Y396577D01*
X65773Y396545D01*
X65866Y396510D01*
X65958Y396471D01*
X66048Y396428D01*
X66136Y396383D01*
X66223Y396333D01*
X66307Y396281D01*
X66390Y396225D01*
X66470Y396167D01*
X66548Y396105D01*
X66623Y396040D01*
X66696Y395972D01*
X66766Y395902D01*
X66834Y395829D01*
X66899Y395754D01*
X66961Y395676D01*
X67019Y395596D01*
X67075Y395513D01*
X67127Y395429D01*
X67177Y395342D01*
X67222Y395254D01*
X67265Y395164D01*
X67304Y395072D01*
X67339Y394979D01*
X67371Y394885D01*
X67399Y394790D01*
X67424Y394694D01*
X67445Y394596D01*
X67462Y394498D01*
X67475Y394400D01*
X67484Y394301D01*
X67490Y394201D01*
X67492Y394102D01*
X67492Y392804D01*
X67492Y402376D02*
X55808Y402376D01*
X67492Y402376D02*
X67492Y407569D01*
X67492Y414441D02*
X67492Y417038D01*
X67492Y414441D02*
X67490Y414342D01*
X67484Y414242D01*
X67475Y414143D01*
X67462Y414045D01*
X67445Y413947D01*
X67424Y413849D01*
X67399Y413753D01*
X67371Y413658D01*
X67339Y413564D01*
X67304Y413471D01*
X67265Y413379D01*
X67222Y413289D01*
X67177Y413201D01*
X67127Y413114D01*
X67075Y413030D01*
X67019Y412947D01*
X66961Y412867D01*
X66899Y412789D01*
X66834Y412714D01*
X66766Y412641D01*
X66696Y412571D01*
X66623Y412503D01*
X66548Y412438D01*
X66470Y412376D01*
X66390Y412318D01*
X66307Y412262D01*
X66223Y412210D01*
X66136Y412160D01*
X66048Y412115D01*
X65958Y412072D01*
X65866Y412033D01*
X65773Y411998D01*
X65679Y411966D01*
X65584Y411938D01*
X65488Y411913D01*
X65390Y411892D01*
X65292Y411875D01*
X65194Y411862D01*
X65095Y411853D01*
X64995Y411847D01*
X64896Y411845D01*
X58404Y411845D01*
X58404Y411844D02*
X58305Y411846D01*
X58205Y411852D01*
X58106Y411861D01*
X58008Y411874D01*
X57910Y411892D01*
X57812Y411912D01*
X57716Y411937D01*
X57620Y411965D01*
X57526Y411997D01*
X57433Y412032D01*
X57342Y412071D01*
X57252Y412114D01*
X57163Y412159D01*
X57077Y412209D01*
X56992Y412261D01*
X56910Y412317D01*
X56830Y412376D01*
X56752Y412437D01*
X56676Y412502D01*
X56603Y412570D01*
X56533Y412640D01*
X56465Y412713D01*
X56400Y412789D01*
X56339Y412867D01*
X56280Y412947D01*
X56224Y413029D01*
X56172Y413114D01*
X56123Y413200D01*
X56077Y413289D01*
X56034Y413379D01*
X55995Y413470D01*
X55960Y413563D01*
X55928Y413657D01*
X55900Y413753D01*
X55875Y413849D01*
X55855Y413947D01*
X55837Y414045D01*
X55824Y414143D01*
X55815Y414242D01*
X55809Y414341D01*
X55807Y414441D01*
X55808Y414441D02*
X55808Y417038D01*
X220380Y406681D02*
X220382Y406763D01*
X220388Y406845D01*
X220397Y406927D01*
X220410Y407008D01*
X220427Y407088D01*
X220448Y407168D01*
X220472Y407246D01*
X220500Y407323D01*
X220531Y407399D01*
X220566Y407474D01*
X220605Y407546D01*
X220646Y407617D01*
X220691Y407686D01*
X220739Y407752D01*
X220790Y407817D01*
X220844Y407879D01*
X220901Y407938D01*
X220960Y407995D01*
X221022Y408049D01*
X221087Y408100D01*
X221153Y408148D01*
X221222Y408193D01*
X221293Y408234D01*
X221365Y408273D01*
X221440Y408308D01*
X221516Y408339D01*
X221593Y408367D01*
X221671Y408391D01*
X221751Y408412D01*
X221831Y408429D01*
X221912Y408442D01*
X221994Y408451D01*
X222076Y408457D01*
X222158Y408459D01*
X220380Y406681D02*
X220382Y406588D01*
X220388Y406496D01*
X220397Y406404D01*
X220410Y406312D01*
X220427Y406221D01*
X220447Y406131D01*
X220471Y406041D01*
X220499Y405953D01*
X220531Y405865D01*
X220565Y405780D01*
X220604Y405695D01*
X220645Y405613D01*
X220690Y405532D01*
X220739Y405452D01*
X220790Y405375D01*
X220844Y405300D01*
X220902Y405228D01*
X220962Y405157D01*
X221026Y405090D01*
X221091Y405025D01*
X221160Y404962D01*
X221231Y404903D01*
X221304Y404846D01*
X221380Y404792D01*
X221457Y404742D01*
X221537Y404694D01*
X221619Y404650D01*
X221702Y404610D01*
X221787Y404572D01*
X221873Y404538D01*
X221960Y404508D01*
X223541Y407866D02*
X223480Y407927D01*
X223417Y407985D01*
X223351Y408040D01*
X223283Y408093D01*
X223212Y408142D01*
X223140Y408187D01*
X223065Y408230D01*
X222989Y408269D01*
X222910Y408305D01*
X222831Y408337D01*
X222750Y408365D01*
X222667Y408390D01*
X222584Y408411D01*
X222500Y408428D01*
X222415Y408442D01*
X222330Y408451D01*
X222244Y408457D01*
X222158Y408459D01*
X223541Y407866D02*
X227492Y404508D01*
X227492Y408459D01*
X221170Y411823D02*
X220380Y411823D01*
X220380Y415774D01*
X227492Y413799D01*
X220380Y432681D02*
X220382Y432763D01*
X220388Y432845D01*
X220397Y432927D01*
X220410Y433008D01*
X220427Y433088D01*
X220448Y433168D01*
X220472Y433246D01*
X220500Y433323D01*
X220531Y433399D01*
X220566Y433474D01*
X220605Y433546D01*
X220646Y433617D01*
X220691Y433686D01*
X220739Y433752D01*
X220790Y433817D01*
X220844Y433879D01*
X220901Y433938D01*
X220960Y433995D01*
X221022Y434049D01*
X221087Y434100D01*
X221153Y434148D01*
X221222Y434193D01*
X221293Y434234D01*
X221365Y434273D01*
X221440Y434308D01*
X221516Y434339D01*
X221593Y434367D01*
X221671Y434391D01*
X221751Y434412D01*
X221831Y434429D01*
X221912Y434442D01*
X221994Y434451D01*
X222076Y434457D01*
X222158Y434459D01*
X220380Y432681D02*
X220382Y432588D01*
X220388Y432496D01*
X220397Y432404D01*
X220410Y432312D01*
X220427Y432221D01*
X220447Y432131D01*
X220471Y432041D01*
X220499Y431953D01*
X220531Y431865D01*
X220565Y431780D01*
X220604Y431695D01*
X220645Y431613D01*
X220690Y431532D01*
X220739Y431452D01*
X220790Y431375D01*
X220844Y431300D01*
X220902Y431228D01*
X220962Y431157D01*
X221026Y431090D01*
X221091Y431025D01*
X221160Y430962D01*
X221231Y430903D01*
X221304Y430846D01*
X221380Y430792D01*
X221457Y430742D01*
X221537Y430694D01*
X221619Y430650D01*
X221702Y430610D01*
X221787Y430572D01*
X221873Y430538D01*
X221960Y430508D01*
X223541Y433866D02*
X223480Y433927D01*
X223417Y433985D01*
X223351Y434040D01*
X223283Y434093D01*
X223212Y434142D01*
X223140Y434187D01*
X223065Y434230D01*
X222989Y434269D01*
X222910Y434305D01*
X222831Y434337D01*
X222750Y434365D01*
X222667Y434390D01*
X222584Y434411D01*
X222500Y434428D01*
X222415Y434442D01*
X222330Y434451D01*
X222244Y434457D01*
X222158Y434459D01*
X223541Y433866D02*
X227492Y430508D01*
X227492Y434459D01*
X225516Y437823D02*
X225429Y437825D01*
X225341Y437831D01*
X225254Y437840D01*
X225168Y437854D01*
X225082Y437871D01*
X224998Y437892D01*
X224914Y437917D01*
X224831Y437946D01*
X224750Y437978D01*
X224670Y438013D01*
X224592Y438052D01*
X224515Y438095D01*
X224441Y438141D01*
X224369Y438190D01*
X224299Y438242D01*
X224231Y438298D01*
X224166Y438356D01*
X224103Y438417D01*
X224044Y438481D01*
X223987Y438548D01*
X223933Y438616D01*
X223882Y438688D01*
X223835Y438761D01*
X223790Y438836D01*
X223749Y438914D01*
X223712Y438993D01*
X223678Y439073D01*
X223648Y439155D01*
X223621Y439238D01*
X223598Y439323D01*
X223579Y439408D01*
X223564Y439494D01*
X223552Y439581D01*
X223544Y439668D01*
X223540Y439755D01*
X223540Y439843D01*
X223544Y439930D01*
X223552Y440017D01*
X223564Y440104D01*
X223579Y440190D01*
X223598Y440275D01*
X223621Y440360D01*
X223648Y440443D01*
X223678Y440525D01*
X223712Y440605D01*
X223749Y440684D01*
X223790Y440762D01*
X223835Y440837D01*
X223882Y440910D01*
X223933Y440982D01*
X223987Y441050D01*
X224044Y441117D01*
X224103Y441181D01*
X224166Y441242D01*
X224231Y441300D01*
X224299Y441356D01*
X224369Y441408D01*
X224441Y441457D01*
X224515Y441503D01*
X224592Y441546D01*
X224670Y441585D01*
X224750Y441620D01*
X224831Y441652D01*
X224914Y441681D01*
X224998Y441706D01*
X225082Y441727D01*
X225168Y441744D01*
X225254Y441758D01*
X225341Y441767D01*
X225429Y441773D01*
X225516Y441775D01*
X225603Y441773D01*
X225691Y441767D01*
X225778Y441758D01*
X225864Y441744D01*
X225950Y441727D01*
X226034Y441706D01*
X226118Y441681D01*
X226201Y441652D01*
X226282Y441620D01*
X226362Y441585D01*
X226440Y441546D01*
X226517Y441503D01*
X226591Y441457D01*
X226663Y441408D01*
X226733Y441356D01*
X226801Y441300D01*
X226866Y441242D01*
X226929Y441181D01*
X226988Y441117D01*
X227045Y441050D01*
X227099Y440982D01*
X227150Y440910D01*
X227197Y440837D01*
X227242Y440762D01*
X227283Y440684D01*
X227320Y440605D01*
X227354Y440525D01*
X227384Y440443D01*
X227411Y440360D01*
X227434Y440275D01*
X227453Y440190D01*
X227468Y440104D01*
X227480Y440017D01*
X227488Y439930D01*
X227492Y439843D01*
X227492Y439755D01*
X227488Y439668D01*
X227480Y439581D01*
X227468Y439494D01*
X227453Y439408D01*
X227434Y439323D01*
X227411Y439238D01*
X227384Y439155D01*
X227354Y439073D01*
X227320Y438993D01*
X227283Y438914D01*
X227242Y438836D01*
X227197Y438761D01*
X227150Y438688D01*
X227099Y438616D01*
X227045Y438548D01*
X226988Y438481D01*
X226929Y438417D01*
X226866Y438356D01*
X226801Y438298D01*
X226733Y438242D01*
X226663Y438190D01*
X226591Y438141D01*
X226517Y438095D01*
X226440Y438052D01*
X226362Y438013D01*
X226282Y437978D01*
X226201Y437946D01*
X226118Y437917D01*
X226034Y437892D01*
X225950Y437871D01*
X225864Y437854D01*
X225778Y437840D01*
X225691Y437831D01*
X225603Y437825D01*
X225516Y437823D01*
X221960Y438219D02*
X221881Y438221D01*
X221803Y438227D01*
X221725Y438237D01*
X221647Y438250D01*
X221570Y438268D01*
X221494Y438289D01*
X221420Y438314D01*
X221346Y438343D01*
X221274Y438375D01*
X221204Y438411D01*
X221136Y438451D01*
X221070Y438494D01*
X221006Y438540D01*
X220944Y438589D01*
X220885Y438641D01*
X220829Y438696D01*
X220775Y438754D01*
X220725Y438814D01*
X220677Y438877D01*
X220633Y438942D01*
X220592Y439009D01*
X220554Y439078D01*
X220520Y439149D01*
X220489Y439222D01*
X220462Y439296D01*
X220439Y439371D01*
X220420Y439447D01*
X220404Y439525D01*
X220392Y439603D01*
X220384Y439681D01*
X220380Y439760D01*
X220380Y439838D01*
X220384Y439917D01*
X220392Y439995D01*
X220404Y440073D01*
X220420Y440151D01*
X220439Y440227D01*
X220462Y440302D01*
X220489Y440376D01*
X220520Y440449D01*
X220554Y440520D01*
X220592Y440589D01*
X220633Y440656D01*
X220677Y440721D01*
X220725Y440784D01*
X220775Y440844D01*
X220829Y440902D01*
X220885Y440957D01*
X220944Y441009D01*
X221006Y441058D01*
X221070Y441104D01*
X221136Y441147D01*
X221204Y441187D01*
X221274Y441223D01*
X221346Y441255D01*
X221420Y441284D01*
X221494Y441309D01*
X221570Y441330D01*
X221647Y441348D01*
X221725Y441361D01*
X221803Y441371D01*
X221881Y441377D01*
X221960Y441379D01*
X222039Y441377D01*
X222117Y441371D01*
X222195Y441361D01*
X222273Y441348D01*
X222350Y441330D01*
X222426Y441309D01*
X222500Y441284D01*
X222574Y441255D01*
X222646Y441223D01*
X222716Y441187D01*
X222784Y441147D01*
X222850Y441104D01*
X222914Y441058D01*
X222976Y441009D01*
X223035Y440957D01*
X223091Y440902D01*
X223145Y440844D01*
X223195Y440784D01*
X223243Y440721D01*
X223287Y440656D01*
X223328Y440589D01*
X223366Y440520D01*
X223400Y440449D01*
X223431Y440376D01*
X223458Y440302D01*
X223481Y440227D01*
X223500Y440151D01*
X223516Y440073D01*
X223528Y439995D01*
X223536Y439917D01*
X223540Y439838D01*
X223540Y439760D01*
X223536Y439681D01*
X223528Y439603D01*
X223516Y439525D01*
X223500Y439447D01*
X223481Y439371D01*
X223458Y439296D01*
X223431Y439222D01*
X223400Y439149D01*
X223366Y439078D01*
X223328Y439009D01*
X223287Y438942D01*
X223243Y438877D01*
X223195Y438814D01*
X223145Y438754D01*
X223091Y438696D01*
X223035Y438641D01*
X222976Y438589D01*
X222914Y438540D01*
X222850Y438494D01*
X222784Y438451D01*
X222716Y438411D01*
X222646Y438375D01*
X222574Y438343D01*
X222500Y438314D01*
X222426Y438289D01*
X222350Y438268D01*
X222273Y438250D01*
X222195Y438237D01*
X222117Y438227D01*
X222039Y438221D01*
X221960Y438219D01*
X220380Y458681D02*
X220382Y458763D01*
X220388Y458845D01*
X220397Y458927D01*
X220410Y459008D01*
X220427Y459088D01*
X220448Y459168D01*
X220472Y459246D01*
X220500Y459323D01*
X220531Y459399D01*
X220566Y459474D01*
X220605Y459546D01*
X220646Y459617D01*
X220691Y459686D01*
X220739Y459752D01*
X220790Y459817D01*
X220844Y459879D01*
X220901Y459938D01*
X220960Y459995D01*
X221022Y460049D01*
X221087Y460100D01*
X221153Y460148D01*
X221222Y460193D01*
X221293Y460234D01*
X221365Y460273D01*
X221440Y460308D01*
X221516Y460339D01*
X221593Y460367D01*
X221671Y460391D01*
X221751Y460412D01*
X221831Y460429D01*
X221912Y460442D01*
X221994Y460451D01*
X222076Y460457D01*
X222158Y460459D01*
X220380Y458681D02*
X220382Y458588D01*
X220388Y458496D01*
X220397Y458404D01*
X220410Y458312D01*
X220427Y458221D01*
X220447Y458131D01*
X220471Y458041D01*
X220499Y457953D01*
X220531Y457865D01*
X220565Y457780D01*
X220604Y457695D01*
X220645Y457613D01*
X220690Y457532D01*
X220739Y457452D01*
X220790Y457375D01*
X220844Y457300D01*
X220902Y457228D01*
X220962Y457157D01*
X221026Y457090D01*
X221091Y457025D01*
X221160Y456962D01*
X221231Y456903D01*
X221304Y456846D01*
X221380Y456792D01*
X221457Y456742D01*
X221537Y456694D01*
X221619Y456650D01*
X221702Y456610D01*
X221787Y456572D01*
X221873Y456538D01*
X221960Y456508D01*
X223541Y459866D02*
X223480Y459927D01*
X223417Y459985D01*
X223351Y460040D01*
X223283Y460093D01*
X223212Y460142D01*
X223140Y460187D01*
X223065Y460230D01*
X222989Y460269D01*
X222910Y460305D01*
X222831Y460337D01*
X222750Y460365D01*
X222667Y460390D01*
X222584Y460411D01*
X222500Y460428D01*
X222415Y460442D01*
X222330Y460451D01*
X222244Y460457D01*
X222158Y460459D01*
X223541Y459866D02*
X227492Y456508D01*
X227492Y460459D01*
X224331Y465404D02*
X224331Y467774D01*
X224331Y465404D02*
X224329Y465326D01*
X224323Y465249D01*
X224314Y465172D01*
X224301Y465096D01*
X224284Y465020D01*
X224263Y464945D01*
X224239Y464872D01*
X224211Y464799D01*
X224179Y464728D01*
X224144Y464659D01*
X224106Y464592D01*
X224065Y464526D01*
X224020Y464463D01*
X223972Y464402D01*
X223922Y464343D01*
X223868Y464287D01*
X223812Y464233D01*
X223753Y464183D01*
X223692Y464135D01*
X223629Y464090D01*
X223563Y464049D01*
X223496Y464011D01*
X223427Y463976D01*
X223356Y463944D01*
X223283Y463916D01*
X223210Y463892D01*
X223135Y463871D01*
X223059Y463854D01*
X222983Y463841D01*
X222906Y463832D01*
X222829Y463826D01*
X222751Y463824D01*
X222751Y463823D02*
X222356Y463823D01*
X222269Y463825D01*
X222181Y463831D01*
X222094Y463840D01*
X222008Y463854D01*
X221922Y463871D01*
X221838Y463892D01*
X221754Y463917D01*
X221671Y463946D01*
X221590Y463978D01*
X221510Y464013D01*
X221432Y464052D01*
X221355Y464095D01*
X221281Y464141D01*
X221209Y464190D01*
X221139Y464242D01*
X221071Y464298D01*
X221006Y464356D01*
X220943Y464417D01*
X220884Y464481D01*
X220827Y464548D01*
X220773Y464616D01*
X220722Y464688D01*
X220675Y464761D01*
X220630Y464836D01*
X220589Y464914D01*
X220552Y464993D01*
X220518Y465073D01*
X220488Y465155D01*
X220461Y465238D01*
X220438Y465323D01*
X220419Y465408D01*
X220404Y465494D01*
X220392Y465581D01*
X220384Y465668D01*
X220380Y465755D01*
X220380Y465843D01*
X220384Y465930D01*
X220392Y466017D01*
X220404Y466104D01*
X220419Y466190D01*
X220438Y466275D01*
X220461Y466360D01*
X220488Y466443D01*
X220518Y466525D01*
X220552Y466605D01*
X220589Y466684D01*
X220630Y466762D01*
X220675Y466837D01*
X220722Y466910D01*
X220773Y466982D01*
X220827Y467050D01*
X220884Y467117D01*
X220943Y467181D01*
X221006Y467242D01*
X221071Y467300D01*
X221139Y467356D01*
X221209Y467408D01*
X221281Y467457D01*
X221355Y467503D01*
X221432Y467546D01*
X221510Y467585D01*
X221590Y467620D01*
X221671Y467652D01*
X221754Y467681D01*
X221838Y467706D01*
X221922Y467727D01*
X222008Y467744D01*
X222094Y467758D01*
X222181Y467767D01*
X222269Y467773D01*
X222356Y467775D01*
X222356Y467774D02*
X224331Y467774D01*
X224441Y467772D01*
X224552Y467766D01*
X224661Y467757D01*
X224771Y467743D01*
X224880Y467726D01*
X224988Y467705D01*
X225096Y467680D01*
X225202Y467652D01*
X225308Y467619D01*
X225412Y467583D01*
X225515Y467544D01*
X225617Y467501D01*
X225717Y467454D01*
X225815Y467404D01*
X225912Y467351D01*
X226006Y467294D01*
X226099Y467234D01*
X226189Y467170D01*
X226277Y467104D01*
X226363Y467034D01*
X226446Y466962D01*
X226527Y466887D01*
X226605Y466809D01*
X226680Y466728D01*
X226752Y466645D01*
X226822Y466559D01*
X226888Y466471D01*
X226952Y466381D01*
X227012Y466288D01*
X227069Y466194D01*
X227122Y466097D01*
X227172Y465999D01*
X227219Y465899D01*
X227262Y465797D01*
X227301Y465694D01*
X227337Y465590D01*
X227370Y465484D01*
X227398Y465378D01*
X227423Y465270D01*
X227444Y465162D01*
X227461Y465053D01*
X227475Y464943D01*
X227484Y464834D01*
X227490Y464723D01*
X227492Y464613D01*
X227492Y480508D02*
X227492Y482484D01*
X227490Y482571D01*
X227484Y482659D01*
X227475Y482746D01*
X227461Y482832D01*
X227444Y482918D01*
X227423Y483002D01*
X227398Y483086D01*
X227369Y483169D01*
X227337Y483250D01*
X227302Y483330D01*
X227263Y483408D01*
X227220Y483485D01*
X227174Y483559D01*
X227125Y483631D01*
X227073Y483701D01*
X227017Y483769D01*
X226959Y483834D01*
X226898Y483897D01*
X226834Y483956D01*
X226767Y484013D01*
X226699Y484067D01*
X226627Y484118D01*
X226554Y484165D01*
X226479Y484210D01*
X226401Y484251D01*
X226322Y484288D01*
X226242Y484322D01*
X226160Y484352D01*
X226077Y484379D01*
X225992Y484402D01*
X225907Y484421D01*
X225821Y484436D01*
X225734Y484448D01*
X225647Y484456D01*
X225560Y484460D01*
X225472Y484460D01*
X225385Y484456D01*
X225298Y484448D01*
X225211Y484436D01*
X225125Y484421D01*
X225040Y484402D01*
X224955Y484379D01*
X224872Y484352D01*
X224790Y484322D01*
X224710Y484288D01*
X224631Y484251D01*
X224553Y484210D01*
X224478Y484165D01*
X224405Y484118D01*
X224333Y484067D01*
X224265Y484013D01*
X224198Y483956D01*
X224134Y483897D01*
X224073Y483834D01*
X224015Y483769D01*
X223959Y483701D01*
X223907Y483631D01*
X223858Y483559D01*
X223812Y483485D01*
X223769Y483408D01*
X223730Y483330D01*
X223695Y483250D01*
X223663Y483169D01*
X223634Y483086D01*
X223609Y483002D01*
X223588Y482918D01*
X223571Y482832D01*
X223557Y482746D01*
X223548Y482659D01*
X223542Y482571D01*
X223540Y482484D01*
X220380Y482879D02*
X220380Y480508D01*
X220380Y482879D02*
X220382Y482958D01*
X220388Y483036D01*
X220398Y483114D01*
X220411Y483192D01*
X220429Y483269D01*
X220450Y483345D01*
X220475Y483419D01*
X220504Y483493D01*
X220536Y483565D01*
X220572Y483635D01*
X220612Y483703D01*
X220655Y483769D01*
X220701Y483833D01*
X220750Y483895D01*
X220802Y483954D01*
X220857Y484010D01*
X220915Y484064D01*
X220975Y484114D01*
X221038Y484162D01*
X221103Y484206D01*
X221170Y484247D01*
X221239Y484285D01*
X221310Y484319D01*
X221383Y484350D01*
X221457Y484377D01*
X221532Y484400D01*
X221608Y484419D01*
X221686Y484435D01*
X221764Y484447D01*
X221842Y484455D01*
X221921Y484459D01*
X221999Y484459D01*
X222078Y484455D01*
X222156Y484447D01*
X222234Y484435D01*
X222312Y484419D01*
X222388Y484400D01*
X222463Y484377D01*
X222537Y484350D01*
X222610Y484319D01*
X222681Y484285D01*
X222750Y484247D01*
X222817Y484206D01*
X222882Y484162D01*
X222945Y484114D01*
X223005Y484064D01*
X223063Y484010D01*
X223118Y483954D01*
X223170Y483895D01*
X223219Y483833D01*
X223265Y483769D01*
X223308Y483703D01*
X223348Y483635D01*
X223384Y483565D01*
X223416Y483493D01*
X223445Y483419D01*
X223470Y483345D01*
X223491Y483269D01*
X223509Y483192D01*
X223522Y483114D01*
X223532Y483036D01*
X223538Y482958D01*
X223540Y482879D01*
X223541Y482879D02*
X223541Y481298D01*
X223936Y487823D02*
X223788Y487825D01*
X223641Y487830D01*
X223493Y487840D01*
X223346Y487853D01*
X223199Y487869D01*
X223053Y487890D01*
X222908Y487914D01*
X222762Y487942D01*
X222618Y487973D01*
X222475Y488008D01*
X222332Y488047D01*
X222191Y488089D01*
X222050Y488135D01*
X221911Y488184D01*
X221773Y488237D01*
X221636Y488293D01*
X221501Y488353D01*
X221368Y488416D01*
X221297Y488442D01*
X221228Y488472D01*
X221160Y488506D01*
X221094Y488543D01*
X221030Y488583D01*
X220968Y488627D01*
X220909Y488673D01*
X220852Y488723D01*
X220798Y488776D01*
X220746Y488831D01*
X220698Y488889D01*
X220652Y488949D01*
X220610Y489012D01*
X220571Y489077D01*
X220535Y489143D01*
X220503Y489212D01*
X220475Y489281D01*
X220450Y489353D01*
X220429Y489425D01*
X220411Y489499D01*
X220398Y489573D01*
X220388Y489648D01*
X220382Y489723D01*
X220380Y489799D01*
X220382Y489875D01*
X220388Y489950D01*
X220398Y490025D01*
X220411Y490099D01*
X220429Y490173D01*
X220450Y490245D01*
X220475Y490317D01*
X220503Y490386D01*
X220535Y490455D01*
X220571Y490521D01*
X220610Y490586D01*
X220652Y490649D01*
X220698Y490709D01*
X220746Y490767D01*
X220798Y490822D01*
X220852Y490875D01*
X220909Y490925D01*
X220968Y490971D01*
X221030Y491015D01*
X221094Y491055D01*
X221160Y491092D01*
X221228Y491126D01*
X221297Y491156D01*
X221368Y491182D01*
X221368Y491181D02*
X221501Y491244D01*
X221636Y491304D01*
X221773Y491360D01*
X221911Y491413D01*
X222050Y491462D01*
X222191Y491508D01*
X222332Y491550D01*
X222475Y491589D01*
X222618Y491624D01*
X222762Y491655D01*
X222908Y491683D01*
X223053Y491707D01*
X223199Y491728D01*
X223346Y491744D01*
X223493Y491757D01*
X223641Y491767D01*
X223788Y491772D01*
X223936Y491774D01*
X223936Y487823D02*
X224084Y487825D01*
X224231Y487830D01*
X224379Y487840D01*
X224526Y487853D01*
X224673Y487869D01*
X224819Y487890D01*
X224964Y487914D01*
X225110Y487942D01*
X225254Y487973D01*
X225397Y488008D01*
X225540Y488047D01*
X225681Y488089D01*
X225822Y488135D01*
X225961Y488184D01*
X226099Y488237D01*
X226236Y488293D01*
X226371Y488353D01*
X226504Y488416D01*
X226575Y488442D01*
X226644Y488472D01*
X226712Y488506D01*
X226778Y488543D01*
X226842Y488583D01*
X226904Y488627D01*
X226963Y488673D01*
X227020Y488723D01*
X227074Y488776D01*
X227126Y488831D01*
X227174Y488889D01*
X227220Y488949D01*
X227262Y489012D01*
X227301Y489077D01*
X227337Y489143D01*
X227369Y489212D01*
X227397Y489282D01*
X227422Y489353D01*
X227443Y489425D01*
X227461Y489499D01*
X227474Y489573D01*
X227484Y489648D01*
X227490Y489723D01*
X227492Y489799D01*
X226504Y491181D02*
X226371Y491244D01*
X226236Y491304D01*
X226099Y491360D01*
X225961Y491413D01*
X225822Y491462D01*
X225681Y491508D01*
X225540Y491550D01*
X225397Y491589D01*
X225254Y491624D01*
X225110Y491655D01*
X224964Y491683D01*
X224819Y491707D01*
X224673Y491728D01*
X224526Y491744D01*
X224379Y491757D01*
X224231Y491767D01*
X224084Y491772D01*
X223936Y491774D01*
X226504Y491182D02*
X226575Y491156D01*
X226644Y491126D01*
X226712Y491092D01*
X226778Y491055D01*
X226842Y491015D01*
X226904Y490971D01*
X226963Y490925D01*
X227020Y490875D01*
X227074Y490822D01*
X227126Y490767D01*
X227174Y490709D01*
X227220Y490649D01*
X227262Y490586D01*
X227301Y490521D01*
X227337Y490455D01*
X227369Y490386D01*
X227397Y490316D01*
X227422Y490245D01*
X227443Y490173D01*
X227461Y490099D01*
X227474Y490025D01*
X227484Y489950D01*
X227490Y489875D01*
X227492Y489799D01*
X225912Y488218D02*
X221960Y491379D01*
X222158Y383459D02*
X222076Y383457D01*
X221994Y383451D01*
X221912Y383442D01*
X221831Y383429D01*
X221751Y383412D01*
X221671Y383391D01*
X221593Y383367D01*
X221516Y383339D01*
X221440Y383308D01*
X221365Y383273D01*
X221293Y383234D01*
X221222Y383193D01*
X221153Y383148D01*
X221087Y383100D01*
X221022Y383049D01*
X220960Y382995D01*
X220901Y382938D01*
X220844Y382879D01*
X220790Y382817D01*
X220739Y382752D01*
X220691Y382686D01*
X220646Y382617D01*
X220605Y382546D01*
X220566Y382474D01*
X220531Y382399D01*
X220500Y382323D01*
X220472Y382246D01*
X220448Y382168D01*
X220427Y382088D01*
X220410Y382008D01*
X220397Y381927D01*
X220388Y381845D01*
X220382Y381763D01*
X220380Y381681D01*
X220382Y381588D01*
X220388Y381496D01*
X220397Y381404D01*
X220410Y381312D01*
X220427Y381221D01*
X220447Y381131D01*
X220471Y381041D01*
X220499Y380953D01*
X220531Y380865D01*
X220565Y380780D01*
X220604Y380695D01*
X220645Y380613D01*
X220690Y380532D01*
X220739Y380452D01*
X220790Y380375D01*
X220844Y380300D01*
X220902Y380228D01*
X220962Y380157D01*
X221026Y380090D01*
X221091Y380025D01*
X221160Y379962D01*
X221231Y379903D01*
X221304Y379846D01*
X221380Y379792D01*
X221457Y379742D01*
X221537Y379694D01*
X221619Y379650D01*
X221702Y379610D01*
X221787Y379572D01*
X221873Y379538D01*
X221960Y379508D01*
X223541Y382866D02*
X223480Y382927D01*
X223417Y382985D01*
X223351Y383040D01*
X223283Y383093D01*
X223212Y383142D01*
X223140Y383187D01*
X223065Y383230D01*
X222989Y383269D01*
X222910Y383305D01*
X222831Y383337D01*
X222750Y383365D01*
X222667Y383390D01*
X222584Y383411D01*
X222500Y383428D01*
X222415Y383442D01*
X222330Y383451D01*
X222244Y383457D01*
X222158Y383459D01*
X223541Y382866D02*
X227492Y379508D01*
X227492Y383459D01*
X223541Y386823D02*
X223541Y389194D01*
X223543Y389272D01*
X223549Y389349D01*
X223558Y389426D01*
X223571Y389502D01*
X223588Y389578D01*
X223609Y389653D01*
X223633Y389726D01*
X223661Y389799D01*
X223693Y389870D01*
X223728Y389939D01*
X223766Y390006D01*
X223807Y390072D01*
X223852Y390135D01*
X223900Y390196D01*
X223950Y390255D01*
X224004Y390311D01*
X224060Y390365D01*
X224119Y390415D01*
X224180Y390463D01*
X224243Y390508D01*
X224309Y390549D01*
X224376Y390587D01*
X224445Y390622D01*
X224516Y390654D01*
X224589Y390682D01*
X224662Y390706D01*
X224737Y390727D01*
X224813Y390744D01*
X224889Y390757D01*
X224966Y390766D01*
X225043Y390772D01*
X225121Y390774D01*
X225516Y390774D01*
X225516Y390775D02*
X225603Y390773D01*
X225691Y390767D01*
X225778Y390758D01*
X225864Y390744D01*
X225950Y390727D01*
X226034Y390706D01*
X226118Y390681D01*
X226201Y390652D01*
X226282Y390620D01*
X226362Y390585D01*
X226440Y390546D01*
X226517Y390503D01*
X226591Y390457D01*
X226663Y390408D01*
X226733Y390356D01*
X226801Y390300D01*
X226866Y390242D01*
X226929Y390181D01*
X226988Y390117D01*
X227045Y390050D01*
X227099Y389982D01*
X227150Y389910D01*
X227197Y389837D01*
X227242Y389762D01*
X227283Y389684D01*
X227320Y389605D01*
X227354Y389525D01*
X227384Y389443D01*
X227411Y389360D01*
X227434Y389275D01*
X227453Y389190D01*
X227468Y389104D01*
X227480Y389017D01*
X227488Y388930D01*
X227492Y388843D01*
X227492Y388755D01*
X227488Y388668D01*
X227480Y388581D01*
X227468Y388494D01*
X227453Y388408D01*
X227434Y388323D01*
X227411Y388238D01*
X227384Y388155D01*
X227354Y388073D01*
X227320Y387993D01*
X227283Y387914D01*
X227242Y387836D01*
X227197Y387761D01*
X227150Y387688D01*
X227099Y387616D01*
X227045Y387548D01*
X226988Y387481D01*
X226929Y387417D01*
X226866Y387356D01*
X226801Y387298D01*
X226733Y387242D01*
X226663Y387190D01*
X226591Y387141D01*
X226517Y387095D01*
X226440Y387052D01*
X226362Y387013D01*
X226282Y386978D01*
X226201Y386946D01*
X226118Y386917D01*
X226034Y386892D01*
X225950Y386871D01*
X225864Y386854D01*
X225778Y386840D01*
X225691Y386831D01*
X225603Y386825D01*
X225516Y386823D01*
X223541Y386823D01*
X223431Y386825D01*
X223321Y386831D01*
X223211Y386840D01*
X223101Y386854D01*
X222992Y386871D01*
X222884Y386892D01*
X222776Y386917D01*
X222670Y386945D01*
X222564Y386978D01*
X222460Y387014D01*
X222357Y387053D01*
X222255Y387096D01*
X222155Y387143D01*
X222057Y387193D01*
X221961Y387246D01*
X221866Y387303D01*
X221773Y387363D01*
X221683Y387427D01*
X221595Y387493D01*
X221509Y387563D01*
X221426Y387635D01*
X221345Y387710D01*
X221267Y387788D01*
X221192Y387869D01*
X221120Y387952D01*
X221050Y388038D01*
X220984Y388126D01*
X220920Y388216D01*
X220860Y388309D01*
X220804Y388403D01*
X220750Y388500D01*
X220700Y388598D01*
X220653Y388698D01*
X220610Y388800D01*
X220571Y388903D01*
X220535Y389007D01*
X220502Y389113D01*
X220474Y389219D01*
X220449Y389327D01*
X220428Y389435D01*
X220411Y389544D01*
X220397Y389654D01*
X220388Y389763D01*
X220382Y389874D01*
X220380Y389984D01*
X222158Y358459D02*
X222076Y358457D01*
X221994Y358451D01*
X221912Y358442D01*
X221831Y358429D01*
X221751Y358412D01*
X221671Y358391D01*
X221593Y358367D01*
X221516Y358339D01*
X221440Y358308D01*
X221365Y358273D01*
X221293Y358234D01*
X221222Y358193D01*
X221153Y358148D01*
X221087Y358100D01*
X221022Y358049D01*
X220960Y357995D01*
X220901Y357938D01*
X220844Y357879D01*
X220790Y357817D01*
X220739Y357752D01*
X220691Y357686D01*
X220646Y357617D01*
X220605Y357546D01*
X220566Y357474D01*
X220531Y357399D01*
X220500Y357323D01*
X220472Y357246D01*
X220448Y357168D01*
X220427Y357088D01*
X220410Y357008D01*
X220397Y356927D01*
X220388Y356845D01*
X220382Y356763D01*
X220380Y356681D01*
X220382Y356588D01*
X220388Y356496D01*
X220397Y356404D01*
X220410Y356312D01*
X220427Y356221D01*
X220447Y356131D01*
X220471Y356041D01*
X220499Y355953D01*
X220531Y355865D01*
X220565Y355780D01*
X220604Y355695D01*
X220645Y355613D01*
X220690Y355532D01*
X220739Y355452D01*
X220790Y355375D01*
X220844Y355300D01*
X220902Y355228D01*
X220962Y355157D01*
X221026Y355090D01*
X221091Y355025D01*
X221160Y354962D01*
X221231Y354903D01*
X221304Y354846D01*
X221380Y354792D01*
X221457Y354742D01*
X221537Y354694D01*
X221619Y354650D01*
X221702Y354610D01*
X221787Y354572D01*
X221873Y354538D01*
X221960Y354508D01*
X223541Y357866D02*
X223480Y357927D01*
X223417Y357985D01*
X223351Y358040D01*
X223283Y358093D01*
X223212Y358142D01*
X223140Y358187D01*
X223065Y358230D01*
X222989Y358269D01*
X222910Y358305D01*
X222831Y358337D01*
X222750Y358365D01*
X222667Y358390D01*
X222584Y358411D01*
X222500Y358428D01*
X222415Y358442D01*
X222330Y358451D01*
X222244Y358457D01*
X222158Y358459D01*
X223541Y357866D02*
X227492Y354508D01*
X227492Y358459D01*
X227492Y361823D02*
X227492Y364194D01*
X227490Y364272D01*
X227484Y364349D01*
X227475Y364426D01*
X227462Y364502D01*
X227445Y364578D01*
X227424Y364653D01*
X227400Y364726D01*
X227372Y364799D01*
X227340Y364870D01*
X227305Y364939D01*
X227267Y365006D01*
X227226Y365072D01*
X227181Y365135D01*
X227133Y365196D01*
X227083Y365255D01*
X227029Y365311D01*
X226973Y365365D01*
X226914Y365415D01*
X226853Y365463D01*
X226790Y365508D01*
X226724Y365549D01*
X226657Y365587D01*
X226588Y365622D01*
X226517Y365654D01*
X226444Y365682D01*
X226371Y365706D01*
X226296Y365727D01*
X226220Y365744D01*
X226144Y365757D01*
X226067Y365766D01*
X225990Y365772D01*
X225912Y365774D01*
X225121Y365774D01*
X225043Y365772D01*
X224966Y365766D01*
X224889Y365757D01*
X224813Y365744D01*
X224737Y365727D01*
X224662Y365706D01*
X224589Y365682D01*
X224516Y365654D01*
X224445Y365622D01*
X224376Y365587D01*
X224309Y365549D01*
X224243Y365508D01*
X224180Y365463D01*
X224119Y365415D01*
X224060Y365365D01*
X224004Y365311D01*
X223950Y365255D01*
X223900Y365196D01*
X223852Y365135D01*
X223807Y365072D01*
X223766Y365006D01*
X223728Y364939D01*
X223693Y364870D01*
X223661Y364799D01*
X223633Y364726D01*
X223609Y364653D01*
X223588Y364578D01*
X223571Y364502D01*
X223558Y364426D01*
X223549Y364349D01*
X223543Y364272D01*
X223541Y364194D01*
X223541Y361823D01*
X220380Y361823D01*
X220380Y365774D01*
X222158Y332459D02*
X222076Y332457D01*
X221994Y332451D01*
X221912Y332442D01*
X221831Y332429D01*
X221751Y332412D01*
X221671Y332391D01*
X221593Y332367D01*
X221516Y332339D01*
X221440Y332308D01*
X221365Y332273D01*
X221293Y332234D01*
X221222Y332193D01*
X221153Y332148D01*
X221087Y332100D01*
X221022Y332049D01*
X220960Y331995D01*
X220901Y331938D01*
X220844Y331879D01*
X220790Y331817D01*
X220739Y331752D01*
X220691Y331686D01*
X220646Y331617D01*
X220605Y331546D01*
X220566Y331474D01*
X220531Y331399D01*
X220500Y331323D01*
X220472Y331246D01*
X220448Y331168D01*
X220427Y331088D01*
X220410Y331008D01*
X220397Y330927D01*
X220388Y330845D01*
X220382Y330763D01*
X220380Y330681D01*
X220382Y330588D01*
X220388Y330496D01*
X220397Y330404D01*
X220410Y330312D01*
X220427Y330221D01*
X220447Y330131D01*
X220471Y330041D01*
X220499Y329953D01*
X220531Y329865D01*
X220565Y329780D01*
X220604Y329695D01*
X220645Y329613D01*
X220690Y329532D01*
X220739Y329452D01*
X220790Y329375D01*
X220844Y329300D01*
X220902Y329228D01*
X220962Y329157D01*
X221026Y329090D01*
X221091Y329025D01*
X221160Y328962D01*
X221231Y328903D01*
X221304Y328846D01*
X221380Y328792D01*
X221457Y328742D01*
X221537Y328694D01*
X221619Y328650D01*
X221702Y328610D01*
X221787Y328572D01*
X221873Y328538D01*
X221960Y328508D01*
X223541Y331866D02*
X223480Y331927D01*
X223417Y331985D01*
X223351Y332040D01*
X223283Y332093D01*
X223212Y332142D01*
X223140Y332187D01*
X223065Y332230D01*
X222989Y332269D01*
X222910Y332305D01*
X222831Y332337D01*
X222750Y332365D01*
X222667Y332390D01*
X222584Y332411D01*
X222500Y332428D01*
X222415Y332442D01*
X222330Y332451D01*
X222244Y332457D01*
X222158Y332459D01*
X223541Y331866D02*
X227492Y328508D01*
X227492Y332459D01*
X225912Y335823D02*
X220380Y337404D01*
X225912Y335823D02*
X225912Y339774D01*
X224331Y338589D02*
X227492Y338589D01*
X222158Y307459D02*
X222076Y307457D01*
X221994Y307451D01*
X221912Y307442D01*
X221831Y307429D01*
X221751Y307412D01*
X221671Y307391D01*
X221593Y307367D01*
X221516Y307339D01*
X221440Y307308D01*
X221365Y307273D01*
X221293Y307234D01*
X221222Y307193D01*
X221153Y307148D01*
X221087Y307100D01*
X221022Y307049D01*
X220960Y306995D01*
X220901Y306938D01*
X220844Y306879D01*
X220790Y306817D01*
X220739Y306752D01*
X220691Y306686D01*
X220646Y306617D01*
X220605Y306546D01*
X220566Y306474D01*
X220531Y306399D01*
X220500Y306323D01*
X220472Y306246D01*
X220448Y306168D01*
X220427Y306088D01*
X220410Y306008D01*
X220397Y305927D01*
X220388Y305845D01*
X220382Y305763D01*
X220380Y305681D01*
X220382Y305588D01*
X220388Y305496D01*
X220397Y305404D01*
X220410Y305312D01*
X220427Y305221D01*
X220447Y305131D01*
X220471Y305041D01*
X220499Y304953D01*
X220531Y304865D01*
X220565Y304780D01*
X220604Y304695D01*
X220645Y304613D01*
X220690Y304532D01*
X220739Y304452D01*
X220790Y304375D01*
X220844Y304300D01*
X220902Y304228D01*
X220962Y304157D01*
X221026Y304090D01*
X221091Y304025D01*
X221160Y303962D01*
X221231Y303903D01*
X221304Y303846D01*
X221380Y303792D01*
X221457Y303742D01*
X221537Y303694D01*
X221619Y303650D01*
X221702Y303610D01*
X221787Y303572D01*
X221873Y303538D01*
X221960Y303508D01*
X223541Y306866D02*
X223480Y306927D01*
X223417Y306985D01*
X223351Y307040D01*
X223283Y307093D01*
X223212Y307142D01*
X223140Y307187D01*
X223065Y307230D01*
X222989Y307269D01*
X222910Y307305D01*
X222831Y307337D01*
X222750Y307365D01*
X222667Y307390D01*
X222584Y307411D01*
X222500Y307428D01*
X222415Y307442D01*
X222330Y307451D01*
X222244Y307457D01*
X222158Y307459D01*
X223541Y306866D02*
X227492Y303508D01*
X227492Y307459D01*
X227492Y310823D02*
X227492Y312799D01*
X227490Y312886D01*
X227484Y312974D01*
X227475Y313061D01*
X227461Y313147D01*
X227444Y313233D01*
X227423Y313317D01*
X227398Y313401D01*
X227369Y313484D01*
X227337Y313565D01*
X227302Y313645D01*
X227263Y313723D01*
X227220Y313800D01*
X227174Y313874D01*
X227125Y313946D01*
X227073Y314016D01*
X227017Y314084D01*
X226959Y314149D01*
X226898Y314212D01*
X226834Y314271D01*
X226767Y314328D01*
X226699Y314382D01*
X226627Y314433D01*
X226554Y314480D01*
X226479Y314525D01*
X226401Y314566D01*
X226322Y314603D01*
X226242Y314637D01*
X226160Y314667D01*
X226077Y314694D01*
X225992Y314717D01*
X225907Y314736D01*
X225821Y314751D01*
X225734Y314763D01*
X225647Y314771D01*
X225560Y314775D01*
X225472Y314775D01*
X225385Y314771D01*
X225298Y314763D01*
X225211Y314751D01*
X225125Y314736D01*
X225040Y314717D01*
X224955Y314694D01*
X224872Y314667D01*
X224790Y314637D01*
X224710Y314603D01*
X224631Y314566D01*
X224553Y314525D01*
X224478Y314480D01*
X224405Y314433D01*
X224333Y314382D01*
X224265Y314328D01*
X224198Y314271D01*
X224134Y314212D01*
X224073Y314149D01*
X224015Y314084D01*
X223959Y314016D01*
X223907Y313946D01*
X223858Y313874D01*
X223812Y313800D01*
X223769Y313723D01*
X223730Y313645D01*
X223695Y313565D01*
X223663Y313484D01*
X223634Y313401D01*
X223609Y313317D01*
X223588Y313233D01*
X223571Y313147D01*
X223557Y313061D01*
X223548Y312974D01*
X223542Y312886D01*
X223540Y312799D01*
X220380Y313194D02*
X220380Y310823D01*
X220380Y313194D02*
X220382Y313273D01*
X220388Y313351D01*
X220398Y313429D01*
X220411Y313507D01*
X220429Y313584D01*
X220450Y313660D01*
X220475Y313734D01*
X220504Y313808D01*
X220536Y313880D01*
X220572Y313950D01*
X220612Y314018D01*
X220655Y314084D01*
X220701Y314148D01*
X220750Y314210D01*
X220802Y314269D01*
X220857Y314325D01*
X220915Y314379D01*
X220975Y314429D01*
X221038Y314477D01*
X221103Y314521D01*
X221170Y314562D01*
X221239Y314600D01*
X221310Y314634D01*
X221383Y314665D01*
X221457Y314692D01*
X221532Y314715D01*
X221608Y314734D01*
X221686Y314750D01*
X221764Y314762D01*
X221842Y314770D01*
X221921Y314774D01*
X221999Y314774D01*
X222078Y314770D01*
X222156Y314762D01*
X222234Y314750D01*
X222312Y314734D01*
X222388Y314715D01*
X222463Y314692D01*
X222537Y314665D01*
X222610Y314634D01*
X222681Y314600D01*
X222750Y314562D01*
X222817Y314521D01*
X222882Y314477D01*
X222945Y314429D01*
X223005Y314379D01*
X223063Y314325D01*
X223118Y314269D01*
X223170Y314210D01*
X223219Y314148D01*
X223265Y314084D01*
X223308Y314018D01*
X223348Y313950D01*
X223384Y313880D01*
X223416Y313808D01*
X223445Y313734D01*
X223470Y313660D01*
X223491Y313584D01*
X223509Y313507D01*
X223522Y313429D01*
X223532Y313351D01*
X223538Y313273D01*
X223540Y313194D01*
X223541Y313194D02*
X223541Y311613D01*
X222158Y281459D02*
X222076Y281457D01*
X221994Y281451D01*
X221912Y281442D01*
X221831Y281429D01*
X221751Y281412D01*
X221671Y281391D01*
X221593Y281367D01*
X221516Y281339D01*
X221440Y281308D01*
X221365Y281273D01*
X221293Y281234D01*
X221222Y281193D01*
X221153Y281148D01*
X221087Y281100D01*
X221022Y281049D01*
X220960Y280995D01*
X220901Y280938D01*
X220844Y280879D01*
X220790Y280817D01*
X220739Y280752D01*
X220691Y280686D01*
X220646Y280617D01*
X220605Y280546D01*
X220566Y280474D01*
X220531Y280399D01*
X220500Y280323D01*
X220472Y280246D01*
X220448Y280168D01*
X220427Y280088D01*
X220410Y280008D01*
X220397Y279927D01*
X220388Y279845D01*
X220382Y279763D01*
X220380Y279681D01*
X220382Y279588D01*
X220388Y279496D01*
X220397Y279404D01*
X220410Y279312D01*
X220427Y279221D01*
X220447Y279131D01*
X220471Y279041D01*
X220499Y278953D01*
X220531Y278865D01*
X220565Y278780D01*
X220604Y278695D01*
X220645Y278613D01*
X220690Y278532D01*
X220739Y278452D01*
X220790Y278375D01*
X220844Y278300D01*
X220902Y278228D01*
X220962Y278157D01*
X221026Y278090D01*
X221091Y278025D01*
X221160Y277962D01*
X221231Y277903D01*
X221304Y277846D01*
X221380Y277792D01*
X221457Y277742D01*
X221537Y277694D01*
X221619Y277650D01*
X221702Y277610D01*
X221787Y277572D01*
X221873Y277538D01*
X221960Y277508D01*
X223541Y280866D02*
X223480Y280927D01*
X223417Y280985D01*
X223351Y281040D01*
X223283Y281093D01*
X223212Y281142D01*
X223140Y281187D01*
X223065Y281230D01*
X222989Y281269D01*
X222910Y281305D01*
X222831Y281337D01*
X222750Y281365D01*
X222667Y281390D01*
X222584Y281411D01*
X222500Y281428D01*
X222415Y281442D01*
X222330Y281451D01*
X222244Y281457D01*
X222158Y281459D01*
X223541Y280866D02*
X227492Y277508D01*
X227492Y281459D01*
X220380Y286996D02*
X220382Y287078D01*
X220388Y287160D01*
X220397Y287242D01*
X220410Y287323D01*
X220427Y287403D01*
X220448Y287483D01*
X220472Y287561D01*
X220500Y287638D01*
X220531Y287714D01*
X220566Y287789D01*
X220605Y287861D01*
X220646Y287932D01*
X220691Y288001D01*
X220739Y288067D01*
X220790Y288132D01*
X220844Y288194D01*
X220901Y288253D01*
X220960Y288310D01*
X221022Y288364D01*
X221087Y288415D01*
X221153Y288463D01*
X221222Y288508D01*
X221293Y288549D01*
X221365Y288588D01*
X221440Y288623D01*
X221516Y288654D01*
X221593Y288682D01*
X221671Y288706D01*
X221751Y288727D01*
X221831Y288744D01*
X221912Y288757D01*
X221994Y288766D01*
X222076Y288772D01*
X222158Y288774D01*
X220380Y286996D02*
X220382Y286903D01*
X220388Y286811D01*
X220397Y286719D01*
X220410Y286627D01*
X220427Y286536D01*
X220447Y286446D01*
X220471Y286356D01*
X220499Y286268D01*
X220531Y286180D01*
X220565Y286095D01*
X220604Y286010D01*
X220645Y285928D01*
X220690Y285847D01*
X220739Y285767D01*
X220790Y285690D01*
X220844Y285615D01*
X220902Y285543D01*
X220962Y285472D01*
X221026Y285405D01*
X221091Y285340D01*
X221160Y285277D01*
X221231Y285218D01*
X221304Y285161D01*
X221380Y285107D01*
X221457Y285057D01*
X221537Y285009D01*
X221619Y284965D01*
X221702Y284925D01*
X221787Y284887D01*
X221873Y284853D01*
X221960Y284823D01*
X223541Y288182D02*
X223480Y288243D01*
X223417Y288301D01*
X223351Y288356D01*
X223283Y288409D01*
X223212Y288458D01*
X223140Y288503D01*
X223065Y288546D01*
X222989Y288585D01*
X222910Y288621D01*
X222831Y288653D01*
X222750Y288681D01*
X222667Y288706D01*
X222584Y288727D01*
X222500Y288744D01*
X222415Y288758D01*
X222330Y288767D01*
X222244Y288773D01*
X222158Y288775D01*
X223541Y288182D02*
X227492Y284823D01*
X227492Y288774D01*
X227492Y249508D02*
X220380Y249508D01*
X220380Y251484D01*
X220382Y251571D01*
X220388Y251659D01*
X220397Y251746D01*
X220411Y251832D01*
X220428Y251918D01*
X220449Y252002D01*
X220474Y252086D01*
X220503Y252169D01*
X220535Y252250D01*
X220570Y252330D01*
X220609Y252408D01*
X220652Y252485D01*
X220698Y252559D01*
X220747Y252631D01*
X220799Y252701D01*
X220855Y252769D01*
X220913Y252834D01*
X220974Y252897D01*
X221038Y252956D01*
X221105Y253013D01*
X221173Y253067D01*
X221245Y253118D01*
X221318Y253165D01*
X221393Y253210D01*
X221471Y253251D01*
X221550Y253288D01*
X221630Y253322D01*
X221712Y253352D01*
X221795Y253379D01*
X221880Y253402D01*
X221965Y253421D01*
X222051Y253436D01*
X222138Y253448D01*
X222225Y253456D01*
X222312Y253460D01*
X222400Y253460D01*
X222487Y253456D01*
X222574Y253448D01*
X222661Y253436D01*
X222747Y253421D01*
X222832Y253402D01*
X222917Y253379D01*
X223000Y253352D01*
X223082Y253322D01*
X223162Y253288D01*
X223241Y253251D01*
X223319Y253210D01*
X223394Y253165D01*
X223467Y253118D01*
X223539Y253067D01*
X223607Y253013D01*
X223674Y252956D01*
X223738Y252897D01*
X223799Y252834D01*
X223857Y252769D01*
X223913Y252701D01*
X223965Y252631D01*
X224014Y252559D01*
X224060Y252485D01*
X224103Y252408D01*
X224142Y252330D01*
X224177Y252250D01*
X224209Y252169D01*
X224238Y252086D01*
X224263Y252002D01*
X224284Y251918D01*
X224301Y251832D01*
X224315Y251746D01*
X224324Y251659D01*
X224330Y251571D01*
X224332Y251484D01*
X224331Y251484D02*
X224331Y249508D01*
X224331Y251879D02*
X227492Y253459D01*
X227492Y258890D02*
X227490Y258968D01*
X227484Y259045D01*
X227475Y259122D01*
X227462Y259198D01*
X227445Y259274D01*
X227424Y259349D01*
X227400Y259422D01*
X227372Y259495D01*
X227340Y259566D01*
X227305Y259635D01*
X227267Y259702D01*
X227226Y259768D01*
X227181Y259831D01*
X227133Y259892D01*
X227083Y259951D01*
X227029Y260007D01*
X226973Y260061D01*
X226914Y260111D01*
X226853Y260159D01*
X226790Y260204D01*
X226724Y260245D01*
X226657Y260283D01*
X226588Y260318D01*
X226517Y260350D01*
X226444Y260378D01*
X226371Y260402D01*
X226296Y260423D01*
X226220Y260440D01*
X226144Y260453D01*
X226067Y260462D01*
X225990Y260468D01*
X225912Y260470D01*
X227492Y258890D02*
X227490Y258775D01*
X227484Y258661D01*
X227474Y258547D01*
X227461Y258433D01*
X227443Y258320D01*
X227421Y258207D01*
X227396Y258095D01*
X227367Y257985D01*
X227334Y257875D01*
X227297Y257766D01*
X227257Y257659D01*
X227213Y257553D01*
X227165Y257449D01*
X227114Y257346D01*
X227059Y257246D01*
X227001Y257147D01*
X226939Y257050D01*
X226875Y256956D01*
X226807Y256863D01*
X226735Y256773D01*
X226661Y256686D01*
X226584Y256601D01*
X226504Y256519D01*
X221960Y256717D02*
X221882Y256719D01*
X221805Y256725D01*
X221728Y256734D01*
X221652Y256747D01*
X221576Y256764D01*
X221501Y256785D01*
X221428Y256809D01*
X221355Y256837D01*
X221284Y256869D01*
X221215Y256904D01*
X221148Y256942D01*
X221082Y256983D01*
X221019Y257028D01*
X220958Y257076D01*
X220899Y257126D01*
X220843Y257180D01*
X220789Y257236D01*
X220739Y257295D01*
X220691Y257356D01*
X220646Y257419D01*
X220605Y257485D01*
X220567Y257552D01*
X220532Y257621D01*
X220500Y257692D01*
X220472Y257765D01*
X220448Y257838D01*
X220427Y257913D01*
X220410Y257989D01*
X220397Y258065D01*
X220388Y258142D01*
X220382Y258219D01*
X220380Y258297D01*
X220382Y258403D01*
X220388Y258509D01*
X220397Y258614D01*
X220410Y258719D01*
X220427Y258824D01*
X220448Y258928D01*
X220472Y259031D01*
X220500Y259133D01*
X220532Y259234D01*
X220567Y259334D01*
X220606Y259432D01*
X220649Y259530D01*
X220694Y259625D01*
X220743Y259719D01*
X220796Y259811D01*
X220852Y259901D01*
X220911Y259989D01*
X220973Y260075D01*
X223343Y257507D02*
X223301Y257440D01*
X223256Y257375D01*
X223207Y257312D01*
X223156Y257251D01*
X223101Y257194D01*
X223044Y257139D01*
X222984Y257086D01*
X222922Y257037D01*
X222857Y256991D01*
X222791Y256949D01*
X222722Y256909D01*
X222651Y256873D01*
X222578Y256841D01*
X222504Y256812D01*
X222429Y256787D01*
X222353Y256766D01*
X222275Y256748D01*
X222197Y256735D01*
X222118Y256725D01*
X222039Y256719D01*
X221960Y256717D01*
X224529Y259680D02*
X224571Y259747D01*
X224616Y259812D01*
X224665Y259875D01*
X224716Y259936D01*
X224771Y259993D01*
X224828Y260048D01*
X224888Y260101D01*
X224950Y260150D01*
X225015Y260196D01*
X225081Y260238D01*
X225150Y260278D01*
X225221Y260314D01*
X225294Y260346D01*
X225368Y260375D01*
X225443Y260400D01*
X225519Y260421D01*
X225597Y260439D01*
X225675Y260452D01*
X225754Y260462D01*
X225833Y260468D01*
X225912Y260470D01*
X224529Y259680D02*
X223343Y257507D01*
X220380Y265078D02*
X227492Y265078D01*
X220380Y263103D02*
X220380Y267054D01*
X222158Y230459D02*
X222076Y230457D01*
X221994Y230451D01*
X221912Y230442D01*
X221831Y230429D01*
X221751Y230412D01*
X221671Y230391D01*
X221593Y230367D01*
X221516Y230339D01*
X221440Y230308D01*
X221365Y230273D01*
X221293Y230234D01*
X221222Y230193D01*
X221153Y230148D01*
X221087Y230100D01*
X221022Y230049D01*
X220960Y229995D01*
X220901Y229938D01*
X220844Y229879D01*
X220790Y229817D01*
X220739Y229752D01*
X220691Y229686D01*
X220646Y229617D01*
X220605Y229546D01*
X220566Y229474D01*
X220531Y229399D01*
X220500Y229323D01*
X220472Y229246D01*
X220448Y229168D01*
X220427Y229088D01*
X220410Y229008D01*
X220397Y228927D01*
X220388Y228845D01*
X220382Y228763D01*
X220380Y228681D01*
X220382Y228588D01*
X220388Y228496D01*
X220397Y228404D01*
X220410Y228312D01*
X220427Y228221D01*
X220447Y228131D01*
X220471Y228041D01*
X220499Y227953D01*
X220531Y227865D01*
X220565Y227780D01*
X220604Y227695D01*
X220645Y227613D01*
X220690Y227532D01*
X220739Y227452D01*
X220790Y227375D01*
X220844Y227300D01*
X220902Y227228D01*
X220962Y227157D01*
X221026Y227090D01*
X221091Y227025D01*
X221160Y226962D01*
X221231Y226903D01*
X221304Y226846D01*
X221380Y226792D01*
X221457Y226742D01*
X221537Y226694D01*
X221619Y226650D01*
X221702Y226610D01*
X221787Y226572D01*
X221873Y226538D01*
X221960Y226508D01*
X223541Y229866D02*
X223480Y229927D01*
X223417Y229985D01*
X223351Y230040D01*
X223283Y230093D01*
X223212Y230142D01*
X223140Y230187D01*
X223065Y230230D01*
X222989Y230269D01*
X222910Y230305D01*
X222831Y230337D01*
X222750Y230365D01*
X222667Y230390D01*
X222584Y230411D01*
X222500Y230428D01*
X222415Y230442D01*
X222330Y230451D01*
X222244Y230457D01*
X222158Y230459D01*
X223541Y229866D02*
X227492Y226508D01*
X227492Y230459D01*
X221960Y233823D02*
X220380Y235799D01*
X227492Y235799D01*
X227492Y237774D02*
X227492Y233823D01*
X222158Y205459D02*
X222076Y205457D01*
X221994Y205451D01*
X221912Y205442D01*
X221831Y205429D01*
X221751Y205412D01*
X221671Y205391D01*
X221593Y205367D01*
X221516Y205339D01*
X221440Y205308D01*
X221365Y205273D01*
X221293Y205234D01*
X221222Y205193D01*
X221153Y205148D01*
X221087Y205100D01*
X221022Y205049D01*
X220960Y204995D01*
X220901Y204938D01*
X220844Y204879D01*
X220790Y204817D01*
X220739Y204752D01*
X220691Y204686D01*
X220646Y204617D01*
X220605Y204546D01*
X220566Y204474D01*
X220531Y204399D01*
X220500Y204323D01*
X220472Y204246D01*
X220448Y204168D01*
X220427Y204088D01*
X220410Y204008D01*
X220397Y203927D01*
X220388Y203845D01*
X220382Y203763D01*
X220380Y203681D01*
X220382Y203588D01*
X220388Y203496D01*
X220397Y203404D01*
X220410Y203312D01*
X220427Y203221D01*
X220447Y203131D01*
X220471Y203041D01*
X220499Y202953D01*
X220531Y202865D01*
X220565Y202780D01*
X220604Y202695D01*
X220645Y202613D01*
X220690Y202532D01*
X220739Y202452D01*
X220790Y202375D01*
X220844Y202300D01*
X220902Y202228D01*
X220962Y202157D01*
X221026Y202090D01*
X221091Y202025D01*
X221160Y201962D01*
X221231Y201903D01*
X221304Y201846D01*
X221380Y201792D01*
X221457Y201742D01*
X221537Y201694D01*
X221619Y201650D01*
X221702Y201610D01*
X221787Y201572D01*
X221873Y201538D01*
X221960Y201508D01*
X223541Y204866D02*
X223480Y204927D01*
X223417Y204985D01*
X223351Y205040D01*
X223283Y205093D01*
X223212Y205142D01*
X223140Y205187D01*
X223065Y205230D01*
X222989Y205269D01*
X222910Y205305D01*
X222831Y205337D01*
X222750Y205365D01*
X222667Y205390D01*
X222584Y205411D01*
X222500Y205428D01*
X222415Y205442D01*
X222330Y205451D01*
X222244Y205457D01*
X222158Y205459D01*
X223541Y204866D02*
X227492Y201508D01*
X227492Y205459D01*
X223936Y208823D02*
X223788Y208825D01*
X223641Y208830D01*
X223493Y208840D01*
X223346Y208853D01*
X223199Y208869D01*
X223053Y208890D01*
X222908Y208914D01*
X222762Y208942D01*
X222618Y208973D01*
X222475Y209008D01*
X222332Y209047D01*
X222191Y209089D01*
X222050Y209135D01*
X221911Y209184D01*
X221773Y209237D01*
X221636Y209293D01*
X221501Y209353D01*
X221368Y209416D01*
X221297Y209442D01*
X221228Y209472D01*
X221160Y209506D01*
X221094Y209543D01*
X221030Y209583D01*
X220968Y209627D01*
X220909Y209673D01*
X220852Y209723D01*
X220798Y209776D01*
X220746Y209831D01*
X220698Y209889D01*
X220652Y209949D01*
X220610Y210012D01*
X220571Y210077D01*
X220535Y210143D01*
X220503Y210212D01*
X220475Y210281D01*
X220450Y210353D01*
X220429Y210425D01*
X220411Y210499D01*
X220398Y210573D01*
X220388Y210648D01*
X220382Y210723D01*
X220380Y210799D01*
X220382Y210875D01*
X220388Y210950D01*
X220398Y211025D01*
X220411Y211099D01*
X220429Y211173D01*
X220450Y211245D01*
X220475Y211317D01*
X220503Y211386D01*
X220535Y211455D01*
X220571Y211521D01*
X220610Y211586D01*
X220652Y211649D01*
X220698Y211709D01*
X220746Y211767D01*
X220798Y211822D01*
X220852Y211875D01*
X220909Y211925D01*
X220968Y211971D01*
X221030Y212015D01*
X221094Y212055D01*
X221160Y212092D01*
X221228Y212126D01*
X221297Y212156D01*
X221368Y212182D01*
X221368Y212181D02*
X221501Y212244D01*
X221636Y212304D01*
X221773Y212360D01*
X221911Y212413D01*
X222050Y212462D01*
X222191Y212508D01*
X222332Y212550D01*
X222475Y212589D01*
X222618Y212624D01*
X222762Y212655D01*
X222908Y212683D01*
X223053Y212707D01*
X223199Y212728D01*
X223346Y212744D01*
X223493Y212757D01*
X223641Y212767D01*
X223788Y212772D01*
X223936Y212774D01*
X223936Y208823D02*
X224084Y208825D01*
X224231Y208830D01*
X224379Y208840D01*
X224526Y208853D01*
X224673Y208869D01*
X224819Y208890D01*
X224964Y208914D01*
X225110Y208942D01*
X225254Y208973D01*
X225397Y209008D01*
X225540Y209047D01*
X225681Y209089D01*
X225822Y209135D01*
X225961Y209184D01*
X226099Y209237D01*
X226236Y209293D01*
X226371Y209353D01*
X226504Y209416D01*
X226575Y209442D01*
X226644Y209472D01*
X226712Y209506D01*
X226778Y209543D01*
X226842Y209583D01*
X226904Y209627D01*
X226963Y209673D01*
X227020Y209723D01*
X227074Y209776D01*
X227126Y209831D01*
X227174Y209889D01*
X227220Y209949D01*
X227262Y210012D01*
X227301Y210077D01*
X227337Y210143D01*
X227369Y210212D01*
X227397Y210282D01*
X227422Y210353D01*
X227443Y210425D01*
X227461Y210499D01*
X227474Y210573D01*
X227484Y210648D01*
X227490Y210723D01*
X227492Y210799D01*
X226504Y212181D02*
X226371Y212244D01*
X226236Y212304D01*
X226099Y212360D01*
X225961Y212413D01*
X225822Y212462D01*
X225681Y212508D01*
X225540Y212550D01*
X225397Y212589D01*
X225254Y212624D01*
X225110Y212655D01*
X224964Y212683D01*
X224819Y212707D01*
X224673Y212728D01*
X224526Y212744D01*
X224379Y212757D01*
X224231Y212767D01*
X224084Y212772D01*
X223936Y212774D01*
X226504Y212182D02*
X226575Y212156D01*
X226644Y212126D01*
X226712Y212092D01*
X226778Y212055D01*
X226842Y212015D01*
X226904Y211971D01*
X226963Y211925D01*
X227020Y211875D01*
X227074Y211822D01*
X227126Y211767D01*
X227174Y211709D01*
X227220Y211649D01*
X227262Y211586D01*
X227301Y211521D01*
X227337Y211455D01*
X227369Y211386D01*
X227397Y211316D01*
X227422Y211245D01*
X227443Y211173D01*
X227461Y211099D01*
X227474Y211025D01*
X227484Y210950D01*
X227490Y210875D01*
X227492Y210799D01*
X225912Y209218D02*
X221960Y212379D01*
X220380Y178484D02*
X221960Y176508D01*
X220380Y178484D02*
X227492Y178484D01*
X227492Y180459D02*
X227492Y176508D01*
X224331Y185404D02*
X224331Y187774D01*
X224331Y185404D02*
X224329Y185326D01*
X224323Y185249D01*
X224314Y185172D01*
X224301Y185096D01*
X224284Y185020D01*
X224263Y184945D01*
X224239Y184872D01*
X224211Y184799D01*
X224179Y184728D01*
X224144Y184659D01*
X224106Y184592D01*
X224065Y184526D01*
X224020Y184463D01*
X223972Y184402D01*
X223922Y184343D01*
X223868Y184287D01*
X223812Y184233D01*
X223753Y184183D01*
X223692Y184135D01*
X223629Y184090D01*
X223563Y184049D01*
X223496Y184011D01*
X223427Y183976D01*
X223356Y183944D01*
X223283Y183916D01*
X223210Y183892D01*
X223135Y183871D01*
X223059Y183854D01*
X222983Y183841D01*
X222906Y183832D01*
X222829Y183826D01*
X222751Y183824D01*
X222751Y183823D02*
X222356Y183823D01*
X222269Y183825D01*
X222181Y183831D01*
X222094Y183840D01*
X222008Y183854D01*
X221922Y183871D01*
X221838Y183892D01*
X221754Y183917D01*
X221671Y183946D01*
X221590Y183978D01*
X221510Y184013D01*
X221432Y184052D01*
X221355Y184095D01*
X221281Y184141D01*
X221209Y184190D01*
X221139Y184242D01*
X221071Y184298D01*
X221006Y184356D01*
X220943Y184417D01*
X220884Y184481D01*
X220827Y184548D01*
X220773Y184616D01*
X220722Y184688D01*
X220675Y184761D01*
X220630Y184836D01*
X220589Y184914D01*
X220552Y184993D01*
X220518Y185073D01*
X220488Y185155D01*
X220461Y185238D01*
X220438Y185323D01*
X220419Y185408D01*
X220404Y185494D01*
X220392Y185581D01*
X220384Y185668D01*
X220380Y185755D01*
X220380Y185843D01*
X220384Y185930D01*
X220392Y186017D01*
X220404Y186104D01*
X220419Y186190D01*
X220438Y186275D01*
X220461Y186360D01*
X220488Y186443D01*
X220518Y186525D01*
X220552Y186605D01*
X220589Y186684D01*
X220630Y186762D01*
X220675Y186837D01*
X220722Y186910D01*
X220773Y186982D01*
X220827Y187050D01*
X220884Y187117D01*
X220943Y187181D01*
X221006Y187242D01*
X221071Y187300D01*
X221139Y187356D01*
X221209Y187408D01*
X221281Y187457D01*
X221355Y187503D01*
X221432Y187546D01*
X221510Y187585D01*
X221590Y187620D01*
X221671Y187652D01*
X221754Y187681D01*
X221838Y187706D01*
X221922Y187727D01*
X222008Y187744D01*
X222094Y187758D01*
X222181Y187767D01*
X222269Y187773D01*
X222356Y187775D01*
X222356Y187774D02*
X224331Y187774D01*
X224441Y187772D01*
X224552Y187766D01*
X224661Y187757D01*
X224771Y187743D01*
X224880Y187726D01*
X224988Y187705D01*
X225096Y187680D01*
X225202Y187652D01*
X225308Y187619D01*
X225412Y187583D01*
X225515Y187544D01*
X225617Y187501D01*
X225717Y187454D01*
X225815Y187404D01*
X225912Y187351D01*
X226006Y187294D01*
X226099Y187234D01*
X226189Y187170D01*
X226277Y187104D01*
X226363Y187034D01*
X226446Y186962D01*
X226527Y186887D01*
X226605Y186809D01*
X226680Y186728D01*
X226752Y186645D01*
X226822Y186559D01*
X226888Y186471D01*
X226952Y186381D01*
X227012Y186288D01*
X227069Y186194D01*
X227122Y186097D01*
X227172Y185999D01*
X227219Y185899D01*
X227262Y185797D01*
X227301Y185694D01*
X227337Y185590D01*
X227370Y185484D01*
X227398Y185378D01*
X227423Y185270D01*
X227444Y185162D01*
X227461Y185053D01*
X227475Y184943D01*
X227484Y184834D01*
X227490Y184723D01*
X227492Y184613D01*
X220380Y152484D02*
X221960Y150508D01*
X220380Y152484D02*
X227492Y152484D01*
X227492Y154459D02*
X227492Y150508D01*
X225516Y157823D02*
X225429Y157825D01*
X225341Y157831D01*
X225254Y157840D01*
X225168Y157854D01*
X225082Y157871D01*
X224998Y157892D01*
X224914Y157917D01*
X224831Y157946D01*
X224750Y157978D01*
X224670Y158013D01*
X224592Y158052D01*
X224515Y158095D01*
X224441Y158141D01*
X224369Y158190D01*
X224299Y158242D01*
X224231Y158298D01*
X224166Y158356D01*
X224103Y158417D01*
X224044Y158481D01*
X223987Y158548D01*
X223933Y158616D01*
X223882Y158688D01*
X223835Y158761D01*
X223790Y158836D01*
X223749Y158914D01*
X223712Y158993D01*
X223678Y159073D01*
X223648Y159155D01*
X223621Y159238D01*
X223598Y159323D01*
X223579Y159408D01*
X223564Y159494D01*
X223552Y159581D01*
X223544Y159668D01*
X223540Y159755D01*
X223540Y159843D01*
X223544Y159930D01*
X223552Y160017D01*
X223564Y160104D01*
X223579Y160190D01*
X223598Y160275D01*
X223621Y160360D01*
X223648Y160443D01*
X223678Y160525D01*
X223712Y160605D01*
X223749Y160684D01*
X223790Y160762D01*
X223835Y160837D01*
X223882Y160910D01*
X223933Y160982D01*
X223987Y161050D01*
X224044Y161117D01*
X224103Y161181D01*
X224166Y161242D01*
X224231Y161300D01*
X224299Y161356D01*
X224369Y161408D01*
X224441Y161457D01*
X224515Y161503D01*
X224592Y161546D01*
X224670Y161585D01*
X224750Y161620D01*
X224831Y161652D01*
X224914Y161681D01*
X224998Y161706D01*
X225082Y161727D01*
X225168Y161744D01*
X225254Y161758D01*
X225341Y161767D01*
X225429Y161773D01*
X225516Y161775D01*
X225603Y161773D01*
X225691Y161767D01*
X225778Y161758D01*
X225864Y161744D01*
X225950Y161727D01*
X226034Y161706D01*
X226118Y161681D01*
X226201Y161652D01*
X226282Y161620D01*
X226362Y161585D01*
X226440Y161546D01*
X226517Y161503D01*
X226591Y161457D01*
X226663Y161408D01*
X226733Y161356D01*
X226801Y161300D01*
X226866Y161242D01*
X226929Y161181D01*
X226988Y161117D01*
X227045Y161050D01*
X227099Y160982D01*
X227150Y160910D01*
X227197Y160837D01*
X227242Y160762D01*
X227283Y160684D01*
X227320Y160605D01*
X227354Y160525D01*
X227384Y160443D01*
X227411Y160360D01*
X227434Y160275D01*
X227453Y160190D01*
X227468Y160104D01*
X227480Y160017D01*
X227488Y159930D01*
X227492Y159843D01*
X227492Y159755D01*
X227488Y159668D01*
X227480Y159581D01*
X227468Y159494D01*
X227453Y159408D01*
X227434Y159323D01*
X227411Y159238D01*
X227384Y159155D01*
X227354Y159073D01*
X227320Y158993D01*
X227283Y158914D01*
X227242Y158836D01*
X227197Y158761D01*
X227150Y158688D01*
X227099Y158616D01*
X227045Y158548D01*
X226988Y158481D01*
X226929Y158417D01*
X226866Y158356D01*
X226801Y158298D01*
X226733Y158242D01*
X226663Y158190D01*
X226591Y158141D01*
X226517Y158095D01*
X226440Y158052D01*
X226362Y158013D01*
X226282Y157978D01*
X226201Y157946D01*
X226118Y157917D01*
X226034Y157892D01*
X225950Y157871D01*
X225864Y157854D01*
X225778Y157840D01*
X225691Y157831D01*
X225603Y157825D01*
X225516Y157823D01*
X221960Y158219D02*
X221881Y158221D01*
X221803Y158227D01*
X221725Y158237D01*
X221647Y158250D01*
X221570Y158268D01*
X221494Y158289D01*
X221420Y158314D01*
X221346Y158343D01*
X221274Y158375D01*
X221204Y158411D01*
X221136Y158451D01*
X221070Y158494D01*
X221006Y158540D01*
X220944Y158589D01*
X220885Y158641D01*
X220829Y158696D01*
X220775Y158754D01*
X220725Y158814D01*
X220677Y158877D01*
X220633Y158942D01*
X220592Y159009D01*
X220554Y159078D01*
X220520Y159149D01*
X220489Y159222D01*
X220462Y159296D01*
X220439Y159371D01*
X220420Y159447D01*
X220404Y159525D01*
X220392Y159603D01*
X220384Y159681D01*
X220380Y159760D01*
X220380Y159838D01*
X220384Y159917D01*
X220392Y159995D01*
X220404Y160073D01*
X220420Y160151D01*
X220439Y160227D01*
X220462Y160302D01*
X220489Y160376D01*
X220520Y160449D01*
X220554Y160520D01*
X220592Y160589D01*
X220633Y160656D01*
X220677Y160721D01*
X220725Y160784D01*
X220775Y160844D01*
X220829Y160902D01*
X220885Y160957D01*
X220944Y161009D01*
X221006Y161058D01*
X221070Y161104D01*
X221136Y161147D01*
X221204Y161187D01*
X221274Y161223D01*
X221346Y161255D01*
X221420Y161284D01*
X221494Y161309D01*
X221570Y161330D01*
X221647Y161348D01*
X221725Y161361D01*
X221803Y161371D01*
X221881Y161377D01*
X221960Y161379D01*
X222039Y161377D01*
X222117Y161371D01*
X222195Y161361D01*
X222273Y161348D01*
X222350Y161330D01*
X222426Y161309D01*
X222500Y161284D01*
X222574Y161255D01*
X222646Y161223D01*
X222716Y161187D01*
X222784Y161147D01*
X222850Y161104D01*
X222914Y161058D01*
X222976Y161009D01*
X223035Y160957D01*
X223091Y160902D01*
X223145Y160844D01*
X223195Y160784D01*
X223243Y160721D01*
X223287Y160656D01*
X223328Y160589D01*
X223366Y160520D01*
X223400Y160449D01*
X223431Y160376D01*
X223458Y160302D01*
X223481Y160227D01*
X223500Y160151D01*
X223516Y160073D01*
X223528Y159995D01*
X223536Y159917D01*
X223540Y159838D01*
X223540Y159760D01*
X223536Y159681D01*
X223528Y159603D01*
X223516Y159525D01*
X223500Y159447D01*
X223481Y159371D01*
X223458Y159296D01*
X223431Y159222D01*
X223400Y159149D01*
X223366Y159078D01*
X223328Y159009D01*
X223287Y158942D01*
X223243Y158877D01*
X223195Y158814D01*
X223145Y158754D01*
X223091Y158696D01*
X223035Y158641D01*
X222976Y158589D01*
X222914Y158540D01*
X222850Y158494D01*
X222784Y158451D01*
X222716Y158411D01*
X222646Y158375D01*
X222574Y158343D01*
X222500Y158314D01*
X222426Y158289D01*
X222350Y158268D01*
X222273Y158250D01*
X222195Y158237D01*
X222117Y158227D01*
X222039Y158221D01*
X221960Y158219D01*
X223541Y125484D02*
X223541Y123508D01*
X223540Y125484D02*
X223542Y125571D01*
X223548Y125659D01*
X223557Y125746D01*
X223571Y125832D01*
X223588Y125918D01*
X223609Y126002D01*
X223634Y126086D01*
X223663Y126169D01*
X223695Y126250D01*
X223730Y126330D01*
X223769Y126408D01*
X223812Y126485D01*
X223858Y126559D01*
X223907Y126631D01*
X223959Y126701D01*
X224015Y126769D01*
X224073Y126834D01*
X224134Y126897D01*
X224198Y126956D01*
X224265Y127013D01*
X224333Y127067D01*
X224405Y127118D01*
X224478Y127165D01*
X224553Y127210D01*
X224631Y127251D01*
X224710Y127288D01*
X224790Y127322D01*
X224872Y127352D01*
X224955Y127379D01*
X225040Y127402D01*
X225125Y127421D01*
X225211Y127436D01*
X225298Y127448D01*
X225385Y127456D01*
X225472Y127460D01*
X225560Y127460D01*
X225647Y127456D01*
X225734Y127448D01*
X225821Y127436D01*
X225907Y127421D01*
X225992Y127402D01*
X226077Y127379D01*
X226160Y127352D01*
X226242Y127322D01*
X226322Y127288D01*
X226401Y127251D01*
X226479Y127210D01*
X226554Y127165D01*
X226627Y127118D01*
X226699Y127067D01*
X226767Y127013D01*
X226834Y126956D01*
X226898Y126897D01*
X226959Y126834D01*
X227017Y126769D01*
X227073Y126701D01*
X227125Y126631D01*
X227174Y126559D01*
X227220Y126485D01*
X227263Y126408D01*
X227302Y126330D01*
X227337Y126250D01*
X227369Y126169D01*
X227398Y126086D01*
X227423Y126002D01*
X227444Y125918D01*
X227461Y125832D01*
X227475Y125746D01*
X227484Y125659D01*
X227490Y125571D01*
X227492Y125484D01*
X227492Y123508D01*
X220380Y123508D01*
X220380Y125484D01*
X220382Y125563D01*
X220388Y125641D01*
X220398Y125719D01*
X220411Y125797D01*
X220429Y125874D01*
X220450Y125950D01*
X220475Y126024D01*
X220504Y126098D01*
X220536Y126170D01*
X220572Y126240D01*
X220612Y126308D01*
X220655Y126374D01*
X220701Y126438D01*
X220750Y126500D01*
X220802Y126559D01*
X220857Y126615D01*
X220915Y126669D01*
X220975Y126719D01*
X221038Y126767D01*
X221103Y126811D01*
X221170Y126852D01*
X221239Y126890D01*
X221310Y126924D01*
X221383Y126955D01*
X221457Y126982D01*
X221532Y127005D01*
X221608Y127024D01*
X221686Y127040D01*
X221764Y127052D01*
X221842Y127060D01*
X221921Y127064D01*
X221999Y127064D01*
X222078Y127060D01*
X222156Y127052D01*
X222234Y127040D01*
X222312Y127024D01*
X222388Y127005D01*
X222463Y126982D01*
X222537Y126955D01*
X222610Y126924D01*
X222681Y126890D01*
X222750Y126852D01*
X222817Y126811D01*
X222882Y126767D01*
X222945Y126719D01*
X223005Y126669D01*
X223063Y126615D01*
X223118Y126559D01*
X223170Y126500D01*
X223219Y126438D01*
X223265Y126374D01*
X223308Y126308D01*
X223348Y126240D01*
X223384Y126170D01*
X223416Y126098D01*
X223445Y126024D01*
X223470Y125950D01*
X223491Y125874D01*
X223509Y125797D01*
X223522Y125719D01*
X223532Y125641D01*
X223538Y125563D01*
X223540Y125484D01*
X227492Y130045D02*
X220380Y132416D01*
X227492Y134787D01*
X225714Y134194D02*
X225714Y130638D01*
X227492Y139244D02*
X220380Y139244D01*
X220380Y141219D02*
X220380Y137268D01*
X223541Y98459D02*
X223541Y97274D01*
X223541Y98459D02*
X227492Y98459D01*
X227492Y96088D01*
X227490Y96010D01*
X227484Y95933D01*
X227475Y95856D01*
X227462Y95780D01*
X227445Y95704D01*
X227424Y95629D01*
X227400Y95556D01*
X227372Y95483D01*
X227340Y95412D01*
X227305Y95343D01*
X227267Y95276D01*
X227226Y95210D01*
X227181Y95147D01*
X227133Y95086D01*
X227083Y95027D01*
X227029Y94971D01*
X226973Y94917D01*
X226914Y94867D01*
X226853Y94819D01*
X226790Y94774D01*
X226724Y94733D01*
X226657Y94695D01*
X226588Y94660D01*
X226517Y94628D01*
X226444Y94600D01*
X226371Y94576D01*
X226296Y94555D01*
X226220Y94538D01*
X226144Y94525D01*
X226067Y94516D01*
X225990Y94510D01*
X225912Y94508D01*
X221960Y94508D01*
X221882Y94510D01*
X221805Y94516D01*
X221728Y94525D01*
X221652Y94538D01*
X221576Y94555D01*
X221501Y94576D01*
X221427Y94600D01*
X221355Y94628D01*
X221284Y94660D01*
X221215Y94695D01*
X221147Y94733D01*
X221082Y94774D01*
X221018Y94819D01*
X220957Y94867D01*
X220898Y94918D01*
X220842Y94971D01*
X220789Y95027D01*
X220738Y95086D01*
X220690Y95147D01*
X220645Y95211D01*
X220604Y95276D01*
X220566Y95344D01*
X220531Y95413D01*
X220499Y95484D01*
X220471Y95556D01*
X220447Y95630D01*
X220426Y95705D01*
X220409Y95781D01*
X220396Y95857D01*
X220387Y95934D01*
X220381Y96011D01*
X220379Y96089D01*
X220380Y96088D02*
X220380Y98459D01*
X220380Y102311D02*
X227492Y102311D01*
X227492Y106262D02*
X220380Y102311D01*
X220380Y106262D02*
X227492Y106262D01*
X227492Y110114D02*
X220380Y110114D01*
X220380Y112089D01*
X220382Y112175D01*
X220388Y112261D01*
X220397Y112347D01*
X220410Y112432D01*
X220427Y112517D01*
X220447Y112600D01*
X220471Y112683D01*
X220499Y112765D01*
X220530Y112845D01*
X220565Y112924D01*
X220603Y113001D01*
X220645Y113077D01*
X220689Y113151D01*
X220737Y113222D01*
X220788Y113292D01*
X220842Y113359D01*
X220899Y113424D01*
X220959Y113486D01*
X221021Y113546D01*
X221086Y113603D01*
X221153Y113657D01*
X221223Y113708D01*
X221294Y113756D01*
X221368Y113800D01*
X221444Y113842D01*
X221521Y113880D01*
X221600Y113915D01*
X221680Y113946D01*
X221762Y113974D01*
X221845Y113998D01*
X221928Y114018D01*
X222013Y114035D01*
X222098Y114048D01*
X222184Y114057D01*
X222270Y114063D01*
X222356Y114065D01*
X225516Y114065D01*
X225602Y114063D01*
X225688Y114057D01*
X225774Y114048D01*
X225859Y114035D01*
X225944Y114018D01*
X226027Y113998D01*
X226110Y113974D01*
X226192Y113946D01*
X226272Y113915D01*
X226351Y113880D01*
X226428Y113842D01*
X226504Y113800D01*
X226578Y113756D01*
X226649Y113708D01*
X226719Y113657D01*
X226786Y113603D01*
X226851Y113546D01*
X226913Y113486D01*
X226973Y113424D01*
X227030Y113359D01*
X227084Y113292D01*
X227135Y113222D01*
X227183Y113151D01*
X227227Y113077D01*
X227269Y113001D01*
X227307Y112924D01*
X227342Y112845D01*
X227373Y112765D01*
X227401Y112683D01*
X227425Y112600D01*
X227445Y112517D01*
X227462Y112432D01*
X227475Y112347D01*
X227484Y112261D01*
X227490Y112175D01*
X227492Y112089D01*
X227492Y110114D01*
X22960Y405508D02*
X21380Y407484D01*
X28492Y407484D01*
X28492Y409459D02*
X28492Y405508D01*
X24936Y412823D02*
X24788Y412825D01*
X24641Y412830D01*
X24493Y412840D01*
X24346Y412853D01*
X24199Y412869D01*
X24053Y412890D01*
X23908Y412914D01*
X23762Y412942D01*
X23618Y412973D01*
X23475Y413008D01*
X23332Y413047D01*
X23191Y413089D01*
X23050Y413135D01*
X22911Y413184D01*
X22773Y413237D01*
X22636Y413293D01*
X22501Y413353D01*
X22368Y413416D01*
X22297Y413442D01*
X22228Y413472D01*
X22160Y413506D01*
X22094Y413543D01*
X22030Y413583D01*
X21968Y413627D01*
X21909Y413673D01*
X21852Y413723D01*
X21798Y413776D01*
X21746Y413831D01*
X21698Y413889D01*
X21652Y413949D01*
X21610Y414012D01*
X21571Y414077D01*
X21535Y414143D01*
X21503Y414212D01*
X21475Y414281D01*
X21450Y414353D01*
X21429Y414425D01*
X21411Y414499D01*
X21398Y414573D01*
X21388Y414648D01*
X21382Y414723D01*
X21380Y414799D01*
X21382Y414875D01*
X21388Y414950D01*
X21398Y415025D01*
X21411Y415099D01*
X21429Y415173D01*
X21450Y415245D01*
X21475Y415317D01*
X21503Y415386D01*
X21535Y415455D01*
X21571Y415521D01*
X21610Y415586D01*
X21652Y415649D01*
X21698Y415709D01*
X21746Y415767D01*
X21798Y415822D01*
X21852Y415875D01*
X21909Y415925D01*
X21968Y415971D01*
X22030Y416015D01*
X22094Y416055D01*
X22160Y416092D01*
X22228Y416126D01*
X22297Y416156D01*
X22368Y416182D01*
X22368Y416181D02*
X22501Y416244D01*
X22636Y416304D01*
X22773Y416360D01*
X22911Y416413D01*
X23050Y416462D01*
X23191Y416508D01*
X23332Y416550D01*
X23475Y416589D01*
X23618Y416624D01*
X23762Y416655D01*
X23908Y416683D01*
X24053Y416707D01*
X24199Y416728D01*
X24346Y416744D01*
X24493Y416757D01*
X24641Y416767D01*
X24788Y416772D01*
X24936Y416774D01*
X24936Y412823D02*
X25084Y412825D01*
X25231Y412830D01*
X25379Y412840D01*
X25526Y412853D01*
X25673Y412869D01*
X25819Y412890D01*
X25964Y412914D01*
X26110Y412942D01*
X26254Y412973D01*
X26397Y413008D01*
X26540Y413047D01*
X26681Y413089D01*
X26822Y413135D01*
X26961Y413184D01*
X27099Y413237D01*
X27236Y413293D01*
X27371Y413353D01*
X27504Y413416D01*
X27575Y413442D01*
X27644Y413472D01*
X27712Y413506D01*
X27778Y413543D01*
X27842Y413583D01*
X27904Y413627D01*
X27963Y413673D01*
X28020Y413723D01*
X28074Y413776D01*
X28126Y413831D01*
X28174Y413889D01*
X28220Y413949D01*
X28262Y414012D01*
X28301Y414077D01*
X28337Y414143D01*
X28369Y414212D01*
X28397Y414282D01*
X28422Y414353D01*
X28443Y414425D01*
X28461Y414499D01*
X28474Y414573D01*
X28484Y414648D01*
X28490Y414723D01*
X28492Y414799D01*
X27504Y416181D02*
X27371Y416244D01*
X27236Y416304D01*
X27099Y416360D01*
X26961Y416413D01*
X26822Y416462D01*
X26681Y416508D01*
X26540Y416550D01*
X26397Y416589D01*
X26254Y416624D01*
X26110Y416655D01*
X25964Y416683D01*
X25819Y416707D01*
X25673Y416728D01*
X25526Y416744D01*
X25379Y416757D01*
X25231Y416767D01*
X25084Y416772D01*
X24936Y416774D01*
X27504Y416182D02*
X27575Y416156D01*
X27644Y416126D01*
X27712Y416092D01*
X27778Y416055D01*
X27842Y416015D01*
X27904Y415971D01*
X27963Y415925D01*
X28020Y415875D01*
X28074Y415822D01*
X28126Y415767D01*
X28174Y415709D01*
X28220Y415649D01*
X28262Y415586D01*
X28301Y415521D01*
X28337Y415455D01*
X28369Y415386D01*
X28397Y415316D01*
X28422Y415245D01*
X28443Y415173D01*
X28461Y415099D01*
X28474Y415025D01*
X28484Y414950D01*
X28490Y414875D01*
X28492Y414799D01*
X26912Y413218D02*
X22960Y416379D01*
X22170Y485508D02*
X21380Y485508D01*
X21380Y489459D01*
X28492Y487484D01*
X26516Y463460D02*
X26429Y463458D01*
X26341Y463452D01*
X26254Y463443D01*
X26168Y463429D01*
X26082Y463412D01*
X25998Y463391D01*
X25914Y463366D01*
X25831Y463337D01*
X25750Y463305D01*
X25670Y463270D01*
X25592Y463231D01*
X25515Y463188D01*
X25441Y463142D01*
X25369Y463093D01*
X25299Y463041D01*
X25231Y462985D01*
X25166Y462927D01*
X25103Y462866D01*
X25044Y462802D01*
X24987Y462735D01*
X24933Y462667D01*
X24882Y462595D01*
X24835Y462522D01*
X24790Y462447D01*
X24749Y462369D01*
X24712Y462290D01*
X24678Y462210D01*
X24648Y462128D01*
X24621Y462045D01*
X24598Y461960D01*
X24579Y461875D01*
X24564Y461789D01*
X24552Y461702D01*
X24544Y461615D01*
X24540Y461528D01*
X24540Y461440D01*
X24544Y461353D01*
X24552Y461266D01*
X24564Y461179D01*
X24579Y461093D01*
X24598Y461008D01*
X24621Y460923D01*
X24648Y460840D01*
X24678Y460758D01*
X24712Y460678D01*
X24749Y460599D01*
X24790Y460521D01*
X24835Y460446D01*
X24882Y460373D01*
X24933Y460301D01*
X24987Y460233D01*
X25044Y460166D01*
X25103Y460102D01*
X25166Y460041D01*
X25231Y459983D01*
X25299Y459927D01*
X25369Y459875D01*
X25441Y459826D01*
X25515Y459780D01*
X25592Y459737D01*
X25670Y459698D01*
X25750Y459663D01*
X25831Y459631D01*
X25914Y459602D01*
X25998Y459577D01*
X26082Y459556D01*
X26168Y459539D01*
X26254Y459525D01*
X26341Y459516D01*
X26429Y459510D01*
X26516Y459508D01*
X26603Y459510D01*
X26691Y459516D01*
X26778Y459525D01*
X26864Y459539D01*
X26950Y459556D01*
X27034Y459577D01*
X27118Y459602D01*
X27201Y459631D01*
X27282Y459663D01*
X27362Y459698D01*
X27440Y459737D01*
X27517Y459780D01*
X27591Y459826D01*
X27663Y459875D01*
X27733Y459927D01*
X27801Y459983D01*
X27866Y460041D01*
X27929Y460102D01*
X27988Y460166D01*
X28045Y460233D01*
X28099Y460301D01*
X28150Y460373D01*
X28197Y460446D01*
X28242Y460521D01*
X28283Y460599D01*
X28320Y460678D01*
X28354Y460758D01*
X28384Y460840D01*
X28411Y460923D01*
X28434Y461008D01*
X28453Y461093D01*
X28468Y461179D01*
X28480Y461266D01*
X28488Y461353D01*
X28492Y461440D01*
X28492Y461528D01*
X28488Y461615D01*
X28480Y461702D01*
X28468Y461789D01*
X28453Y461875D01*
X28434Y461960D01*
X28411Y462045D01*
X28384Y462128D01*
X28354Y462210D01*
X28320Y462290D01*
X28283Y462369D01*
X28242Y462447D01*
X28197Y462522D01*
X28150Y462595D01*
X28099Y462667D01*
X28045Y462735D01*
X27988Y462802D01*
X27929Y462866D01*
X27866Y462927D01*
X27801Y462985D01*
X27733Y463041D01*
X27663Y463093D01*
X27591Y463142D01*
X27517Y463188D01*
X27440Y463231D01*
X27362Y463270D01*
X27282Y463305D01*
X27201Y463337D01*
X27118Y463366D01*
X27034Y463391D01*
X26950Y463412D01*
X26864Y463429D01*
X26778Y463443D01*
X26691Y463452D01*
X26603Y463458D01*
X26516Y463460D01*
X22960Y463064D02*
X22881Y463062D01*
X22803Y463056D01*
X22725Y463046D01*
X22647Y463033D01*
X22570Y463015D01*
X22494Y462994D01*
X22420Y462969D01*
X22346Y462940D01*
X22274Y462908D01*
X22204Y462872D01*
X22136Y462832D01*
X22070Y462789D01*
X22006Y462743D01*
X21944Y462694D01*
X21885Y462642D01*
X21829Y462587D01*
X21775Y462529D01*
X21725Y462469D01*
X21677Y462406D01*
X21633Y462341D01*
X21592Y462274D01*
X21554Y462205D01*
X21520Y462134D01*
X21489Y462061D01*
X21462Y461987D01*
X21439Y461912D01*
X21420Y461836D01*
X21404Y461758D01*
X21392Y461680D01*
X21384Y461602D01*
X21380Y461523D01*
X21380Y461445D01*
X21384Y461366D01*
X21392Y461288D01*
X21404Y461210D01*
X21420Y461132D01*
X21439Y461056D01*
X21462Y460981D01*
X21489Y460907D01*
X21520Y460834D01*
X21554Y460763D01*
X21592Y460694D01*
X21633Y460627D01*
X21677Y460562D01*
X21725Y460499D01*
X21775Y460439D01*
X21829Y460381D01*
X21885Y460326D01*
X21944Y460274D01*
X22006Y460225D01*
X22070Y460179D01*
X22136Y460136D01*
X22204Y460096D01*
X22274Y460060D01*
X22346Y460028D01*
X22420Y459999D01*
X22494Y459974D01*
X22570Y459953D01*
X22647Y459935D01*
X22725Y459922D01*
X22803Y459912D01*
X22881Y459906D01*
X22960Y459904D01*
X23039Y459906D01*
X23117Y459912D01*
X23195Y459922D01*
X23273Y459935D01*
X23350Y459953D01*
X23426Y459974D01*
X23500Y459999D01*
X23574Y460028D01*
X23646Y460060D01*
X23716Y460096D01*
X23784Y460136D01*
X23850Y460179D01*
X23914Y460225D01*
X23976Y460274D01*
X24035Y460326D01*
X24091Y460381D01*
X24145Y460439D01*
X24195Y460499D01*
X24243Y460562D01*
X24287Y460627D01*
X24328Y460694D01*
X24366Y460763D01*
X24400Y460834D01*
X24431Y460907D01*
X24458Y460981D01*
X24481Y461056D01*
X24500Y461132D01*
X24516Y461210D01*
X24528Y461288D01*
X24536Y461366D01*
X24540Y461445D01*
X24540Y461523D01*
X24536Y461602D01*
X24528Y461680D01*
X24516Y461758D01*
X24500Y461836D01*
X24481Y461912D01*
X24458Y461987D01*
X24431Y462061D01*
X24400Y462134D01*
X24366Y462205D01*
X24328Y462274D01*
X24287Y462341D01*
X24243Y462406D01*
X24195Y462469D01*
X24145Y462529D01*
X24091Y462587D01*
X24035Y462642D01*
X23976Y462694D01*
X23914Y462743D01*
X23850Y462789D01*
X23784Y462832D01*
X23716Y462872D01*
X23646Y462908D01*
X23574Y462940D01*
X23500Y462969D01*
X23426Y462994D01*
X23350Y463015D01*
X23273Y463033D01*
X23195Y463046D01*
X23117Y463056D01*
X23039Y463062D01*
X22960Y463064D01*
X25331Y437459D02*
X25331Y435088D01*
X25329Y435010D01*
X25323Y434933D01*
X25314Y434856D01*
X25301Y434780D01*
X25284Y434704D01*
X25263Y434629D01*
X25239Y434556D01*
X25211Y434483D01*
X25179Y434412D01*
X25144Y434343D01*
X25106Y434276D01*
X25065Y434210D01*
X25020Y434147D01*
X24972Y434086D01*
X24922Y434027D01*
X24868Y433971D01*
X24812Y433917D01*
X24753Y433867D01*
X24692Y433819D01*
X24629Y433774D01*
X24563Y433733D01*
X24496Y433695D01*
X24427Y433660D01*
X24356Y433628D01*
X24283Y433600D01*
X24210Y433576D01*
X24135Y433555D01*
X24059Y433538D01*
X23983Y433525D01*
X23906Y433516D01*
X23829Y433510D01*
X23751Y433508D01*
X23356Y433508D01*
X23269Y433510D01*
X23181Y433516D01*
X23094Y433525D01*
X23008Y433539D01*
X22922Y433556D01*
X22838Y433577D01*
X22754Y433602D01*
X22671Y433631D01*
X22590Y433663D01*
X22510Y433698D01*
X22432Y433737D01*
X22355Y433780D01*
X22281Y433826D01*
X22209Y433875D01*
X22139Y433927D01*
X22071Y433983D01*
X22006Y434041D01*
X21943Y434102D01*
X21884Y434166D01*
X21827Y434233D01*
X21773Y434301D01*
X21722Y434373D01*
X21675Y434446D01*
X21630Y434521D01*
X21589Y434599D01*
X21552Y434678D01*
X21518Y434758D01*
X21488Y434840D01*
X21461Y434923D01*
X21438Y435008D01*
X21419Y435093D01*
X21404Y435179D01*
X21392Y435266D01*
X21384Y435353D01*
X21380Y435440D01*
X21380Y435528D01*
X21384Y435615D01*
X21392Y435702D01*
X21404Y435789D01*
X21419Y435875D01*
X21438Y435960D01*
X21461Y436045D01*
X21488Y436128D01*
X21518Y436210D01*
X21552Y436290D01*
X21589Y436369D01*
X21630Y436447D01*
X21675Y436522D01*
X21722Y436595D01*
X21773Y436667D01*
X21827Y436735D01*
X21884Y436802D01*
X21943Y436866D01*
X22006Y436927D01*
X22071Y436985D01*
X22139Y437041D01*
X22209Y437093D01*
X22281Y437142D01*
X22355Y437188D01*
X22432Y437231D01*
X22510Y437270D01*
X22590Y437305D01*
X22671Y437337D01*
X22754Y437366D01*
X22838Y437391D01*
X22922Y437412D01*
X23008Y437429D01*
X23094Y437443D01*
X23181Y437452D01*
X23269Y437458D01*
X23356Y437460D01*
X23356Y437459D02*
X25331Y437459D01*
X25441Y437457D01*
X25552Y437451D01*
X25661Y437442D01*
X25771Y437428D01*
X25880Y437411D01*
X25988Y437390D01*
X26096Y437365D01*
X26202Y437337D01*
X26308Y437304D01*
X26412Y437268D01*
X26515Y437229D01*
X26617Y437186D01*
X26717Y437139D01*
X26815Y437089D01*
X26912Y437036D01*
X27006Y436979D01*
X27099Y436919D01*
X27189Y436855D01*
X27277Y436789D01*
X27363Y436719D01*
X27446Y436647D01*
X27527Y436572D01*
X27605Y436494D01*
X27680Y436413D01*
X27752Y436330D01*
X27822Y436244D01*
X27888Y436156D01*
X27952Y436066D01*
X28012Y435973D01*
X28069Y435879D01*
X28122Y435782D01*
X28172Y435684D01*
X28219Y435584D01*
X28262Y435482D01*
X28301Y435379D01*
X28337Y435275D01*
X28370Y435169D01*
X28398Y435063D01*
X28423Y434955D01*
X28444Y434847D01*
X28461Y434738D01*
X28475Y434628D01*
X28484Y434519D01*
X28490Y434408D01*
X28492Y434298D01*
X20380Y306484D02*
X21960Y304508D01*
X20380Y306484D02*
X27492Y306484D01*
X27492Y308459D02*
X27492Y304508D01*
X25912Y311823D02*
X20380Y313404D01*
X25912Y311823D02*
X25912Y315774D01*
X24331Y314589D02*
X27492Y314589D01*
X21380Y280484D02*
X22960Y278508D01*
X21380Y280484D02*
X28492Y280484D01*
X28492Y282459D02*
X28492Y278508D01*
X28492Y285823D02*
X28492Y288194D01*
X28490Y288272D01*
X28484Y288349D01*
X28475Y288426D01*
X28462Y288502D01*
X28445Y288578D01*
X28424Y288653D01*
X28400Y288726D01*
X28372Y288799D01*
X28340Y288870D01*
X28305Y288939D01*
X28267Y289006D01*
X28226Y289072D01*
X28181Y289135D01*
X28133Y289196D01*
X28083Y289255D01*
X28029Y289311D01*
X27973Y289365D01*
X27914Y289415D01*
X27853Y289463D01*
X27790Y289508D01*
X27724Y289549D01*
X27657Y289587D01*
X27588Y289622D01*
X27517Y289654D01*
X27444Y289682D01*
X27371Y289706D01*
X27296Y289727D01*
X27220Y289744D01*
X27144Y289757D01*
X27067Y289766D01*
X26990Y289772D01*
X26912Y289774D01*
X26121Y289774D01*
X26043Y289772D01*
X25966Y289766D01*
X25889Y289757D01*
X25813Y289744D01*
X25737Y289727D01*
X25662Y289706D01*
X25589Y289682D01*
X25516Y289654D01*
X25445Y289622D01*
X25376Y289587D01*
X25309Y289549D01*
X25243Y289508D01*
X25180Y289463D01*
X25119Y289415D01*
X25060Y289365D01*
X25004Y289311D01*
X24950Y289255D01*
X24900Y289196D01*
X24852Y289135D01*
X24807Y289072D01*
X24766Y289006D01*
X24728Y288939D01*
X24693Y288870D01*
X24661Y288799D01*
X24633Y288726D01*
X24609Y288653D01*
X24588Y288578D01*
X24571Y288502D01*
X24558Y288426D01*
X24549Y288349D01*
X24543Y288272D01*
X24541Y288194D01*
X24541Y285823D01*
X21380Y285823D01*
X21380Y289774D01*
X24541Y125189D02*
X24541Y124004D01*
X24541Y125189D02*
X28492Y125189D01*
X28492Y122818D01*
X28490Y122740D01*
X28484Y122663D01*
X28475Y122586D01*
X28462Y122510D01*
X28445Y122434D01*
X28424Y122359D01*
X28400Y122286D01*
X28372Y122213D01*
X28340Y122142D01*
X28305Y122073D01*
X28267Y122006D01*
X28226Y121940D01*
X28181Y121877D01*
X28133Y121816D01*
X28083Y121757D01*
X28029Y121701D01*
X27973Y121647D01*
X27914Y121597D01*
X27853Y121549D01*
X27790Y121504D01*
X27724Y121463D01*
X27657Y121425D01*
X27588Y121390D01*
X27517Y121358D01*
X27444Y121330D01*
X27371Y121306D01*
X27296Y121285D01*
X27220Y121268D01*
X27144Y121255D01*
X27067Y121246D01*
X26990Y121240D01*
X26912Y121238D01*
X22960Y121238D01*
X22882Y121240D01*
X22805Y121246D01*
X22728Y121255D01*
X22652Y121268D01*
X22576Y121285D01*
X22501Y121306D01*
X22427Y121330D01*
X22355Y121358D01*
X22284Y121390D01*
X22215Y121425D01*
X22147Y121463D01*
X22082Y121504D01*
X22018Y121549D01*
X21957Y121597D01*
X21898Y121648D01*
X21842Y121701D01*
X21789Y121757D01*
X21738Y121816D01*
X21690Y121877D01*
X21645Y121941D01*
X21604Y122006D01*
X21566Y122074D01*
X21531Y122143D01*
X21499Y122214D01*
X21471Y122286D01*
X21447Y122360D01*
X21426Y122435D01*
X21409Y122511D01*
X21396Y122587D01*
X21387Y122664D01*
X21381Y122741D01*
X21379Y122819D01*
X21380Y122818D02*
X21380Y125189D01*
X21380Y129041D02*
X28492Y129041D01*
X28492Y132992D02*
X21380Y129041D01*
X21380Y132992D02*
X28492Y132992D01*
X28492Y136844D02*
X21380Y136844D01*
X21380Y138819D01*
X21382Y138905D01*
X21388Y138991D01*
X21397Y139077D01*
X21410Y139162D01*
X21427Y139247D01*
X21447Y139330D01*
X21471Y139413D01*
X21499Y139495D01*
X21530Y139575D01*
X21565Y139654D01*
X21603Y139731D01*
X21645Y139807D01*
X21689Y139881D01*
X21737Y139952D01*
X21788Y140022D01*
X21842Y140089D01*
X21899Y140154D01*
X21959Y140216D01*
X22021Y140276D01*
X22086Y140333D01*
X22153Y140387D01*
X22223Y140438D01*
X22294Y140486D01*
X22368Y140530D01*
X22444Y140572D01*
X22521Y140610D01*
X22600Y140645D01*
X22680Y140676D01*
X22762Y140704D01*
X22845Y140728D01*
X22928Y140748D01*
X23013Y140765D01*
X23098Y140778D01*
X23184Y140787D01*
X23270Y140793D01*
X23356Y140795D01*
X26516Y140795D01*
X26602Y140793D01*
X26688Y140787D01*
X26774Y140778D01*
X26859Y140765D01*
X26944Y140748D01*
X27027Y140728D01*
X27110Y140704D01*
X27192Y140676D01*
X27272Y140645D01*
X27351Y140610D01*
X27428Y140572D01*
X27504Y140530D01*
X27578Y140486D01*
X27649Y140438D01*
X27719Y140387D01*
X27786Y140333D01*
X27851Y140276D01*
X27913Y140216D01*
X27973Y140154D01*
X28030Y140089D01*
X28084Y140022D01*
X28135Y139952D01*
X28183Y139881D01*
X28227Y139807D01*
X28269Y139731D01*
X28307Y139654D01*
X28342Y139575D01*
X28373Y139495D01*
X28401Y139413D01*
X28425Y139330D01*
X28445Y139247D01*
X28462Y139162D01*
X28475Y139077D01*
X28484Y138991D01*
X28490Y138905D01*
X28492Y138819D01*
X28492Y136844D01*
X28492Y225484D02*
X21380Y225484D01*
X21380Y227459D02*
X21380Y223508D01*
X21380Y230672D02*
X28492Y230672D01*
X25331Y233043D02*
X21380Y230672D01*
X25331Y233043D02*
X21380Y235413D01*
X28492Y235413D01*
X28492Y241241D02*
X28490Y241319D01*
X28484Y241396D01*
X28475Y241473D01*
X28462Y241549D01*
X28445Y241625D01*
X28424Y241700D01*
X28400Y241773D01*
X28372Y241846D01*
X28340Y241917D01*
X28305Y241986D01*
X28267Y242053D01*
X28226Y242119D01*
X28181Y242182D01*
X28133Y242243D01*
X28083Y242302D01*
X28029Y242358D01*
X27973Y242412D01*
X27914Y242462D01*
X27853Y242510D01*
X27790Y242555D01*
X27724Y242596D01*
X27657Y242634D01*
X27588Y242669D01*
X27517Y242701D01*
X27444Y242729D01*
X27371Y242753D01*
X27296Y242774D01*
X27220Y242791D01*
X27144Y242804D01*
X27067Y242813D01*
X26990Y242819D01*
X26912Y242821D01*
X28492Y241241D02*
X28490Y241126D01*
X28484Y241012D01*
X28474Y240898D01*
X28461Y240784D01*
X28443Y240671D01*
X28421Y240558D01*
X28396Y240446D01*
X28367Y240336D01*
X28334Y240226D01*
X28297Y240117D01*
X28257Y240010D01*
X28213Y239904D01*
X28165Y239800D01*
X28114Y239697D01*
X28059Y239597D01*
X28001Y239498D01*
X27939Y239401D01*
X27875Y239307D01*
X27807Y239214D01*
X27735Y239124D01*
X27661Y239037D01*
X27584Y238952D01*
X27504Y238870D01*
X22960Y239068D02*
X22882Y239070D01*
X22805Y239076D01*
X22728Y239085D01*
X22652Y239098D01*
X22576Y239115D01*
X22501Y239136D01*
X22428Y239160D01*
X22355Y239188D01*
X22284Y239220D01*
X22215Y239255D01*
X22148Y239293D01*
X22082Y239334D01*
X22019Y239379D01*
X21958Y239427D01*
X21899Y239477D01*
X21843Y239531D01*
X21789Y239587D01*
X21739Y239646D01*
X21691Y239707D01*
X21646Y239770D01*
X21605Y239836D01*
X21567Y239903D01*
X21532Y239972D01*
X21500Y240043D01*
X21472Y240116D01*
X21448Y240189D01*
X21427Y240264D01*
X21410Y240340D01*
X21397Y240416D01*
X21388Y240493D01*
X21382Y240570D01*
X21380Y240648D01*
X21382Y240754D01*
X21388Y240860D01*
X21397Y240965D01*
X21410Y241070D01*
X21427Y241175D01*
X21448Y241279D01*
X21472Y241382D01*
X21500Y241484D01*
X21532Y241585D01*
X21567Y241685D01*
X21606Y241783D01*
X21649Y241881D01*
X21694Y241976D01*
X21743Y242070D01*
X21796Y242162D01*
X21852Y242252D01*
X21911Y242340D01*
X21973Y242426D01*
X24343Y239858D02*
X24301Y239791D01*
X24256Y239726D01*
X24207Y239663D01*
X24156Y239602D01*
X24101Y239545D01*
X24044Y239490D01*
X23984Y239437D01*
X23922Y239388D01*
X23857Y239342D01*
X23791Y239300D01*
X23722Y239260D01*
X23651Y239224D01*
X23578Y239192D01*
X23504Y239163D01*
X23429Y239138D01*
X23353Y239117D01*
X23275Y239099D01*
X23197Y239086D01*
X23118Y239076D01*
X23039Y239070D01*
X22960Y239068D01*
X25529Y242031D02*
X25571Y242098D01*
X25616Y242163D01*
X25665Y242226D01*
X25716Y242287D01*
X25771Y242344D01*
X25828Y242399D01*
X25888Y242452D01*
X25950Y242501D01*
X26015Y242547D01*
X26081Y242589D01*
X26150Y242629D01*
X26221Y242665D01*
X26294Y242697D01*
X26368Y242726D01*
X26443Y242751D01*
X26519Y242772D01*
X26597Y242790D01*
X26675Y242803D01*
X26754Y242813D01*
X26833Y242819D01*
X26912Y242821D01*
X25529Y242031D02*
X24343Y239858D01*
X21380Y200484D02*
X28492Y200484D01*
X21380Y198508D02*
X21380Y202459D01*
X28492Y206889D02*
X28492Y208469D01*
X28492Y206889D02*
X28490Y206811D01*
X28484Y206734D01*
X28475Y206657D01*
X28462Y206581D01*
X28445Y206505D01*
X28424Y206430D01*
X28400Y206357D01*
X28372Y206284D01*
X28340Y206213D01*
X28305Y206144D01*
X28267Y206077D01*
X28226Y206011D01*
X28181Y205948D01*
X28133Y205887D01*
X28083Y205828D01*
X28029Y205772D01*
X27973Y205718D01*
X27914Y205668D01*
X27853Y205620D01*
X27790Y205575D01*
X27724Y205534D01*
X27657Y205496D01*
X27588Y205461D01*
X27517Y205429D01*
X27444Y205401D01*
X27371Y205377D01*
X27296Y205356D01*
X27220Y205339D01*
X27144Y205326D01*
X27067Y205317D01*
X26990Y205311D01*
X26912Y205309D01*
X26912Y205308D02*
X22960Y205308D01*
X22882Y205310D01*
X22805Y205316D01*
X22728Y205325D01*
X22652Y205338D01*
X22576Y205355D01*
X22501Y205376D01*
X22427Y205400D01*
X22355Y205428D01*
X22284Y205460D01*
X22215Y205495D01*
X22147Y205533D01*
X22082Y205574D01*
X22018Y205619D01*
X21957Y205667D01*
X21898Y205718D01*
X21842Y205771D01*
X21789Y205827D01*
X21738Y205886D01*
X21690Y205947D01*
X21645Y206011D01*
X21604Y206076D01*
X21566Y206144D01*
X21531Y206213D01*
X21499Y206284D01*
X21471Y206356D01*
X21447Y206430D01*
X21426Y206505D01*
X21409Y206581D01*
X21396Y206657D01*
X21387Y206734D01*
X21381Y206811D01*
X21379Y206889D01*
X21380Y206889D02*
X21380Y208469D01*
X21380Y211814D02*
X28492Y211814D01*
X25726Y211814D02*
X21380Y215765D01*
X24146Y213395D02*
X28492Y215765D01*
X28492Y174484D02*
X21380Y174484D01*
X21380Y176459D02*
X21380Y172508D01*
X21380Y179579D02*
X28492Y179579D01*
X21380Y179579D02*
X21380Y181555D01*
X21382Y181641D01*
X21388Y181727D01*
X21397Y181813D01*
X21410Y181898D01*
X21427Y181983D01*
X21447Y182066D01*
X21471Y182149D01*
X21499Y182231D01*
X21530Y182311D01*
X21565Y182390D01*
X21603Y182467D01*
X21645Y182543D01*
X21689Y182617D01*
X21737Y182688D01*
X21788Y182758D01*
X21842Y182825D01*
X21899Y182890D01*
X21959Y182952D01*
X22021Y183012D01*
X22086Y183069D01*
X22153Y183123D01*
X22223Y183174D01*
X22294Y183222D01*
X22368Y183266D01*
X22444Y183308D01*
X22521Y183346D01*
X22600Y183381D01*
X22680Y183412D01*
X22762Y183440D01*
X22845Y183464D01*
X22928Y183484D01*
X23013Y183501D01*
X23098Y183514D01*
X23184Y183523D01*
X23270Y183529D01*
X23356Y183531D01*
X23356Y183530D02*
X26516Y183530D01*
X26516Y183531D02*
X26602Y183529D01*
X26688Y183523D01*
X26774Y183514D01*
X26859Y183501D01*
X26944Y183484D01*
X27027Y183464D01*
X27110Y183440D01*
X27192Y183412D01*
X27272Y183381D01*
X27351Y183346D01*
X27428Y183308D01*
X27504Y183266D01*
X27578Y183222D01*
X27649Y183174D01*
X27719Y183123D01*
X27786Y183069D01*
X27851Y183012D01*
X27913Y182952D01*
X27973Y182890D01*
X28030Y182825D01*
X28084Y182758D01*
X28135Y182688D01*
X28183Y182617D01*
X28227Y182543D01*
X28269Y182467D01*
X28307Y182390D01*
X28342Y182311D01*
X28373Y182231D01*
X28401Y182149D01*
X28425Y182066D01*
X28445Y181983D01*
X28462Y181898D01*
X28475Y181813D01*
X28484Y181727D01*
X28490Y181641D01*
X28492Y181555D01*
X28492Y179579D01*
X26516Y187138D02*
X23356Y187138D01*
X23269Y187140D01*
X23181Y187146D01*
X23094Y187155D01*
X23008Y187169D01*
X22922Y187186D01*
X22838Y187207D01*
X22754Y187232D01*
X22671Y187261D01*
X22590Y187293D01*
X22510Y187328D01*
X22432Y187367D01*
X22355Y187410D01*
X22281Y187456D01*
X22209Y187505D01*
X22139Y187557D01*
X22071Y187613D01*
X22006Y187671D01*
X21943Y187732D01*
X21884Y187796D01*
X21827Y187863D01*
X21773Y187931D01*
X21722Y188003D01*
X21675Y188076D01*
X21630Y188151D01*
X21589Y188229D01*
X21552Y188308D01*
X21518Y188388D01*
X21488Y188470D01*
X21461Y188553D01*
X21438Y188638D01*
X21419Y188723D01*
X21404Y188809D01*
X21392Y188896D01*
X21384Y188983D01*
X21380Y189070D01*
X21380Y189158D01*
X21384Y189245D01*
X21392Y189332D01*
X21404Y189419D01*
X21419Y189505D01*
X21438Y189590D01*
X21461Y189675D01*
X21488Y189758D01*
X21518Y189840D01*
X21552Y189920D01*
X21589Y189999D01*
X21630Y190077D01*
X21675Y190152D01*
X21722Y190225D01*
X21773Y190297D01*
X21827Y190365D01*
X21884Y190432D01*
X21943Y190496D01*
X22006Y190557D01*
X22071Y190615D01*
X22139Y190671D01*
X22209Y190723D01*
X22281Y190772D01*
X22355Y190818D01*
X22432Y190861D01*
X22510Y190900D01*
X22590Y190935D01*
X22671Y190967D01*
X22754Y190996D01*
X22838Y191021D01*
X22922Y191042D01*
X23008Y191059D01*
X23094Y191073D01*
X23181Y191082D01*
X23269Y191088D01*
X23356Y191090D01*
X23356Y191089D02*
X26516Y191089D01*
X26516Y191090D02*
X26603Y191088D01*
X26691Y191082D01*
X26778Y191073D01*
X26864Y191059D01*
X26950Y191042D01*
X27034Y191021D01*
X27118Y190996D01*
X27201Y190967D01*
X27282Y190935D01*
X27362Y190900D01*
X27440Y190861D01*
X27517Y190818D01*
X27591Y190772D01*
X27663Y190723D01*
X27733Y190671D01*
X27801Y190615D01*
X27866Y190557D01*
X27929Y190496D01*
X27988Y190432D01*
X28045Y190365D01*
X28099Y190297D01*
X28150Y190225D01*
X28197Y190152D01*
X28242Y190077D01*
X28283Y189999D01*
X28320Y189920D01*
X28354Y189840D01*
X28384Y189758D01*
X28411Y189675D01*
X28434Y189590D01*
X28453Y189505D01*
X28468Y189419D01*
X28480Y189332D01*
X28488Y189245D01*
X28492Y189158D01*
X28492Y189070D01*
X28488Y188983D01*
X28480Y188896D01*
X28468Y188809D01*
X28453Y188723D01*
X28434Y188638D01*
X28411Y188553D01*
X28384Y188470D01*
X28354Y188388D01*
X28320Y188308D01*
X28283Y188229D01*
X28242Y188151D01*
X28197Y188076D01*
X28150Y188003D01*
X28099Y187931D01*
X28045Y187863D01*
X27988Y187796D01*
X27929Y187732D01*
X27866Y187671D01*
X27801Y187613D01*
X27733Y187557D01*
X27663Y187505D01*
X27591Y187456D01*
X27517Y187410D01*
X27440Y187367D01*
X27362Y187328D01*
X27282Y187293D01*
X27201Y187261D01*
X27118Y187232D01*
X27034Y187207D01*
X26950Y187186D01*
X26864Y187169D01*
X26778Y187155D01*
X26691Y187146D01*
X26603Y187140D01*
X26516Y187138D01*
X28492Y150484D02*
X21380Y150484D01*
X21380Y152459D02*
X21380Y148508D01*
X21380Y155579D02*
X28492Y155579D01*
X21380Y155579D02*
X21380Y157555D01*
X21382Y157641D01*
X21388Y157727D01*
X21397Y157813D01*
X21410Y157898D01*
X21427Y157983D01*
X21447Y158066D01*
X21471Y158149D01*
X21499Y158231D01*
X21530Y158311D01*
X21565Y158390D01*
X21603Y158467D01*
X21645Y158543D01*
X21689Y158617D01*
X21737Y158688D01*
X21788Y158758D01*
X21842Y158825D01*
X21899Y158890D01*
X21959Y158952D01*
X22021Y159012D01*
X22086Y159069D01*
X22153Y159123D01*
X22223Y159174D01*
X22294Y159222D01*
X22368Y159266D01*
X22444Y159308D01*
X22521Y159346D01*
X22600Y159381D01*
X22680Y159412D01*
X22762Y159440D01*
X22845Y159464D01*
X22928Y159484D01*
X23013Y159501D01*
X23098Y159514D01*
X23184Y159523D01*
X23270Y159529D01*
X23356Y159531D01*
X23356Y159530D02*
X26516Y159530D01*
X26516Y159531D02*
X26602Y159529D01*
X26688Y159523D01*
X26774Y159514D01*
X26859Y159501D01*
X26944Y159484D01*
X27027Y159464D01*
X27110Y159440D01*
X27192Y159412D01*
X27272Y159381D01*
X27351Y159346D01*
X27428Y159308D01*
X27504Y159266D01*
X27578Y159222D01*
X27649Y159174D01*
X27719Y159123D01*
X27786Y159069D01*
X27851Y159012D01*
X27913Y158952D01*
X27973Y158890D01*
X28030Y158825D01*
X28084Y158758D01*
X28135Y158688D01*
X28183Y158617D01*
X28227Y158543D01*
X28269Y158467D01*
X28307Y158390D01*
X28342Y158311D01*
X28373Y158231D01*
X28401Y158149D01*
X28425Y158066D01*
X28445Y157983D01*
X28462Y157898D01*
X28475Y157813D01*
X28484Y157727D01*
X28490Y157641D01*
X28492Y157555D01*
X28492Y155579D01*
X28492Y163651D02*
X21380Y163651D01*
X28492Y162861D02*
X28492Y164441D01*
X21380Y164441D02*
X21380Y162861D01*
X28492Y248778D02*
X28492Y250754D01*
X28490Y250841D01*
X28484Y250929D01*
X28475Y251016D01*
X28461Y251102D01*
X28444Y251188D01*
X28423Y251272D01*
X28398Y251356D01*
X28369Y251439D01*
X28337Y251520D01*
X28302Y251600D01*
X28263Y251678D01*
X28220Y251755D01*
X28174Y251829D01*
X28125Y251901D01*
X28073Y251971D01*
X28017Y252039D01*
X27959Y252104D01*
X27898Y252167D01*
X27834Y252226D01*
X27767Y252283D01*
X27699Y252337D01*
X27627Y252388D01*
X27554Y252435D01*
X27479Y252480D01*
X27401Y252521D01*
X27322Y252558D01*
X27242Y252592D01*
X27160Y252622D01*
X27077Y252649D01*
X26992Y252672D01*
X26907Y252691D01*
X26821Y252706D01*
X26734Y252718D01*
X26647Y252726D01*
X26560Y252730D01*
X26472Y252730D01*
X26385Y252726D01*
X26298Y252718D01*
X26211Y252706D01*
X26125Y252691D01*
X26040Y252672D01*
X25955Y252649D01*
X25872Y252622D01*
X25790Y252592D01*
X25710Y252558D01*
X25631Y252521D01*
X25553Y252480D01*
X25478Y252435D01*
X25405Y252388D01*
X25333Y252337D01*
X25265Y252283D01*
X25198Y252226D01*
X25134Y252167D01*
X25073Y252104D01*
X25015Y252039D01*
X24959Y251971D01*
X24907Y251901D01*
X24858Y251829D01*
X24812Y251755D01*
X24769Y251678D01*
X24730Y251600D01*
X24695Y251520D01*
X24663Y251439D01*
X24634Y251356D01*
X24609Y251272D01*
X24588Y251188D01*
X24571Y251102D01*
X24557Y251016D01*
X24548Y250929D01*
X24542Y250841D01*
X24540Y250754D01*
X21380Y251149D02*
X21380Y248778D01*
X21380Y251149D02*
X21382Y251228D01*
X21388Y251306D01*
X21398Y251384D01*
X21411Y251462D01*
X21429Y251539D01*
X21450Y251615D01*
X21475Y251689D01*
X21504Y251763D01*
X21536Y251835D01*
X21572Y251905D01*
X21612Y251973D01*
X21655Y252039D01*
X21701Y252103D01*
X21750Y252165D01*
X21802Y252224D01*
X21857Y252280D01*
X21915Y252334D01*
X21975Y252384D01*
X22038Y252432D01*
X22103Y252476D01*
X22170Y252517D01*
X22239Y252555D01*
X22310Y252589D01*
X22383Y252620D01*
X22457Y252647D01*
X22532Y252670D01*
X22608Y252689D01*
X22686Y252705D01*
X22764Y252717D01*
X22842Y252725D01*
X22921Y252729D01*
X22999Y252729D01*
X23078Y252725D01*
X23156Y252717D01*
X23234Y252705D01*
X23312Y252689D01*
X23388Y252670D01*
X23463Y252647D01*
X23537Y252620D01*
X23610Y252589D01*
X23681Y252555D01*
X23750Y252517D01*
X23817Y252476D01*
X23882Y252432D01*
X23945Y252384D01*
X24005Y252334D01*
X24063Y252280D01*
X24118Y252224D01*
X24170Y252165D01*
X24219Y252103D01*
X24265Y252039D01*
X24308Y251973D01*
X24348Y251905D01*
X24384Y251835D01*
X24416Y251763D01*
X24445Y251689D01*
X24470Y251615D01*
X24491Y251539D01*
X24509Y251462D01*
X24522Y251384D01*
X24532Y251306D01*
X24538Y251228D01*
X24540Y251149D01*
X24541Y251149D02*
X24541Y249568D01*
X21380Y255698D02*
X28492Y258069D01*
X21380Y260439D01*
X28492Y263408D02*
X28492Y265384D01*
X28490Y265471D01*
X28484Y265559D01*
X28475Y265646D01*
X28461Y265732D01*
X28444Y265818D01*
X28423Y265902D01*
X28398Y265986D01*
X28369Y266069D01*
X28337Y266150D01*
X28302Y266230D01*
X28263Y266308D01*
X28220Y266385D01*
X28174Y266459D01*
X28125Y266531D01*
X28073Y266601D01*
X28017Y266669D01*
X27959Y266734D01*
X27898Y266797D01*
X27834Y266856D01*
X27767Y266913D01*
X27699Y266967D01*
X27627Y267018D01*
X27554Y267065D01*
X27479Y267110D01*
X27401Y267151D01*
X27322Y267188D01*
X27242Y267222D01*
X27160Y267252D01*
X27077Y267279D01*
X26992Y267302D01*
X26907Y267321D01*
X26821Y267336D01*
X26734Y267348D01*
X26647Y267356D01*
X26560Y267360D01*
X26472Y267360D01*
X26385Y267356D01*
X26298Y267348D01*
X26211Y267336D01*
X26125Y267321D01*
X26040Y267302D01*
X25955Y267279D01*
X25872Y267252D01*
X25790Y267222D01*
X25710Y267188D01*
X25631Y267151D01*
X25553Y267110D01*
X25478Y267065D01*
X25405Y267018D01*
X25333Y266967D01*
X25265Y266913D01*
X25198Y266856D01*
X25134Y266797D01*
X25073Y266734D01*
X25015Y266669D01*
X24959Y266601D01*
X24907Y266531D01*
X24858Y266459D01*
X24812Y266385D01*
X24769Y266308D01*
X24730Y266230D01*
X24695Y266150D01*
X24663Y266069D01*
X24634Y265986D01*
X24609Y265902D01*
X24588Y265818D01*
X24571Y265732D01*
X24557Y265646D01*
X24548Y265559D01*
X24542Y265471D01*
X24540Y265384D01*
X21380Y265779D02*
X21380Y263408D01*
X21380Y265779D02*
X21382Y265858D01*
X21388Y265936D01*
X21398Y266014D01*
X21411Y266092D01*
X21429Y266169D01*
X21450Y266245D01*
X21475Y266319D01*
X21504Y266393D01*
X21536Y266465D01*
X21572Y266535D01*
X21612Y266603D01*
X21655Y266669D01*
X21701Y266733D01*
X21750Y266795D01*
X21802Y266854D01*
X21857Y266910D01*
X21915Y266964D01*
X21975Y267014D01*
X22038Y267062D01*
X22103Y267106D01*
X22170Y267147D01*
X22239Y267185D01*
X22310Y267219D01*
X22383Y267250D01*
X22457Y267277D01*
X22532Y267300D01*
X22608Y267319D01*
X22686Y267335D01*
X22764Y267347D01*
X22842Y267355D01*
X22921Y267359D01*
X22999Y267359D01*
X23078Y267355D01*
X23156Y267347D01*
X23234Y267335D01*
X23312Y267319D01*
X23388Y267300D01*
X23463Y267277D01*
X23537Y267250D01*
X23610Y267219D01*
X23681Y267185D01*
X23750Y267147D01*
X23817Y267106D01*
X23882Y267062D01*
X23945Y267014D01*
X24005Y266964D01*
X24063Y266910D01*
X24118Y266854D01*
X24170Y266795D01*
X24219Y266733D01*
X24265Y266669D01*
X24308Y266603D01*
X24348Y266535D01*
X24384Y266465D01*
X24416Y266393D01*
X24445Y266319D01*
X24470Y266245D01*
X24491Y266169D01*
X24509Y266092D01*
X24522Y266014D01*
X24532Y265936D01*
X24538Y265858D01*
X24540Y265779D01*
X24541Y265779D02*
X24541Y264199D01*
X28892Y101479D02*
X28892Y99108D01*
X28892Y101479D02*
X28890Y101557D01*
X28884Y101634D01*
X28875Y101711D01*
X28862Y101787D01*
X28845Y101863D01*
X28824Y101938D01*
X28800Y102011D01*
X28772Y102084D01*
X28740Y102155D01*
X28705Y102224D01*
X28667Y102291D01*
X28626Y102357D01*
X28581Y102420D01*
X28533Y102481D01*
X28483Y102540D01*
X28429Y102596D01*
X28373Y102650D01*
X28314Y102700D01*
X28253Y102748D01*
X28190Y102793D01*
X28124Y102834D01*
X28057Y102872D01*
X27988Y102907D01*
X27917Y102939D01*
X27844Y102967D01*
X27771Y102991D01*
X27696Y103012D01*
X27620Y103029D01*
X27544Y103042D01*
X27467Y103051D01*
X27390Y103057D01*
X27312Y103059D01*
X26521Y103059D01*
X26443Y103057D01*
X26366Y103051D01*
X26289Y103042D01*
X26213Y103029D01*
X26137Y103012D01*
X26062Y102991D01*
X25989Y102967D01*
X25916Y102939D01*
X25845Y102907D01*
X25776Y102872D01*
X25709Y102834D01*
X25643Y102793D01*
X25580Y102748D01*
X25519Y102700D01*
X25460Y102650D01*
X25404Y102596D01*
X25350Y102540D01*
X25300Y102481D01*
X25252Y102420D01*
X25207Y102357D01*
X25166Y102291D01*
X25128Y102224D01*
X25093Y102155D01*
X25061Y102084D01*
X25033Y102011D01*
X25009Y101938D01*
X24988Y101863D01*
X24971Y101787D01*
X24958Y101711D01*
X24949Y101634D01*
X24943Y101557D01*
X24941Y101479D01*
X24941Y99108D01*
X21780Y99108D01*
X21780Y103059D01*
X21780Y106028D02*
X28892Y108399D01*
X21780Y110769D01*
X121380Y3508D02*
X128492Y3508D01*
X121380Y3508D02*
X121380Y5484D01*
X121382Y5571D01*
X121388Y5659D01*
X121397Y5746D01*
X121411Y5832D01*
X121428Y5918D01*
X121449Y6002D01*
X121474Y6086D01*
X121503Y6169D01*
X121535Y6250D01*
X121570Y6330D01*
X121609Y6408D01*
X121652Y6485D01*
X121698Y6559D01*
X121747Y6631D01*
X121799Y6701D01*
X121855Y6769D01*
X121913Y6834D01*
X121974Y6897D01*
X122038Y6956D01*
X122105Y7013D01*
X122173Y7067D01*
X122245Y7118D01*
X122318Y7165D01*
X122393Y7210D01*
X122471Y7251D01*
X122550Y7288D01*
X122630Y7322D01*
X122712Y7352D01*
X122795Y7379D01*
X122880Y7402D01*
X122965Y7421D01*
X123051Y7436D01*
X123138Y7448D01*
X123225Y7456D01*
X123312Y7460D01*
X123400Y7460D01*
X123487Y7456D01*
X123574Y7448D01*
X123661Y7436D01*
X123747Y7421D01*
X123832Y7402D01*
X123917Y7379D01*
X124000Y7352D01*
X124082Y7322D01*
X124162Y7288D01*
X124241Y7251D01*
X124319Y7210D01*
X124394Y7165D01*
X124467Y7118D01*
X124539Y7067D01*
X124607Y7013D01*
X124674Y6956D01*
X124738Y6897D01*
X124799Y6834D01*
X124857Y6769D01*
X124913Y6701D01*
X124965Y6631D01*
X125014Y6559D01*
X125060Y6485D01*
X125103Y6408D01*
X125142Y6330D01*
X125177Y6250D01*
X125209Y6169D01*
X125238Y6086D01*
X125263Y6002D01*
X125284Y5918D01*
X125301Y5832D01*
X125315Y5746D01*
X125324Y5659D01*
X125330Y5571D01*
X125332Y5484D01*
X125331Y5484D02*
X125331Y3508D01*
X121380Y10231D02*
X128492Y11811D01*
X123751Y13391D01*
X128492Y14972D01*
X121380Y16552D01*
X121380Y20011D02*
X128492Y20011D01*
X121380Y20011D02*
X121380Y21986D01*
X121382Y22073D01*
X121388Y22161D01*
X121397Y22248D01*
X121411Y22334D01*
X121428Y22420D01*
X121449Y22504D01*
X121474Y22588D01*
X121503Y22671D01*
X121535Y22752D01*
X121570Y22832D01*
X121609Y22910D01*
X121652Y22987D01*
X121698Y23061D01*
X121747Y23133D01*
X121799Y23203D01*
X121855Y23271D01*
X121913Y23336D01*
X121974Y23399D01*
X122038Y23458D01*
X122105Y23515D01*
X122173Y23569D01*
X122245Y23620D01*
X122318Y23667D01*
X122393Y23712D01*
X122471Y23753D01*
X122550Y23790D01*
X122630Y23824D01*
X122712Y23854D01*
X122795Y23881D01*
X122880Y23904D01*
X122965Y23923D01*
X123051Y23938D01*
X123138Y23950D01*
X123225Y23958D01*
X123312Y23962D01*
X123400Y23962D01*
X123487Y23958D01*
X123574Y23950D01*
X123661Y23938D01*
X123747Y23923D01*
X123832Y23904D01*
X123917Y23881D01*
X124000Y23854D01*
X124082Y23824D01*
X124162Y23790D01*
X124241Y23753D01*
X124319Y23712D01*
X124394Y23667D01*
X124467Y23620D01*
X124539Y23569D01*
X124607Y23515D01*
X124674Y23458D01*
X124738Y23399D01*
X124799Y23336D01*
X124857Y23271D01*
X124913Y23203D01*
X124965Y23133D01*
X125014Y23061D01*
X125060Y22987D01*
X125103Y22910D01*
X125142Y22832D01*
X125177Y22752D01*
X125209Y22671D01*
X125238Y22588D01*
X125263Y22504D01*
X125284Y22420D01*
X125301Y22334D01*
X125315Y22248D01*
X125324Y22161D01*
X125330Y22073D01*
X125332Y21986D01*
X125331Y21986D02*
X125331Y20011D01*
X125331Y22381D02*
X128492Y23962D01*
X18508Y522508D02*
X18508Y529620D01*
X20484Y529620D01*
X20571Y529618D01*
X20659Y529612D01*
X20746Y529603D01*
X20832Y529589D01*
X20918Y529572D01*
X21002Y529551D01*
X21086Y529526D01*
X21169Y529497D01*
X21250Y529465D01*
X21330Y529430D01*
X21408Y529391D01*
X21485Y529348D01*
X21559Y529302D01*
X21631Y529253D01*
X21701Y529201D01*
X21769Y529145D01*
X21834Y529087D01*
X21897Y529026D01*
X21956Y528962D01*
X22013Y528895D01*
X22067Y528827D01*
X22118Y528755D01*
X22165Y528682D01*
X22210Y528607D01*
X22251Y528529D01*
X22288Y528450D01*
X22322Y528370D01*
X22352Y528288D01*
X22379Y528205D01*
X22402Y528120D01*
X22421Y528035D01*
X22436Y527949D01*
X22448Y527862D01*
X22456Y527775D01*
X22460Y527688D01*
X22460Y527600D01*
X22456Y527513D01*
X22448Y527426D01*
X22436Y527339D01*
X22421Y527253D01*
X22402Y527168D01*
X22379Y527083D01*
X22352Y527000D01*
X22322Y526918D01*
X22288Y526838D01*
X22251Y526759D01*
X22210Y526681D01*
X22165Y526606D01*
X22118Y526533D01*
X22067Y526461D01*
X22013Y526393D01*
X21956Y526326D01*
X21897Y526262D01*
X21834Y526201D01*
X21769Y526143D01*
X21701Y526087D01*
X21631Y526035D01*
X21559Y525986D01*
X21485Y525940D01*
X21408Y525897D01*
X21330Y525858D01*
X21250Y525823D01*
X21169Y525791D01*
X21086Y525762D01*
X21002Y525737D01*
X20918Y525716D01*
X20832Y525699D01*
X20746Y525685D01*
X20659Y525676D01*
X20571Y525670D01*
X20484Y525668D01*
X20484Y525669D02*
X18508Y525669D01*
X20879Y525669D02*
X22459Y522508D01*
X232274Y526459D02*
X233459Y526459D01*
X233459Y522508D01*
X231088Y522508D01*
X231010Y522510D01*
X230933Y522516D01*
X230856Y522525D01*
X230780Y522538D01*
X230704Y522555D01*
X230629Y522576D01*
X230556Y522600D01*
X230483Y522628D01*
X230412Y522660D01*
X230343Y522695D01*
X230276Y522733D01*
X230210Y522774D01*
X230147Y522819D01*
X230086Y522867D01*
X230027Y522917D01*
X229971Y522971D01*
X229917Y523027D01*
X229867Y523086D01*
X229819Y523147D01*
X229774Y523210D01*
X229733Y523276D01*
X229695Y523343D01*
X229660Y523412D01*
X229628Y523483D01*
X229600Y523556D01*
X229576Y523629D01*
X229555Y523704D01*
X229538Y523780D01*
X229525Y523856D01*
X229516Y523933D01*
X229510Y524010D01*
X229508Y524088D01*
X229508Y528040D01*
X229510Y528118D01*
X229516Y528195D01*
X229525Y528272D01*
X229538Y528348D01*
X229555Y528424D01*
X229576Y528499D01*
X229600Y528572D01*
X229628Y528645D01*
X229660Y528716D01*
X229695Y528785D01*
X229733Y528852D01*
X229774Y528918D01*
X229819Y528981D01*
X229867Y529042D01*
X229917Y529101D01*
X229971Y529157D01*
X230027Y529211D01*
X230086Y529261D01*
X230147Y529309D01*
X230210Y529354D01*
X230276Y529395D01*
X230343Y529433D01*
X230412Y529468D01*
X230483Y529500D01*
X230556Y529528D01*
X230629Y529552D01*
X230704Y529573D01*
X230780Y529590D01*
X230856Y529603D01*
X230933Y529612D01*
X231010Y529618D01*
X231088Y529620D01*
X233459Y529620D01*
X142492Y6669D02*
X142492Y5088D01*
X142490Y5010D01*
X142484Y4933D01*
X142475Y4856D01*
X142462Y4780D01*
X142445Y4704D01*
X142424Y4629D01*
X142400Y4556D01*
X142372Y4483D01*
X142340Y4412D01*
X142305Y4343D01*
X142267Y4276D01*
X142226Y4210D01*
X142181Y4147D01*
X142133Y4086D01*
X142083Y4027D01*
X142029Y3971D01*
X141973Y3917D01*
X141914Y3867D01*
X141853Y3819D01*
X141790Y3774D01*
X141724Y3733D01*
X141657Y3695D01*
X141588Y3660D01*
X141517Y3628D01*
X141444Y3600D01*
X141371Y3576D01*
X141296Y3555D01*
X141220Y3538D01*
X141144Y3525D01*
X141067Y3516D01*
X140990Y3510D01*
X140912Y3508D01*
X136960Y3508D01*
X136882Y3510D01*
X136805Y3516D01*
X136728Y3525D01*
X136652Y3538D01*
X136576Y3555D01*
X136501Y3576D01*
X136427Y3600D01*
X136355Y3628D01*
X136284Y3660D01*
X136215Y3695D01*
X136147Y3733D01*
X136082Y3774D01*
X136018Y3819D01*
X135957Y3867D01*
X135898Y3918D01*
X135842Y3971D01*
X135789Y4027D01*
X135738Y4086D01*
X135690Y4147D01*
X135645Y4211D01*
X135604Y4276D01*
X135566Y4344D01*
X135531Y4413D01*
X135499Y4484D01*
X135471Y4556D01*
X135447Y4630D01*
X135426Y4705D01*
X135409Y4781D01*
X135396Y4857D01*
X135387Y4934D01*
X135381Y5011D01*
X135379Y5089D01*
X135380Y5088D02*
X135380Y6669D01*
X135380Y9875D02*
X142492Y9875D01*
X138541Y9875D02*
X138541Y13826D01*
X135380Y13826D02*
X142492Y13826D01*
X138541Y20444D02*
X138541Y21629D01*
X142492Y21629D01*
X142492Y19258D01*
X142490Y19180D01*
X142484Y19103D01*
X142475Y19026D01*
X142462Y18950D01*
X142445Y18874D01*
X142424Y18799D01*
X142400Y18726D01*
X142372Y18653D01*
X142340Y18582D01*
X142305Y18513D01*
X142267Y18446D01*
X142226Y18380D01*
X142181Y18317D01*
X142133Y18256D01*
X142083Y18197D01*
X142029Y18141D01*
X141973Y18087D01*
X141914Y18037D01*
X141853Y17989D01*
X141790Y17944D01*
X141724Y17903D01*
X141657Y17865D01*
X141588Y17830D01*
X141517Y17798D01*
X141444Y17770D01*
X141371Y17746D01*
X141296Y17725D01*
X141220Y17708D01*
X141144Y17695D01*
X141067Y17686D01*
X140990Y17680D01*
X140912Y17678D01*
X136960Y17678D01*
X136960Y17677D02*
X136882Y17679D01*
X136805Y17685D01*
X136728Y17694D01*
X136652Y17707D01*
X136576Y17724D01*
X136501Y17745D01*
X136427Y17769D01*
X136355Y17797D01*
X136284Y17829D01*
X136215Y17864D01*
X136147Y17902D01*
X136082Y17943D01*
X136018Y17988D01*
X135957Y18036D01*
X135898Y18087D01*
X135842Y18140D01*
X135789Y18196D01*
X135738Y18255D01*
X135690Y18316D01*
X135645Y18380D01*
X135604Y18445D01*
X135566Y18513D01*
X135531Y18582D01*
X135499Y18653D01*
X135471Y18725D01*
X135447Y18799D01*
X135426Y18874D01*
X135409Y18950D01*
X135396Y19026D01*
X135387Y19103D01*
X135381Y19180D01*
X135379Y19258D01*
X135380Y19258D02*
X135380Y21629D01*
X22960Y379508D02*
X21380Y381484D01*
X28492Y381484D01*
X28492Y383459D02*
X28492Y379508D01*
X22960Y386823D02*
X21380Y388799D01*
X28492Y388799D01*
X28492Y390774D02*
X28492Y386823D01*
X20380Y356484D02*
X21960Y354508D01*
X20380Y356484D02*
X27492Y356484D01*
X27492Y358459D02*
X27492Y354508D01*
X20380Y363996D02*
X20382Y364078D01*
X20388Y364160D01*
X20397Y364242D01*
X20410Y364323D01*
X20427Y364403D01*
X20448Y364483D01*
X20472Y364561D01*
X20500Y364638D01*
X20531Y364714D01*
X20566Y364789D01*
X20605Y364861D01*
X20646Y364932D01*
X20691Y365001D01*
X20739Y365067D01*
X20790Y365132D01*
X20844Y365194D01*
X20901Y365253D01*
X20960Y365310D01*
X21022Y365364D01*
X21087Y365415D01*
X21153Y365463D01*
X21222Y365508D01*
X21293Y365549D01*
X21365Y365588D01*
X21440Y365623D01*
X21516Y365654D01*
X21593Y365682D01*
X21671Y365706D01*
X21751Y365727D01*
X21831Y365744D01*
X21912Y365757D01*
X21994Y365766D01*
X22076Y365772D01*
X22158Y365774D01*
X20380Y363996D02*
X20382Y363903D01*
X20388Y363811D01*
X20397Y363719D01*
X20410Y363627D01*
X20427Y363536D01*
X20447Y363446D01*
X20471Y363356D01*
X20499Y363268D01*
X20531Y363180D01*
X20565Y363095D01*
X20604Y363010D01*
X20645Y362928D01*
X20690Y362847D01*
X20739Y362767D01*
X20790Y362690D01*
X20844Y362615D01*
X20902Y362543D01*
X20962Y362472D01*
X21026Y362405D01*
X21091Y362340D01*
X21160Y362277D01*
X21231Y362218D01*
X21304Y362161D01*
X21380Y362107D01*
X21457Y362057D01*
X21537Y362009D01*
X21619Y361965D01*
X21702Y361925D01*
X21787Y361887D01*
X21873Y361853D01*
X21960Y361823D01*
X23541Y365182D02*
X23480Y365243D01*
X23417Y365301D01*
X23351Y365356D01*
X23283Y365409D01*
X23212Y365458D01*
X23140Y365503D01*
X23065Y365546D01*
X22989Y365585D01*
X22910Y365621D01*
X22831Y365653D01*
X22750Y365681D01*
X22667Y365706D01*
X22584Y365727D01*
X22500Y365744D01*
X22415Y365758D01*
X22330Y365767D01*
X22244Y365773D01*
X22158Y365775D01*
X23541Y365182D02*
X27492Y361823D01*
X27492Y365774D01*
X20380Y331484D02*
X21960Y329508D01*
X20380Y331484D02*
X27492Y331484D01*
X27492Y333459D02*
X27492Y329508D01*
X27492Y336823D02*
X27492Y338799D01*
X27490Y338886D01*
X27484Y338974D01*
X27475Y339061D01*
X27461Y339147D01*
X27444Y339233D01*
X27423Y339317D01*
X27398Y339401D01*
X27369Y339484D01*
X27337Y339565D01*
X27302Y339645D01*
X27263Y339723D01*
X27220Y339800D01*
X27174Y339874D01*
X27125Y339946D01*
X27073Y340016D01*
X27017Y340084D01*
X26959Y340149D01*
X26898Y340212D01*
X26834Y340271D01*
X26767Y340328D01*
X26699Y340382D01*
X26627Y340433D01*
X26554Y340480D01*
X26479Y340525D01*
X26401Y340566D01*
X26322Y340603D01*
X26242Y340637D01*
X26160Y340667D01*
X26077Y340694D01*
X25992Y340717D01*
X25907Y340736D01*
X25821Y340751D01*
X25734Y340763D01*
X25647Y340771D01*
X25560Y340775D01*
X25472Y340775D01*
X25385Y340771D01*
X25298Y340763D01*
X25211Y340751D01*
X25125Y340736D01*
X25040Y340717D01*
X24955Y340694D01*
X24872Y340667D01*
X24790Y340637D01*
X24710Y340603D01*
X24631Y340566D01*
X24553Y340525D01*
X24478Y340480D01*
X24405Y340433D01*
X24333Y340382D01*
X24265Y340328D01*
X24198Y340271D01*
X24134Y340212D01*
X24073Y340149D01*
X24015Y340084D01*
X23959Y340016D01*
X23907Y339946D01*
X23858Y339874D01*
X23812Y339800D01*
X23769Y339723D01*
X23730Y339645D01*
X23695Y339565D01*
X23663Y339484D01*
X23634Y339401D01*
X23609Y339317D01*
X23588Y339233D01*
X23571Y339147D01*
X23557Y339061D01*
X23548Y338974D01*
X23542Y338886D01*
X23540Y338799D01*
X20380Y339194D02*
X20380Y336823D01*
X20380Y339194D02*
X20382Y339273D01*
X20388Y339351D01*
X20398Y339429D01*
X20411Y339507D01*
X20429Y339584D01*
X20450Y339660D01*
X20475Y339734D01*
X20504Y339808D01*
X20536Y339880D01*
X20572Y339950D01*
X20612Y340018D01*
X20655Y340084D01*
X20701Y340148D01*
X20750Y340210D01*
X20802Y340269D01*
X20857Y340325D01*
X20915Y340379D01*
X20975Y340429D01*
X21038Y340477D01*
X21103Y340521D01*
X21170Y340562D01*
X21239Y340600D01*
X21310Y340634D01*
X21383Y340665D01*
X21457Y340692D01*
X21532Y340715D01*
X21608Y340734D01*
X21686Y340750D01*
X21764Y340762D01*
X21842Y340770D01*
X21921Y340774D01*
X21999Y340774D01*
X22078Y340770D01*
X22156Y340762D01*
X22234Y340750D01*
X22312Y340734D01*
X22388Y340715D01*
X22463Y340692D01*
X22537Y340665D01*
X22610Y340634D01*
X22681Y340600D01*
X22750Y340562D01*
X22817Y340521D01*
X22882Y340477D01*
X22945Y340429D01*
X23005Y340379D01*
X23063Y340325D01*
X23118Y340269D01*
X23170Y340210D01*
X23219Y340148D01*
X23265Y340084D01*
X23308Y340018D01*
X23348Y339950D01*
X23384Y339880D01*
X23416Y339808D01*
X23445Y339734D01*
X23470Y339660D01*
X23491Y339584D01*
X23509Y339507D01*
X23522Y339429D01*
X23532Y339351D01*
X23538Y339273D01*
X23540Y339194D01*
X23541Y339194D02*
X23541Y337613D01*
X56879Y268620D02*
X56879Y263088D01*
X56878Y263088D02*
X56876Y263010D01*
X56870Y262933D01*
X56861Y262856D01*
X56848Y262780D01*
X56831Y262704D01*
X56810Y262629D01*
X56786Y262556D01*
X56758Y262483D01*
X56726Y262412D01*
X56691Y262343D01*
X56653Y262276D01*
X56612Y262210D01*
X56567Y262147D01*
X56519Y262086D01*
X56469Y262027D01*
X56415Y261971D01*
X56359Y261917D01*
X56300Y261867D01*
X56239Y261819D01*
X56176Y261774D01*
X56110Y261733D01*
X56043Y261695D01*
X55974Y261660D01*
X55903Y261628D01*
X55830Y261600D01*
X55757Y261576D01*
X55682Y261555D01*
X55606Y261538D01*
X55530Y261525D01*
X55453Y261516D01*
X55376Y261510D01*
X55298Y261508D01*
X54508Y261508D01*
X61936Y261508D02*
X61936Y268620D01*
X59961Y268620D02*
X63912Y268620D01*
X68764Y268620D02*
X66393Y261508D01*
X71135Y261508D02*
X68764Y268620D01*
X70542Y263286D02*
X66986Y263286D01*
X77113Y265459D02*
X78298Y265459D01*
X78298Y261508D01*
X75928Y261508D01*
X75850Y261510D01*
X75773Y261516D01*
X75696Y261525D01*
X75620Y261538D01*
X75544Y261555D01*
X75469Y261576D01*
X75396Y261600D01*
X75323Y261628D01*
X75252Y261660D01*
X75183Y261695D01*
X75116Y261733D01*
X75050Y261774D01*
X74987Y261819D01*
X74926Y261867D01*
X74867Y261917D01*
X74811Y261971D01*
X74757Y262027D01*
X74707Y262086D01*
X74659Y262147D01*
X74614Y262210D01*
X74573Y262276D01*
X74535Y262343D01*
X74500Y262412D01*
X74468Y262483D01*
X74440Y262556D01*
X74416Y262629D01*
X74395Y262704D01*
X74378Y262780D01*
X74365Y262856D01*
X74356Y262933D01*
X74350Y263010D01*
X74348Y263088D01*
X74347Y263088D02*
X74347Y267040D01*
X74348Y267040D02*
X74350Y267118D01*
X74356Y267195D01*
X74365Y267272D01*
X74378Y267348D01*
X74395Y267424D01*
X74416Y267499D01*
X74440Y267572D01*
X74468Y267645D01*
X74500Y267716D01*
X74535Y267785D01*
X74573Y267852D01*
X74614Y267918D01*
X74659Y267981D01*
X74707Y268042D01*
X74757Y268101D01*
X74811Y268157D01*
X74867Y268211D01*
X74926Y268261D01*
X74987Y268309D01*
X75050Y268354D01*
X75116Y268395D01*
X75183Y268433D01*
X75252Y268468D01*
X75323Y268500D01*
X75396Y268528D01*
X75469Y268552D01*
X75544Y268573D01*
X75620Y268590D01*
X75696Y268603D01*
X75773Y268612D01*
X75850Y268618D01*
X75928Y268620D01*
X78298Y268620D01*
D11*
X36222Y256778D02*
X35432Y256778D01*
X35432Y257568D01*
X36222Y257568D01*
X36222Y256778D01*
D12*
X184700Y193294D02*
X184700Y184706D01*
X159300Y184706D02*
X159300Y193294D01*
X169316Y196088D02*
X174684Y196088D01*
D13*
X155998Y178840D03*
D14*
X169500Y4000D02*
X214500Y4000D01*
X152000Y39000D02*
X152000Y79000D01*
X160500Y79000D01*
X160500Y54000D01*
X174500Y54000D01*
X209500Y54000D02*
X223500Y54000D01*
X223500Y79000D01*
X232000Y79000D01*
X232000Y39000D01*
D15*
X168251Y86465D02*
X159954Y86465D01*
X164102Y82316D02*
X164102Y90614D01*
X217104Y86465D02*
X225401Y86465D01*
D12*
X214000Y222620D02*
X214000Y249380D01*
X186000Y249380D02*
X186000Y222620D01*
X198700Y215000D02*
X201300Y215000D01*
X201300Y257000D02*
X198700Y257000D01*
D14*
X191950Y236000D02*
X191952Y236198D01*
X191960Y236395D01*
X191972Y236592D01*
X191989Y236789D01*
X192011Y236985D01*
X192037Y237181D01*
X192069Y237376D01*
X192105Y237570D01*
X192146Y237764D01*
X192191Y237956D01*
X192242Y238147D01*
X192297Y238337D01*
X192356Y238525D01*
X192421Y238712D01*
X192489Y238897D01*
X192563Y239081D01*
X192641Y239262D01*
X192723Y239442D01*
X192810Y239619D01*
X192901Y239795D01*
X192996Y239968D01*
X193095Y240139D01*
X193199Y240307D01*
X193307Y240472D01*
X193418Y240635D01*
X193534Y240795D01*
X193654Y240953D01*
X193777Y241107D01*
X193904Y241258D01*
X194035Y241406D01*
X194170Y241551D01*
X194308Y241692D01*
X194449Y241830D01*
X194594Y241965D01*
X194742Y242096D01*
X194893Y242223D01*
X195047Y242346D01*
X195205Y242466D01*
X195365Y242582D01*
X195528Y242693D01*
X195693Y242801D01*
X195861Y242905D01*
X196032Y243004D01*
X196205Y243099D01*
X196381Y243190D01*
X196558Y243277D01*
X196738Y243359D01*
X196919Y243437D01*
X197103Y243511D01*
X197288Y243579D01*
X197475Y243644D01*
X197663Y243703D01*
X197853Y243758D01*
X198044Y243809D01*
X198236Y243854D01*
X198430Y243895D01*
X198624Y243931D01*
X198819Y243963D01*
X199015Y243989D01*
X199211Y244011D01*
X199408Y244028D01*
X199605Y244040D01*
X199802Y244048D01*
X200000Y244050D01*
X200198Y244048D01*
X200395Y244040D01*
X200592Y244028D01*
X200789Y244011D01*
X200985Y243989D01*
X201181Y243963D01*
X201376Y243931D01*
X201570Y243895D01*
X201764Y243854D01*
X201956Y243809D01*
X202147Y243758D01*
X202337Y243703D01*
X202525Y243644D01*
X202712Y243579D01*
X202897Y243511D01*
X203081Y243437D01*
X203262Y243359D01*
X203442Y243277D01*
X203619Y243190D01*
X203795Y243099D01*
X203968Y243004D01*
X204139Y242905D01*
X204307Y242801D01*
X204472Y242693D01*
X204635Y242582D01*
X204795Y242466D01*
X204953Y242346D01*
X205107Y242223D01*
X205258Y242096D01*
X205406Y241965D01*
X205551Y241830D01*
X205692Y241692D01*
X205830Y241551D01*
X205965Y241406D01*
X206096Y241258D01*
X206223Y241107D01*
X206346Y240953D01*
X206466Y240795D01*
X206582Y240635D01*
X206693Y240472D01*
X206801Y240307D01*
X206905Y240139D01*
X207004Y239968D01*
X207099Y239795D01*
X207190Y239619D01*
X207277Y239442D01*
X207359Y239262D01*
X207437Y239081D01*
X207511Y238897D01*
X207579Y238712D01*
X207644Y238525D01*
X207703Y238337D01*
X207758Y238147D01*
X207809Y237956D01*
X207854Y237764D01*
X207895Y237570D01*
X207931Y237376D01*
X207963Y237181D01*
X207989Y236985D01*
X208011Y236789D01*
X208028Y236592D01*
X208040Y236395D01*
X208048Y236198D01*
X208050Y236000D01*
X208048Y235802D01*
X208040Y235605D01*
X208028Y235408D01*
X208011Y235211D01*
X207989Y235015D01*
X207963Y234819D01*
X207931Y234624D01*
X207895Y234430D01*
X207854Y234236D01*
X207809Y234044D01*
X207758Y233853D01*
X207703Y233663D01*
X207644Y233475D01*
X207579Y233288D01*
X207511Y233103D01*
X207437Y232919D01*
X207359Y232738D01*
X207277Y232558D01*
X207190Y232381D01*
X207099Y232205D01*
X207004Y232032D01*
X206905Y231861D01*
X206801Y231693D01*
X206693Y231528D01*
X206582Y231365D01*
X206466Y231205D01*
X206346Y231047D01*
X206223Y230893D01*
X206096Y230742D01*
X205965Y230594D01*
X205830Y230449D01*
X205692Y230308D01*
X205551Y230170D01*
X205406Y230035D01*
X205258Y229904D01*
X205107Y229777D01*
X204953Y229654D01*
X204795Y229534D01*
X204635Y229418D01*
X204472Y229307D01*
X204307Y229199D01*
X204139Y229095D01*
X203968Y228996D01*
X203795Y228901D01*
X203619Y228810D01*
X203442Y228723D01*
X203262Y228641D01*
X203081Y228563D01*
X202897Y228489D01*
X202712Y228421D01*
X202525Y228356D01*
X202337Y228297D01*
X202147Y228242D01*
X201956Y228191D01*
X201764Y228146D01*
X201570Y228105D01*
X201376Y228069D01*
X201181Y228037D01*
X200985Y228011D01*
X200789Y227989D01*
X200592Y227972D01*
X200395Y227960D01*
X200198Y227952D01*
X200000Y227950D01*
X199802Y227952D01*
X199605Y227960D01*
X199408Y227972D01*
X199211Y227989D01*
X199015Y228011D01*
X198819Y228037D01*
X198624Y228069D01*
X198430Y228105D01*
X198236Y228146D01*
X198044Y228191D01*
X197853Y228242D01*
X197663Y228297D01*
X197475Y228356D01*
X197288Y228421D01*
X197103Y228489D01*
X196919Y228563D01*
X196738Y228641D01*
X196558Y228723D01*
X196381Y228810D01*
X196205Y228901D01*
X196032Y228996D01*
X195861Y229095D01*
X195693Y229199D01*
X195528Y229307D01*
X195365Y229418D01*
X195205Y229534D01*
X195047Y229654D01*
X194893Y229777D01*
X194742Y229904D01*
X194594Y230035D01*
X194449Y230170D01*
X194308Y230308D01*
X194170Y230449D01*
X194035Y230594D01*
X193904Y230742D01*
X193777Y230893D01*
X193654Y231047D01*
X193534Y231205D01*
X193418Y231365D01*
X193307Y231528D01*
X193199Y231693D01*
X193095Y231861D01*
X192996Y232032D01*
X192901Y232205D01*
X192810Y232381D01*
X192723Y232558D01*
X192641Y232738D01*
X192563Y232919D01*
X192489Y233103D01*
X192421Y233288D01*
X192356Y233475D01*
X192297Y233663D01*
X192242Y233853D01*
X192191Y234044D01*
X192146Y234236D01*
X192105Y234430D01*
X192069Y234624D01*
X192037Y234819D01*
X192011Y235015D01*
X191989Y235211D01*
X191972Y235408D01*
X191960Y235605D01*
X191952Y235802D01*
X191950Y236000D01*
D16*
X190244Y269303D02*
X188409Y269303D01*
X190244Y269302D02*
X190329Y269300D01*
X190413Y269294D01*
X190497Y269284D01*
X190581Y269271D01*
X190664Y269253D01*
X190746Y269232D01*
X190827Y269207D01*
X190907Y269178D01*
X190985Y269146D01*
X191061Y269110D01*
X191136Y269070D01*
X191209Y269027D01*
X191280Y268981D01*
X191349Y268932D01*
X191416Y268879D01*
X191480Y268823D01*
X191541Y268765D01*
X191599Y268704D01*
X191655Y268640D01*
X191708Y268573D01*
X191757Y268504D01*
X191803Y268433D01*
X191846Y268360D01*
X191886Y268285D01*
X191922Y268209D01*
X191954Y268131D01*
X191983Y268051D01*
X192008Y267970D01*
X192029Y267888D01*
X192047Y267805D01*
X192060Y267721D01*
X192070Y267637D01*
X192076Y267553D01*
X192078Y267468D01*
X192076Y267383D01*
X192070Y267299D01*
X192060Y267215D01*
X192047Y267131D01*
X192029Y267048D01*
X192008Y266966D01*
X191983Y266885D01*
X191954Y266805D01*
X191922Y266727D01*
X191886Y266651D01*
X191846Y266576D01*
X191803Y266503D01*
X191757Y266432D01*
X191708Y266363D01*
X191655Y266296D01*
X191599Y266232D01*
X191541Y266171D01*
X191480Y266113D01*
X191416Y266057D01*
X191349Y266004D01*
X191280Y265955D01*
X191209Y265909D01*
X191136Y265866D01*
X191061Y265826D01*
X190985Y265790D01*
X190907Y265758D01*
X190827Y265729D01*
X190746Y265704D01*
X190664Y265683D01*
X190581Y265665D01*
X190497Y265652D01*
X190413Y265642D01*
X190329Y265636D01*
X190244Y265634D01*
X188409Y265634D01*
X188409Y272238D01*
X190244Y272238D01*
X190320Y272236D01*
X190395Y272230D01*
X190470Y272221D01*
X190544Y272207D01*
X190618Y272190D01*
X190690Y272168D01*
X190762Y272144D01*
X190832Y272115D01*
X190900Y272083D01*
X190967Y272048D01*
X191032Y272009D01*
X191095Y271966D01*
X191155Y271921D01*
X191213Y271873D01*
X191269Y271821D01*
X191321Y271767D01*
X191371Y271710D01*
X191418Y271651D01*
X191462Y271590D01*
X191503Y271526D01*
X191540Y271460D01*
X191574Y271392D01*
X191604Y271323D01*
X191631Y271252D01*
X191654Y271180D01*
X191673Y271107D01*
X191688Y271033D01*
X191700Y270958D01*
X191708Y270883D01*
X191712Y270808D01*
X191712Y270732D01*
X191708Y270657D01*
X191700Y270582D01*
X191688Y270507D01*
X191673Y270433D01*
X191654Y270360D01*
X191631Y270288D01*
X191604Y270217D01*
X191574Y270148D01*
X191540Y270080D01*
X191503Y270014D01*
X191462Y269950D01*
X191418Y269889D01*
X191371Y269830D01*
X191321Y269773D01*
X191269Y269719D01*
X191213Y269667D01*
X191155Y269619D01*
X191095Y269574D01*
X191032Y269531D01*
X190967Y269492D01*
X190900Y269457D01*
X190832Y269425D01*
X190762Y269396D01*
X190690Y269372D01*
X190618Y269350D01*
X190544Y269333D01*
X190470Y269319D01*
X190395Y269310D01*
X190320Y269304D01*
X190244Y269302D01*
X196646Y272238D02*
X196646Y265634D01*
X194812Y272238D02*
X198480Y272238D01*
X201883Y272238D02*
X201883Y265634D01*
X205552Y265634D02*
X201883Y272238D01*
X205552Y272238D02*
X205552Y265634D01*
X209442Y270770D02*
X211276Y272238D01*
X211276Y265634D01*
X209442Y265634D02*
X213111Y265634D01*
D12*
X176000Y249380D02*
X176000Y222620D01*
X148000Y222620D02*
X148000Y249380D01*
X160700Y215000D02*
X163300Y215000D01*
X163300Y257000D02*
X160700Y257000D01*
D14*
X153950Y236000D02*
X153952Y236198D01*
X153960Y236395D01*
X153972Y236592D01*
X153989Y236789D01*
X154011Y236985D01*
X154037Y237181D01*
X154069Y237376D01*
X154105Y237570D01*
X154146Y237764D01*
X154191Y237956D01*
X154242Y238147D01*
X154297Y238337D01*
X154356Y238525D01*
X154421Y238712D01*
X154489Y238897D01*
X154563Y239081D01*
X154641Y239262D01*
X154723Y239442D01*
X154810Y239619D01*
X154901Y239795D01*
X154996Y239968D01*
X155095Y240139D01*
X155199Y240307D01*
X155307Y240472D01*
X155418Y240635D01*
X155534Y240795D01*
X155654Y240953D01*
X155777Y241107D01*
X155904Y241258D01*
X156035Y241406D01*
X156170Y241551D01*
X156308Y241692D01*
X156449Y241830D01*
X156594Y241965D01*
X156742Y242096D01*
X156893Y242223D01*
X157047Y242346D01*
X157205Y242466D01*
X157365Y242582D01*
X157528Y242693D01*
X157693Y242801D01*
X157861Y242905D01*
X158032Y243004D01*
X158205Y243099D01*
X158381Y243190D01*
X158558Y243277D01*
X158738Y243359D01*
X158919Y243437D01*
X159103Y243511D01*
X159288Y243579D01*
X159475Y243644D01*
X159663Y243703D01*
X159853Y243758D01*
X160044Y243809D01*
X160236Y243854D01*
X160430Y243895D01*
X160624Y243931D01*
X160819Y243963D01*
X161015Y243989D01*
X161211Y244011D01*
X161408Y244028D01*
X161605Y244040D01*
X161802Y244048D01*
X162000Y244050D01*
X162198Y244048D01*
X162395Y244040D01*
X162592Y244028D01*
X162789Y244011D01*
X162985Y243989D01*
X163181Y243963D01*
X163376Y243931D01*
X163570Y243895D01*
X163764Y243854D01*
X163956Y243809D01*
X164147Y243758D01*
X164337Y243703D01*
X164525Y243644D01*
X164712Y243579D01*
X164897Y243511D01*
X165081Y243437D01*
X165262Y243359D01*
X165442Y243277D01*
X165619Y243190D01*
X165795Y243099D01*
X165968Y243004D01*
X166139Y242905D01*
X166307Y242801D01*
X166472Y242693D01*
X166635Y242582D01*
X166795Y242466D01*
X166953Y242346D01*
X167107Y242223D01*
X167258Y242096D01*
X167406Y241965D01*
X167551Y241830D01*
X167692Y241692D01*
X167830Y241551D01*
X167965Y241406D01*
X168096Y241258D01*
X168223Y241107D01*
X168346Y240953D01*
X168466Y240795D01*
X168582Y240635D01*
X168693Y240472D01*
X168801Y240307D01*
X168905Y240139D01*
X169004Y239968D01*
X169099Y239795D01*
X169190Y239619D01*
X169277Y239442D01*
X169359Y239262D01*
X169437Y239081D01*
X169511Y238897D01*
X169579Y238712D01*
X169644Y238525D01*
X169703Y238337D01*
X169758Y238147D01*
X169809Y237956D01*
X169854Y237764D01*
X169895Y237570D01*
X169931Y237376D01*
X169963Y237181D01*
X169989Y236985D01*
X170011Y236789D01*
X170028Y236592D01*
X170040Y236395D01*
X170048Y236198D01*
X170050Y236000D01*
X170048Y235802D01*
X170040Y235605D01*
X170028Y235408D01*
X170011Y235211D01*
X169989Y235015D01*
X169963Y234819D01*
X169931Y234624D01*
X169895Y234430D01*
X169854Y234236D01*
X169809Y234044D01*
X169758Y233853D01*
X169703Y233663D01*
X169644Y233475D01*
X169579Y233288D01*
X169511Y233103D01*
X169437Y232919D01*
X169359Y232738D01*
X169277Y232558D01*
X169190Y232381D01*
X169099Y232205D01*
X169004Y232032D01*
X168905Y231861D01*
X168801Y231693D01*
X168693Y231528D01*
X168582Y231365D01*
X168466Y231205D01*
X168346Y231047D01*
X168223Y230893D01*
X168096Y230742D01*
X167965Y230594D01*
X167830Y230449D01*
X167692Y230308D01*
X167551Y230170D01*
X167406Y230035D01*
X167258Y229904D01*
X167107Y229777D01*
X166953Y229654D01*
X166795Y229534D01*
X166635Y229418D01*
X166472Y229307D01*
X166307Y229199D01*
X166139Y229095D01*
X165968Y228996D01*
X165795Y228901D01*
X165619Y228810D01*
X165442Y228723D01*
X165262Y228641D01*
X165081Y228563D01*
X164897Y228489D01*
X164712Y228421D01*
X164525Y228356D01*
X164337Y228297D01*
X164147Y228242D01*
X163956Y228191D01*
X163764Y228146D01*
X163570Y228105D01*
X163376Y228069D01*
X163181Y228037D01*
X162985Y228011D01*
X162789Y227989D01*
X162592Y227972D01*
X162395Y227960D01*
X162198Y227952D01*
X162000Y227950D01*
X161802Y227952D01*
X161605Y227960D01*
X161408Y227972D01*
X161211Y227989D01*
X161015Y228011D01*
X160819Y228037D01*
X160624Y228069D01*
X160430Y228105D01*
X160236Y228146D01*
X160044Y228191D01*
X159853Y228242D01*
X159663Y228297D01*
X159475Y228356D01*
X159288Y228421D01*
X159103Y228489D01*
X158919Y228563D01*
X158738Y228641D01*
X158558Y228723D01*
X158381Y228810D01*
X158205Y228901D01*
X158032Y228996D01*
X157861Y229095D01*
X157693Y229199D01*
X157528Y229307D01*
X157365Y229418D01*
X157205Y229534D01*
X157047Y229654D01*
X156893Y229777D01*
X156742Y229904D01*
X156594Y230035D01*
X156449Y230170D01*
X156308Y230308D01*
X156170Y230449D01*
X156035Y230594D01*
X155904Y230742D01*
X155777Y230893D01*
X155654Y231047D01*
X155534Y231205D01*
X155418Y231365D01*
X155307Y231528D01*
X155199Y231693D01*
X155095Y231861D01*
X154996Y232032D01*
X154901Y232205D01*
X154810Y232381D01*
X154723Y232558D01*
X154641Y232738D01*
X154563Y232919D01*
X154489Y233103D01*
X154421Y233288D01*
X154356Y233475D01*
X154297Y233663D01*
X154242Y233853D01*
X154191Y234044D01*
X154146Y234236D01*
X154105Y234430D01*
X154069Y234624D01*
X154037Y234819D01*
X154011Y235015D01*
X153989Y235211D01*
X153972Y235408D01*
X153960Y235605D01*
X153952Y235802D01*
X153950Y236000D01*
D16*
X151244Y269303D02*
X149409Y269303D01*
X151244Y269302D02*
X151329Y269300D01*
X151413Y269294D01*
X151497Y269284D01*
X151581Y269271D01*
X151664Y269253D01*
X151746Y269232D01*
X151827Y269207D01*
X151907Y269178D01*
X151985Y269146D01*
X152061Y269110D01*
X152136Y269070D01*
X152209Y269027D01*
X152280Y268981D01*
X152349Y268932D01*
X152416Y268879D01*
X152480Y268823D01*
X152541Y268765D01*
X152599Y268704D01*
X152655Y268640D01*
X152708Y268573D01*
X152757Y268504D01*
X152803Y268433D01*
X152846Y268360D01*
X152886Y268285D01*
X152922Y268209D01*
X152954Y268131D01*
X152983Y268051D01*
X153008Y267970D01*
X153029Y267888D01*
X153047Y267805D01*
X153060Y267721D01*
X153070Y267637D01*
X153076Y267553D01*
X153078Y267468D01*
X153076Y267383D01*
X153070Y267299D01*
X153060Y267215D01*
X153047Y267131D01*
X153029Y267048D01*
X153008Y266966D01*
X152983Y266885D01*
X152954Y266805D01*
X152922Y266727D01*
X152886Y266651D01*
X152846Y266576D01*
X152803Y266503D01*
X152757Y266432D01*
X152708Y266363D01*
X152655Y266296D01*
X152599Y266232D01*
X152541Y266171D01*
X152480Y266113D01*
X152416Y266057D01*
X152349Y266004D01*
X152280Y265955D01*
X152209Y265909D01*
X152136Y265866D01*
X152061Y265826D01*
X151985Y265790D01*
X151907Y265758D01*
X151827Y265729D01*
X151746Y265704D01*
X151664Y265683D01*
X151581Y265665D01*
X151497Y265652D01*
X151413Y265642D01*
X151329Y265636D01*
X151244Y265634D01*
X149409Y265634D01*
X149409Y272238D01*
X151244Y272238D01*
X151320Y272236D01*
X151395Y272230D01*
X151470Y272221D01*
X151544Y272207D01*
X151618Y272190D01*
X151690Y272168D01*
X151762Y272144D01*
X151832Y272115D01*
X151900Y272083D01*
X151967Y272048D01*
X152032Y272009D01*
X152095Y271966D01*
X152155Y271921D01*
X152213Y271873D01*
X152269Y271821D01*
X152321Y271767D01*
X152371Y271710D01*
X152418Y271651D01*
X152462Y271590D01*
X152503Y271526D01*
X152540Y271460D01*
X152574Y271392D01*
X152604Y271323D01*
X152631Y271252D01*
X152654Y271180D01*
X152673Y271107D01*
X152688Y271033D01*
X152700Y270958D01*
X152708Y270883D01*
X152712Y270808D01*
X152712Y270732D01*
X152708Y270657D01*
X152700Y270582D01*
X152688Y270507D01*
X152673Y270433D01*
X152654Y270360D01*
X152631Y270288D01*
X152604Y270217D01*
X152574Y270148D01*
X152540Y270080D01*
X152503Y270014D01*
X152462Y269950D01*
X152418Y269889D01*
X152371Y269830D01*
X152321Y269773D01*
X152269Y269719D01*
X152213Y269667D01*
X152155Y269619D01*
X152095Y269574D01*
X152032Y269531D01*
X151967Y269492D01*
X151900Y269457D01*
X151832Y269425D01*
X151762Y269396D01*
X151690Y269372D01*
X151618Y269350D01*
X151544Y269333D01*
X151470Y269319D01*
X151395Y269310D01*
X151320Y269304D01*
X151244Y269302D01*
X157646Y272238D02*
X157646Y265634D01*
X155812Y272238D02*
X159480Y272238D01*
X162883Y272238D02*
X162883Y265634D01*
X166552Y265634D02*
X162883Y272238D01*
X166552Y272238D02*
X166552Y265634D01*
X172460Y272238D02*
X172539Y272236D01*
X172617Y272231D01*
X172695Y272221D01*
X172772Y272208D01*
X172849Y272191D01*
X172925Y272171D01*
X173000Y272147D01*
X173074Y272120D01*
X173146Y272089D01*
X173217Y272054D01*
X173286Y272017D01*
X173353Y271976D01*
X173418Y271932D01*
X173481Y271885D01*
X173541Y271835D01*
X173599Y271782D01*
X173655Y271726D01*
X173708Y271668D01*
X173758Y271608D01*
X173805Y271545D01*
X173849Y271480D01*
X173890Y271413D01*
X173927Y271344D01*
X173962Y271273D01*
X173993Y271201D01*
X174020Y271127D01*
X174044Y271052D01*
X174064Y270976D01*
X174081Y270899D01*
X174094Y270822D01*
X174104Y270744D01*
X174109Y270666D01*
X174111Y270587D01*
X172460Y272238D02*
X172371Y272236D01*
X172282Y272231D01*
X172194Y272221D01*
X172106Y272208D01*
X172019Y272192D01*
X171932Y272171D01*
X171847Y272147D01*
X171762Y272120D01*
X171679Y272089D01*
X171597Y272054D01*
X171516Y272016D01*
X171437Y271975D01*
X171361Y271931D01*
X171285Y271883D01*
X171212Y271832D01*
X171142Y271779D01*
X171073Y271722D01*
X171007Y271662D01*
X170944Y271600D01*
X170883Y271535D01*
X170825Y271468D01*
X170770Y271398D01*
X170717Y271326D01*
X170668Y271252D01*
X170622Y271176D01*
X170580Y271098D01*
X170540Y271018D01*
X170504Y270937D01*
X170471Y270854D01*
X170442Y270770D01*
X173561Y269303D02*
X173617Y269359D01*
X173671Y269418D01*
X173722Y269479D01*
X173771Y269543D01*
X173816Y269608D01*
X173859Y269676D01*
X173898Y269745D01*
X173935Y269816D01*
X173968Y269889D01*
X173997Y269963D01*
X174024Y270038D01*
X174047Y270114D01*
X174066Y270192D01*
X174082Y270270D01*
X174095Y270348D01*
X174104Y270428D01*
X174109Y270507D01*
X174111Y270587D01*
X173561Y269303D02*
X170442Y265634D01*
X174111Y265634D01*
D14*
X4125Y509238D02*
X4125Y518763D01*
X246875Y518763D02*
X246875Y509238D01*
D10*
X208004Y201508D02*
X206423Y201508D01*
X206345Y201510D01*
X206268Y201516D01*
X206191Y201525D01*
X206115Y201538D01*
X206039Y201555D01*
X205964Y201576D01*
X205891Y201600D01*
X205818Y201628D01*
X205747Y201660D01*
X205678Y201695D01*
X205611Y201733D01*
X205545Y201774D01*
X205482Y201819D01*
X205421Y201867D01*
X205362Y201917D01*
X205306Y201971D01*
X205252Y202027D01*
X205202Y202086D01*
X205154Y202147D01*
X205109Y202210D01*
X205068Y202276D01*
X205030Y202343D01*
X204995Y202412D01*
X204963Y202483D01*
X204935Y202556D01*
X204911Y202629D01*
X204890Y202704D01*
X204873Y202780D01*
X204860Y202856D01*
X204851Y202933D01*
X204845Y203010D01*
X204843Y203088D01*
X204843Y207040D01*
X204845Y207118D01*
X204851Y207195D01*
X204860Y207272D01*
X204873Y207348D01*
X204890Y207424D01*
X204911Y207499D01*
X204935Y207572D01*
X204963Y207645D01*
X204995Y207716D01*
X205030Y207785D01*
X205068Y207852D01*
X205109Y207918D01*
X205154Y207981D01*
X205202Y208042D01*
X205252Y208101D01*
X205306Y208157D01*
X205362Y208211D01*
X205421Y208261D01*
X205482Y208309D01*
X205545Y208354D01*
X205611Y208395D01*
X205678Y208433D01*
X205747Y208468D01*
X205818Y208500D01*
X205891Y208528D01*
X205964Y208552D01*
X206039Y208573D01*
X206115Y208590D01*
X206191Y208603D01*
X206268Y208612D01*
X206345Y208618D01*
X206423Y208620D01*
X208004Y208620D01*
X210966Y207040D02*
X212942Y208620D01*
X212942Y201508D01*
X214917Y201508D02*
X210966Y201508D01*
D12*
X110000Y223620D02*
X110000Y250380D01*
X138000Y250380D02*
X138000Y223620D01*
X125300Y258000D02*
X122700Y258000D01*
X122700Y216000D02*
X125300Y216000D01*
D14*
X115950Y237000D02*
X115952Y237198D01*
X115960Y237395D01*
X115972Y237592D01*
X115989Y237789D01*
X116011Y237985D01*
X116037Y238181D01*
X116069Y238376D01*
X116105Y238570D01*
X116146Y238764D01*
X116191Y238956D01*
X116242Y239147D01*
X116297Y239337D01*
X116356Y239525D01*
X116421Y239712D01*
X116489Y239897D01*
X116563Y240081D01*
X116641Y240262D01*
X116723Y240442D01*
X116810Y240619D01*
X116901Y240795D01*
X116996Y240968D01*
X117095Y241139D01*
X117199Y241307D01*
X117307Y241472D01*
X117418Y241635D01*
X117534Y241795D01*
X117654Y241953D01*
X117777Y242107D01*
X117904Y242258D01*
X118035Y242406D01*
X118170Y242551D01*
X118308Y242692D01*
X118449Y242830D01*
X118594Y242965D01*
X118742Y243096D01*
X118893Y243223D01*
X119047Y243346D01*
X119205Y243466D01*
X119365Y243582D01*
X119528Y243693D01*
X119693Y243801D01*
X119861Y243905D01*
X120032Y244004D01*
X120205Y244099D01*
X120381Y244190D01*
X120558Y244277D01*
X120738Y244359D01*
X120919Y244437D01*
X121103Y244511D01*
X121288Y244579D01*
X121475Y244644D01*
X121663Y244703D01*
X121853Y244758D01*
X122044Y244809D01*
X122236Y244854D01*
X122430Y244895D01*
X122624Y244931D01*
X122819Y244963D01*
X123015Y244989D01*
X123211Y245011D01*
X123408Y245028D01*
X123605Y245040D01*
X123802Y245048D01*
X124000Y245050D01*
X124198Y245048D01*
X124395Y245040D01*
X124592Y245028D01*
X124789Y245011D01*
X124985Y244989D01*
X125181Y244963D01*
X125376Y244931D01*
X125570Y244895D01*
X125764Y244854D01*
X125956Y244809D01*
X126147Y244758D01*
X126337Y244703D01*
X126525Y244644D01*
X126712Y244579D01*
X126897Y244511D01*
X127081Y244437D01*
X127262Y244359D01*
X127442Y244277D01*
X127619Y244190D01*
X127795Y244099D01*
X127968Y244004D01*
X128139Y243905D01*
X128307Y243801D01*
X128472Y243693D01*
X128635Y243582D01*
X128795Y243466D01*
X128953Y243346D01*
X129107Y243223D01*
X129258Y243096D01*
X129406Y242965D01*
X129551Y242830D01*
X129692Y242692D01*
X129830Y242551D01*
X129965Y242406D01*
X130096Y242258D01*
X130223Y242107D01*
X130346Y241953D01*
X130466Y241795D01*
X130582Y241635D01*
X130693Y241472D01*
X130801Y241307D01*
X130905Y241139D01*
X131004Y240968D01*
X131099Y240795D01*
X131190Y240619D01*
X131277Y240442D01*
X131359Y240262D01*
X131437Y240081D01*
X131511Y239897D01*
X131579Y239712D01*
X131644Y239525D01*
X131703Y239337D01*
X131758Y239147D01*
X131809Y238956D01*
X131854Y238764D01*
X131895Y238570D01*
X131931Y238376D01*
X131963Y238181D01*
X131989Y237985D01*
X132011Y237789D01*
X132028Y237592D01*
X132040Y237395D01*
X132048Y237198D01*
X132050Y237000D01*
X132048Y236802D01*
X132040Y236605D01*
X132028Y236408D01*
X132011Y236211D01*
X131989Y236015D01*
X131963Y235819D01*
X131931Y235624D01*
X131895Y235430D01*
X131854Y235236D01*
X131809Y235044D01*
X131758Y234853D01*
X131703Y234663D01*
X131644Y234475D01*
X131579Y234288D01*
X131511Y234103D01*
X131437Y233919D01*
X131359Y233738D01*
X131277Y233558D01*
X131190Y233381D01*
X131099Y233205D01*
X131004Y233032D01*
X130905Y232861D01*
X130801Y232693D01*
X130693Y232528D01*
X130582Y232365D01*
X130466Y232205D01*
X130346Y232047D01*
X130223Y231893D01*
X130096Y231742D01*
X129965Y231594D01*
X129830Y231449D01*
X129692Y231308D01*
X129551Y231170D01*
X129406Y231035D01*
X129258Y230904D01*
X129107Y230777D01*
X128953Y230654D01*
X128795Y230534D01*
X128635Y230418D01*
X128472Y230307D01*
X128307Y230199D01*
X128139Y230095D01*
X127968Y229996D01*
X127795Y229901D01*
X127619Y229810D01*
X127442Y229723D01*
X127262Y229641D01*
X127081Y229563D01*
X126897Y229489D01*
X126712Y229421D01*
X126525Y229356D01*
X126337Y229297D01*
X126147Y229242D01*
X125956Y229191D01*
X125764Y229146D01*
X125570Y229105D01*
X125376Y229069D01*
X125181Y229037D01*
X124985Y229011D01*
X124789Y228989D01*
X124592Y228972D01*
X124395Y228960D01*
X124198Y228952D01*
X124000Y228950D01*
X123802Y228952D01*
X123605Y228960D01*
X123408Y228972D01*
X123211Y228989D01*
X123015Y229011D01*
X122819Y229037D01*
X122624Y229069D01*
X122430Y229105D01*
X122236Y229146D01*
X122044Y229191D01*
X121853Y229242D01*
X121663Y229297D01*
X121475Y229356D01*
X121288Y229421D01*
X121103Y229489D01*
X120919Y229563D01*
X120738Y229641D01*
X120558Y229723D01*
X120381Y229810D01*
X120205Y229901D01*
X120032Y229996D01*
X119861Y230095D01*
X119693Y230199D01*
X119528Y230307D01*
X119365Y230418D01*
X119205Y230534D01*
X119047Y230654D01*
X118893Y230777D01*
X118742Y230904D01*
X118594Y231035D01*
X118449Y231170D01*
X118308Y231308D01*
X118170Y231449D01*
X118035Y231594D01*
X117904Y231742D01*
X117777Y231893D01*
X117654Y232047D01*
X117534Y232205D01*
X117418Y232365D01*
X117307Y232528D01*
X117199Y232693D01*
X117095Y232861D01*
X116996Y233032D01*
X116901Y233205D01*
X116810Y233381D01*
X116723Y233558D01*
X116641Y233738D01*
X116563Y233919D01*
X116489Y234103D01*
X116421Y234288D01*
X116356Y234475D01*
X116297Y234663D01*
X116242Y234853D01*
X116191Y235044D01*
X116146Y235236D01*
X116105Y235430D01*
X116069Y235624D01*
X116037Y235819D01*
X116011Y236015D01*
X115989Y236211D01*
X115972Y236408D01*
X115960Y236605D01*
X115952Y236802D01*
X115950Y237000D01*
D16*
X115617Y266634D02*
X115617Y273238D01*
X117452Y273238D01*
X117537Y273236D01*
X117621Y273230D01*
X117705Y273220D01*
X117789Y273207D01*
X117872Y273189D01*
X117954Y273168D01*
X118035Y273143D01*
X118115Y273114D01*
X118193Y273082D01*
X118269Y273046D01*
X118344Y273006D01*
X118417Y272963D01*
X118488Y272917D01*
X118557Y272868D01*
X118624Y272815D01*
X118688Y272759D01*
X118749Y272701D01*
X118807Y272640D01*
X118863Y272576D01*
X118916Y272509D01*
X118965Y272440D01*
X119011Y272369D01*
X119054Y272296D01*
X119094Y272221D01*
X119130Y272145D01*
X119162Y272067D01*
X119191Y271987D01*
X119216Y271906D01*
X119237Y271824D01*
X119255Y271741D01*
X119268Y271657D01*
X119278Y271573D01*
X119284Y271489D01*
X119286Y271404D01*
X119284Y271319D01*
X119278Y271235D01*
X119268Y271151D01*
X119255Y271067D01*
X119237Y270984D01*
X119216Y270902D01*
X119191Y270821D01*
X119162Y270741D01*
X119130Y270663D01*
X119094Y270587D01*
X119054Y270512D01*
X119011Y270439D01*
X118965Y270368D01*
X118916Y270299D01*
X118863Y270232D01*
X118807Y270168D01*
X118749Y270107D01*
X118688Y270049D01*
X118624Y269993D01*
X118557Y269940D01*
X118488Y269891D01*
X118417Y269845D01*
X118344Y269802D01*
X118269Y269762D01*
X118193Y269726D01*
X118115Y269694D01*
X118035Y269665D01*
X117954Y269640D01*
X117872Y269619D01*
X117789Y269601D01*
X117705Y269588D01*
X117621Y269578D01*
X117537Y269572D01*
X117452Y269570D01*
X117452Y269569D02*
X115617Y269569D01*
X117819Y269569D02*
X119286Y266634D01*
X124811Y266634D02*
X124885Y266636D01*
X124959Y266642D01*
X125033Y266651D01*
X125106Y266664D01*
X125179Y266681D01*
X125250Y266701D01*
X125321Y266725D01*
X125390Y266753D01*
X125457Y266784D01*
X125523Y266818D01*
X125588Y266856D01*
X125650Y266897D01*
X125710Y266941D01*
X125767Y266988D01*
X125822Y267038D01*
X125875Y267091D01*
X125925Y267146D01*
X125972Y267203D01*
X126016Y267263D01*
X126057Y267325D01*
X126095Y267390D01*
X126129Y267455D01*
X126160Y267523D01*
X126188Y267592D01*
X126212Y267663D01*
X126232Y267734D01*
X126249Y267806D01*
X126262Y267880D01*
X126271Y267953D01*
X126277Y268028D01*
X126279Y268102D01*
X124811Y266634D02*
X124700Y266636D01*
X124589Y266642D01*
X124478Y266652D01*
X124367Y266666D01*
X124258Y266684D01*
X124149Y266706D01*
X124040Y266731D01*
X123933Y266761D01*
X123827Y266794D01*
X123722Y266832D01*
X123619Y266872D01*
X123517Y266917D01*
X123417Y266965D01*
X123318Y267017D01*
X123222Y267072D01*
X123127Y267131D01*
X123035Y267193D01*
X122945Y267259D01*
X122857Y267327D01*
X122772Y267399D01*
X122690Y267474D01*
X122610Y267551D01*
X122793Y271770D02*
X122795Y271844D01*
X122801Y271919D01*
X122810Y271992D01*
X122823Y272066D01*
X122840Y272138D01*
X122860Y272209D01*
X122884Y272280D01*
X122912Y272349D01*
X122943Y272416D01*
X122977Y272482D01*
X123015Y272547D01*
X123056Y272609D01*
X123100Y272669D01*
X123147Y272726D01*
X123197Y272781D01*
X123250Y272834D01*
X123305Y272884D01*
X123362Y272931D01*
X123422Y272975D01*
X123484Y273016D01*
X123549Y273054D01*
X123615Y273088D01*
X123682Y273119D01*
X123751Y273147D01*
X123822Y273171D01*
X123893Y273191D01*
X123965Y273208D01*
X124039Y273221D01*
X124112Y273230D01*
X124187Y273236D01*
X124261Y273238D01*
X124365Y273236D01*
X124469Y273230D01*
X124573Y273220D01*
X124676Y273207D01*
X124779Y273189D01*
X124881Y273167D01*
X124982Y273142D01*
X125082Y273113D01*
X125181Y273080D01*
X125278Y273043D01*
X125374Y273003D01*
X125469Y272959D01*
X125561Y272911D01*
X125652Y272861D01*
X125741Y272806D01*
X125828Y272749D01*
X125912Y272688D01*
X123527Y270485D02*
X123464Y270524D01*
X123404Y270566D01*
X123346Y270611D01*
X123289Y270659D01*
X123236Y270710D01*
X123185Y270763D01*
X123136Y270818D01*
X123091Y270876D01*
X123048Y270936D01*
X123008Y270998D01*
X122972Y271062D01*
X122938Y271128D01*
X122908Y271196D01*
X122881Y271264D01*
X122858Y271334D01*
X122838Y271405D01*
X122822Y271477D01*
X122809Y271550D01*
X122800Y271623D01*
X122795Y271696D01*
X122793Y271770D01*
X125545Y269387D02*
X125608Y269348D01*
X125668Y269306D01*
X125727Y269261D01*
X125783Y269213D01*
X125836Y269162D01*
X125887Y269109D01*
X125936Y269054D01*
X125981Y268996D01*
X126024Y268936D01*
X126064Y268874D01*
X126100Y268810D01*
X126134Y268744D01*
X126164Y268676D01*
X126191Y268608D01*
X126214Y268538D01*
X126234Y268467D01*
X126250Y268395D01*
X126263Y268322D01*
X126272Y268249D01*
X126277Y268176D01*
X126279Y268102D01*
X125545Y269386D02*
X123527Y270486D01*
X131028Y273238D02*
X131028Y266634D01*
X129194Y273238D02*
X132863Y273238D01*
D17*
X207263Y190719D02*
X207263Y183353D01*
X207263Y190719D02*
X209309Y190719D01*
X209398Y190717D01*
X209487Y190711D01*
X209576Y190701D01*
X209664Y190688D01*
X209752Y190671D01*
X209839Y190649D01*
X209924Y190624D01*
X210009Y190596D01*
X210092Y190563D01*
X210174Y190527D01*
X210254Y190488D01*
X210332Y190445D01*
X210408Y190399D01*
X210483Y190349D01*
X210555Y190296D01*
X210624Y190240D01*
X210691Y190181D01*
X210756Y190120D01*
X210817Y190055D01*
X210876Y189988D01*
X210932Y189919D01*
X210985Y189847D01*
X211035Y189772D01*
X211081Y189696D01*
X211124Y189618D01*
X211163Y189538D01*
X211199Y189456D01*
X211232Y189373D01*
X211260Y189288D01*
X211285Y189203D01*
X211307Y189116D01*
X211324Y189028D01*
X211337Y188940D01*
X211347Y188851D01*
X211353Y188762D01*
X211355Y188673D01*
X211353Y188584D01*
X211347Y188495D01*
X211337Y188406D01*
X211324Y188318D01*
X211307Y188230D01*
X211285Y188143D01*
X211260Y188058D01*
X211232Y187973D01*
X211199Y187890D01*
X211163Y187808D01*
X211124Y187728D01*
X211081Y187650D01*
X211035Y187574D01*
X210985Y187499D01*
X210932Y187427D01*
X210876Y187358D01*
X210817Y187291D01*
X210756Y187226D01*
X210691Y187165D01*
X210624Y187106D01*
X210555Y187050D01*
X210483Y186997D01*
X210408Y186947D01*
X210332Y186901D01*
X210254Y186858D01*
X210174Y186819D01*
X210092Y186783D01*
X210009Y186750D01*
X209924Y186722D01*
X209839Y186697D01*
X209752Y186675D01*
X209664Y186658D01*
X209576Y186645D01*
X209487Y186635D01*
X209398Y186629D01*
X209309Y186627D01*
X207263Y186627D01*
X209718Y186627D02*
X211355Y183353D01*
X218620Y188878D02*
X218618Y188963D01*
X218612Y189048D01*
X218602Y189132D01*
X218589Y189216D01*
X218571Y189300D01*
X218550Y189382D01*
X218525Y189463D01*
X218496Y189543D01*
X218463Y189622D01*
X218427Y189699D01*
X218387Y189774D01*
X218344Y189848D01*
X218298Y189919D01*
X218248Y189988D01*
X218195Y190055D01*
X218139Y190119D01*
X218080Y190180D01*
X218019Y190239D01*
X217955Y190295D01*
X217888Y190348D01*
X217819Y190398D01*
X217748Y190444D01*
X217674Y190487D01*
X217599Y190527D01*
X217522Y190563D01*
X217443Y190596D01*
X217363Y190625D01*
X217282Y190650D01*
X217200Y190671D01*
X217116Y190689D01*
X217032Y190702D01*
X216948Y190712D01*
X216863Y190718D01*
X216778Y190720D01*
X216778Y190719D02*
X216682Y190717D01*
X216586Y190711D01*
X216491Y190701D01*
X216396Y190688D01*
X216301Y190670D01*
X216208Y190649D01*
X216115Y190624D01*
X216024Y190595D01*
X215933Y190563D01*
X215844Y190527D01*
X215757Y190487D01*
X215671Y190444D01*
X215587Y190398D01*
X215505Y190348D01*
X215425Y190294D01*
X215348Y190238D01*
X215273Y190178D01*
X215200Y190116D01*
X215130Y190050D01*
X215062Y189982D01*
X214997Y189911D01*
X214936Y189838D01*
X214877Y189762D01*
X214821Y189683D01*
X214769Y189603D01*
X214720Y189520D01*
X214674Y189436D01*
X214632Y189350D01*
X214594Y189262D01*
X214559Y189173D01*
X214527Y189082D01*
X218005Y187446D02*
X218065Y187505D01*
X218122Y187567D01*
X218177Y187631D01*
X218228Y187698D01*
X218277Y187767D01*
X218323Y187837D01*
X218366Y187910D01*
X218406Y187984D01*
X218442Y188060D01*
X218475Y188138D01*
X218505Y188217D01*
X218532Y188297D01*
X218555Y188378D01*
X218574Y188460D01*
X218590Y188542D01*
X218603Y188626D01*
X218612Y188710D01*
X218617Y188794D01*
X218619Y188878D01*
X218005Y187445D02*
X214527Y183353D01*
X218619Y183353D01*
D14*
X19300Y55100D02*
X19300Y40700D01*
X108700Y40700D02*
X108700Y55100D01*
X108700Y13300D02*
X108700Y1000D01*
X19300Y1000D01*
X19300Y13300D01*
D18*
X29000Y91000D02*
X29002Y91063D01*
X29008Y91125D01*
X29018Y91187D01*
X29031Y91249D01*
X29049Y91309D01*
X29070Y91368D01*
X29095Y91426D01*
X29124Y91482D01*
X29156Y91536D01*
X29191Y91588D01*
X29229Y91637D01*
X29271Y91685D01*
X29315Y91729D01*
X29363Y91771D01*
X29412Y91809D01*
X29464Y91844D01*
X29518Y91876D01*
X29574Y91905D01*
X29632Y91930D01*
X29691Y91951D01*
X29751Y91969D01*
X29813Y91982D01*
X29875Y91992D01*
X29937Y91998D01*
X30000Y92000D01*
X30063Y91998D01*
X30125Y91992D01*
X30187Y91982D01*
X30249Y91969D01*
X30309Y91951D01*
X30368Y91930D01*
X30426Y91905D01*
X30482Y91876D01*
X30536Y91844D01*
X30588Y91809D01*
X30637Y91771D01*
X30685Y91729D01*
X30729Y91685D01*
X30771Y91637D01*
X30809Y91588D01*
X30844Y91536D01*
X30876Y91482D01*
X30905Y91426D01*
X30930Y91368D01*
X30951Y91309D01*
X30969Y91249D01*
X30982Y91187D01*
X30992Y91125D01*
X30998Y91063D01*
X31000Y91000D01*
X30998Y90937D01*
X30992Y90875D01*
X30982Y90813D01*
X30969Y90751D01*
X30951Y90691D01*
X30930Y90632D01*
X30905Y90574D01*
X30876Y90518D01*
X30844Y90464D01*
X30809Y90412D01*
X30771Y90363D01*
X30729Y90315D01*
X30685Y90271D01*
X30637Y90229D01*
X30588Y90191D01*
X30536Y90156D01*
X30482Y90124D01*
X30426Y90095D01*
X30368Y90070D01*
X30309Y90049D01*
X30249Y90031D01*
X30187Y90018D01*
X30125Y90008D01*
X30063Y90002D01*
X30000Y90000D01*
X29937Y90002D01*
X29875Y90008D01*
X29813Y90018D01*
X29751Y90031D01*
X29691Y90049D01*
X29632Y90070D01*
X29574Y90095D01*
X29518Y90124D01*
X29464Y90156D01*
X29412Y90191D01*
X29363Y90229D01*
X29315Y90271D01*
X29271Y90315D01*
X29229Y90363D01*
X29191Y90412D01*
X29156Y90464D01*
X29124Y90518D01*
X29095Y90574D01*
X29070Y90632D01*
X29049Y90691D01*
X29031Y90751D01*
X29018Y90813D01*
X29008Y90875D01*
X29002Y90937D01*
X29000Y91000D01*
D17*
X56581Y110481D02*
X56581Y117847D01*
X58627Y117847D01*
X58716Y117845D01*
X58805Y117839D01*
X58894Y117829D01*
X58982Y117816D01*
X59070Y117799D01*
X59157Y117777D01*
X59242Y117752D01*
X59327Y117724D01*
X59410Y117691D01*
X59492Y117655D01*
X59572Y117616D01*
X59650Y117573D01*
X59726Y117527D01*
X59801Y117477D01*
X59873Y117424D01*
X59942Y117368D01*
X60009Y117309D01*
X60074Y117248D01*
X60135Y117183D01*
X60194Y117116D01*
X60250Y117047D01*
X60303Y116975D01*
X60353Y116900D01*
X60399Y116824D01*
X60442Y116746D01*
X60481Y116666D01*
X60517Y116584D01*
X60550Y116501D01*
X60578Y116416D01*
X60603Y116331D01*
X60625Y116244D01*
X60642Y116156D01*
X60655Y116068D01*
X60665Y115979D01*
X60671Y115890D01*
X60673Y115801D01*
X60671Y115712D01*
X60665Y115623D01*
X60655Y115534D01*
X60642Y115446D01*
X60625Y115358D01*
X60603Y115271D01*
X60578Y115186D01*
X60550Y115101D01*
X60517Y115018D01*
X60481Y114936D01*
X60442Y114856D01*
X60399Y114778D01*
X60353Y114702D01*
X60303Y114627D01*
X60250Y114555D01*
X60194Y114486D01*
X60135Y114419D01*
X60074Y114354D01*
X60009Y114293D01*
X59942Y114234D01*
X59873Y114178D01*
X59801Y114125D01*
X59726Y114075D01*
X59650Y114029D01*
X59572Y113986D01*
X59492Y113947D01*
X59410Y113911D01*
X59327Y113878D01*
X59242Y113850D01*
X59157Y113825D01*
X59070Y113803D01*
X58982Y113786D01*
X58894Y113773D01*
X58805Y113763D01*
X58716Y113757D01*
X58627Y113755D01*
X56581Y113755D01*
X59036Y113755D02*
X60673Y110481D01*
X63845Y112118D02*
X65482Y117847D01*
X63845Y112118D02*
X67937Y112118D01*
X66710Y113755D02*
X66710Y110481D01*
X54963Y102119D02*
X54963Y94753D01*
X54963Y102119D02*
X57009Y102119D01*
X57098Y102117D01*
X57187Y102111D01*
X57276Y102101D01*
X57364Y102088D01*
X57452Y102071D01*
X57539Y102049D01*
X57624Y102024D01*
X57709Y101996D01*
X57792Y101963D01*
X57874Y101927D01*
X57954Y101888D01*
X58032Y101845D01*
X58108Y101799D01*
X58183Y101749D01*
X58255Y101696D01*
X58324Y101640D01*
X58391Y101581D01*
X58456Y101520D01*
X58517Y101455D01*
X58576Y101388D01*
X58632Y101319D01*
X58685Y101247D01*
X58735Y101172D01*
X58781Y101096D01*
X58824Y101018D01*
X58863Y100938D01*
X58899Y100856D01*
X58932Y100773D01*
X58960Y100688D01*
X58985Y100603D01*
X59007Y100516D01*
X59024Y100428D01*
X59037Y100340D01*
X59047Y100251D01*
X59053Y100162D01*
X59055Y100073D01*
X59053Y99984D01*
X59047Y99895D01*
X59037Y99806D01*
X59024Y99718D01*
X59007Y99630D01*
X58985Y99543D01*
X58960Y99458D01*
X58932Y99373D01*
X58899Y99290D01*
X58863Y99208D01*
X58824Y99128D01*
X58781Y99050D01*
X58735Y98974D01*
X58685Y98899D01*
X58632Y98827D01*
X58576Y98758D01*
X58517Y98691D01*
X58456Y98626D01*
X58391Y98565D01*
X58324Y98506D01*
X58255Y98450D01*
X58183Y98397D01*
X58108Y98347D01*
X58032Y98301D01*
X57954Y98258D01*
X57874Y98219D01*
X57792Y98183D01*
X57709Y98150D01*
X57624Y98122D01*
X57539Y98097D01*
X57452Y98075D01*
X57364Y98058D01*
X57276Y98045D01*
X57187Y98035D01*
X57098Y98029D01*
X57009Y98027D01*
X54963Y98027D01*
X57418Y98027D02*
X59055Y94753D01*
X62227Y98845D02*
X64682Y98845D01*
X64760Y98843D01*
X64838Y98838D01*
X64915Y98828D01*
X64992Y98815D01*
X65068Y98799D01*
X65143Y98779D01*
X65217Y98755D01*
X65290Y98728D01*
X65362Y98697D01*
X65432Y98663D01*
X65501Y98626D01*
X65567Y98585D01*
X65632Y98541D01*
X65694Y98495D01*
X65754Y98445D01*
X65812Y98393D01*
X65867Y98338D01*
X65919Y98280D01*
X65969Y98220D01*
X66015Y98158D01*
X66059Y98093D01*
X66100Y98027D01*
X66137Y97958D01*
X66171Y97888D01*
X66202Y97816D01*
X66229Y97743D01*
X66253Y97669D01*
X66273Y97594D01*
X66289Y97518D01*
X66302Y97441D01*
X66312Y97364D01*
X66317Y97286D01*
X66319Y97208D01*
X66319Y96799D01*
X66317Y96710D01*
X66311Y96621D01*
X66301Y96532D01*
X66288Y96444D01*
X66271Y96356D01*
X66249Y96269D01*
X66224Y96184D01*
X66196Y96099D01*
X66163Y96016D01*
X66127Y95934D01*
X66088Y95854D01*
X66045Y95776D01*
X65999Y95700D01*
X65949Y95625D01*
X65896Y95553D01*
X65840Y95484D01*
X65781Y95417D01*
X65720Y95352D01*
X65655Y95291D01*
X65588Y95232D01*
X65519Y95176D01*
X65447Y95123D01*
X65372Y95073D01*
X65296Y95027D01*
X65218Y94984D01*
X65138Y94945D01*
X65056Y94909D01*
X64973Y94876D01*
X64888Y94848D01*
X64803Y94823D01*
X64716Y94801D01*
X64628Y94784D01*
X64540Y94771D01*
X64451Y94761D01*
X64362Y94755D01*
X64273Y94753D01*
X64184Y94755D01*
X64095Y94761D01*
X64006Y94771D01*
X63918Y94784D01*
X63830Y94801D01*
X63743Y94823D01*
X63658Y94848D01*
X63573Y94876D01*
X63490Y94909D01*
X63408Y94945D01*
X63328Y94984D01*
X63250Y95027D01*
X63174Y95073D01*
X63099Y95123D01*
X63027Y95176D01*
X62958Y95232D01*
X62891Y95291D01*
X62826Y95352D01*
X62765Y95417D01*
X62706Y95484D01*
X62650Y95553D01*
X62597Y95625D01*
X62547Y95700D01*
X62501Y95776D01*
X62458Y95854D01*
X62419Y95934D01*
X62383Y96016D01*
X62350Y96099D01*
X62322Y96184D01*
X62297Y96269D01*
X62275Y96356D01*
X62258Y96444D01*
X62245Y96532D01*
X62235Y96621D01*
X62229Y96710D01*
X62227Y96799D01*
X62227Y98845D01*
X62229Y98959D01*
X62235Y99073D01*
X62245Y99187D01*
X62259Y99301D01*
X62277Y99414D01*
X62299Y99526D01*
X62324Y99637D01*
X62354Y99747D01*
X62387Y99857D01*
X62424Y99965D01*
X62465Y100071D01*
X62510Y100177D01*
X62558Y100280D01*
X62610Y100382D01*
X62666Y100482D01*
X62724Y100580D01*
X62787Y100676D01*
X62852Y100769D01*
X62921Y100861D01*
X62993Y100949D01*
X63068Y101036D01*
X63146Y101119D01*
X63227Y101200D01*
X63310Y101278D01*
X63397Y101353D01*
X63485Y101425D01*
X63577Y101494D01*
X63670Y101559D01*
X63766Y101621D01*
X63864Y101680D01*
X63964Y101736D01*
X64066Y101788D01*
X64169Y101836D01*
X64275Y101881D01*
X64381Y101922D01*
X64489Y101959D01*
X64599Y101992D01*
X64709Y102022D01*
X64820Y102047D01*
X64932Y102069D01*
X65045Y102087D01*
X65159Y102101D01*
X65273Y102111D01*
X65387Y102117D01*
X65501Y102119D01*
X91963Y99753D02*
X91963Y107119D01*
X94009Y107119D01*
X94098Y107117D01*
X94187Y107111D01*
X94276Y107101D01*
X94364Y107088D01*
X94452Y107071D01*
X94539Y107049D01*
X94624Y107024D01*
X94709Y106996D01*
X94792Y106963D01*
X94874Y106927D01*
X94954Y106888D01*
X95032Y106845D01*
X95108Y106799D01*
X95183Y106749D01*
X95255Y106696D01*
X95324Y106640D01*
X95391Y106581D01*
X95456Y106520D01*
X95517Y106455D01*
X95576Y106388D01*
X95632Y106319D01*
X95685Y106247D01*
X95735Y106172D01*
X95781Y106096D01*
X95824Y106018D01*
X95863Y105938D01*
X95899Y105856D01*
X95932Y105773D01*
X95960Y105688D01*
X95985Y105603D01*
X96007Y105516D01*
X96024Y105428D01*
X96037Y105340D01*
X96047Y105251D01*
X96053Y105162D01*
X96055Y105073D01*
X96053Y104984D01*
X96047Y104895D01*
X96037Y104806D01*
X96024Y104718D01*
X96007Y104630D01*
X95985Y104543D01*
X95960Y104458D01*
X95932Y104373D01*
X95899Y104290D01*
X95863Y104208D01*
X95824Y104128D01*
X95781Y104050D01*
X95735Y103974D01*
X95685Y103899D01*
X95632Y103827D01*
X95576Y103758D01*
X95517Y103691D01*
X95456Y103626D01*
X95391Y103565D01*
X95324Y103506D01*
X95255Y103450D01*
X95183Y103397D01*
X95108Y103347D01*
X95032Y103301D01*
X94954Y103258D01*
X94874Y103219D01*
X94792Y103183D01*
X94709Y103150D01*
X94624Y103122D01*
X94539Y103097D01*
X94452Y103075D01*
X94364Y103058D01*
X94276Y103045D01*
X94187Y103035D01*
X94098Y103029D01*
X94009Y103027D01*
X91963Y103027D01*
X94418Y103027D02*
X96055Y99753D01*
X99227Y106301D02*
X99227Y107119D01*
X103319Y107119D01*
X101273Y99753D01*
D10*
X138543Y107128D02*
X140124Y107128D01*
X138543Y107128D02*
X138465Y107130D01*
X138388Y107136D01*
X138311Y107145D01*
X138235Y107158D01*
X138159Y107175D01*
X138084Y107196D01*
X138011Y107220D01*
X137938Y107248D01*
X137867Y107280D01*
X137798Y107315D01*
X137731Y107353D01*
X137665Y107394D01*
X137602Y107439D01*
X137541Y107487D01*
X137482Y107537D01*
X137426Y107591D01*
X137372Y107647D01*
X137322Y107706D01*
X137274Y107767D01*
X137229Y107830D01*
X137188Y107896D01*
X137150Y107963D01*
X137115Y108032D01*
X137083Y108103D01*
X137055Y108176D01*
X137031Y108249D01*
X137010Y108324D01*
X136993Y108400D01*
X136980Y108476D01*
X136971Y108553D01*
X136965Y108630D01*
X136963Y108708D01*
X136963Y112660D01*
X136965Y112738D01*
X136971Y112815D01*
X136980Y112892D01*
X136993Y112968D01*
X137010Y113044D01*
X137031Y113119D01*
X137055Y113192D01*
X137083Y113265D01*
X137115Y113336D01*
X137150Y113405D01*
X137188Y113472D01*
X137229Y113538D01*
X137274Y113601D01*
X137322Y113662D01*
X137372Y113721D01*
X137426Y113777D01*
X137482Y113831D01*
X137541Y113881D01*
X137602Y113929D01*
X137665Y113974D01*
X137731Y114015D01*
X137798Y114053D01*
X137867Y114088D01*
X137938Y114120D01*
X138011Y114148D01*
X138084Y114172D01*
X138159Y114193D01*
X138235Y114210D01*
X138311Y114223D01*
X138388Y114232D01*
X138465Y114238D01*
X138543Y114240D01*
X140124Y114240D01*
X144667Y114240D02*
X143086Y108708D01*
X147037Y108708D01*
X145852Y110289D02*
X145852Y107128D01*
D17*
X129481Y115981D02*
X129481Y123347D01*
X131527Y123347D01*
X131616Y123345D01*
X131705Y123339D01*
X131794Y123329D01*
X131882Y123316D01*
X131970Y123299D01*
X132057Y123277D01*
X132142Y123252D01*
X132227Y123224D01*
X132310Y123191D01*
X132392Y123155D01*
X132472Y123116D01*
X132550Y123073D01*
X132626Y123027D01*
X132701Y122977D01*
X132773Y122924D01*
X132842Y122868D01*
X132909Y122809D01*
X132974Y122748D01*
X133035Y122683D01*
X133094Y122616D01*
X133150Y122547D01*
X133203Y122475D01*
X133253Y122400D01*
X133299Y122324D01*
X133342Y122246D01*
X133381Y122166D01*
X133417Y122084D01*
X133450Y122001D01*
X133478Y121916D01*
X133503Y121831D01*
X133525Y121744D01*
X133542Y121656D01*
X133555Y121568D01*
X133565Y121479D01*
X133571Y121390D01*
X133573Y121301D01*
X133571Y121212D01*
X133565Y121123D01*
X133555Y121034D01*
X133542Y120946D01*
X133525Y120858D01*
X133503Y120771D01*
X133478Y120686D01*
X133450Y120601D01*
X133417Y120518D01*
X133381Y120436D01*
X133342Y120356D01*
X133299Y120278D01*
X133253Y120202D01*
X133203Y120127D01*
X133150Y120055D01*
X133094Y119986D01*
X133035Y119919D01*
X132974Y119854D01*
X132909Y119793D01*
X132842Y119734D01*
X132773Y119678D01*
X132701Y119625D01*
X132626Y119575D01*
X132550Y119529D01*
X132472Y119486D01*
X132392Y119447D01*
X132310Y119411D01*
X132227Y119378D01*
X132142Y119350D01*
X132057Y119325D01*
X131970Y119303D01*
X131882Y119286D01*
X131794Y119273D01*
X131705Y119263D01*
X131616Y119257D01*
X131527Y119255D01*
X129481Y119255D01*
X131936Y119255D02*
X133573Y115981D01*
X136745Y118027D02*
X136747Y118116D01*
X136753Y118205D01*
X136763Y118294D01*
X136776Y118382D01*
X136793Y118470D01*
X136815Y118557D01*
X136840Y118642D01*
X136868Y118727D01*
X136901Y118810D01*
X136937Y118892D01*
X136976Y118972D01*
X137019Y119050D01*
X137065Y119126D01*
X137115Y119201D01*
X137168Y119273D01*
X137224Y119342D01*
X137283Y119409D01*
X137344Y119474D01*
X137409Y119535D01*
X137476Y119594D01*
X137545Y119650D01*
X137617Y119703D01*
X137692Y119753D01*
X137768Y119799D01*
X137846Y119842D01*
X137926Y119881D01*
X138008Y119917D01*
X138091Y119950D01*
X138176Y119978D01*
X138261Y120003D01*
X138348Y120025D01*
X138436Y120042D01*
X138524Y120055D01*
X138613Y120065D01*
X138702Y120071D01*
X138791Y120073D01*
X138880Y120071D01*
X138969Y120065D01*
X139058Y120055D01*
X139146Y120042D01*
X139234Y120025D01*
X139321Y120003D01*
X139406Y119978D01*
X139491Y119950D01*
X139574Y119917D01*
X139656Y119881D01*
X139736Y119842D01*
X139814Y119799D01*
X139890Y119753D01*
X139965Y119703D01*
X140037Y119650D01*
X140106Y119594D01*
X140173Y119535D01*
X140238Y119474D01*
X140299Y119409D01*
X140358Y119342D01*
X140414Y119273D01*
X140467Y119201D01*
X140517Y119126D01*
X140563Y119050D01*
X140606Y118972D01*
X140645Y118892D01*
X140681Y118810D01*
X140714Y118727D01*
X140742Y118642D01*
X140767Y118557D01*
X140789Y118470D01*
X140806Y118382D01*
X140819Y118294D01*
X140829Y118205D01*
X140835Y118116D01*
X140837Y118027D01*
X140835Y117938D01*
X140829Y117849D01*
X140819Y117760D01*
X140806Y117672D01*
X140789Y117584D01*
X140767Y117497D01*
X140742Y117412D01*
X140714Y117327D01*
X140681Y117244D01*
X140645Y117162D01*
X140606Y117082D01*
X140563Y117004D01*
X140517Y116928D01*
X140467Y116853D01*
X140414Y116781D01*
X140358Y116712D01*
X140299Y116645D01*
X140238Y116580D01*
X140173Y116519D01*
X140106Y116460D01*
X140037Y116404D01*
X139965Y116351D01*
X139890Y116301D01*
X139814Y116255D01*
X139736Y116212D01*
X139656Y116173D01*
X139574Y116137D01*
X139491Y116104D01*
X139406Y116076D01*
X139321Y116051D01*
X139234Y116029D01*
X139146Y116012D01*
X139058Y115999D01*
X138969Y115989D01*
X138880Y115983D01*
X138791Y115981D01*
X138702Y115983D01*
X138613Y115989D01*
X138524Y115999D01*
X138436Y116012D01*
X138348Y116029D01*
X138261Y116051D01*
X138176Y116076D01*
X138091Y116104D01*
X138008Y116137D01*
X137926Y116173D01*
X137846Y116212D01*
X137768Y116255D01*
X137692Y116301D01*
X137617Y116351D01*
X137545Y116404D01*
X137476Y116460D01*
X137409Y116519D01*
X137344Y116580D01*
X137283Y116645D01*
X137224Y116712D01*
X137168Y116781D01*
X137115Y116853D01*
X137065Y116928D01*
X137019Y117004D01*
X136976Y117082D01*
X136937Y117162D01*
X136901Y117244D01*
X136868Y117327D01*
X136840Y117412D01*
X136815Y117497D01*
X136793Y117584D01*
X136776Y117672D01*
X136763Y117760D01*
X136753Y117849D01*
X136747Y117938D01*
X136745Y118027D01*
X137154Y121710D02*
X137156Y121789D01*
X137162Y121868D01*
X137171Y121947D01*
X137184Y122025D01*
X137202Y122102D01*
X137222Y122178D01*
X137247Y122253D01*
X137275Y122327D01*
X137306Y122400D01*
X137342Y122471D01*
X137380Y122540D01*
X137422Y122607D01*
X137467Y122672D01*
X137515Y122735D01*
X137566Y122796D01*
X137620Y122853D01*
X137676Y122909D01*
X137735Y122961D01*
X137797Y123011D01*
X137861Y123057D01*
X137927Y123101D01*
X137995Y123141D01*
X138065Y123177D01*
X138137Y123211D01*
X138211Y123241D01*
X138285Y123267D01*
X138361Y123290D01*
X138438Y123308D01*
X138515Y123324D01*
X138594Y123335D01*
X138672Y123343D01*
X138751Y123347D01*
X138831Y123347D01*
X138910Y123343D01*
X138988Y123335D01*
X139067Y123324D01*
X139144Y123308D01*
X139221Y123290D01*
X139297Y123267D01*
X139371Y123241D01*
X139445Y123211D01*
X139517Y123177D01*
X139587Y123141D01*
X139655Y123101D01*
X139721Y123057D01*
X139785Y123011D01*
X139847Y122961D01*
X139906Y122909D01*
X139962Y122853D01*
X140016Y122796D01*
X140067Y122735D01*
X140115Y122672D01*
X140160Y122607D01*
X140202Y122540D01*
X140240Y122471D01*
X140276Y122400D01*
X140307Y122327D01*
X140335Y122253D01*
X140360Y122178D01*
X140380Y122102D01*
X140398Y122025D01*
X140411Y121947D01*
X140420Y121868D01*
X140426Y121789D01*
X140428Y121710D01*
X140426Y121631D01*
X140420Y121552D01*
X140411Y121473D01*
X140398Y121395D01*
X140380Y121318D01*
X140360Y121242D01*
X140335Y121167D01*
X140307Y121093D01*
X140276Y121020D01*
X140240Y120949D01*
X140202Y120880D01*
X140160Y120813D01*
X140115Y120748D01*
X140067Y120685D01*
X140016Y120624D01*
X139962Y120567D01*
X139906Y120511D01*
X139847Y120459D01*
X139785Y120409D01*
X139721Y120363D01*
X139655Y120319D01*
X139587Y120279D01*
X139517Y120243D01*
X139445Y120209D01*
X139371Y120179D01*
X139297Y120153D01*
X139221Y120130D01*
X139144Y120112D01*
X139067Y120096D01*
X138988Y120085D01*
X138910Y120077D01*
X138831Y120073D01*
X138751Y120073D01*
X138672Y120077D01*
X138594Y120085D01*
X138515Y120096D01*
X138438Y120112D01*
X138361Y120130D01*
X138285Y120153D01*
X138211Y120179D01*
X138137Y120209D01*
X138065Y120243D01*
X137995Y120279D01*
X137927Y120319D01*
X137861Y120363D01*
X137797Y120409D01*
X137735Y120459D01*
X137676Y120511D01*
X137620Y120567D01*
X137566Y120624D01*
X137515Y120685D01*
X137467Y120748D01*
X137422Y120813D01*
X137380Y120880D01*
X137342Y120949D01*
X137306Y121020D01*
X137275Y121093D01*
X137247Y121167D01*
X137222Y121242D01*
X137202Y121318D01*
X137184Y121395D01*
X137171Y121473D01*
X137162Y121552D01*
X137156Y121631D01*
X137154Y121710D01*
D14*
X55200Y179700D02*
X41600Y179700D01*
X41600Y156300D02*
X55200Y156300D01*
D18*
X41640Y180080D02*
X41642Y180143D01*
X41648Y180205D01*
X41658Y180267D01*
X41671Y180329D01*
X41689Y180389D01*
X41710Y180448D01*
X41735Y180506D01*
X41764Y180562D01*
X41796Y180616D01*
X41831Y180668D01*
X41869Y180717D01*
X41911Y180765D01*
X41955Y180809D01*
X42003Y180851D01*
X42052Y180889D01*
X42104Y180924D01*
X42158Y180956D01*
X42214Y180985D01*
X42272Y181010D01*
X42331Y181031D01*
X42391Y181049D01*
X42453Y181062D01*
X42515Y181072D01*
X42577Y181078D01*
X42640Y181080D01*
X42703Y181078D01*
X42765Y181072D01*
X42827Y181062D01*
X42889Y181049D01*
X42949Y181031D01*
X43008Y181010D01*
X43066Y180985D01*
X43122Y180956D01*
X43176Y180924D01*
X43228Y180889D01*
X43277Y180851D01*
X43325Y180809D01*
X43369Y180765D01*
X43411Y180717D01*
X43449Y180668D01*
X43484Y180616D01*
X43516Y180562D01*
X43545Y180506D01*
X43570Y180448D01*
X43591Y180389D01*
X43609Y180329D01*
X43622Y180267D01*
X43632Y180205D01*
X43638Y180143D01*
X43640Y180080D01*
X43638Y180017D01*
X43632Y179955D01*
X43622Y179893D01*
X43609Y179831D01*
X43591Y179771D01*
X43570Y179712D01*
X43545Y179654D01*
X43516Y179598D01*
X43484Y179544D01*
X43449Y179492D01*
X43411Y179443D01*
X43369Y179395D01*
X43325Y179351D01*
X43277Y179309D01*
X43228Y179271D01*
X43176Y179236D01*
X43122Y179204D01*
X43066Y179175D01*
X43008Y179150D01*
X42949Y179129D01*
X42889Y179111D01*
X42827Y179098D01*
X42765Y179088D01*
X42703Y179082D01*
X42640Y179080D01*
X42577Y179082D01*
X42515Y179088D01*
X42453Y179098D01*
X42391Y179111D01*
X42331Y179129D01*
X42272Y179150D01*
X42214Y179175D01*
X42158Y179204D01*
X42104Y179236D01*
X42052Y179271D01*
X42003Y179309D01*
X41955Y179351D01*
X41911Y179395D01*
X41869Y179443D01*
X41831Y179492D01*
X41796Y179544D01*
X41764Y179598D01*
X41735Y179654D01*
X41710Y179712D01*
X41689Y179771D01*
X41671Y179831D01*
X41658Y179893D01*
X41648Y179955D01*
X41642Y180017D01*
X41640Y180080D01*
D14*
X120238Y26125D02*
X129763Y26125D01*
D17*
X116681Y81881D02*
X116681Y89247D01*
X118727Y89247D01*
X118816Y89245D01*
X118905Y89239D01*
X118994Y89229D01*
X119082Y89216D01*
X119170Y89199D01*
X119257Y89177D01*
X119342Y89152D01*
X119427Y89124D01*
X119510Y89091D01*
X119592Y89055D01*
X119672Y89016D01*
X119750Y88973D01*
X119826Y88927D01*
X119901Y88877D01*
X119973Y88824D01*
X120042Y88768D01*
X120109Y88709D01*
X120174Y88648D01*
X120235Y88583D01*
X120294Y88516D01*
X120350Y88447D01*
X120403Y88375D01*
X120453Y88300D01*
X120499Y88224D01*
X120542Y88146D01*
X120581Y88066D01*
X120617Y87984D01*
X120650Y87901D01*
X120678Y87816D01*
X120703Y87731D01*
X120725Y87644D01*
X120742Y87556D01*
X120755Y87468D01*
X120765Y87379D01*
X120771Y87290D01*
X120773Y87201D01*
X120771Y87112D01*
X120765Y87023D01*
X120755Y86934D01*
X120742Y86846D01*
X120725Y86758D01*
X120703Y86671D01*
X120678Y86586D01*
X120650Y86501D01*
X120617Y86418D01*
X120581Y86336D01*
X120542Y86256D01*
X120499Y86178D01*
X120453Y86102D01*
X120403Y86027D01*
X120350Y85955D01*
X120294Y85886D01*
X120235Y85819D01*
X120174Y85754D01*
X120109Y85693D01*
X120042Y85634D01*
X119973Y85578D01*
X119901Y85525D01*
X119826Y85475D01*
X119750Y85429D01*
X119672Y85386D01*
X119592Y85347D01*
X119510Y85311D01*
X119427Y85278D01*
X119342Y85250D01*
X119257Y85225D01*
X119170Y85203D01*
X119082Y85186D01*
X118994Y85173D01*
X118905Y85163D01*
X118816Y85157D01*
X118727Y85155D01*
X116681Y85155D01*
X119136Y85155D02*
X120773Y81881D01*
X125582Y85155D02*
X128037Y85155D01*
X125582Y85155D02*
X125504Y85157D01*
X125426Y85162D01*
X125349Y85172D01*
X125272Y85185D01*
X125196Y85201D01*
X125121Y85221D01*
X125047Y85245D01*
X124974Y85272D01*
X124902Y85303D01*
X124832Y85337D01*
X124763Y85374D01*
X124697Y85415D01*
X124632Y85459D01*
X124570Y85505D01*
X124510Y85555D01*
X124452Y85607D01*
X124397Y85662D01*
X124345Y85720D01*
X124295Y85780D01*
X124249Y85842D01*
X124205Y85907D01*
X124164Y85974D01*
X124127Y86042D01*
X124093Y86112D01*
X124062Y86184D01*
X124035Y86257D01*
X124011Y86331D01*
X123991Y86406D01*
X123975Y86482D01*
X123962Y86559D01*
X123952Y86636D01*
X123947Y86714D01*
X123945Y86792D01*
X123945Y87201D01*
X123947Y87290D01*
X123953Y87379D01*
X123963Y87468D01*
X123976Y87556D01*
X123993Y87644D01*
X124015Y87731D01*
X124040Y87816D01*
X124068Y87901D01*
X124101Y87984D01*
X124137Y88066D01*
X124176Y88146D01*
X124219Y88224D01*
X124265Y88300D01*
X124315Y88375D01*
X124368Y88447D01*
X124424Y88516D01*
X124483Y88583D01*
X124544Y88648D01*
X124609Y88709D01*
X124676Y88768D01*
X124745Y88824D01*
X124817Y88877D01*
X124892Y88927D01*
X124968Y88973D01*
X125046Y89016D01*
X125126Y89055D01*
X125208Y89091D01*
X125291Y89124D01*
X125376Y89152D01*
X125461Y89177D01*
X125548Y89199D01*
X125636Y89216D01*
X125724Y89229D01*
X125813Y89239D01*
X125902Y89245D01*
X125991Y89247D01*
X126080Y89245D01*
X126169Y89239D01*
X126258Y89229D01*
X126346Y89216D01*
X126434Y89199D01*
X126521Y89177D01*
X126606Y89152D01*
X126691Y89124D01*
X126774Y89091D01*
X126856Y89055D01*
X126936Y89016D01*
X127014Y88973D01*
X127090Y88927D01*
X127165Y88877D01*
X127237Y88824D01*
X127306Y88768D01*
X127373Y88709D01*
X127438Y88648D01*
X127499Y88583D01*
X127558Y88516D01*
X127614Y88447D01*
X127667Y88375D01*
X127717Y88300D01*
X127763Y88224D01*
X127806Y88146D01*
X127845Y88066D01*
X127881Y87984D01*
X127914Y87901D01*
X127942Y87816D01*
X127967Y87731D01*
X127989Y87644D01*
X128006Y87556D01*
X128019Y87468D01*
X128029Y87379D01*
X128035Y87290D01*
X128037Y87201D01*
X128037Y85155D01*
X128035Y85043D01*
X128029Y84932D01*
X128020Y84820D01*
X128007Y84709D01*
X127989Y84599D01*
X127969Y84489D01*
X127944Y84380D01*
X127916Y84272D01*
X127884Y84165D01*
X127848Y84059D01*
X127809Y83954D01*
X127766Y83851D01*
X127720Y83749D01*
X127670Y83649D01*
X127617Y83550D01*
X127560Y83454D01*
X127501Y83359D01*
X127438Y83267D01*
X127372Y83177D01*
X127303Y83089D01*
X127231Y83003D01*
X127156Y82920D01*
X127078Y82840D01*
X126998Y82762D01*
X126915Y82687D01*
X126829Y82615D01*
X126741Y82546D01*
X126651Y82480D01*
X126559Y82417D01*
X126464Y82358D01*
X126368Y82301D01*
X126269Y82248D01*
X126169Y82198D01*
X126067Y82152D01*
X125964Y82109D01*
X125859Y82070D01*
X125753Y82034D01*
X125646Y82002D01*
X125538Y81974D01*
X125429Y81949D01*
X125319Y81929D01*
X125209Y81911D01*
X125098Y81898D01*
X124986Y81889D01*
X124875Y81883D01*
X124763Y81881D01*
D14*
X36971Y284269D02*
X36971Y309669D01*
X38027Y462389D02*
X38027Y571609D01*
X210970Y571342D02*
X210970Y462122D01*
X212013Y309635D02*
X212013Y284235D01*
X62617Y284119D02*
X37017Y284119D01*
X186417Y284219D02*
X212017Y284219D01*
X210747Y571609D02*
X38027Y571609D01*
X41500Y150750D02*
X54500Y150750D01*
X54500Y119250D02*
X41500Y119250D01*
D18*
X25000Y143000D02*
X25002Y143063D01*
X25008Y143125D01*
X25018Y143187D01*
X25031Y143249D01*
X25049Y143309D01*
X25070Y143368D01*
X25095Y143426D01*
X25124Y143482D01*
X25156Y143536D01*
X25191Y143588D01*
X25229Y143637D01*
X25271Y143685D01*
X25315Y143729D01*
X25363Y143771D01*
X25412Y143809D01*
X25464Y143844D01*
X25518Y143876D01*
X25574Y143905D01*
X25632Y143930D01*
X25691Y143951D01*
X25751Y143969D01*
X25813Y143982D01*
X25875Y143992D01*
X25937Y143998D01*
X26000Y144000D01*
X26063Y143998D01*
X26125Y143992D01*
X26187Y143982D01*
X26249Y143969D01*
X26309Y143951D01*
X26368Y143930D01*
X26426Y143905D01*
X26482Y143876D01*
X26536Y143844D01*
X26588Y143809D01*
X26637Y143771D01*
X26685Y143729D01*
X26729Y143685D01*
X26771Y143637D01*
X26809Y143588D01*
X26844Y143536D01*
X26876Y143482D01*
X26905Y143426D01*
X26930Y143368D01*
X26951Y143309D01*
X26969Y143249D01*
X26982Y143187D01*
X26992Y143125D01*
X26998Y143063D01*
X27000Y143000D01*
X26998Y142937D01*
X26992Y142875D01*
X26982Y142813D01*
X26969Y142751D01*
X26951Y142691D01*
X26930Y142632D01*
X26905Y142574D01*
X26876Y142518D01*
X26844Y142464D01*
X26809Y142412D01*
X26771Y142363D01*
X26729Y142315D01*
X26685Y142271D01*
X26637Y142229D01*
X26588Y142191D01*
X26536Y142156D01*
X26482Y142124D01*
X26426Y142095D01*
X26368Y142070D01*
X26309Y142049D01*
X26249Y142031D01*
X26187Y142018D01*
X26125Y142008D01*
X26063Y142002D01*
X26000Y142000D01*
X25937Y142002D01*
X25875Y142008D01*
X25813Y142018D01*
X25751Y142031D01*
X25691Y142049D01*
X25632Y142070D01*
X25574Y142095D01*
X25518Y142124D01*
X25464Y142156D01*
X25412Y142191D01*
X25363Y142229D01*
X25315Y142271D01*
X25271Y142315D01*
X25229Y142363D01*
X25191Y142412D01*
X25156Y142464D01*
X25124Y142518D01*
X25095Y142574D01*
X25070Y142632D01*
X25049Y142691D01*
X25031Y142751D01*
X25018Y142813D01*
X25008Y142875D01*
X25002Y142937D01*
X25000Y143000D01*
D19*
X149000Y151000D02*
X153000Y151000D01*
D10*
X131025Y149780D02*
X131025Y156892D01*
X133000Y156892D01*
X133086Y156890D01*
X133172Y156884D01*
X133258Y156875D01*
X133343Y156862D01*
X133428Y156845D01*
X133511Y156825D01*
X133594Y156801D01*
X133676Y156773D01*
X133756Y156742D01*
X133835Y156707D01*
X133912Y156669D01*
X133988Y156627D01*
X134062Y156583D01*
X134133Y156535D01*
X134203Y156484D01*
X134270Y156430D01*
X134335Y156373D01*
X134397Y156313D01*
X134457Y156251D01*
X134514Y156186D01*
X134568Y156119D01*
X134619Y156049D01*
X134667Y155978D01*
X134711Y155904D01*
X134753Y155828D01*
X134791Y155751D01*
X134826Y155672D01*
X134857Y155592D01*
X134885Y155510D01*
X134909Y155427D01*
X134929Y155344D01*
X134946Y155259D01*
X134959Y155174D01*
X134968Y155088D01*
X134974Y155002D01*
X134976Y154916D01*
X134976Y151756D01*
X134977Y151756D02*
X134975Y151670D01*
X134969Y151584D01*
X134960Y151498D01*
X134947Y151413D01*
X134930Y151328D01*
X134910Y151245D01*
X134886Y151162D01*
X134858Y151080D01*
X134827Y151000D01*
X134792Y150921D01*
X134754Y150844D01*
X134712Y150768D01*
X134668Y150694D01*
X134620Y150623D01*
X134569Y150553D01*
X134515Y150486D01*
X134458Y150421D01*
X134398Y150359D01*
X134336Y150299D01*
X134271Y150242D01*
X134204Y150188D01*
X134134Y150137D01*
X134063Y150089D01*
X133989Y150045D01*
X133913Y150003D01*
X133836Y149965D01*
X133757Y149930D01*
X133677Y149899D01*
X133595Y149871D01*
X133512Y149847D01*
X133429Y149827D01*
X133344Y149810D01*
X133259Y149797D01*
X133173Y149788D01*
X133087Y149782D01*
X133001Y149780D01*
X133000Y149780D02*
X131025Y149780D01*
X138584Y149780D02*
X140955Y149780D01*
X141033Y149782D01*
X141110Y149788D01*
X141187Y149797D01*
X141263Y149810D01*
X141339Y149827D01*
X141414Y149848D01*
X141487Y149872D01*
X141560Y149900D01*
X141631Y149932D01*
X141700Y149967D01*
X141767Y150005D01*
X141833Y150046D01*
X141896Y150091D01*
X141957Y150139D01*
X142016Y150189D01*
X142072Y150243D01*
X142126Y150299D01*
X142176Y150358D01*
X142224Y150419D01*
X142269Y150482D01*
X142310Y150548D01*
X142348Y150615D01*
X142383Y150684D01*
X142415Y150755D01*
X142443Y150828D01*
X142467Y150901D01*
X142488Y150976D01*
X142505Y151052D01*
X142518Y151128D01*
X142527Y151205D01*
X142533Y151282D01*
X142535Y151360D01*
X142535Y152151D01*
X142533Y152229D01*
X142527Y152306D01*
X142518Y152383D01*
X142505Y152459D01*
X142488Y152535D01*
X142467Y152610D01*
X142443Y152683D01*
X142415Y152756D01*
X142383Y152827D01*
X142348Y152896D01*
X142310Y152963D01*
X142269Y153029D01*
X142224Y153092D01*
X142176Y153153D01*
X142126Y153212D01*
X142072Y153268D01*
X142016Y153322D01*
X141957Y153372D01*
X141896Y153420D01*
X141833Y153465D01*
X141767Y153506D01*
X141700Y153544D01*
X141631Y153579D01*
X141560Y153611D01*
X141487Y153639D01*
X141414Y153663D01*
X141339Y153684D01*
X141263Y153701D01*
X141187Y153714D01*
X141110Y153723D01*
X141033Y153729D01*
X140955Y153731D01*
X138584Y153731D01*
X138584Y156892D01*
X142535Y156892D01*
D17*
X115681Y114247D02*
X115681Y106881D01*
X115681Y114247D02*
X117727Y114247D01*
X117816Y114245D01*
X117905Y114239D01*
X117994Y114229D01*
X118082Y114216D01*
X118170Y114199D01*
X118257Y114177D01*
X118342Y114152D01*
X118427Y114124D01*
X118510Y114091D01*
X118592Y114055D01*
X118672Y114016D01*
X118750Y113973D01*
X118826Y113927D01*
X118901Y113877D01*
X118973Y113824D01*
X119042Y113768D01*
X119109Y113709D01*
X119174Y113648D01*
X119235Y113583D01*
X119294Y113516D01*
X119350Y113447D01*
X119403Y113375D01*
X119453Y113300D01*
X119499Y113224D01*
X119542Y113146D01*
X119581Y113066D01*
X119617Y112984D01*
X119650Y112901D01*
X119678Y112816D01*
X119703Y112731D01*
X119725Y112644D01*
X119742Y112556D01*
X119755Y112468D01*
X119765Y112379D01*
X119771Y112290D01*
X119773Y112201D01*
X119771Y112112D01*
X119765Y112023D01*
X119755Y111934D01*
X119742Y111846D01*
X119725Y111758D01*
X119703Y111671D01*
X119678Y111586D01*
X119650Y111501D01*
X119617Y111418D01*
X119581Y111336D01*
X119542Y111256D01*
X119499Y111178D01*
X119453Y111102D01*
X119403Y111027D01*
X119350Y110955D01*
X119294Y110886D01*
X119235Y110819D01*
X119174Y110754D01*
X119109Y110693D01*
X119042Y110634D01*
X118973Y110578D01*
X118901Y110525D01*
X118826Y110475D01*
X118750Y110429D01*
X118672Y110386D01*
X118592Y110347D01*
X118510Y110311D01*
X118427Y110278D01*
X118342Y110250D01*
X118257Y110225D01*
X118170Y110203D01*
X118082Y110186D01*
X117994Y110173D01*
X117905Y110163D01*
X117816Y110157D01*
X117727Y110155D01*
X115681Y110155D01*
X118136Y110155D02*
X119773Y106881D01*
X122945Y112610D02*
X124991Y114247D01*
X124991Y106881D01*
X122945Y106881D02*
X127037Y106881D01*
X130261Y110564D02*
X130263Y110717D01*
X130269Y110870D01*
X130278Y111022D01*
X130292Y111175D01*
X130309Y111327D01*
X130330Y111478D01*
X130355Y111629D01*
X130384Y111779D01*
X130416Y111929D01*
X130453Y112077D01*
X130493Y112225D01*
X130536Y112372D01*
X130584Y112517D01*
X130635Y112661D01*
X130689Y112804D01*
X130748Y112946D01*
X130809Y113085D01*
X130875Y113224D01*
X130874Y113224D02*
X130900Y113294D01*
X130930Y113364D01*
X130963Y113431D01*
X130999Y113497D01*
X131038Y113561D01*
X131081Y113623D01*
X131127Y113682D01*
X131175Y113740D01*
X131226Y113794D01*
X131280Y113847D01*
X131337Y113896D01*
X131396Y113943D01*
X131457Y113986D01*
X131520Y114027D01*
X131585Y114064D01*
X131652Y114099D01*
X131721Y114129D01*
X131791Y114157D01*
X131862Y114180D01*
X131934Y114201D01*
X132007Y114217D01*
X132081Y114230D01*
X132156Y114240D01*
X132231Y114245D01*
X132306Y114247D01*
X132381Y114245D01*
X132456Y114240D01*
X132531Y114230D01*
X132605Y114217D01*
X132678Y114201D01*
X132750Y114180D01*
X132821Y114157D01*
X132891Y114129D01*
X132960Y114099D01*
X133027Y114064D01*
X133092Y114027D01*
X133155Y113986D01*
X133216Y113943D01*
X133275Y113896D01*
X133332Y113847D01*
X133386Y113794D01*
X133437Y113740D01*
X133486Y113682D01*
X133531Y113623D01*
X133574Y113561D01*
X133613Y113497D01*
X133650Y113431D01*
X133682Y113363D01*
X133712Y113294D01*
X133738Y113224D01*
X133803Y113086D01*
X133865Y112946D01*
X133923Y112804D01*
X133978Y112661D01*
X134029Y112517D01*
X134077Y112372D01*
X134120Y112225D01*
X134160Y112078D01*
X134197Y111929D01*
X134229Y111779D01*
X134258Y111629D01*
X134283Y111478D01*
X134304Y111327D01*
X134321Y111175D01*
X134335Y111022D01*
X134344Y110870D01*
X134350Y110717D01*
X134352Y110564D01*
X130260Y110564D02*
X130262Y110411D01*
X130268Y110258D01*
X130277Y110105D01*
X130291Y109953D01*
X130308Y109801D01*
X130329Y109650D01*
X130354Y109499D01*
X130383Y109348D01*
X130415Y109199D01*
X130452Y109050D01*
X130492Y108903D01*
X130535Y108756D01*
X130583Y108611D01*
X130634Y108466D01*
X130689Y108324D01*
X130747Y108182D01*
X130809Y108042D01*
X130874Y107904D01*
X130900Y107833D01*
X130930Y107764D01*
X130963Y107697D01*
X130999Y107631D01*
X131038Y107567D01*
X131081Y107505D01*
X131127Y107446D01*
X131175Y107388D01*
X131226Y107334D01*
X131280Y107281D01*
X131337Y107232D01*
X131396Y107185D01*
X131457Y107142D01*
X131520Y107101D01*
X131585Y107064D01*
X131652Y107029D01*
X131721Y106999D01*
X131791Y106971D01*
X131862Y106948D01*
X131934Y106927D01*
X132007Y106911D01*
X132081Y106898D01*
X132156Y106888D01*
X132231Y106883D01*
X132306Y106881D01*
X133738Y107904D02*
X133803Y108042D01*
X133865Y108182D01*
X133923Y108324D01*
X133978Y108467D01*
X134029Y108611D01*
X134077Y108756D01*
X134120Y108903D01*
X134160Y109051D01*
X134197Y109199D01*
X134229Y109349D01*
X134258Y109499D01*
X134283Y109650D01*
X134304Y109801D01*
X134321Y109953D01*
X134335Y110106D01*
X134344Y110258D01*
X134350Y110411D01*
X134352Y110564D01*
X133738Y107904D02*
X133712Y107834D01*
X133682Y107764D01*
X133650Y107697D01*
X133613Y107631D01*
X133574Y107567D01*
X133531Y107505D01*
X133485Y107446D01*
X133437Y107388D01*
X133386Y107334D01*
X133332Y107281D01*
X133275Y107232D01*
X133216Y107185D01*
X133155Y107142D01*
X133092Y107101D01*
X133027Y107064D01*
X132960Y107029D01*
X132891Y106999D01*
X132821Y106971D01*
X132750Y106948D01*
X132678Y106927D01*
X132605Y106911D01*
X132531Y106898D01*
X132456Y106888D01*
X132381Y106883D01*
X132306Y106881D01*
X130669Y108518D02*
X133943Y112610D01*
D12*
X193706Y124700D02*
X202294Y124700D01*
X202294Y99300D02*
X193706Y99300D01*
X190912Y109316D02*
X190912Y114684D01*
D13*
X208160Y95998D03*
D17*
X208253Y126981D02*
X215619Y126981D01*
X208253Y126981D02*
X208253Y129027D01*
X208255Y129116D01*
X208261Y129205D01*
X208271Y129294D01*
X208284Y129382D01*
X208301Y129470D01*
X208323Y129557D01*
X208348Y129642D01*
X208376Y129727D01*
X208409Y129810D01*
X208445Y129892D01*
X208484Y129972D01*
X208527Y130050D01*
X208573Y130126D01*
X208623Y130201D01*
X208676Y130273D01*
X208732Y130342D01*
X208791Y130409D01*
X208852Y130474D01*
X208917Y130535D01*
X208984Y130594D01*
X209053Y130650D01*
X209125Y130703D01*
X209200Y130753D01*
X209276Y130799D01*
X209354Y130842D01*
X209434Y130881D01*
X209516Y130917D01*
X209599Y130950D01*
X209684Y130978D01*
X209769Y131003D01*
X209856Y131025D01*
X209944Y131042D01*
X210032Y131055D01*
X210121Y131065D01*
X210210Y131071D01*
X210299Y131073D01*
X210388Y131071D01*
X210477Y131065D01*
X210566Y131055D01*
X210654Y131042D01*
X210742Y131025D01*
X210829Y131003D01*
X210914Y130978D01*
X210999Y130950D01*
X211082Y130917D01*
X211164Y130881D01*
X211244Y130842D01*
X211322Y130799D01*
X211398Y130753D01*
X211473Y130703D01*
X211545Y130650D01*
X211614Y130594D01*
X211681Y130535D01*
X211746Y130474D01*
X211807Y130409D01*
X211866Y130342D01*
X211922Y130273D01*
X211975Y130201D01*
X212025Y130126D01*
X212071Y130050D01*
X212114Y129972D01*
X212153Y129892D01*
X212189Y129810D01*
X212222Y129727D01*
X212250Y129642D01*
X212275Y129557D01*
X212297Y129470D01*
X212314Y129382D01*
X212327Y129294D01*
X212337Y129205D01*
X212343Y129116D01*
X212345Y129027D01*
X212345Y126981D01*
X212345Y129436D02*
X215619Y131073D01*
X209890Y134245D02*
X208253Y136291D01*
X215619Y136291D01*
X215619Y134245D02*
X215619Y138337D01*
X209890Y141560D02*
X208253Y143606D01*
X215619Y143606D01*
X215619Y141560D02*
X215619Y145652D01*
X131081Y89247D02*
X131081Y81881D01*
X131081Y89247D02*
X133127Y89247D01*
X133216Y89245D01*
X133305Y89239D01*
X133394Y89229D01*
X133482Y89216D01*
X133570Y89199D01*
X133657Y89177D01*
X133742Y89152D01*
X133827Y89124D01*
X133910Y89091D01*
X133992Y89055D01*
X134072Y89016D01*
X134150Y88973D01*
X134226Y88927D01*
X134301Y88877D01*
X134373Y88824D01*
X134442Y88768D01*
X134509Y88709D01*
X134574Y88648D01*
X134635Y88583D01*
X134694Y88516D01*
X134750Y88447D01*
X134803Y88375D01*
X134853Y88300D01*
X134899Y88224D01*
X134942Y88146D01*
X134981Y88066D01*
X135017Y87984D01*
X135050Y87901D01*
X135078Y87816D01*
X135103Y87731D01*
X135125Y87644D01*
X135142Y87556D01*
X135155Y87468D01*
X135165Y87379D01*
X135171Y87290D01*
X135173Y87201D01*
X135171Y87112D01*
X135165Y87023D01*
X135155Y86934D01*
X135142Y86846D01*
X135125Y86758D01*
X135103Y86671D01*
X135078Y86586D01*
X135050Y86501D01*
X135017Y86418D01*
X134981Y86336D01*
X134942Y86256D01*
X134899Y86178D01*
X134853Y86102D01*
X134803Y86027D01*
X134750Y85955D01*
X134694Y85886D01*
X134635Y85819D01*
X134574Y85754D01*
X134509Y85693D01*
X134442Y85634D01*
X134373Y85578D01*
X134301Y85525D01*
X134226Y85475D01*
X134150Y85429D01*
X134072Y85386D01*
X133992Y85347D01*
X133910Y85311D01*
X133827Y85278D01*
X133742Y85250D01*
X133657Y85225D01*
X133570Y85203D01*
X133482Y85186D01*
X133394Y85173D01*
X133305Y85163D01*
X133216Y85157D01*
X133127Y85155D01*
X131081Y85155D01*
X133536Y85155D02*
X135173Y81881D01*
X138345Y87610D02*
X140391Y89247D01*
X140391Y81881D01*
X138345Y81881D02*
X142437Y81881D01*
X149753Y87406D02*
X149751Y87491D01*
X149745Y87576D01*
X149735Y87660D01*
X149722Y87744D01*
X149704Y87828D01*
X149683Y87910D01*
X149658Y87991D01*
X149629Y88071D01*
X149596Y88150D01*
X149560Y88227D01*
X149520Y88302D01*
X149477Y88376D01*
X149431Y88447D01*
X149381Y88516D01*
X149328Y88583D01*
X149272Y88647D01*
X149213Y88708D01*
X149152Y88767D01*
X149088Y88823D01*
X149021Y88876D01*
X148952Y88926D01*
X148881Y88972D01*
X148807Y89015D01*
X148732Y89055D01*
X148655Y89091D01*
X148576Y89124D01*
X148496Y89153D01*
X148415Y89178D01*
X148333Y89199D01*
X148249Y89217D01*
X148165Y89230D01*
X148081Y89240D01*
X147996Y89246D01*
X147911Y89248D01*
X147911Y89247D02*
X147815Y89245D01*
X147719Y89239D01*
X147624Y89229D01*
X147529Y89216D01*
X147434Y89198D01*
X147341Y89177D01*
X147248Y89152D01*
X147157Y89123D01*
X147066Y89091D01*
X146977Y89055D01*
X146890Y89015D01*
X146804Y88972D01*
X146720Y88926D01*
X146638Y88876D01*
X146558Y88822D01*
X146481Y88766D01*
X146406Y88706D01*
X146333Y88644D01*
X146263Y88578D01*
X146195Y88510D01*
X146130Y88439D01*
X146069Y88366D01*
X146010Y88290D01*
X145954Y88211D01*
X145902Y88131D01*
X145853Y88048D01*
X145807Y87964D01*
X145765Y87878D01*
X145727Y87790D01*
X145692Y87701D01*
X145660Y87610D01*
X149139Y85974D02*
X149199Y86033D01*
X149256Y86095D01*
X149311Y86159D01*
X149362Y86226D01*
X149411Y86295D01*
X149457Y86365D01*
X149500Y86438D01*
X149540Y86512D01*
X149576Y86588D01*
X149609Y86666D01*
X149639Y86745D01*
X149666Y86825D01*
X149689Y86906D01*
X149708Y86988D01*
X149724Y87070D01*
X149737Y87154D01*
X149746Y87238D01*
X149751Y87322D01*
X149753Y87406D01*
X149139Y85973D02*
X145660Y81881D01*
X149752Y81881D01*
D14*
X143763Y26125D02*
X134238Y26125D01*
D12*
X84145Y255750D02*
X49855Y255750D01*
X84145Y255750D02*
X84145Y254226D01*
X84145Y193774D02*
X84145Y192250D01*
X49855Y192250D01*
X49855Y193774D01*
X49855Y254226D02*
X49855Y255750D01*
X84145Y244574D02*
X84145Y241526D01*
X84145Y231874D02*
X84145Y228826D01*
X84145Y219174D02*
X84145Y216126D01*
X84145Y206474D02*
X84145Y203426D01*
X49855Y203426D02*
X49855Y206474D01*
X49855Y216126D02*
X49855Y219174D01*
X49855Y228826D02*
X49855Y231874D01*
X49855Y241526D02*
X49855Y244574D01*
D20*
X36719Y117446D02*
X36719Y110334D01*
X36719Y117446D02*
X38695Y117446D01*
X38782Y117444D01*
X38870Y117438D01*
X38957Y117429D01*
X39043Y117415D01*
X39129Y117398D01*
X39213Y117377D01*
X39297Y117352D01*
X39380Y117323D01*
X39461Y117291D01*
X39541Y117256D01*
X39619Y117217D01*
X39696Y117174D01*
X39770Y117128D01*
X39842Y117079D01*
X39912Y117027D01*
X39980Y116971D01*
X40045Y116913D01*
X40108Y116852D01*
X40167Y116788D01*
X40224Y116721D01*
X40278Y116653D01*
X40329Y116581D01*
X40376Y116508D01*
X40421Y116433D01*
X40462Y116355D01*
X40499Y116276D01*
X40533Y116196D01*
X40563Y116114D01*
X40590Y116031D01*
X40613Y115946D01*
X40632Y115861D01*
X40647Y115775D01*
X40659Y115688D01*
X40667Y115601D01*
X40671Y115514D01*
X40671Y115426D01*
X40667Y115339D01*
X40659Y115252D01*
X40647Y115165D01*
X40632Y115079D01*
X40613Y114994D01*
X40590Y114909D01*
X40563Y114826D01*
X40533Y114744D01*
X40499Y114664D01*
X40462Y114585D01*
X40421Y114507D01*
X40376Y114432D01*
X40329Y114359D01*
X40278Y114287D01*
X40224Y114219D01*
X40167Y114152D01*
X40108Y114088D01*
X40045Y114027D01*
X39980Y113969D01*
X39912Y113913D01*
X39842Y113861D01*
X39770Y113812D01*
X39696Y113766D01*
X39619Y113723D01*
X39541Y113684D01*
X39461Y113649D01*
X39380Y113617D01*
X39297Y113588D01*
X39213Y113563D01*
X39129Y113542D01*
X39043Y113525D01*
X38957Y113511D01*
X38870Y113502D01*
X38782Y113496D01*
X38695Y113494D01*
X38695Y113495D02*
X36719Y113495D01*
X39090Y113495D02*
X40671Y110334D01*
X43537Y115866D02*
X45512Y117446D01*
X45512Y110334D01*
X43537Y110334D02*
X47488Y110334D01*
X50395Y110334D02*
X52370Y110334D01*
X52457Y110336D01*
X52545Y110342D01*
X52632Y110351D01*
X52718Y110365D01*
X52804Y110382D01*
X52888Y110403D01*
X52972Y110428D01*
X53055Y110457D01*
X53136Y110489D01*
X53216Y110524D01*
X53294Y110563D01*
X53371Y110606D01*
X53445Y110652D01*
X53517Y110701D01*
X53587Y110753D01*
X53655Y110809D01*
X53720Y110867D01*
X53783Y110928D01*
X53842Y110992D01*
X53899Y111059D01*
X53953Y111127D01*
X54004Y111199D01*
X54051Y111272D01*
X54096Y111347D01*
X54137Y111425D01*
X54174Y111504D01*
X54208Y111584D01*
X54238Y111666D01*
X54265Y111749D01*
X54288Y111834D01*
X54307Y111919D01*
X54322Y112005D01*
X54334Y112092D01*
X54342Y112179D01*
X54346Y112266D01*
X54346Y112354D01*
X54342Y112441D01*
X54334Y112528D01*
X54322Y112615D01*
X54307Y112701D01*
X54288Y112786D01*
X54265Y112871D01*
X54238Y112954D01*
X54208Y113036D01*
X54174Y113116D01*
X54137Y113195D01*
X54096Y113273D01*
X54051Y113348D01*
X54004Y113421D01*
X53953Y113493D01*
X53899Y113561D01*
X53842Y113628D01*
X53783Y113692D01*
X53720Y113753D01*
X53655Y113811D01*
X53587Y113867D01*
X53517Y113919D01*
X53445Y113968D01*
X53371Y114014D01*
X53294Y114057D01*
X53216Y114096D01*
X53136Y114131D01*
X53055Y114163D01*
X52972Y114192D01*
X52888Y114217D01*
X52804Y114238D01*
X52718Y114255D01*
X52632Y114269D01*
X52545Y114278D01*
X52457Y114284D01*
X52370Y114286D01*
X52766Y117446D02*
X50395Y117446D01*
X52766Y117446D02*
X52845Y117444D01*
X52923Y117438D01*
X53001Y117428D01*
X53079Y117415D01*
X53156Y117397D01*
X53232Y117376D01*
X53306Y117351D01*
X53380Y117322D01*
X53452Y117290D01*
X53522Y117254D01*
X53590Y117214D01*
X53656Y117171D01*
X53720Y117125D01*
X53782Y117076D01*
X53841Y117024D01*
X53897Y116969D01*
X53951Y116911D01*
X54001Y116851D01*
X54049Y116788D01*
X54093Y116723D01*
X54134Y116656D01*
X54172Y116587D01*
X54206Y116516D01*
X54237Y116443D01*
X54264Y116369D01*
X54287Y116294D01*
X54306Y116218D01*
X54322Y116140D01*
X54334Y116062D01*
X54342Y115984D01*
X54346Y115905D01*
X54346Y115827D01*
X54342Y115748D01*
X54334Y115670D01*
X54322Y115592D01*
X54306Y115514D01*
X54287Y115438D01*
X54264Y115363D01*
X54237Y115289D01*
X54206Y115216D01*
X54172Y115145D01*
X54134Y115076D01*
X54093Y115009D01*
X54049Y114944D01*
X54001Y114881D01*
X53951Y114821D01*
X53897Y114763D01*
X53841Y114708D01*
X53782Y114656D01*
X53720Y114607D01*
X53656Y114561D01*
X53590Y114518D01*
X53522Y114478D01*
X53452Y114442D01*
X53380Y114410D01*
X53306Y114381D01*
X53232Y114356D01*
X53156Y114335D01*
X53079Y114317D01*
X53001Y114304D01*
X52923Y114294D01*
X52845Y114288D01*
X52766Y114286D01*
X52766Y114285D02*
X51185Y114285D01*
D17*
X158953Y138981D02*
X166319Y138981D01*
X158953Y138981D02*
X158953Y141027D01*
X158955Y141116D01*
X158961Y141205D01*
X158971Y141294D01*
X158984Y141382D01*
X159001Y141470D01*
X159023Y141557D01*
X159048Y141642D01*
X159076Y141727D01*
X159109Y141810D01*
X159145Y141892D01*
X159184Y141972D01*
X159227Y142050D01*
X159273Y142126D01*
X159323Y142201D01*
X159376Y142273D01*
X159432Y142342D01*
X159491Y142409D01*
X159552Y142474D01*
X159617Y142535D01*
X159684Y142594D01*
X159753Y142650D01*
X159825Y142703D01*
X159900Y142753D01*
X159976Y142799D01*
X160054Y142842D01*
X160134Y142881D01*
X160216Y142917D01*
X160299Y142950D01*
X160384Y142978D01*
X160469Y143003D01*
X160556Y143025D01*
X160644Y143042D01*
X160732Y143055D01*
X160821Y143065D01*
X160910Y143071D01*
X160999Y143073D01*
X161088Y143071D01*
X161177Y143065D01*
X161266Y143055D01*
X161354Y143042D01*
X161442Y143025D01*
X161529Y143003D01*
X161614Y142978D01*
X161699Y142950D01*
X161782Y142917D01*
X161864Y142881D01*
X161944Y142842D01*
X162022Y142799D01*
X162098Y142753D01*
X162173Y142703D01*
X162245Y142650D01*
X162314Y142594D01*
X162381Y142535D01*
X162446Y142474D01*
X162507Y142409D01*
X162566Y142342D01*
X162622Y142273D01*
X162675Y142201D01*
X162725Y142126D01*
X162771Y142050D01*
X162814Y141972D01*
X162853Y141892D01*
X162889Y141810D01*
X162922Y141727D01*
X162950Y141642D01*
X162975Y141557D01*
X162997Y141470D01*
X163014Y141382D01*
X163027Y141294D01*
X163037Y141205D01*
X163043Y141116D01*
X163045Y141027D01*
X163045Y138981D01*
X163045Y141436D02*
X166319Y143073D01*
X160590Y146245D02*
X158953Y148291D01*
X166319Y148291D01*
X166319Y146245D02*
X166319Y150337D01*
X164682Y153560D02*
X158953Y155197D01*
X164682Y153560D02*
X164682Y157652D01*
X163045Y156425D02*
X166319Y156425D01*
M02*
