G04 EAGLE Gerber RS-274X export*
G75*
%MOMM*%
%FSLAX34Y34*%
%LPD*%
%INSilkscreen Bottom*%
%IPPOS*%
%AMOC8*
5,1,8,0,0,1.08239X$1,22.5*%
G01*
%ADD10C,0.152400*%
%ADD11C,0.203200*%


D10*
X221213Y403762D02*
X221213Y407487D01*
X224938Y405004D02*
X215625Y405004D01*
X215625Y405003D02*
X215541Y405005D01*
X215458Y405010D01*
X215375Y405020D01*
X215292Y405033D01*
X215210Y405050D01*
X215129Y405070D01*
X215049Y405094D01*
X214970Y405122D01*
X214893Y405153D01*
X214817Y405187D01*
X214742Y405225D01*
X214669Y405267D01*
X214599Y405311D01*
X214530Y405359D01*
X214463Y405409D01*
X214399Y405463D01*
X214338Y405519D01*
X214278Y405579D01*
X214222Y405640D01*
X214168Y405704D01*
X214118Y405771D01*
X214070Y405840D01*
X214026Y405910D01*
X213984Y405983D01*
X213946Y406058D01*
X213912Y406134D01*
X213881Y406211D01*
X213853Y406290D01*
X213829Y406370D01*
X213809Y406451D01*
X213792Y406533D01*
X213779Y406616D01*
X213769Y406699D01*
X213764Y406782D01*
X213762Y406866D01*
X213762Y407487D01*
X213762Y411526D02*
X214383Y411526D01*
X214383Y412147D01*
X213762Y412147D01*
X213762Y411526D01*
X213762Y417255D02*
X221213Y417255D01*
X221213Y422843D01*
X221211Y422927D01*
X221206Y423010D01*
X221196Y423093D01*
X221183Y423176D01*
X221166Y423258D01*
X221146Y423339D01*
X221122Y423419D01*
X221094Y423498D01*
X221063Y423575D01*
X221029Y423651D01*
X220991Y423726D01*
X220949Y423799D01*
X220905Y423869D01*
X220857Y423938D01*
X220807Y424005D01*
X220753Y424069D01*
X220697Y424130D01*
X220637Y424190D01*
X220576Y424246D01*
X220512Y424300D01*
X220445Y424350D01*
X220376Y424398D01*
X220306Y424442D01*
X220233Y424484D01*
X220158Y424522D01*
X220082Y424556D01*
X220005Y424587D01*
X219926Y424615D01*
X219846Y424639D01*
X219765Y424659D01*
X219683Y424676D01*
X219600Y424689D01*
X219517Y424699D01*
X219434Y424704D01*
X219350Y424706D01*
X219350Y424705D02*
X213762Y424705D01*
X213762Y420980D02*
X221213Y420980D01*
X213762Y432170D02*
X213762Y435275D01*
X213762Y432170D02*
X213764Y432086D01*
X213769Y432003D01*
X213779Y431920D01*
X213792Y431837D01*
X213809Y431755D01*
X213829Y431674D01*
X213853Y431594D01*
X213881Y431515D01*
X213912Y431438D01*
X213946Y431362D01*
X213984Y431287D01*
X214026Y431214D01*
X214070Y431144D01*
X214118Y431075D01*
X214168Y431008D01*
X214222Y430944D01*
X214278Y430883D01*
X214338Y430823D01*
X214399Y430767D01*
X214463Y430713D01*
X214530Y430663D01*
X214599Y430615D01*
X214669Y430571D01*
X214742Y430529D01*
X214817Y430491D01*
X214893Y430457D01*
X214970Y430426D01*
X215049Y430398D01*
X215129Y430374D01*
X215210Y430354D01*
X215292Y430337D01*
X215375Y430324D01*
X215458Y430314D01*
X215541Y430309D01*
X215625Y430307D01*
X215625Y430308D02*
X218729Y430308D01*
X218729Y430307D02*
X218828Y430309D01*
X218926Y430315D01*
X219025Y430325D01*
X219122Y430338D01*
X219220Y430356D01*
X219316Y430377D01*
X219412Y430403D01*
X219506Y430432D01*
X219599Y430464D01*
X219691Y430501D01*
X219781Y430541D01*
X219870Y430585D01*
X219957Y430632D01*
X220042Y430682D01*
X220124Y430736D01*
X220205Y430793D01*
X220283Y430853D01*
X220359Y430917D01*
X220432Y430983D01*
X220503Y431052D01*
X220571Y431124D01*
X220635Y431199D01*
X220697Y431276D01*
X220756Y431355D01*
X220811Y431437D01*
X220864Y431521D01*
X220912Y431606D01*
X220958Y431694D01*
X221000Y431784D01*
X221038Y431875D01*
X221072Y431967D01*
X221103Y432061D01*
X221130Y432156D01*
X221154Y432252D01*
X221173Y432349D01*
X221189Y432446D01*
X221201Y432544D01*
X221209Y432643D01*
X221213Y432742D01*
X221213Y432840D01*
X221209Y432939D01*
X221201Y433038D01*
X221189Y433136D01*
X221173Y433233D01*
X221154Y433330D01*
X221130Y433426D01*
X221103Y433521D01*
X221072Y433615D01*
X221038Y433707D01*
X221000Y433798D01*
X220958Y433888D01*
X220912Y433976D01*
X220864Y434061D01*
X220811Y434145D01*
X220756Y434227D01*
X220697Y434306D01*
X220635Y434383D01*
X220571Y434458D01*
X220503Y434530D01*
X220432Y434599D01*
X220359Y434665D01*
X220283Y434729D01*
X220205Y434789D01*
X220124Y434846D01*
X220042Y434900D01*
X219957Y434950D01*
X219870Y434997D01*
X219781Y435041D01*
X219691Y435081D01*
X219599Y435118D01*
X219506Y435150D01*
X219412Y435179D01*
X219316Y435205D01*
X219220Y435226D01*
X219122Y435244D01*
X219025Y435257D01*
X218926Y435267D01*
X218828Y435273D01*
X218729Y435275D01*
X217487Y435275D01*
X217487Y430308D01*
X212520Y439832D02*
X226180Y444800D01*
X224938Y454251D02*
X213762Y454251D01*
X213762Y451146D01*
X213764Y451062D01*
X213769Y450979D01*
X213779Y450896D01*
X213792Y450813D01*
X213809Y450731D01*
X213829Y450650D01*
X213853Y450570D01*
X213881Y450491D01*
X213912Y450414D01*
X213946Y450338D01*
X213984Y450263D01*
X214026Y450190D01*
X214070Y450120D01*
X214118Y450051D01*
X214168Y449984D01*
X214222Y449920D01*
X214278Y449859D01*
X214338Y449799D01*
X214399Y449743D01*
X214463Y449689D01*
X214530Y449639D01*
X214599Y449591D01*
X214669Y449547D01*
X214742Y449505D01*
X214817Y449467D01*
X214893Y449433D01*
X214970Y449402D01*
X215049Y449374D01*
X215129Y449350D01*
X215210Y449330D01*
X215292Y449313D01*
X215375Y449300D01*
X215458Y449290D01*
X215541Y449285D01*
X215625Y449283D01*
X215625Y449284D02*
X219350Y449284D01*
X219350Y449283D02*
X219434Y449285D01*
X219517Y449291D01*
X219600Y449300D01*
X219683Y449313D01*
X219765Y449330D01*
X219846Y449350D01*
X219926Y449374D01*
X220005Y449402D01*
X220082Y449433D01*
X220158Y449467D01*
X220233Y449505D01*
X220306Y449547D01*
X220376Y449591D01*
X220445Y449639D01*
X220512Y449689D01*
X220576Y449743D01*
X220637Y449799D01*
X220697Y449859D01*
X220753Y449920D01*
X220807Y449984D01*
X220857Y450051D01*
X220905Y450120D01*
X220949Y450190D01*
X220991Y450263D01*
X221029Y450338D01*
X221063Y450414D01*
X221094Y450491D01*
X221122Y450570D01*
X221146Y450650D01*
X221166Y450731D01*
X221183Y450813D01*
X221196Y450896D01*
X221206Y450979D01*
X221211Y451062D01*
X221213Y451146D01*
X221213Y454251D01*
X213762Y461507D02*
X213762Y464612D01*
X213762Y461507D02*
X213764Y461423D01*
X213769Y461340D01*
X213779Y461257D01*
X213792Y461174D01*
X213809Y461092D01*
X213829Y461011D01*
X213853Y460931D01*
X213881Y460852D01*
X213912Y460775D01*
X213946Y460699D01*
X213984Y460624D01*
X214026Y460551D01*
X214070Y460481D01*
X214118Y460412D01*
X214168Y460345D01*
X214222Y460281D01*
X214278Y460220D01*
X214338Y460160D01*
X214399Y460104D01*
X214463Y460050D01*
X214530Y460000D01*
X214599Y459952D01*
X214669Y459908D01*
X214742Y459866D01*
X214817Y459828D01*
X214893Y459794D01*
X214970Y459763D01*
X215049Y459735D01*
X215129Y459711D01*
X215210Y459691D01*
X215292Y459674D01*
X215375Y459661D01*
X215458Y459651D01*
X215541Y459646D01*
X215625Y459644D01*
X218729Y459644D01*
X218828Y459646D01*
X218926Y459652D01*
X219025Y459662D01*
X219122Y459675D01*
X219220Y459693D01*
X219316Y459714D01*
X219412Y459740D01*
X219506Y459769D01*
X219599Y459801D01*
X219691Y459838D01*
X219781Y459878D01*
X219870Y459922D01*
X219957Y459969D01*
X220042Y460019D01*
X220124Y460073D01*
X220205Y460130D01*
X220283Y460190D01*
X220359Y460254D01*
X220432Y460320D01*
X220503Y460389D01*
X220571Y460461D01*
X220635Y460536D01*
X220697Y460613D01*
X220756Y460692D01*
X220811Y460774D01*
X220864Y460858D01*
X220912Y460943D01*
X220958Y461031D01*
X221000Y461121D01*
X221038Y461212D01*
X221072Y461304D01*
X221103Y461398D01*
X221130Y461493D01*
X221154Y461589D01*
X221173Y461686D01*
X221189Y461783D01*
X221201Y461881D01*
X221209Y461980D01*
X221213Y462079D01*
X221213Y462177D01*
X221209Y462276D01*
X221201Y462375D01*
X221189Y462473D01*
X221173Y462570D01*
X221154Y462667D01*
X221130Y462763D01*
X221103Y462858D01*
X221072Y462952D01*
X221038Y463044D01*
X221000Y463135D01*
X220958Y463225D01*
X220912Y463313D01*
X220864Y463398D01*
X220811Y463482D01*
X220756Y463564D01*
X220697Y463643D01*
X220635Y463720D01*
X220571Y463795D01*
X220503Y463867D01*
X220432Y463936D01*
X220359Y464002D01*
X220283Y464066D01*
X220205Y464126D01*
X220124Y464183D01*
X220042Y464237D01*
X219957Y464287D01*
X219870Y464334D01*
X219781Y464378D01*
X219691Y464418D01*
X219599Y464455D01*
X219506Y464487D01*
X219412Y464516D01*
X219316Y464542D01*
X219220Y464563D01*
X219122Y464581D01*
X219025Y464594D01*
X218926Y464604D01*
X218828Y464610D01*
X218729Y464612D01*
X217487Y464612D01*
X217487Y459644D01*
X218108Y471650D02*
X218108Y474444D01*
X218108Y471650D02*
X218106Y471558D01*
X218100Y471466D01*
X218090Y471374D01*
X218077Y471283D01*
X218059Y471192D01*
X218038Y471102D01*
X218013Y471014D01*
X217984Y470926D01*
X217951Y470840D01*
X217915Y470755D01*
X217875Y470672D01*
X217832Y470590D01*
X217785Y470511D01*
X217735Y470433D01*
X217682Y470358D01*
X217626Y470285D01*
X217566Y470214D01*
X217504Y470146D01*
X217439Y470081D01*
X217371Y470019D01*
X217300Y469959D01*
X217227Y469903D01*
X217152Y469850D01*
X217074Y469800D01*
X216995Y469753D01*
X216913Y469710D01*
X216830Y469670D01*
X216745Y469634D01*
X216659Y469601D01*
X216571Y469572D01*
X216483Y469547D01*
X216393Y469526D01*
X216302Y469508D01*
X216211Y469495D01*
X216119Y469485D01*
X216027Y469479D01*
X215935Y469477D01*
X215843Y469479D01*
X215751Y469485D01*
X215659Y469495D01*
X215568Y469508D01*
X215477Y469526D01*
X215387Y469547D01*
X215299Y469572D01*
X215211Y469601D01*
X215125Y469634D01*
X215040Y469670D01*
X214957Y469710D01*
X214875Y469753D01*
X214796Y469800D01*
X214718Y469850D01*
X214643Y469903D01*
X214570Y469959D01*
X214499Y470019D01*
X214431Y470081D01*
X214366Y470146D01*
X214304Y470214D01*
X214244Y470285D01*
X214188Y470358D01*
X214135Y470433D01*
X214085Y470511D01*
X214038Y470590D01*
X213995Y470672D01*
X213955Y470755D01*
X213919Y470840D01*
X213886Y470926D01*
X213857Y471014D01*
X213832Y471102D01*
X213811Y471192D01*
X213793Y471283D01*
X213780Y471374D01*
X213770Y471466D01*
X213764Y471558D01*
X213762Y471650D01*
X213762Y474444D01*
X219350Y474444D01*
X219434Y474442D01*
X219517Y474437D01*
X219600Y474427D01*
X219683Y474414D01*
X219765Y474397D01*
X219846Y474377D01*
X219926Y474353D01*
X220005Y474325D01*
X220082Y474294D01*
X220158Y474260D01*
X220233Y474222D01*
X220306Y474180D01*
X220376Y474136D01*
X220445Y474088D01*
X220512Y474038D01*
X220576Y473984D01*
X220637Y473928D01*
X220697Y473868D01*
X220753Y473807D01*
X220807Y473743D01*
X220857Y473676D01*
X220905Y473607D01*
X220949Y473537D01*
X220991Y473464D01*
X221029Y473389D01*
X221063Y473313D01*
X221094Y473236D01*
X221122Y473157D01*
X221146Y473077D01*
X221166Y472996D01*
X221183Y472914D01*
X221196Y472831D01*
X221206Y472748D01*
X221211Y472665D01*
X221213Y472581D01*
X221213Y470098D01*
X213762Y479456D02*
X221213Y484423D01*
X221213Y479456D02*
X213762Y484423D01*
X213762Y488600D02*
X221213Y493567D01*
X221213Y488600D02*
X213762Y493567D01*
D11*
X180770Y108445D02*
X180770Y97946D01*
X175521Y103195D02*
X186020Y103195D01*
X196405Y102800D02*
X206904Y102800D01*
M02*
