G04 EAGLE Gerber RS-274X export*
G75*
%MOMM*%
%FSLAX34Y34*%
%LPD*%
%INSoldermask Top*%
%IPPOS*%
%AMOC8*
5,1,8,0,0,1.08239X$1,22.5*%
G01*
%ADD10C,2.701600*%
%ADD11R,0.300000X0.600000*%
%ADD12R,0.600000X0.300000*%
%ADD13R,0.500000X0.500000*%
%ADD14R,0.651600X1.301600*%
%ADD15R,1.101600X4.701600*%
%ADD16R,1.701600X3.501600*%
%ADD17R,1.101600X1.001600*%
%ADD18C,0.396575*%
%ADD19R,0.641600X0.701600*%
%ADD20R,1.101600X1.201600*%
%ADD21R,0.701600X0.641600*%
%ADD22R,0.701600X1.551600*%
%ADD23R,0.401600X1.551600*%
%ADD24C,1.259600*%
%ADD25C,0.801600*%
%ADD26R,1.201600X1.101600*%
%ADD27C,0.300959*%
%ADD28R,1.524000X0.812800*%
%ADD29R,0.812800X1.524000*%
%ADD30C,1.981200*%
%ADD31C,0.349309*%
%ADD32C,0.248975*%
%ADD33R,0.901600X1.101600*%
%ADD34R,1.101600X1.501600*%
%ADD35R,1.301600X0.651600*%
%ADD36R,1.371600X0.609600*%
%ADD37R,1.219200X0.584200*%


D10*
X14071Y537481D03*
X227431Y537481D03*
D11*
X83291Y103031D03*
X88291Y103031D03*
X93291Y103031D03*
X98291Y103031D03*
X103291Y103031D03*
X108291Y103031D03*
X113291Y103031D03*
D12*
X121291Y111031D03*
X121291Y116031D03*
X121291Y121031D03*
X121291Y126031D03*
X121291Y131031D03*
X121291Y136031D03*
X121291Y141031D03*
D11*
X113291Y149031D03*
X108291Y149031D03*
X103291Y149031D03*
X98291Y149031D03*
X93291Y149031D03*
X88291Y149031D03*
X83291Y149031D03*
D12*
X75291Y141031D03*
X75291Y136031D03*
X75291Y131031D03*
X75291Y126031D03*
X75291Y121031D03*
X75291Y116031D03*
X75291Y111031D03*
D13*
X77266Y105006D03*
D11*
X85791Y116031D03*
X85791Y126031D03*
X85791Y136031D03*
X90791Y116031D03*
X90791Y126031D03*
X90791Y136031D03*
X95791Y116031D03*
X95791Y126031D03*
X95791Y136031D03*
X100791Y116031D03*
X100791Y126031D03*
X100791Y136031D03*
X105791Y116031D03*
X105791Y126031D03*
X105791Y136031D03*
X110791Y116031D03*
X110791Y126031D03*
X110791Y136031D03*
D14*
X158791Y161030D03*
X168291Y161030D03*
X177791Y161030D03*
X177791Y187032D03*
X158791Y187032D03*
D15*
X198291Y56031D03*
X178291Y56031D03*
D16*
X222291Y4031D03*
X154291Y4031D03*
D17*
X188291Y241531D03*
X204291Y241531D03*
X204291Y200531D03*
X188291Y200531D03*
X150291Y241531D03*
X166291Y241531D03*
X166291Y200531D03*
X150291Y200531D03*
D18*
X11046Y495506D02*
X11046Y502556D01*
X11046Y495506D02*
X3996Y495506D01*
X3996Y502556D01*
X11046Y502556D01*
X11046Y499274D02*
X3996Y499274D01*
X28586Y502556D02*
X28586Y495506D01*
X21536Y495506D01*
X21536Y502556D01*
X28586Y502556D01*
X28586Y499274D02*
X21536Y499274D01*
X232536Y502556D02*
X232536Y495506D01*
X232536Y502556D02*
X239586Y502556D01*
X239586Y495506D01*
X232536Y495506D01*
X232536Y499274D02*
X239586Y499274D01*
X214996Y502556D02*
X214996Y495506D01*
X214996Y502556D02*
X222046Y502556D01*
X222046Y495506D01*
X214996Y495506D01*
X214996Y499274D02*
X222046Y499274D01*
D19*
X223971Y487031D03*
X232611Y487031D03*
X17611Y487031D03*
X8971Y487031D03*
D20*
X191791Y170531D03*
X191791Y187531D03*
X142791Y187531D03*
X142791Y170531D03*
D17*
X128291Y201531D03*
X112291Y201531D03*
X112291Y242531D03*
X128291Y242531D03*
D21*
X207491Y162851D03*
X207491Y154211D03*
D22*
X28268Y62950D03*
X36268Y62950D03*
D23*
X58268Y62950D03*
X53268Y62950D03*
X48268Y62950D03*
X43268Y62950D03*
X63268Y62950D03*
X68268Y62950D03*
X73268Y62950D03*
X78268Y62950D03*
D22*
X85268Y62950D03*
X93268Y62950D03*
D24*
X17568Y17790D02*
X17568Y6210D01*
X103968Y6210D02*
X103968Y17790D01*
D25*
X31868Y48500D03*
X89668Y48500D03*
D24*
X17614Y48116D02*
X17614Y59696D01*
X103944Y59594D02*
X103944Y48014D01*
X17637Y48027D02*
X17637Y59607D01*
X103949Y59663D02*
X103949Y48083D01*
D21*
X43291Y90351D03*
X43291Y81711D03*
X68291Y78711D03*
X68291Y87351D03*
X80291Y78711D03*
X80291Y87351D03*
D26*
X120791Y82031D03*
X137791Y82031D03*
D21*
X132291Y122351D03*
X132291Y113711D03*
D27*
X39944Y158528D02*
X31038Y158528D01*
X31038Y160534D01*
X39944Y160534D01*
X39944Y158528D01*
X39944Y152028D02*
X31038Y152028D01*
X31038Y154034D01*
X39944Y154034D01*
X39944Y152028D01*
X39944Y145528D02*
X31038Y145528D01*
X31038Y147534D01*
X39944Y147534D01*
X39944Y145528D01*
X49438Y147534D02*
X58344Y147534D01*
X58344Y145528D01*
X49438Y145528D01*
X49438Y147534D01*
X49438Y154034D02*
X58344Y154034D01*
X58344Y152028D01*
X49438Y152028D01*
X49438Y154034D01*
X49438Y160534D02*
X58344Y160534D01*
X58344Y158528D01*
X49438Y158528D01*
X49438Y160534D01*
D18*
X117766Y21786D02*
X124816Y21786D01*
X124816Y14736D01*
X117766Y14736D01*
X117766Y21786D01*
X117766Y18504D02*
X124816Y18504D01*
X124816Y39326D02*
X117766Y39326D01*
X124816Y39326D02*
X124816Y32276D01*
X117766Y32276D01*
X117766Y39326D01*
X117766Y36044D02*
X124816Y36044D01*
D21*
X119291Y58351D03*
X119291Y49711D03*
D28*
X206879Y299503D03*
X206879Y312203D03*
X206879Y324903D03*
X206879Y337603D03*
X206879Y350303D03*
X206879Y363003D03*
X206879Y375703D03*
X206879Y388403D03*
X206879Y401103D03*
X206879Y413803D03*
X206879Y426503D03*
X206879Y439203D03*
X34203Y299633D03*
X34203Y312333D03*
X34203Y325033D03*
X34203Y337733D03*
X34203Y350433D03*
X34203Y363133D03*
X34203Y375833D03*
X34203Y388533D03*
X34203Y401233D03*
X34203Y413933D03*
X34203Y426633D03*
X34203Y439333D03*
D29*
X165199Y270811D03*
X152499Y270811D03*
X139799Y270811D03*
X127099Y270811D03*
X114399Y270811D03*
X101699Y270811D03*
X88999Y270811D03*
X76299Y270811D03*
X63599Y270811D03*
X177672Y270793D03*
D30*
X6291Y91031D03*
X6291Y116431D03*
X6291Y141831D03*
X6291Y167231D03*
X6291Y192631D03*
X6291Y218031D03*
X6291Y243431D03*
X6291Y268831D03*
X6291Y294231D03*
X6291Y319631D03*
X6291Y345031D03*
X6291Y370431D03*
X6291Y395831D03*
X6291Y421231D03*
X6291Y446631D03*
X6291Y472031D03*
X235291Y91031D03*
X235291Y116431D03*
X235291Y141831D03*
X235291Y167231D03*
X235291Y192631D03*
X235291Y218031D03*
X235291Y243431D03*
X235291Y268831D03*
X235291Y294231D03*
X235291Y319631D03*
X235291Y345031D03*
X235291Y370431D03*
X235291Y395831D03*
X235291Y421231D03*
X235291Y446631D03*
X235291Y472031D03*
D31*
X38703Y123919D02*
X28779Y123919D01*
X28779Y131343D01*
X38703Y131343D01*
X38703Y123919D01*
X38703Y127237D02*
X28779Y127237D01*
X28779Y130555D02*
X38703Y130555D01*
D32*
X39204Y108218D02*
X28278Y108218D01*
X28278Y112644D01*
X39204Y112644D01*
X39204Y108218D01*
X39204Y110583D02*
X28278Y110583D01*
X49378Y108218D02*
X60304Y108218D01*
X49378Y108218D02*
X49378Y112644D01*
X60304Y112644D01*
X60304Y108218D01*
X60304Y110583D02*
X49378Y110583D01*
X49378Y127418D02*
X60304Y127418D01*
X49378Y127418D02*
X49378Y131844D01*
X60304Y131844D01*
X60304Y127418D01*
X60304Y129783D02*
X49378Y129783D01*
D33*
X147291Y149531D03*
X147291Y126531D03*
D34*
X157291Y86031D03*
X147791Y108031D03*
X166791Y108031D03*
D21*
X107291Y90351D03*
X107291Y81711D03*
D35*
X207292Y87531D03*
X207292Y97031D03*
X207292Y106531D03*
X181290Y106531D03*
X181290Y87531D03*
D19*
X189971Y118031D03*
X198611Y118031D03*
D21*
X135291Y49711D03*
X135291Y58351D03*
D18*
X131766Y21786D02*
X138816Y21786D01*
X138816Y14736D01*
X131766Y14736D01*
X131766Y21786D01*
X131766Y18504D02*
X138816Y18504D01*
X138816Y39326D02*
X131766Y39326D01*
X138816Y39326D02*
X138816Y32276D01*
X131766Y32276D01*
X131766Y39326D01*
X131766Y36044D02*
X138816Y36044D01*
D36*
X87421Y209031D03*
X87421Y196331D03*
X87421Y183631D03*
X87421Y221731D03*
X87421Y234431D03*
X39161Y234431D03*
X39161Y221731D03*
X39161Y209031D03*
X39161Y196331D03*
X39161Y183631D03*
D37*
X179953Y148531D03*
X179953Y129531D03*
X203829Y139031D03*
D21*
X31191Y90451D03*
X31191Y81811D03*
X168791Y138251D03*
X168791Y129611D03*
X83921Y158511D03*
X83921Y167151D03*
X96621Y158511D03*
X96621Y167151D03*
M02*
