G04 EAGLE Gerber RS-274X export*
G75*
%MOMM*%
%FSLAX34Y34*%
%LPD*%
%INSolderpaste Bottom*%
%IPPOS*%
%AMOC8*
5,1,8,0,0,1.08239X$1,22.5*%
G01*
%ADD10R,1.270000X2.540000*%
%ADD11R,2.286000X0.609600*%
%ADD12R,0.540000X0.600000*%
%ADD13C,0.270000*%
%ADD14R,2.368000X2.403600*%
%ADD15R,1.000000X1.400000*%
%ADD16R,1.117600X0.355600*%
%ADD17C,0.158750*%
%ADD18R,0.090000X0.740000*%
%ADD19R,0.560000X0.350000*%


D10*
X199691Y66231D03*
X176891Y66331D03*
D11*
X154533Y444771D03*
X86969Y444771D03*
X154533Y432071D03*
X154533Y419371D03*
X86969Y432071D03*
X86969Y419371D03*
X154533Y406671D03*
X86969Y406671D03*
D12*
X145641Y458741D03*
X154281Y458741D03*
D13*
X97211Y460391D02*
X94511Y460391D01*
X97211Y460391D02*
X97211Y457091D01*
X94511Y457091D01*
X94511Y460391D01*
X94511Y459656D02*
X97211Y459656D01*
X88571Y460391D02*
X85871Y460391D01*
X88571Y460391D02*
X88571Y457091D01*
X85871Y457091D01*
X85871Y460391D01*
X85871Y459656D02*
X88571Y459656D01*
D12*
X86971Y470171D03*
X78331Y470171D03*
X154281Y471441D03*
X145641Y471441D03*
D14*
X151963Y374921D03*
X89539Y374921D03*
D15*
X157581Y187391D03*
X167081Y209391D03*
X148081Y209391D03*
D16*
X135483Y180865D03*
X135483Y174261D03*
X135483Y167657D03*
X116179Y167657D03*
X116179Y174261D03*
X116179Y180865D03*
D17*
X147580Y165530D02*
X152342Y165530D01*
X147580Y165530D02*
X147580Y170292D01*
X152342Y170292D01*
X152342Y165530D01*
X152342Y167039D02*
X147580Y167039D01*
X147580Y168548D02*
X152342Y168548D01*
X152342Y170057D02*
X147580Y170057D01*
X160280Y165530D02*
X165042Y165530D01*
X160280Y165530D02*
X160280Y170292D01*
X165042Y170292D01*
X165042Y165530D01*
X165042Y167039D02*
X160280Y167039D01*
X160280Y168548D02*
X165042Y168548D01*
X165042Y170057D02*
X160280Y170057D01*
D18*
X120722Y429350D03*
X120722Y421550D03*
D19*
X133072Y432950D03*
X133072Y427950D03*
X133072Y422950D03*
X133072Y417950D03*
X108372Y417950D03*
X108372Y422950D03*
X108372Y427950D03*
X108372Y432950D03*
M02*
