G04 EAGLE Gerber RS-274X export*
G75*
%MOMM*%
%FSLAX34Y34*%
%LPD*%
%INSoldermask Bottom*%
%IPPOS*%
%AMOC8*
5,1,8,0,0,1.08239X$1,22.5*%
G01*
%ADD10C,2.701600*%
%ADD11C,1.259600*%
%ADD12C,0.801600*%
%ADD13C,1.981200*%
%ADD14R,1.371600X2.641600*%
%ADD15R,2.387600X0.711200*%
%ADD16R,0.641600X0.701600*%
%ADD17C,0.372125*%
%ADD18R,2.469600X2.505200*%
%ADD19R,1.101600X1.501600*%
%ADD20R,1.219200X0.457200*%
%ADD21C,0.257809*%
%ADD22R,0.661600X0.451600*%
%ADD23R,0.301600X1.701600*%

G36*
X161456Y164748D02*
X161456Y164748D01*
X161522Y164750D01*
X161566Y164768D01*
X161612Y164776D01*
X161669Y164810D01*
X161730Y164835D01*
X161765Y164866D01*
X161805Y164890D01*
X161847Y164942D01*
X161896Y164986D01*
X161917Y165028D01*
X161947Y165065D01*
X161968Y165127D01*
X161998Y165186D01*
X162006Y165240D01*
X162019Y165277D01*
X162018Y165316D01*
X162026Y165371D01*
X162026Y170451D01*
X162014Y170516D01*
X162012Y170581D01*
X161994Y170625D01*
X161986Y170672D01*
X161953Y170728D01*
X161928Y170789D01*
X161896Y170824D01*
X161872Y170865D01*
X161821Y170906D01*
X161776Y170955D01*
X161734Y170977D01*
X161698Y171006D01*
X161635Y171027D01*
X161577Y171057D01*
X161522Y171066D01*
X161485Y171078D01*
X161446Y171077D01*
X161391Y171085D01*
X151231Y171085D01*
X151167Y171073D01*
X151101Y171072D01*
X151057Y171054D01*
X151011Y171045D01*
X150954Y171012D01*
X150893Y170987D01*
X150858Y170955D01*
X150817Y170931D01*
X150776Y170880D01*
X150727Y170836D01*
X150706Y170794D01*
X150676Y170757D01*
X150655Y170695D01*
X150625Y170636D01*
X150617Y170582D01*
X150604Y170545D01*
X150604Y170539D01*
X150605Y170504D01*
X150597Y170451D01*
X150597Y165371D01*
X150609Y165306D01*
X150611Y165240D01*
X150629Y165197D01*
X150637Y165150D01*
X150670Y165093D01*
X150695Y165032D01*
X150727Y164998D01*
X150751Y164957D01*
X150802Y164915D01*
X150846Y164867D01*
X150889Y164845D01*
X150925Y164815D01*
X150987Y164794D01*
X151046Y164764D01*
X151101Y164756D01*
X151138Y164744D01*
X151177Y164745D01*
X151231Y164737D01*
X161391Y164737D01*
X161456Y164748D01*
G37*
D10*
X14071Y537481D03*
X227431Y537481D03*
D11*
X17568Y17790D02*
X17568Y6210D01*
X103968Y6210D02*
X103968Y17790D01*
D12*
X31868Y48500D03*
X89668Y48500D03*
D11*
X17614Y48116D02*
X17614Y59696D01*
X103944Y59594D02*
X103944Y48014D01*
X17637Y48027D02*
X17637Y59607D01*
X103949Y59663D02*
X103949Y48083D01*
D13*
X6291Y91031D03*
X6291Y116431D03*
X6291Y141831D03*
X6291Y167231D03*
X6291Y192631D03*
X6291Y218031D03*
X6291Y243431D03*
X6291Y268831D03*
X6291Y294231D03*
X6291Y319631D03*
X6291Y345031D03*
X6291Y370431D03*
X6291Y395831D03*
X6291Y421231D03*
X6291Y446631D03*
X6291Y472031D03*
X235291Y91031D03*
X235291Y116431D03*
X235291Y141831D03*
X235291Y167231D03*
X235291Y192631D03*
X235291Y218031D03*
X235291Y243431D03*
X235291Y268831D03*
X235291Y294231D03*
X235291Y319631D03*
X235291Y345031D03*
X235291Y370431D03*
X235291Y395831D03*
X235291Y421231D03*
X235291Y446631D03*
X235291Y472031D03*
D14*
X199691Y66231D03*
X176891Y66331D03*
D15*
X154533Y444771D03*
X86969Y444771D03*
X154533Y432071D03*
X154533Y419371D03*
X86969Y432071D03*
X86969Y419371D03*
X154533Y406671D03*
X86969Y406671D03*
D16*
X145641Y458741D03*
X154281Y458741D03*
D17*
X97209Y460389D02*
X94513Y460389D01*
X97209Y460389D02*
X97209Y457093D01*
X94513Y457093D01*
X94513Y460389D01*
X88569Y460389D02*
X85873Y460389D01*
X88569Y460389D02*
X88569Y457093D01*
X85873Y457093D01*
X85873Y460389D01*
D16*
X86971Y470171D03*
X78331Y470171D03*
X154281Y471441D03*
X145641Y471441D03*
D18*
X151963Y374921D03*
X89539Y374921D03*
D19*
X157581Y187391D03*
X167081Y209391D03*
X148081Y209391D03*
D20*
X135483Y180865D03*
X135483Y174261D03*
X135483Y167657D03*
X116179Y167657D03*
X116179Y174261D03*
X116179Y180865D03*
D21*
X147567Y165517D02*
X152355Y165517D01*
X147567Y165517D02*
X147567Y170305D01*
X152355Y170305D01*
X152355Y165517D01*
X152355Y167966D02*
X147567Y167966D01*
X160267Y165517D02*
X165055Y165517D01*
X160267Y165517D02*
X160267Y170305D01*
X165055Y170305D01*
X165055Y165517D01*
X165055Y167966D02*
X160267Y167966D01*
D22*
X133072Y432950D03*
X133072Y427950D03*
X133072Y422950D03*
X133072Y417950D03*
X108372Y417950D03*
X108372Y422950D03*
X108372Y427950D03*
X108372Y432950D03*
D23*
X120722Y425450D03*
M02*
