G04 EAGLE Gerber RS-274X export*
G75*
%MOMM*%
%FSLAX34Y34*%
%LPD*%
%INSoldermask Top*%
%IPPOS*%
%AMOC8*
5,1,8,0,0,1.08239X$1,22.5*%
G01*
%ADD10C,2.701600*%
%ADD11R,0.300000X0.600000*%
%ADD12R,0.600000X0.300000*%
%ADD13R,0.500000X0.500000*%
%ADD14R,0.651600X1.301600*%
%ADD15R,1.101600X4.701600*%
%ADD16R,1.701600X3.501600*%
%ADD17R,1.101600X1.001600*%
%ADD18C,0.396575*%
%ADD19R,0.641600X0.701600*%
%ADD20R,1.101600X1.201600*%
%ADD21R,0.701600X0.641600*%
%ADD22R,0.701600X1.551600*%
%ADD23R,0.401600X1.551600*%
%ADD24C,1.259600*%
%ADD25C,0.801600*%
%ADD26R,1.201600X1.101600*%
%ADD27C,0.300959*%
%ADD28R,1.524000X0.812800*%
%ADD29R,0.812800X1.524000*%
%ADD30C,1.981200*%
%ADD31C,0.349309*%
%ADD32C,0.248975*%
%ADD33R,0.901600X1.101600*%
%ADD34R,1.101600X1.501600*%
%ADD35R,1.301600X0.651600*%
%ADD36R,1.371600X0.609600*%
%ADD37R,1.219200X0.584200*%


D10*
X19071Y555481D03*
X232431Y555481D03*
D11*
X88291Y121031D03*
X93291Y121031D03*
X98291Y121031D03*
X103291Y121031D03*
X108291Y121031D03*
X113291Y121031D03*
X118291Y121031D03*
D12*
X126291Y129031D03*
X126291Y134031D03*
X126291Y139031D03*
X126291Y144031D03*
X126291Y149031D03*
X126291Y154031D03*
X126291Y159031D03*
D11*
X118291Y167031D03*
X113291Y167031D03*
X108291Y167031D03*
X103291Y167031D03*
X98291Y167031D03*
X93291Y167031D03*
X88291Y167031D03*
D12*
X80291Y159031D03*
X80291Y154031D03*
X80291Y149031D03*
X80291Y144031D03*
X80291Y139031D03*
X80291Y134031D03*
X80291Y129031D03*
D13*
X82266Y123006D03*
D11*
X90791Y134031D03*
X90791Y144031D03*
X90791Y154031D03*
X95791Y134031D03*
X95791Y144031D03*
X95791Y154031D03*
X100791Y134031D03*
X100791Y144031D03*
X100791Y154031D03*
X105791Y134031D03*
X105791Y144031D03*
X105791Y154031D03*
X110791Y134031D03*
X110791Y144031D03*
X110791Y154031D03*
X115791Y134031D03*
X115791Y144031D03*
X115791Y154031D03*
D14*
X163791Y179030D03*
X173291Y179030D03*
X182791Y179030D03*
X182791Y205032D03*
X163791Y205032D03*
D15*
X203291Y74031D03*
X183291Y74031D03*
D16*
X227291Y22031D03*
X159291Y22031D03*
D17*
X193291Y259531D03*
X209291Y259531D03*
X209291Y218531D03*
X193291Y218531D03*
X155291Y259531D03*
X171291Y259531D03*
X171291Y218531D03*
X155291Y218531D03*
D18*
X16046Y513506D02*
X16046Y520556D01*
X16046Y513506D02*
X8996Y513506D01*
X8996Y520556D01*
X16046Y520556D01*
X16046Y517274D02*
X8996Y517274D01*
X33586Y520556D02*
X33586Y513506D01*
X26536Y513506D01*
X26536Y520556D01*
X33586Y520556D01*
X33586Y517274D02*
X26536Y517274D01*
X237536Y520556D02*
X237536Y513506D01*
X237536Y520556D02*
X244586Y520556D01*
X244586Y513506D01*
X237536Y513506D01*
X237536Y517274D02*
X244586Y517274D01*
X219996Y520556D02*
X219996Y513506D01*
X219996Y520556D02*
X227046Y520556D01*
X227046Y513506D01*
X219996Y513506D01*
X219996Y517274D02*
X227046Y517274D01*
D19*
X228971Y505031D03*
X237611Y505031D03*
X22611Y505031D03*
X13971Y505031D03*
D20*
X196791Y188531D03*
X196791Y205531D03*
X147791Y205531D03*
X147791Y188531D03*
D17*
X133291Y219531D03*
X117291Y219531D03*
X117291Y260531D03*
X133291Y260531D03*
D21*
X212491Y180851D03*
X212491Y172211D03*
D22*
X33268Y80950D03*
X41268Y80950D03*
D23*
X63268Y80950D03*
X58268Y80950D03*
X53268Y80950D03*
X48268Y80950D03*
X68268Y80950D03*
X73268Y80950D03*
X78268Y80950D03*
X83268Y80950D03*
D22*
X90268Y80950D03*
X98268Y80950D03*
D24*
X22568Y35790D02*
X22568Y24210D01*
X108968Y24210D02*
X108968Y35790D01*
D25*
X36868Y66500D03*
X94668Y66500D03*
D24*
X22614Y66116D02*
X22614Y77696D01*
X108944Y77594D02*
X108944Y66014D01*
X22637Y66027D02*
X22637Y77607D01*
X108949Y77663D02*
X108949Y66083D01*
D21*
X48291Y108351D03*
X48291Y99711D03*
X73291Y96711D03*
X73291Y105351D03*
X85291Y96711D03*
X85291Y105351D03*
D26*
X125791Y100031D03*
X142791Y100031D03*
D21*
X137291Y140351D03*
X137291Y131711D03*
D27*
X44944Y176528D02*
X36038Y176528D01*
X36038Y178534D01*
X44944Y178534D01*
X44944Y176528D01*
X44944Y170028D02*
X36038Y170028D01*
X36038Y172034D01*
X44944Y172034D01*
X44944Y170028D01*
X44944Y163528D02*
X36038Y163528D01*
X36038Y165534D01*
X44944Y165534D01*
X44944Y163528D01*
X54438Y165534D02*
X63344Y165534D01*
X63344Y163528D01*
X54438Y163528D01*
X54438Y165534D01*
X54438Y172034D02*
X63344Y172034D01*
X63344Y170028D01*
X54438Y170028D01*
X54438Y172034D01*
X54438Y178534D02*
X63344Y178534D01*
X63344Y176528D01*
X54438Y176528D01*
X54438Y178534D01*
D18*
X122766Y39786D02*
X129816Y39786D01*
X129816Y32736D01*
X122766Y32736D01*
X122766Y39786D01*
X122766Y36504D02*
X129816Y36504D01*
X129816Y57326D02*
X122766Y57326D01*
X129816Y57326D02*
X129816Y50276D01*
X122766Y50276D01*
X122766Y57326D01*
X122766Y54044D02*
X129816Y54044D01*
D21*
X124291Y76351D03*
X124291Y67711D03*
D28*
X211879Y317503D03*
X211879Y330203D03*
X211879Y342903D03*
X211879Y355603D03*
X211879Y368303D03*
X211879Y381003D03*
X211879Y393703D03*
X211879Y406403D03*
X211879Y419103D03*
X211879Y431803D03*
X211879Y444503D03*
X211879Y457203D03*
X39203Y317633D03*
X39203Y330333D03*
X39203Y343033D03*
X39203Y355733D03*
X39203Y368433D03*
X39203Y381133D03*
X39203Y393833D03*
X39203Y406533D03*
X39203Y419233D03*
X39203Y431933D03*
X39203Y444633D03*
X39203Y457333D03*
D29*
X170199Y288811D03*
X157499Y288811D03*
X144799Y288811D03*
X132099Y288811D03*
X119399Y288811D03*
X106699Y288811D03*
X93999Y288811D03*
X81299Y288811D03*
X68599Y288811D03*
X182672Y288793D03*
D30*
X11291Y109031D03*
X11291Y134431D03*
X11291Y159831D03*
X11291Y185231D03*
X11291Y210631D03*
X11291Y236031D03*
X11291Y261431D03*
X11291Y286831D03*
X11291Y312231D03*
X11291Y337631D03*
X11291Y363031D03*
X11291Y388431D03*
X11291Y413831D03*
X11291Y439231D03*
X11291Y464631D03*
X11291Y490031D03*
X240291Y109031D03*
X240291Y134431D03*
X240291Y159831D03*
X240291Y185231D03*
X240291Y210631D03*
X240291Y236031D03*
X240291Y261431D03*
X240291Y286831D03*
X240291Y312231D03*
X240291Y337631D03*
X240291Y363031D03*
X240291Y388431D03*
X240291Y413831D03*
X240291Y439231D03*
X240291Y464631D03*
X240291Y490031D03*
D31*
X43703Y141919D02*
X33779Y141919D01*
X33779Y149343D01*
X43703Y149343D01*
X43703Y141919D01*
X43703Y145237D02*
X33779Y145237D01*
X33779Y148555D02*
X43703Y148555D01*
D32*
X44204Y126218D02*
X33278Y126218D01*
X33278Y130644D01*
X44204Y130644D01*
X44204Y126218D01*
X44204Y128583D02*
X33278Y128583D01*
X54378Y126218D02*
X65304Y126218D01*
X54378Y126218D02*
X54378Y130644D01*
X65304Y130644D01*
X65304Y126218D01*
X65304Y128583D02*
X54378Y128583D01*
X54378Y145418D02*
X65304Y145418D01*
X54378Y145418D02*
X54378Y149844D01*
X65304Y149844D01*
X65304Y145418D01*
X65304Y147783D02*
X54378Y147783D01*
D33*
X152291Y167531D03*
X152291Y144531D03*
D34*
X162291Y104031D03*
X152791Y126031D03*
X171791Y126031D03*
D21*
X112291Y108351D03*
X112291Y99711D03*
D35*
X212292Y105531D03*
X212292Y115031D03*
X212292Y124531D03*
X186290Y124531D03*
X186290Y105531D03*
D19*
X194971Y136031D03*
X203611Y136031D03*
D21*
X140291Y67711D03*
X140291Y76351D03*
D18*
X136766Y39786D02*
X143816Y39786D01*
X143816Y32736D01*
X136766Y32736D01*
X136766Y39786D01*
X136766Y36504D02*
X143816Y36504D01*
X143816Y57326D02*
X136766Y57326D01*
X143816Y57326D02*
X143816Y50276D01*
X136766Y50276D01*
X136766Y57326D01*
X136766Y54044D02*
X143816Y54044D01*
D36*
X92421Y227031D03*
X92421Y214331D03*
X92421Y201631D03*
X92421Y239731D03*
X92421Y252431D03*
X44161Y252431D03*
X44161Y239731D03*
X44161Y227031D03*
X44161Y214331D03*
X44161Y201631D03*
D37*
X184953Y166531D03*
X184953Y147531D03*
X208829Y157031D03*
D21*
X36191Y108451D03*
X36191Y99811D03*
X173791Y156251D03*
X173791Y147611D03*
X88921Y176511D03*
X88921Y185151D03*
X101621Y176511D03*
X101621Y185151D03*
M02*
