G04 EAGLE Gerber RS-274X export*
G75*
%MOMM*%
%FSLAX34Y34*%
%LPD*%
%INSolderpaste Top*%
%IPPOS*%
%AMOC8*
5,1,8,0,0,1.08239X$1,22.5*%
G01*
%ADD10R,0.260000X0.560000*%
%ADD11R,0.560000X0.260000*%
%ADD12R,0.400000X0.400000*%
%ADD13R,0.550000X1.200000*%
%ADD14R,1.000000X4.600000*%
%ADD15R,1.600000X3.400000*%
%ADD16R,1.000000X0.900000*%
%ADD17C,0.300000*%
%ADD18R,0.540000X0.600000*%
%ADD19R,1.000000X1.100000*%
%ADD20R,0.600000X0.540000*%
%ADD21R,0.600000X1.450000*%
%ADD22R,0.300000X1.450000*%
%ADD23R,1.100000X1.000000*%
%ADD24C,0.200000*%
%ADD25R,1.422400X0.711200*%
%ADD26R,0.711200X1.422400*%
%ADD27C,0.247500*%
%ADD28C,0.147500*%
%ADD29R,0.800000X1.000000*%
%ADD30R,1.000000X1.400000*%
%ADD31R,1.200000X0.550000*%
%ADD32R,1.270000X0.508000*%
%ADD33R,1.117600X0.482600*%


D10*
X88291Y121031D03*
X93291Y121031D03*
X98291Y121031D03*
X103291Y121031D03*
X108291Y121031D03*
X113291Y121031D03*
X118291Y121031D03*
D11*
X126291Y129031D03*
X126291Y134031D03*
X126291Y139031D03*
X126291Y144031D03*
X126291Y149031D03*
X126291Y154031D03*
X126291Y159031D03*
D10*
X118291Y167031D03*
X113291Y167031D03*
X108291Y167031D03*
X103291Y167031D03*
X98291Y167031D03*
X93291Y167031D03*
X88291Y167031D03*
D11*
X80291Y159031D03*
X80291Y154031D03*
X80291Y149031D03*
X80291Y144031D03*
X80291Y139031D03*
X80291Y134031D03*
X80291Y129031D03*
D10*
X90791Y134031D03*
X90791Y144031D03*
X90791Y154031D03*
X95791Y134031D03*
X95791Y144031D03*
X95791Y154031D03*
X100791Y134031D03*
X100791Y144031D03*
X100791Y154031D03*
X105791Y134031D03*
X105791Y144031D03*
X105791Y154031D03*
X110791Y134031D03*
X110791Y144031D03*
X110791Y154031D03*
X115791Y134031D03*
X115791Y144031D03*
X115791Y154031D03*
D12*
X82291Y123031D03*
D13*
X163791Y179030D03*
X173291Y179030D03*
X182791Y179030D03*
X182791Y205032D03*
X163791Y205032D03*
D14*
X203291Y74031D03*
X183291Y74031D03*
D15*
X227291Y22031D03*
X159291Y22031D03*
D16*
X193291Y259531D03*
X209291Y259531D03*
X209291Y218531D03*
X193291Y218531D03*
X155291Y259531D03*
X171291Y259531D03*
X171291Y218531D03*
X155291Y218531D03*
D17*
X16021Y513531D02*
X16021Y520531D01*
X16021Y513531D02*
X9021Y513531D01*
X9021Y520531D01*
X16021Y520531D01*
X16021Y516381D02*
X9021Y516381D01*
X9021Y519231D02*
X16021Y519231D01*
X33561Y520531D02*
X33561Y513531D01*
X26561Y513531D01*
X26561Y520531D01*
X33561Y520531D01*
X33561Y516381D02*
X26561Y516381D01*
X26561Y519231D02*
X33561Y519231D01*
X237561Y520531D02*
X237561Y513531D01*
X237561Y520531D02*
X244561Y520531D01*
X244561Y513531D01*
X237561Y513531D01*
X237561Y516381D02*
X244561Y516381D01*
X244561Y519231D02*
X237561Y519231D01*
X220021Y520531D02*
X220021Y513531D01*
X220021Y520531D02*
X227021Y520531D01*
X227021Y513531D01*
X220021Y513531D01*
X220021Y516381D02*
X227021Y516381D01*
X227021Y519231D02*
X220021Y519231D01*
D18*
X228971Y505031D03*
X237611Y505031D03*
X22611Y505031D03*
X13971Y505031D03*
D19*
X196791Y188531D03*
X196791Y205531D03*
X147791Y205531D03*
X147791Y188531D03*
D16*
X133291Y219531D03*
X117291Y219531D03*
X117291Y260531D03*
X133291Y260531D03*
D20*
X212491Y180851D03*
X212491Y172211D03*
D21*
X33268Y80950D03*
X41268Y80950D03*
D22*
X63268Y80950D03*
X58268Y80950D03*
X53268Y80950D03*
X48268Y80950D03*
X68268Y80950D03*
X73268Y80950D03*
X78268Y80950D03*
X83268Y80950D03*
D21*
X90268Y80950D03*
X98268Y80950D03*
D20*
X48291Y108351D03*
X48291Y99711D03*
X73291Y96711D03*
X73291Y105351D03*
X85291Y96711D03*
X85291Y105351D03*
D23*
X125791Y100031D03*
X142791Y100031D03*
D20*
X137291Y140351D03*
X137291Y131711D03*
D24*
X44941Y176531D02*
X36041Y176531D01*
X36041Y178531D01*
X44941Y178531D01*
X44941Y176531D01*
X44941Y178431D02*
X36041Y178431D01*
X36041Y170031D02*
X44941Y170031D01*
X36041Y170031D02*
X36041Y172031D01*
X44941Y172031D01*
X44941Y170031D01*
X44941Y171931D02*
X36041Y171931D01*
X36041Y163531D02*
X44941Y163531D01*
X36041Y163531D02*
X36041Y165531D01*
X44941Y165531D01*
X44941Y163531D01*
X44941Y165431D02*
X36041Y165431D01*
X54441Y165531D02*
X63341Y165531D01*
X63341Y163531D01*
X54441Y163531D01*
X54441Y165531D01*
X54441Y165431D02*
X63341Y165431D01*
X63341Y172031D02*
X54441Y172031D01*
X63341Y172031D02*
X63341Y170031D01*
X54441Y170031D01*
X54441Y172031D01*
X54441Y171931D02*
X63341Y171931D01*
X63341Y178531D02*
X54441Y178531D01*
X63341Y178531D02*
X63341Y176531D01*
X54441Y176531D01*
X54441Y178531D01*
X54441Y178431D02*
X63341Y178431D01*
D17*
X122791Y39761D02*
X129791Y39761D01*
X129791Y32761D01*
X122791Y32761D01*
X122791Y39761D01*
X122791Y35611D02*
X129791Y35611D01*
X129791Y38461D02*
X122791Y38461D01*
X122791Y57301D02*
X129791Y57301D01*
X129791Y50301D01*
X122791Y50301D01*
X122791Y57301D01*
X122791Y53151D02*
X129791Y53151D01*
X129791Y56001D02*
X122791Y56001D01*
D20*
X124291Y76351D03*
X124291Y67711D03*
D25*
X211879Y317503D03*
X211879Y330203D03*
X211879Y342903D03*
X211879Y355603D03*
X211879Y368303D03*
X211879Y381003D03*
X211879Y393703D03*
X211879Y406403D03*
X211879Y419103D03*
X211879Y431803D03*
X211879Y444503D03*
X211879Y457203D03*
X39203Y317633D03*
X39203Y330333D03*
X39203Y343033D03*
X39203Y355733D03*
X39203Y368433D03*
X39203Y381133D03*
X39203Y393833D03*
X39203Y406533D03*
X39203Y419233D03*
X39203Y431933D03*
X39203Y444633D03*
X39203Y457333D03*
D26*
X170199Y288811D03*
X157499Y288811D03*
X144799Y288811D03*
X132099Y288811D03*
X119399Y288811D03*
X106699Y288811D03*
X93999Y288811D03*
X81299Y288811D03*
X68599Y288811D03*
X182672Y288793D03*
D27*
X43704Y141918D02*
X33778Y141918D01*
X33778Y149344D01*
X43704Y149344D01*
X43704Y141918D01*
X43704Y144269D02*
X33778Y144269D01*
X33778Y146620D02*
X43704Y146620D01*
X43704Y148971D02*
X33778Y148971D01*
D28*
X33278Y126218D02*
X44204Y126218D01*
X33278Y126218D02*
X33278Y130644D01*
X44204Y130644D01*
X44204Y126218D01*
X44204Y127619D02*
X33278Y127619D01*
X33278Y129020D02*
X44204Y129020D01*
X44204Y130421D02*
X33278Y130421D01*
X54378Y126218D02*
X65304Y126218D01*
X54378Y126218D02*
X54378Y130644D01*
X65304Y130644D01*
X65304Y126218D01*
X65304Y127619D02*
X54378Y127619D01*
X54378Y129020D02*
X65304Y129020D01*
X65304Y130421D02*
X54378Y130421D01*
X54378Y145418D02*
X65304Y145418D01*
X54378Y145418D02*
X54378Y149844D01*
X65304Y149844D01*
X65304Y145418D01*
X65304Y146819D02*
X54378Y146819D01*
X54378Y148220D02*
X65304Y148220D01*
X65304Y149621D02*
X54378Y149621D01*
D29*
X152291Y167531D03*
X152291Y144531D03*
D30*
X162291Y104031D03*
X152791Y126031D03*
X171791Y126031D03*
D20*
X112291Y108351D03*
X112291Y99711D03*
D31*
X212292Y105531D03*
X212292Y115031D03*
X212292Y124531D03*
X186290Y124531D03*
X186290Y105531D03*
D18*
X194971Y136031D03*
X203611Y136031D03*
D20*
X140291Y67711D03*
X140291Y76351D03*
D17*
X136791Y39761D02*
X143791Y39761D01*
X143791Y32761D01*
X136791Y32761D01*
X136791Y39761D01*
X136791Y35611D02*
X143791Y35611D01*
X143791Y38461D02*
X136791Y38461D01*
X136791Y57301D02*
X143791Y57301D01*
X143791Y50301D01*
X136791Y50301D01*
X136791Y57301D01*
X136791Y53151D02*
X143791Y53151D01*
X143791Y56001D02*
X136791Y56001D01*
D32*
X92421Y227031D03*
X92421Y214331D03*
X92421Y201631D03*
X92421Y239731D03*
X92421Y252431D03*
X44161Y252431D03*
X44161Y239731D03*
X44161Y227031D03*
X44161Y214331D03*
X44161Y201631D03*
D33*
X184953Y166531D03*
X184953Y147531D03*
X208829Y157031D03*
D20*
X36191Y108451D03*
X36191Y99811D03*
X173791Y156251D03*
X173791Y147611D03*
X88921Y176511D03*
X88921Y185151D03*
X101621Y176511D03*
X101621Y185151D03*
M02*
