G04 EAGLE Gerber RS-274X export*
G75*
%MOMM*%
%FSLAX34Y34*%
%LPD*%
%INSoldermask Bottom*%
%IPPOS*%
%AMOC8*
5,1,8,0,0,1.08239X$1,22.5*%
G01*
%ADD10C,2.701600*%
%ADD11C,1.259600*%
%ADD12C,0.801600*%
%ADD13C,1.981200*%
%ADD14R,1.371600X2.641600*%
%ADD15R,2.387600X0.711200*%
%ADD16R,0.641600X0.701600*%
%ADD17C,0.372125*%
%ADD18R,2.469600X2.505200*%
%ADD19R,1.270000X1.701800*%
%ADD20R,0.152400X1.828800*%


D10*
X17780Y552450D03*
X231140Y552450D03*
D11*
X20800Y74590D02*
X20800Y63010D01*
X107200Y63010D02*
X107200Y74590D01*
X20800Y32790D02*
X20800Y21210D01*
X107200Y21210D02*
X107200Y32790D01*
D12*
X35100Y63500D03*
X92900Y63500D03*
D13*
X10000Y106000D03*
X10000Y131400D03*
X10000Y156800D03*
X10000Y182200D03*
X10000Y207600D03*
X10000Y233000D03*
X10000Y258400D03*
X10000Y283800D03*
X10000Y309200D03*
X10000Y334600D03*
X10000Y360000D03*
X10000Y385400D03*
X10000Y410800D03*
X10000Y436200D03*
X10000Y461600D03*
X10000Y487000D03*
X239000Y106000D03*
X239000Y131400D03*
X239000Y156800D03*
X239000Y182200D03*
X239000Y207600D03*
X239000Y233000D03*
X239000Y258400D03*
X239000Y283800D03*
X239000Y309200D03*
X239000Y334600D03*
X239000Y360000D03*
X239000Y385400D03*
X239000Y410800D03*
X239000Y436200D03*
X239000Y461600D03*
X239000Y487000D03*
D14*
X203400Y81200D03*
X180600Y81300D03*
D15*
X158242Y459740D03*
X90678Y459740D03*
X158242Y447040D03*
X158242Y434340D03*
X90678Y447040D03*
X90678Y434340D03*
X158242Y421640D03*
X90678Y421640D03*
D16*
X149350Y473710D03*
X157990Y473710D03*
D17*
X100918Y475358D02*
X98222Y475358D01*
X100918Y475358D02*
X100918Y472062D01*
X98222Y472062D01*
X98222Y475358D01*
X92278Y475358D02*
X89582Y475358D01*
X92278Y475358D02*
X92278Y472062D01*
X89582Y472062D01*
X89582Y475358D01*
D16*
X90680Y485140D03*
X82040Y485140D03*
X157990Y486410D03*
X149350Y486410D03*
D18*
X155672Y389890D03*
X93248Y389890D03*
D19*
X124460Y200660D03*
X139700Y200660D03*
D20*
X132080Y200660D03*
M02*
