G04 EAGLE Gerber RS-274X export*
G75*
%MOMM*%
%FSLAX34Y34*%
%LPD*%
%INSoldermask Bottom*%
%IPPOS*%
%AMOC8*
5,1,8,0,0,1.08239X$1,22.5*%
G01*
%ADD10C,2.701600*%
%ADD11C,1.259600*%
%ADD12C,0.801600*%
%ADD13C,1.981200*%
%ADD14R,1.371600X2.641600*%
%ADD15R,2.387600X0.711200*%
%ADD16R,0.641600X0.701600*%
%ADD17C,0.372125*%
%ADD18R,2.469600X2.505200*%

G36*
X158143Y185249D02*
X158143Y185249D01*
X158200Y185257D01*
X158256Y185257D01*
X158531Y185305D01*
X159864Y185634D01*
X159917Y185653D01*
X159973Y185664D01*
X160233Y185765D01*
X161475Y186348D01*
X161524Y186377D01*
X161576Y186398D01*
X161812Y186548D01*
X162917Y187362D01*
X163012Y187448D01*
X163113Y187527D01*
X163160Y187581D01*
X163213Y187630D01*
X163290Y187733D01*
X163373Y187830D01*
X163408Y187893D01*
X163451Y187951D01*
X163505Y188067D01*
X163567Y188179D01*
X163589Y188248D01*
X163619Y188313D01*
X163649Y188438D01*
X163688Y188560D01*
X163696Y188632D01*
X163712Y188701D01*
X163717Y188830D01*
X163731Y188957D01*
X163724Y189029D01*
X163726Y189101D01*
X163705Y189227D01*
X163693Y189355D01*
X163673Y189424D01*
X163661Y189495D01*
X163615Y189615D01*
X163578Y189737D01*
X163544Y189801D01*
X163518Y189868D01*
X163450Y189976D01*
X163389Y190089D01*
X163331Y190163D01*
X163305Y190205D01*
X163271Y190240D01*
X163217Y190309D01*
X161209Y192539D01*
X164183Y195217D01*
X166191Y192987D01*
X166286Y192901D01*
X166374Y192808D01*
X166433Y192766D01*
X166486Y192718D01*
X166597Y192652D01*
X166702Y192579D01*
X166768Y192550D01*
X166829Y192514D01*
X166951Y192471D01*
X167068Y192420D01*
X167138Y192405D01*
X167206Y192381D01*
X167334Y192364D01*
X167459Y192337D01*
X167531Y192336D01*
X167602Y192327D01*
X167730Y192335D01*
X167858Y192334D01*
X167929Y192347D01*
X168001Y192352D01*
X168125Y192385D01*
X168250Y192409D01*
X168317Y192437D01*
X168386Y192456D01*
X168501Y192513D01*
X168620Y192562D01*
X168679Y192602D01*
X168744Y192634D01*
X168845Y192713D01*
X168951Y192784D01*
X169019Y192849D01*
X169058Y192880D01*
X169090Y192916D01*
X169153Y192977D01*
X170078Y193991D01*
X170112Y194036D01*
X170152Y194076D01*
X170313Y194305D01*
X171022Y195480D01*
X171046Y195531D01*
X171078Y195578D01*
X171191Y195833D01*
X171657Y197124D01*
X171671Y197179D01*
X171693Y197231D01*
X171754Y197504D01*
X171960Y198860D01*
X171963Y198917D01*
X171973Y198973D01*
X171980Y199252D01*
X171917Y200623D01*
X171909Y200679D01*
X171909Y200735D01*
X171861Y201010D01*
X171532Y202343D01*
X171513Y202396D01*
X171502Y202452D01*
X171401Y202712D01*
X170819Y203954D01*
X170789Y204003D01*
X170768Y204055D01*
X170618Y204291D01*
X169804Y205396D01*
X169766Y205438D01*
X169735Y205485D01*
X169542Y205687D01*
X168528Y206612D01*
X168483Y206646D01*
X168443Y206686D01*
X168214Y206847D01*
X167040Y207556D01*
X166988Y207580D01*
X166941Y207612D01*
X166686Y207725D01*
X165395Y208191D01*
X165340Y208205D01*
X165288Y208227D01*
X165015Y208288D01*
X163659Y208494D01*
X163602Y208496D01*
X163547Y208507D01*
X163267Y208514D01*
X161897Y208451D01*
X161841Y208443D01*
X161784Y208443D01*
X161509Y208395D01*
X160177Y208066D01*
X160123Y208047D01*
X160068Y208036D01*
X159807Y207935D01*
X158565Y207352D01*
X158516Y207323D01*
X158464Y207302D01*
X158228Y207152D01*
X157123Y206338D01*
X157028Y206252D01*
X156927Y206173D01*
X156880Y206119D01*
X156827Y206070D01*
X156751Y205967D01*
X156667Y205870D01*
X156632Y205807D01*
X156590Y205749D01*
X156535Y205633D01*
X156473Y205521D01*
X156451Y205452D01*
X156421Y205387D01*
X156391Y205262D01*
X156352Y205140D01*
X156345Y205068D01*
X156328Y204999D01*
X156323Y204870D01*
X156310Y204743D01*
X156316Y204671D01*
X156314Y204599D01*
X156335Y204473D01*
X156347Y204345D01*
X156367Y204276D01*
X156379Y204205D01*
X156425Y204085D01*
X156462Y203963D01*
X156496Y203899D01*
X156522Y203832D01*
X156590Y203724D01*
X156651Y203611D01*
X156709Y203537D01*
X156735Y203495D01*
X156769Y203460D01*
X156823Y203391D01*
X158831Y201161D01*
X155857Y198483D01*
X153849Y200713D01*
X153755Y200799D01*
X153666Y200892D01*
X153607Y200934D01*
X153554Y200982D01*
X153443Y201048D01*
X153338Y201121D01*
X153272Y201150D01*
X153211Y201186D01*
X153089Y201229D01*
X152972Y201280D01*
X152902Y201295D01*
X152834Y201319D01*
X152707Y201336D01*
X152581Y201363D01*
X152509Y201364D01*
X152438Y201373D01*
X152310Y201365D01*
X152182Y201366D01*
X152111Y201353D01*
X152039Y201348D01*
X151915Y201315D01*
X151790Y201291D01*
X151723Y201263D01*
X151654Y201244D01*
X151539Y201187D01*
X151420Y201138D01*
X151361Y201098D01*
X151296Y201066D01*
X151195Y200987D01*
X151089Y200916D01*
X151021Y200851D01*
X150982Y200820D01*
X150950Y200784D01*
X150887Y200723D01*
X149962Y199709D01*
X149928Y199664D01*
X149888Y199624D01*
X149727Y199395D01*
X149018Y198220D01*
X148994Y198169D01*
X148962Y198122D01*
X148881Y197938D01*
X148863Y197902D01*
X148859Y197888D01*
X148849Y197867D01*
X148383Y196576D01*
X148369Y196521D01*
X148347Y196469D01*
X148286Y196196D01*
X148080Y194840D01*
X148078Y194783D01*
X148067Y194727D01*
X148060Y194448D01*
X148123Y193077D01*
X148131Y193021D01*
X148131Y192965D01*
X148173Y192725D01*
X148173Y192724D01*
X148179Y192690D01*
X148508Y191357D01*
X148527Y191304D01*
X148538Y191248D01*
X148639Y190988D01*
X149222Y189746D01*
X149251Y189697D01*
X149272Y189645D01*
X149422Y189409D01*
X150236Y188304D01*
X150274Y188262D01*
X150305Y188215D01*
X150498Y188013D01*
X151512Y187088D01*
X151557Y187054D01*
X151597Y187014D01*
X151826Y186853D01*
X153000Y186144D01*
X153052Y186120D01*
X153099Y186088D01*
X153354Y185975D01*
X154645Y185509D01*
X154700Y185495D01*
X154752Y185473D01*
X155025Y185412D01*
X156381Y185206D01*
X156438Y185204D01*
X156494Y185193D01*
X156773Y185186D01*
X158143Y185249D01*
G37*
D10*
X17780Y552450D03*
X231140Y552450D03*
D11*
X20800Y74590D02*
X20800Y63010D01*
X107200Y63010D02*
X107200Y74590D01*
X20800Y32790D02*
X20800Y21210D01*
X107200Y21210D02*
X107200Y32790D01*
D12*
X35100Y63500D03*
X92900Y63500D03*
D13*
X10000Y106000D03*
X10000Y131400D03*
X10000Y156800D03*
X10000Y182200D03*
X10000Y207600D03*
X10000Y233000D03*
X10000Y258400D03*
X10000Y283800D03*
X10000Y309200D03*
X10000Y334600D03*
X10000Y360000D03*
X10000Y385400D03*
X10000Y410800D03*
X10000Y436200D03*
X10000Y461600D03*
X10000Y487000D03*
X239000Y106000D03*
X239000Y131400D03*
X239000Y156800D03*
X239000Y182200D03*
X239000Y207600D03*
X239000Y233000D03*
X239000Y258400D03*
X239000Y283800D03*
X239000Y309200D03*
X239000Y334600D03*
X239000Y360000D03*
X239000Y385400D03*
X239000Y410800D03*
X239000Y436200D03*
X239000Y461600D03*
X239000Y487000D03*
D14*
X203400Y81200D03*
X180600Y81300D03*
D15*
X158242Y459740D03*
X90678Y459740D03*
X158242Y447040D03*
X158242Y434340D03*
X90678Y447040D03*
X90678Y434340D03*
X158242Y421640D03*
X90678Y421640D03*
D16*
X149350Y473710D03*
X157990Y473710D03*
D17*
X100918Y475358D02*
X98222Y475358D01*
X100918Y475358D02*
X100918Y472062D01*
X98222Y472062D01*
X98222Y475358D01*
X92278Y475358D02*
X89582Y475358D01*
X92278Y475358D02*
X92278Y472062D01*
X89582Y472062D01*
X89582Y475358D01*
D16*
X90680Y485140D03*
X82040Y485140D03*
X157990Y486410D03*
X149350Y486410D03*
D18*
X155672Y389890D03*
X93248Y389890D03*
M02*
