M48
;GenerationSoftware,Autodesk,EAGLE,9.6.2*%
;CreationDate,2022-01-18T06:12:23Z*%
FMAT,2
ICI,OFF
METRIC,TZ,000.000
T4C0.300
T3C0.650
T2C0.700
T1C1.016
%
G90
M71
T1
X23900Y48700
X1000Y23300
X23900Y33460
X23900Y36000
X23900Y38540
X23900Y41080
X23900Y43620
X23900Y46160
X1000Y10600
X1000Y13140
X1000Y15680
X1000Y18220
X1000Y20760
X1000Y25840
X1000Y28380
X1000Y30920
X1000Y33460
X1000Y36000
X1000Y38540
X1000Y41080
X1000Y43620
X1000Y46160
X1000Y48700
X23900Y10600
X23900Y13140
X23900Y15680
X23900Y18220
X23900Y20760
X23900Y23300
X23900Y25840
X23900Y28380
X23900Y30920
T2
X3510Y6350
X9290Y6350
T3
X2080Y6880
X10720Y6880
X2080Y2700
X10720Y2700
T4
X14500Y50600
X16300Y47200
X16300Y48900
X16300Y50600
X18300Y47200
X18300Y48900
X18300Y50600
X9300Y42900
X9300Y41300
X9300Y39400
X9300Y37500
X10900Y42900
X10900Y41300
X10900Y39400
X10900Y37500
X12600Y42900
X14500Y42900
X16300Y42900
X18400Y42900
X12600Y41200
X12600Y39400
X14500Y41200
X16300Y41200
X18400Y41100
X14500Y39500
X16300Y39500
X18400Y39400
X12600Y37500
X14500Y37600
X16300Y37600
X18400Y37600
X18400Y35700
X16300Y35900
X7600Y42900
X7600Y41300
X7600Y39400
X7600Y37500
X7700Y34000
X7700Y32000
X9300Y34000
X10900Y34000
X12600Y34000
X9200Y32000
X10900Y32000
X18400Y31900
X18400Y30100
X4300Y2700
X8500Y2700
X500Y5100
X500Y3600
X500Y2100
X24300Y8500
X24300Y5400
X24300Y3800
X24300Y2400
X24300Y7100
X7600Y35900
X9300Y35900
X10900Y35900
X12600Y35900
X14500Y35900
X18400Y33900
X4400Y50600
X4400Y49000
X4400Y47200
X6300Y42900
X20600Y48500
X20600Y46900
X7700Y50600
X18100Y13300
X5000Y26300
X1300Y900
X2700Y600
X4000Y600
X5400Y600
X6800Y600
X8200Y600
X9800Y600
X11400Y600
X17400Y600
X19200Y600
X21000Y600
X24000Y1000
X12600Y32000
X14500Y34000
X4800Y13500
X20800Y30100
X20700Y50600
X500Y6500
X22300Y11100
X11780Y29940
X3670Y28670
X20955Y19939
X19660Y15610
X22260Y16770
X17200Y16480
X15490Y15430
X13200Y23600
X15500Y32700
X15400Y23500
X16200Y34700
X16100Y8400
X22250Y12160
X21710Y14500
X21740Y13750
X21760Y12960
X22450Y14510
X22460Y13720
X22470Y12950
X6200Y6500
X7500Y6400
X7000Y12600
X2860Y16800
X5100Y42900
X3200Y49800
X6800Y13800
X5600Y37500
X19200Y23600
X17100Y34000
X10300Y24900
X10300Y23700
X10300Y22400
X6700Y11000
X6500Y15500
X5500Y35900
X4800Y15300
X12400Y11900
X9800Y9600
X14800Y7300
X17100Y20200
X9100Y17300
X6900Y21300
X15600Y30400
X7800Y5500
X10800Y8700
X15200Y4300
X22600Y8400
X13200Y17700
X5000Y5500
X7900Y16700
X4300Y18800
X6000Y20200
X15800Y3000
X15800Y700
X22600Y3000
X22600Y700
X3500Y11500
X6200Y45400
X13200Y16500
X14400Y29800
X18200Y23600
X7800Y45400
X9300Y45400
X10900Y45400
X12600Y45400
X14500Y45400
X16300Y45400
X18300Y45500
X6200Y47200
X6200Y49000
X6200Y50600
X7800Y47200
X7800Y49000
X9300Y47200
X9300Y49000
X9300Y50600
X10900Y47200
X10900Y49000
X10900Y50600
X12600Y47200
X12600Y49000
X12600Y50600
X14500Y47200
X14500Y49000
X10300Y21100
M30