M48
;GenerationSoftware,Autodesk,EAGLE,9.6.2*%
;CreationDate,2022-12-22T14:45:45Z*%
FMAT,2
ICI,OFF
METRIC,TZ,000.000
T5C0.300
T4C0.650
T3C0.700
T2C1.016
T1C2.600
%
G90
M71
T1
X23243Y55548
X1907Y55548
T2
X1129Y31223
X24029Y28683
X24029Y31223
X24029Y49003
X24029Y33763
X24029Y36303
X24029Y38843
X24029Y41383
X24029Y43923
X24029Y46463
X1129Y10903
X1129Y13443
X1129Y15983
X1129Y18523
X1129Y21063
X1129Y23603
X1129Y26143
X1129Y28683
X1129Y33763
X1129Y36303
X1129Y38843
X1129Y41383
X1129Y43923
X1129Y46463
X1129Y49003
X24029Y10903
X24029Y13443
X24029Y15983
X24029Y18523
X24029Y21063
X24029Y23603
X24029Y26143
T3
X3687Y6650
X9467Y6650
T4
X2257Y3000
X10897Y3000
X2261Y7191
X10894Y7180
X2264Y7182
X10895Y7187
T5
X12729Y36203
X18529Y34203
X4529Y50903
X4529Y49303
X20729Y48803
X20729Y47203
X18229Y13603
X1429Y1203
X2829Y903
X4129Y903
X5529Y903
X6929Y903
X8329Y903
X9929Y903
X11529Y903
X17529Y903
X19329Y903
X21129Y903
X24129Y1303
X4929Y13803
X20929Y30403
X629Y6803
X11909Y30243
X21084Y20242
X19789Y15913
X22389Y17073
X17329Y16783
X15619Y15733
X20322Y9320
X20322Y8431
X20322Y7542
X22420Y11444
X22420Y10682
X6129Y21900
X8869Y50903
X11409Y50903
X13949Y50903
X16489Y50903
X19029Y50903
X7729Y41608
X9429Y41608
X14634Y36203
X4551Y47474
X18529Y43181
X629Y8200
X18229Y11444
X19626Y11444
X8099Y27576
X10893Y27576
X19591Y17582
X21115Y19233
X11029Y34303
X12098Y17836
X12929Y46503
X13329Y23903
X13978Y33130
X15529Y24184
X14678Y35003
X16229Y8703
X22379Y12463
X21839Y14803
X21869Y14053
X21889Y13263
X22579Y14813
X22589Y14023
X22599Y13253
X18349Y9323
X18349Y8434
X18349Y7545
X7629Y6803
X6329Y6803
X7129Y12903
X2989Y17103
X5229Y43203
X3329Y50103
X17782Y45007
X10856Y42486
X5209Y40689
X6929Y14103
X5729Y37803
X19329Y23903
X17229Y34303
X10429Y25203
X10429Y24003
X10429Y22957
X10429Y21911
X17020Y30275
X6629Y15803
X5629Y36203
X4929Y15603
X9929Y9903
X12575Y12241
X15729Y30703
X3177Y25195
X7929Y5803
X10929Y9003
X15329Y4603
X22729Y8703
X6829Y11303
X17401Y20496
X13210Y17829
X11051Y19226
X8130Y19226
X5129Y5803
X4429Y19103
X6129Y20503
X15929Y3303
X15929Y1003
X22729Y3303
X22729Y1003
X3629Y11803
X14529Y30103
X18329Y23903
X6329Y50903
X12729Y39703
X18529Y41403
X18529Y39703
X12729Y37803
X18529Y37903
X18529Y36003
X7729Y39703
X14130Y23170
X7729Y37803
X7829Y34303
X7829Y32303
X9429Y34303
X12729Y34303
X9329Y32303
X11029Y32303
X18529Y32203
X18529Y30403
X4429Y3003
X8629Y3003
X629Y5403
X629Y3903
X629Y2403
X24429Y8803
X24429Y5703
X24429Y4103
X24429Y2703
X24429Y7403
X7729Y36203
X9429Y36203
X11029Y36203
X12575Y11098
M30