M48
;GenerationSoftware,Autodesk,EAGLE,9.6.2*%
;CreationDate,2022-09-11T16:51:13Z*%
FMAT,2
ICI,OFF
METRIC,TZ,000.000
T5C0.300
T4C0.650
T3C0.700
T2C1.016
T1C2.600
%
G90
M71
T1
X22743Y53748
X1407Y53748
T2
X629Y29423
X23529Y26883
X23529Y29423
X23529Y47203
X23529Y31963
X23529Y34503
X23529Y37043
X23529Y39583
X23529Y42123
X23529Y44663
X629Y9103
X629Y11643
X629Y14183
X629Y16723
X629Y19263
X629Y21803
X629Y24343
X629Y26883
X629Y31963
X629Y34503
X629Y37043
X629Y39583
X629Y42123
X629Y44663
X629Y47203
X23529Y9103
X23529Y11643
X23529Y14183
X23529Y16723
X23529Y19263
X23529Y21803
X23529Y24343
T3
X3187Y4850
X8967Y4850
T4
X1757Y1200
X10397Y1200
X1761Y5391
X10394Y5380
X1764Y5382
X10395Y5387
T5
X12229Y34403
X18029Y32403
X4029Y49103
X4029Y47503
X20229Y47003
X20229Y45403
X17729Y11803
X929Y-597
X2329Y-897
X3629Y-897
X5029Y-897
X6429Y-897
X7829Y-897
X9429Y-897
X11029Y-897
X17029Y-897
X18829Y-897
X20629Y-897
X23629Y-497
X4429Y12003
X20429Y28603
X129Y5003
X11409Y28443
X20584Y18442
X19289Y14113
X21889Y15273
X16829Y14983
X15119Y13933
X19822Y7520
X19822Y6631
X19822Y5742
X21920Y9644
X21920Y8882
X5629Y20100
X8369Y49103
X10909Y49103
X13449Y49103
X15989Y49103
X18529Y49103
X7229Y39808
X8929Y39808
X14134Y34403
X4051Y45674
X18029Y41381
X129Y6400
X17729Y9644
X19126Y9644
X7599Y25776
X10393Y25776
X19091Y15782
X20615Y17433
X10529Y32503
X11598Y16036
X12429Y44703
X12829Y22103
X13478Y31330
X15029Y22384
X14178Y33203
X15729Y6903
X21879Y10663
X21339Y13003
X21369Y12253
X21389Y11463
X22079Y13013
X22089Y12223
X22099Y11453
X17849Y7523
X17849Y6634
X17849Y5745
X7129Y5003
X5829Y5003
X6629Y11103
X2489Y15303
X4729Y41403
X2829Y48303
X17282Y43207
X10356Y40686
X4709Y38889
X6429Y12303
X5229Y36003
X18829Y22103
X16729Y32503
X9929Y23403
X9929Y22203
X9929Y21157
X9929Y20111
X16520Y28475
X6129Y14003
X5129Y34403
X4429Y13803
X9429Y8103
X12075Y10441
X15229Y28903
X2677Y23395
X7429Y4003
X10429Y7203
X14829Y2803
X22229Y6903
X6329Y9503
X16901Y18696
X12710Y16029
X10551Y17426
X7630Y17426
X4629Y4003
X3929Y17303
X5629Y18703
X15429Y1503
X15429Y-797
X22229Y1503
X22229Y-797
X3129Y10003
X14029Y28303
X17829Y22103
X5829Y49103
X12229Y37903
X18029Y39603
X18029Y37903
X12229Y36003
X18029Y36103
X18029Y34203
X7229Y37903
X13630Y21370
X7229Y36003
X7329Y32503
X7329Y30503
X8929Y32503
X12229Y32503
X8829Y30503
X10529Y30503
X18029Y30403
X18029Y28603
X3929Y1203
X8129Y1203
X129Y3603
X129Y2103
X129Y603
X23929Y7003
X23929Y3903
X23929Y2303
X23929Y903
X23929Y5603
X7229Y34403
X8929Y34403
X10529Y34403
X12075Y9298
M30